<?xml version="1.0" standalone="no"?>
<!DOCTYPE svg PUBLIC "-//W3C//DTD SVG 1.1//EN" "http://www.w3.org/Graphics/SVG/1.1/DTD/svg11.dtd">
<svg xmlns="http://www.w3.org/2000/svg" width="210.0mm" height="148.5mm" viewBox="0 0 210.0 148.5" >

  <g id="sheet">
    <line x1="15.0" y1="24.25" x2="195.0" y2="24.25" stroke='blue' stroke-width='0.2' tags='ascender2'/>
    <line x1="15.0" y1="28.0" x2="195.0" y2="28.0" stroke='grey' stroke-width='0.1' stroke-dasharray='2, 2' tags='ascender1'/>
    <line x1="15.0" y1="31.75" x2="195.0" y2="31.75" stroke='grey' stroke-width='0.1' tags='waist'/>
    <line x1="15.0" y1="36.75" x2="195.0" y2="36.75" stroke='red' stroke-width='0.1' tags='base'/>
    <line x1="15.0" y1="40.5" x2="195.0" y2="40.5" stroke='grey' stroke-width='0.1' stroke-dasharray='2, 2' tags='descender1'/>
    <line x1="15.0" y1="44.25" x2="195.0" y2="44.25" stroke='blue' stroke-width='0.2' tags='descender2'/>
    <line x1="15.0" y1="48.0" x2="195.0" y2="48.0" stroke='grey' stroke-width='0.1' stroke-dasharray='2, 2' tags='ascender1'/>
    <line x1="15.0" y1="51.75" x2="195.0" y2="51.75" stroke='grey' stroke-width='0.1' tags='waist'/>
    <line x1="15.0" y1="56.75" x2="195.0" y2="56.75" stroke='red' stroke-width='0.1' tags='base'/>
    <line x1="15.0" y1="60.5" x2="195.0" y2="60.5" stroke='grey' stroke-width='0.1' stroke-dasharray='2, 2' tags='descender1'/>
    <line x1="15.0" y1="64.25" x2="195.0" y2="64.25" stroke='blue' stroke-width='0.2' tags='descender2'/>
    <line x1="15.0" y1="68.0" x2="195.0" y2="68.0" stroke='grey' stroke-width='0.1' stroke-dasharray='2, 2' tags='ascender1'/>
    <line x1="15.0" y1="71.75" x2="195.0" y2="71.75" stroke='grey' stroke-width='0.1' tags='waist'/>
    <line x1="15.0" y1="76.75" x2="195.0" y2="76.75" stroke='red' stroke-width='0.1' tags='base'/>
    <line x1="15.0" y1="80.5" x2="195.0" y2="80.5" stroke='grey' stroke-width='0.1' stroke-dasharray='2, 2' tags='descender1'/>
    <line x1="15.0" y1="84.25" x2="195.0" y2="84.25" stroke='blue' stroke-width='0.2' tags='descender2'/>
    <line x1="15.0" y1="88.0" x2="195.0" y2="88.0" stroke='grey' stroke-width='0.1' stroke-dasharray='2, 2' tags='ascender1'/>
    <line x1="15.0" y1="91.75" x2="195.0" y2="91.75" stroke='grey' stroke-width='0.1' tags='waist'/>
    <line x1="15.0" y1="96.75" x2="195.0" y2="96.75" stroke='red' stroke-width='0.1' tags='base'/>
    <line x1="15.0" y1="100.5" x2="195.0" y2="100.5" stroke='grey' stroke-width='0.1' stroke-dasharray='2, 2' tags='descender1'/>
    <line x1="15.0" y1="104.25" x2="195.0" y2="104.25" stroke='blue' stroke-width='0.2' tags='descender2'/>
    <line x1="15.0" y1="108.0" x2="195.0" y2="108.0" stroke='grey' stroke-width='0.1' stroke-dasharray='2, 2' tags='ascender1'/>
    <line x1="15.0" y1="111.75" x2="195.0" y2="111.75" stroke='grey' stroke-width='0.1' tags='waist'/>
    <line x1="15.0" y1="116.75" x2="195.0" y2="116.75" stroke='red' stroke-width='0.1' tags='base'/>
    <line x1="15.0" y1="120.5" x2="195.0" y2="120.5" stroke='grey' stroke-width='0.1' stroke-dasharray='2, 2' tags='descender1'/>
    <line x1="15.0" y1="124.25" x2="195.0" y2="124.25" stroke='blue' stroke-width='0.2' tags='descender2'/>
    <line x1="15.0" y1="24.25" x2="15.0" y2="24.25" stroke='blue' stroke-width='0.1' tags='slant'/>
    <line x1="15.0" y1="32.27257" x2="21.26792" y2="24.25" stroke='blue' stroke-width='0.1' tags='slant'/>
    <line x1="15.0" y1="40.29513" x2="27.53583" y2="24.25" stroke='blue' stroke-width='0.1' tags='slant'/>
    <line x1="15.0" y1="48.3177" x2="33.80375" y2="24.25" stroke='blue' stroke-width='0.1' tags='slant'/>
    <line x1="15.0" y1="56.34026" x2="40.07166" y2="24.25" stroke='blue' stroke-width='0.1' tags='slant'/>
    <line x1="15.0" y1="64.36283" x2="46.33958" y2="24.25" stroke='blue' stroke-width='0.1' tags='slant'/>
    <line x1="15.0" y1="72.3854" x2="52.60749" y2="24.25" stroke='blue' stroke-width='0.1' tags='slant'/>
    <line x1="15.0" y1="80.40796" x2="58.87541" y2="24.25" stroke='blue' stroke-width='0.1' tags='slant'/>
    <line x1="15.0" y1="88.43053" x2="65.14332" y2="24.25" stroke='blue' stroke-width='0.1' tags='slant'/>
    <line x1="15.0" y1="96.45309" x2="71.41124" y2="24.25" stroke='blue' stroke-width='0.1' tags='slant'/>
    <line x1="15.0" y1="104.47566" x2="77.67916" y2="24.25" stroke='blue' stroke-width='0.1' tags='slant'/>
    <line x1="15.0" y1="112.49823" x2="83.94707" y2="24.25" stroke='blue' stroke-width='0.1' tags='slant'/>
    <line x1="15.0" y1="120.52079" x2="90.21499" y2="24.25" stroke='blue' stroke-width='0.1' tags='slant'/>
    <line x1="18.35434" y1="124.25" x2="96.4829" y2="24.25" stroke='blue' stroke-width='0.1' tags='slant'/>
    <line x1="24.62226" y1="124.25" x2="102.75082" y2="24.25" stroke='blue' stroke-width='0.1' tags='slant'/>
    <line x1="30.89017" y1="124.25" x2="109.01873" y2="24.25" stroke='blue' stroke-width='0.1' tags='slant'/>
    <line x1="37.15809" y1="124.25" x2="115.28665" y2="24.25" stroke='blue' stroke-width='0.1' tags='slant'/>
    <line x1="43.426" y1="124.25" x2="121.55457" y2="24.25" stroke='blue' stroke-width='0.1' tags='slant'/>
    <line x1="49.69392" y1="124.25" x2="127.82248" y2="24.25" stroke='blue' stroke-width='0.1' tags='slant'/>
    <line x1="55.96183" y1="124.25" x2="134.0904" y2="24.25" stroke='blue' stroke-width='0.1' tags='slant'/>
    <line x1="62.22975" y1="124.25" x2="140.35831" y2="24.25" stroke='blue' stroke-width='0.1' tags='slant'/>
    <line x1="68.49766" y1="124.25" x2="146.62623" y2="24.25" stroke='blue' stroke-width='0.1' tags='slant'/>
    <line x1="74.76558" y1="124.25" x2="152.89414" y2="24.25" stroke='blue' stroke-width='0.1' tags='slant'/>
    <line x1="81.0335" y1="124.25" x2="159.16206" y2="24.25" stroke='blue' stroke-width='0.1' tags='slant'/>
    <line x1="87.30141" y1="124.25" x2="165.42997" y2="24.25" stroke='blue' stroke-width='0.1' tags='slant'/>
    <line x1="93.56933" y1="124.25" x2="171.69789" y2="24.25" stroke='blue' stroke-width='0.1' tags='slant'/>
    <line x1="99.83724" y1="124.25" x2="177.96581" y2="24.25" stroke='blue' stroke-width='0.1' tags='slant'/>
    <line x1="106.10516" y1="124.25" x2="184.23372" y2="24.25" stroke='blue' stroke-width='0.1' tags='slant'/>
    <line x1="112.37307" y1="124.25" x2="190.50164" y2="24.25" stroke='blue' stroke-width='0.1' tags='slant'/>
    <line x1="118.64099" y1="124.25" x2="195.0" y2="26.51492" stroke='blue' stroke-width='0.1' tags='slant'/>
    <line x1="124.90891" y1="124.25" x2="195.0" y2="34.53749" stroke='blue' stroke-width='0.1' tags='slant'/>
    <line x1="131.17682" y1="124.25" x2="195.0" y2="42.56006" stroke='blue' stroke-width='0.1' tags='slant'/>
    <line x1="137.44474" y1="124.25" x2="195.0" y2="50.58262" stroke='blue' stroke-width='0.1' tags='slant'/>
    <line x1="143.71265" y1="124.25" x2="195.0" y2="58.60519" stroke='blue' stroke-width='0.1' tags='slant'/>
    <line x1="149.98057" y1="124.25" x2="195.0" y2="66.62775" stroke='blue' stroke-width='0.1' tags='slant'/>
    <line x1="156.24848" y1="124.25" x2="195.0" y2="74.65032" stroke='blue' stroke-width='0.1' tags='slant'/>
    <line x1="162.5164" y1="124.25" x2="195.0" y2="82.67289" stroke='blue' stroke-width='0.1' tags='slant'/>
    <line x1="168.78431" y1="124.25" x2="195.0" y2="90.69545" stroke='blue' stroke-width='0.1' tags='slant'/>
    <line x1="175.05223" y1="124.25" x2="195.0" y2="98.71802" stroke='blue' stroke-width='0.1' tags='slant'/>
    <line x1="181.32015" y1="124.25" x2="195.0" y2="106.74058" stroke='blue' stroke-width='0.1' tags='slant'/>
    <line x1="187.58806" y1="124.25" x2="195.0" y2="114.76315" stroke='blue' stroke-width='0.1' tags='slant'/>
    <line x1="193.85598" y1="124.25" x2="195.0" y2="122.78572" stroke='blue' stroke-width='0.1' tags='slant'/>
    <line x1="15.0" y1="29.20169" x2="23.57658" y2="24.25" stroke='blue' stroke-width='0.07' stroke-dasharray='2, 2' tags='connective'/>
    <line x1="15.0" y1="34.15338" x2="32.15316" y2="24.25" stroke='blue' stroke-width='0.07' stroke-dasharray='2, 2' tags='connective'/>
    <line x1="15.0" y1="39.10507" x2="40.72973" y2="24.25" stroke='blue' stroke-width='0.07' stroke-dasharray='2, 2' tags='connective'/>
    <line x1="15.0" y1="44.05676" x2="49.30631" y2="24.25" stroke='blue' stroke-width='0.07' stroke-dasharray='2, 2' tags='connective'/>
    <line x1="15.0" y1="49.00845" x2="57.88289" y2="24.25" stroke='blue' stroke-width='0.07' stroke-dasharray='2, 2' tags='connective'/>
    <line x1="15.0" y1="53.96014" x2="66.45947" y2="24.25" stroke='blue' stroke-width='0.07' stroke-dasharray='2, 2' tags='connective'/>
    <line x1="15.0" y1="58.91183" x2="75.03604" y2="24.25" stroke='blue' stroke-width='0.07' stroke-dasharray='2, 2' tags='connective'/>
    <line x1="15.0" y1="63.86351" x2="83.61262" y2="24.25" stroke='blue' stroke-width='0.07' stroke-dasharray='2, 2' tags='connective'/>
    <line x1="15.0" y1="68.8152" x2="92.1892" y2="24.25" stroke='blue' stroke-width='0.07' stroke-dasharray='2, 2' tags='connective'/>
    <line x1="15.0" y1="73.76689" x2="100.76578" y2="24.25" stroke='blue' stroke-width='0.07' stroke-dasharray='2, 2' tags='connective'/>
    <line x1="15.0" y1="78.71858" x2="109.34235" y2="24.25" stroke='blue' stroke-width='0.07' stroke-dasharray='2, 2' tags='connective'/>
    <line x1="15.0" y1="83.67027" x2="117.91893" y2="24.25" stroke='blue' stroke-width='0.07' stroke-dasharray='2, 2' tags='connective'/>
    <line x1="15.0" y1="88.62196" x2="126.49551" y2="24.25" stroke='blue' stroke-width='0.07' stroke-dasharray='2, 2' tags='connective'/>
    <line x1="15.0" y1="93.57365" x2="135.07209" y2="24.25" stroke='blue' stroke-width='0.07' stroke-dasharray='2, 2' tags='connective'/>
    <line x1="15.0" y1="98.52534" x2="143.64866" y2="24.25" stroke='blue' stroke-width='0.07' stroke-dasharray='2, 2' tags='connective'/>
    <line x1="15.0" y1="103.47703" x2="152.22524" y2="24.25" stroke='blue' stroke-width='0.07' stroke-dasharray='2, 2' tags='connective'/>
    <line x1="15.0" y1="108.42872" x2="160.80182" y2="24.25" stroke='blue' stroke-width='0.07' stroke-dasharray='2, 2' tags='connective'/>
    <line x1="15.0" y1="113.38041" x2="169.3784" y2="24.25" stroke='blue' stroke-width='0.07' stroke-dasharray='2, 2' tags='connective'/>
    <line x1="15.0" y1="118.3321" x2="177.95497" y2="24.25" stroke='blue' stroke-width='0.07' stroke-dasharray='2, 2' tags='connective'/>
    <line x1="15.0" y1="123.28379" x2="186.53155" y2="24.25" stroke='blue' stroke-width='0.07' stroke-dasharray='2, 2' tags='connective'/>
    <line x1="21.90305" y1="124.25" x2="195.0" y2="24.31243" stroke='blue' stroke-width='0.07' stroke-dasharray='2, 2' tags='connective'/>
    <line x1="30.47963" y1="124.25" x2="195.0" y2="29.26412" stroke='blue' stroke-width='0.07' stroke-dasharray='2, 2' tags='connective'/>
    <line x1="39.0562" y1="124.25" x2="195.0" y2="34.21581" stroke='blue' stroke-width='0.07' stroke-dasharray='2, 2' tags='connective'/>
    <line x1="47.63278" y1="124.25" x2="195.0" y2="39.1675" stroke='blue' stroke-width='0.07' stroke-dasharray='2, 2' tags='connective'/>
    <line x1="56.20936" y1="124.25" x2="195.0" y2="44.11919" stroke='blue' stroke-width='0.07' stroke-dasharray='2, 2' tags='connective'/>
    <line x1="64.78594" y1="124.25" x2="195.0" y2="49.07087" stroke='blue' stroke-width='0.07' stroke-dasharray='2, 2' tags='connective'/>
    <line x1="73.36251" y1="124.25" x2="195.0" y2="54.02256" stroke='blue' stroke-width='0.07' stroke-dasharray='2, 2' tags='connective'/>
    <line x1="81.93909" y1="124.25" x2="195.0" y2="58.97425" stroke='blue' stroke-width='0.07' stroke-dasharray='2, 2' tags='connective'/>
    <line x1="90.51567" y1="124.25" x2="195.0" y2="63.92594" stroke='blue' stroke-width='0.07' stroke-dasharray='2, 2' tags='connective'/>
    <line x1="99.09225" y1="124.25" x2="195.0" y2="68.87763" stroke='blue' stroke-width='0.07' stroke-dasharray='2, 2' tags='connective'/>
    <line x1="107.66882" y1="124.25" x2="195.0" y2="73.82932" stroke='blue' stroke-width='0.07' stroke-dasharray='2, 2' tags='connective'/>
    <line x1="116.2454" y1="124.25" x2="195.0" y2="78.78101" stroke='blue' stroke-width='0.07' stroke-dasharray='2, 2' tags='connective'/>
    <line x1="124.82198" y1="124.25" x2="195.0" y2="83.7327" stroke='blue' stroke-width='0.07' stroke-dasharray='2, 2' tags='connective'/>
    <line x1="133.39856" y1="124.25" x2="195.0" y2="88.68439" stroke='blue' stroke-width='0.07' stroke-dasharray='2, 2' tags='connective'/>
    <line x1="141.97513" y1="124.25" x2="195.0" y2="93.63608" stroke='blue' stroke-width='0.07' stroke-dasharray='2, 2' tags='connective'/>
    <line x1="150.55171" y1="124.25" x2="195.0" y2="98.58777" stroke='blue' stroke-width='0.07' stroke-dasharray='2, 2' tags='connective'/>
    <line x1="159.12829" y1="124.25" x2="195.0" y2="103.53946" stroke='blue' stroke-width='0.07' stroke-dasharray='2, 2' tags='connective'/>
    <line x1="167.70487" y1="124.25" x2="195.0" y2="108.49115" stroke='blue' stroke-width='0.07' stroke-dasharray='2, 2' tags='connective'/>
    <line x1="176.28144" y1="124.25" x2="195.0" y2="113.44284" stroke='blue' stroke-width='0.07' stroke-dasharray='2, 2' tags='connective'/>
    <line x1="184.85802" y1="124.25" x2="195.0" y2="118.39453" stroke='blue' stroke-width='0.07' stroke-dasharray='2, 2' tags='connective'/>
    <line x1="193.4346" y1="124.25" x2="195.0" y2="123.34621" stroke='blue' stroke-width='0.07' stroke-dasharray='2, 2' tags='connective'/>
  </g>
</svg>
