<?xml version="1.0" standalone="no"?>
<!DOCTYPE svg PUBLIC "-//W3C//DTD SVG 1.1//EN" "http://www.w3.org/Graphics/SVG/1.1/DTD/svg11.dtd">
<svg xmlns="http://www.w3.org/2000/svg" width="297.0mm" height="210.0mm" viewBox="0 0 297.0 210.0" shape-rendering="geometricPrecision" >
  <style>
    svg       { stroke: #ed008c; stroke-width: 0.04; }
    .altcolor { stroke: blue; }
    .thin     { stroke-width: 0.02; }
    .thick    { stroke-width: 0.08; }
    .dashed   { stroke-dasharray: 2 2; }
  </style>
  <g id="sheet">
    <line x1="22.5" y1="21.0" x2="274.5" y2="21.0" class='hline'/>
    <line x1="22.5" y1="28.0" x2="274.5" y2="28.0" class='hline'/>
    <line x1="22.5" y1="35.0" x2="274.5" y2="35.0" class='hline'/>
    <line x1="22.5" y1="42.0" x2="274.5" y2="42.0" class='hline'/>
    <line x1="22.5" y1="49.0" x2="274.5" y2="49.0" class='hline'/>
    <line x1="22.5" y1="56.0" x2="274.5" y2="56.0" class='hline'/>
    <line x1="22.5" y1="63.0" x2="274.5" y2="63.0" class='hline'/>
    <line x1="22.5" y1="70.0" x2="274.5" y2="70.0" class='hline'/>
    <line x1="22.5" y1="77.0" x2="274.5" y2="77.0" class='hline'/>
    <line x1="22.5" y1="84.0" x2="274.5" y2="84.0" class='hline'/>
    <line x1="22.5" y1="91.0" x2="274.5" y2="91.0" class='hline'/>
    <line x1="22.5" y1="98.0" x2="274.5" y2="98.0" class='hline'/>
    <line x1="22.5" y1="105.0" x2="274.5" y2="105.0" class='hline'/>
    <line x1="22.5" y1="112.0" x2="274.5" y2="112.0" class='hline'/>
    <line x1="22.5" y1="119.0" x2="274.5" y2="119.0" class='hline'/>
    <line x1="22.5" y1="126.0" x2="274.5" y2="126.0" class='hline'/>
    <line x1="22.5" y1="133.0" x2="274.5" y2="133.0" class='hline'/>
    <line x1="22.5" y1="140.0" x2="274.5" y2="140.0" class='hline'/>
    <line x1="22.5" y1="147.0" x2="274.5" y2="147.0" class='hline'/>
    <line x1="22.5" y1="154.0" x2="274.5" y2="154.0" class='hline'/>
    <line x1="22.5" y1="161.0" x2="274.5" y2="161.0" class='hline'/>
    <line x1="22.5" y1="168.0" x2="274.5" y2="168.0" class='hline'/>
    <line x1="22.5" y1="175.0" x2="274.5" y2="175.0" class='hline'/>
    <line x1="22.5" y1="182.0" x2="274.5" y2="182.0" class='hline'/>
    <line x1="22.5" y1="189.0" x2="274.5" y2="189.0" class='hline'/>
    <line x1="22.5" y1="21.0" x2="22.5" y2="189.0" class='vline'/>
    <line x1="29.5" y1="21.0" x2="29.5" y2="189.0" class='vline'/>
    <line x1="36.5" y1="21.0" x2="36.5" y2="189.0" class='vline'/>
    <line x1="43.5" y1="21.0" x2="43.5" y2="189.0" class='vline'/>
    <line x1="50.5" y1="21.0" x2="50.5" y2="189.0" class='vline'/>
    <line x1="57.5" y1="21.0" x2="57.5" y2="189.0" class='vline'/>
    <line x1="64.5" y1="21.0" x2="64.5" y2="189.0" class='vline'/>
    <line x1="71.5" y1="21.0" x2="71.5" y2="189.0" class='vline'/>
    <line x1="78.5" y1="21.0" x2="78.5" y2="189.0" class='vline'/>
    <line x1="85.5" y1="21.0" x2="85.5" y2="189.0" class='vline'/>
    <line x1="92.5" y1="21.0" x2="92.5" y2="189.0" class='vline'/>
    <line x1="99.5" y1="21.0" x2="99.5" y2="189.0" class='vline'/>
    <line x1="106.5" y1="21.0" x2="106.5" y2="189.0" class='vline'/>
    <line x1="113.5" y1="21.0" x2="113.5" y2="189.0" class='vline'/>
    <line x1="120.5" y1="21.0" x2="120.5" y2="189.0" class='vline'/>
    <line x1="127.5" y1="21.0" x2="127.5" y2="189.0" class='vline'/>
    <line x1="134.5" y1="21.0" x2="134.5" y2="189.0" class='vline'/>
    <line x1="141.5" y1="21.0" x2="141.5" y2="189.0" class='vline'/>
    <line x1="148.5" y1="21.0" x2="148.5" y2="189.0" class='vline'/>
    <line x1="155.5" y1="21.0" x2="155.5" y2="189.0" class='vline'/>
    <line x1="162.5" y1="21.0" x2="162.5" y2="189.0" class='vline'/>
    <line x1="169.5" y1="21.0" x2="169.5" y2="189.0" class='vline'/>
    <line x1="176.5" y1="21.0" x2="176.5" y2="189.0" class='vline'/>
    <line x1="183.5" y1="21.0" x2="183.5" y2="189.0" class='vline'/>
    <line x1="190.5" y1="21.0" x2="190.5" y2="189.0" class='vline'/>
    <line x1="197.5" y1="21.0" x2="197.5" y2="189.0" class='vline'/>
    <line x1="204.5" y1="21.0" x2="204.5" y2="189.0" class='vline'/>
    <line x1="211.5" y1="21.0" x2="211.5" y2="189.0" class='vline'/>
    <line x1="218.5" y1="21.0" x2="218.5" y2="189.0" class='vline'/>
    <line x1="225.5" y1="21.0" x2="225.5" y2="189.0" class='vline'/>
    <line x1="232.5" y1="21.0" x2="232.5" y2="189.0" class='vline'/>
    <line x1="239.5" y1="21.0" x2="239.5" y2="189.0" class='vline'/>
    <line x1="246.5" y1="21.0" x2="246.5" y2="189.0" class='vline'/>
    <line x1="253.5" y1="21.0" x2="253.5" y2="189.0" class='vline'/>
    <line x1="260.5" y1="21.0" x2="260.5" y2="189.0" class='vline'/>
    <line x1="267.5" y1="21.0" x2="267.5" y2="189.0" class='vline'/>
    <line x1="274.5" y1="21.0" x2="274.5" y2="189.0" class='vline'/>
    <rect width="42.0" height="42.0" x="22.5" y="21.0" fill='none' class='square'/>
    <rect width="42.0" height="42.0" x="64.5" y="21.0" fill='none' class='square'/>
    <rect width="42.0" height="42.0" x="106.5" y="21.0" fill='none' class='square'/>
    <rect width="42.0" height="42.0" x="148.5" y="21.0" fill='none' class='square'/>
    <rect width="42.0" height="42.0" x="190.5" y="21.0" fill='none' class='square'/>
    <rect width="42.0" height="42.0" x="232.5" y="21.0" fill='none' class='square'/>
    <rect width="42.0" height="42.0" x="22.5" y="63.0" fill='none' class='square'/>
    <rect width="42.0" height="42.0" x="64.5" y="63.0" fill='none' class='square'/>
    <rect width="42.0" height="42.0" x="106.5" y="63.0" fill='none' class='square'/>
    <rect width="42.0" height="42.0" x="148.5" y="63.0" fill='none' class='square'/>
    <rect width="42.0" height="42.0" x="190.5" y="63.0" fill='none' class='square'/>
    <rect width="42.0" height="42.0" x="232.5" y="63.0" fill='none' class='square'/>
    <rect width="42.0" height="42.0" x="22.5" y="105.0" fill='none' class='square'/>
    <rect width="42.0" height="42.0" x="64.5" y="105.0" fill='none' class='square'/>
    <rect width="42.0" height="42.0" x="106.5" y="105.0" fill='none' class='square'/>
    <rect width="42.0" height="42.0" x="148.5" y="105.0" fill='none' class='square'/>
    <rect width="42.0" height="42.0" x="190.5" y="105.0" fill='none' class='square'/>
    <rect width="42.0" height="42.0" x="232.5" y="105.0" fill='none' class='square'/>
    <rect width="42.0" height="42.0" x="22.5" y="147.0" fill='none' class='square'/>
    <rect width="42.0" height="42.0" x="64.5" y="147.0" fill='none' class='square'/>
    <rect width="42.0" height="42.0" x="106.5" y="147.0" fill='none' class='square'/>
    <rect width="42.0" height="42.0" x="148.5" y="147.0" fill='none' class='square'/>
    <rect width="42.0" height="42.0" x="190.5" y="147.0" fill='none' class='square'/>
    <rect width="42.0" height="42.0" x="232.5" y="147.0" fill='none' class='square'/>
  </g>
</svg>
