<?xml version="1.0" standalone="no"?>
<!DOCTYPE svg PUBLIC "-//W3C//DTD SVG 1.1//EN" "http://www.w3.org/Graphics/SVG/1.1/DTD/svg11.dtd">
<svg xmlns="http://www.w3.org/2000/svg" width="297.0mm" height="210.0mm" viewBox="0 0 297.0 210.0" shape-rendering="geometricPrecision" >
  <style>
    svg         { stroke:            #ed008c; }
    svg         { stroke-width:         0.04; }
    .altcolor   { stroke:               blue; }
    .extrafine  { stroke-width:         0.01; }
    .fine       { stroke-width:         0.02; }
    .medium     { stroke-width:         0.04; }
    .broad      { stroke-width:         0.08; }
    .extrabroad { stroke-width:         0.16; }
    .dashed     { stroke-dasharray:      2 2; }
  </style>
  <g id="sheet">
    <line x1="28.5" y1="25.0" x2="268.5" y2="25.0" class='hline'/>
    <line x1="28.5" y1="35.0" x2="268.5" y2="35.0" class='hline'/>
    <line x1="28.5" y1="45.0" x2="268.5" y2="45.0" class='hline'/>
    <line x1="28.5" y1="55.0" x2="268.5" y2="55.0" class='hline'/>
    <line x1="28.5" y1="65.0" x2="268.5" y2="65.0" class='hline'/>
    <line x1="28.5" y1="75.0" x2="268.5" y2="75.0" class='hline'/>
    <line x1="28.5" y1="85.0" x2="268.5" y2="85.0" class='hline'/>
    <line x1="28.5" y1="95.0" x2="268.5" y2="95.0" class='hline'/>
    <line x1="28.5" y1="105.0" x2="268.5" y2="105.0" class='hline'/>
    <line x1="28.5" y1="115.0" x2="268.5" y2="115.0" class='hline'/>
    <line x1="28.5" y1="125.0" x2="268.5" y2="125.0" class='hline'/>
    <line x1="28.5" y1="135.0" x2="268.5" y2="135.0" class='hline'/>
    <line x1="28.5" y1="145.0" x2="268.5" y2="145.0" class='hline'/>
    <line x1="28.5" y1="155.0" x2="268.5" y2="155.0" class='hline'/>
    <line x1="28.5" y1="165.0" x2="268.5" y2="165.0" class='hline'/>
    <line x1="28.5" y1="175.0" x2="268.5" y2="175.0" class='hline'/>
    <line x1="28.5" y1="185.0" x2="268.5" y2="185.0" class='hline'/>
    <line x1="28.5" y1="25.0" x2="28.5" y2="185.0" class='vline'/>
    <line x1="38.5" y1="25.0" x2="38.5" y2="185.0" class='vline'/>
    <line x1="48.5" y1="25.0" x2="48.5" y2="185.0" class='vline'/>
    <line x1="58.5" y1="25.0" x2="58.5" y2="185.0" class='vline'/>
    <line x1="68.5" y1="25.0" x2="68.5" y2="185.0" class='vline'/>
    <line x1="78.5" y1="25.0" x2="78.5" y2="185.0" class='vline'/>
    <line x1="88.5" y1="25.0" x2="88.5" y2="185.0" class='vline'/>
    <line x1="98.5" y1="25.0" x2="98.5" y2="185.0" class='vline'/>
    <line x1="108.5" y1="25.0" x2="108.5" y2="185.0" class='vline'/>
    <line x1="118.5" y1="25.0" x2="118.5" y2="185.0" class='vline'/>
    <line x1="128.5" y1="25.0" x2="128.5" y2="185.0" class='vline'/>
    <line x1="138.5" y1="25.0" x2="138.5" y2="185.0" class='vline'/>
    <line x1="148.5" y1="25.0" x2="148.5" y2="185.0" class='vline'/>
    <line x1="158.5" y1="25.0" x2="158.5" y2="185.0" class='vline'/>
    <line x1="168.5" y1="25.0" x2="168.5" y2="185.0" class='vline'/>
    <line x1="178.5" y1="25.0" x2="178.5" y2="185.0" class='vline'/>
    <line x1="188.5" y1="25.0" x2="188.5" y2="185.0" class='vline'/>
    <line x1="198.5" y1="25.0" x2="198.5" y2="185.0" class='vline'/>
    <line x1="208.5" y1="25.0" x2="208.5" y2="185.0" class='vline'/>
    <line x1="218.5" y1="25.0" x2="218.5" y2="185.0" class='vline'/>
    <line x1="228.5" y1="25.0" x2="228.5" y2="185.0" class='vline'/>
    <line x1="238.5" y1="25.0" x2="238.5" y2="185.0" class='vline'/>
    <line x1="248.5" y1="25.0" x2="248.5" y2="185.0" class='vline'/>
    <line x1="258.5" y1="25.0" x2="258.5" y2="185.0" class='vline'/>
    <line x1="268.5" y1="25.0" x2="268.5" y2="185.0" class='vline'/>
    <rect width="80.0" height="80.0" x="28.5" y="25.0" fill='none' class='square extrabroad'/>
    <rect width="80.0" height="80.0" x="108.5" y="25.0" fill='none' class='square extrabroad'/>
    <rect width="80.0" height="80.0" x="188.5" y="25.0" fill='none' class='square extrabroad'/>
    <rect width="80.0" height="80.0" x="28.5" y="105.0" fill='none' class='square extrabroad'/>
    <rect width="80.0" height="80.0" x="108.5" y="105.0" fill='none' class='square extrabroad'/>
    <rect width="80.0" height="80.0" x="188.5" y="105.0" fill='none' class='square extrabroad'/>
  </g>
</svg>
