<?xml version="1.0" standalone="no"?>
<!DOCTYPE svg PUBLIC "-//W3C//DTD SVG 1.1//EN" "http://www.w3.org/Graphics/SVG/1.1/DTD/svg11.dtd">
<svg xmlns="http://www.w3.org/2000/svg" width="210.0mm" height="297.0mm" viewBox="0 0 210.0 297.0" shape-rendering="geometricPrecision" >
  <style>
    svg         { stroke:            #ed008c; }
    svg         { stroke-width:         0.04; }
    .altcolor   { stroke:               blue; }
    .extrafine  { stroke-width:         0.01; }
    .fine       { stroke-width:         0.02; }
    .medium     { stroke-width:         0.04; }
    .broad      { stroke-width:         0.08; }
    .extrabroad { stroke-width:         0.16; }
    .dashed     { stroke-dasharray:      2 2; }
  </style>
  <g id="sheet">
    <line x1="25.0" y1="28.5" x2="185.0" y2="28.5" class='hline'/>
    <line x1="25.0" y1="33.5" x2="185.0" y2="33.5" class='hline'/>
    <line x1="25.0" y1="38.5" x2="185.0" y2="38.5" class='hline'/>
    <line x1="25.0" y1="43.5" x2="185.0" y2="43.5" class='hline'/>
    <line x1="25.0" y1="48.5" x2="185.0" y2="48.5" class='hline'/>
    <line x1="25.0" y1="53.5" x2="185.0" y2="53.5" class='hline'/>
    <line x1="25.0" y1="58.5" x2="185.0" y2="58.5" class='hline'/>
    <line x1="25.0" y1="63.5" x2="185.0" y2="63.5" class='hline'/>
    <line x1="25.0" y1="68.5" x2="185.0" y2="68.5" class='hline'/>
    <line x1="25.0" y1="73.5" x2="185.0" y2="73.5" class='hline'/>
    <line x1="25.0" y1="78.5" x2="185.0" y2="78.5" class='hline'/>
    <line x1="25.0" y1="83.5" x2="185.0" y2="83.5" class='hline'/>
    <line x1="25.0" y1="88.5" x2="185.0" y2="88.5" class='hline'/>
    <line x1="25.0" y1="93.5" x2="185.0" y2="93.5" class='hline'/>
    <line x1="25.0" y1="98.5" x2="185.0" y2="98.5" class='hline'/>
    <line x1="25.0" y1="103.5" x2="185.0" y2="103.5" class='hline'/>
    <line x1="25.0" y1="108.5" x2="185.0" y2="108.5" class='hline'/>
    <line x1="25.0" y1="113.5" x2="185.0" y2="113.5" class='hline'/>
    <line x1="25.0" y1="118.5" x2="185.0" y2="118.5" class='hline'/>
    <line x1="25.0" y1="123.5" x2="185.0" y2="123.5" class='hline'/>
    <line x1="25.0" y1="128.5" x2="185.0" y2="128.5" class='hline'/>
    <line x1="25.0" y1="133.5" x2="185.0" y2="133.5" class='hline'/>
    <line x1="25.0" y1="138.5" x2="185.0" y2="138.5" class='hline'/>
    <line x1="25.0" y1="143.5" x2="185.0" y2="143.5" class='hline'/>
    <line x1="25.0" y1="148.5" x2="185.0" y2="148.5" class='hline'/>
    <line x1="25.0" y1="153.5" x2="185.0" y2="153.5" class='hline'/>
    <line x1="25.0" y1="158.5" x2="185.0" y2="158.5" class='hline'/>
    <line x1="25.0" y1="163.5" x2="185.0" y2="163.5" class='hline'/>
    <line x1="25.0" y1="168.5" x2="185.0" y2="168.5" class='hline'/>
    <line x1="25.0" y1="173.5" x2="185.0" y2="173.5" class='hline'/>
    <line x1="25.0" y1="178.5" x2="185.0" y2="178.5" class='hline'/>
    <line x1="25.0" y1="183.5" x2="185.0" y2="183.5" class='hline'/>
    <line x1="25.0" y1="188.5" x2="185.0" y2="188.5" class='hline'/>
    <line x1="25.0" y1="193.5" x2="185.0" y2="193.5" class='hline'/>
    <line x1="25.0" y1="198.5" x2="185.0" y2="198.5" class='hline'/>
    <line x1="25.0" y1="203.5" x2="185.0" y2="203.5" class='hline'/>
    <line x1="25.0" y1="208.5" x2="185.0" y2="208.5" class='hline'/>
    <line x1="25.0" y1="213.5" x2="185.0" y2="213.5" class='hline'/>
    <line x1="25.0" y1="218.5" x2="185.0" y2="218.5" class='hline'/>
    <line x1="25.0" y1="223.5" x2="185.0" y2="223.5" class='hline'/>
    <line x1="25.0" y1="228.5" x2="185.0" y2="228.5" class='hline'/>
    <line x1="25.0" y1="233.5" x2="185.0" y2="233.5" class='hline'/>
    <line x1="25.0" y1="238.5" x2="185.0" y2="238.5" class='hline'/>
    <line x1="25.0" y1="243.5" x2="185.0" y2="243.5" class='hline'/>
    <line x1="25.0" y1="248.5" x2="185.0" y2="248.5" class='hline'/>
    <line x1="25.0" y1="253.5" x2="185.0" y2="253.5" class='hline'/>
    <line x1="25.0" y1="258.5" x2="185.0" y2="258.5" class='hline'/>
    <line x1="25.0" y1="263.5" x2="185.0" y2="263.5" class='hline'/>
    <line x1="25.0" y1="268.5" x2="185.0" y2="268.5" class='hline'/>
    <line x1="25.0" y1="28.5" x2="25.0" y2="268.5" class='vline'/>
    <line x1="30.0" y1="28.5" x2="30.0" y2="268.5" class='vline'/>
    <line x1="35.0" y1="28.5" x2="35.0" y2="268.5" class='vline'/>
    <line x1="40.0" y1="28.5" x2="40.0" y2="268.5" class='vline'/>
    <line x1="45.0" y1="28.5" x2="45.0" y2="268.5" class='vline'/>
    <line x1="50.0" y1="28.5" x2="50.0" y2="268.5" class='vline'/>
    <line x1="55.0" y1="28.5" x2="55.0" y2="268.5" class='vline'/>
    <line x1="60.0" y1="28.5" x2="60.0" y2="268.5" class='vline'/>
    <line x1="65.0" y1="28.5" x2="65.0" y2="268.5" class='vline'/>
    <line x1="70.0" y1="28.5" x2="70.0" y2="268.5" class='vline'/>
    <line x1="75.0" y1="28.5" x2="75.0" y2="268.5" class='vline'/>
    <line x1="80.0" y1="28.5" x2="80.0" y2="268.5" class='vline'/>
    <line x1="85.0" y1="28.5" x2="85.0" y2="268.5" class='vline'/>
    <line x1="90.0" y1="28.5" x2="90.0" y2="268.5" class='vline'/>
    <line x1="95.0" y1="28.5" x2="95.0" y2="268.5" class='vline'/>
    <line x1="100.0" y1="28.5" x2="100.0" y2="268.5" class='vline'/>
    <line x1="105.0" y1="28.5" x2="105.0" y2="268.5" class='vline'/>
    <line x1="110.0" y1="28.5" x2="110.0" y2="268.5" class='vline'/>
    <line x1="115.0" y1="28.5" x2="115.0" y2="268.5" class='vline'/>
    <line x1="120.0" y1="28.5" x2="120.0" y2="268.5" class='vline'/>
    <line x1="125.0" y1="28.5" x2="125.0" y2="268.5" class='vline'/>
    <line x1="130.0" y1="28.5" x2="130.0" y2="268.5" class='vline'/>
    <line x1="135.0" y1="28.5" x2="135.0" y2="268.5" class='vline'/>
    <line x1="140.0" y1="28.5" x2="140.0" y2="268.5" class='vline'/>
    <line x1="145.0" y1="28.5" x2="145.0" y2="268.5" class='vline'/>
    <line x1="150.0" y1="28.5" x2="150.0" y2="268.5" class='vline'/>
    <line x1="155.0" y1="28.5" x2="155.0" y2="268.5" class='vline'/>
    <line x1="160.0" y1="28.5" x2="160.0" y2="268.5" class='vline'/>
    <line x1="165.0" y1="28.5" x2="165.0" y2="268.5" class='vline'/>
    <line x1="170.0" y1="28.5" x2="170.0" y2="268.5" class='vline'/>
    <line x1="175.0" y1="28.5" x2="175.0" y2="268.5" class='vline'/>
    <line x1="180.0" y1="28.5" x2="180.0" y2="268.5" class='vline'/>
    <line x1="185.0" y1="28.5" x2="185.0" y2="268.5" class='vline'/>
    <rect width="40.0" height="40.0" x="25.0" y="28.5" fill='none' class='square'/>
    <rect width="40.0" height="40.0" x="65.0" y="28.5" fill='none' class='square'/>
    <rect width="40.0" height="40.0" x="105.0" y="28.5" fill='none' class='square'/>
    <rect width="40.0" height="40.0" x="145.0" y="28.5" fill='none' class='square'/>
    <rect width="40.0" height="40.0" x="25.0" y="68.5" fill='none' class='square'/>
    <rect width="40.0" height="40.0" x="65.0" y="68.5" fill='none' class='square'/>
    <rect width="40.0" height="40.0" x="105.0" y="68.5" fill='none' class='square'/>
    <rect width="40.0" height="40.0" x="145.0" y="68.5" fill='none' class='square'/>
    <rect width="40.0" height="40.0" x="25.0" y="108.5" fill='none' class='square'/>
    <rect width="40.0" height="40.0" x="65.0" y="108.5" fill='none' class='square'/>
    <rect width="40.0" height="40.0" x="105.0" y="108.5" fill='none' class='square'/>
    <rect width="40.0" height="40.0" x="145.0" y="108.5" fill='none' class='square'/>
    <rect width="40.0" height="40.0" x="25.0" y="148.5" fill='none' class='square'/>
    <rect width="40.0" height="40.0" x="65.0" y="148.5" fill='none' class='square'/>
    <rect width="40.0" height="40.0" x="105.0" y="148.5" fill='none' class='square'/>
    <rect width="40.0" height="40.0" x="145.0" y="148.5" fill='none' class='square'/>
    <rect width="40.0" height="40.0" x="25.0" y="188.5" fill='none' class='square'/>
    <rect width="40.0" height="40.0" x="65.0" y="188.5" fill='none' class='square'/>
    <rect width="40.0" height="40.0" x="105.0" y="188.5" fill='none' class='square'/>
    <rect width="40.0" height="40.0" x="145.0" y="188.5" fill='none' class='square'/>
    <rect width="40.0" height="40.0" x="25.0" y="228.5" fill='none' class='square'/>
    <rect width="40.0" height="40.0" x="65.0" y="228.5" fill='none' class='square'/>
    <rect width="40.0" height="40.0" x="105.0" y="228.5" fill='none' class='square'/>
    <rect width="40.0" height="40.0" x="145.0" y="228.5" fill='none' class='square'/>
  </g>
</svg>
