<?xml version="1.0" standalone="no"?>
<!DOCTYPE svg PUBLIC "-//W3C//DTD SVG 1.1//EN" "http://www.w3.org/Graphics/SVG/1.1/DTD/svg11.dtd">
<svg xmlns="http://www.w3.org/2000/svg" width="210.0mm" height="297.0mm" viewBox="0 0 210.0 297.0" shape-rendering="geometricPrecision" >
  <style>
    svg         { stroke:            #007f80; }
    svg         { stroke-width:          0.3; }
    .altcolor   { stroke:               blue; }
    .extrafine  { stroke-width:        0.075; }
    .fine       { stroke-width:         0.15; }
    .medium     { stroke-width:          0.3; }
    .broad      { stroke-width:          0.6; }
    .extrabroad { stroke-width:          1.2; }
    .dashed     { stroke-dasharray:      2 2; }
  </style>
  <g id="sheet">
    <rect width="30.0" height="40.0" x="17.5" y="36.0" fill='none' class='rect'/>
    <rect width="30.0" height="40.0" x="53.75" y="36.0" fill='none' class='rect'/>
    <rect width="30.0" height="40.0" x="90.0" y="36.0" fill='none' class='rect'/>
    <rect width="30.0" height="40.0" x="126.25" y="36.0" fill='none' class='rect'/>
    <rect width="30.0" height="40.0" x="162.5" y="36.0" fill='none' class='rect'/>
    <rect width="30.0" height="40.0" x="17.5" y="82.25" fill='none' class='rect'/>
    <rect width="30.0" height="40.0" x="53.75" y="82.25" fill='none' class='rect'/>
    <rect width="30.0" height="40.0" x="90.0" y="82.25" fill='none' class='rect'/>
    <rect width="30.0" height="40.0" x="126.25" y="82.25" fill='none' class='rect'/>
    <rect width="30.0" height="40.0" x="162.5" y="82.25" fill='none' class='rect'/>
    <rect width="30.0" height="40.0" x="17.5" y="128.5" fill='none' class='rect'/>
    <rect width="30.0" height="40.0" x="53.75" y="128.5" fill='none' class='rect'/>
    <rect width="30.0" height="40.0" x="90.0" y="128.5" fill='none' class='rect'/>
    <rect width="30.0" height="40.0" x="126.25" y="128.5" fill='none' class='rect'/>
    <rect width="30.0" height="40.0" x="162.5" y="128.5" fill='none' class='rect'/>
    <rect width="30.0" height="40.0" x="17.5" y="174.75" fill='none' class='rect'/>
    <rect width="30.0" height="40.0" x="53.75" y="174.75" fill='none' class='rect'/>
    <rect width="30.0" height="40.0" x="90.0" y="174.75" fill='none' class='rect'/>
    <rect width="30.0" height="40.0" x="126.25" y="174.75" fill='none' class='rect'/>
    <rect width="30.0" height="40.0" x="162.5" y="174.75" fill='none' class='rect'/>
    <rect width="30.0" height="40.0" x="17.5" y="221.0" fill='none' class='rect'/>
    <rect width="30.0" height="40.0" x="53.75" y="221.0" fill='none' class='rect'/>
    <rect width="30.0" height="40.0" x="90.0" y="221.0" fill='none' class='rect'/>
    <rect width="30.0" height="40.0" x="126.25" y="221.0" fill='none' class='rect'/>
    <rect width="30.0" height="40.0" x="162.5" y="221.0" fill='none' class='rect'/>
  </g>
</svg>
