<?xml version="1.0" standalone="no"?>
<!DOCTYPE svg PUBLIC "-//W3C//DTD SVG 1.1//EN" "http://www.w3.org/Graphics/SVG/1.1/DTD/svg11.dtd">
<svg xmlns="http://www.w3.org/2000/svg" width="297.0mm" height="210.0mm" viewBox="0 0 297.0 210.0" shape-rendering="geometricPrecision" >
  <style>
    svg         { stroke:            #007f80; }
    svg         { stroke-width:          0.3; }
    .altcolor   { stroke:               blue; }
    .extrafine  { stroke-width:        0.075; }
    .fine       { stroke-width:         0.15; }
    .medium     { stroke-width:          0.3; }
    .broad      { stroke-width:          0.6; }
    .extrabroad { stroke-width:          1.2; }
    .dashed     { stroke-dasharray:      2 2; }
  </style>
  <g id="sheet">
    <rect width="30.0" height="40.0" x="61.0" y="15.625" fill='none' class='rect'/>
    <rect width="30.0" height="40.0" x="97.25" y="15.625" fill='none' class='rect'/>
    <rect width="30.0" height="40.0" x="133.5" y="15.625" fill='none' class='rect'/>
    <rect width="30.0" height="40.0" x="169.75" y="15.625" fill='none' class='rect'/>
    <rect width="30.0" height="40.0" x="206.0" y="15.625" fill='none' class='rect'/>
    <rect width="30.0" height="40.0" x="61.0" y="61.875" fill='none' class='rect'/>
    <rect width="30.0" height="40.0" x="97.25" y="61.875" fill='none' class='rect'/>
    <rect width="30.0" height="40.0" x="133.5" y="61.875" fill='none' class='rect'/>
    <rect width="30.0" height="40.0" x="169.75" y="61.875" fill='none' class='rect'/>
    <rect width="30.0" height="40.0" x="206.0" y="61.875" fill='none' class='rect'/>
    <rect width="30.0" height="40.0" x="61.0" y="108.125" fill='none' class='rect'/>
    <rect width="30.0" height="40.0" x="97.25" y="108.125" fill='none' class='rect'/>
    <rect width="30.0" height="40.0" x="133.5" y="108.125" fill='none' class='rect'/>
    <rect width="30.0" height="40.0" x="169.75" y="108.125" fill='none' class='rect'/>
    <rect width="30.0" height="40.0" x="206.0" y="108.125" fill='none' class='rect'/>
    <rect width="30.0" height="40.0" x="61.0" y="154.375" fill='none' class='rect'/>
    <rect width="30.0" height="40.0" x="97.25" y="154.375" fill='none' class='rect'/>
    <rect width="30.0" height="40.0" x="133.5" y="154.375" fill='none' class='rect'/>
    <rect width="30.0" height="40.0" x="169.75" y="154.375" fill='none' class='rect'/>
    <rect width="30.0" height="40.0" x="206.0" y="154.375" fill='none' class='rect'/>
  </g>
</svg>
