<?xml version="1.0" standalone="no"?>
<!DOCTYPE svg PUBLIC "-//W3C//DTD SVG 1.1//EN" "http://www.w3.org/Graphics/SVG/1.1/DTD/svg11.dtd">
<svg xmlns="http://www.w3.org/2000/svg" width="297.0mm" height="210.0mm" viewBox="0 0 297.0 210.0" shape-rendering="geometricPrecision" >
  <style>
    svg       { stroke: #ed008c; stroke-width: 0.04; }
    .altcolor { stroke: blue; }
    .thin     { stroke-width: 0.02; }
    .thick    { stroke-width: 0.08; }
    .dashed   { stroke-dasharray: 2 2; }
  </style>
  <g id="sheet">
    <rect width="30.0" height="40.0" x="63.5" y="17.5" fill='none' class='rect'/>
    <rect width="30.0" height="40.0" x="98.5" y="17.5" fill='none' class='rect'/>
    <rect width="30.0" height="40.0" x="133.5" y="17.5" fill='none' class='rect'/>
    <rect width="30.0" height="40.0" x="168.5" y="17.5" fill='none' class='rect'/>
    <rect width="30.0" height="40.0" x="203.5" y="17.5" fill='none' class='rect'/>
    <rect width="30.0" height="40.0" x="63.5" y="62.5" fill='none' class='rect'/>
    <rect width="30.0" height="40.0" x="98.5" y="62.5" fill='none' class='rect'/>
    <rect width="30.0" height="40.0" x="133.5" y="62.5" fill='none' class='rect'/>
    <rect width="30.0" height="40.0" x="168.5" y="62.5" fill='none' class='rect'/>
    <rect width="30.0" height="40.0" x="203.5" y="62.5" fill='none' class='rect'/>
    <rect width="30.0" height="40.0" x="63.5" y="107.5" fill='none' class='rect'/>
    <rect width="30.0" height="40.0" x="98.5" y="107.5" fill='none' class='rect'/>
    <rect width="30.0" height="40.0" x="133.5" y="107.5" fill='none' class='rect'/>
    <rect width="30.0" height="40.0" x="168.5" y="107.5" fill='none' class='rect'/>
    <rect width="30.0" height="40.0" x="203.5" y="107.5" fill='none' class='rect'/>
    <rect width="30.0" height="40.0" x="63.5" y="152.5" fill='none' class='rect'/>
    <rect width="30.0" height="40.0" x="98.5" y="152.5" fill='none' class='rect'/>
    <rect width="30.0" height="40.0" x="133.5" y="152.5" fill='none' class='rect'/>
    <rect width="30.0" height="40.0" x="168.5" y="152.5" fill='none' class='rect'/>
    <rect width="30.0" height="40.0" x="203.5" y="152.5" fill='none' class='rect'/>
  </g>
</svg>
