<?xml version="1.0" standalone="no"?>
<!DOCTYPE svg PUBLIC "-//W3C//DTD SVG 1.1//EN" "http://www.w3.org/Graphics/SVG/1.1/DTD/svg11.dtd">
<svg xmlns="http://www.w3.org/2000/svg" width="210.0mm" height="297.0mm" viewBox="0 0 210.0 297.0" >

  <g id="sheet">
    <line x1="17.5" y1="23.5" x2="192.5" y2="23.5" stroke='blue' stroke-width='0.2' tags='ascender2'/>
    <line x1="17.5" y1="28.5" x2="192.5" y2="28.5" stroke='grey' stroke-width='0.1' stroke-dasharray='2, 2' tags='ascender1'/>
    <line x1="17.5" y1="33.5" x2="192.5" y2="33.5" stroke='grey' stroke-width='0.1' tags='waist'/>
    <line x1="17.5" y1="38.5" x2="192.5" y2="38.5" stroke='red' stroke-width='0.1' tags='base'/>
    <line x1="17.5" y1="43.5" x2="192.5" y2="43.5" stroke='grey' stroke-width='0.1' stroke-dasharray='2, 2' tags='descender1'/>
    <line x1="17.5" y1="48.5" x2="192.5" y2="48.5" stroke='blue' stroke-width='0.2' tags='descender2'/>
    <line x1="17.5" y1="53.5" x2="192.5" y2="53.5" stroke='grey' stroke-width='0.1' stroke-dasharray='2, 2' tags='ascender1'/>
    <line x1="17.5" y1="58.5" x2="192.5" y2="58.5" stroke='grey' stroke-width='0.1' tags='waist'/>
    <line x1="17.5" y1="63.5" x2="192.5" y2="63.5" stroke='red' stroke-width='0.1' tags='base'/>
    <line x1="17.5" y1="68.5" x2="192.5" y2="68.5" stroke='grey' stroke-width='0.1' stroke-dasharray='2, 2' tags='descender1'/>
    <line x1="17.5" y1="73.5" x2="192.5" y2="73.5" stroke='blue' stroke-width='0.2' tags='descender2'/>
    <line x1="17.5" y1="78.5" x2="192.5" y2="78.5" stroke='grey' stroke-width='0.1' stroke-dasharray='2, 2' tags='ascender1'/>
    <line x1="17.5" y1="83.5" x2="192.5" y2="83.5" stroke='grey' stroke-width='0.1' tags='waist'/>
    <line x1="17.5" y1="88.5" x2="192.5" y2="88.5" stroke='red' stroke-width='0.1' tags='base'/>
    <line x1="17.5" y1="93.5" x2="192.5" y2="93.5" stroke='grey' stroke-width='0.1' stroke-dasharray='2, 2' tags='descender1'/>
    <line x1="17.5" y1="98.5" x2="192.5" y2="98.5" stroke='blue' stroke-width='0.2' tags='descender2'/>
    <line x1="17.5" y1="103.5" x2="192.5" y2="103.5" stroke='grey' stroke-width='0.1' stroke-dasharray='2, 2' tags='ascender1'/>
    <line x1="17.5" y1="108.5" x2="192.5" y2="108.5" stroke='grey' stroke-width='0.1' tags='waist'/>
    <line x1="17.5" y1="113.5" x2="192.5" y2="113.5" stroke='red' stroke-width='0.1' tags='base'/>
    <line x1="17.5" y1="118.5" x2="192.5" y2="118.5" stroke='grey' stroke-width='0.1' stroke-dasharray='2, 2' tags='descender1'/>
    <line x1="17.5" y1="123.5" x2="192.5" y2="123.5" stroke='blue' stroke-width='0.2' tags='descender2'/>
    <line x1="17.5" y1="128.5" x2="192.5" y2="128.5" stroke='grey' stroke-width='0.1' stroke-dasharray='2, 2' tags='ascender1'/>
    <line x1="17.5" y1="133.5" x2="192.5" y2="133.5" stroke='grey' stroke-width='0.1' tags='waist'/>
    <line x1="17.5" y1="138.5" x2="192.5" y2="138.5" stroke='red' stroke-width='0.1' tags='base'/>
    <line x1="17.5" y1="143.5" x2="192.5" y2="143.5" stroke='grey' stroke-width='0.1' stroke-dasharray='2, 2' tags='descender1'/>
    <line x1="17.5" y1="148.5" x2="192.5" y2="148.5" stroke='blue' stroke-width='0.2' tags='descender2'/>
    <line x1="17.5" y1="153.5" x2="192.5" y2="153.5" stroke='grey' stroke-width='0.1' stroke-dasharray='2, 2' tags='ascender1'/>
    <line x1="17.5" y1="158.5" x2="192.5" y2="158.5" stroke='grey' stroke-width='0.1' tags='waist'/>
    <line x1="17.5" y1="163.5" x2="192.5" y2="163.5" stroke='red' stroke-width='0.1' tags='base'/>
    <line x1="17.5" y1="168.5" x2="192.5" y2="168.5" stroke='grey' stroke-width='0.1' stroke-dasharray='2, 2' tags='descender1'/>
    <line x1="17.5" y1="173.5" x2="192.5" y2="173.5" stroke='blue' stroke-width='0.2' tags='descender2'/>
    <line x1="17.5" y1="178.5" x2="192.5" y2="178.5" stroke='grey' stroke-width='0.1' stroke-dasharray='2, 2' tags='ascender1'/>
    <line x1="17.5" y1="183.5" x2="192.5" y2="183.5" stroke='grey' stroke-width='0.1' tags='waist'/>
    <line x1="17.5" y1="188.5" x2="192.5" y2="188.5" stroke='red' stroke-width='0.1' tags='base'/>
    <line x1="17.5" y1="193.5" x2="192.5" y2="193.5" stroke='grey' stroke-width='0.1' stroke-dasharray='2, 2' tags='descender1'/>
    <line x1="17.5" y1="198.5" x2="192.5" y2="198.5" stroke='blue' stroke-width='0.2' tags='descender2'/>
    <line x1="17.5" y1="203.5" x2="192.5" y2="203.5" stroke='grey' stroke-width='0.1' stroke-dasharray='2, 2' tags='ascender1'/>
    <line x1="17.5" y1="208.5" x2="192.5" y2="208.5" stroke='grey' stroke-width='0.1' tags='waist'/>
    <line x1="17.5" y1="213.5" x2="192.5" y2="213.5" stroke='red' stroke-width='0.1' tags='base'/>
    <line x1="17.5" y1="218.5" x2="192.5" y2="218.5" stroke='grey' stroke-width='0.1' stroke-dasharray='2, 2' tags='descender1'/>
    <line x1="17.5" y1="223.5" x2="192.5" y2="223.5" stroke='blue' stroke-width='0.2' tags='descender2'/>
    <line x1="17.5" y1="228.5" x2="192.5" y2="228.5" stroke='grey' stroke-width='0.1' stroke-dasharray='2, 2' tags='ascender1'/>
    <line x1="17.5" y1="233.5" x2="192.5" y2="233.5" stroke='grey' stroke-width='0.1' tags='waist'/>
    <line x1="17.5" y1="238.5" x2="192.5" y2="238.5" stroke='red' stroke-width='0.1' tags='base'/>
    <line x1="17.5" y1="243.5" x2="192.5" y2="243.5" stroke='grey' stroke-width='0.1' stroke-dasharray='2, 2' tags='descender1'/>
    <line x1="17.5" y1="248.5" x2="192.5" y2="248.5" stroke='blue' stroke-width='0.2' tags='descender2'/>
    <line x1="17.5" y1="253.5" x2="192.5" y2="253.5" stroke='grey' stroke-width='0.1' stroke-dasharray='2, 2' tags='ascender1'/>
    <line x1="17.5" y1="258.5" x2="192.5" y2="258.5" stroke='grey' stroke-width='0.1' tags='waist'/>
    <line x1="17.5" y1="263.5" x2="192.5" y2="263.5" stroke='red' stroke-width='0.1' tags='base'/>
    <line x1="17.5" y1="268.5" x2="192.5" y2="268.5" stroke='grey' stroke-width='0.1' stroke-dasharray='2, 2' tags='descender1'/>
    <line x1="17.5" y1="273.5" x2="192.5" y2="273.5" stroke='blue' stroke-width='0.2' tags='descender2'/>
    <line x1="17.5" y1="23.5" x2="17.5" y2="23.5" stroke='blue' stroke-width='0.1' tags='slant'/>
    <line x1="17.5" y1="31.26615" x2="23.56758" y2="23.5" stroke='blue' stroke-width='0.1' tags='slant'/>
    <line x1="17.5" y1="39.0323" x2="29.63516" y2="23.5" stroke='blue' stroke-width='0.1' tags='slant'/>
    <line x1="17.5" y1="46.79845" x2="35.70275" y2="23.5" stroke='blue' stroke-width='0.1' tags='slant'/>
    <line x1="17.5" y1="54.5646" x2="41.77033" y2="23.5" stroke='blue' stroke-width='0.1' tags='slant'/>
    <line x1="17.5" y1="62.33076" x2="47.83791" y2="23.5" stroke='blue' stroke-width='0.1' tags='slant'/>
    <line x1="17.5" y1="70.09691" x2="53.90549" y2="23.5" stroke='blue' stroke-width='0.1' tags='slant'/>
    <line x1="17.5" y1="77.86306" x2="59.97308" y2="23.5" stroke='blue' stroke-width='0.1' tags='slant'/>
    <line x1="17.5" y1="85.62921" x2="66.04066" y2="23.5" stroke='blue' stroke-width='0.1' tags='slant'/>
    <line x1="17.5" y1="93.39536" x2="72.10824" y2="23.5" stroke='blue' stroke-width='0.1' tags='slant'/>
    <line x1="17.5" y1="101.16151" x2="78.17582" y2="23.5" stroke='blue' stroke-width='0.1' tags='slant'/>
    <line x1="17.5" y1="108.92766" x2="84.24341" y2="23.5" stroke='blue' stroke-width='0.1' tags='slant'/>
    <line x1="17.5" y1="116.69381" x2="90.31099" y2="23.5" stroke='blue' stroke-width='0.1' tags='slant'/>
    <line x1="17.5" y1="124.45997" x2="96.37857" y2="23.5" stroke='blue' stroke-width='0.1' tags='slant'/>
    <line x1="17.5" y1="132.22612" x2="102.44615" y2="23.5" stroke='blue' stroke-width='0.1' tags='slant'/>
    <line x1="17.5" y1="139.99227" x2="108.51374" y2="23.5" stroke='blue' stroke-width='0.1' tags='slant'/>
    <line x1="17.5" y1="147.75842" x2="114.58132" y2="23.5" stroke='blue' stroke-width='0.1' tags='slant'/>
    <line x1="17.5" y1="155.52457" x2="120.6489" y2="23.5" stroke='blue' stroke-width='0.1' tags='slant'/>
    <line x1="17.5" y1="163.29072" x2="126.71648" y2="23.5" stroke='blue' stroke-width='0.1' tags='slant'/>
    <line x1="17.5" y1="171.05687" x2="132.78406" y2="23.5" stroke='blue' stroke-width='0.1' tags='slant'/>
    <line x1="17.5" y1="178.82302" x2="138.85165" y2="23.5" stroke='blue' stroke-width='0.1' tags='slant'/>
    <line x1="17.5" y1="186.58918" x2="144.91923" y2="23.5" stroke='blue' stroke-width='0.1' tags='slant'/>
    <line x1="17.5" y1="194.35533" x2="150.98681" y2="23.5" stroke='blue' stroke-width='0.1' tags='slant'/>
    <line x1="17.5" y1="202.12148" x2="157.05439" y2="23.5" stroke='blue' stroke-width='0.1' tags='slant'/>
    <line x1="17.5" y1="209.88763" x2="163.12198" y2="23.5" stroke='blue' stroke-width='0.1' tags='slant'/>
    <line x1="17.5" y1="217.65378" x2="169.18956" y2="23.5" stroke='blue' stroke-width='0.1' tags='slant'/>
    <line x1="17.5" y1="225.41993" x2="175.25714" y2="23.5" stroke='blue' stroke-width='0.1' tags='slant'/>
    <line x1="17.5" y1="233.18608" x2="181.32472" y2="23.5" stroke='blue' stroke-width='0.1' tags='slant'/>
    <line x1="17.5" y1="240.95223" x2="187.39231" y2="23.5" stroke='blue' stroke-width='0.1' tags='slant'/>
    <line x1="17.5" y1="248.71839" x2="192.5" y2="24.7286" stroke='blue' stroke-width='0.1' tags='slant'/>
    <line x1="17.5" y1="256.48454" x2="192.5" y2="32.49475" stroke='blue' stroke-width='0.1' tags='slant'/>
    <line x1="17.5" y1="264.25069" x2="192.5" y2="40.2609" stroke='blue' stroke-width='0.1' tags='slant'/>
    <line x1="17.5" y1="272.01684" x2="192.5" y2="48.02705" stroke='blue' stroke-width='0.1' tags='slant'/>
    <line x1="22.40881" y1="273.5" x2="192.5" y2="55.79321" stroke='blue' stroke-width='0.1' tags='slant'/>
    <line x1="28.47639" y1="273.5" x2="192.5" y2="63.55936" stroke='blue' stroke-width='0.1' tags='slant'/>
    <line x1="34.54398" y1="273.5" x2="192.5" y2="71.32551" stroke='blue' stroke-width='0.1' tags='slant'/>
    <line x1="40.61156" y1="273.5" x2="192.5" y2="79.09166" stroke='blue' stroke-width='0.1' tags='slant'/>
    <line x1="46.67914" y1="273.5" x2="192.5" y2="86.85781" stroke='blue' stroke-width='0.1' tags='slant'/>
    <line x1="52.74672" y1="273.5" x2="192.5" y2="94.62396" stroke='blue' stroke-width='0.1' tags='slant'/>
    <line x1="58.8143" y1="273.5" x2="192.5" y2="102.39011" stroke='blue' stroke-width='0.1' tags='slant'/>
    <line x1="64.88189" y1="273.5" x2="192.5" y2="110.15626" stroke='blue' stroke-width='0.1' tags='slant'/>
    <line x1="70.94947" y1="273.5" x2="192.5" y2="117.92242" stroke='blue' stroke-width='0.1' tags='slant'/>
    <line x1="77.01705" y1="273.5" x2="192.5" y2="125.68857" stroke='blue' stroke-width='0.1' tags='slant'/>
    <line x1="83.08463" y1="273.5" x2="192.5" y2="133.45472" stroke='blue' stroke-width='0.1' tags='slant'/>
    <line x1="89.15222" y1="273.5" x2="192.5" y2="141.22087" stroke='blue' stroke-width='0.1' tags='slant'/>
    <line x1="95.2198" y1="273.5" x2="192.5" y2="148.98702" stroke='blue' stroke-width='0.1' tags='slant'/>
    <line x1="101.28738" y1="273.5" x2="192.5" y2="156.75317" stroke='blue' stroke-width='0.1' tags='slant'/>
    <line x1="107.35496" y1="273.5" x2="192.5" y2="164.51932" stroke='blue' stroke-width='0.1' tags='slant'/>
    <line x1="113.42255" y1="273.5" x2="192.5" y2="172.28547" stroke='blue' stroke-width='0.1' tags='slant'/>
    <line x1="119.49013" y1="273.5" x2="192.5" y2="180.05163" stroke='blue' stroke-width='0.1' tags='slant'/>
    <line x1="125.55771" y1="273.5" x2="192.5" y2="187.81778" stroke='blue' stroke-width='0.1' tags='slant'/>
    <line x1="131.62529" y1="273.5" x2="192.5" y2="195.58393" stroke='blue' stroke-width='0.1' tags='slant'/>
    <line x1="137.69288" y1="273.5" x2="192.5" y2="203.35008" stroke='blue' stroke-width='0.1' tags='slant'/>
    <line x1="143.76046" y1="273.5" x2="192.5" y2="211.11623" stroke='blue' stroke-width='0.1' tags='slant'/>
    <line x1="149.82804" y1="273.5" x2="192.5" y2="218.88238" stroke='blue' stroke-width='0.1' tags='slant'/>
    <line x1="155.89562" y1="273.5" x2="192.5" y2="226.64853" stroke='blue' stroke-width='0.1' tags='slant'/>
    <line x1="161.9632" y1="273.5" x2="192.5" y2="234.41468" stroke='blue' stroke-width='0.1' tags='slant'/>
    <line x1="168.03079" y1="273.5" x2="192.5" y2="242.18084" stroke='blue' stroke-width='0.1' tags='slant'/>
    <line x1="174.09837" y1="273.5" x2="192.5" y2="249.94699" stroke='blue' stroke-width='0.1' tags='slant'/>
    <line x1="180.16595" y1="273.5" x2="192.5" y2="257.71314" stroke='blue' stroke-width='0.1' tags='slant'/>
    <line x1="186.23353" y1="273.5" x2="192.5" y2="265.47929" stroke='blue' stroke-width='0.1' tags='slant'/>
    <line x1="192.30112" y1="273.5" x2="192.5" y2="273.24544" stroke='blue' stroke-width='0.1' tags='slant'/>
    <line x1="17.5" y1="29.2516" x2="27.46207" y2="23.5" stroke='blue' stroke-width='0.07' stroke-dasharray='2, 2' tags='connective'/>
    <line x1="17.5" y1="35.00321" x2="37.42414" y2="23.5" stroke='blue' stroke-width='0.07' stroke-dasharray='2, 2' tags='connective'/>
    <line x1="17.5" y1="40.75481" x2="47.3862" y2="23.5" stroke='blue' stroke-width='0.07' stroke-dasharray='2, 2' tags='connective'/>
    <line x1="17.5" y1="46.50641" x2="57.34827" y2="23.5" stroke='blue' stroke-width='0.07' stroke-dasharray='2, 2' tags='connective'/>
    <line x1="17.5" y1="52.25801" x2="67.31034" y2="23.5" stroke='blue' stroke-width='0.07' stroke-dasharray='2, 2' tags='connective'/>
    <line x1="17.5" y1="58.00962" x2="77.27241" y2="23.5" stroke='blue' stroke-width='0.07' stroke-dasharray='2, 2' tags='connective'/>
    <line x1="17.5" y1="63.76122" x2="87.23448" y2="23.5" stroke='blue' stroke-width='0.07' stroke-dasharray='2, 2' tags='connective'/>
    <line x1="17.5" y1="69.51282" x2="97.19655" y2="23.5" stroke='blue' stroke-width='0.07' stroke-dasharray='2, 2' tags='connective'/>
    <line x1="17.5" y1="75.26443" x2="107.15861" y2="23.5" stroke='blue' stroke-width='0.07' stroke-dasharray='2, 2' tags='connective'/>
    <line x1="17.5" y1="81.01603" x2="117.12068" y2="23.5" stroke='blue' stroke-width='0.07' stroke-dasharray='2, 2' tags='connective'/>
    <line x1="17.5" y1="86.76763" x2="127.08275" y2="23.5" stroke='blue' stroke-width='0.07' stroke-dasharray='2, 2' tags='connective'/>
    <line x1="17.5" y1="92.51923" x2="137.04482" y2="23.5" stroke='blue' stroke-width='0.07' stroke-dasharray='2, 2' tags='connective'/>
    <line x1="17.5" y1="98.27084" x2="147.00689" y2="23.5" stroke='blue' stroke-width='0.07' stroke-dasharray='2, 2' tags='connective'/>
    <line x1="17.5" y1="104.02244" x2="156.96896" y2="23.5" stroke='blue' stroke-width='0.07' stroke-dasharray='2, 2' tags='connective'/>
    <line x1="17.5" y1="109.77404" x2="166.93102" y2="23.5" stroke='blue' stroke-width='0.07' stroke-dasharray='2, 2' tags='connective'/>
    <line x1="17.5" y1="115.52564" x2="176.89309" y2="23.5" stroke='blue' stroke-width='0.07' stroke-dasharray='2, 2' tags='connective'/>
    <line x1="17.5" y1="121.27725" x2="186.85516" y2="23.5" stroke='blue' stroke-width='0.07' stroke-dasharray='2, 2' tags='connective'/>
    <line x1="17.5" y1="127.02885" x2="192.5" y2="25.99255" stroke='blue' stroke-width='0.07' stroke-dasharray='2, 2' tags='connective'/>
    <line x1="17.5" y1="132.78045" x2="192.5" y2="31.74416" stroke='blue' stroke-width='0.07' stroke-dasharray='2, 2' tags='connective'/>
    <line x1="17.5" y1="138.53206" x2="192.5" y2="37.49576" stroke='blue' stroke-width='0.07' stroke-dasharray='2, 2' tags='connective'/>
    <line x1="17.5" y1="144.28366" x2="192.5" y2="43.24736" stroke='blue' stroke-width='0.07' stroke-dasharray='2, 2' tags='connective'/>
    <line x1="17.5" y1="150.03526" x2="192.5" y2="48.99896" stroke='blue' stroke-width='0.07' stroke-dasharray='2, 2' tags='connective'/>
    <line x1="17.5" y1="155.78686" x2="192.5" y2="54.75057" stroke='blue' stroke-width='0.07' stroke-dasharray='2, 2' tags='connective'/>
    <line x1="17.5" y1="161.53847" x2="192.5" y2="60.50217" stroke='blue' stroke-width='0.07' stroke-dasharray='2, 2' tags='connective'/>
    <line x1="17.5" y1="167.29007" x2="192.5" y2="66.25377" stroke='blue' stroke-width='0.07' stroke-dasharray='2, 2' tags='connective'/>
    <line x1="17.5" y1="173.04167" x2="192.5" y2="72.00538" stroke='blue' stroke-width='0.07' stroke-dasharray='2, 2' tags='connective'/>
    <line x1="17.5" y1="178.79328" x2="192.5" y2="77.75698" stroke='blue' stroke-width='0.07' stroke-dasharray='2, 2' tags='connective'/>
    <line x1="17.5" y1="184.54488" x2="192.5" y2="83.50858" stroke='blue' stroke-width='0.07' stroke-dasharray='2, 2' tags='connective'/>
    <line x1="17.5" y1="190.29648" x2="192.5" y2="89.26018" stroke='blue' stroke-width='0.07' stroke-dasharray='2, 2' tags='connective'/>
    <line x1="17.5" y1="196.04808" x2="192.5" y2="95.01179" stroke='blue' stroke-width='0.07' stroke-dasharray='2, 2' tags='connective'/>
    <line x1="17.5" y1="201.79969" x2="192.5" y2="100.76339" stroke='blue' stroke-width='0.07' stroke-dasharray='2, 2' tags='connective'/>
    <line x1="17.5" y1="207.55129" x2="192.5" y2="106.51499" stroke='blue' stroke-width='0.07' stroke-dasharray='2, 2' tags='connective'/>
    <line x1="17.5" y1="213.30289" x2="192.5" y2="112.2666" stroke='blue' stroke-width='0.07' stroke-dasharray='2, 2' tags='connective'/>
    <line x1="17.5" y1="219.0545" x2="192.5" y2="118.0182" stroke='blue' stroke-width='0.07' stroke-dasharray='2, 2' tags='connective'/>
    <line x1="17.5" y1="224.8061" x2="192.5" y2="123.7698" stroke='blue' stroke-width='0.07' stroke-dasharray='2, 2' tags='connective'/>
    <line x1="17.5" y1="230.5577" x2="192.5" y2="129.5214" stroke='blue' stroke-width='0.07' stroke-dasharray='2, 2' tags='connective'/>
    <line x1="17.5" y1="236.3093" x2="192.5" y2="135.27301" stroke='blue' stroke-width='0.07' stroke-dasharray='2, 2' tags='connective'/>
    <line x1="17.5" y1="242.06091" x2="192.5" y2="141.02461" stroke='blue' stroke-width='0.07' stroke-dasharray='2, 2' tags='connective'/>
    <line x1="17.5" y1="247.81251" x2="192.5" y2="146.77621" stroke='blue' stroke-width='0.07' stroke-dasharray='2, 2' tags='connective'/>
    <line x1="17.5" y1="253.56411" x2="192.5" y2="152.52781" stroke='blue' stroke-width='0.07' stroke-dasharray='2, 2' tags='connective'/>
    <line x1="17.5" y1="259.31571" x2="192.5" y2="158.27942" stroke='blue' stroke-width='0.07' stroke-dasharray='2, 2' tags='connective'/>
    <line x1="17.5" y1="265.06732" x2="192.5" y2="164.03102" stroke='blue' stroke-width='0.07' stroke-dasharray='2, 2' tags='connective'/>
    <line x1="17.5" y1="270.81892" x2="192.5" y2="169.78262" stroke='blue' stroke-width='0.07' stroke-dasharray='2, 2' tags='connective'/>
    <line x1="22.8183" y1="273.5" x2="192.5" y2="175.53423" stroke='blue' stroke-width='0.07' stroke-dasharray='2, 2' tags='connective'/>
    <line x1="32.78037" y1="273.5" x2="192.5" y2="181.28583" stroke='blue' stroke-width='0.07' stroke-dasharray='2, 2' tags='connective'/>
    <line x1="42.74244" y1="273.5" x2="192.5" y2="187.03743" stroke='blue' stroke-width='0.07' stroke-dasharray='2, 2' tags='connective'/>
    <line x1="52.70451" y1="273.5" x2="192.5" y2="192.78903" stroke='blue' stroke-width='0.07' stroke-dasharray='2, 2' tags='connective'/>
    <line x1="62.66658" y1="273.5" x2="192.5" y2="198.54064" stroke='blue' stroke-width='0.07' stroke-dasharray='2, 2' tags='connective'/>
    <line x1="72.62864" y1="273.5" x2="192.5" y2="204.29224" stroke='blue' stroke-width='0.07' stroke-dasharray='2, 2' tags='connective'/>
    <line x1="82.59071" y1="273.5" x2="192.5" y2="210.04384" stroke='blue' stroke-width='0.07' stroke-dasharray='2, 2' tags='connective'/>
    <line x1="92.55278" y1="273.5" x2="192.5" y2="215.79545" stroke='blue' stroke-width='0.07' stroke-dasharray='2, 2' tags='connective'/>
    <line x1="102.51485" y1="273.5" x2="192.5" y2="221.54705" stroke='blue' stroke-width='0.07' stroke-dasharray='2, 2' tags='connective'/>
    <line x1="112.47692" y1="273.5" x2="192.5" y2="227.29865" stroke='blue' stroke-width='0.07' stroke-dasharray='2, 2' tags='connective'/>
    <line x1="122.43898" y1="273.5" x2="192.5" y2="233.05025" stroke='blue' stroke-width='0.07' stroke-dasharray='2, 2' tags='connective'/>
    <line x1="132.40105" y1="273.5" x2="192.5" y2="238.80186" stroke='blue' stroke-width='0.07' stroke-dasharray='2, 2' tags='connective'/>
    <line x1="142.36312" y1="273.5" x2="192.5" y2="244.55346" stroke='blue' stroke-width='0.07' stroke-dasharray='2, 2' tags='connective'/>
    <line x1="152.32519" y1="273.5" x2="192.5" y2="250.30506" stroke='blue' stroke-width='0.07' stroke-dasharray='2, 2' tags='connective'/>
    <line x1="162.28726" y1="273.5" x2="192.5" y2="256.05667" stroke='blue' stroke-width='0.07' stroke-dasharray='2, 2' tags='connective'/>
    <line x1="172.24933" y1="273.5" x2="192.5" y2="261.80827" stroke='blue' stroke-width='0.07' stroke-dasharray='2, 2' tags='connective'/>
    <line x1="182.21139" y1="273.5" x2="192.5" y2="267.55987" stroke='blue' stroke-width='0.07' stroke-dasharray='2, 2' tags='connective'/>
    <line x1="192.17346" y1="273.5" x2="192.5" y2="273.31147" stroke='blue' stroke-width='0.07' stroke-dasharray='2, 2' tags='connective'/>
  </g>
</svg>
