<?xml version="1.0" standalone="no"?>
<!DOCTYPE svg PUBLIC "-//W3C//DTD SVG 1.1//EN" "http://www.w3.org/Graphics/SVG/1.1/DTD/svg11.dtd">
<svg xmlns="http://www.w3.org/2000/svg" width="210.0mm" height="297.0mm" viewBox="0 0 210.0 297.0" >

  <g id="sheet">
    <line x1="15.0" y1="18.5" x2="195.0" y2="18.5" stroke='blue' stroke-width='0.2' tags='ascender2'/>
    <line x1="15.0" y1="22.25" x2="195.0" y2="22.25" stroke='grey' stroke-width='0.1' stroke-dasharray='2, 2' tags='ascender1'/>
    <line x1="15.0" y1="26.0" x2="195.0" y2="26.0" stroke='grey' stroke-width='0.1' tags='waist'/>
    <line x1="15.0" y1="31.0" x2="195.0" y2="31.0" stroke='red' stroke-width='0.1' tags='base'/>
    <line x1="15.0" y1="34.75" x2="195.0" y2="34.75" stroke='grey' stroke-width='0.1' stroke-dasharray='2, 2' tags='descender1'/>
    <line x1="15.0" y1="38.5" x2="195.0" y2="38.5" stroke='blue' stroke-width='0.2' tags='descender2'/>
    <line x1="15.0" y1="42.25" x2="195.0" y2="42.25" stroke='grey' stroke-width='0.1' stroke-dasharray='2, 2' tags='ascender1'/>
    <line x1="15.0" y1="46.0" x2="195.0" y2="46.0" stroke='grey' stroke-width='0.1' tags='waist'/>
    <line x1="15.0" y1="51.0" x2="195.0" y2="51.0" stroke='red' stroke-width='0.1' tags='base'/>
    <line x1="15.0" y1="54.75" x2="195.0" y2="54.75" stroke='grey' stroke-width='0.1' stroke-dasharray='2, 2' tags='descender1'/>
    <line x1="15.0" y1="58.5" x2="195.0" y2="58.5" stroke='blue' stroke-width='0.2' tags='descender2'/>
    <line x1="15.0" y1="62.25" x2="195.0" y2="62.25" stroke='grey' stroke-width='0.1' stroke-dasharray='2, 2' tags='ascender1'/>
    <line x1="15.0" y1="66.0" x2="195.0" y2="66.0" stroke='grey' stroke-width='0.1' tags='waist'/>
    <line x1="15.0" y1="71.0" x2="195.0" y2="71.0" stroke='red' stroke-width='0.1' tags='base'/>
    <line x1="15.0" y1="74.75" x2="195.0" y2="74.75" stroke='grey' stroke-width='0.1' stroke-dasharray='2, 2' tags='descender1'/>
    <line x1="15.0" y1="78.5" x2="195.0" y2="78.5" stroke='blue' stroke-width='0.2' tags='descender2'/>
    <line x1="15.0" y1="82.25" x2="195.0" y2="82.25" stroke='grey' stroke-width='0.1' stroke-dasharray='2, 2' tags='ascender1'/>
    <line x1="15.0" y1="86.0" x2="195.0" y2="86.0" stroke='grey' stroke-width='0.1' tags='waist'/>
    <line x1="15.0" y1="91.0" x2="195.0" y2="91.0" stroke='red' stroke-width='0.1' tags='base'/>
    <line x1="15.0" y1="94.75" x2="195.0" y2="94.75" stroke='grey' stroke-width='0.1' stroke-dasharray='2, 2' tags='descender1'/>
    <line x1="15.0" y1="98.5" x2="195.0" y2="98.5" stroke='blue' stroke-width='0.2' tags='descender2'/>
    <line x1="15.0" y1="102.25" x2="195.0" y2="102.25" stroke='grey' stroke-width='0.1' stroke-dasharray='2, 2' tags='ascender1'/>
    <line x1="15.0" y1="106.0" x2="195.0" y2="106.0" stroke='grey' stroke-width='0.1' tags='waist'/>
    <line x1="15.0" y1="111.0" x2="195.0" y2="111.0" stroke='red' stroke-width='0.1' tags='base'/>
    <line x1="15.0" y1="114.75" x2="195.0" y2="114.75" stroke='grey' stroke-width='0.1' stroke-dasharray='2, 2' tags='descender1'/>
    <line x1="15.0" y1="118.5" x2="195.0" y2="118.5" stroke='blue' stroke-width='0.2' tags='descender2'/>
    <line x1="15.0" y1="122.25" x2="195.0" y2="122.25" stroke='grey' stroke-width='0.1' stroke-dasharray='2, 2' tags='ascender1'/>
    <line x1="15.0" y1="126.0" x2="195.0" y2="126.0" stroke='grey' stroke-width='0.1' tags='waist'/>
    <line x1="15.0" y1="131.0" x2="195.0" y2="131.0" stroke='red' stroke-width='0.1' tags='base'/>
    <line x1="15.0" y1="134.75" x2="195.0" y2="134.75" stroke='grey' stroke-width='0.1' stroke-dasharray='2, 2' tags='descender1'/>
    <line x1="15.0" y1="138.5" x2="195.0" y2="138.5" stroke='blue' stroke-width='0.2' tags='descender2'/>
    <line x1="15.0" y1="142.25" x2="195.0" y2="142.25" stroke='grey' stroke-width='0.1' stroke-dasharray='2, 2' tags='ascender1'/>
    <line x1="15.0" y1="146.0" x2="195.0" y2="146.0" stroke='grey' stroke-width='0.1' tags='waist'/>
    <line x1="15.0" y1="151.0" x2="195.0" y2="151.0" stroke='red' stroke-width='0.1' tags='base'/>
    <line x1="15.0" y1="154.75" x2="195.0" y2="154.75" stroke='grey' stroke-width='0.1' stroke-dasharray='2, 2' tags='descender1'/>
    <line x1="15.0" y1="158.5" x2="195.0" y2="158.5" stroke='blue' stroke-width='0.2' tags='descender2'/>
    <line x1="15.0" y1="162.25" x2="195.0" y2="162.25" stroke='grey' stroke-width='0.1' stroke-dasharray='2, 2' tags='ascender1'/>
    <line x1="15.0" y1="166.0" x2="195.0" y2="166.0" stroke='grey' stroke-width='0.1' tags='waist'/>
    <line x1="15.0" y1="171.0" x2="195.0" y2="171.0" stroke='red' stroke-width='0.1' tags='base'/>
    <line x1="15.0" y1="174.75" x2="195.0" y2="174.75" stroke='grey' stroke-width='0.1' stroke-dasharray='2, 2' tags='descender1'/>
    <line x1="15.0" y1="178.5" x2="195.0" y2="178.5" stroke='blue' stroke-width='0.2' tags='descender2'/>
    <line x1="15.0" y1="182.25" x2="195.0" y2="182.25" stroke='grey' stroke-width='0.1' stroke-dasharray='2, 2' tags='ascender1'/>
    <line x1="15.0" y1="186.0" x2="195.0" y2="186.0" stroke='grey' stroke-width='0.1' tags='waist'/>
    <line x1="15.0" y1="191.0" x2="195.0" y2="191.0" stroke='red' stroke-width='0.1' tags='base'/>
    <line x1="15.0" y1="194.75" x2="195.0" y2="194.75" stroke='grey' stroke-width='0.1' stroke-dasharray='2, 2' tags='descender1'/>
    <line x1="15.0" y1="198.5" x2="195.0" y2="198.5" stroke='blue' stroke-width='0.2' tags='descender2'/>
    <line x1="15.0" y1="202.25" x2="195.0" y2="202.25" stroke='grey' stroke-width='0.1' stroke-dasharray='2, 2' tags='ascender1'/>
    <line x1="15.0" y1="206.0" x2="195.0" y2="206.0" stroke='grey' stroke-width='0.1' tags='waist'/>
    <line x1="15.0" y1="211.0" x2="195.0" y2="211.0" stroke='red' stroke-width='0.1' tags='base'/>
    <line x1="15.0" y1="214.75" x2="195.0" y2="214.75" stroke='grey' stroke-width='0.1' stroke-dasharray='2, 2' tags='descender1'/>
    <line x1="15.0" y1="218.5" x2="195.0" y2="218.5" stroke='blue' stroke-width='0.2' tags='descender2'/>
    <line x1="15.0" y1="222.25" x2="195.0" y2="222.25" stroke='grey' stroke-width='0.1' stroke-dasharray='2, 2' tags='ascender1'/>
    <line x1="15.0" y1="226.0" x2="195.0" y2="226.0" stroke='grey' stroke-width='0.1' tags='waist'/>
    <line x1="15.0" y1="231.0" x2="195.0" y2="231.0" stroke='red' stroke-width='0.1' tags='base'/>
    <line x1="15.0" y1="234.75" x2="195.0" y2="234.75" stroke='grey' stroke-width='0.1' stroke-dasharray='2, 2' tags='descender1'/>
    <line x1="15.0" y1="238.5" x2="195.0" y2="238.5" stroke='blue' stroke-width='0.2' tags='descender2'/>
    <line x1="15.0" y1="242.25" x2="195.0" y2="242.25" stroke='grey' stroke-width='0.1' stroke-dasharray='2, 2' tags='ascender1'/>
    <line x1="15.0" y1="246.0" x2="195.0" y2="246.0" stroke='grey' stroke-width='0.1' tags='waist'/>
    <line x1="15.0" y1="251.0" x2="195.0" y2="251.0" stroke='red' stroke-width='0.1' tags='base'/>
    <line x1="15.0" y1="254.75" x2="195.0" y2="254.75" stroke='grey' stroke-width='0.1' stroke-dasharray='2, 2' tags='descender1'/>
    <line x1="15.0" y1="258.5" x2="195.0" y2="258.5" stroke='blue' stroke-width='0.2' tags='descender2'/>
    <line x1="15.0" y1="262.25" x2="195.0" y2="262.25" stroke='grey' stroke-width='0.1' stroke-dasharray='2, 2' tags='ascender1'/>
    <line x1="15.0" y1="266.0" x2="195.0" y2="266.0" stroke='grey' stroke-width='0.1' tags='waist'/>
    <line x1="15.0" y1="271.0" x2="195.0" y2="271.0" stroke='red' stroke-width='0.1' tags='base'/>
    <line x1="15.0" y1="274.75" x2="195.0" y2="274.75" stroke='grey' stroke-width='0.1' stroke-dasharray='2, 2' tags='descender1'/>
    <line x1="15.0" y1="278.5" x2="195.0" y2="278.5" stroke='blue' stroke-width='0.2' tags='descender2'/>
    <line x1="15.0" y1="18.5" x2="15.0" y2="18.5" stroke='blue' stroke-width='0.1' tags='slant'/>
    <line x1="15.0" y1="26.25374" x2="21.05788" y2="18.5" stroke='blue' stroke-width='0.1' tags='slant'/>
    <line x1="15.0" y1="34.00748" x2="27.11577" y2="18.5" stroke='blue' stroke-width='0.1' tags='slant'/>
    <line x1="15.0" y1="41.76122" x2="33.17365" y2="18.5" stroke='blue' stroke-width='0.1' tags='slant'/>
    <line x1="15.0" y1="49.51495" x2="39.23154" y2="18.5" stroke='blue' stroke-width='0.1' tags='slant'/>
    <line x1="15.0" y1="57.26869" x2="45.28942" y2="18.5" stroke='blue' stroke-width='0.1' tags='slant'/>
    <line x1="15.0" y1="65.02243" x2="51.34731" y2="18.5" stroke='blue' stroke-width='0.1' tags='slant'/>
    <line x1="15.0" y1="72.77617" x2="57.40519" y2="18.5" stroke='blue' stroke-width='0.1' tags='slant'/>
    <line x1="15.0" y1="80.52991" x2="63.46308" y2="18.5" stroke='blue' stroke-width='0.1' tags='slant'/>
    <line x1="15.0" y1="88.28365" x2="69.52096" y2="18.5" stroke='blue' stroke-width='0.1' tags='slant'/>
    <line x1="15.0" y1="96.03739" x2="75.57885" y2="18.5" stroke='blue' stroke-width='0.1' tags='slant'/>
    <line x1="15.0" y1="103.79113" x2="81.63673" y2="18.5" stroke='blue' stroke-width='0.1' tags='slant'/>
    <line x1="15.0" y1="111.54486" x2="87.69462" y2="18.5" stroke='blue' stroke-width='0.1' tags='slant'/>
    <line x1="15.0" y1="119.2986" x2="93.7525" y2="18.5" stroke='blue' stroke-width='0.1' tags='slant'/>
    <line x1="15.0" y1="127.05234" x2="99.81038" y2="18.5" stroke='blue' stroke-width='0.1' tags='slant'/>
    <line x1="15.0" y1="134.80608" x2="105.86827" y2="18.5" stroke='blue' stroke-width='0.1' tags='slant'/>
    <line x1="15.0" y1="142.55982" x2="111.92615" y2="18.5" stroke='blue' stroke-width='0.1' tags='slant'/>
    <line x1="15.0" y1="150.31356" x2="117.98404" y2="18.5" stroke='blue' stroke-width='0.1' tags='slant'/>
    <line x1="15.0" y1="158.0673" x2="124.04192" y2="18.5" stroke='blue' stroke-width='0.1' tags='slant'/>
    <line x1="15.0" y1="165.82104" x2="130.09981" y2="18.5" stroke='blue' stroke-width='0.1' tags='slant'/>
    <line x1="15.0" y1="173.57477" x2="136.15769" y2="18.5" stroke='blue' stroke-width='0.1' tags='slant'/>
    <line x1="15.0" y1="181.32851" x2="142.21558" y2="18.5" stroke='blue' stroke-width='0.1' tags='slant'/>
    <line x1="15.0" y1="189.08225" x2="148.27346" y2="18.5" stroke='blue' stroke-width='0.1' tags='slant'/>
    <line x1="15.0" y1="196.83599" x2="154.33135" y2="18.5" stroke='blue' stroke-width='0.1' tags='slant'/>
    <line x1="15.0" y1="204.58973" x2="160.38923" y2="18.5" stroke='blue' stroke-width='0.1' tags='slant'/>
    <line x1="15.0" y1="212.34347" x2="166.44712" y2="18.5" stroke='blue' stroke-width='0.1' tags='slant'/>
    <line x1="15.0" y1="220.09721" x2="172.505" y2="18.5" stroke='blue' stroke-width='0.1' tags='slant'/>
    <line x1="15.0" y1="227.85095" x2="178.56288" y2="18.5" stroke='blue' stroke-width='0.1' tags='slant'/>
    <line x1="15.0" y1="235.60468" x2="184.62077" y2="18.5" stroke='blue' stroke-width='0.1' tags='slant'/>
    <line x1="15.0" y1="243.35842" x2="190.67865" y2="18.5" stroke='blue' stroke-width='0.1' tags='slant'/>
    <line x1="15.0" y1="251.11216" x2="195.0" y2="20.72267" stroke='blue' stroke-width='0.1' tags='slant'/>
    <line x1="15.0" y1="258.8659" x2="195.0" y2="28.47641" stroke='blue' stroke-width='0.1' tags='slant'/>
    <line x1="15.0" y1="266.61964" x2="195.0" y2="36.23014" stroke='blue' stroke-width='0.1' tags='slant'/>
    <line x1="15.0" y1="274.37338" x2="195.0" y2="43.98388" stroke='blue' stroke-width='0.1' tags='slant'/>
    <line x1="17.83381" y1="278.5" x2="195.0" y2="51.73762" stroke='blue' stroke-width='0.1' tags='slant'/>
    <line x1="23.8917" y1="278.5" x2="195.0" y2="59.49136" stroke='blue' stroke-width='0.1' tags='slant'/>
    <line x1="29.94958" y1="278.5" x2="195.0" y2="67.2451" stroke='blue' stroke-width='0.1' tags='slant'/>
    <line x1="36.00747" y1="278.5" x2="195.0" y2="74.99884" stroke='blue' stroke-width='0.1' tags='slant'/>
    <line x1="42.06535" y1="278.5" x2="195.0" y2="82.75258" stroke='blue' stroke-width='0.1' tags='slant'/>
    <line x1="48.12324" y1="278.5" x2="195.0" y2="90.50632" stroke='blue' stroke-width='0.1' tags='slant'/>
    <line x1="54.18112" y1="278.5" x2="195.0" y2="98.26005" stroke='blue' stroke-width='0.1' tags='slant'/>
    <line x1="60.23901" y1="278.5" x2="195.0" y2="106.01379" stroke='blue' stroke-width='0.1' tags='slant'/>
    <line x1="66.29689" y1="278.5" x2="195.0" y2="113.76753" stroke='blue' stroke-width='0.1' tags='slant'/>
    <line x1="72.35477" y1="278.5" x2="195.0" y2="121.52127" stroke='blue' stroke-width='0.1' tags='slant'/>
    <line x1="78.41266" y1="278.5" x2="195.0" y2="129.27501" stroke='blue' stroke-width='0.1' tags='slant'/>
    <line x1="84.47054" y1="278.5" x2="195.0" y2="137.02875" stroke='blue' stroke-width='0.1' tags='slant'/>
    <line x1="90.52843" y1="278.5" x2="195.0" y2="144.78249" stroke='blue' stroke-width='0.1' tags='slant'/>
    <line x1="96.58631" y1="278.5" x2="195.0" y2="152.53623" stroke='blue' stroke-width='0.1' tags='slant'/>
    <line x1="102.6442" y1="278.5" x2="195.0" y2="160.28996" stroke='blue' stroke-width='0.1' tags='slant'/>
    <line x1="108.70208" y1="278.5" x2="195.0" y2="168.0437" stroke='blue' stroke-width='0.1' tags='slant'/>
    <line x1="114.75997" y1="278.5" x2="195.0" y2="175.79744" stroke='blue' stroke-width='0.1' tags='slant'/>
    <line x1="120.81785" y1="278.5" x2="195.0" y2="183.55118" stroke='blue' stroke-width='0.1' tags='slant'/>
    <line x1="126.87574" y1="278.5" x2="195.0" y2="191.30492" stroke='blue' stroke-width='0.1' tags='slant'/>
    <line x1="132.93362" y1="278.5" x2="195.0" y2="199.05866" stroke='blue' stroke-width='0.1' tags='slant'/>
    <line x1="138.99151" y1="278.5" x2="195.0" y2="206.8124" stroke='blue' stroke-width='0.1' tags='slant'/>
    <line x1="145.04939" y1="278.5" x2="195.0" y2="214.56613" stroke='blue' stroke-width='0.1' tags='slant'/>
    <line x1="151.10727" y1="278.5" x2="195.0" y2="222.31987" stroke='blue' stroke-width='0.1' tags='slant'/>
    <line x1="157.16516" y1="278.5" x2="195.0" y2="230.07361" stroke='blue' stroke-width='0.1' tags='slant'/>
    <line x1="163.22304" y1="278.5" x2="195.0" y2="237.82735" stroke='blue' stroke-width='0.1' tags='slant'/>
    <line x1="169.28093" y1="278.5" x2="195.0" y2="245.58109" stroke='blue' stroke-width='0.1' tags='slant'/>
    <line x1="175.33881" y1="278.5" x2="195.0" y2="253.33483" stroke='blue' stroke-width='0.1' tags='slant'/>
    <line x1="181.3967" y1="278.5" x2="195.0" y2="261.08857" stroke='blue' stroke-width='0.1' tags='slant'/>
    <line x1="187.45458" y1="278.5" x2="195.0" y2="268.84231" stroke='blue' stroke-width='0.1' tags='slant'/>
    <line x1="193.51247" y1="278.5" x2="195.0" y2="276.59604" stroke='blue' stroke-width='0.1' tags='slant'/>
    <line x1="15.0" y1="24.25413" x2="24.96644" y2="18.5" stroke='blue' stroke-width='0.07' stroke-dasharray='2, 2' tags='connective'/>
    <line x1="15.0" y1="30.00826" x2="34.93289" y2="18.5" stroke='blue' stroke-width='0.07' stroke-dasharray='2, 2' tags='connective'/>
    <line x1="15.0" y1="35.76239" x2="44.89933" y2="18.5" stroke='blue' stroke-width='0.07' stroke-dasharray='2, 2' tags='connective'/>
    <line x1="15.0" y1="41.51651" x2="54.86577" y2="18.5" stroke='blue' stroke-width='0.07' stroke-dasharray='2, 2' tags='connective'/>
    <line x1="15.0" y1="47.27064" x2="64.83222" y2="18.5" stroke='blue' stroke-width='0.07' stroke-dasharray='2, 2' tags='connective'/>
    <line x1="15.0" y1="53.02477" x2="74.79866" y2="18.5" stroke='blue' stroke-width='0.07' stroke-dasharray='2, 2' tags='connective'/>
    <line x1="15.0" y1="58.7789" x2="84.7651" y2="18.5" stroke='blue' stroke-width='0.07' stroke-dasharray='2, 2' tags='connective'/>
    <line x1="15.0" y1="64.53303" x2="94.73155" y2="18.5" stroke='blue' stroke-width='0.07' stroke-dasharray='2, 2' tags='connective'/>
    <line x1="15.0" y1="70.28716" x2="104.69799" y2="18.5" stroke='blue' stroke-width='0.07' stroke-dasharray='2, 2' tags='connective'/>
    <line x1="15.0" y1="76.04129" x2="114.66443" y2="18.5" stroke='blue' stroke-width='0.07' stroke-dasharray='2, 2' tags='connective'/>
    <line x1="15.0" y1="81.79541" x2="124.63087" y2="18.5" stroke='blue' stroke-width='0.07' stroke-dasharray='2, 2' tags='connective'/>
    <line x1="15.0" y1="87.54954" x2="134.59732" y2="18.5" stroke='blue' stroke-width='0.07' stroke-dasharray='2, 2' tags='connective'/>
    <line x1="15.0" y1="93.30367" x2="144.56376" y2="18.5" stroke='blue' stroke-width='0.07' stroke-dasharray='2, 2' tags='connective'/>
    <line x1="15.0" y1="99.0578" x2="154.5302" y2="18.5" stroke='blue' stroke-width='0.07' stroke-dasharray='2, 2' tags='connective'/>
    <line x1="15.0" y1="104.81193" x2="164.49665" y2="18.5" stroke='blue' stroke-width='0.07' stroke-dasharray='2, 2' tags='connective'/>
    <line x1="15.0" y1="110.56606" x2="174.46309" y2="18.5" stroke='blue' stroke-width='0.07' stroke-dasharray='2, 2' tags='connective'/>
    <line x1="15.0" y1="116.32019" x2="184.42953" y2="18.5" stroke='blue' stroke-width='0.07' stroke-dasharray='2, 2' tags='connective'/>
    <line x1="15.0" y1="122.07432" x2="194.39598" y2="18.5" stroke='blue' stroke-width='0.07' stroke-dasharray='2, 2' tags='connective'/>
    <line x1="15.0" y1="127.82844" x2="195.0" y2="23.9054" stroke='blue' stroke-width='0.07' stroke-dasharray='2, 2' tags='connective'/>
    <line x1="15.0" y1="133.58257" x2="195.0" y2="29.65952" stroke='blue' stroke-width='0.07' stroke-dasharray='2, 2' tags='connective'/>
    <line x1="15.0" y1="139.3367" x2="195.0" y2="35.41365" stroke='blue' stroke-width='0.07' stroke-dasharray='2, 2' tags='connective'/>
    <line x1="15.0" y1="145.09083" x2="195.0" y2="41.16778" stroke='blue' stroke-width='0.07' stroke-dasharray='2, 2' tags='connective'/>
    <line x1="15.0" y1="150.84496" x2="195.0" y2="46.92191" stroke='blue' stroke-width='0.07' stroke-dasharray='2, 2' tags='connective'/>
    <line x1="15.0" y1="156.59909" x2="195.0" y2="52.67604" stroke='blue' stroke-width='0.07' stroke-dasharray='2, 2' tags='connective'/>
    <line x1="15.0" y1="162.35322" x2="195.0" y2="58.43017" stroke='blue' stroke-width='0.07' stroke-dasharray='2, 2' tags='connective'/>
    <line x1="15.0" y1="168.10734" x2="195.0" y2="64.1843" stroke='blue' stroke-width='0.07' stroke-dasharray='2, 2' tags='connective'/>
    <line x1="15.0" y1="173.86147" x2="195.0" y2="69.93842" stroke='blue' stroke-width='0.07' stroke-dasharray='2, 2' tags='connective'/>
    <line x1="15.0" y1="179.6156" x2="195.0" y2="75.69255" stroke='blue' stroke-width='0.07' stroke-dasharray='2, 2' tags='connective'/>
    <line x1="15.0" y1="185.36973" x2="195.0" y2="81.44668" stroke='blue' stroke-width='0.07' stroke-dasharray='2, 2' tags='connective'/>
    <line x1="15.0" y1="191.12386" x2="195.0" y2="87.20081" stroke='blue' stroke-width='0.07' stroke-dasharray='2, 2' tags='connective'/>
    <line x1="15.0" y1="196.87799" x2="195.0" y2="92.95494" stroke='blue' stroke-width='0.07' stroke-dasharray='2, 2' tags='connective'/>
    <line x1="15.0" y1="202.63212" x2="195.0" y2="98.70907" stroke='blue' stroke-width='0.07' stroke-dasharray='2, 2' tags='connective'/>
    <line x1="15.0" y1="208.38624" x2="195.0" y2="104.4632" stroke='blue' stroke-width='0.07' stroke-dasharray='2, 2' tags='connective'/>
    <line x1="15.0" y1="214.14037" x2="195.0" y2="110.21732" stroke='blue' stroke-width='0.07' stroke-dasharray='2, 2' tags='connective'/>
    <line x1="15.0" y1="219.8945" x2="195.0" y2="115.97145" stroke='blue' stroke-width='0.07' stroke-dasharray='2, 2' tags='connective'/>
    <line x1="15.0" y1="225.64863" x2="195.0" y2="121.72558" stroke='blue' stroke-width='0.07' stroke-dasharray='2, 2' tags='connective'/>
    <line x1="15.0" y1="231.40276" x2="195.0" y2="127.47971" stroke='blue' stroke-width='0.07' stroke-dasharray='2, 2' tags='connective'/>
    <line x1="15.0" y1="237.15689" x2="195.0" y2="133.23384" stroke='blue' stroke-width='0.07' stroke-dasharray='2, 2' tags='connective'/>
    <line x1="15.0" y1="242.91102" x2="195.0" y2="138.98797" stroke='blue' stroke-width='0.07' stroke-dasharray='2, 2' tags='connective'/>
    <line x1="15.0" y1="248.66515" x2="195.0" y2="144.7421" stroke='blue' stroke-width='0.07' stroke-dasharray='2, 2' tags='connective'/>
    <line x1="15.0" y1="254.41927" x2="195.0" y2="150.49623" stroke='blue' stroke-width='0.07' stroke-dasharray='2, 2' tags='connective'/>
    <line x1="15.0" y1="260.1734" x2="195.0" y2="156.25035" stroke='blue' stroke-width='0.07' stroke-dasharray='2, 2' tags='connective'/>
    <line x1="15.0" y1="265.92753" x2="195.0" y2="162.00448" stroke='blue' stroke-width='0.07' stroke-dasharray='2, 2' tags='connective'/>
    <line x1="15.0" y1="271.68166" x2="195.0" y2="167.75861" stroke='blue' stroke-width='0.07' stroke-dasharray='2, 2' tags='connective'/>
    <line x1="15.0" y1="277.43579" x2="195.0" y2="173.51274" stroke='blue' stroke-width='0.07' stroke-dasharray='2, 2' tags='connective'/>
    <line x1="23.12317" y1="278.5" x2="195.0" y2="179.26687" stroke='blue' stroke-width='0.07' stroke-dasharray='2, 2' tags='connective'/>
    <line x1="33.08962" y1="278.5" x2="195.0" y2="185.021" stroke='blue' stroke-width='0.07' stroke-dasharray='2, 2' tags='connective'/>
    <line x1="43.05606" y1="278.5" x2="195.0" y2="190.77513" stroke='blue' stroke-width='0.07' stroke-dasharray='2, 2' tags='connective'/>
    <line x1="53.0225" y1="278.5" x2="195.0" y2="196.52925" stroke='blue' stroke-width='0.07' stroke-dasharray='2, 2' tags='connective'/>
    <line x1="62.98895" y1="278.5" x2="195.0" y2="202.28338" stroke='blue' stroke-width='0.07' stroke-dasharray='2, 2' tags='connective'/>
    <line x1="72.95539" y1="278.5" x2="195.0" y2="208.03751" stroke='blue' stroke-width='0.07' stroke-dasharray='2, 2' tags='connective'/>
    <line x1="82.92183" y1="278.5" x2="195.0" y2="213.79164" stroke='blue' stroke-width='0.07' stroke-dasharray='2, 2' tags='connective'/>
    <line x1="92.88828" y1="278.5" x2="195.0" y2="219.54577" stroke='blue' stroke-width='0.07' stroke-dasharray='2, 2' tags='connective'/>
    <line x1="102.85472" y1="278.5" x2="195.0" y2="225.2999" stroke='blue' stroke-width='0.07' stroke-dasharray='2, 2' tags='connective'/>
    <line x1="112.82116" y1="278.5" x2="195.0" y2="231.05403" stroke='blue' stroke-width='0.07' stroke-dasharray='2, 2' tags='connective'/>
    <line x1="122.78761" y1="278.5" x2="195.0" y2="236.80815" stroke='blue' stroke-width='0.07' stroke-dasharray='2, 2' tags='connective'/>
    <line x1="132.75405" y1="278.5" x2="195.0" y2="242.56228" stroke='blue' stroke-width='0.07' stroke-dasharray='2, 2' tags='connective'/>
    <line x1="142.72049" y1="278.5" x2="195.0" y2="248.31641" stroke='blue' stroke-width='0.07' stroke-dasharray='2, 2' tags='connective'/>
    <line x1="152.68694" y1="278.5" x2="195.0" y2="254.07054" stroke='blue' stroke-width='0.07' stroke-dasharray='2, 2' tags='connective'/>
    <line x1="162.65338" y1="278.5" x2="195.0" y2="259.82467" stroke='blue' stroke-width='0.07' stroke-dasharray='2, 2' tags='connective'/>
    <line x1="172.61982" y1="278.5" x2="195.0" y2="265.5788" stroke='blue' stroke-width='0.07' stroke-dasharray='2, 2' tags='connective'/>
    <line x1="182.58626" y1="278.5" x2="195.0" y2="271.33293" stroke='blue' stroke-width='0.07' stroke-dasharray='2, 2' tags='connective'/>
    <line x1="192.55271" y1="278.5" x2="195.0" y2="277.08706" stroke='blue' stroke-width='0.07' stroke-dasharray='2, 2' tags='connective'/>
  </g>
</svg>
