<?xml version="1.0" standalone="no"?>
<!DOCTYPE svg PUBLIC "-//W3C//DTD SVG 1.1//EN" "http://www.w3.org/Graphics/SVG/1.1/DTD/svg11.dtd">
<svg xmlns="http://www.w3.org/2000/svg" width="297.0mm" height="210.0mm" viewBox="0 0 297.0 210.0" >

  <g id="sheet">
    <line x1="8.5" y1="15.0" x2="288.5" y2="15.0" stroke='blue' stroke-width='0.2' tags='ascender2'/>
    <line x1="8.5" y1="18.75" x2="288.5" y2="18.75" stroke='grey' stroke-width='0.1' stroke-dasharray='2, 2' tags='ascender1'/>
    <line x1="8.5" y1="22.5" x2="288.5" y2="22.5" stroke='grey' stroke-width='0.1' tags='waist'/>
    <line x1="8.5" y1="27.5" x2="288.5" y2="27.5" stroke='red' stroke-width='0.1' tags='base'/>
    <line x1="8.5" y1="31.25" x2="288.5" y2="31.25" stroke='grey' stroke-width='0.1' stroke-dasharray='2, 2' tags='descender1'/>
    <line x1="8.5" y1="35.0" x2="288.5" y2="35.0" stroke='blue' stroke-width='0.2' tags='descender2'/>
    <line x1="8.5" y1="38.75" x2="288.5" y2="38.75" stroke='grey' stroke-width='0.1' stroke-dasharray='2, 2' tags='ascender1'/>
    <line x1="8.5" y1="42.5" x2="288.5" y2="42.5" stroke='grey' stroke-width='0.1' tags='waist'/>
    <line x1="8.5" y1="47.5" x2="288.5" y2="47.5" stroke='red' stroke-width='0.1' tags='base'/>
    <line x1="8.5" y1="51.25" x2="288.5" y2="51.25" stroke='grey' stroke-width='0.1' stroke-dasharray='2, 2' tags='descender1'/>
    <line x1="8.5" y1="55.0" x2="288.5" y2="55.0" stroke='blue' stroke-width='0.2' tags='descender2'/>
    <line x1="8.5" y1="58.75" x2="288.5" y2="58.75" stroke='grey' stroke-width='0.1' stroke-dasharray='2, 2' tags='ascender1'/>
    <line x1="8.5" y1="62.5" x2="288.5" y2="62.5" stroke='grey' stroke-width='0.1' tags='waist'/>
    <line x1="8.5" y1="67.5" x2="288.5" y2="67.5" stroke='red' stroke-width='0.1' tags='base'/>
    <line x1="8.5" y1="71.25" x2="288.5" y2="71.25" stroke='grey' stroke-width='0.1' stroke-dasharray='2, 2' tags='descender1'/>
    <line x1="8.5" y1="75.0" x2="288.5" y2="75.0" stroke='blue' stroke-width='0.2' tags='descender2'/>
    <line x1="8.5" y1="78.75" x2="288.5" y2="78.75" stroke='grey' stroke-width='0.1' stroke-dasharray='2, 2' tags='ascender1'/>
    <line x1="8.5" y1="82.5" x2="288.5" y2="82.5" stroke='grey' stroke-width='0.1' tags='waist'/>
    <line x1="8.5" y1="87.5" x2="288.5" y2="87.5" stroke='red' stroke-width='0.1' tags='base'/>
    <line x1="8.5" y1="91.25" x2="288.5" y2="91.25" stroke='grey' stroke-width='0.1' stroke-dasharray='2, 2' tags='descender1'/>
    <line x1="8.5" y1="95.0" x2="288.5" y2="95.0" stroke='blue' stroke-width='0.2' tags='descender2'/>
    <line x1="8.5" y1="98.75" x2="288.5" y2="98.75" stroke='grey' stroke-width='0.1' stroke-dasharray='2, 2' tags='ascender1'/>
    <line x1="8.5" y1="102.5" x2="288.5" y2="102.5" stroke='grey' stroke-width='0.1' tags='waist'/>
    <line x1="8.5" y1="107.5" x2="288.5" y2="107.5" stroke='red' stroke-width='0.1' tags='base'/>
    <line x1="8.5" y1="111.25" x2="288.5" y2="111.25" stroke='grey' stroke-width='0.1' stroke-dasharray='2, 2' tags='descender1'/>
    <line x1="8.5" y1="115.0" x2="288.5" y2="115.0" stroke='blue' stroke-width='0.2' tags='descender2'/>
    <line x1="8.5" y1="118.75" x2="288.5" y2="118.75" stroke='grey' stroke-width='0.1' stroke-dasharray='2, 2' tags='ascender1'/>
    <line x1="8.5" y1="122.5" x2="288.5" y2="122.5" stroke='grey' stroke-width='0.1' tags='waist'/>
    <line x1="8.5" y1="127.5" x2="288.5" y2="127.5" stroke='red' stroke-width='0.1' tags='base'/>
    <line x1="8.5" y1="131.25" x2="288.5" y2="131.25" stroke='grey' stroke-width='0.1' stroke-dasharray='2, 2' tags='descender1'/>
    <line x1="8.5" y1="135.0" x2="288.5" y2="135.0" stroke='blue' stroke-width='0.2' tags='descender2'/>
    <line x1="8.5" y1="138.75" x2="288.5" y2="138.75" stroke='grey' stroke-width='0.1' stroke-dasharray='2, 2' tags='ascender1'/>
    <line x1="8.5" y1="142.5" x2="288.5" y2="142.5" stroke='grey' stroke-width='0.1' tags='waist'/>
    <line x1="8.5" y1="147.5" x2="288.5" y2="147.5" stroke='red' stroke-width='0.1' tags='base'/>
    <line x1="8.5" y1="151.25" x2="288.5" y2="151.25" stroke='grey' stroke-width='0.1' stroke-dasharray='2, 2' tags='descender1'/>
    <line x1="8.5" y1="155.0" x2="288.5" y2="155.0" stroke='blue' stroke-width='0.2' tags='descender2'/>
    <line x1="8.5" y1="158.75" x2="288.5" y2="158.75" stroke='grey' stroke-width='0.1' stroke-dasharray='2, 2' tags='ascender1'/>
    <line x1="8.5" y1="162.5" x2="288.5" y2="162.5" stroke='grey' stroke-width='0.1' tags='waist'/>
    <line x1="8.5" y1="167.5" x2="288.5" y2="167.5" stroke='red' stroke-width='0.1' tags='base'/>
    <line x1="8.5" y1="171.25" x2="288.5" y2="171.25" stroke='grey' stroke-width='0.1' stroke-dasharray='2, 2' tags='descender1'/>
    <line x1="8.5" y1="175.0" x2="288.5" y2="175.0" stroke='blue' stroke-width='0.2' tags='descender2'/>
    <line x1="8.5" y1="178.75" x2="288.5" y2="178.75" stroke='grey' stroke-width='0.1' stroke-dasharray='2, 2' tags='ascender1'/>
    <line x1="8.5" y1="182.5" x2="288.5" y2="182.5" stroke='grey' stroke-width='0.1' tags='waist'/>
    <line x1="8.5" y1="187.5" x2="288.5" y2="187.5" stroke='red' stroke-width='0.1' tags='base'/>
    <line x1="8.5" y1="191.25" x2="288.5" y2="191.25" stroke='grey' stroke-width='0.1' stroke-dasharray='2, 2' tags='descender1'/>
    <line x1="8.5" y1="195.0" x2="288.5" y2="195.0" stroke='blue' stroke-width='0.2' tags='descender2'/>
    <line x1="8.5" y1="15.0" x2="8.5" y2="15.0" stroke='blue' stroke-width='0.1' tags='slant'/>
    <line x1="8.5" y1="23.08708" x2="14.81832" y2="15.0" stroke='blue' stroke-width='0.1' tags='slant'/>
    <line x1="8.5" y1="31.17417" x2="21.13665" y2="15.0" stroke='blue' stroke-width='0.1' tags='slant'/>
    <line x1="8.5" y1="39.26125" x2="27.45497" y2="15.0" stroke='blue' stroke-width='0.1' tags='slant'/>
    <line x1="8.5" y1="47.34834" x2="33.77329" y2="15.0" stroke='blue' stroke-width='0.1' tags='slant'/>
    <line x1="8.5" y1="55.43542" x2="40.09162" y2="15.0" stroke='blue' stroke-width='0.1' tags='slant'/>
    <line x1="8.5" y1="63.52251" x2="46.40994" y2="15.0" stroke='blue' stroke-width='0.1' tags='slant'/>
    <line x1="8.5" y1="71.60959" x2="52.72826" y2="15.0" stroke='blue' stroke-width='0.1' tags='slant'/>
    <line x1="8.5" y1="79.69668" x2="59.04658" y2="15.0" stroke='blue' stroke-width='0.1' tags='slant'/>
    <line x1="8.5" y1="87.78376" x2="65.36491" y2="15.0" stroke='blue' stroke-width='0.1' tags='slant'/>
    <line x1="8.5" y1="95.87085" x2="71.68323" y2="15.0" stroke='blue' stroke-width='0.1' tags='slant'/>
    <line x1="8.5" y1="103.95793" x2="78.00155" y2="15.0" stroke='blue' stroke-width='0.1' tags='slant'/>
    <line x1="8.5" y1="112.04502" x2="84.31988" y2="15.0" stroke='blue' stroke-width='0.1' tags='slant'/>
    <line x1="8.5" y1="120.1321" x2="90.6382" y2="15.0" stroke='blue' stroke-width='0.1' tags='slant'/>
    <line x1="8.5" y1="128.21919" x2="96.95652" y2="15.0" stroke='blue' stroke-width='0.1' tags='slant'/>
    <line x1="8.5" y1="136.30627" x2="103.27485" y2="15.0" stroke='blue' stroke-width='0.1' tags='slant'/>
    <line x1="8.5" y1="144.39336" x2="109.59317" y2="15.0" stroke='blue' stroke-width='0.1' tags='slant'/>
    <line x1="8.5" y1="152.48044" x2="115.91149" y2="15.0" stroke='blue' stroke-width='0.1' tags='slant'/>
    <line x1="8.5" y1="160.56752" x2="122.22981" y2="15.0" stroke='blue' stroke-width='0.1' tags='slant'/>
    <line x1="8.5" y1="168.65461" x2="128.54814" y2="15.0" stroke='blue' stroke-width='0.1' tags='slant'/>
    <line x1="8.5" y1="176.74169" x2="134.86646" y2="15.0" stroke='blue' stroke-width='0.1' tags='slant'/>
    <line x1="8.5" y1="184.82878" x2="141.18478" y2="15.0" stroke='blue' stroke-width='0.1' tags='slant'/>
    <line x1="8.5" y1="192.91586" x2="147.50311" y2="15.0" stroke='blue' stroke-width='0.1' tags='slant'/>
    <line x1="13.19002" y1="195.0" x2="153.82143" y2="15.0" stroke='blue' stroke-width='0.1' tags='slant'/>
    <line x1="19.50834" y1="195.0" x2="160.13975" y2="15.0" stroke='blue' stroke-width='0.1' tags='slant'/>
    <line x1="25.82666" y1="195.0" x2="166.45808" y2="15.0" stroke='blue' stroke-width='0.1' tags='slant'/>
    <line x1="32.14499" y1="195.0" x2="172.7764" y2="15.0" stroke='blue' stroke-width='0.1' tags='slant'/>
    <line x1="38.46331" y1="195.0" x2="179.09472" y2="15.0" stroke='blue' stroke-width='0.1' tags='slant'/>
    <line x1="44.78163" y1="195.0" x2="185.41305" y2="15.0" stroke='blue' stroke-width='0.1' tags='slant'/>
    <line x1="51.09996" y1="195.0" x2="191.73137" y2="15.0" stroke='blue' stroke-width='0.1' tags='slant'/>
    <line x1="57.41828" y1="195.0" x2="198.04969" y2="15.0" stroke='blue' stroke-width='0.1' tags='slant'/>
    <line x1="63.7366" y1="195.0" x2="204.36801" y2="15.0" stroke='blue' stroke-width='0.1' tags='slant'/>
    <line x1="70.05492" y1="195.0" x2="210.68634" y2="15.0" stroke='blue' stroke-width='0.1' tags='slant'/>
    <line x1="76.37325" y1="195.0" x2="217.00466" y2="15.0" stroke='blue' stroke-width='0.1' tags='slant'/>
    <line x1="82.69157" y1="195.0" x2="223.32298" y2="15.0" stroke='blue' stroke-width='0.1' tags='slant'/>
    <line x1="89.00989" y1="195.0" x2="229.64131" y2="15.0" stroke='blue' stroke-width='0.1' tags='slant'/>
    <line x1="95.32822" y1="195.0" x2="235.95963" y2="15.0" stroke='blue' stroke-width='0.1' tags='slant'/>
    <line x1="101.64654" y1="195.0" x2="242.27795" y2="15.0" stroke='blue' stroke-width='0.1' tags='slant'/>
    <line x1="107.96486" y1="195.0" x2="248.59628" y2="15.0" stroke='blue' stroke-width='0.1' tags='slant'/>
    <line x1="114.28319" y1="195.0" x2="254.9146" y2="15.0" stroke='blue' stroke-width='0.1' tags='slant'/>
    <line x1="120.60151" y1="195.0" x2="261.23292" y2="15.0" stroke='blue' stroke-width='0.1' tags='slant'/>
    <line x1="126.91983" y1="195.0" x2="267.55124" y2="15.0" stroke='blue' stroke-width='0.1' tags='slant'/>
    <line x1="133.23816" y1="195.0" x2="273.86957" y2="15.0" stroke='blue' stroke-width='0.1' tags='slant'/>
    <line x1="139.55648" y1="195.0" x2="280.18789" y2="15.0" stroke='blue' stroke-width='0.1' tags='slant'/>
    <line x1="145.8748" y1="195.0" x2="286.50621" y2="15.0" stroke='blue' stroke-width='0.1' tags='slant'/>
    <line x1="152.19312" y1="195.0" x2="288.5" y2="20.53515" stroke='blue' stroke-width='0.1' tags='slant'/>
    <line x1="158.51145" y1="195.0" x2="288.5" y2="28.62224" stroke='blue' stroke-width='0.1' tags='slant'/>
    <line x1="164.82977" y1="195.0" x2="288.5" y2="36.70932" stroke='blue' stroke-width='0.1' tags='slant'/>
    <line x1="171.14809" y1="195.0" x2="288.5" y2="44.79641" stroke='blue' stroke-width='0.1' tags='slant'/>
    <line x1="177.46642" y1="195.0" x2="288.5" y2="52.88349" stroke='blue' stroke-width='0.1' tags='slant'/>
    <line x1="183.78474" y1="195.0" x2="288.5" y2="60.97058" stroke='blue' stroke-width='0.1' tags='slant'/>
    <line x1="190.10306" y1="195.0" x2="288.5" y2="69.05766" stroke='blue' stroke-width='0.1' tags='slant'/>
    <line x1="196.42139" y1="195.0" x2="288.5" y2="77.14475" stroke='blue' stroke-width='0.1' tags='slant'/>
    <line x1="202.73971" y1="195.0" x2="288.5" y2="85.23183" stroke='blue' stroke-width='0.1' tags='slant'/>
    <line x1="209.05803" y1="195.0" x2="288.5" y2="93.31892" stroke='blue' stroke-width='0.1' tags='slant'/>
    <line x1="215.37635" y1="195.0" x2="288.5" y2="101.406" stroke='blue' stroke-width='0.1' tags='slant'/>
    <line x1="221.69468" y1="195.0" x2="288.5" y2="109.49309" stroke='blue' stroke-width='0.1' tags='slant'/>
    <line x1="228.013" y1="195.0" x2="288.5" y2="117.58017" stroke='blue' stroke-width='0.1' tags='slant'/>
    <line x1="234.33132" y1="195.0" x2="288.5" y2="125.66726" stroke='blue' stroke-width='0.1' tags='slant'/>
    <line x1="240.64965" y1="195.0" x2="288.5" y2="133.75434" stroke='blue' stroke-width='0.1' tags='slant'/>
    <line x1="246.96797" y1="195.0" x2="288.5" y2="141.84143" stroke='blue' stroke-width='0.1' tags='slant'/>
    <line x1="253.28629" y1="195.0" x2="288.5" y2="149.92851" stroke='blue' stroke-width='0.1' tags='slant'/>
    <line x1="259.60462" y1="195.0" x2="288.5" y2="158.0156" stroke='blue' stroke-width='0.1' tags='slant'/>
    <line x1="265.92294" y1="195.0" x2="288.5" y2="166.10268" stroke='blue' stroke-width='0.1' tags='slant'/>
    <line x1="272.24126" y1="195.0" x2="288.5" y2="174.18976" stroke='blue' stroke-width='0.1' tags='slant'/>
    <line x1="278.55959" y1="195.0" x2="288.5" y2="182.27685" stroke='blue' stroke-width='0.1' tags='slant'/>
    <line x1="284.87791" y1="195.0" x2="288.5" y2="190.36393" stroke='blue' stroke-width='0.1' tags='slant'/>
    <line x1="8.5" y1="20.13206" x2="17.38899" y2="15.0" stroke='blue' stroke-width='0.07' stroke-dasharray='2, 2' tags='connective'/>
    <line x1="8.5" y1="25.26412" x2="26.27798" y2="15.0" stroke='blue' stroke-width='0.07' stroke-dasharray='2, 2' tags='connective'/>
    <line x1="8.5" y1="30.39618" x2="35.16697" y2="15.0" stroke='blue' stroke-width='0.07' stroke-dasharray='2, 2' tags='connective'/>
    <line x1="8.5" y1="35.52824" x2="44.05596" y2="15.0" stroke='blue' stroke-width='0.07' stroke-dasharray='2, 2' tags='connective'/>
    <line x1="8.5" y1="40.66031" x2="52.94495" y2="15.0" stroke='blue' stroke-width='0.07' stroke-dasharray='2, 2' tags='connective'/>
    <line x1="8.5" y1="45.79237" x2="61.83394" y2="15.0" stroke='blue' stroke-width='0.07' stroke-dasharray='2, 2' tags='connective'/>
    <line x1="8.5" y1="50.92443" x2="70.72293" y2="15.0" stroke='blue' stroke-width='0.07' stroke-dasharray='2, 2' tags='connective'/>
    <line x1="8.5" y1="56.05649" x2="79.61192" y2="15.0" stroke='blue' stroke-width='0.07' stroke-dasharray='2, 2' tags='connective'/>
    <line x1="8.5" y1="61.18855" x2="88.50091" y2="15.0" stroke='blue' stroke-width='0.07' stroke-dasharray='2, 2' tags='connective'/>
    <line x1="8.5" y1="66.32061" x2="97.3899" y2="15.0" stroke='blue' stroke-width='0.07' stroke-dasharray='2, 2' tags='connective'/>
    <line x1="8.5" y1="71.45267" x2="106.2789" y2="15.0" stroke='blue' stroke-width='0.07' stroke-dasharray='2, 2' tags='connective'/>
    <line x1="8.5" y1="76.58473" x2="115.16789" y2="15.0" stroke='blue' stroke-width='0.07' stroke-dasharray='2, 2' tags='connective'/>
    <line x1="8.5" y1="81.71679" x2="124.05688" y2="15.0" stroke='blue' stroke-width='0.07' stroke-dasharray='2, 2' tags='connective'/>
    <line x1="8.5" y1="86.84885" x2="132.94587" y2="15.0" stroke='blue' stroke-width='0.07' stroke-dasharray='2, 2' tags='connective'/>
    <line x1="8.5" y1="91.98092" x2="141.83486" y2="15.0" stroke='blue' stroke-width='0.07' stroke-dasharray='2, 2' tags='connective'/>
    <line x1="8.5" y1="97.11298" x2="150.72385" y2="15.0" stroke='blue' stroke-width='0.07' stroke-dasharray='2, 2' tags='connective'/>
    <line x1="8.5" y1="102.24504" x2="159.61284" y2="15.0" stroke='blue' stroke-width='0.07' stroke-dasharray='2, 2' tags='connective'/>
    <line x1="8.5" y1="107.3771" x2="168.50183" y2="15.0" stroke='blue' stroke-width='0.07' stroke-dasharray='2, 2' tags='connective'/>
    <line x1="8.5" y1="112.50916" x2="177.39082" y2="15.0" stroke='blue' stroke-width='0.07' stroke-dasharray='2, 2' tags='connective'/>
    <line x1="8.5" y1="117.64122" x2="186.27981" y2="15.0" stroke='blue' stroke-width='0.07' stroke-dasharray='2, 2' tags='connective'/>
    <line x1="8.5" y1="122.77328" x2="195.1688" y2="15.0" stroke='blue' stroke-width='0.07' stroke-dasharray='2, 2' tags='connective'/>
    <line x1="8.5" y1="127.90534" x2="204.05779" y2="15.0" stroke='blue' stroke-width='0.07' stroke-dasharray='2, 2' tags='connective'/>
    <line x1="8.5" y1="133.0374" x2="212.94678" y2="15.0" stroke='blue' stroke-width='0.07' stroke-dasharray='2, 2' tags='connective'/>
    <line x1="8.5" y1="138.16947" x2="221.83577" y2="15.0" stroke='blue' stroke-width='0.07' stroke-dasharray='2, 2' tags='connective'/>
    <line x1="8.5" y1="143.30153" x2="230.72476" y2="15.0" stroke='blue' stroke-width='0.07' stroke-dasharray='2, 2' tags='connective'/>
    <line x1="8.5" y1="148.43359" x2="239.61375" y2="15.0" stroke='blue' stroke-width='0.07' stroke-dasharray='2, 2' tags='connective'/>
    <line x1="8.5" y1="153.56565" x2="248.50274" y2="15.0" stroke='blue' stroke-width='0.07' stroke-dasharray='2, 2' tags='connective'/>
    <line x1="8.5" y1="158.69771" x2="257.39173" y2="15.0" stroke='blue' stroke-width='0.07' stroke-dasharray='2, 2' tags='connective'/>
    <line x1="8.5" y1="163.82977" x2="266.28072" y2="15.0" stroke='blue' stroke-width='0.07' stroke-dasharray='2, 2' tags='connective'/>
    <line x1="8.5" y1="168.96183" x2="275.16971" y2="15.0" stroke='blue' stroke-width='0.07' stroke-dasharray='2, 2' tags='connective'/>
    <line x1="8.5" y1="174.09389" x2="284.05871" y2="15.0" stroke='blue' stroke-width='0.07' stroke-dasharray='2, 2' tags='connective'/>
    <line x1="8.5" y1="179.22595" x2="288.5" y2="17.56788" stroke='blue' stroke-width='0.07' stroke-dasharray='2, 2' tags='connective'/>
    <line x1="8.5" y1="184.35801" x2="288.5" y2="22.69994" stroke='blue' stroke-width='0.07' stroke-dasharray='2, 2' tags='connective'/>
    <line x1="8.5" y1="189.49008" x2="288.5" y2="27.832" stroke='blue' stroke-width='0.07' stroke-dasharray='2, 2' tags='connective'/>
    <line x1="8.5" y1="194.62214" x2="288.5" y2="32.96406" stroke='blue' stroke-width='0.07' stroke-dasharray='2, 2' tags='connective'/>
    <line x1="16.73451" y1="195.0" x2="288.5" y2="38.09612" stroke='blue' stroke-width='0.07' stroke-dasharray='2, 2' tags='connective'/>
    <line x1="25.6235" y1="195.0" x2="288.5" y2="43.22818" stroke='blue' stroke-width='0.07' stroke-dasharray='2, 2' tags='connective'/>
    <line x1="34.51249" y1="195.0" x2="288.5" y2="48.36024" stroke='blue' stroke-width='0.07' stroke-dasharray='2, 2' tags='connective'/>
    <line x1="43.40148" y1="195.0" x2="288.5" y2="53.49231" stroke='blue' stroke-width='0.07' stroke-dasharray='2, 2' tags='connective'/>
    <line x1="52.29047" y1="195.0" x2="288.5" y2="58.62437" stroke='blue' stroke-width='0.07' stroke-dasharray='2, 2' tags='connective'/>
    <line x1="61.17946" y1="195.0" x2="288.5" y2="63.75643" stroke='blue' stroke-width='0.07' stroke-dasharray='2, 2' tags='connective'/>
    <line x1="70.06846" y1="195.0" x2="288.5" y2="68.88849" stroke='blue' stroke-width='0.07' stroke-dasharray='2, 2' tags='connective'/>
    <line x1="78.95745" y1="195.0" x2="288.5" y2="74.02055" stroke='blue' stroke-width='0.07' stroke-dasharray='2, 2' tags='connective'/>
    <line x1="87.84644" y1="195.0" x2="288.5" y2="79.15261" stroke='blue' stroke-width='0.07' stroke-dasharray='2, 2' tags='connective'/>
    <line x1="96.73543" y1="195.0" x2="288.5" y2="84.28467" stroke='blue' stroke-width='0.07' stroke-dasharray='2, 2' tags='connective'/>
    <line x1="105.62442" y1="195.0" x2="288.5" y2="89.41673" stroke='blue' stroke-width='0.07' stroke-dasharray='2, 2' tags='connective'/>
    <line x1="114.51341" y1="195.0" x2="288.5" y2="94.54879" stroke='blue' stroke-width='0.07' stroke-dasharray='2, 2' tags='connective'/>
    <line x1="123.4024" y1="195.0" x2="288.5" y2="99.68086" stroke='blue' stroke-width='0.07' stroke-dasharray='2, 2' tags='connective'/>
    <line x1="132.29139" y1="195.0" x2="288.5" y2="104.81292" stroke='blue' stroke-width='0.07' stroke-dasharray='2, 2' tags='connective'/>
    <line x1="141.18038" y1="195.0" x2="288.5" y2="109.94498" stroke='blue' stroke-width='0.07' stroke-dasharray='2, 2' tags='connective'/>
    <line x1="150.06937" y1="195.0" x2="288.5" y2="115.07704" stroke='blue' stroke-width='0.07' stroke-dasharray='2, 2' tags='connective'/>
    <line x1="158.95836" y1="195.0" x2="288.5" y2="120.2091" stroke='blue' stroke-width='0.07' stroke-dasharray='2, 2' tags='connective'/>
    <line x1="167.84735" y1="195.0" x2="288.5" y2="125.34116" stroke='blue' stroke-width='0.07' stroke-dasharray='2, 2' tags='connective'/>
    <line x1="176.73634" y1="195.0" x2="288.5" y2="130.47322" stroke='blue' stroke-width='0.07' stroke-dasharray='2, 2' tags='connective'/>
    <line x1="185.62533" y1="195.0" x2="288.5" y2="135.60528" stroke='blue' stroke-width='0.07' stroke-dasharray='2, 2' tags='connective'/>
    <line x1="194.51432" y1="195.0" x2="288.5" y2="140.73734" stroke='blue' stroke-width='0.07' stroke-dasharray='2, 2' tags='connective'/>
    <line x1="203.40331" y1="195.0" x2="288.5" y2="145.8694" stroke='blue' stroke-width='0.07' stroke-dasharray='2, 2' tags='connective'/>
    <line x1="212.2923" y1="195.0" x2="288.5" y2="151.00147" stroke='blue' stroke-width='0.07' stroke-dasharray='2, 2' tags='connective'/>
    <line x1="221.18129" y1="195.0" x2="288.5" y2="156.13353" stroke='blue' stroke-width='0.07' stroke-dasharray='2, 2' tags='connective'/>
    <line x1="230.07028" y1="195.0" x2="288.5" y2="161.26559" stroke='blue' stroke-width='0.07' stroke-dasharray='2, 2' tags='connective'/>
    <line x1="238.95927" y1="195.0" x2="288.5" y2="166.39765" stroke='blue' stroke-width='0.07' stroke-dasharray='2, 2' tags='connective'/>
    <line x1="247.84827" y1="195.0" x2="288.5" y2="171.52971" stroke='blue' stroke-width='0.07' stroke-dasharray='2, 2' tags='connective'/>
    <line x1="256.73726" y1="195.0" x2="288.5" y2="176.66177" stroke='blue' stroke-width='0.07' stroke-dasharray='2, 2' tags='connective'/>
    <line x1="265.62625" y1="195.0" x2="288.5" y2="181.79383" stroke='blue' stroke-width='0.07' stroke-dasharray='2, 2' tags='connective'/>
    <line x1="274.51524" y1="195.0" x2="288.5" y2="186.92589" stroke='blue' stroke-width='0.07' stroke-dasharray='2, 2' tags='connective'/>
    <line x1="283.40423" y1="195.0" x2="288.5" y2="192.05795" stroke='blue' stroke-width='0.07' stroke-dasharray='2, 2' tags='connective'/>
  </g>
</svg>
