<?xml version="1.0" standalone="no"?>
<!DOCTYPE svg PUBLIC "-//W3C//DTD SVG 1.1//EN" "http://www.w3.org/Graphics/SVG/1.1/DTD/svg11.dtd">
<svg xmlns="http://www.w3.org/2000/svg" width="210.0mm" height="297.0mm" viewBox="0 0 210.0 297.0" >

  <g id="sheet">
    <line x1="17.5" y1="26.0" x2="192.5" y2="26.0" stroke='blue' stroke-width='0.2' tags='ascender2'/>
    <line x1="17.5" y1="33.0" x2="192.5" y2="33.0" stroke='grey' stroke-width='0.1' stroke-dasharray='2, 2' tags='ascender1'/>
    <line x1="17.5" y1="40.0" x2="192.5" y2="40.0" stroke='grey' stroke-width='0.1' tags='waist'/>
    <line x1="17.5" y1="47.0" x2="192.5" y2="47.0" stroke='red' stroke-width='0.1' tags='base'/>
    <line x1="17.5" y1="54.0" x2="192.5" y2="54.0" stroke='grey' stroke-width='0.1' stroke-dasharray='2, 2' tags='descender1'/>
    <line x1="17.5" y1="61.0" x2="192.5" y2="61.0" stroke='blue' stroke-width='0.2' tags='descender2'/>
    <line x1="17.5" y1="68.0" x2="192.5" y2="68.0" stroke='grey' stroke-width='0.1' stroke-dasharray='2, 2' tags='ascender1'/>
    <line x1="17.5" y1="75.0" x2="192.5" y2="75.0" stroke='grey' stroke-width='0.1' tags='waist'/>
    <line x1="17.5" y1="82.0" x2="192.5" y2="82.0" stroke='red' stroke-width='0.1' tags='base'/>
    <line x1="17.5" y1="89.0" x2="192.5" y2="89.0" stroke='grey' stroke-width='0.1' stroke-dasharray='2, 2' tags='descender1'/>
    <line x1="17.5" y1="96.0" x2="192.5" y2="96.0" stroke='blue' stroke-width='0.2' tags='descender2'/>
    <line x1="17.5" y1="103.0" x2="192.5" y2="103.0" stroke='grey' stroke-width='0.1' stroke-dasharray='2, 2' tags='ascender1'/>
    <line x1="17.5" y1="110.0" x2="192.5" y2="110.0" stroke='grey' stroke-width='0.1' tags='waist'/>
    <line x1="17.5" y1="117.0" x2="192.5" y2="117.0" stroke='red' stroke-width='0.1' tags='base'/>
    <line x1="17.5" y1="124.0" x2="192.5" y2="124.0" stroke='grey' stroke-width='0.1' stroke-dasharray='2, 2' tags='descender1'/>
    <line x1="17.5" y1="131.0" x2="192.5" y2="131.0" stroke='blue' stroke-width='0.2' tags='descender2'/>
    <line x1="17.5" y1="138.0" x2="192.5" y2="138.0" stroke='grey' stroke-width='0.1' stroke-dasharray='2, 2' tags='ascender1'/>
    <line x1="17.5" y1="145.0" x2="192.5" y2="145.0" stroke='grey' stroke-width='0.1' tags='waist'/>
    <line x1="17.5" y1="152.0" x2="192.5" y2="152.0" stroke='red' stroke-width='0.1' tags='base'/>
    <line x1="17.5" y1="159.0" x2="192.5" y2="159.0" stroke='grey' stroke-width='0.1' stroke-dasharray='2, 2' tags='descender1'/>
    <line x1="17.5" y1="166.0" x2="192.5" y2="166.0" stroke='blue' stroke-width='0.2' tags='descender2'/>
    <line x1="17.5" y1="173.0" x2="192.5" y2="173.0" stroke='grey' stroke-width='0.1' stroke-dasharray='2, 2' tags='ascender1'/>
    <line x1="17.5" y1="180.0" x2="192.5" y2="180.0" stroke='grey' stroke-width='0.1' tags='waist'/>
    <line x1="17.5" y1="187.0" x2="192.5" y2="187.0" stroke='red' stroke-width='0.1' tags='base'/>
    <line x1="17.5" y1="194.0" x2="192.5" y2="194.0" stroke='grey' stroke-width='0.1' stroke-dasharray='2, 2' tags='descender1'/>
    <line x1="17.5" y1="201.0" x2="192.5" y2="201.0" stroke='blue' stroke-width='0.2' tags='descender2'/>
    <line x1="17.5" y1="208.0" x2="192.5" y2="208.0" stroke='grey' stroke-width='0.1' stroke-dasharray='2, 2' tags='ascender1'/>
    <line x1="17.5" y1="215.0" x2="192.5" y2="215.0" stroke='grey' stroke-width='0.1' tags='waist'/>
    <line x1="17.5" y1="222.0" x2="192.5" y2="222.0" stroke='red' stroke-width='0.1' tags='base'/>
    <line x1="17.5" y1="229.0" x2="192.5" y2="229.0" stroke='grey' stroke-width='0.1' stroke-dasharray='2, 2' tags='descender1'/>
    <line x1="17.5" y1="236.0" x2="192.5" y2="236.0" stroke='blue' stroke-width='0.2' tags='descender2'/>
    <line x1="17.5" y1="243.0" x2="192.5" y2="243.0" stroke='grey' stroke-width='0.1' stroke-dasharray='2, 2' tags='ascender1'/>
    <line x1="17.5" y1="250.0" x2="192.5" y2="250.0" stroke='grey' stroke-width='0.1' tags='waist'/>
    <line x1="17.5" y1="257.0" x2="192.5" y2="257.0" stroke='red' stroke-width='0.1' tags='base'/>
    <line x1="17.5" y1="264.0" x2="192.5" y2="264.0" stroke='grey' stroke-width='0.1' stroke-dasharray='2, 2' tags='descender1'/>
    <line x1="17.5" y1="271.0" x2="192.5" y2="271.0" stroke='blue' stroke-width='0.2' tags='descender2'/>
    <line x1="17.5" y1="26.0" x2="17.5" y2="26.0" stroke='blue' stroke-width='0.1' tags='slant'/>
    <line x1="17.5" y1="36.90379" x2="26.01898" y2="26.0" stroke='blue' stroke-width='0.1' tags='slant'/>
    <line x1="17.5" y1="47.80758" x2="34.53795" y2="26.0" stroke='blue' stroke-width='0.1' tags='slant'/>
    <line x1="17.5" y1="58.71137" x2="43.05693" y2="26.0" stroke='blue' stroke-width='0.1' tags='slant'/>
    <line x1="17.5" y1="69.61516" x2="51.5759" y2="26.0" stroke='blue' stroke-width='0.1' tags='slant'/>
    <line x1="17.5" y1="80.51896" x2="60.09488" y2="26.0" stroke='blue' stroke-width='0.1' tags='slant'/>
    <line x1="17.5" y1="91.42275" x2="68.61385" y2="26.0" stroke='blue' stroke-width='0.1' tags='slant'/>
    <line x1="17.5" y1="102.32654" x2="77.13283" y2="26.0" stroke='blue' stroke-width='0.1' tags='slant'/>
    <line x1="17.5" y1="113.23033" x2="85.6518" y2="26.0" stroke='blue' stroke-width='0.1' tags='slant'/>
    <line x1="17.5" y1="124.13412" x2="94.17078" y2="26.0" stroke='blue' stroke-width='0.1' tags='slant'/>
    <line x1="17.5" y1="135.03791" x2="102.68975" y2="26.0" stroke='blue' stroke-width='0.1' tags='slant'/>
    <line x1="17.5" y1="145.9417" x2="111.20873" y2="26.0" stroke='blue' stroke-width='0.1' tags='slant'/>
    <line x1="17.5" y1="156.84549" x2="119.7277" y2="26.0" stroke='blue' stroke-width='0.1' tags='slant'/>
    <line x1="17.5" y1="167.74928" x2="128.24668" y2="26.0" stroke='blue' stroke-width='0.1' tags='slant'/>
    <line x1="17.5" y1="178.65307" x2="136.76565" y2="26.0" stroke='blue' stroke-width='0.1' tags='slant'/>
    <line x1="17.5" y1="189.55687" x2="145.28463" y2="26.0" stroke='blue' stroke-width='0.1' tags='slant'/>
    <line x1="17.5" y1="200.46066" x2="153.8036" y2="26.0" stroke='blue' stroke-width='0.1' tags='slant'/>
    <line x1="17.5" y1="211.36445" x2="162.32258" y2="26.0" stroke='blue' stroke-width='0.1' tags='slant'/>
    <line x1="17.5" y1="222.26824" x2="170.84155" y2="26.0" stroke='blue' stroke-width='0.1' tags='slant'/>
    <line x1="17.5" y1="233.17203" x2="179.36053" y2="26.0" stroke='blue' stroke-width='0.1' tags='slant'/>
    <line x1="17.5" y1="244.07582" x2="187.8795" y2="26.0" stroke='blue' stroke-width='0.1' tags='slant'/>
    <line x1="17.5" y1="254.97961" x2="192.5" y2="30.98983" stroke='blue' stroke-width='0.1' tags='slant'/>
    <line x1="17.5" y1="265.8834" x2="192.5" y2="41.89362" stroke='blue' stroke-width='0.1' tags='slant'/>
    <line x1="22.02145" y1="271.0" x2="192.5" y2="52.79741" stroke='blue' stroke-width='0.1' tags='slant'/>
    <line x1="30.54043" y1="271.0" x2="192.5" y2="63.7012" stroke='blue' stroke-width='0.1' tags='slant'/>
    <line x1="39.0594" y1="271.0" x2="192.5" y2="74.60499" stroke='blue' stroke-width='0.1' tags='slant'/>
    <line x1="47.57838" y1="271.0" x2="192.5" y2="85.50878" stroke='blue' stroke-width='0.1' tags='slant'/>
    <line x1="56.09735" y1="271.0" x2="192.5" y2="96.41257" stroke='blue' stroke-width='0.1' tags='slant'/>
    <line x1="64.61633" y1="271.0" x2="192.5" y2="107.31636" stroke='blue' stroke-width='0.1' tags='slant'/>
    <line x1="73.1353" y1="271.0" x2="192.5" y2="118.22015" stroke='blue' stroke-width='0.1' tags='slant'/>
    <line x1="81.65428" y1="271.0" x2="192.5" y2="129.12395" stroke='blue' stroke-width='0.1' tags='slant'/>
    <line x1="90.17325" y1="271.0" x2="192.5" y2="140.02774" stroke='blue' stroke-width='0.1' tags='slant'/>
    <line x1="98.69223" y1="271.0" x2="192.5" y2="150.93153" stroke='blue' stroke-width='0.1' tags='slant'/>
    <line x1="107.2112" y1="271.0" x2="192.5" y2="161.83532" stroke='blue' stroke-width='0.1' tags='slant'/>
    <line x1="115.73018" y1="271.0" x2="192.5" y2="172.73911" stroke='blue' stroke-width='0.1' tags='slant'/>
    <line x1="124.24915" y1="271.0" x2="192.5" y2="183.6429" stroke='blue' stroke-width='0.1' tags='slant'/>
    <line x1="132.76813" y1="271.0" x2="192.5" y2="194.54669" stroke='blue' stroke-width='0.1' tags='slant'/>
    <line x1="141.2871" y1="271.0" x2="192.5" y2="205.45048" stroke='blue' stroke-width='0.1' tags='slant'/>
    <line x1="149.80608" y1="271.0" x2="192.5" y2="216.35427" stroke='blue' stroke-width='0.1' tags='slant'/>
    <line x1="158.32505" y1="271.0" x2="192.5" y2="227.25806" stroke='blue' stroke-width='0.1' tags='slant'/>
    <line x1="166.84403" y1="271.0" x2="192.5" y2="238.16186" stroke='blue' stroke-width='0.1' tags='slant'/>
    <line x1="175.36301" y1="271.0" x2="192.5" y2="249.06565" stroke='blue' stroke-width='0.1' tags='slant'/>
    <line x1="183.88198" y1="271.0" x2="192.5" y2="259.96944" stroke='blue' stroke-width='0.1' tags='slant'/>
    <line x1="192.40096" y1="271.0" x2="192.5" y2="270.87323" stroke='blue' stroke-width='0.1' tags='slant'/>
    <line x1="17.5" y1="34.04518" x2="31.43466" y2="26.0" stroke='blue' stroke-width='0.07' stroke-dasharray='2, 2' tags='connective'/>
    <line x1="17.5" y1="42.09036" x2="45.36932" y2="26.0" stroke='blue' stroke-width='0.07' stroke-dasharray='2, 2' tags='connective'/>
    <line x1="17.5" y1="50.13554" x2="59.30398" y2="26.0" stroke='blue' stroke-width='0.07' stroke-dasharray='2, 2' tags='connective'/>
    <line x1="17.5" y1="58.18072" x2="73.23865" y2="26.0" stroke='blue' stroke-width='0.07' stroke-dasharray='2, 2' tags='connective'/>
    <line x1="17.5" y1="66.2259" x2="87.17331" y2="26.0" stroke='blue' stroke-width='0.07' stroke-dasharray='2, 2' tags='connective'/>
    <line x1="17.5" y1="74.27108" x2="101.10797" y2="26.0" stroke='blue' stroke-width='0.07' stroke-dasharray='2, 2' tags='connective'/>
    <line x1="17.5" y1="82.31626" x2="115.04263" y2="26.0" stroke='blue' stroke-width='0.07' stroke-dasharray='2, 2' tags='connective'/>
    <line x1="17.5" y1="90.36144" x2="128.97729" y2="26.0" stroke='blue' stroke-width='0.07' stroke-dasharray='2, 2' tags='connective'/>
    <line x1="17.5" y1="98.40662" x2="142.91195" y2="26.0" stroke='blue' stroke-width='0.07' stroke-dasharray='2, 2' tags='connective'/>
    <line x1="17.5" y1="106.4518" x2="156.84661" y2="26.0" stroke='blue' stroke-width='0.07' stroke-dasharray='2, 2' tags='connective'/>
    <line x1="17.5" y1="114.49699" x2="170.78128" y2="26.0" stroke='blue' stroke-width='0.07' stroke-dasharray='2, 2' tags='connective'/>
    <line x1="17.5" y1="122.54217" x2="184.71594" y2="26.0" stroke='blue' stroke-width='0.07' stroke-dasharray='2, 2' tags='connective'/>
    <line x1="17.5" y1="130.58735" x2="192.5" y2="29.55105" stroke='blue' stroke-width='0.07' stroke-dasharray='2, 2' tags='connective'/>
    <line x1="17.5" y1="138.63253" x2="192.5" y2="37.59623" stroke='blue' stroke-width='0.07' stroke-dasharray='2, 2' tags='connective'/>
    <line x1="17.5" y1="146.67771" x2="192.5" y2="45.64141" stroke='blue' stroke-width='0.07' stroke-dasharray='2, 2' tags='connective'/>
    <line x1="17.5" y1="154.72289" x2="192.5" y2="53.68659" stroke='blue' stroke-width='0.07' stroke-dasharray='2, 2' tags='connective'/>
    <line x1="17.5" y1="162.76807" x2="192.5" y2="61.73177" stroke='blue' stroke-width='0.07' stroke-dasharray='2, 2' tags='connective'/>
    <line x1="17.5" y1="170.81325" x2="192.5" y2="69.77695" stroke='blue' stroke-width='0.07' stroke-dasharray='2, 2' tags='connective'/>
    <line x1="17.5" y1="178.85843" x2="192.5" y2="77.82213" stroke='blue' stroke-width='0.07' stroke-dasharray='2, 2' tags='connective'/>
    <line x1="17.5" y1="186.90361" x2="192.5" y2="85.86731" stroke='blue' stroke-width='0.07' stroke-dasharray='2, 2' tags='connective'/>
    <line x1="17.5" y1="194.94879" x2="192.5" y2="93.91249" stroke='blue' stroke-width='0.07' stroke-dasharray='2, 2' tags='connective'/>
    <line x1="17.5" y1="202.99397" x2="192.5" y2="101.95767" stroke='blue' stroke-width='0.07' stroke-dasharray='2, 2' tags='connective'/>
    <line x1="17.5" y1="211.03915" x2="192.5" y2="110.00285" stroke='blue' stroke-width='0.07' stroke-dasharray='2, 2' tags='connective'/>
    <line x1="17.5" y1="219.08433" x2="192.5" y2="118.04803" stroke='blue' stroke-width='0.07' stroke-dasharray='2, 2' tags='connective'/>
    <line x1="17.5" y1="227.12951" x2="192.5" y2="126.09322" stroke='blue' stroke-width='0.07' stroke-dasharray='2, 2' tags='connective'/>
    <line x1="17.5" y1="235.17469" x2="192.5" y2="134.1384" stroke='blue' stroke-width='0.07' stroke-dasharray='2, 2' tags='connective'/>
    <line x1="17.5" y1="243.21987" x2="192.5" y2="142.18358" stroke='blue' stroke-width='0.07' stroke-dasharray='2, 2' tags='connective'/>
    <line x1="17.5" y1="251.26505" x2="192.5" y2="150.22876" stroke='blue' stroke-width='0.07' stroke-dasharray='2, 2' tags='connective'/>
    <line x1="17.5" y1="259.31023" x2="192.5" y2="158.27394" stroke='blue' stroke-width='0.07' stroke-dasharray='2, 2' tags='connective'/>
    <line x1="17.5" y1="267.35541" x2="192.5" y2="166.31912" stroke='blue' stroke-width='0.07' stroke-dasharray='2, 2' tags='connective'/>
    <line x1="25.12205" y1="271.0" x2="192.5" y2="174.3643" stroke='blue' stroke-width='0.07' stroke-dasharray='2, 2' tags='connective'/>
    <line x1="39.05672" y1="271.0" x2="192.5" y2="182.40948" stroke='blue' stroke-width='0.07' stroke-dasharray='2, 2' tags='connective'/>
    <line x1="52.99138" y1="271.0" x2="192.5" y2="190.45466" stroke='blue' stroke-width='0.07' stroke-dasharray='2, 2' tags='connective'/>
    <line x1="66.92604" y1="271.0" x2="192.5" y2="198.49984" stroke='blue' stroke-width='0.07' stroke-dasharray='2, 2' tags='connective'/>
    <line x1="80.8607" y1="271.0" x2="192.5" y2="206.54502" stroke='blue' stroke-width='0.07' stroke-dasharray='2, 2' tags='connective'/>
    <line x1="94.79536" y1="271.0" x2="192.5" y2="214.5902" stroke='blue' stroke-width='0.07' stroke-dasharray='2, 2' tags='connective'/>
    <line x1="108.73002" y1="271.0" x2="192.5" y2="222.63538" stroke='blue' stroke-width='0.07' stroke-dasharray='2, 2' tags='connective'/>
    <line x1="122.66468" y1="271.0" x2="192.5" y2="230.68056" stroke='blue' stroke-width='0.07' stroke-dasharray='2, 2' tags='connective'/>
    <line x1="136.59935" y1="271.0" x2="192.5" y2="238.72574" stroke='blue' stroke-width='0.07' stroke-dasharray='2, 2' tags='connective'/>
    <line x1="150.53401" y1="271.0" x2="192.5" y2="246.77092" stroke='blue' stroke-width='0.07' stroke-dasharray='2, 2' tags='connective'/>
    <line x1="164.46867" y1="271.0" x2="192.5" y2="254.8161" stroke='blue' stroke-width='0.07' stroke-dasharray='2, 2' tags='connective'/>
    <line x1="178.40333" y1="271.0" x2="192.5" y2="262.86128" stroke='blue' stroke-width='0.07' stroke-dasharray='2, 2' tags='connective'/>
    <line x1="192.33799" y1="271.0" x2="192.5" y2="270.90646" stroke='blue' stroke-width='0.07' stroke-dasharray='2, 2' tags='connective'/>
  </g>
</svg>
