<?xml version="1.0" standalone="no"?>
<!DOCTYPE svg PUBLIC "-//W3C//DTD SVG 1.1//EN" "http://www.w3.org/Graphics/SVG/1.1/DTD/svg11.dtd">
<svg xmlns="http://www.w3.org/2000/svg" width="210.0mm" height="297.0mm" viewBox="0 0 210.0 297.0" shape-rendering="geometricPrecision" >
  <style>
    svg       { stroke: #ed008c; stroke-width: 0.04; }
    .altcolor { stroke: blue; }
    .thin     { stroke-width: 0.02; }
    .thick    { stroke-width: 0.08; }
    .dashed   { stroke-dasharray: 2 2; }
  </style>
  <g id="sheet">
    <line x1="17.5" y1="11.0" x2="192.5" y2="11.0" class='ascender2 thick'/>
    <line x1="17.5" y1="16.0" x2="192.5" y2="16.0" class='ascender1 dashed'/>
    <line x1="17.5" y1="21.0" x2="192.5" y2="21.0" class='waist altcolor'/>
    <line x1="17.5" y1="26.0" x2="192.5" y2="26.0" class='base'/>
    <line x1="17.5" y1="31.0" x2="192.5" y2="31.0" class='descender1 dashed'/>
    <line x1="17.5" y1="36.0" x2="192.5" y2="36.0" class='descender2 thick'/>
    <line x1="17.5" y1="41.0" x2="192.5" y2="41.0" class='ascender1 dashed'/>
    <line x1="17.5" y1="46.0" x2="192.5" y2="46.0" class='waist altcolor'/>
    <line x1="17.5" y1="51.0" x2="192.5" y2="51.0" class='base'/>
    <line x1="17.5" y1="56.0" x2="192.5" y2="56.0" class='descender1 dashed'/>
    <line x1="17.5" y1="61.0" x2="192.5" y2="61.0" class='descender2 thick'/>
    <line x1="17.5" y1="66.0" x2="192.5" y2="66.0" class='ascender1 dashed'/>
    <line x1="17.5" y1="71.0" x2="192.5" y2="71.0" class='waist altcolor'/>
    <line x1="17.5" y1="76.0" x2="192.5" y2="76.0" class='base'/>
    <line x1="17.5" y1="81.0" x2="192.5" y2="81.0" class='descender1 dashed'/>
    <line x1="17.5" y1="86.0" x2="192.5" y2="86.0" class='descender2 thick'/>
    <line x1="17.5" y1="91.0" x2="192.5" y2="91.0" class='ascender1 dashed'/>
    <line x1="17.5" y1="96.0" x2="192.5" y2="96.0" class='waist altcolor'/>
    <line x1="17.5" y1="101.0" x2="192.5" y2="101.0" class='base'/>
    <line x1="17.5" y1="106.0" x2="192.5" y2="106.0" class='descender1 dashed'/>
    <line x1="17.5" y1="111.0" x2="192.5" y2="111.0" class='descender2 thick'/>
    <line x1="17.5" y1="116.0" x2="192.5" y2="116.0" class='ascender1 dashed'/>
    <line x1="17.5" y1="121.0" x2="192.5" y2="121.0" class='waist altcolor'/>
    <line x1="17.5" y1="126.0" x2="192.5" y2="126.0" class='base'/>
    <line x1="17.5" y1="131.0" x2="192.5" y2="131.0" class='descender1 dashed'/>
    <line x1="17.5" y1="136.0" x2="192.5" y2="136.0" class='descender2 thick'/>
    <line x1="17.5" y1="141.0" x2="192.5" y2="141.0" class='ascender1 dashed'/>
    <line x1="17.5" y1="146.0" x2="192.5" y2="146.0" class='waist altcolor'/>
    <line x1="17.5" y1="151.0" x2="192.5" y2="151.0" class='base'/>
    <line x1="17.5" y1="156.0" x2="192.5" y2="156.0" class='descender1 dashed'/>
    <line x1="17.5" y1="161.0" x2="192.5" y2="161.0" class='descender2 thick'/>
    <line x1="17.5" y1="166.0" x2="192.5" y2="166.0" class='ascender1 dashed'/>
    <line x1="17.5" y1="171.0" x2="192.5" y2="171.0" class='waist altcolor'/>
    <line x1="17.5" y1="176.0" x2="192.5" y2="176.0" class='base'/>
    <line x1="17.5" y1="181.0" x2="192.5" y2="181.0" class='descender1 dashed'/>
    <line x1="17.5" y1="186.0" x2="192.5" y2="186.0" class='descender2 thick'/>
    <line x1="17.5" y1="191.0" x2="192.5" y2="191.0" class='ascender1 dashed'/>
    <line x1="17.5" y1="196.0" x2="192.5" y2="196.0" class='waist altcolor'/>
    <line x1="17.5" y1="201.0" x2="192.5" y2="201.0" class='base'/>
    <line x1="17.5" y1="206.0" x2="192.5" y2="206.0" class='descender1 dashed'/>
    <line x1="17.5" y1="211.0" x2="192.5" y2="211.0" class='descender2 thick'/>
    <line x1="17.5" y1="216.0" x2="192.5" y2="216.0" class='ascender1 dashed'/>
    <line x1="17.5" y1="221.0" x2="192.5" y2="221.0" class='waist altcolor'/>
    <line x1="17.5" y1="226.0" x2="192.5" y2="226.0" class='base'/>
    <line x1="17.5" y1="231.0" x2="192.5" y2="231.0" class='descender1 dashed'/>
    <line x1="17.5" y1="236.0" x2="192.5" y2="236.0" class='descender2 thick'/>
    <line x1="17.5" y1="241.0" x2="192.5" y2="241.0" class='ascender1 dashed'/>
    <line x1="17.5" y1="246.0" x2="192.5" y2="246.0" class='waist altcolor'/>
    <line x1="17.5" y1="251.0" x2="192.5" y2="251.0" class='base'/>
    <line x1="17.5" y1="256.0" x2="192.5" y2="256.0" class='descender1 dashed'/>
    <line x1="17.5" y1="261.0" x2="192.5" y2="261.0" class='descender2 thick'/>
    <line x1="17.5" y1="266.0" x2="192.5" y2="266.0" class='ascender1 dashed'/>
    <line x1="17.5" y1="271.0" x2="192.5" y2="271.0" class='waist altcolor'/>
    <line x1="17.5" y1="276.0" x2="192.5" y2="276.0" class='base'/>
    <line x1="17.5" y1="281.0" x2="192.5" y2="281.0" class='descender1 dashed'/>
    <line x1="17.5" y1="286.0" x2="192.5" y2="286.0" class='descender2 thick'/>
    <line x1="17.5" y1="11.0" x2="17.5" y2="11.0" class='slant thin'/>
    <line x1="17.5" y1="18.65415" x2="23.48008" y2="11.0" class='slant thin'/>
    <line x1="17.5" y1="26.30831" x2="29.46016" y2="11.0" class='slant thin'/>
    <line x1="17.5" y1="33.96246" x2="35.44024" y2="11.0" class='slant thin'/>
    <line x1="17.5" y1="41.61662" x2="41.42032" y2="11.0" class='slant thin'/>
    <line x1="17.5" y1="49.27077" x2="47.4004" y2="11.0" class='slant thin'/>
    <line x1="17.5" y1="56.92492" x2="53.38048" y2="11.0" class='slant thin'/>
    <line x1="17.5" y1="64.57908" x2="59.36056" y2="11.0" class='slant thin'/>
    <line x1="17.5" y1="72.23323" x2="65.34064" y2="11.0" class='slant thin'/>
    <line x1="17.5" y1="79.88739" x2="71.32072" y2="11.0" class='slant thin'/>
    <line x1="17.5" y1="87.54154" x2="77.3008" y2="11.0" class='slant thin'/>
    <line x1="17.5" y1="95.19569" x2="83.28088" y2="11.0" class='slant thin'/>
    <line x1="17.5" y1="102.84985" x2="89.26097" y2="11.0" class='slant thin'/>
    <line x1="17.5" y1="110.504" x2="95.24105" y2="11.0" class='slant thin'/>
    <line x1="17.5" y1="118.15815" x2="101.22113" y2="11.0" class='slant thin'/>
    <line x1="17.5" y1="125.81231" x2="107.20121" y2="11.0" class='slant thin'/>
    <line x1="17.5" y1="133.46646" x2="113.18129" y2="11.0" class='slant thin'/>
    <line x1="17.5" y1="141.12062" x2="119.16137" y2="11.0" class='slant thin'/>
    <line x1="17.5" y1="148.77477" x2="125.14145" y2="11.0" class='slant thin'/>
    <line x1="17.5" y1="156.42892" x2="131.12153" y2="11.0" class='slant thin'/>
    <line x1="17.5" y1="164.08308" x2="137.10161" y2="11.0" class='slant thin'/>
    <line x1="17.5" y1="171.73723" x2="143.08169" y2="11.0" class='slant thin'/>
    <line x1="17.5" y1="179.39139" x2="149.06177" y2="11.0" class='slant thin'/>
    <line x1="17.5" y1="187.04554" x2="155.04185" y2="11.0" class='slant thin'/>
    <line x1="17.5" y1="194.69969" x2="161.02193" y2="11.0" class='slant thin'/>
    <line x1="17.5" y1="202.35385" x2="167.00201" y2="11.0" class='slant thin'/>
    <line x1="17.5" y1="210.008" x2="172.98209" y2="11.0" class='slant thin'/>
    <line x1="17.5" y1="217.66216" x2="178.96217" y2="11.0" class='slant thin'/>
    <line x1="17.5" y1="225.31631" x2="184.94225" y2="11.0" class='slant thin'/>
    <line x1="17.5" y1="232.97046" x2="190.92233" y2="11.0" class='slant thin'/>
    <line x1="17.5" y1="240.62462" x2="192.5" y2="16.63483" class='slant thin'/>
    <line x1="17.5" y1="248.27877" x2="192.5" y2="24.28899" class='slant thin'/>
    <line x1="17.5" y1="255.93293" x2="192.5" y2="31.94314" class='slant thin'/>
    <line x1="17.5" y1="263.58708" x2="192.5" y2="39.59729" class='slant thin'/>
    <line x1="17.5" y1="271.24123" x2="192.5" y2="47.25145" class='slant thin'/>
    <line x1="17.5" y1="278.89539" x2="192.5" y2="54.9056" class='slant thin'/>
    <line x1="17.92935" y1="286.0" x2="192.5" y2="62.55976" class='slant thin'/>
    <line x1="23.90943" y1="286.0" x2="192.5" y2="70.21391" class='slant thin'/>
    <line x1="29.88951" y1="286.0" x2="192.5" y2="77.86806" class='slant thin'/>
    <line x1="35.86959" y1="286.0" x2="192.5" y2="85.52222" class='slant thin'/>
    <line x1="41.84967" y1="286.0" x2="192.5" y2="93.17637" class='slant thin'/>
    <line x1="47.82975" y1="286.0" x2="192.5" y2="100.83052" class='slant thin'/>
    <line x1="53.80983" y1="286.0" x2="192.5" y2="108.48468" class='slant thin'/>
    <line x1="59.78991" y1="286.0" x2="192.5" y2="116.13883" class='slant thin'/>
    <line x1="65.76999" y1="286.0" x2="192.5" y2="123.79299" class='slant thin'/>
    <line x1="71.75007" y1="286.0" x2="192.5" y2="131.44714" class='slant thin'/>
    <line x1="77.73015" y1="286.0" x2="192.5" y2="139.10129" class='slant thin'/>
    <line x1="83.71023" y1="286.0" x2="192.5" y2="146.75545" class='slant thin'/>
    <line x1="89.69031" y1="286.0" x2="192.5" y2="154.4096" class='slant thin'/>
    <line x1="95.67039" y1="286.0" x2="192.5" y2="162.06376" class='slant thin'/>
    <line x1="101.65047" y1="286.0" x2="192.5" y2="169.71791" class='slant thin'/>
    <line x1="107.63055" y1="286.0" x2="192.5" y2="177.37206" class='slant thin'/>
    <line x1="113.61064" y1="286.0" x2="192.5" y2="185.02622" class='slant thin'/>
    <line x1="119.59072" y1="286.0" x2="192.5" y2="192.68037" class='slant thin'/>
    <line x1="125.5708" y1="286.0" x2="192.5" y2="200.33453" class='slant thin'/>
    <line x1="131.55088" y1="286.0" x2="192.5" y2="207.98868" class='slant thin'/>
    <line x1="137.53096" y1="286.0" x2="192.5" y2="215.64283" class='slant thin'/>
    <line x1="143.51104" y1="286.0" x2="192.5" y2="223.29699" class='slant thin'/>
    <line x1="149.49112" y1="286.0" x2="192.5" y2="230.95114" class='slant thin'/>
    <line x1="155.4712" y1="286.0" x2="192.5" y2="238.60529" class='slant thin'/>
    <line x1="161.45128" y1="286.0" x2="192.5" y2="246.25945" class='slant thin'/>
    <line x1="167.43136" y1="286.0" x2="192.5" y2="253.9136" class='slant thin'/>
    <line x1="173.41144" y1="286.0" x2="192.5" y2="261.56776" class='slant thin'/>
    <line x1="179.39152" y1="286.0" x2="192.5" y2="269.22191" class='slant thin'/>
    <line x1="185.3716" y1="286.0" x2="192.5" y2="276.87606" class='slant thin'/>
    <line x1="191.35168" y1="286.0" x2="192.5" y2="284.53022" class='slant thin'/>
    <line x1="17.5" y1="16.76813" x2="27.4907" y2="11.0" class='connective thin dashed'/>
    <line x1="17.5" y1="22.53627" x2="37.4814" y2="11.0" class='connective thin dashed'/>
    <line x1="17.5" y1="28.3044" x2="47.4721" y2="11.0" class='connective thin dashed'/>
    <line x1="17.5" y1="34.07253" x2="57.4628" y2="11.0" class='connective thin dashed'/>
    <line x1="17.5" y1="39.84067" x2="67.4535" y2="11.0" class='connective thin dashed'/>
    <line x1="17.5" y1="45.6088" x2="77.4442" y2="11.0" class='connective thin dashed'/>
    <line x1="17.5" y1="51.37693" x2="87.4349" y2="11.0" class='connective thin dashed'/>
    <line x1="17.5" y1="57.14507" x2="97.4256" y2="11.0" class='connective thin dashed'/>
    <line x1="17.5" y1="62.9132" x2="107.4163" y2="11.0" class='connective thin dashed'/>
    <line x1="17.5" y1="68.68133" x2="117.407" y2="11.0" class='connective thin dashed'/>
    <line x1="17.5" y1="74.44947" x2="127.3977" y2="11.0" class='connective thin dashed'/>
    <line x1="17.5" y1="80.2176" x2="137.3884" y2="11.0" class='connective thin dashed'/>
    <line x1="17.5" y1="85.98574" x2="147.3791" y2="11.0" class='connective thin dashed'/>
    <line x1="17.5" y1="91.75387" x2="157.3698" y2="11.0" class='connective thin dashed'/>
    <line x1="17.5" y1="97.522" x2="167.3605" y2="11.0" class='connective thin dashed'/>
    <line x1="17.5" y1="103.29014" x2="177.3512" y2="11.0" class='connective thin dashed'/>
    <line x1="17.5" y1="109.05827" x2="187.3419" y2="11.0" class='connective thin dashed'/>
    <line x1="17.5" y1="114.8264" x2="192.5" y2="13.79011" class='connective thin dashed'/>
    <line x1="17.5" y1="120.59454" x2="192.5" y2="19.55824" class='connective thin dashed'/>
    <line x1="17.5" y1="126.36267" x2="192.5" y2="25.32637" class='connective thin dashed'/>
    <line x1="17.5" y1="132.1308" x2="192.5" y2="31.09451" class='connective thin dashed'/>
    <line x1="17.5" y1="137.89894" x2="192.5" y2="36.86264" class='connective thin dashed'/>
    <line x1="17.5" y1="143.66707" x2="192.5" y2="42.63077" class='connective thin dashed'/>
    <line x1="17.5" y1="149.4352" x2="192.5" y2="48.39891" class='connective thin dashed'/>
    <line x1="17.5" y1="155.20334" x2="192.5" y2="54.16704" class='connective thin dashed'/>
    <line x1="17.5" y1="160.97147" x2="192.5" y2="59.93517" class='connective thin dashed'/>
    <line x1="17.5" y1="166.7396" x2="192.5" y2="65.70331" class='connective thin dashed'/>
    <line x1="17.5" y1="172.50774" x2="192.5" y2="71.47144" class='connective thin dashed'/>
    <line x1="17.5" y1="178.27587" x2="192.5" y2="77.23957" class='connective thin dashed'/>
    <line x1="17.5" y1="184.044" x2="192.5" y2="83.00771" class='connective thin dashed'/>
    <line x1="17.5" y1="189.81214" x2="192.5" y2="88.77584" class='connective thin dashed'/>
    <line x1="17.5" y1="195.58027" x2="192.5" y2="94.54397" class='connective thin dashed'/>
    <line x1="17.5" y1="201.34841" x2="192.5" y2="100.31211" class='connective thin dashed'/>
    <line x1="17.5" y1="207.11654" x2="192.5" y2="106.08024" class='connective thin dashed'/>
    <line x1="17.5" y1="212.88467" x2="192.5" y2="111.84837" class='connective thin dashed'/>
    <line x1="17.5" y1="218.65281" x2="192.5" y2="117.61651" class='connective thin dashed'/>
    <line x1="17.5" y1="224.42094" x2="192.5" y2="123.38464" class='connective thin dashed'/>
    <line x1="17.5" y1="230.18907" x2="192.5" y2="129.15278" class='connective thin dashed'/>
    <line x1="17.5" y1="235.95721" x2="192.5" y2="134.92091" class='connective thin dashed'/>
    <line x1="17.5" y1="241.72534" x2="192.5" y2="140.68904" class='connective thin dashed'/>
    <line x1="17.5" y1="247.49347" x2="192.5" y2="146.45718" class='connective thin dashed'/>
    <line x1="17.5" y1="253.26161" x2="192.5" y2="152.22531" class='connective thin dashed'/>
    <line x1="17.5" y1="259.02974" x2="192.5" y2="157.99344" class='connective thin dashed'/>
    <line x1="17.5" y1="264.79787" x2="192.5" y2="163.76158" class='connective thin dashed'/>
    <line x1="17.5" y1="270.56601" x2="192.5" y2="169.52971" class='connective thin dashed'/>
    <line x1="17.5" y1="276.33414" x2="192.5" y2="175.29784" class='connective thin dashed'/>
    <line x1="17.5" y1="282.10227" x2="192.5" y2="181.06598" class='connective thin dashed'/>
    <line x1="20.73964" y1="286.0" x2="192.5" y2="186.83411" class='connective thin dashed'/>
    <line x1="30.73034" y1="286.0" x2="192.5" y2="192.60224" class='connective thin dashed'/>
    <line x1="40.72104" y1="286.0" x2="192.5" y2="198.37038" class='connective thin dashed'/>
    <line x1="50.71174" y1="286.0" x2="192.5" y2="204.13851" class='connective thin dashed'/>
    <line x1="60.70244" y1="286.0" x2="192.5" y2="209.90664" class='connective thin dashed'/>
    <line x1="70.69314" y1="286.0" x2="192.5" y2="215.67478" class='connective thin dashed'/>
    <line x1="80.68384" y1="286.0" x2="192.5" y2="221.44291" class='connective thin dashed'/>
    <line x1="90.67454" y1="286.0" x2="192.5" y2="227.21104" class='connective thin dashed'/>
    <line x1="100.66524" y1="286.0" x2="192.5" y2="232.97918" class='connective thin dashed'/>
    <line x1="110.65594" y1="286.0" x2="192.5" y2="238.74731" class='connective thin dashed'/>
    <line x1="120.64664" y1="286.0" x2="192.5" y2="244.51545" class='connective thin dashed'/>
    <line x1="130.63734" y1="286.0" x2="192.5" y2="250.28358" class='connective thin dashed'/>
    <line x1="140.62804" y1="286.0" x2="192.5" y2="256.05171" class='connective thin dashed'/>
    <line x1="150.61874" y1="286.0" x2="192.5" y2="261.81985" class='connective thin dashed'/>
    <line x1="160.60944" y1="286.0" x2="192.5" y2="267.58798" class='connective thin dashed'/>
    <line x1="170.60014" y1="286.0" x2="192.5" y2="273.35611" class='connective thin dashed'/>
    <line x1="180.59084" y1="286.0" x2="192.5" y2="279.12425" class='connective thin dashed'/>
    <line x1="190.58155" y1="286.0" x2="192.5" y2="284.89238" class='connective thin dashed'/>
  </g>
</svg>
