<?xml version="1.0" standalone="no"?>
<!DOCTYPE svg PUBLIC "-//W3C//DTD SVG 1.1//EN" "http://www.w3.org/Graphics/SVG/1.1/DTD/svg11.dtd">
<svg xmlns="http://www.w3.org/2000/svg" width="210.0mm" height="297.0mm" viewBox="0 0 210.0 297.0" >

  <g id="sheet">
    <line x1="21.0" y1="22.5" x2="189.0" y2="22.5" stroke='blue' stroke-width='0.2' tags='ascender2'/>
    <line x1="21.0" y1="27.75" x2="189.0" y2="27.75" stroke='grey' stroke-width='0.1' stroke-dasharray='2, 2' tags='ascender1'/>
    <line x1="21.0" y1="33.0" x2="189.0" y2="33.0" stroke='grey' stroke-width='0.1' tags='waist'/>
    <line x1="21.0" y1="40.0" x2="189.0" y2="40.0" stroke='red' stroke-width='0.1' tags='base'/>
    <line x1="21.0" y1="45.25" x2="189.0" y2="45.25" stroke='grey' stroke-width='0.1' stroke-dasharray='2, 2' tags='descender1'/>
    <line x1="21.0" y1="50.5" x2="189.0" y2="50.5" stroke='blue' stroke-width='0.2' tags='descender2'/>
    <line x1="21.0" y1="55.75" x2="189.0" y2="55.75" stroke='grey' stroke-width='0.1' stroke-dasharray='2, 2' tags='ascender1'/>
    <line x1="21.0" y1="61.0" x2="189.0" y2="61.0" stroke='grey' stroke-width='0.1' tags='waist'/>
    <line x1="21.0" y1="68.0" x2="189.0" y2="68.0" stroke='red' stroke-width='0.1' tags='base'/>
    <line x1="21.0" y1="73.25" x2="189.0" y2="73.25" stroke='grey' stroke-width='0.1' stroke-dasharray='2, 2' tags='descender1'/>
    <line x1="21.0" y1="78.5" x2="189.0" y2="78.5" stroke='blue' stroke-width='0.2' tags='descender2'/>
    <line x1="21.0" y1="83.75" x2="189.0" y2="83.75" stroke='grey' stroke-width='0.1' stroke-dasharray='2, 2' tags='ascender1'/>
    <line x1="21.0" y1="89.0" x2="189.0" y2="89.0" stroke='grey' stroke-width='0.1' tags='waist'/>
    <line x1="21.0" y1="96.0" x2="189.0" y2="96.0" stroke='red' stroke-width='0.1' tags='base'/>
    <line x1="21.0" y1="101.25" x2="189.0" y2="101.25" stroke='grey' stroke-width='0.1' stroke-dasharray='2, 2' tags='descender1'/>
    <line x1="21.0" y1="106.5" x2="189.0" y2="106.5" stroke='blue' stroke-width='0.2' tags='descender2'/>
    <line x1="21.0" y1="111.75" x2="189.0" y2="111.75" stroke='grey' stroke-width='0.1' stroke-dasharray='2, 2' tags='ascender1'/>
    <line x1="21.0" y1="117.0" x2="189.0" y2="117.0" stroke='grey' stroke-width='0.1' tags='waist'/>
    <line x1="21.0" y1="124.0" x2="189.0" y2="124.0" stroke='red' stroke-width='0.1' tags='base'/>
    <line x1="21.0" y1="129.25" x2="189.0" y2="129.25" stroke='grey' stroke-width='0.1' stroke-dasharray='2, 2' tags='descender1'/>
    <line x1="21.0" y1="134.5" x2="189.0" y2="134.5" stroke='blue' stroke-width='0.2' tags='descender2'/>
    <line x1="21.0" y1="139.75" x2="189.0" y2="139.75" stroke='grey' stroke-width='0.1' stroke-dasharray='2, 2' tags='ascender1'/>
    <line x1="21.0" y1="145.0" x2="189.0" y2="145.0" stroke='grey' stroke-width='0.1' tags='waist'/>
    <line x1="21.0" y1="152.0" x2="189.0" y2="152.0" stroke='red' stroke-width='0.1' tags='base'/>
    <line x1="21.0" y1="157.25" x2="189.0" y2="157.25" stroke='grey' stroke-width='0.1' stroke-dasharray='2, 2' tags='descender1'/>
    <line x1="21.0" y1="162.5" x2="189.0" y2="162.5" stroke='blue' stroke-width='0.2' tags='descender2'/>
    <line x1="21.0" y1="167.75" x2="189.0" y2="167.75" stroke='grey' stroke-width='0.1' stroke-dasharray='2, 2' tags='ascender1'/>
    <line x1="21.0" y1="173.0" x2="189.0" y2="173.0" stroke='grey' stroke-width='0.1' tags='waist'/>
    <line x1="21.0" y1="180.0" x2="189.0" y2="180.0" stroke='red' stroke-width='0.1' tags='base'/>
    <line x1="21.0" y1="185.25" x2="189.0" y2="185.25" stroke='grey' stroke-width='0.1' stroke-dasharray='2, 2' tags='descender1'/>
    <line x1="21.0" y1="190.5" x2="189.0" y2="190.5" stroke='blue' stroke-width='0.2' tags='descender2'/>
    <line x1="21.0" y1="195.75" x2="189.0" y2="195.75" stroke='grey' stroke-width='0.1' stroke-dasharray='2, 2' tags='ascender1'/>
    <line x1="21.0" y1="201.0" x2="189.0" y2="201.0" stroke='grey' stroke-width='0.1' tags='waist'/>
    <line x1="21.0" y1="208.0" x2="189.0" y2="208.0" stroke='red' stroke-width='0.1' tags='base'/>
    <line x1="21.0" y1="213.25" x2="189.0" y2="213.25" stroke='grey' stroke-width='0.1' stroke-dasharray='2, 2' tags='descender1'/>
    <line x1="21.0" y1="218.5" x2="189.0" y2="218.5" stroke='blue' stroke-width='0.2' tags='descender2'/>
    <line x1="21.0" y1="223.75" x2="189.0" y2="223.75" stroke='grey' stroke-width='0.1' stroke-dasharray='2, 2' tags='ascender1'/>
    <line x1="21.0" y1="229.0" x2="189.0" y2="229.0" stroke='grey' stroke-width='0.1' tags='waist'/>
    <line x1="21.0" y1="236.0" x2="189.0" y2="236.0" stroke='red' stroke-width='0.1' tags='base'/>
    <line x1="21.0" y1="241.25" x2="189.0" y2="241.25" stroke='grey' stroke-width='0.1' stroke-dasharray='2, 2' tags='descender1'/>
    <line x1="21.0" y1="246.5" x2="189.0" y2="246.5" stroke='blue' stroke-width='0.2' tags='descender2'/>
    <line x1="21.0" y1="251.75" x2="189.0" y2="251.75" stroke='grey' stroke-width='0.1' stroke-dasharray='2, 2' tags='ascender1'/>
    <line x1="21.0" y1="257.0" x2="189.0" y2="257.0" stroke='grey' stroke-width='0.1' tags='waist'/>
    <line x1="21.0" y1="264.0" x2="189.0" y2="264.0" stroke='red' stroke-width='0.1' tags='base'/>
    <line x1="21.0" y1="269.25" x2="189.0" y2="269.25" stroke='grey' stroke-width='0.1' stroke-dasharray='2, 2' tags='descender1'/>
    <line x1="21.0" y1="274.5" x2="189.0" y2="274.5" stroke='blue' stroke-width='0.2' tags='descender2'/>
    <line x1="21.0" y1="22.5" x2="21.0" y2="22.5" stroke='blue' stroke-width='0.1' tags='slant'/>
    <line x1="21.0" y1="33.29424" x2="29.43338" y2="22.5" stroke='blue' stroke-width='0.1' tags='slant'/>
    <line x1="21.0" y1="44.08848" x2="37.86677" y2="22.5" stroke='blue' stroke-width='0.1' tags='slant'/>
    <line x1="21.0" y1="54.88272" x2="46.30015" y2="22.5" stroke='blue' stroke-width='0.1' tags='slant'/>
    <line x1="21.0" y1="65.67696" x2="54.73354" y2="22.5" stroke='blue' stroke-width='0.1' tags='slant'/>
    <line x1="21.0" y1="76.4712" x2="63.16692" y2="22.5" stroke='blue' stroke-width='0.1' tags='slant'/>
    <line x1="21.0" y1="87.26544" x2="71.6003" y2="22.5" stroke='blue' stroke-width='0.1' tags='slant'/>
    <line x1="21.0" y1="98.05967" x2="80.03369" y2="22.5" stroke='blue' stroke-width='0.1' tags='slant'/>
    <line x1="21.0" y1="108.85391" x2="88.46707" y2="22.5" stroke='blue' stroke-width='0.1' tags='slant'/>
    <line x1="21.0" y1="119.64815" x2="96.90046" y2="22.5" stroke='blue' stroke-width='0.1' tags='slant'/>
    <line x1="21.0" y1="130.44239" x2="105.33384" y2="22.5" stroke='blue' stroke-width='0.1' tags='slant'/>
    <line x1="21.0" y1="141.23663" x2="113.76722" y2="22.5" stroke='blue' stroke-width='0.1' tags='slant'/>
    <line x1="21.0" y1="152.03087" x2="122.20061" y2="22.5" stroke='blue' stroke-width='0.1' tags='slant'/>
    <line x1="21.0" y1="162.82511" x2="130.63399" y2="22.5" stroke='blue' stroke-width='0.1' tags='slant'/>
    <line x1="21.0" y1="173.61935" x2="139.06737" y2="22.5" stroke='blue' stroke-width='0.1' tags='slant'/>
    <line x1="21.0" y1="184.41359" x2="147.50076" y2="22.5" stroke='blue' stroke-width='0.1' tags='slant'/>
    <line x1="21.0" y1="195.20783" x2="155.93414" y2="22.5" stroke='blue' stroke-width='0.1' tags='slant'/>
    <line x1="21.0" y1="206.00207" x2="164.36753" y2="22.5" stroke='blue' stroke-width='0.1' tags='slant'/>
    <line x1="21.0" y1="216.79631" x2="172.80091" y2="22.5" stroke='blue' stroke-width='0.1' tags='slant'/>
    <line x1="21.0" y1="227.59054" x2="181.23429" y2="22.5" stroke='blue' stroke-width='0.1' tags='slant'/>
    <line x1="21.0" y1="238.38478" x2="189.0" y2="23.35459" stroke='blue' stroke-width='0.1' tags='slant'/>
    <line x1="21.0" y1="249.17902" x2="189.0" y2="34.14883" stroke='blue' stroke-width='0.1' tags='slant'/>
    <line x1="21.0" y1="259.97326" x2="189.0" y2="44.94307" stroke='blue' stroke-width='0.1' tags='slant'/>
    <line x1="21.0" y1="270.7675" x2="189.0" y2="55.73731" stroke='blue' stroke-width='0.1' tags='slant'/>
    <line x1="26.51724" y1="274.5" x2="189.0" y2="66.53155" stroke='blue' stroke-width='0.1' tags='slant'/>
    <line x1="34.95062" y1="274.5" x2="189.0" y2="77.32579" stroke='blue' stroke-width='0.1' tags='slant'/>
    <line x1="43.384" y1="274.5" x2="189.0" y2="88.12002" stroke='blue' stroke-width='0.1' tags='slant'/>
    <line x1="51.81739" y1="274.5" x2="189.0" y2="98.91426" stroke='blue' stroke-width='0.1' tags='slant'/>
    <line x1="60.25077" y1="274.5" x2="189.0" y2="109.7085" stroke='blue' stroke-width='0.1' tags='slant'/>
    <line x1="68.68416" y1="274.5" x2="189.0" y2="120.50274" stroke='blue' stroke-width='0.1' tags='slant'/>
    <line x1="77.11754" y1="274.5" x2="189.0" y2="131.29698" stroke='blue' stroke-width='0.1' tags='slant'/>
    <line x1="85.55092" y1="274.5" x2="189.0" y2="142.09122" stroke='blue' stroke-width='0.1' tags='slant'/>
    <line x1="93.98431" y1="274.5" x2="189.0" y2="152.88546" stroke='blue' stroke-width='0.1' tags='slant'/>
    <line x1="102.41769" y1="274.5" x2="189.0" y2="163.6797" stroke='blue' stroke-width='0.1' tags='slant'/>
    <line x1="110.85108" y1="274.5" x2="189.0" y2="174.47394" stroke='blue' stroke-width='0.1' tags='slant'/>
    <line x1="119.28446" y1="274.5" x2="189.0" y2="185.26818" stroke='blue' stroke-width='0.1' tags='slant'/>
    <line x1="127.71784" y1="274.5" x2="189.0" y2="196.06242" stroke='blue' stroke-width='0.1' tags='slant'/>
    <line x1="136.15123" y1="274.5" x2="189.0" y2="206.85666" stroke='blue' stroke-width='0.1' tags='slant'/>
    <line x1="144.58461" y1="274.5" x2="189.0" y2="217.65089" stroke='blue' stroke-width='0.1' tags='slant'/>
    <line x1="153.018" y1="274.5" x2="189.0" y2="228.44513" stroke='blue' stroke-width='0.1' tags='slant'/>
    <line x1="161.45138" y1="274.5" x2="189.0" y2="239.23937" stroke='blue' stroke-width='0.1' tags='slant'/>
    <line x1="169.88476" y1="274.5" x2="189.0" y2="250.03361" stroke='blue' stroke-width='0.1' tags='slant'/>
    <line x1="178.31815" y1="274.5" x2="189.0" y2="260.82785" stroke='blue' stroke-width='0.1' tags='slant'/>
    <line x1="186.75153" y1="274.5" x2="189.0" y2="271.62209" stroke='blue' stroke-width='0.1' tags='slant'/>
    <line x1="21.0" y1="30.56615" x2="34.97098" y2="22.5" stroke='blue' stroke-width='0.07' stroke-dasharray='2, 2' tags='connective'/>
    <line x1="21.0" y1="38.63229" x2="48.94195" y2="22.5" stroke='blue' stroke-width='0.07' stroke-dasharray='2, 2' tags='connective'/>
    <line x1="21.0" y1="46.69844" x2="62.91293" y2="22.5" stroke='blue' stroke-width='0.07' stroke-dasharray='2, 2' tags='connective'/>
    <line x1="21.0" y1="54.76458" x2="76.8839" y2="22.5" stroke='blue' stroke-width='0.07' stroke-dasharray='2, 2' tags='connective'/>
    <line x1="21.0" y1="62.83073" x2="90.85488" y2="22.5" stroke='blue' stroke-width='0.07' stroke-dasharray='2, 2' tags='connective'/>
    <line x1="21.0" y1="70.89688" x2="104.82585" y2="22.5" stroke='blue' stroke-width='0.07' stroke-dasharray='2, 2' tags='connective'/>
    <line x1="21.0" y1="78.96302" x2="118.79683" y2="22.5" stroke='blue' stroke-width='0.07' stroke-dasharray='2, 2' tags='connective'/>
    <line x1="21.0" y1="87.02917" x2="132.7678" y2="22.5" stroke='blue' stroke-width='0.07' stroke-dasharray='2, 2' tags='connective'/>
    <line x1="21.0" y1="95.09532" x2="146.73878" y2="22.5" stroke='blue' stroke-width='0.07' stroke-dasharray='2, 2' tags='connective'/>
    <line x1="21.0" y1="103.16146" x2="160.70975" y2="22.5" stroke='blue' stroke-width='0.07' stroke-dasharray='2, 2' tags='connective'/>
    <line x1="21.0" y1="111.22761" x2="174.68073" y2="22.5" stroke='blue' stroke-width='0.07' stroke-dasharray='2, 2' tags='connective'/>
    <line x1="21.0" y1="119.29375" x2="188.6517" y2="22.5" stroke='blue' stroke-width='0.07' stroke-dasharray='2, 2' tags='connective'/>
    <line x1="21.0" y1="127.3599" x2="189.0" y2="30.36506" stroke='blue' stroke-width='0.07' stroke-dasharray='2, 2' tags='connective'/>
    <line x1="21.0" y1="135.42605" x2="189.0" y2="38.4312" stroke='blue' stroke-width='0.07' stroke-dasharray='2, 2' tags='connective'/>
    <line x1="21.0" y1="143.49219" x2="189.0" y2="46.49735" stroke='blue' stroke-width='0.07' stroke-dasharray='2, 2' tags='connective'/>
    <line x1="21.0" y1="151.55834" x2="189.0" y2="54.56349" stroke='blue' stroke-width='0.07' stroke-dasharray='2, 2' tags='connective'/>
    <line x1="21.0" y1="159.62449" x2="189.0" y2="62.62964" stroke='blue' stroke-width='0.07' stroke-dasharray='2, 2' tags='connective'/>
    <line x1="21.0" y1="167.69063" x2="189.0" y2="70.69579" stroke='blue' stroke-width='0.07' stroke-dasharray='2, 2' tags='connective'/>
    <line x1="21.0" y1="175.75678" x2="189.0" y2="78.76193" stroke='blue' stroke-width='0.07' stroke-dasharray='2, 2' tags='connective'/>
    <line x1="21.0" y1="183.82292" x2="189.0" y2="86.82808" stroke='blue' stroke-width='0.07' stroke-dasharray='2, 2' tags='connective'/>
    <line x1="21.0" y1="191.88907" x2="189.0" y2="94.89423" stroke='blue' stroke-width='0.07' stroke-dasharray='2, 2' tags='connective'/>
    <line x1="21.0" y1="199.95522" x2="189.0" y2="102.96037" stroke='blue' stroke-width='0.07' stroke-dasharray='2, 2' tags='connective'/>
    <line x1="21.0" y1="208.02136" x2="189.0" y2="111.02652" stroke='blue' stroke-width='0.07' stroke-dasharray='2, 2' tags='connective'/>
    <line x1="21.0" y1="216.08751" x2="189.0" y2="119.09266" stroke='blue' stroke-width='0.07' stroke-dasharray='2, 2' tags='connective'/>
    <line x1="21.0" y1="224.15366" x2="189.0" y2="127.15881" stroke='blue' stroke-width='0.07' stroke-dasharray='2, 2' tags='connective'/>
    <line x1="21.0" y1="232.2198" x2="189.0" y2="135.22496" stroke='blue' stroke-width='0.07' stroke-dasharray='2, 2' tags='connective'/>
    <line x1="21.0" y1="240.28595" x2="189.0" y2="143.2911" stroke='blue' stroke-width='0.07' stroke-dasharray='2, 2' tags='connective'/>
    <line x1="21.0" y1="248.35209" x2="189.0" y2="151.35725" stroke='blue' stroke-width='0.07' stroke-dasharray='2, 2' tags='connective'/>
    <line x1="21.0" y1="256.41824" x2="189.0" y2="159.42339" stroke='blue' stroke-width='0.07' stroke-dasharray='2, 2' tags='connective'/>
    <line x1="21.0" y1="264.48439" x2="189.0" y2="167.48954" stroke='blue' stroke-width='0.07' stroke-dasharray='2, 2' tags='connective'/>
    <line x1="21.0" y1="272.55053" x2="189.0" y2="175.55569" stroke='blue' stroke-width='0.07' stroke-dasharray='2, 2' tags='connective'/>
    <line x1="31.5944" y1="274.5" x2="189.0" y2="183.62183" stroke='blue' stroke-width='0.07' stroke-dasharray='2, 2' tags='connective'/>
    <line x1="45.56537" y1="274.5" x2="189.0" y2="191.68798" stroke='blue' stroke-width='0.07' stroke-dasharray='2, 2' tags='connective'/>
    <line x1="59.53635" y1="274.5" x2="189.0" y2="199.75413" stroke='blue' stroke-width='0.07' stroke-dasharray='2, 2' tags='connective'/>
    <line x1="73.50732" y1="274.5" x2="189.0" y2="207.82027" stroke='blue' stroke-width='0.07' stroke-dasharray='2, 2' tags='connective'/>
    <line x1="87.4783" y1="274.5" x2="189.0" y2="215.88642" stroke='blue' stroke-width='0.07' stroke-dasharray='2, 2' tags='connective'/>
    <line x1="101.44927" y1="274.5" x2="189.0" y2="223.95256" stroke='blue' stroke-width='0.07' stroke-dasharray='2, 2' tags='connective'/>
    <line x1="115.42025" y1="274.5" x2="189.0" y2="232.01871" stroke='blue' stroke-width='0.07' stroke-dasharray='2, 2' tags='connective'/>
    <line x1="129.39122" y1="274.5" x2="189.0" y2="240.08486" stroke='blue' stroke-width='0.07' stroke-dasharray='2, 2' tags='connective'/>
    <line x1="143.3622" y1="274.5" x2="189.0" y2="248.151" stroke='blue' stroke-width='0.07' stroke-dasharray='2, 2' tags='connective'/>
    <line x1="157.33317" y1="274.5" x2="189.0" y2="256.21715" stroke='blue' stroke-width='0.07' stroke-dasharray='2, 2' tags='connective'/>
    <line x1="171.30415" y1="274.5" x2="189.0" y2="264.2833" stroke='blue' stroke-width='0.07' stroke-dasharray='2, 2' tags='connective'/>
    <line x1="185.27512" y1="274.5" x2="189.0" y2="272.34944" stroke='blue' stroke-width='0.07' stroke-dasharray='2, 2' tags='connective'/>
  </g>
</svg>
