<?xml version="1.0" standalone="no"?>
<!DOCTYPE svg PUBLIC "-//W3C//DTD SVG 1.1//EN" "http://www.w3.org/Graphics/SVG/1.1/DTD/svg11.dtd">
<svg xmlns="http://www.w3.org/2000/svg" width="297.0mm" height="210.0mm" viewBox="0 0 297.0 210.0" >

  <g id="sheet">
    <line x1="22.5" y1="21.0" x2="274.5" y2="21.0" stroke='blue' stroke-width='0.2' tags='ascender2'/>
    <line x1="22.5" y1="26.25" x2="274.5" y2="26.25" stroke='grey' stroke-width='0.1' stroke-dasharray='2, 2' tags='ascender1'/>
    <line x1="22.5" y1="31.5" x2="274.5" y2="31.5" stroke='grey' stroke-width='0.1' tags='waist'/>
    <line x1="22.5" y1="38.5" x2="274.5" y2="38.5" stroke='red' stroke-width='0.1' tags='base'/>
    <line x1="22.5" y1="43.75" x2="274.5" y2="43.75" stroke='grey' stroke-width='0.1' stroke-dasharray='2, 2' tags='descender1'/>
    <line x1="22.5" y1="49.0" x2="274.5" y2="49.0" stroke='blue' stroke-width='0.2' tags='descender2'/>
    <line x1="22.5" y1="54.25" x2="274.5" y2="54.25" stroke='grey' stroke-width='0.1' stroke-dasharray='2, 2' tags='ascender1'/>
    <line x1="22.5" y1="59.5" x2="274.5" y2="59.5" stroke='grey' stroke-width='0.1' tags='waist'/>
    <line x1="22.5" y1="66.5" x2="274.5" y2="66.5" stroke='red' stroke-width='0.1' tags='base'/>
    <line x1="22.5" y1="71.75" x2="274.5" y2="71.75" stroke='grey' stroke-width='0.1' stroke-dasharray='2, 2' tags='descender1'/>
    <line x1="22.5" y1="77.0" x2="274.5" y2="77.0" stroke='blue' stroke-width='0.2' tags='descender2'/>
    <line x1="22.5" y1="82.25" x2="274.5" y2="82.25" stroke='grey' stroke-width='0.1' stroke-dasharray='2, 2' tags='ascender1'/>
    <line x1="22.5" y1="87.5" x2="274.5" y2="87.5" stroke='grey' stroke-width='0.1' tags='waist'/>
    <line x1="22.5" y1="94.5" x2="274.5" y2="94.5" stroke='red' stroke-width='0.1' tags='base'/>
    <line x1="22.5" y1="99.75" x2="274.5" y2="99.75" stroke='grey' stroke-width='0.1' stroke-dasharray='2, 2' tags='descender1'/>
    <line x1="22.5" y1="105.0" x2="274.5" y2="105.0" stroke='blue' stroke-width='0.2' tags='descender2'/>
    <line x1="22.5" y1="110.25" x2="274.5" y2="110.25" stroke='grey' stroke-width='0.1' stroke-dasharray='2, 2' tags='ascender1'/>
    <line x1="22.5" y1="115.5" x2="274.5" y2="115.5" stroke='grey' stroke-width='0.1' tags='waist'/>
    <line x1="22.5" y1="122.5" x2="274.5" y2="122.5" stroke='red' stroke-width='0.1' tags='base'/>
    <line x1="22.5" y1="127.75" x2="274.5" y2="127.75" stroke='grey' stroke-width='0.1' stroke-dasharray='2, 2' tags='descender1'/>
    <line x1="22.5" y1="133.0" x2="274.5" y2="133.0" stroke='blue' stroke-width='0.2' tags='descender2'/>
    <line x1="22.5" y1="138.25" x2="274.5" y2="138.25" stroke='grey' stroke-width='0.1' stroke-dasharray='2, 2' tags='ascender1'/>
    <line x1="22.5" y1="143.5" x2="274.5" y2="143.5" stroke='grey' stroke-width='0.1' tags='waist'/>
    <line x1="22.5" y1="150.5" x2="274.5" y2="150.5" stroke='red' stroke-width='0.1' tags='base'/>
    <line x1="22.5" y1="155.75" x2="274.5" y2="155.75" stroke='grey' stroke-width='0.1' stroke-dasharray='2, 2' tags='descender1'/>
    <line x1="22.5" y1="161.0" x2="274.5" y2="161.0" stroke='blue' stroke-width='0.2' tags='descender2'/>
    <line x1="22.5" y1="166.25" x2="274.5" y2="166.25" stroke='grey' stroke-width='0.1' stroke-dasharray='2, 2' tags='ascender1'/>
    <line x1="22.5" y1="171.5" x2="274.5" y2="171.5" stroke='grey' stroke-width='0.1' tags='waist'/>
    <line x1="22.5" y1="178.5" x2="274.5" y2="178.5" stroke='red' stroke-width='0.1' tags='base'/>
    <line x1="22.5" y1="183.75" x2="274.5" y2="183.75" stroke='grey' stroke-width='0.1' stroke-dasharray='2, 2' tags='descender1'/>
    <line x1="22.5" y1="189.0" x2="274.5" y2="189.0" stroke='blue' stroke-width='0.2' tags='descender2'/>
    <line x1="22.5" y1="21.0" x2="22.5" y2="21.0" stroke='blue' stroke-width='0.1' tags='slant'/>
    <line x1="22.5" y1="32.33773" x2="31.35801" y2="21.0" stroke='blue' stroke-width='0.1' tags='slant'/>
    <line x1="22.5" y1="43.67546" x2="40.21601" y2="21.0" stroke='blue' stroke-width='0.1' tags='slant'/>
    <line x1="22.5" y1="55.0132" x2="49.07402" y2="21.0" stroke='blue' stroke-width='0.1' tags='slant'/>
    <line x1="22.5" y1="66.35093" x2="57.93203" y2="21.0" stroke='blue' stroke-width='0.1' tags='slant'/>
    <line x1="22.5" y1="77.68866" x2="66.79004" y2="21.0" stroke='blue' stroke-width='0.1' tags='slant'/>
    <line x1="22.5" y1="89.02639" x2="75.64804" y2="21.0" stroke='blue' stroke-width='0.1' tags='slant'/>
    <line x1="22.5" y1="100.36412" x2="84.50605" y2="21.0" stroke='blue' stroke-width='0.1' tags='slant'/>
    <line x1="22.5" y1="111.70186" x2="93.36406" y2="21.0" stroke='blue' stroke-width='0.1' tags='slant'/>
    <line x1="22.5" y1="123.03959" x2="102.22206" y2="21.0" stroke='blue' stroke-width='0.1' tags='slant'/>
    <line x1="22.5" y1="134.37732" x2="111.08007" y2="21.0" stroke='blue' stroke-width='0.1' tags='slant'/>
    <line x1="22.5" y1="145.71505" x2="119.93808" y2="21.0" stroke='blue' stroke-width='0.1' tags='slant'/>
    <line x1="22.5" y1="157.05278" x2="128.79609" y2="21.0" stroke='blue' stroke-width='0.1' tags='slant'/>
    <line x1="22.5" y1="168.39052" x2="137.65409" y2="21.0" stroke='blue' stroke-width='0.1' tags='slant'/>
    <line x1="22.5" y1="179.72825" x2="146.5121" y2="21.0" stroke='blue' stroke-width='0.1' tags='slant'/>
    <line x1="24.11412" y1="189.0" x2="155.37011" y2="21.0" stroke='blue' stroke-width='0.1' tags='slant'/>
    <line x1="32.97213" y1="189.0" x2="164.22811" y2="21.0" stroke='blue' stroke-width='0.1' tags='slant'/>
    <line x1="41.83014" y1="189.0" x2="173.08612" y2="21.0" stroke='blue' stroke-width='0.1' tags='slant'/>
    <line x1="50.68814" y1="189.0" x2="181.94413" y2="21.0" stroke='blue' stroke-width='0.1' tags='slant'/>
    <line x1="59.54615" y1="189.0" x2="190.80213" y2="21.0" stroke='blue' stroke-width='0.1' tags='slant'/>
    <line x1="68.40416" y1="189.0" x2="199.66014" y2="21.0" stroke='blue' stroke-width='0.1' tags='slant'/>
    <line x1="77.26216" y1="189.0" x2="208.51815" y2="21.0" stroke='blue' stroke-width='0.1' tags='slant'/>
    <line x1="86.12017" y1="189.0" x2="217.37616" y2="21.0" stroke='blue' stroke-width='0.1' tags='slant'/>
    <line x1="94.97818" y1="189.0" x2="226.23416" y2="21.0" stroke='blue' stroke-width='0.1' tags='slant'/>
    <line x1="103.83618" y1="189.0" x2="235.09217" y2="21.0" stroke='blue' stroke-width='0.1' tags='slant'/>
    <line x1="112.69419" y1="189.0" x2="243.95018" y2="21.0" stroke='blue' stroke-width='0.1' tags='slant'/>
    <line x1="121.5522" y1="189.0" x2="252.80818" y2="21.0" stroke='blue' stroke-width='0.1' tags='slant'/>
    <line x1="130.41021" y1="189.0" x2="261.66619" y2="21.0" stroke='blue' stroke-width='0.1' tags='slant'/>
    <line x1="139.26821" y1="189.0" x2="270.5242" y2="21.0" stroke='blue' stroke-width='0.1' tags='slant'/>
    <line x1="148.12622" y1="189.0" x2="274.5" y2="27.24894" stroke='blue' stroke-width='0.1' tags='slant'/>
    <line x1="156.98423" y1="189.0" x2="274.5" y2="38.58667" stroke='blue' stroke-width='0.1' tags='slant'/>
    <line x1="165.84223" y1="189.0" x2="274.5" y2="49.9244" stroke='blue' stroke-width='0.1' tags='slant'/>
    <line x1="174.70024" y1="189.0" x2="274.5" y2="61.26213" stroke='blue' stroke-width='0.1' tags='slant'/>
    <line x1="183.55825" y1="189.0" x2="274.5" y2="72.59987" stroke='blue' stroke-width='0.1' tags='slant'/>
    <line x1="192.41626" y1="189.0" x2="274.5" y2="83.9376" stroke='blue' stroke-width='0.1' tags='slant'/>
    <line x1="201.27426" y1="189.0" x2="274.5" y2="95.27533" stroke='blue' stroke-width='0.1' tags='slant'/>
    <line x1="210.13227" y1="189.0" x2="274.5" y2="106.61306" stroke='blue' stroke-width='0.1' tags='slant'/>
    <line x1="218.99028" y1="189.0" x2="274.5" y2="117.95079" stroke='blue' stroke-width='0.1' tags='slant'/>
    <line x1="227.84828" y1="189.0" x2="274.5" y2="129.28853" stroke='blue' stroke-width='0.1' tags='slant'/>
    <line x1="236.70629" y1="189.0" x2="274.5" y2="140.62626" stroke='blue' stroke-width='0.1' tags='slant'/>
    <line x1="245.5643" y1="189.0" x2="274.5" y2="151.96399" stroke='blue' stroke-width='0.1' tags='slant'/>
    <line x1="254.42231" y1="189.0" x2="274.5" y2="163.30172" stroke='blue' stroke-width='0.1' tags='slant'/>
    <line x1="263.28031" y1="189.0" x2="274.5" y2="174.63946" stroke='blue' stroke-width='0.1' tags='slant'/>
    <line x1="272.13832" y1="189.0" x2="274.5" y2="185.97719" stroke='blue' stroke-width='0.1' tags='slant'/>
    <line x1="22.5" y1="28.24559" x2="35.04973" y2="21.0" stroke='blue' stroke-width='0.07' stroke-dasharray='2, 2' tags='connective'/>
    <line x1="22.5" y1="35.49119" x2="47.59947" y2="21.0" stroke='blue' stroke-width='0.07' stroke-dasharray='2, 2' tags='connective'/>
    <line x1="22.5" y1="42.73678" x2="60.1492" y2="21.0" stroke='blue' stroke-width='0.07' stroke-dasharray='2, 2' tags='connective'/>
    <line x1="22.5" y1="49.98237" x2="72.69894" y2="21.0" stroke='blue' stroke-width='0.07' stroke-dasharray='2, 2' tags='connective'/>
    <line x1="22.5" y1="57.22796" x2="85.24867" y2="21.0" stroke='blue' stroke-width='0.07' stroke-dasharray='2, 2' tags='connective'/>
    <line x1="22.5" y1="64.47356" x2="97.79841" y2="21.0" stroke='blue' stroke-width='0.07' stroke-dasharray='2, 2' tags='connective'/>
    <line x1="22.5" y1="71.71915" x2="110.34814" y2="21.0" stroke='blue' stroke-width='0.07' stroke-dasharray='2, 2' tags='connective'/>
    <line x1="22.5" y1="78.96474" x2="122.89788" y2="21.0" stroke='blue' stroke-width='0.07' stroke-dasharray='2, 2' tags='connective'/>
    <line x1="22.5" y1="86.21033" x2="135.44761" y2="21.0" stroke='blue' stroke-width='0.07' stroke-dasharray='2, 2' tags='connective'/>
    <line x1="22.5" y1="93.45593" x2="147.99735" y2="21.0" stroke='blue' stroke-width='0.07' stroke-dasharray='2, 2' tags='connective'/>
    <line x1="22.5" y1="100.70152" x2="160.54708" y2="21.0" stroke='blue' stroke-width='0.07' stroke-dasharray='2, 2' tags='connective'/>
    <line x1="22.5" y1="107.94711" x2="173.09681" y2="21.0" stroke='blue' stroke-width='0.07' stroke-dasharray='2, 2' tags='connective'/>
    <line x1="22.5" y1="115.1927" x2="185.64655" y2="21.0" stroke='blue' stroke-width='0.07' stroke-dasharray='2, 2' tags='connective'/>
    <line x1="22.5" y1="122.4383" x2="198.19628" y2="21.0" stroke='blue' stroke-width='0.07' stroke-dasharray='2, 2' tags='connective'/>
    <line x1="22.5" y1="129.68389" x2="210.74602" y2="21.0" stroke='blue' stroke-width='0.07' stroke-dasharray='2, 2' tags='connective'/>
    <line x1="22.5" y1="136.92948" x2="223.29575" y2="21.0" stroke='blue' stroke-width='0.07' stroke-dasharray='2, 2' tags='connective'/>
    <line x1="22.5" y1="144.17507" x2="235.84549" y2="21.0" stroke='blue' stroke-width='0.07' stroke-dasharray='2, 2' tags='connective'/>
    <line x1="22.5" y1="151.42067" x2="248.39522" y2="21.0" stroke='blue' stroke-width='0.07' stroke-dasharray='2, 2' tags='connective'/>
    <line x1="22.5" y1="158.66626" x2="260.94496" y2="21.0" stroke='blue' stroke-width='0.07' stroke-dasharray='2, 2' tags='connective'/>
    <line x1="22.5" y1="165.91185" x2="273.49469" y2="21.0" stroke='blue' stroke-width='0.07' stroke-dasharray='2, 2' tags='connective'/>
    <line x1="22.5" y1="173.15744" x2="274.5" y2="27.66518" stroke='blue' stroke-width='0.07' stroke-dasharray='2, 2' tags='connective'/>
    <line x1="22.5" y1="180.40304" x2="274.5" y2="34.91077" stroke='blue' stroke-width='0.07' stroke-dasharray='2, 2' tags='connective'/>
    <line x1="22.5" y1="187.64863" x2="274.5" y2="42.15636" stroke='blue' stroke-width='0.07' stroke-dasharray='2, 2' tags='connective'/>
    <line x1="32.70909" y1="189.0" x2="274.5" y2="49.40195" stroke='blue' stroke-width='0.07' stroke-dasharray='2, 2' tags='connective'/>
    <line x1="45.25883" y1="189.0" x2="274.5" y2="56.64755" stroke='blue' stroke-width='0.07' stroke-dasharray='2, 2' tags='connective'/>
    <line x1="57.80856" y1="189.0" x2="274.5" y2="63.89314" stroke='blue' stroke-width='0.07' stroke-dasharray='2, 2' tags='connective'/>
    <line x1="70.3583" y1="189.0" x2="274.5" y2="71.13873" stroke='blue' stroke-width='0.07' stroke-dasharray='2, 2' tags='connective'/>
    <line x1="82.90803" y1="189.0" x2="274.5" y2="78.38433" stroke='blue' stroke-width='0.07' stroke-dasharray='2, 2' tags='connective'/>
    <line x1="95.45777" y1="189.0" x2="274.5" y2="85.62992" stroke='blue' stroke-width='0.07' stroke-dasharray='2, 2' tags='connective'/>
    <line x1="108.0075" y1="189.0" x2="274.5" y2="92.87551" stroke='blue' stroke-width='0.07' stroke-dasharray='2, 2' tags='connective'/>
    <line x1="120.55723" y1="189.0" x2="274.5" y2="100.1211" stroke='blue' stroke-width='0.07' stroke-dasharray='2, 2' tags='connective'/>
    <line x1="133.10697" y1="189.0" x2="274.5" y2="107.3667" stroke='blue' stroke-width='0.07' stroke-dasharray='2, 2' tags='connective'/>
    <line x1="145.6567" y1="189.0" x2="274.5" y2="114.61229" stroke='blue' stroke-width='0.07' stroke-dasharray='2, 2' tags='connective'/>
    <line x1="158.20644" y1="189.0" x2="274.5" y2="121.85788" stroke='blue' stroke-width='0.07' stroke-dasharray='2, 2' tags='connective'/>
    <line x1="170.75617" y1="189.0" x2="274.5" y2="129.10347" stroke='blue' stroke-width='0.07' stroke-dasharray='2, 2' tags='connective'/>
    <line x1="183.30591" y1="189.0" x2="274.5" y2="136.34907" stroke='blue' stroke-width='0.07' stroke-dasharray='2, 2' tags='connective'/>
    <line x1="195.85564" y1="189.0" x2="274.5" y2="143.59466" stroke='blue' stroke-width='0.07' stroke-dasharray='2, 2' tags='connective'/>
    <line x1="208.40538" y1="189.0" x2="274.5" y2="150.84025" stroke='blue' stroke-width='0.07' stroke-dasharray='2, 2' tags='connective'/>
    <line x1="220.95511" y1="189.0" x2="274.5" y2="158.08584" stroke='blue' stroke-width='0.07' stroke-dasharray='2, 2' tags='connective'/>
    <line x1="233.50485" y1="189.0" x2="274.5" y2="165.33144" stroke='blue' stroke-width='0.07' stroke-dasharray='2, 2' tags='connective'/>
    <line x1="246.05458" y1="189.0" x2="274.5" y2="172.57703" stroke='blue' stroke-width='0.07' stroke-dasharray='2, 2' tags='connective'/>
    <line x1="258.60431" y1="189.0" x2="274.5" y2="179.82262" stroke='blue' stroke-width='0.07' stroke-dasharray='2, 2' tags='connective'/>
    <line x1="271.15405" y1="189.0" x2="274.5" y2="187.06821" stroke='blue' stroke-width='0.07' stroke-dasharray='2, 2' tags='connective'/>
  </g>
</svg>
