<?xml version="1.0" standalone="no"?>
<!DOCTYPE svg PUBLIC "-//W3C//DTD SVG 1.1//EN" "http://www.w3.org/Graphics/SVG/1.1/DTD/svg11.dtd">
<svg xmlns="http://www.w3.org/2000/svg" width="297.0mm" height="210.0mm" viewBox="0 0 297.0 210.0" shape-rendering="geometricPrecision" >
  <style>
    svg         { stroke:            #ed008c; }
    svg         { stroke-width:         0.04; }
    .altcolor   { stroke:               blue; }
    .extrafine  { stroke-width:         0.01; }
    .fine       { stroke-width:         0.02; }
    .medium     { stroke-width:         0.04; }
    .broad      { stroke-width:         0.08; }
    .extrabroad { stroke-width:         0.16; }
    .dashed     { stroke-dasharray:      2 2; }
  </style>
  <g id="sheet">
    <line x1="11.0" y1="17.5" x2="286.0" y2="17.5" class='ascender2 broad'/>
    <line x1="11.0" y1="22.5" x2="286.0" y2="22.5" class='ascender1 dashed'/>
    <line x1="11.0" y1="27.5" x2="286.0" y2="27.5" class='waist altcolor'/>
    <line x1="11.0" y1="32.5" x2="286.0" y2="32.5" class='base'/>
    <line x1="11.0" y1="37.5" x2="286.0" y2="37.5" class='descender1 dashed'/>
    <line x1="11.0" y1="42.5" x2="286.0" y2="42.5" class='descender2 broad'/>
    <line x1="11.0" y1="47.5" x2="286.0" y2="47.5" class='ascender1 dashed'/>
    <line x1="11.0" y1="52.5" x2="286.0" y2="52.5" class='waist altcolor'/>
    <line x1="11.0" y1="57.5" x2="286.0" y2="57.5" class='base'/>
    <line x1="11.0" y1="62.5" x2="286.0" y2="62.5" class='descender1 dashed'/>
    <line x1="11.0" y1="67.5" x2="286.0" y2="67.5" class='descender2 broad'/>
    <line x1="11.0" y1="72.5" x2="286.0" y2="72.5" class='ascender1 dashed'/>
    <line x1="11.0" y1="77.5" x2="286.0" y2="77.5" class='waist altcolor'/>
    <line x1="11.0" y1="82.5" x2="286.0" y2="82.5" class='base'/>
    <line x1="11.0" y1="87.5" x2="286.0" y2="87.5" class='descender1 dashed'/>
    <line x1="11.0" y1="92.5" x2="286.0" y2="92.5" class='descender2 broad'/>
    <line x1="11.0" y1="97.5" x2="286.0" y2="97.5" class='ascender1 dashed'/>
    <line x1="11.0" y1="102.5" x2="286.0" y2="102.5" class='waist altcolor'/>
    <line x1="11.0" y1="107.5" x2="286.0" y2="107.5" class='base'/>
    <line x1="11.0" y1="112.5" x2="286.0" y2="112.5" class='descender1 dashed'/>
    <line x1="11.0" y1="117.5" x2="286.0" y2="117.5" class='descender2 broad'/>
    <line x1="11.0" y1="122.5" x2="286.0" y2="122.5" class='ascender1 dashed'/>
    <line x1="11.0" y1="127.5" x2="286.0" y2="127.5" class='waist altcolor'/>
    <line x1="11.0" y1="132.5" x2="286.0" y2="132.5" class='base'/>
    <line x1="11.0" y1="137.5" x2="286.0" y2="137.5" class='descender1 dashed'/>
    <line x1="11.0" y1="142.5" x2="286.0" y2="142.5" class='descender2 broad'/>
    <line x1="11.0" y1="147.5" x2="286.0" y2="147.5" class='ascender1 dashed'/>
    <line x1="11.0" y1="152.5" x2="286.0" y2="152.5" class='waist altcolor'/>
    <line x1="11.0" y1="157.5" x2="286.0" y2="157.5" class='base'/>
    <line x1="11.0" y1="162.5" x2="286.0" y2="162.5" class='descender1 dashed'/>
    <line x1="11.0" y1="167.5" x2="286.0" y2="167.5" class='descender2 broad'/>
    <line x1="11.0" y1="172.5" x2="286.0" y2="172.5" class='ascender1 dashed'/>
    <line x1="11.0" y1="177.5" x2="286.0" y2="177.5" class='waist altcolor'/>
    <line x1="11.0" y1="182.5" x2="286.0" y2="182.5" class='base'/>
    <line x1="11.0" y1="187.5" x2="286.0" y2="187.5" class='descender1 dashed'/>
    <line x1="11.0" y1="192.5" x2="286.0" y2="192.5" class='descender2 broad'/>
    <line x1="11.0" y1="17.5" x2="11.0" y2="17.5" class='slant fine'/>
    <line x1="11.0" y1="25.58356" x2="17.31557" y2="17.5" class='slant fine'/>
    <line x1="11.0" y1="33.66713" x2="23.63115" y2="17.5" class='slant fine'/>
    <line x1="11.0" y1="41.75069" x2="29.94672" y2="17.5" class='slant fine'/>
    <line x1="11.0" y1="49.83426" x2="36.26229" y2="17.5" class='slant fine'/>
    <line x1="11.0" y1="57.91782" x2="42.57786" y2="17.5" class='slant fine'/>
    <line x1="11.0" y1="66.00139" x2="48.89344" y2="17.5" class='slant fine'/>
    <line x1="11.0" y1="74.08495" x2="55.20901" y2="17.5" class='slant fine'/>
    <line x1="11.0" y1="82.16852" x2="61.52458" y2="17.5" class='slant fine'/>
    <line x1="11.0" y1="90.25208" x2="67.84016" y2="17.5" class='slant fine'/>
    <line x1="11.0" y1="98.33565" x2="74.15573" y2="17.5" class='slant fine'/>
    <line x1="11.0" y1="106.41921" x2="80.4713" y2="17.5" class='slant fine'/>
    <line x1="11.0" y1="114.50278" x2="86.78688" y2="17.5" class='slant fine'/>
    <line x1="11.0" y1="122.58634" x2="93.10245" y2="17.5" class='slant fine'/>
    <line x1="11.0" y1="130.66991" x2="99.41802" y2="17.5" class='slant fine'/>
    <line x1="11.0" y1="138.75347" x2="105.73359" y2="17.5" class='slant fine'/>
    <line x1="11.0" y1="146.83704" x2="112.04917" y2="17.5" class='slant fine'/>
    <line x1="11.0" y1="154.9206" x2="118.36474" y2="17.5" class='slant fine'/>
    <line x1="11.0" y1="163.00417" x2="124.68031" y2="17.5" class='slant fine'/>
    <line x1="11.0" y1="171.08773" x2="130.99589" y2="17.5" class='slant fine'/>
    <line x1="11.0" y1="179.1713" x2="137.31146" y2="17.5" class='slant fine'/>
    <line x1="11.0" y1="187.25486" x2="143.62703" y2="17.5" class='slant fine'/>
    <line x1="13.21762" y1="192.5" x2="149.94261" y2="17.5" class='slant fine'/>
    <line x1="19.53319" y1="192.5" x2="156.25818" y2="17.5" class='slant fine'/>
    <line x1="25.84877" y1="192.5" x2="162.57375" y2="17.5" class='slant fine'/>
    <line x1="32.16434" y1="192.5" x2="168.88932" y2="17.5" class='slant fine'/>
    <line x1="38.47991" y1="192.5" x2="175.2049" y2="17.5" class='slant fine'/>
    <line x1="44.79549" y1="192.5" x2="181.52047" y2="17.5" class='slant fine'/>
    <line x1="51.11106" y1="192.5" x2="187.83604" y2="17.5" class='slant fine'/>
    <line x1="57.42663" y1="192.5" x2="194.15162" y2="17.5" class='slant fine'/>
    <line x1="63.7422" y1="192.5" x2="200.46719" y2="17.5" class='slant fine'/>
    <line x1="70.05778" y1="192.5" x2="206.78276" y2="17.5" class='slant fine'/>
    <line x1="76.37335" y1="192.5" x2="213.09833" y2="17.5" class='slant fine'/>
    <line x1="82.68892" y1="192.5" x2="219.41391" y2="17.5" class='slant fine'/>
    <line x1="89.0045" y1="192.5" x2="225.72948" y2="17.5" class='slant fine'/>
    <line x1="95.32007" y1="192.5" x2="232.04505" y2="17.5" class='slant fine'/>
    <line x1="101.63564" y1="192.5" x2="238.36063" y2="17.5" class='slant fine'/>
    <line x1="107.95122" y1="192.5" x2="244.6762" y2="17.5" class='slant fine'/>
    <line x1="114.26679" y1="192.5" x2="250.99177" y2="17.5" class='slant fine'/>
    <line x1="120.58236" y1="192.5" x2="257.30735" y2="17.5" class='slant fine'/>
    <line x1="126.89793" y1="192.5" x2="263.62292" y2="17.5" class='slant fine'/>
    <line x1="133.21351" y1="192.5" x2="269.93849" y2="17.5" class='slant fine'/>
    <line x1="139.52908" y1="192.5" x2="276.25406" y2="17.5" class='slant fine'/>
    <line x1="145.84465" y1="192.5" x2="282.56964" y2="17.5" class='slant fine'/>
    <line x1="152.16023" y1="192.5" x2="286.0" y2="21.1929" class='slant fine'/>
    <line x1="158.4758" y1="192.5" x2="286.0" y2="29.27647" class='slant fine'/>
    <line x1="164.79137" y1="192.5" x2="286.0" y2="37.36003" class='slant fine'/>
    <line x1="171.10694" y1="192.5" x2="286.0" y2="45.4436" class='slant fine'/>
    <line x1="177.42252" y1="192.5" x2="286.0" y2="53.52716" class='slant fine'/>
    <line x1="183.73809" y1="192.5" x2="286.0" y2="61.61072" class='slant fine'/>
    <line x1="190.05366" y1="192.5" x2="286.0" y2="69.69429" class='slant fine'/>
    <line x1="196.36924" y1="192.5" x2="286.0" y2="77.77785" class='slant fine'/>
    <line x1="202.68481" y1="192.5" x2="286.0" y2="85.86142" class='slant fine'/>
    <line x1="209.00038" y1="192.5" x2="286.0" y2="93.94498" class='slant fine'/>
    <line x1="215.31596" y1="192.5" x2="286.0" y2="102.02855" class='slant fine'/>
    <line x1="221.63153" y1="192.5" x2="286.0" y2="110.11211" class='slant fine'/>
    <line x1="227.9471" y1="192.5" x2="286.0" y2="118.19568" class='slant fine'/>
    <line x1="234.26267" y1="192.5" x2="286.0" y2="126.27924" class='slant fine'/>
    <line x1="240.57825" y1="192.5" x2="286.0" y2="134.36281" class='slant fine'/>
    <line x1="246.89382" y1="192.5" x2="286.0" y2="142.44637" class='slant fine'/>
    <line x1="253.20939" y1="192.5" x2="286.0" y2="150.52994" class='slant fine'/>
    <line x1="259.52497" y1="192.5" x2="286.0" y2="158.6135" class='slant fine'/>
    <line x1="265.84054" y1="192.5" x2="286.0" y2="166.69707" class='slant fine'/>
    <line x1="272.15611" y1="192.5" x2="286.0" y2="174.78063" class='slant fine'/>
    <line x1="278.47169" y1="192.5" x2="286.0" y2="182.8642" class='slant fine'/>
    <line x1="284.78726" y1="192.5" x2="286.0" y2="190.94776" class='slant fine'/>
    <line x1="11.0" y1="22.61982" x2="19.86779" y2="17.5" class='connective fine dashed'/>
    <line x1="11.0" y1="27.73964" x2="28.73557" y2="17.5" class='connective fine dashed'/>
    <line x1="11.0" y1="32.85946" x2="37.60336" y2="17.5" class='connective fine dashed'/>
    <line x1="11.0" y1="37.97927" x2="46.47114" y2="17.5" class='connective fine dashed'/>
    <line x1="11.0" y1="43.09909" x2="55.33893" y2="17.5" class='connective fine dashed'/>
    <line x1="11.0" y1="48.21891" x2="64.20671" y2="17.5" class='connective fine dashed'/>
    <line x1="11.0" y1="53.33873" x2="73.0745" y2="17.5" class='connective fine dashed'/>
    <line x1="11.0" y1="58.45855" x2="81.94228" y2="17.5" class='connective fine dashed'/>
    <line x1="11.0" y1="63.57837" x2="90.81007" y2="17.5" class='connective fine dashed'/>
    <line x1="11.0" y1="68.69818" x2="99.67786" y2="17.5" class='connective fine dashed'/>
    <line x1="11.0" y1="73.818" x2="108.54564" y2="17.5" class='connective fine dashed'/>
    <line x1="11.0" y1="78.93782" x2="117.41343" y2="17.5" class='connective fine dashed'/>
    <line x1="11.0" y1="84.05764" x2="126.28121" y2="17.5" class='connective fine dashed'/>
    <line x1="11.0" y1="89.17746" x2="135.149" y2="17.5" class='connective fine dashed'/>
    <line x1="11.0" y1="94.29728" x2="144.01678" y2="17.5" class='connective fine dashed'/>
    <line x1="11.0" y1="99.41709" x2="152.88457" y2="17.5" class='connective fine dashed'/>
    <line x1="11.0" y1="104.53691" x2="161.75235" y2="17.5" class='connective fine dashed'/>
    <line x1="11.0" y1="109.65673" x2="170.62014" y2="17.5" class='connective fine dashed'/>
    <line x1="11.0" y1="114.77655" x2="179.48793" y2="17.5" class='connective fine dashed'/>
    <line x1="11.0" y1="119.89637" x2="188.35571" y2="17.5" class='connective fine dashed'/>
    <line x1="11.0" y1="125.01619" x2="197.2235" y2="17.5" class='connective fine dashed'/>
    <line x1="11.0" y1="130.136" x2="206.09128" y2="17.5" class='connective fine dashed'/>
    <line x1="11.0" y1="135.25582" x2="214.95907" y2="17.5" class='connective fine dashed'/>
    <line x1="11.0" y1="140.37564" x2="223.82685" y2="17.5" class='connective fine dashed'/>
    <line x1="11.0" y1="145.49546" x2="232.69464" y2="17.5" class='connective fine dashed'/>
    <line x1="11.0" y1="150.61528" x2="241.56243" y2="17.5" class='connective fine dashed'/>
    <line x1="11.0" y1="155.7351" x2="250.43021" y2="17.5" class='connective fine dashed'/>
    <line x1="11.0" y1="160.85492" x2="259.298" y2="17.5" class='connective fine dashed'/>
    <line x1="11.0" y1="165.97473" x2="268.16578" y2="17.5" class='connective fine dashed'/>
    <line x1="11.0" y1="171.09455" x2="277.03357" y2="17.5" class='connective fine dashed'/>
    <line x1="11.0" y1="176.21437" x2="285.90135" y2="17.5" class='connective fine dashed'/>
    <line x1="11.0" y1="181.33419" x2="286.0" y2="22.56286" class='connective fine dashed'/>
    <line x1="11.0" y1="186.45401" x2="286.0" y2="27.68268" class='connective fine dashed'/>
    <line x1="11.0" y1="191.57383" x2="286.0" y2="32.8025" class='connective fine dashed'/>
    <line x1="18.2636" y1="192.5" x2="286.0" y2="37.92232" class='connective fine dashed'/>
    <line x1="27.13139" y1="192.5" x2="286.0" y2="43.04214" class='connective fine dashed'/>
    <line x1="35.99918" y1="192.5" x2="286.0" y2="48.16196" class='connective fine dashed'/>
    <line x1="44.86696" y1="192.5" x2="286.0" y2="53.28178" class='connective fine dashed'/>
    <line x1="53.73475" y1="192.5" x2="286.0" y2="58.40159" class='connective fine dashed'/>
    <line x1="62.60253" y1="192.5" x2="286.0" y2="63.52141" class='connective fine dashed'/>
    <line x1="71.47032" y1="192.5" x2="286.0" y2="68.64123" class='connective fine dashed'/>
    <line x1="80.3381" y1="192.5" x2="286.0" y2="73.76105" class='connective fine dashed'/>
    <line x1="89.20589" y1="192.5" x2="286.0" y2="78.88087" class='connective fine dashed'/>
    <line x1="98.07367" y1="192.5" x2="286.0" y2="84.00069" class='connective fine dashed'/>
    <line x1="106.94146" y1="192.5" x2="286.0" y2="89.1205" class='connective fine dashed'/>
    <line x1="115.80925" y1="192.5" x2="286.0" y2="94.24032" class='connective fine dashed'/>
    <line x1="124.67703" y1="192.5" x2="286.0" y2="99.36014" class='connective fine dashed'/>
    <line x1="133.54482" y1="192.5" x2="286.0" y2="104.47996" class='connective fine dashed'/>
    <line x1="142.4126" y1="192.5" x2="286.0" y2="109.59978" class='connective fine dashed'/>
    <line x1="151.28039" y1="192.5" x2="286.0" y2="114.7196" class='connective fine dashed'/>
    <line x1="160.14817" y1="192.5" x2="286.0" y2="119.83941" class='connective fine dashed'/>
    <line x1="169.01596" y1="192.5" x2="286.0" y2="124.95923" class='connective fine dashed'/>
    <line x1="177.88374" y1="192.5" x2="286.0" y2="130.07905" class='connective fine dashed'/>
    <line x1="186.75153" y1="192.5" x2="286.0" y2="135.19887" class='connective fine dashed'/>
    <line x1="195.61932" y1="192.5" x2="286.0" y2="140.31869" class='connective fine dashed'/>
    <line x1="204.4871" y1="192.5" x2="286.0" y2="145.43851" class='connective fine dashed'/>
    <line x1="213.35489" y1="192.5" x2="286.0" y2="150.55832" class='connective fine dashed'/>
    <line x1="222.22267" y1="192.5" x2="286.0" y2="155.67814" class='connective fine dashed'/>
    <line x1="231.09046" y1="192.5" x2="286.0" y2="160.79796" class='connective fine dashed'/>
    <line x1="239.95824" y1="192.5" x2="286.0" y2="165.91778" class='connective fine dashed'/>
    <line x1="248.82603" y1="192.5" x2="286.0" y2="171.0376" class='connective fine dashed'/>
    <line x1="257.69382" y1="192.5" x2="286.0" y2="176.15742" class='connective fine dashed'/>
    <line x1="266.5616" y1="192.5" x2="286.0" y2="181.27723" class='connective fine dashed'/>
    <line x1="275.42939" y1="192.5" x2="286.0" y2="186.39705" class='connective fine dashed'/>
    <line x1="284.29717" y1="192.5" x2="286.0" y2="191.51687" class='connective fine dashed'/>
  </g>
</svg>
