<?xml version="1.0" standalone="no"?>
<!DOCTYPE svg PUBLIC "-//W3C//DTD SVG 1.1//EN" "http://www.w3.org/Graphics/SVG/1.1/DTD/svg11.dtd">
<svg xmlns="http://www.w3.org/2000/svg" width="297.0mm" height="210.0mm" viewBox="0 0 297.0 210.0" >

  <g id="sheet">
    <line x1="8.5" y1="17.5" x2="288.5" y2="17.5" stroke='blue' stroke-width='0.2' tags='ascender2'/>
    <line x1="8.5" y1="24.5" x2="288.5" y2="24.5" stroke='grey' stroke-width='0.1' stroke-dasharray='2, 2' tags='ascender1'/>
    <line x1="8.5" y1="31.5" x2="288.5" y2="31.5" stroke='grey' stroke-width='0.1' tags='waist'/>
    <line x1="8.5" y1="38.5" x2="288.5" y2="38.5" stroke='red' stroke-width='0.1' tags='base'/>
    <line x1="8.5" y1="45.5" x2="288.5" y2="45.5" stroke='grey' stroke-width='0.1' stroke-dasharray='2, 2' tags='descender1'/>
    <line x1="8.5" y1="52.5" x2="288.5" y2="52.5" stroke='blue' stroke-width='0.2' tags='descender2'/>
    <line x1="8.5" y1="59.5" x2="288.5" y2="59.5" stroke='grey' stroke-width='0.1' stroke-dasharray='2, 2' tags='ascender1'/>
    <line x1="8.5" y1="66.5" x2="288.5" y2="66.5" stroke='grey' stroke-width='0.1' tags='waist'/>
    <line x1="8.5" y1="73.5" x2="288.5" y2="73.5" stroke='red' stroke-width='0.1' tags='base'/>
    <line x1="8.5" y1="80.5" x2="288.5" y2="80.5" stroke='grey' stroke-width='0.1' stroke-dasharray='2, 2' tags='descender1'/>
    <line x1="8.5" y1="87.5" x2="288.5" y2="87.5" stroke='blue' stroke-width='0.2' tags='descender2'/>
    <line x1="8.5" y1="94.5" x2="288.5" y2="94.5" stroke='grey' stroke-width='0.1' stroke-dasharray='2, 2' tags='ascender1'/>
    <line x1="8.5" y1="101.5" x2="288.5" y2="101.5" stroke='grey' stroke-width='0.1' tags='waist'/>
    <line x1="8.5" y1="108.5" x2="288.5" y2="108.5" stroke='red' stroke-width='0.1' tags='base'/>
    <line x1="8.5" y1="115.5" x2="288.5" y2="115.5" stroke='grey' stroke-width='0.1' stroke-dasharray='2, 2' tags='descender1'/>
    <line x1="8.5" y1="122.5" x2="288.5" y2="122.5" stroke='blue' stroke-width='0.2' tags='descender2'/>
    <line x1="8.5" y1="129.5" x2="288.5" y2="129.5" stroke='grey' stroke-width='0.1' stroke-dasharray='2, 2' tags='ascender1'/>
    <line x1="8.5" y1="136.5" x2="288.5" y2="136.5" stroke='grey' stroke-width='0.1' tags='waist'/>
    <line x1="8.5" y1="143.5" x2="288.5" y2="143.5" stroke='red' stroke-width='0.1' tags='base'/>
    <line x1="8.5" y1="150.5" x2="288.5" y2="150.5" stroke='grey' stroke-width='0.1' stroke-dasharray='2, 2' tags='descender1'/>
    <line x1="8.5" y1="157.5" x2="288.5" y2="157.5" stroke='blue' stroke-width='0.2' tags='descender2'/>
    <line x1="8.5" y1="164.5" x2="288.5" y2="164.5" stroke='grey' stroke-width='0.1' stroke-dasharray='2, 2' tags='ascender1'/>
    <line x1="8.5" y1="171.5" x2="288.5" y2="171.5" stroke='grey' stroke-width='0.1' tags='waist'/>
    <line x1="8.5" y1="178.5" x2="288.5" y2="178.5" stroke='red' stroke-width='0.1' tags='base'/>
    <line x1="8.5" y1="185.5" x2="288.5" y2="185.5" stroke='grey' stroke-width='0.1' stroke-dasharray='2, 2' tags='descender1'/>
    <line x1="8.5" y1="192.5" x2="288.5" y2="192.5" stroke='blue' stroke-width='0.2' tags='descender2'/>
    <line x1="8.5" y1="17.5" x2="8.5" y2="17.5" stroke='blue' stroke-width='0.1' tags='slant'/>
    <line x1="8.5" y1="28.80771" x2="17.33455" y2="17.5" stroke='blue' stroke-width='0.1' tags='slant'/>
    <line x1="8.5" y1="40.11542" x2="26.1691" y2="17.5" stroke='blue' stroke-width='0.1' tags='slant'/>
    <line x1="8.5" y1="51.42313" x2="35.00366" y2="17.5" stroke='blue' stroke-width='0.1' tags='slant'/>
    <line x1="8.5" y1="62.73084" x2="43.83821" y2="17.5" stroke='blue' stroke-width='0.1' tags='slant'/>
    <line x1="8.5" y1="74.03855" x2="52.67276" y2="17.5" stroke='blue' stroke-width='0.1' tags='slant'/>
    <line x1="8.5" y1="85.34627" x2="61.50731" y2="17.5" stroke='blue' stroke-width='0.1' tags='slant'/>
    <line x1="8.5" y1="96.65398" x2="70.34186" y2="17.5" stroke='blue' stroke-width='0.1' tags='slant'/>
    <line x1="8.5" y1="107.96169" x2="79.17642" y2="17.5" stroke='blue' stroke-width='0.1' tags='slant'/>
    <line x1="8.5" y1="119.2694" x2="88.01097" y2="17.5" stroke='blue' stroke-width='0.1' tags='slant'/>
    <line x1="8.5" y1="130.57711" x2="96.84552" y2="17.5" stroke='blue' stroke-width='0.1' tags='slant'/>
    <line x1="8.5" y1="141.88482" x2="105.68007" y2="17.5" stroke='blue' stroke-width='0.1' tags='slant'/>
    <line x1="8.5" y1="153.19253" x2="114.51462" y2="17.5" stroke='blue' stroke-width='0.1' tags='slant'/>
    <line x1="8.5" y1="164.50024" x2="123.34918" y2="17.5" stroke='blue' stroke-width='0.1' tags='slant'/>
    <line x1="8.5" y1="175.80795" x2="132.18373" y2="17.5" stroke='blue' stroke-width='0.1' tags='slant'/>
    <line x1="8.5" y1="187.11566" x2="141.01828" y2="17.5" stroke='blue' stroke-width='0.1' tags='slant'/>
    <line x1="13.12785" y1="192.5" x2="149.85283" y2="17.5" stroke='blue' stroke-width='0.1' tags='slant'/>
    <line x1="21.9624" y1="192.5" x2="158.68738" y2="17.5" stroke='blue' stroke-width='0.1' tags='slant'/>
    <line x1="30.79695" y1="192.5" x2="167.52194" y2="17.5" stroke='blue' stroke-width='0.1' tags='slant'/>
    <line x1="39.6315" y1="192.5" x2="176.35649" y2="17.5" stroke='blue' stroke-width='0.1' tags='slant'/>
    <line x1="48.46606" y1="192.5" x2="185.19104" y2="17.5" stroke='blue' stroke-width='0.1' tags='slant'/>
    <line x1="57.30061" y1="192.5" x2="194.02559" y2="17.5" stroke='blue' stroke-width='0.1' tags='slant'/>
    <line x1="66.13516" y1="192.5" x2="202.86014" y2="17.5" stroke='blue' stroke-width='0.1' tags='slant'/>
    <line x1="74.96971" y1="192.5" x2="211.6947" y2="17.5" stroke='blue' stroke-width='0.1' tags='slant'/>
    <line x1="83.80426" y1="192.5" x2="220.52925" y2="17.5" stroke='blue' stroke-width='0.1' tags='slant'/>
    <line x1="92.63882" y1="192.5" x2="229.3638" y2="17.5" stroke='blue' stroke-width='0.1' tags='slant'/>
    <line x1="101.47337" y1="192.5" x2="238.19835" y2="17.5" stroke='blue' stroke-width='0.1' tags='slant'/>
    <line x1="110.30792" y1="192.5" x2="247.0329" y2="17.5" stroke='blue' stroke-width='0.1' tags='slant'/>
    <line x1="119.14247" y1="192.5" x2="255.86746" y2="17.5" stroke='blue' stroke-width='0.1' tags='slant'/>
    <line x1="127.97702" y1="192.5" x2="264.70201" y2="17.5" stroke='blue' stroke-width='0.1' tags='slant'/>
    <line x1="136.81158" y1="192.5" x2="273.53656" y2="17.5" stroke='blue' stroke-width='0.1' tags='slant'/>
    <line x1="145.64613" y1="192.5" x2="282.37111" y2="17.5" stroke='blue' stroke-width='0.1' tags='slant'/>
    <line x1="154.48068" y1="192.5" x2="288.5" y2="20.96309" stroke='blue' stroke-width='0.1' tags='slant'/>
    <line x1="163.31523" y1="192.5" x2="288.5" y2="32.2708" stroke='blue' stroke-width='0.1' tags='slant'/>
    <line x1="172.14978" y1="192.5" x2="288.5" y2="43.57851" stroke='blue' stroke-width='0.1' tags='slant'/>
    <line x1="180.98434" y1="192.5" x2="288.5" y2="54.88622" stroke='blue' stroke-width='0.1' tags='slant'/>
    <line x1="189.81889" y1="192.5" x2="288.5" y2="66.19394" stroke='blue' stroke-width='0.1' tags='slant'/>
    <line x1="198.65344" y1="192.5" x2="288.5" y2="77.50165" stroke='blue' stroke-width='0.1' tags='slant'/>
    <line x1="207.48799" y1="192.5" x2="288.5" y2="88.80936" stroke='blue' stroke-width='0.1' tags='slant'/>
    <line x1="216.32254" y1="192.5" x2="288.5" y2="100.11707" stroke='blue' stroke-width='0.1' tags='slant'/>
    <line x1="225.1571" y1="192.5" x2="288.5" y2="111.42478" stroke='blue' stroke-width='0.1' tags='slant'/>
    <line x1="233.99165" y1="192.5" x2="288.5" y2="122.73249" stroke='blue' stroke-width='0.1' tags='slant'/>
    <line x1="242.8262" y1="192.5" x2="288.5" y2="134.0402" stroke='blue' stroke-width='0.1' tags='slant'/>
    <line x1="251.66075" y1="192.5" x2="288.5" y2="145.34791" stroke='blue' stroke-width='0.1' tags='slant'/>
    <line x1="260.4953" y1="192.5" x2="288.5" y2="156.65562" stroke='blue' stroke-width='0.1' tags='slant'/>
    <line x1="269.32986" y1="192.5" x2="288.5" y2="167.96333" stroke='blue' stroke-width='0.1' tags='slant'/>
    <line x1="278.16441" y1="192.5" x2="288.5" y2="179.27104" stroke='blue' stroke-width='0.1' tags='slant'/>
    <line x1="286.99896" y1="192.5" x2="288.5" y2="190.57876" stroke='blue' stroke-width='0.1' tags='slant'/>
    <line x1="8.5" y1="24.63714" x2="20.86188" y2="17.5" stroke='blue' stroke-width='0.07' stroke-dasharray='2, 2' tags='connective'/>
    <line x1="8.5" y1="31.77427" x2="33.22377" y2="17.5" stroke='blue' stroke-width='0.07' stroke-dasharray='2, 2' tags='connective'/>
    <line x1="8.5" y1="38.91141" x2="45.58565" y2="17.5" stroke='blue' stroke-width='0.07' stroke-dasharray='2, 2' tags='connective'/>
    <line x1="8.5" y1="46.04855" x2="57.94754" y2="17.5" stroke='blue' stroke-width='0.07' stroke-dasharray='2, 2' tags='connective'/>
    <line x1="8.5" y1="53.18568" x2="70.30942" y2="17.5" stroke='blue' stroke-width='0.07' stroke-dasharray='2, 2' tags='connective'/>
    <line x1="8.5" y1="60.32282" x2="82.6713" y2="17.5" stroke='blue' stroke-width='0.07' stroke-dasharray='2, 2' tags='connective'/>
    <line x1="8.5" y1="67.45996" x2="95.03319" y2="17.5" stroke='blue' stroke-width='0.07' stroke-dasharray='2, 2' tags='connective'/>
    <line x1="8.5" y1="74.5971" x2="107.39507" y2="17.5" stroke='blue' stroke-width='0.07' stroke-dasharray='2, 2' tags='connective'/>
    <line x1="8.5" y1="81.73423" x2="119.75695" y2="17.5" stroke='blue' stroke-width='0.07' stroke-dasharray='2, 2' tags='connective'/>
    <line x1="8.5" y1="88.87137" x2="132.11884" y2="17.5" stroke='blue' stroke-width='0.07' stroke-dasharray='2, 2' tags='connective'/>
    <line x1="8.5" y1="96.00851" x2="144.48072" y2="17.5" stroke='blue' stroke-width='0.07' stroke-dasharray='2, 2' tags='connective'/>
    <line x1="8.5" y1="103.14564" x2="156.84261" y2="17.5" stroke='blue' stroke-width='0.07' stroke-dasharray='2, 2' tags='connective'/>
    <line x1="8.5" y1="110.28278" x2="169.20449" y2="17.5" stroke='blue' stroke-width='0.07' stroke-dasharray='2, 2' tags='connective'/>
    <line x1="8.5" y1="117.41992" x2="181.56637" y2="17.5" stroke='blue' stroke-width='0.07' stroke-dasharray='2, 2' tags='connective'/>
    <line x1="8.5" y1="124.55705" x2="193.92826" y2="17.5" stroke='blue' stroke-width='0.07' stroke-dasharray='2, 2' tags='connective'/>
    <line x1="8.5" y1="131.69419" x2="206.29014" y2="17.5" stroke='blue' stroke-width='0.07' stroke-dasharray='2, 2' tags='connective'/>
    <line x1="8.5" y1="138.83133" x2="218.65202" y2="17.5" stroke='blue' stroke-width='0.07' stroke-dasharray='2, 2' tags='connective'/>
    <line x1="8.5" y1="145.96846" x2="231.01391" y2="17.5" stroke='blue' stroke-width='0.07' stroke-dasharray='2, 2' tags='connective'/>
    <line x1="8.5" y1="153.1056" x2="243.37579" y2="17.5" stroke='blue' stroke-width='0.07' stroke-dasharray='2, 2' tags='connective'/>
    <line x1="8.5" y1="160.24274" x2="255.73768" y2="17.5" stroke='blue' stroke-width='0.07' stroke-dasharray='2, 2' tags='connective'/>
    <line x1="8.5" y1="167.37988" x2="268.09956" y2="17.5" stroke='blue' stroke-width='0.07' stroke-dasharray='2, 2' tags='connective'/>
    <line x1="8.5" y1="174.51701" x2="280.46144" y2="17.5" stroke='blue' stroke-width='0.07' stroke-dasharray='2, 2' tags='connective'/>
    <line x1="8.5" y1="181.65415" x2="288.5" y2="19.99607" stroke='blue' stroke-width='0.07' stroke-dasharray='2, 2' tags='connective'/>
    <line x1="8.5" y1="188.79129" x2="288.5" y2="27.13321" stroke='blue' stroke-width='0.07' stroke-dasharray='2, 2' tags='connective'/>
    <line x1="14.4382" y1="192.5" x2="288.5" y2="34.27035" stroke='blue' stroke-width='0.07' stroke-dasharray='2, 2' tags='connective'/>
    <line x1="26.80009" y1="192.5" x2="288.5" y2="41.40748" stroke='blue' stroke-width='0.07' stroke-dasharray='2, 2' tags='connective'/>
    <line x1="39.16197" y1="192.5" x2="288.5" y2="48.54462" stroke='blue' stroke-width='0.07' stroke-dasharray='2, 2' tags='connective'/>
    <line x1="51.52385" y1="192.5" x2="288.5" y2="55.68176" stroke='blue' stroke-width='0.07' stroke-dasharray='2, 2' tags='connective'/>
    <line x1="63.88574" y1="192.5" x2="288.5" y2="62.8189" stroke='blue' stroke-width='0.07' stroke-dasharray='2, 2' tags='connective'/>
    <line x1="76.24762" y1="192.5" x2="288.5" y2="69.95603" stroke='blue' stroke-width='0.07' stroke-dasharray='2, 2' tags='connective'/>
    <line x1="88.60951" y1="192.5" x2="288.5" y2="77.09317" stroke='blue' stroke-width='0.07' stroke-dasharray='2, 2' tags='connective'/>
    <line x1="100.97139" y1="192.5" x2="288.5" y2="84.23031" stroke='blue' stroke-width='0.07' stroke-dasharray='2, 2' tags='connective'/>
    <line x1="113.33327" y1="192.5" x2="288.5" y2="91.36744" stroke='blue' stroke-width='0.07' stroke-dasharray='2, 2' tags='connective'/>
    <line x1="125.69516" y1="192.5" x2="288.5" y2="98.50458" stroke='blue' stroke-width='0.07' stroke-dasharray='2, 2' tags='connective'/>
    <line x1="138.05704" y1="192.5" x2="288.5" y2="105.64172" stroke='blue' stroke-width='0.07' stroke-dasharray='2, 2' tags='connective'/>
    <line x1="150.41892" y1="192.5" x2="288.5" y2="112.77885" stroke='blue' stroke-width='0.07' stroke-dasharray='2, 2' tags='connective'/>
    <line x1="162.78081" y1="192.5" x2="288.5" y2="119.91599" stroke='blue' stroke-width='0.07' stroke-dasharray='2, 2' tags='connective'/>
    <line x1="175.14269" y1="192.5" x2="288.5" y2="127.05313" stroke='blue' stroke-width='0.07' stroke-dasharray='2, 2' tags='connective'/>
    <line x1="187.50458" y1="192.5" x2="288.5" y2="134.19026" stroke='blue' stroke-width='0.07' stroke-dasharray='2, 2' tags='connective'/>
    <line x1="199.86646" y1="192.5" x2="288.5" y2="141.3274" stroke='blue' stroke-width='0.07' stroke-dasharray='2, 2' tags='connective'/>
    <line x1="212.22834" y1="192.5" x2="288.5" y2="148.46454" stroke='blue' stroke-width='0.07' stroke-dasharray='2, 2' tags='connective'/>
    <line x1="224.59023" y1="192.5" x2="288.5" y2="155.60168" stroke='blue' stroke-width='0.07' stroke-dasharray='2, 2' tags='connective'/>
    <line x1="236.95211" y1="192.5" x2="288.5" y2="162.73881" stroke='blue' stroke-width='0.07' stroke-dasharray='2, 2' tags='connective'/>
    <line x1="249.31399" y1="192.5" x2="288.5" y2="169.87595" stroke='blue' stroke-width='0.07' stroke-dasharray='2, 2' tags='connective'/>
    <line x1="261.67588" y1="192.5" x2="288.5" y2="177.01309" stroke='blue' stroke-width='0.07' stroke-dasharray='2, 2' tags='connective'/>
    <line x1="274.03776" y1="192.5" x2="288.5" y2="184.15022" stroke='blue' stroke-width='0.07' stroke-dasharray='2, 2' tags='connective'/>
    <line x1="286.39965" y1="192.5" x2="288.5" y2="191.28736" stroke='blue' stroke-width='0.07' stroke-dasharray='2, 2' tags='connective'/>
  </g>
</svg>
