<?xml version="1.0" standalone="no"?>
<!DOCTYPE svg PUBLIC "-//W3C//DTD SVG 1.1//EN" "http://www.w3.org/Graphics/SVG/1.1/DTD/svg11.dtd">
<svg xmlns="http://www.w3.org/2000/svg" width="297.0mm" height="210.0mm" viewBox="0 0 297.0 210.0" >

  <g id="sheet">
    <line x1="13.5" y1="17.5" x2="283.5" y2="17.5" stroke='blue' stroke-width='0.1' tags='hline'/>
    <line x1="13.5" y1="22.5" x2="283.5" y2="22.5" stroke='blue' stroke-width='0.1' tags='hline'/>
    <line x1="13.5" y1="27.5" x2="283.5" y2="27.5" stroke='blue' stroke-width='0.1' tags='hline'/>
    <line x1="13.5" y1="32.5" x2="283.5" y2="32.5" stroke='blue' stroke-width='0.1' tags='hline'/>
    <line x1="13.5" y1="37.5" x2="283.5" y2="37.5" stroke='blue' stroke-width='0.1' tags='hline'/>
    <line x1="13.5" y1="42.5" x2="283.5" y2="42.5" stroke='blue' stroke-width='0.1' tags='hline'/>
    <line x1="13.5" y1="47.5" x2="283.5" y2="47.5" stroke='blue' stroke-width='0.1' tags='hline'/>
    <line x1="13.5" y1="52.5" x2="283.5" y2="52.5" stroke='blue' stroke-width='0.1' tags='hline'/>
    <line x1="13.5" y1="57.5" x2="283.5" y2="57.5" stroke='blue' stroke-width='0.1' tags='hline'/>
    <line x1="13.5" y1="62.5" x2="283.5" y2="62.5" stroke='blue' stroke-width='0.1' tags='hline'/>
    <line x1="13.5" y1="67.5" x2="283.5" y2="67.5" stroke='blue' stroke-width='0.1' tags='hline'/>
    <line x1="13.5" y1="72.5" x2="283.5" y2="72.5" stroke='blue' stroke-width='0.1' tags='hline'/>
    <line x1="13.5" y1="77.5" x2="283.5" y2="77.5" stroke='blue' stroke-width='0.1' tags='hline'/>
    <line x1="13.5" y1="82.5" x2="283.5" y2="82.5" stroke='blue' stroke-width='0.1' tags='hline'/>
    <line x1="13.5" y1="87.5" x2="283.5" y2="87.5" stroke='blue' stroke-width='0.1' tags='hline'/>
    <line x1="13.5" y1="92.5" x2="283.5" y2="92.5" stroke='blue' stroke-width='0.1' tags='hline'/>
    <line x1="13.5" y1="97.5" x2="283.5" y2="97.5" stroke='blue' stroke-width='0.1' tags='hline'/>
    <line x1="13.5" y1="102.5" x2="283.5" y2="102.5" stroke='blue' stroke-width='0.1' tags='hline'/>
    <line x1="13.5" y1="107.5" x2="283.5" y2="107.5" stroke='blue' stroke-width='0.1' tags='hline'/>
    <line x1="13.5" y1="112.5" x2="283.5" y2="112.5" stroke='blue' stroke-width='0.1' tags='hline'/>
    <line x1="13.5" y1="117.5" x2="283.5" y2="117.5" stroke='blue' stroke-width='0.1' tags='hline'/>
    <line x1="13.5" y1="122.5" x2="283.5" y2="122.5" stroke='blue' stroke-width='0.1' tags='hline'/>
    <line x1="13.5" y1="127.5" x2="283.5" y2="127.5" stroke='blue' stroke-width='0.1' tags='hline'/>
    <line x1="13.5" y1="132.5" x2="283.5" y2="132.5" stroke='blue' stroke-width='0.1' tags='hline'/>
    <line x1="13.5" y1="137.5" x2="283.5" y2="137.5" stroke='blue' stroke-width='0.1' tags='hline'/>
    <line x1="13.5" y1="142.5" x2="283.5" y2="142.5" stroke='blue' stroke-width='0.1' tags='hline'/>
    <line x1="13.5" y1="147.5" x2="283.5" y2="147.5" stroke='blue' stroke-width='0.1' tags='hline'/>
    <line x1="13.5" y1="152.5" x2="283.5" y2="152.5" stroke='blue' stroke-width='0.1' tags='hline'/>
    <line x1="13.5" y1="157.5" x2="283.5" y2="157.5" stroke='blue' stroke-width='0.1' tags='hline'/>
    <line x1="13.5" y1="162.5" x2="283.5" y2="162.5" stroke='blue' stroke-width='0.1' tags='hline'/>
    <line x1="13.5" y1="167.5" x2="283.5" y2="167.5" stroke='blue' stroke-width='0.1' tags='hline'/>
    <line x1="13.5" y1="172.5" x2="283.5" y2="172.5" stroke='blue' stroke-width='0.1' tags='hline'/>
    <line x1="13.5" y1="177.5" x2="283.5" y2="177.5" stroke='blue' stroke-width='0.1' tags='hline'/>
    <line x1="13.5" y1="182.5" x2="283.5" y2="182.5" stroke='blue' stroke-width='0.1' tags='hline'/>
    <line x1="13.5" y1="187.5" x2="283.5" y2="187.5" stroke='blue' stroke-width='0.1' tags='hline'/>
    <line x1="13.5" y1="192.5" x2="283.5" y2="192.5" stroke='blue' stroke-width='0.1' tags='hline'/>
  </g>
</svg>
