<?xml version="1.0" standalone="no"?>
<!DOCTYPE svg PUBLIC "-//W3C//DTD SVG 1.1//EN" "http://www.w3.org/Graphics/SVG/1.1/DTD/svg11.dtd">
<svg xmlns="http://www.w3.org/2000/svg" width="210.0mm" height="297.0mm" viewBox="0 0 210.0 297.0" shape-rendering="geometricPrecision" >
  <style>
    svg         { stroke:            #ed008c; }
    svg         { stroke-width:         0.04; }
    .altcolor   { stroke:               blue; }
    .extrafine  { stroke-width:         0.01; }
    .fine       { stroke-width:         0.02; }
    .medium     { stroke-width:         0.04; }
    .broad      { stroke-width:         0.08; }
    .extrabroad { stroke-width:         0.16; }
    .dashed     { stroke-dasharray:      2 2; }
  </style>
  <g id="sheet">
    <line x1="7.0" y1="22.5" x2="203.0" y2="22.5" class='ascender2 broad'/>
    <line x1="7.0" y1="27.75" x2="203.0" y2="27.75" class='ascender1 dashed'/>
    <line x1="7.0" y1="33.0" x2="203.0" y2="33.0" class='waist altcolor'/>
    <line x1="7.0" y1="40.0" x2="203.0" y2="40.0" class='base'/>
    <line x1="7.0" y1="45.25" x2="203.0" y2="45.25" class='descender1 dashed'/>
    <line x1="7.0" y1="50.5" x2="203.0" y2="50.5" class='descender2 broad'/>
    <line x1="7.0" y1="55.75" x2="203.0" y2="55.75" class='ascender1 dashed'/>
    <line x1="7.0" y1="61.0" x2="203.0" y2="61.0" class='waist altcolor'/>
    <line x1="7.0" y1="68.0" x2="203.0" y2="68.0" class='base'/>
    <line x1="7.0" y1="73.25" x2="203.0" y2="73.25" class='descender1 dashed'/>
    <line x1="7.0" y1="78.5" x2="203.0" y2="78.5" class='descender2 broad'/>
    <line x1="7.0" y1="83.75" x2="203.0" y2="83.75" class='ascender1 dashed'/>
    <line x1="7.0" y1="89.0" x2="203.0" y2="89.0" class='waist altcolor'/>
    <line x1="7.0" y1="96.0" x2="203.0" y2="96.0" class='base'/>
    <line x1="7.0" y1="101.25" x2="203.0" y2="101.25" class='descender1 dashed'/>
    <line x1="7.0" y1="106.5" x2="203.0" y2="106.5" class='descender2 broad'/>
    <line x1="7.0" y1="111.75" x2="203.0" y2="111.75" class='ascender1 dashed'/>
    <line x1="7.0" y1="117.0" x2="203.0" y2="117.0" class='waist altcolor'/>
    <line x1="7.0" y1="124.0" x2="203.0" y2="124.0" class='base'/>
    <line x1="7.0" y1="129.25" x2="203.0" y2="129.25" class='descender1 dashed'/>
    <line x1="7.0" y1="134.5" x2="203.0" y2="134.5" class='descender2 broad'/>
    <line x1="7.0" y1="139.75" x2="203.0" y2="139.75" class='ascender1 dashed'/>
    <line x1="7.0" y1="145.0" x2="203.0" y2="145.0" class='waist altcolor'/>
    <line x1="7.0" y1="152.0" x2="203.0" y2="152.0" class='base'/>
    <line x1="7.0" y1="157.25" x2="203.0" y2="157.25" class='descender1 dashed'/>
    <line x1="7.0" y1="162.5" x2="203.0" y2="162.5" class='descender2 broad'/>
    <line x1="7.0" y1="167.75" x2="203.0" y2="167.75" class='ascender1 dashed'/>
    <line x1="7.0" y1="173.0" x2="203.0" y2="173.0" class='waist altcolor'/>
    <line x1="7.0" y1="180.0" x2="203.0" y2="180.0" class='base'/>
    <line x1="7.0" y1="185.25" x2="203.0" y2="185.25" class='descender1 dashed'/>
    <line x1="7.0" y1="190.5" x2="203.0" y2="190.5" class='descender2 broad'/>
    <line x1="7.0" y1="195.75" x2="203.0" y2="195.75" class='ascender1 dashed'/>
    <line x1="7.0" y1="201.0" x2="203.0" y2="201.0" class='waist altcolor'/>
    <line x1="7.0" y1="208.0" x2="203.0" y2="208.0" class='base'/>
    <line x1="7.0" y1="213.25" x2="203.0" y2="213.25" class='descender1 dashed'/>
    <line x1="7.0" y1="218.5" x2="203.0" y2="218.5" class='descender2 broad'/>
    <line x1="7.0" y1="223.75" x2="203.0" y2="223.75" class='ascender1 dashed'/>
    <line x1="7.0" y1="229.0" x2="203.0" y2="229.0" class='waist altcolor'/>
    <line x1="7.0" y1="236.0" x2="203.0" y2="236.0" class='base'/>
    <line x1="7.0" y1="241.25" x2="203.0" y2="241.25" class='descender1 dashed'/>
    <line x1="7.0" y1="246.5" x2="203.0" y2="246.5" class='descender2 broad'/>
    <line x1="7.0" y1="251.75" x2="203.0" y2="251.75" class='ascender1 dashed'/>
    <line x1="7.0" y1="257.0" x2="203.0" y2="257.0" class='waist altcolor'/>
    <line x1="7.0" y1="264.0" x2="203.0" y2="264.0" class='base'/>
    <line x1="7.0" y1="269.25" x2="203.0" y2="269.25" class='descender1 dashed'/>
    <line x1="7.0" y1="274.5" x2="203.0" y2="274.5" class='descender2 broad'/>
    <line x1="7.0" y1="22.5" x2="7.0" y2="22.5" class='slant fine'/>
    <line x1="7.0" y1="34.16305" x2="15.16656" y2="22.5" class='slant fine'/>
    <line x1="7.0" y1="45.8261" x2="23.33311" y2="22.5" class='slant fine'/>
    <line x1="7.0" y1="57.48916" x2="31.49967" y2="22.5" class='slant fine'/>
    <line x1="7.0" y1="69.15221" x2="39.66623" y2="22.5" class='slant fine'/>
    <line x1="7.0" y1="80.81526" x2="47.83278" y2="22.5" class='slant fine'/>
    <line x1="7.0" y1="92.47831" x2="55.99934" y2="22.5" class='slant fine'/>
    <line x1="7.0" y1="104.14136" x2="64.1659" y2="22.5" class='slant fine'/>
    <line x1="7.0" y1="115.80442" x2="72.33246" y2="22.5" class='slant fine'/>
    <line x1="7.0" y1="127.46747" x2="80.49901" y2="22.5" class='slant fine'/>
    <line x1="7.0" y1="139.13052" x2="88.66557" y2="22.5" class='slant fine'/>
    <line x1="7.0" y1="150.79357" x2="96.83213" y2="22.5" class='slant fine'/>
    <line x1="7.0" y1="162.45662" x2="104.99868" y2="22.5" class='slant fine'/>
    <line x1="7.0" y1="174.11968" x2="113.16524" y2="22.5" class='slant fine'/>
    <line x1="7.0" y1="185.78273" x2="121.3318" y2="22.5" class='slant fine'/>
    <line x1="7.0" y1="197.44578" x2="129.49835" y2="22.5" class='slant fine'/>
    <line x1="7.0" y1="209.10883" x2="137.66491" y2="22.5" class='slant fine'/>
    <line x1="7.0" y1="220.77188" x2="145.83147" y2="22.5" class='slant fine'/>
    <line x1="7.0" y1="232.43494" x2="153.99802" y2="22.5" class='slant fine'/>
    <line x1="7.0" y1="244.09799" x2="162.16458" y2="22.5" class='slant fine'/>
    <line x1="7.0" y1="255.76104" x2="170.33114" y2="22.5" class='slant fine'/>
    <line x1="7.0" y1="267.42409" x2="178.4977" y2="22.5" class='slant fine'/>
    <line x1="10.21195" y1="274.5" x2="186.66425" y2="22.5" class='slant fine'/>
    <line x1="18.37851" y1="274.5" x2="194.83081" y2="22.5" class='slant fine'/>
    <line x1="26.54507" y1="274.5" x2="202.99737" y2="22.5" class='slant fine'/>
    <line x1="34.71162" y1="274.5" x2="203.0" y2="34.15929" class='slant fine'/>
    <line x1="42.87818" y1="274.5" x2="203.0" y2="45.82234" class='slant fine'/>
    <line x1="51.04474" y1="274.5" x2="203.0" y2="57.48539" class='slant fine'/>
    <line x1="59.21129" y1="274.5" x2="203.0" y2="69.14845" class='slant fine'/>
    <line x1="67.37785" y1="274.5" x2="203.0" y2="80.8115" class='slant fine'/>
    <line x1="75.54441" y1="274.5" x2="203.0" y2="92.47455" class='slant fine'/>
    <line x1="83.71096" y1="274.5" x2="203.0" y2="104.1376" class='slant fine'/>
    <line x1="91.87752" y1="274.5" x2="203.0" y2="115.80065" class='slant fine'/>
    <line x1="100.04408" y1="274.5" x2="203.0" y2="127.46371" class='slant fine'/>
    <line x1="108.21064" y1="274.5" x2="203.0" y2="139.12676" class='slant fine'/>
    <line x1="116.37719" y1="274.5" x2="203.0" y2="150.78981" class='slant fine'/>
    <line x1="124.54375" y1="274.5" x2="203.0" y2="162.45286" class='slant fine'/>
    <line x1="132.71031" y1="274.5" x2="203.0" y2="174.11591" class='slant fine'/>
    <line x1="140.87686" y1="274.5" x2="203.0" y2="185.77897" class='slant fine'/>
    <line x1="149.04342" y1="274.5" x2="203.0" y2="197.44202" class='slant fine'/>
    <line x1="157.20998" y1="274.5" x2="203.0" y2="209.10507" class='slant fine'/>
    <line x1="165.37653" y1="274.5" x2="203.0" y2="220.76812" class='slant fine'/>
    <line x1="173.54309" y1="274.5" x2="203.0" y2="232.43117" class='slant fine'/>
    <line x1="181.70965" y1="274.5" x2="203.0" y2="244.09423" class='slant fine'/>
    <line x1="189.8762" y1="274.5" x2="203.0" y2="255.75728" class='slant fine'/>
    <line x1="198.04276" y1="274.5" x2="203.0" y2="267.42033" class='slant fine'/>
    <line x1="7.0" y1="33.14713" x2="15.934" y2="22.5" class='connective fine dashed'/>
    <line x1="7.0" y1="43.79425" x2="24.868" y2="22.5" class='connective fine dashed'/>
    <line x1="7.0" y1="54.44138" x2="33.802" y2="22.5" class='connective fine dashed'/>
    <line x1="7.0" y1="65.08851" x2="42.736" y2="22.5" class='connective fine dashed'/>
    <line x1="7.0" y1="75.73564" x2="51.67" y2="22.5" class='connective fine dashed'/>
    <line x1="7.0" y1="86.38276" x2="60.604" y2="22.5" class='connective fine dashed'/>
    <line x1="7.0" y1="97.02989" x2="69.538" y2="22.5" class='connective fine dashed'/>
    <line x1="7.0" y1="107.67702" x2="78.472" y2="22.5" class='connective fine dashed'/>
    <line x1="7.0" y1="118.32414" x2="87.406" y2="22.5" class='connective fine dashed'/>
    <line x1="7.0" y1="128.97127" x2="96.34" y2="22.5" class='connective fine dashed'/>
    <line x1="7.0" y1="139.6184" x2="105.274" y2="22.5" class='connective fine dashed'/>
    <line x1="7.0" y1="150.26552" x2="114.208" y2="22.5" class='connective fine dashed'/>
    <line x1="7.0" y1="160.91265" x2="123.142" y2="22.5" class='connective fine dashed'/>
    <line x1="7.0" y1="171.55978" x2="132.07601" y2="22.5" class='connective fine dashed'/>
    <line x1="7.0" y1="182.20691" x2="141.01001" y2="22.5" class='connective fine dashed'/>
    <line x1="7.0" y1="192.85403" x2="149.94401" y2="22.5" class='connective fine dashed'/>
    <line x1="7.0" y1="203.50116" x2="158.87801" y2="22.5" class='connective fine dashed'/>
    <line x1="7.0" y1="214.14829" x2="167.81201" y2="22.5" class='connective fine dashed'/>
    <line x1="7.0" y1="224.79541" x2="176.74601" y2="22.5" class='connective fine dashed'/>
    <line x1="7.0" y1="235.44254" x2="185.68001" y2="22.5" class='connective fine dashed'/>
    <line x1="7.0" y1="246.08967" x2="194.61401" y2="22.5" class='connective fine dashed'/>
    <line x1="7.0" y1="256.73679" x2="203.0" y2="23.15309" class='connective fine dashed'/>
    <line x1="7.0" y1="267.38392" x2="203.0" y2="33.80022" class='connective fine dashed'/>
    <line x1="9.9629" y1="274.5" x2="203.0" y2="44.44734" class='connective fine dashed'/>
    <line x1="18.8969" y1="274.5" x2="203.0" y2="55.09447" class='connective fine dashed'/>
    <line x1="27.8309" y1="274.5" x2="203.0" y2="65.7416" class='connective fine dashed'/>
    <line x1="36.7649" y1="274.5" x2="203.0" y2="76.38873" class='connective fine dashed'/>
    <line x1="45.6989" y1="274.5" x2="203.0" y2="87.03585" class='connective fine dashed'/>
    <line x1="54.6329" y1="274.5" x2="203.0" y2="97.68298" class='connective fine dashed'/>
    <line x1="63.5669" y1="274.5" x2="203.0" y2="108.33011" class='connective fine dashed'/>
    <line x1="72.5009" y1="274.5" x2="203.0" y2="118.97723" class='connective fine dashed'/>
    <line x1="81.4349" y1="274.5" x2="203.0" y2="129.62436" class='connective fine dashed'/>
    <line x1="90.36891" y1="274.5" x2="203.0" y2="140.27149" class='connective fine dashed'/>
    <line x1="99.30291" y1="274.5" x2="203.0" y2="150.91862" class='connective fine dashed'/>
    <line x1="108.23691" y1="274.5" x2="203.0" y2="161.56574" class='connective fine dashed'/>
    <line x1="117.17091" y1="274.5" x2="203.0" y2="172.21287" class='connective fine dashed'/>
    <line x1="126.10491" y1="274.5" x2="203.0" y2="182.86" class='connective fine dashed'/>
    <line x1="135.03891" y1="274.5" x2="203.0" y2="193.50712" class='connective fine dashed'/>
    <line x1="143.97291" y1="274.5" x2="203.0" y2="204.15425" class='connective fine dashed'/>
    <line x1="152.90691" y1="274.5" x2="203.0" y2="214.80138" class='connective fine dashed'/>
    <line x1="161.84091" y1="274.5" x2="203.0" y2="225.4485" class='connective fine dashed'/>
    <line x1="170.77491" y1="274.5" x2="203.0" y2="236.09563" class='connective fine dashed'/>
    <line x1="179.70891" y1="274.5" x2="203.0" y2="246.74276" class='connective fine dashed'/>
    <line x1="188.64291" y1="274.5" x2="203.0" y2="257.38989" class='connective fine dashed'/>
    <line x1="197.57691" y1="274.5" x2="203.0" y2="268.03701" class='connective fine dashed'/>
  </g>
</svg>
