<?xml version="1.0" standalone="no"?>
<!DOCTYPE svg PUBLIC "-//W3C//DTD SVG 1.1//EN" "http://www.w3.org/Graphics/SVG/1.1/DTD/svg11.dtd">
<svg xmlns="http://www.w3.org/2000/svg" width="297.0mm" height="210.0mm" viewBox="0 0 297.0 210.0" shape-rendering="geometricPrecision" >
  <style>
    svg         { stroke:            #ed008c; }
    svg         { stroke-width:         0.04; }
    .altcolor   { stroke:               blue; }
    .extrafine  { stroke-width:         0.01; }
    .fine       { stroke-width:         0.02; }
    .medium     { stroke-width:         0.04; }
    .broad      { stroke-width:         0.08; }
    .extrabroad { stroke-width:         0.16; }
    .dashed     { stroke-dasharray:      2 2; }
  </style>
  <g id="sheet">
    <line x1="11.0" y1="17.5" x2="286.0" y2="17.5" class='ascender2 broad'/>
    <line x1="11.0" y1="22.5" x2="286.0" y2="22.5" class='ascender1 dashed'/>
    <line x1="11.0" y1="27.5" x2="286.0" y2="27.5" class='waist altcolor'/>
    <line x1="11.0" y1="32.5" x2="286.0" y2="32.5" class='base'/>
    <line x1="11.0" y1="37.5" x2="286.0" y2="37.5" class='descender1 dashed'/>
    <line x1="11.0" y1="42.5" x2="286.0" y2="42.5" class='descender2 broad'/>
    <line x1="11.0" y1="47.5" x2="286.0" y2="47.5" class='ascender1 dashed'/>
    <line x1="11.0" y1="52.5" x2="286.0" y2="52.5" class='waist altcolor'/>
    <line x1="11.0" y1="57.5" x2="286.0" y2="57.5" class='base'/>
    <line x1="11.0" y1="62.5" x2="286.0" y2="62.5" class='descender1 dashed'/>
    <line x1="11.0" y1="67.5" x2="286.0" y2="67.5" class='descender2 broad'/>
    <line x1="11.0" y1="72.5" x2="286.0" y2="72.5" class='ascender1 dashed'/>
    <line x1="11.0" y1="77.5" x2="286.0" y2="77.5" class='waist altcolor'/>
    <line x1="11.0" y1="82.5" x2="286.0" y2="82.5" class='base'/>
    <line x1="11.0" y1="87.5" x2="286.0" y2="87.5" class='descender1 dashed'/>
    <line x1="11.0" y1="92.5" x2="286.0" y2="92.5" class='descender2 broad'/>
    <line x1="11.0" y1="97.5" x2="286.0" y2="97.5" class='ascender1 dashed'/>
    <line x1="11.0" y1="102.5" x2="286.0" y2="102.5" class='waist altcolor'/>
    <line x1="11.0" y1="107.5" x2="286.0" y2="107.5" class='base'/>
    <line x1="11.0" y1="112.5" x2="286.0" y2="112.5" class='descender1 dashed'/>
    <line x1="11.0" y1="117.5" x2="286.0" y2="117.5" class='descender2 broad'/>
    <line x1="11.0" y1="122.5" x2="286.0" y2="122.5" class='ascender1 dashed'/>
    <line x1="11.0" y1="127.5" x2="286.0" y2="127.5" class='waist altcolor'/>
    <line x1="11.0" y1="132.5" x2="286.0" y2="132.5" class='base'/>
    <line x1="11.0" y1="137.5" x2="286.0" y2="137.5" class='descender1 dashed'/>
    <line x1="11.0" y1="142.5" x2="286.0" y2="142.5" class='descender2 broad'/>
    <line x1="11.0" y1="147.5" x2="286.0" y2="147.5" class='ascender1 dashed'/>
    <line x1="11.0" y1="152.5" x2="286.0" y2="152.5" class='waist altcolor'/>
    <line x1="11.0" y1="157.5" x2="286.0" y2="157.5" class='base'/>
    <line x1="11.0" y1="162.5" x2="286.0" y2="162.5" class='descender1 dashed'/>
    <line x1="11.0" y1="167.5" x2="286.0" y2="167.5" class='descender2 broad'/>
    <line x1="11.0" y1="172.5" x2="286.0" y2="172.5" class='ascender1 dashed'/>
    <line x1="11.0" y1="177.5" x2="286.0" y2="177.5" class='waist altcolor'/>
    <line x1="11.0" y1="182.5" x2="286.0" y2="182.5" class='base'/>
    <line x1="11.0" y1="187.5" x2="286.0" y2="187.5" class='descender1 dashed'/>
    <line x1="11.0" y1="192.5" x2="286.0" y2="192.5" class='descender2 broad'/>
    <line x1="11.0" y1="17.5" x2="11.0" y2="17.5" class='slant fine'/>
    <line x1="11.0" y1="26.20874" x2="17.09793" y2="17.5" class='slant fine'/>
    <line x1="11.0" y1="34.91749" x2="23.19586" y2="17.5" class='slant fine'/>
    <line x1="11.0" y1="43.62623" x2="29.29379" y2="17.5" class='slant fine'/>
    <line x1="11.0" y1="52.33498" x2="35.39172" y2="17.5" class='slant fine'/>
    <line x1="11.0" y1="61.04372" x2="41.48964" y2="17.5" class='slant fine'/>
    <line x1="11.0" y1="69.75247" x2="47.58757" y2="17.5" class='slant fine'/>
    <line x1="11.0" y1="78.46121" x2="53.6855" y2="17.5" class='slant fine'/>
    <line x1="11.0" y1="87.16996" x2="59.78343" y2="17.5" class='slant fine'/>
    <line x1="11.0" y1="95.8787" x2="65.88136" y2="17.5" class='slant fine'/>
    <line x1="11.0" y1="104.58745" x2="71.97929" y2="17.5" class='slant fine'/>
    <line x1="11.0" y1="113.29619" x2="78.07722" y2="17.5" class='slant fine'/>
    <line x1="11.0" y1="122.00494" x2="84.17515" y2="17.5" class='slant fine'/>
    <line x1="11.0" y1="130.71368" x2="90.27307" y2="17.5" class='slant fine'/>
    <line x1="11.0" y1="139.42243" x2="96.371" y2="17.5" class='slant fine'/>
    <line x1="11.0" y1="148.13117" x2="102.46893" y2="17.5" class='slant fine'/>
    <line x1="11.0" y1="156.83992" x2="108.56686" y2="17.5" class='slant fine'/>
    <line x1="11.0" y1="165.54866" x2="114.66479" y2="17.5" class='slant fine'/>
    <line x1="11.0" y1="174.25741" x2="120.76272" y2="17.5" class='slant fine'/>
    <line x1="11.0" y1="182.96615" x2="126.86065" y2="17.5" class='slant fine'/>
    <line x1="11.0" y1="191.6749" x2="132.95858" y2="17.5" class='slant fine'/>
    <line x1="16.52019" y1="192.5" x2="139.0565" y2="17.5" class='slant fine'/>
    <line x1="22.61811" y1="192.5" x2="145.15443" y2="17.5" class='slant fine'/>
    <line x1="28.71604" y1="192.5" x2="151.25236" y2="17.5" class='slant fine'/>
    <line x1="34.81397" y1="192.5" x2="157.35029" y2="17.5" class='slant fine'/>
    <line x1="40.9119" y1="192.5" x2="163.44822" y2="17.5" class='slant fine'/>
    <line x1="47.00983" y1="192.5" x2="169.54615" y2="17.5" class='slant fine'/>
    <line x1="53.10776" y1="192.5" x2="175.64408" y2="17.5" class='slant fine'/>
    <line x1="59.20569" y1="192.5" x2="181.74201" y2="17.5" class='slant fine'/>
    <line x1="65.30362" y1="192.5" x2="187.83993" y2="17.5" class='slant fine'/>
    <line x1="71.40154" y1="192.5" x2="193.93786" y2="17.5" class='slant fine'/>
    <line x1="77.49947" y1="192.5" x2="200.03579" y2="17.5" class='slant fine'/>
    <line x1="83.5974" y1="192.5" x2="206.13372" y2="17.5" class='slant fine'/>
    <line x1="89.69533" y1="192.5" x2="212.23165" y2="17.5" class='slant fine'/>
    <line x1="95.79326" y1="192.5" x2="218.32958" y2="17.5" class='slant fine'/>
    <line x1="101.89119" y1="192.5" x2="224.42751" y2="17.5" class='slant fine'/>
    <line x1="107.98912" y1="192.5" x2="230.52544" y2="17.5" class='slant fine'/>
    <line x1="114.08705" y1="192.5" x2="236.62336" y2="17.5" class='slant fine'/>
    <line x1="120.18497" y1="192.5" x2="242.72129" y2="17.5" class='slant fine'/>
    <line x1="126.2829" y1="192.5" x2="248.81922" y2="17.5" class='slant fine'/>
    <line x1="132.38083" y1="192.5" x2="254.91715" y2="17.5" class='slant fine'/>
    <line x1="138.47876" y1="192.5" x2="261.01508" y2="17.5" class='slant fine'/>
    <line x1="144.57669" y1="192.5" x2="267.11301" y2="17.5" class='slant fine'/>
    <line x1="150.67462" y1="192.5" x2="273.21094" y2="17.5" class='slant fine'/>
    <line x1="156.77255" y1="192.5" x2="279.30887" y2="17.5" class='slant fine'/>
    <line x1="162.87048" y1="192.5" x2="285.40679" y2="17.5" class='slant fine'/>
    <line x1="168.9684" y1="192.5" x2="286.0" y2="25.36156" class='slant fine'/>
    <line x1="175.06633" y1="192.5" x2="286.0" y2="34.0703" class='slant fine'/>
    <line x1="181.16426" y1="192.5" x2="286.0" y2="42.77905" class='slant fine'/>
    <line x1="187.26219" y1="192.5" x2="286.0" y2="51.48779" class='slant fine'/>
    <line x1="193.36012" y1="192.5" x2="286.0" y2="60.19654" class='slant fine'/>
    <line x1="199.45805" y1="192.5" x2="286.0" y2="68.90528" class='slant fine'/>
    <line x1="205.55598" y1="192.5" x2="286.0" y2="77.61403" class='slant fine'/>
    <line x1="211.65391" y1="192.5" x2="286.0" y2="86.32277" class='slant fine'/>
    <line x1="217.75183" y1="192.5" x2="286.0" y2="95.03152" class='slant fine'/>
    <line x1="223.84976" y1="192.5" x2="286.0" y2="103.74026" class='slant fine'/>
    <line x1="229.94769" y1="192.5" x2="286.0" y2="112.44901" class='slant fine'/>
    <line x1="236.04562" y1="192.5" x2="286.0" y2="121.15775" class='slant fine'/>
    <line x1="242.14355" y1="192.5" x2="286.0" y2="129.8665" class='slant fine'/>
    <line x1="248.24148" y1="192.5" x2="286.0" y2="138.57524" class='slant fine'/>
    <line x1="254.33941" y1="192.5" x2="286.0" y2="147.28399" class='slant fine'/>
    <line x1="260.43734" y1="192.5" x2="286.0" y2="155.99273" class='slant fine'/>
    <line x1="266.53526" y1="192.5" x2="286.0" y2="164.70148" class='slant fine'/>
    <line x1="272.63319" y1="192.5" x2="286.0" y2="173.41022" class='slant fine'/>
    <line x1="278.73112" y1="192.5" x2="286.0" y2="182.11897" class='slant fine'/>
    <line x1="284.82905" y1="192.5" x2="286.0" y2="190.82771" class='slant fine'/>
    <line x1="11.0" y1="25.21156" x2="17.47077" y2="17.5" class='connective fine dashed'/>
    <line x1="11.0" y1="32.92312" x2="23.94154" y2="17.5" class='connective fine dashed'/>
    <line x1="11.0" y1="40.63468" x2="30.4123" y2="17.5" class='connective fine dashed'/>
    <line x1="11.0" y1="48.34624" x2="36.88307" y2="17.5" class='connective fine dashed'/>
    <line x1="11.0" y1="56.0578" x2="43.35384" y2="17.5" class='connective fine dashed'/>
    <line x1="11.0" y1="63.76936" x2="49.82461" y2="17.5" class='connective fine dashed'/>
    <line x1="11.0" y1="71.48092" x2="56.29537" y2="17.5" class='connective fine dashed'/>
    <line x1="11.0" y1="79.19248" x2="62.76614" y2="17.5" class='connective fine dashed'/>
    <line x1="11.0" y1="86.90404" x2="69.23691" y2="17.5" class='connective fine dashed'/>
    <line x1="11.0" y1="94.61561" x2="75.70768" y2="17.5" class='connective fine dashed'/>
    <line x1="11.0" y1="102.32717" x2="82.17844" y2="17.5" class='connective fine dashed'/>
    <line x1="11.0" y1="110.03873" x2="88.64921" y2="17.5" class='connective fine dashed'/>
    <line x1="11.0" y1="117.75029" x2="95.11998" y2="17.5" class='connective fine dashed'/>
    <line x1="11.0" y1="125.46185" x2="101.59075" y2="17.5" class='connective fine dashed'/>
    <line x1="11.0" y1="133.17341" x2="108.06151" y2="17.5" class='connective fine dashed'/>
    <line x1="11.0" y1="140.88497" x2="114.53228" y2="17.5" class='connective fine dashed'/>
    <line x1="11.0" y1="148.59653" x2="121.00305" y2="17.5" class='connective fine dashed'/>
    <line x1="11.0" y1="156.30809" x2="127.47382" y2="17.5" class='connective fine dashed'/>
    <line x1="11.0" y1="164.01965" x2="133.94458" y2="17.5" class='connective fine dashed'/>
    <line x1="11.0" y1="171.73121" x2="140.41535" y2="17.5" class='connective fine dashed'/>
    <line x1="11.0" y1="179.44277" x2="146.88612" y2="17.5" class='connective fine dashed'/>
    <line x1="11.0" y1="187.15433" x2="153.35689" y2="17.5" class='connective fine dashed'/>
    <line x1="12.98522" y1="192.5" x2="159.82765" y2="17.5" class='connective fine dashed'/>
    <line x1="19.45599" y1="192.5" x2="166.29842" y2="17.5" class='connective fine dashed'/>
    <line x1="25.92675" y1="192.5" x2="172.76919" y2="17.5" class='connective fine dashed'/>
    <line x1="32.39752" y1="192.5" x2="179.23996" y2="17.5" class='connective fine dashed'/>
    <line x1="38.86829" y1="192.5" x2="185.71072" y2="17.5" class='connective fine dashed'/>
    <line x1="45.33906" y1="192.5" x2="192.18149" y2="17.5" class='connective fine dashed'/>
    <line x1="51.80982" y1="192.5" x2="198.65226" y2="17.5" class='connective fine dashed'/>
    <line x1="58.28059" y1="192.5" x2="205.12303" y2="17.5" class='connective fine dashed'/>
    <line x1="64.75136" y1="192.5" x2="211.59379" y2="17.5" class='connective fine dashed'/>
    <line x1="71.22213" y1="192.5" x2="218.06456" y2="17.5" class='connective fine dashed'/>
    <line x1="77.69289" y1="192.5" x2="224.53533" y2="17.5" class='connective fine dashed'/>
    <line x1="84.16366" y1="192.5" x2="231.0061" y2="17.5" class='connective fine dashed'/>
    <line x1="90.63443" y1="192.5" x2="237.47687" y2="17.5" class='connective fine dashed'/>
    <line x1="97.1052" y1="192.5" x2="243.94763" y2="17.5" class='connective fine dashed'/>
    <line x1="103.57596" y1="192.5" x2="250.4184" y2="17.5" class='connective fine dashed'/>
    <line x1="110.04673" y1="192.5" x2="256.88917" y2="17.5" class='connective fine dashed'/>
    <line x1="116.5175" y1="192.5" x2="263.35994" y2="17.5" class='connective fine dashed'/>
    <line x1="122.98827" y1="192.5" x2="269.8307" y2="17.5" class='connective fine dashed'/>
    <line x1="129.45904" y1="192.5" x2="276.30147" y2="17.5" class='connective fine dashed'/>
    <line x1="135.9298" y1="192.5" x2="282.77224" y2="17.5" class='connective fine dashed'/>
    <line x1="142.40057" y1="192.5" x2="286.0" y2="21.36486" class='connective fine dashed'/>
    <line x1="148.87134" y1="192.5" x2="286.0" y2="29.07642" class='connective fine dashed'/>
    <line x1="155.34211" y1="192.5" x2="286.0" y2="36.78798" class='connective fine dashed'/>
    <line x1="161.81287" y1="192.5" x2="286.0" y2="44.49955" class='connective fine dashed'/>
    <line x1="168.28364" y1="192.5" x2="286.0" y2="52.21111" class='connective fine dashed'/>
    <line x1="174.75441" y1="192.5" x2="286.0" y2="59.92267" class='connective fine dashed'/>
    <line x1="181.22518" y1="192.5" x2="286.0" y2="67.63423" class='connective fine dashed'/>
    <line x1="187.69594" y1="192.5" x2="286.0" y2="75.34579" class='connective fine dashed'/>
    <line x1="194.16671" y1="192.5" x2="286.0" y2="83.05735" class='connective fine dashed'/>
    <line x1="200.63748" y1="192.5" x2="286.0" y2="90.76891" class='connective fine dashed'/>
    <line x1="207.10825" y1="192.5" x2="286.0" y2="98.48047" class='connective fine dashed'/>
    <line x1="213.57901" y1="192.5" x2="286.0" y2="106.19203" class='connective fine dashed'/>
    <line x1="220.04978" y1="192.5" x2="286.0" y2="113.90359" class='connective fine dashed'/>
    <line x1="226.52055" y1="192.5" x2="286.0" y2="121.61515" class='connective fine dashed'/>
    <line x1="232.99132" y1="192.5" x2="286.0" y2="129.32671" class='connective fine dashed'/>
    <line x1="239.46208" y1="192.5" x2="286.0" y2="137.03827" class='connective fine dashed'/>
    <line x1="245.93285" y1="192.5" x2="286.0" y2="144.74983" class='connective fine dashed'/>
    <line x1="252.40362" y1="192.5" x2="286.0" y2="152.46139" class='connective fine dashed'/>
    <line x1="258.87439" y1="192.5" x2="286.0" y2="160.17295" class='connective fine dashed'/>
    <line x1="265.34515" y1="192.5" x2="286.0" y2="167.88451" class='connective fine dashed'/>
    <line x1="271.81592" y1="192.5" x2="286.0" y2="175.59607" class='connective fine dashed'/>
    <line x1="278.28669" y1="192.5" x2="286.0" y2="183.30763" class='connective fine dashed'/>
    <line x1="284.75746" y1="192.5" x2="286.0" y2="191.01919" class='connective fine dashed'/>
  </g>
</svg>
