<?xml version="1.0" standalone="no"?>
<!DOCTYPE svg PUBLIC "-//W3C//DTD SVG 1.1//EN" "http://www.w3.org/Graphics/SVG/1.1/DTD/svg11.dtd">
<svg xmlns="http://www.w3.org/2000/svg" width="297.0mm" height="210.0mm" viewBox="0 0 297.0 210.0" >

  <g id="sheet">
    <line x1="22.5" y1="21.0" x2="274.5" y2="21.0" stroke='blue' stroke-width='0.2' tags='ascender2'/>
    <line x1="22.5" y1="26.25" x2="274.5" y2="26.25" stroke='grey' stroke-width='0.1' stroke-dasharray='2, 2' tags='ascender1'/>
    <line x1="22.5" y1="31.5" x2="274.5" y2="31.5" stroke='grey' stroke-width='0.1' tags='waist'/>
    <line x1="22.5" y1="38.5" x2="274.5" y2="38.5" stroke='red' stroke-width='0.1' tags='base'/>
    <line x1="22.5" y1="43.75" x2="274.5" y2="43.75" stroke='grey' stroke-width='0.1' stroke-dasharray='2, 2' tags='descender1'/>
    <line x1="22.5" y1="49.0" x2="274.5" y2="49.0" stroke='blue' stroke-width='0.2' tags='descender2'/>
    <line x1="22.5" y1="54.25" x2="274.5" y2="54.25" stroke='grey' stroke-width='0.1' stroke-dasharray='2, 2' tags='ascender1'/>
    <line x1="22.5" y1="59.5" x2="274.5" y2="59.5" stroke='grey' stroke-width='0.1' tags='waist'/>
    <line x1="22.5" y1="66.5" x2="274.5" y2="66.5" stroke='red' stroke-width='0.1' tags='base'/>
    <line x1="22.5" y1="71.75" x2="274.5" y2="71.75" stroke='grey' stroke-width='0.1' stroke-dasharray='2, 2' tags='descender1'/>
    <line x1="22.5" y1="77.0" x2="274.5" y2="77.0" stroke='blue' stroke-width='0.2' tags='descender2'/>
    <line x1="22.5" y1="82.25" x2="274.5" y2="82.25" stroke='grey' stroke-width='0.1' stroke-dasharray='2, 2' tags='ascender1'/>
    <line x1="22.5" y1="87.5" x2="274.5" y2="87.5" stroke='grey' stroke-width='0.1' tags='waist'/>
    <line x1="22.5" y1="94.5" x2="274.5" y2="94.5" stroke='red' stroke-width='0.1' tags='base'/>
    <line x1="22.5" y1="99.75" x2="274.5" y2="99.75" stroke='grey' stroke-width='0.1' stroke-dasharray='2, 2' tags='descender1'/>
    <line x1="22.5" y1="105.0" x2="274.5" y2="105.0" stroke='blue' stroke-width='0.2' tags='descender2'/>
    <line x1="22.5" y1="110.25" x2="274.5" y2="110.25" stroke='grey' stroke-width='0.1' stroke-dasharray='2, 2' tags='ascender1'/>
    <line x1="22.5" y1="115.5" x2="274.5" y2="115.5" stroke='grey' stroke-width='0.1' tags='waist'/>
    <line x1="22.5" y1="122.5" x2="274.5" y2="122.5" stroke='red' stroke-width='0.1' tags='base'/>
    <line x1="22.5" y1="127.75" x2="274.5" y2="127.75" stroke='grey' stroke-width='0.1' stroke-dasharray='2, 2' tags='descender1'/>
    <line x1="22.5" y1="133.0" x2="274.5" y2="133.0" stroke='blue' stroke-width='0.2' tags='descender2'/>
    <line x1="22.5" y1="138.25" x2="274.5" y2="138.25" stroke='grey' stroke-width='0.1' stroke-dasharray='2, 2' tags='ascender1'/>
    <line x1="22.5" y1="143.5" x2="274.5" y2="143.5" stroke='grey' stroke-width='0.1' tags='waist'/>
    <line x1="22.5" y1="150.5" x2="274.5" y2="150.5" stroke='red' stroke-width='0.1' tags='base'/>
    <line x1="22.5" y1="155.75" x2="274.5" y2="155.75" stroke='grey' stroke-width='0.1' stroke-dasharray='2, 2' tags='descender1'/>
    <line x1="22.5" y1="161.0" x2="274.5" y2="161.0" stroke='blue' stroke-width='0.2' tags='descender2'/>
    <line x1="22.5" y1="166.25" x2="274.5" y2="166.25" stroke='grey' stroke-width='0.1' stroke-dasharray='2, 2' tags='ascender1'/>
    <line x1="22.5" y1="171.5" x2="274.5" y2="171.5" stroke='grey' stroke-width='0.1' tags='waist'/>
    <line x1="22.5" y1="178.5" x2="274.5" y2="178.5" stroke='red' stroke-width='0.1' tags='base'/>
    <line x1="22.5" y1="183.75" x2="274.5" y2="183.75" stroke='grey' stroke-width='0.1' stroke-dasharray='2, 2' tags='descender1'/>
    <line x1="22.5" y1="189.0" x2="274.5" y2="189.0" stroke='blue' stroke-width='0.2' tags='descender2'/>
    <line x1="22.5" y1="21.0" x2="22.5" y2="21.0" stroke='blue' stroke-width='0.1' tags='slant'/>
    <line x1="22.5" y1="33.20094" x2="31.04319" y2="21.0" stroke='blue' stroke-width='0.1' tags='slant'/>
    <line x1="22.5" y1="45.40188" x2="39.58638" y2="21.0" stroke='blue' stroke-width='0.1' tags='slant'/>
    <line x1="22.5" y1="57.60281" x2="48.12957" y2="21.0" stroke='blue' stroke-width='0.1' tags='slant'/>
    <line x1="22.5" y1="69.80375" x2="56.67276" y2="21.0" stroke='blue' stroke-width='0.1' tags='slant'/>
    <line x1="22.5" y1="82.00469" x2="65.21594" y2="21.0" stroke='blue' stroke-width='0.1' tags='slant'/>
    <line x1="22.5" y1="94.20563" x2="73.75913" y2="21.0" stroke='blue' stroke-width='0.1' tags='slant'/>
    <line x1="22.5" y1="106.40657" x2="82.30232" y2="21.0" stroke='blue' stroke-width='0.1' tags='slant'/>
    <line x1="22.5" y1="118.60751" x2="90.84551" y2="21.0" stroke='blue' stroke-width='0.1' tags='slant'/>
    <line x1="22.5" y1="130.80844" x2="99.3887" y2="21.0" stroke='blue' stroke-width='0.1' tags='slant'/>
    <line x1="22.5" y1="143.00938" x2="107.93189" y2="21.0" stroke='blue' stroke-width='0.1' tags='slant'/>
    <line x1="22.5" y1="155.21032" x2="116.47508" y2="21.0" stroke='blue' stroke-width='0.1' tags='slant'/>
    <line x1="22.5" y1="167.41126" x2="125.01827" y2="21.0" stroke='blue' stroke-width='0.1' tags='slant'/>
    <line x1="22.5" y1="179.6122" x2="133.56146" y2="21.0" stroke='blue' stroke-width='0.1' tags='slant'/>
    <line x1="24.46978" y1="189.0" x2="142.10464" y2="21.0" stroke='blue' stroke-width='0.1' tags='slant'/>
    <line x1="33.01297" y1="189.0" x2="150.64783" y2="21.0" stroke='blue' stroke-width='0.1' tags='slant'/>
    <line x1="41.55616" y1="189.0" x2="159.19102" y2="21.0" stroke='blue' stroke-width='0.1' tags='slant'/>
    <line x1="50.09934" y1="189.0" x2="167.73421" y2="21.0" stroke='blue' stroke-width='0.1' tags='slant'/>
    <line x1="58.64253" y1="189.0" x2="176.2774" y2="21.0" stroke='blue' stroke-width='0.1' tags='slant'/>
    <line x1="67.18572" y1="189.0" x2="184.82059" y2="21.0" stroke='blue' stroke-width='0.1' tags='slant'/>
    <line x1="75.72891" y1="189.0" x2="193.36378" y2="21.0" stroke='blue' stroke-width='0.1' tags='slant'/>
    <line x1="84.2721" y1="189.0" x2="201.90697" y2="21.0" stroke='blue' stroke-width='0.1' tags='slant'/>
    <line x1="92.81529" y1="189.0" x2="210.45016" y2="21.0" stroke='blue' stroke-width='0.1' tags='slant'/>
    <line x1="101.35848" y1="189.0" x2="218.99334" y2="21.0" stroke='blue' stroke-width='0.1' tags='slant'/>
    <line x1="109.90167" y1="189.0" x2="227.53653" y2="21.0" stroke='blue' stroke-width='0.1' tags='slant'/>
    <line x1="118.44486" y1="189.0" x2="236.07972" y2="21.0" stroke='blue' stroke-width='0.1' tags='slant'/>
    <line x1="126.98804" y1="189.0" x2="244.62291" y2="21.0" stroke='blue' stroke-width='0.1' tags='slant'/>
    <line x1="135.53123" y1="189.0" x2="253.1661" y2="21.0" stroke='blue' stroke-width='0.1' tags='slant'/>
    <line x1="144.07442" y1="189.0" x2="261.70929" y2="21.0" stroke='blue' stroke-width='0.1' tags='slant'/>
    <line x1="152.61761" y1="189.0" x2="270.25248" y2="21.0" stroke='blue' stroke-width='0.1' tags='slant'/>
    <line x1="161.1608" y1="189.0" x2="274.5" y2="27.13485" stroke='blue' stroke-width='0.1' tags='slant'/>
    <line x1="169.70399" y1="189.0" x2="274.5" y2="39.33579" stroke='blue' stroke-width='0.1' tags='slant'/>
    <line x1="178.24718" y1="189.0" x2="274.5" y2="51.53672" stroke='blue' stroke-width='0.1' tags='slant'/>
    <line x1="186.79037" y1="189.0" x2="274.5" y2="63.73766" stroke='blue' stroke-width='0.1' tags='slant'/>
    <line x1="195.33356" y1="189.0" x2="274.5" y2="75.9386" stroke='blue' stroke-width='0.1' tags='slant'/>
    <line x1="203.87674" y1="189.0" x2="274.5" y2="88.13954" stroke='blue' stroke-width='0.1' tags='slant'/>
    <line x1="212.41993" y1="189.0" x2="274.5" y2="100.34048" stroke='blue' stroke-width='0.1' tags='slant'/>
    <line x1="220.96312" y1="189.0" x2="274.5" y2="112.54141" stroke='blue' stroke-width='0.1' tags='slant'/>
    <line x1="229.50631" y1="189.0" x2="274.5" y2="124.74235" stroke='blue' stroke-width='0.1' tags='slant'/>
    <line x1="238.0495" y1="189.0" x2="274.5" y2="136.94329" stroke='blue' stroke-width='0.1' tags='slant'/>
    <line x1="246.59269" y1="189.0" x2="274.5" y2="149.14423" stroke='blue' stroke-width='0.1' tags='slant'/>
    <line x1="255.13588" y1="189.0" x2="274.5" y2="161.34517" stroke='blue' stroke-width='0.1' tags='slant'/>
    <line x1="263.67907" y1="189.0" x2="274.5" y2="173.5461" stroke='blue' stroke-width='0.1' tags='slant'/>
    <line x1="272.22226" y1="189.0" x2="274.5" y2="185.74704" stroke='blue' stroke-width='0.1' tags='slant'/>
    <line x1="22.5" y1="31.82409" x2="31.58249" y2="21.0" stroke='blue' stroke-width='0.07' stroke-dasharray='2, 2' tags='connective'/>
    <line x1="22.5" y1="42.64819" x2="40.66499" y2="21.0" stroke='blue' stroke-width='0.07' stroke-dasharray='2, 2' tags='connective'/>
    <line x1="22.5" y1="53.47228" x2="49.74748" y2="21.0" stroke='blue' stroke-width='0.07' stroke-dasharray='2, 2' tags='connective'/>
    <line x1="22.5" y1="64.29638" x2="58.82997" y2="21.0" stroke='blue' stroke-width='0.07' stroke-dasharray='2, 2' tags='connective'/>
    <line x1="22.5" y1="75.12047" x2="67.91247" y2="21.0" stroke='blue' stroke-width='0.07' stroke-dasharray='2, 2' tags='connective'/>
    <line x1="22.5" y1="85.94456" x2="76.99496" y2="21.0" stroke='blue' stroke-width='0.07' stroke-dasharray='2, 2' tags='connective'/>
    <line x1="22.5" y1="96.76866" x2="86.07745" y2="21.0" stroke='blue' stroke-width='0.07' stroke-dasharray='2, 2' tags='connective'/>
    <line x1="22.5" y1="107.59275" x2="95.15995" y2="21.0" stroke='blue' stroke-width='0.07' stroke-dasharray='2, 2' tags='connective'/>
    <line x1="22.5" y1="118.41684" x2="104.24244" y2="21.0" stroke='blue' stroke-width='0.07' stroke-dasharray='2, 2' tags='connective'/>
    <line x1="22.5" y1="129.24094" x2="113.32493" y2="21.0" stroke='blue' stroke-width='0.07' stroke-dasharray='2, 2' tags='connective'/>
    <line x1="22.5" y1="140.06503" x2="122.40742" y2="21.0" stroke='blue' stroke-width='0.07' stroke-dasharray='2, 2' tags='connective'/>
    <line x1="22.5" y1="150.88913" x2="131.48992" y2="21.0" stroke='blue' stroke-width='0.07' stroke-dasharray='2, 2' tags='connective'/>
    <line x1="22.5" y1="161.71322" x2="140.57241" y2="21.0" stroke='blue' stroke-width='0.07' stroke-dasharray='2, 2' tags='connective'/>
    <line x1="22.5" y1="172.53731" x2="149.6549" y2="21.0" stroke='blue' stroke-width='0.07' stroke-dasharray='2, 2' tags='connective'/>
    <line x1="22.5" y1="183.36141" x2="158.7374" y2="21.0" stroke='blue' stroke-width='0.07' stroke-dasharray='2, 2' tags='connective'/>
    <line x1="26.85115" y1="189.0" x2="167.81989" y2="21.0" stroke='blue' stroke-width='0.07' stroke-dasharray='2, 2' tags='connective'/>
    <line x1="35.93365" y1="189.0" x2="176.90238" y2="21.0" stroke='blue' stroke-width='0.07' stroke-dasharray='2, 2' tags='connective'/>
    <line x1="45.01614" y1="189.0" x2="185.98488" y2="21.0" stroke='blue' stroke-width='0.07' stroke-dasharray='2, 2' tags='connective'/>
    <line x1="54.09863" y1="189.0" x2="195.06737" y2="21.0" stroke='blue' stroke-width='0.07' stroke-dasharray='2, 2' tags='connective'/>
    <line x1="63.18113" y1="189.0" x2="204.14986" y2="21.0" stroke='blue' stroke-width='0.07' stroke-dasharray='2, 2' tags='connective'/>
    <line x1="72.26362" y1="189.0" x2="213.23236" y2="21.0" stroke='blue' stroke-width='0.07' stroke-dasharray='2, 2' tags='connective'/>
    <line x1="81.34611" y1="189.0" x2="222.31485" y2="21.0" stroke='blue' stroke-width='0.07' stroke-dasharray='2, 2' tags='connective'/>
    <line x1="90.4286" y1="189.0" x2="231.39734" y2="21.0" stroke='blue' stroke-width='0.07' stroke-dasharray='2, 2' tags='connective'/>
    <line x1="99.5111" y1="189.0" x2="240.47984" y2="21.0" stroke='blue' stroke-width='0.07' stroke-dasharray='2, 2' tags='connective'/>
    <line x1="108.59359" y1="189.0" x2="249.56233" y2="21.0" stroke='blue' stroke-width='0.07' stroke-dasharray='2, 2' tags='connective'/>
    <line x1="117.67608" y1="189.0" x2="258.64482" y2="21.0" stroke='blue' stroke-width='0.07' stroke-dasharray='2, 2' tags='connective'/>
    <line x1="126.75858" y1="189.0" x2="267.72732" y2="21.0" stroke='blue' stroke-width='0.07' stroke-dasharray='2, 2' tags='connective'/>
    <line x1="135.84107" y1="189.0" x2="274.5" y2="23.75272" stroke='blue' stroke-width='0.07' stroke-dasharray='2, 2' tags='connective'/>
    <line x1="144.92356" y1="189.0" x2="274.5" y2="34.57682" stroke='blue' stroke-width='0.07' stroke-dasharray='2, 2' tags='connective'/>
    <line x1="154.00606" y1="189.0" x2="274.5" y2="45.40091" stroke='blue' stroke-width='0.07' stroke-dasharray='2, 2' tags='connective'/>
    <line x1="163.08855" y1="189.0" x2="274.5" y2="56.225" stroke='blue' stroke-width='0.07' stroke-dasharray='2, 2' tags='connective'/>
    <line x1="172.17104" y1="189.0" x2="274.5" y2="67.0491" stroke='blue' stroke-width='0.07' stroke-dasharray='2, 2' tags='connective'/>
    <line x1="181.25354" y1="189.0" x2="274.5" y2="77.87319" stroke='blue' stroke-width='0.07' stroke-dasharray='2, 2' tags='connective'/>
    <line x1="190.33603" y1="189.0" x2="274.5" y2="88.69729" stroke='blue' stroke-width='0.07' stroke-dasharray='2, 2' tags='connective'/>
    <line x1="199.41852" y1="189.0" x2="274.5" y2="99.52138" stroke='blue' stroke-width='0.07' stroke-dasharray='2, 2' tags='connective'/>
    <line x1="208.50102" y1="189.0" x2="274.5" y2="110.34547" stroke='blue' stroke-width='0.07' stroke-dasharray='2, 2' tags='connective'/>
    <line x1="217.58351" y1="189.0" x2="274.5" y2="121.16957" stroke='blue' stroke-width='0.07' stroke-dasharray='2, 2' tags='connective'/>
    <line x1="226.666" y1="189.0" x2="274.5" y2="131.99366" stroke='blue' stroke-width='0.07' stroke-dasharray='2, 2' tags='connective'/>
    <line x1="235.7485" y1="189.0" x2="274.5" y2="142.81776" stroke='blue' stroke-width='0.07' stroke-dasharray='2, 2' tags='connective'/>
    <line x1="244.83099" y1="189.0" x2="274.5" y2="153.64185" stroke='blue' stroke-width='0.07' stroke-dasharray='2, 2' tags='connective'/>
    <line x1="253.91348" y1="189.0" x2="274.5" y2="164.46594" stroke='blue' stroke-width='0.07' stroke-dasharray='2, 2' tags='connective'/>
    <line x1="262.99598" y1="189.0" x2="274.5" y2="175.29004" stroke='blue' stroke-width='0.07' stroke-dasharray='2, 2' tags='connective'/>
    <line x1="272.07847" y1="189.0" x2="274.5" y2="186.11413" stroke='blue' stroke-width='0.07' stroke-dasharray='2, 2' tags='connective'/>
  </g>
</svg>
