<?xml version="1.0" standalone="no"?>
<!DOCTYPE svg PUBLIC "-//W3C//DTD SVG 1.1//EN" "http://www.w3.org/Graphics/SVG/1.1/DTD/svg11.dtd">
<svg xmlns="http://www.w3.org/2000/svg" width="210.0mm" height="297.0mm" viewBox="0 0 210.0 297.0" >

  <g id="sheet">
    <line x1="17.5" y1="26.0" x2="192.5" y2="26.0" stroke='blue' stroke-width='0.2' tags='ascender2'/>
    <line x1="17.5" y1="33.0" x2="192.5" y2="33.0" stroke='grey' stroke-width='0.1' stroke-dasharray='2, 2' tags='ascender1'/>
    <line x1="17.5" y1="40.0" x2="192.5" y2="40.0" stroke='grey' stroke-width='0.1' tags='waist'/>
    <line x1="17.5" y1="47.0" x2="192.5" y2="47.0" stroke='red' stroke-width='0.1' tags='base'/>
    <line x1="17.5" y1="54.0" x2="192.5" y2="54.0" stroke='grey' stroke-width='0.1' stroke-dasharray='2, 2' tags='descender1'/>
    <line x1="17.5" y1="61.0" x2="192.5" y2="61.0" stroke='blue' stroke-width='0.2' tags='descender2'/>
    <line x1="17.5" y1="68.0" x2="192.5" y2="68.0" stroke='grey' stroke-width='0.1' stroke-dasharray='2, 2' tags='ascender1'/>
    <line x1="17.5" y1="75.0" x2="192.5" y2="75.0" stroke='grey' stroke-width='0.1' tags='waist'/>
    <line x1="17.5" y1="82.0" x2="192.5" y2="82.0" stroke='red' stroke-width='0.1' tags='base'/>
    <line x1="17.5" y1="89.0" x2="192.5" y2="89.0" stroke='grey' stroke-width='0.1' stroke-dasharray='2, 2' tags='descender1'/>
    <line x1="17.5" y1="96.0" x2="192.5" y2="96.0" stroke='blue' stroke-width='0.2' tags='descender2'/>
    <line x1="17.5" y1="103.0" x2="192.5" y2="103.0" stroke='grey' stroke-width='0.1' stroke-dasharray='2, 2' tags='ascender1'/>
    <line x1="17.5" y1="110.0" x2="192.5" y2="110.0" stroke='grey' stroke-width='0.1' tags='waist'/>
    <line x1="17.5" y1="117.0" x2="192.5" y2="117.0" stroke='red' stroke-width='0.1' tags='base'/>
    <line x1="17.5" y1="124.0" x2="192.5" y2="124.0" stroke='grey' stroke-width='0.1' stroke-dasharray='2, 2' tags='descender1'/>
    <line x1="17.5" y1="131.0" x2="192.5" y2="131.0" stroke='blue' stroke-width='0.2' tags='descender2'/>
    <line x1="17.5" y1="138.0" x2="192.5" y2="138.0" stroke='grey' stroke-width='0.1' stroke-dasharray='2, 2' tags='ascender1'/>
    <line x1="17.5" y1="145.0" x2="192.5" y2="145.0" stroke='grey' stroke-width='0.1' tags='waist'/>
    <line x1="17.5" y1="152.0" x2="192.5" y2="152.0" stroke='red' stroke-width='0.1' tags='base'/>
    <line x1="17.5" y1="159.0" x2="192.5" y2="159.0" stroke='grey' stroke-width='0.1' stroke-dasharray='2, 2' tags='descender1'/>
    <line x1="17.5" y1="166.0" x2="192.5" y2="166.0" stroke='blue' stroke-width='0.2' tags='descender2'/>
    <line x1="17.5" y1="173.0" x2="192.5" y2="173.0" stroke='grey' stroke-width='0.1' stroke-dasharray='2, 2' tags='ascender1'/>
    <line x1="17.5" y1="180.0" x2="192.5" y2="180.0" stroke='grey' stroke-width='0.1' tags='waist'/>
    <line x1="17.5" y1="187.0" x2="192.5" y2="187.0" stroke='red' stroke-width='0.1' tags='base'/>
    <line x1="17.5" y1="194.0" x2="192.5" y2="194.0" stroke='grey' stroke-width='0.1' stroke-dasharray='2, 2' tags='descender1'/>
    <line x1="17.5" y1="201.0" x2="192.5" y2="201.0" stroke='blue' stroke-width='0.2' tags='descender2'/>
    <line x1="17.5" y1="208.0" x2="192.5" y2="208.0" stroke='grey' stroke-width='0.1' stroke-dasharray='2, 2' tags='ascender1'/>
    <line x1="17.5" y1="215.0" x2="192.5" y2="215.0" stroke='grey' stroke-width='0.1' tags='waist'/>
    <line x1="17.5" y1="222.0" x2="192.5" y2="222.0" stroke='red' stroke-width='0.1' tags='base'/>
    <line x1="17.5" y1="229.0" x2="192.5" y2="229.0" stroke='grey' stroke-width='0.1' stroke-dasharray='2, 2' tags='descender1'/>
    <line x1="17.5" y1="236.0" x2="192.5" y2="236.0" stroke='blue' stroke-width='0.2' tags='descender2'/>
    <line x1="17.5" y1="243.0" x2="192.5" y2="243.0" stroke='grey' stroke-width='0.1' stroke-dasharray='2, 2' tags='ascender1'/>
    <line x1="17.5" y1="250.0" x2="192.5" y2="250.0" stroke='grey' stroke-width='0.1' tags='waist'/>
    <line x1="17.5" y1="257.0" x2="192.5" y2="257.0" stroke='red' stroke-width='0.1' tags='base'/>
    <line x1="17.5" y1="264.0" x2="192.5" y2="264.0" stroke='grey' stroke-width='0.1' stroke-dasharray='2, 2' tags='descender1'/>
    <line x1="17.5" y1="271.0" x2="192.5" y2="271.0" stroke='blue' stroke-width='0.2' tags='descender2'/>
    <line x1="17.5" y1="26.0" x2="17.5" y2="26.0" stroke='blue' stroke-width='0.1' tags='slant'/>
    <line x1="17.5" y1="37.50679" x2="25.55714" y2="26.0" stroke='blue' stroke-width='0.1' tags='slant'/>
    <line x1="17.5" y1="49.01359" x2="33.61429" y2="26.0" stroke='blue' stroke-width='0.1' tags='slant'/>
    <line x1="17.5" y1="60.52038" x2="41.67143" y2="26.0" stroke='blue' stroke-width='0.1' tags='slant'/>
    <line x1="17.5" y1="72.02717" x2="49.72857" y2="26.0" stroke='blue' stroke-width='0.1' tags='slant'/>
    <line x1="17.5" y1="83.53397" x2="57.78572" y2="26.0" stroke='blue' stroke-width='0.1' tags='slant'/>
    <line x1="17.5" y1="95.04076" x2="65.84286" y2="26.0" stroke='blue' stroke-width='0.1' tags='slant'/>
    <line x1="17.5" y1="106.54755" x2="73.9" y2="26.0" stroke='blue' stroke-width='0.1' tags='slant'/>
    <line x1="17.5" y1="118.05435" x2="81.95715" y2="26.0" stroke='blue' stroke-width='0.1' tags='slant'/>
    <line x1="17.5" y1="129.56114" x2="90.01429" y2="26.0" stroke='blue' stroke-width='0.1' tags='slant'/>
    <line x1="17.5" y1="141.06793" x2="98.07144" y2="26.0" stroke='blue' stroke-width='0.1' tags='slant'/>
    <line x1="17.5" y1="152.57473" x2="106.12858" y2="26.0" stroke='blue' stroke-width='0.1' tags='slant'/>
    <line x1="17.5" y1="164.08152" x2="114.18572" y2="26.0" stroke='blue' stroke-width='0.1' tags='slant'/>
    <line x1="17.5" y1="175.58832" x2="122.24287" y2="26.0" stroke='blue' stroke-width='0.1' tags='slant'/>
    <line x1="17.5" y1="187.09511" x2="130.30001" y2="26.0" stroke='blue' stroke-width='0.1' tags='slant'/>
    <line x1="17.5" y1="198.6019" x2="138.35715" y2="26.0" stroke='blue' stroke-width='0.1' tags='slant'/>
    <line x1="17.5" y1="210.1087" x2="146.4143" y2="26.0" stroke='blue' stroke-width='0.1' tags='slant'/>
    <line x1="17.5" y1="221.61549" x2="154.47144" y2="26.0" stroke='blue' stroke-width='0.1' tags='slant'/>
    <line x1="17.5" y1="233.12228" x2="162.52858" y2="26.0" stroke='blue' stroke-width='0.1' tags='slant'/>
    <line x1="17.5" y1="244.62908" x2="170.58573" y2="26.0" stroke='blue' stroke-width='0.1' tags='slant'/>
    <line x1="17.5" y1="256.13587" x2="178.64287" y2="26.0" stroke='blue' stroke-width='0.1' tags='slant'/>
    <line x1="17.5" y1="267.64266" x2="186.70001" y2="26.0" stroke='blue' stroke-width='0.1' tags='slant'/>
    <line x1="23.20631" y1="271.0" x2="192.5" y2="29.22356" stroke='blue' stroke-width='0.1' tags='slant'/>
    <line x1="31.26345" y1="271.0" x2="192.5" y2="40.73035" stroke='blue' stroke-width='0.1' tags='slant'/>
    <line x1="39.3206" y1="271.0" x2="192.5" y2="52.23714" stroke='blue' stroke-width='0.1' tags='slant'/>
    <line x1="47.37774" y1="271.0" x2="192.5" y2="63.74394" stroke='blue' stroke-width='0.1' tags='slant'/>
    <line x1="55.43488" y1="271.0" x2="192.5" y2="75.25073" stroke='blue' stroke-width='0.1' tags='slant'/>
    <line x1="63.49203" y1="271.0" x2="192.5" y2="86.75752" stroke='blue' stroke-width='0.1' tags='slant'/>
    <line x1="71.54917" y1="271.0" x2="192.5" y2="98.26432" stroke='blue' stroke-width='0.1' tags='slant'/>
    <line x1="79.60632" y1="271.0" x2="192.5" y2="109.77111" stroke='blue' stroke-width='0.1' tags='slant'/>
    <line x1="87.66346" y1="271.0" x2="192.5" y2="121.2779" stroke='blue' stroke-width='0.1' tags='slant'/>
    <line x1="95.7206" y1="271.0" x2="192.5" y2="132.7847" stroke='blue' stroke-width='0.1' tags='slant'/>
    <line x1="103.77775" y1="271.0" x2="192.5" y2="144.29149" stroke='blue' stroke-width='0.1' tags='slant'/>
    <line x1="111.83489" y1="271.0" x2="192.5" y2="155.79828" stroke='blue' stroke-width='0.1' tags='slant'/>
    <line x1="119.89203" y1="271.0" x2="192.5" y2="167.30508" stroke='blue' stroke-width='0.1' tags='slant'/>
    <line x1="127.94918" y1="271.0" x2="192.5" y2="178.81187" stroke='blue' stroke-width='0.1' tags='slant'/>
    <line x1="136.00632" y1="271.0" x2="192.5" y2="190.31866" stroke='blue' stroke-width='0.1' tags='slant'/>
    <line x1="144.06346" y1="271.0" x2="192.5" y2="201.82546" stroke='blue' stroke-width='0.1' tags='slant'/>
    <line x1="152.12061" y1="271.0" x2="192.5" y2="213.33225" stroke='blue' stroke-width='0.1' tags='slant'/>
    <line x1="160.17775" y1="271.0" x2="192.5" y2="224.83904" stroke='blue' stroke-width='0.1' tags='slant'/>
    <line x1="168.23489" y1="271.0" x2="192.5" y2="236.34584" stroke='blue' stroke-width='0.1' tags='slant'/>
    <line x1="176.29204" y1="271.0" x2="192.5" y2="247.85263" stroke='blue' stroke-width='0.1' tags='slant'/>
    <line x1="184.34918" y1="271.0" x2="192.5" y2="259.35942" stroke='blue' stroke-width='0.1' tags='slant'/>
    <line x1="192.40632" y1="271.0" x2="192.5" y2="270.86622" stroke='blue' stroke-width='0.1' tags='slant'/>
    <line x1="17.5" y1="36.54498" x2="26.34829" y2="26.0" stroke='blue' stroke-width='0.07' stroke-dasharray='2, 2' tags='connective'/>
    <line x1="17.5" y1="47.08997" x2="35.19658" y2="26.0" stroke='blue' stroke-width='0.07' stroke-dasharray='2, 2' tags='connective'/>
    <line x1="17.5" y1="57.63495" x2="44.04487" y2="26.0" stroke='blue' stroke-width='0.07' stroke-dasharray='2, 2' tags='connective'/>
    <line x1="17.5" y1="68.17993" x2="52.89317" y2="26.0" stroke='blue' stroke-width='0.07' stroke-dasharray='2, 2' tags='connective'/>
    <line x1="17.5" y1="78.72492" x2="61.74146" y2="26.0" stroke='blue' stroke-width='0.07' stroke-dasharray='2, 2' tags='connective'/>
    <line x1="17.5" y1="89.2699" x2="70.58975" y2="26.0" stroke='blue' stroke-width='0.07' stroke-dasharray='2, 2' tags='connective'/>
    <line x1="17.5" y1="99.81488" x2="79.43804" y2="26.0" stroke='blue' stroke-width='0.07' stroke-dasharray='2, 2' tags='connective'/>
    <line x1="17.5" y1="110.35987" x2="88.28633" y2="26.0" stroke='blue' stroke-width='0.07' stroke-dasharray='2, 2' tags='connective'/>
    <line x1="17.5" y1="120.90485" x2="97.13462" y2="26.0" stroke='blue' stroke-width='0.07' stroke-dasharray='2, 2' tags='connective'/>
    <line x1="17.5" y1="131.44983" x2="105.98292" y2="26.0" stroke='blue' stroke-width='0.07' stroke-dasharray='2, 2' tags='connective'/>
    <line x1="17.5" y1="141.99482" x2="114.83121" y2="26.0" stroke='blue' stroke-width='0.07' stroke-dasharray='2, 2' tags='connective'/>
    <line x1="17.5" y1="152.5398" x2="123.6795" y2="26.0" stroke='blue' stroke-width='0.07' stroke-dasharray='2, 2' tags='connective'/>
    <line x1="17.5" y1="163.08478" x2="132.52779" y2="26.0" stroke='blue' stroke-width='0.07' stroke-dasharray='2, 2' tags='connective'/>
    <line x1="17.5" y1="173.62977" x2="141.37608" y2="26.0" stroke='blue' stroke-width='0.07' stroke-dasharray='2, 2' tags='connective'/>
    <line x1="17.5" y1="184.17475" x2="150.22437" y2="26.0" stroke='blue' stroke-width='0.07' stroke-dasharray='2, 2' tags='connective'/>
    <line x1="17.5" y1="194.71973" x2="159.07266" y2="26.0" stroke='blue' stroke-width='0.07' stroke-dasharray='2, 2' tags='connective'/>
    <line x1="17.5" y1="205.26472" x2="167.92096" y2="26.0" stroke='blue' stroke-width='0.07' stroke-dasharray='2, 2' tags='connective'/>
    <line x1="17.5" y1="215.8097" x2="176.76925" y2="26.0" stroke='blue' stroke-width='0.07' stroke-dasharray='2, 2' tags='connective'/>
    <line x1="17.5" y1="226.35468" x2="185.61754" y2="26.0" stroke='blue' stroke-width='0.07' stroke-dasharray='2, 2' tags='connective'/>
    <line x1="17.5" y1="236.89966" x2="192.5" y2="28.34279" stroke='blue' stroke-width='0.07' stroke-dasharray='2, 2' tags='connective'/>
    <line x1="17.5" y1="247.44465" x2="192.5" y2="38.88777" stroke='blue' stroke-width='0.07' stroke-dasharray='2, 2' tags='connective'/>
    <line x1="17.5" y1="257.98963" x2="192.5" y2="49.43275" stroke='blue' stroke-width='0.07' stroke-dasharray='2, 2' tags='connective'/>
    <line x1="17.5" y1="268.53461" x2="192.5" y2="59.97774" stroke='blue' stroke-width='0.07' stroke-dasharray='2, 2' tags='connective'/>
    <line x1="24.27959" y1="271.0" x2="192.5" y2="70.52272" stroke='blue' stroke-width='0.07' stroke-dasharray='2, 2' tags='connective'/>
    <line x1="33.12788" y1="271.0" x2="192.5" y2="81.0677" stroke='blue' stroke-width='0.07' stroke-dasharray='2, 2' tags='connective'/>
    <line x1="41.97617" y1="271.0" x2="192.5" y2="91.61269" stroke='blue' stroke-width='0.07' stroke-dasharray='2, 2' tags='connective'/>
    <line x1="50.82446" y1="271.0" x2="192.5" y2="102.15767" stroke='blue' stroke-width='0.07' stroke-dasharray='2, 2' tags='connective'/>
    <line x1="59.67275" y1="271.0" x2="192.5" y2="112.70265" stroke='blue' stroke-width='0.07' stroke-dasharray='2, 2' tags='connective'/>
    <line x1="68.52105" y1="271.0" x2="192.5" y2="123.24764" stroke='blue' stroke-width='0.07' stroke-dasharray='2, 2' tags='connective'/>
    <line x1="77.36934" y1="271.0" x2="192.5" y2="133.79262" stroke='blue' stroke-width='0.07' stroke-dasharray='2, 2' tags='connective'/>
    <line x1="86.21763" y1="271.0" x2="192.5" y2="144.3376" stroke='blue' stroke-width='0.07' stroke-dasharray='2, 2' tags='connective'/>
    <line x1="95.06592" y1="271.0" x2="192.5" y2="154.88258" stroke='blue' stroke-width='0.07' stroke-dasharray='2, 2' tags='connective'/>
    <line x1="103.91421" y1="271.0" x2="192.5" y2="165.42757" stroke='blue' stroke-width='0.07' stroke-dasharray='2, 2' tags='connective'/>
    <line x1="112.7625" y1="271.0" x2="192.5" y2="175.97255" stroke='blue' stroke-width='0.07' stroke-dasharray='2, 2' tags='connective'/>
    <line x1="121.61079" y1="271.0" x2="192.5" y2="186.51753" stroke='blue' stroke-width='0.07' stroke-dasharray='2, 2' tags='connective'/>
    <line x1="130.45909" y1="271.0" x2="192.5" y2="197.06252" stroke='blue' stroke-width='0.07' stroke-dasharray='2, 2' tags='connective'/>
    <line x1="139.30738" y1="271.0" x2="192.5" y2="207.6075" stroke='blue' stroke-width='0.07' stroke-dasharray='2, 2' tags='connective'/>
    <line x1="148.15567" y1="271.0" x2="192.5" y2="218.15248" stroke='blue' stroke-width='0.07' stroke-dasharray='2, 2' tags='connective'/>
    <line x1="157.00396" y1="271.0" x2="192.5" y2="228.69747" stroke='blue' stroke-width='0.07' stroke-dasharray='2, 2' tags='connective'/>
    <line x1="165.85225" y1="271.0" x2="192.5" y2="239.24245" stroke='blue' stroke-width='0.07' stroke-dasharray='2, 2' tags='connective'/>
    <line x1="174.70054" y1="271.0" x2="192.5" y2="249.78743" stroke='blue' stroke-width='0.07' stroke-dasharray='2, 2' tags='connective'/>
    <line x1="183.54884" y1="271.0" x2="192.5" y2="260.33242" stroke='blue' stroke-width='0.07' stroke-dasharray='2, 2' tags='connective'/>
    <line x1="192.39713" y1="271.0" x2="192.5" y2="270.8774" stroke='blue' stroke-width='0.07' stroke-dasharray='2, 2' tags='connective'/>
  </g>
</svg>
