<?xml version="1.0" standalone="no"?>
<!DOCTYPE svg PUBLIC "-//W3C//DTD SVG 1.1//EN" "http://www.w3.org/Graphics/SVG/1.1/DTD/svg11.dtd">
<svg xmlns="http://www.w3.org/2000/svg" width="297.0mm" height="210.0mm" viewBox="0 0 297.0 210.0" >

  <g id="sheet">
    <line x1="18.5" y1="25.0" x2="278.5" y2="25.0" stroke='blue' stroke-width='0.2' tags='ascender2'/>
    <line x1="18.5" y1="28.75" x2="278.5" y2="28.75" stroke='grey' stroke-width='0.1' stroke-dasharray='2, 2' tags='ascender1'/>
    <line x1="18.5" y1="32.5" x2="278.5" y2="32.5" stroke='grey' stroke-width='0.1' tags='waist'/>
    <line x1="18.5" y1="37.5" x2="278.5" y2="37.5" stroke='red' stroke-width='0.1' tags='base'/>
    <line x1="18.5" y1="41.25" x2="278.5" y2="41.25" stroke='grey' stroke-width='0.1' stroke-dasharray='2, 2' tags='descender1'/>
    <line x1="18.5" y1="45.0" x2="278.5" y2="45.0" stroke='blue' stroke-width='0.2' tags='descender2'/>
    <line x1="18.5" y1="48.75" x2="278.5" y2="48.75" stroke='grey' stroke-width='0.1' stroke-dasharray='2, 2' tags='ascender1'/>
    <line x1="18.5" y1="52.5" x2="278.5" y2="52.5" stroke='grey' stroke-width='0.1' tags='waist'/>
    <line x1="18.5" y1="57.5" x2="278.5" y2="57.5" stroke='red' stroke-width='0.1' tags='base'/>
    <line x1="18.5" y1="61.25" x2="278.5" y2="61.25" stroke='grey' stroke-width='0.1' stroke-dasharray='2, 2' tags='descender1'/>
    <line x1="18.5" y1="65.0" x2="278.5" y2="65.0" stroke='blue' stroke-width='0.2' tags='descender2'/>
    <line x1="18.5" y1="68.75" x2="278.5" y2="68.75" stroke='grey' stroke-width='0.1' stroke-dasharray='2, 2' tags='ascender1'/>
    <line x1="18.5" y1="72.5" x2="278.5" y2="72.5" stroke='grey' stroke-width='0.1' tags='waist'/>
    <line x1="18.5" y1="77.5" x2="278.5" y2="77.5" stroke='red' stroke-width='0.1' tags='base'/>
    <line x1="18.5" y1="81.25" x2="278.5" y2="81.25" stroke='grey' stroke-width='0.1' stroke-dasharray='2, 2' tags='descender1'/>
    <line x1="18.5" y1="85.0" x2="278.5" y2="85.0" stroke='blue' stroke-width='0.2' tags='descender2'/>
    <line x1="18.5" y1="88.75" x2="278.5" y2="88.75" stroke='grey' stroke-width='0.1' stroke-dasharray='2, 2' tags='ascender1'/>
    <line x1="18.5" y1="92.5" x2="278.5" y2="92.5" stroke='grey' stroke-width='0.1' tags='waist'/>
    <line x1="18.5" y1="97.5" x2="278.5" y2="97.5" stroke='red' stroke-width='0.1' tags='base'/>
    <line x1="18.5" y1="101.25" x2="278.5" y2="101.25" stroke='grey' stroke-width='0.1' stroke-dasharray='2, 2' tags='descender1'/>
    <line x1="18.5" y1="105.0" x2="278.5" y2="105.0" stroke='blue' stroke-width='0.2' tags='descender2'/>
    <line x1="18.5" y1="108.75" x2="278.5" y2="108.75" stroke='grey' stroke-width='0.1' stroke-dasharray='2, 2' tags='ascender1'/>
    <line x1="18.5" y1="112.5" x2="278.5" y2="112.5" stroke='grey' stroke-width='0.1' tags='waist'/>
    <line x1="18.5" y1="117.5" x2="278.5" y2="117.5" stroke='red' stroke-width='0.1' tags='base'/>
    <line x1="18.5" y1="121.25" x2="278.5" y2="121.25" stroke='grey' stroke-width='0.1' stroke-dasharray='2, 2' tags='descender1'/>
    <line x1="18.5" y1="125.0" x2="278.5" y2="125.0" stroke='blue' stroke-width='0.2' tags='descender2'/>
    <line x1="18.5" y1="128.75" x2="278.5" y2="128.75" stroke='grey' stroke-width='0.1' stroke-dasharray='2, 2' tags='ascender1'/>
    <line x1="18.5" y1="132.5" x2="278.5" y2="132.5" stroke='grey' stroke-width='0.1' tags='waist'/>
    <line x1="18.5" y1="137.5" x2="278.5" y2="137.5" stroke='red' stroke-width='0.1' tags='base'/>
    <line x1="18.5" y1="141.25" x2="278.5" y2="141.25" stroke='grey' stroke-width='0.1' stroke-dasharray='2, 2' tags='descender1'/>
    <line x1="18.5" y1="145.0" x2="278.5" y2="145.0" stroke='blue' stroke-width='0.2' tags='descender2'/>
    <line x1="18.5" y1="148.75" x2="278.5" y2="148.75" stroke='grey' stroke-width='0.1' stroke-dasharray='2, 2' tags='ascender1'/>
    <line x1="18.5" y1="152.5" x2="278.5" y2="152.5" stroke='grey' stroke-width='0.1' tags='waist'/>
    <line x1="18.5" y1="157.5" x2="278.5" y2="157.5" stroke='red' stroke-width='0.1' tags='base'/>
    <line x1="18.5" y1="161.25" x2="278.5" y2="161.25" stroke='grey' stroke-width='0.1' stroke-dasharray='2, 2' tags='descender1'/>
    <line x1="18.5" y1="165.0" x2="278.5" y2="165.0" stroke='blue' stroke-width='0.2' tags='descender2'/>
    <line x1="18.5" y1="168.75" x2="278.5" y2="168.75" stroke='grey' stroke-width='0.1' stroke-dasharray='2, 2' tags='ascender1'/>
    <line x1="18.5" y1="172.5" x2="278.5" y2="172.5" stroke='grey' stroke-width='0.1' tags='waist'/>
    <line x1="18.5" y1="177.5" x2="278.5" y2="177.5" stroke='red' stroke-width='0.1' tags='base'/>
    <line x1="18.5" y1="181.25" x2="278.5" y2="181.25" stroke='grey' stroke-width='0.1' stroke-dasharray='2, 2' tags='descender1'/>
    <line x1="18.5" y1="185.0" x2="278.5" y2="185.0" stroke='blue' stroke-width='0.2' tags='descender2'/>
    <line x1="18.5" y1="25.0" x2="18.5" y2="25.0" stroke='blue' stroke-width='0.1' tags='slant'/>
    <line x1="18.5" y1="33.70196" x2="24.59318" y2="25.0" stroke='blue' stroke-width='0.1' tags='slant'/>
    <line x1="18.5" y1="42.40392" x2="30.68635" y2="25.0" stroke='blue' stroke-width='0.1' tags='slant'/>
    <line x1="18.5" y1="51.10587" x2="36.77953" y2="25.0" stroke='blue' stroke-width='0.1' tags='slant'/>
    <line x1="18.5" y1="59.80783" x2="42.87271" y2="25.0" stroke='blue' stroke-width='0.1' tags='slant'/>
    <line x1="18.5" y1="68.50979" x2="48.96588" y2="25.0" stroke='blue' stroke-width='0.1' tags='slant'/>
    <line x1="18.5" y1="77.21175" x2="55.05906" y2="25.0" stroke='blue' stroke-width='0.1' tags='slant'/>
    <line x1="18.5" y1="85.9137" x2="61.15223" y2="25.0" stroke='blue' stroke-width='0.1' tags='slant'/>
    <line x1="18.5" y1="94.61566" x2="67.24541" y2="25.0" stroke='blue' stroke-width='0.1' tags='slant'/>
    <line x1="18.5" y1="103.31762" x2="73.33859" y2="25.0" stroke='blue' stroke-width='0.1' tags='slant'/>
    <line x1="18.5" y1="112.01958" x2="79.43176" y2="25.0" stroke='blue' stroke-width='0.1' tags='slant'/>
    <line x1="18.5" y1="120.72154" x2="85.52494" y2="25.0" stroke='blue' stroke-width='0.1' tags='slant'/>
    <line x1="18.5" y1="129.42349" x2="91.61812" y2="25.0" stroke='blue' stroke-width='0.1' tags='slant'/>
    <line x1="18.5" y1="138.12545" x2="97.71129" y2="25.0" stroke='blue' stroke-width='0.1' tags='slant'/>
    <line x1="18.5" y1="146.82741" x2="103.80447" y2="25.0" stroke='blue' stroke-width='0.1' tags='slant'/>
    <line x1="18.5" y1="155.52937" x2="109.89765" y2="25.0" stroke='blue' stroke-width='0.1' tags='slant'/>
    <line x1="18.5" y1="164.23132" x2="115.99082" y2="25.0" stroke='blue' stroke-width='0.1' tags='slant'/>
    <line x1="18.5" y1="172.93328" x2="122.084" y2="25.0" stroke='blue' stroke-width='0.1' tags='slant'/>
    <line x1="18.5" y1="181.63524" x2="128.17718" y2="25.0" stroke='blue' stroke-width='0.1' tags='slant'/>
    <line x1="22.23715" y1="185.0" x2="134.27035" y2="25.0" stroke='blue' stroke-width='0.1' tags='slant'/>
    <line x1="28.33032" y1="185.0" x2="140.36353" y2="25.0" stroke='blue' stroke-width='0.1' tags='slant'/>
    <line x1="34.4235" y1="185.0" x2="146.4567" y2="25.0" stroke='blue' stroke-width='0.1' tags='slant'/>
    <line x1="40.51668" y1="185.0" x2="152.54988" y2="25.0" stroke='blue' stroke-width='0.1' tags='slant'/>
    <line x1="46.60985" y1="185.0" x2="158.64306" y2="25.0" stroke='blue' stroke-width='0.1' tags='slant'/>
    <line x1="52.70303" y1="185.0" x2="164.73623" y2="25.0" stroke='blue' stroke-width='0.1' tags='slant'/>
    <line x1="58.7962" y1="185.0" x2="170.82941" y2="25.0" stroke='blue' stroke-width='0.1' tags='slant'/>
    <line x1="64.88938" y1="185.0" x2="176.92259" y2="25.0" stroke='blue' stroke-width='0.1' tags='slant'/>
    <line x1="70.98256" y1="185.0" x2="183.01576" y2="25.0" stroke='blue' stroke-width='0.1' tags='slant'/>
    <line x1="77.07573" y1="185.0" x2="189.10894" y2="25.0" stroke='blue' stroke-width='0.1' tags='slant'/>
    <line x1="83.16891" y1="185.0" x2="195.20212" y2="25.0" stroke='blue' stroke-width='0.1' tags='slant'/>
    <line x1="89.26209" y1="185.0" x2="201.29529" y2="25.0" stroke='blue' stroke-width='0.1' tags='slant'/>
    <line x1="95.35526" y1="185.0" x2="207.38847" y2="25.0" stroke='blue' stroke-width='0.1' tags='slant'/>
    <line x1="101.44844" y1="185.0" x2="213.48165" y2="25.0" stroke='blue' stroke-width='0.1' tags='slant'/>
    <line x1="107.54162" y1="185.0" x2="219.57482" y2="25.0" stroke='blue' stroke-width='0.1' tags='slant'/>
    <line x1="113.63479" y1="185.0" x2="225.668" y2="25.0" stroke='blue' stroke-width='0.1' tags='slant'/>
    <line x1="119.72797" y1="185.0" x2="231.76117" y2="25.0" stroke='blue' stroke-width='0.1' tags='slant'/>
    <line x1="125.82115" y1="185.0" x2="237.85435" y2="25.0" stroke='blue' stroke-width='0.1' tags='slant'/>
    <line x1="131.91432" y1="185.0" x2="243.94753" y2="25.0" stroke='blue' stroke-width='0.1' tags='slant'/>
    <line x1="138.0075" y1="185.0" x2="250.0407" y2="25.0" stroke='blue' stroke-width='0.1' tags='slant'/>
    <line x1="144.10067" y1="185.0" x2="256.13388" y2="25.0" stroke='blue' stroke-width='0.1' tags='slant'/>
    <line x1="150.19385" y1="185.0" x2="262.22706" y2="25.0" stroke='blue' stroke-width='0.1' tags='slant'/>
    <line x1="156.28703" y1="185.0" x2="268.32023" y2="25.0" stroke='blue' stroke-width='0.1' tags='slant'/>
    <line x1="162.3802" y1="185.0" x2="274.41341" y2="25.0" stroke='blue' stroke-width='0.1' tags='slant'/>
    <line x1="168.47338" y1="185.0" x2="278.5" y2="27.8657" stroke='blue' stroke-width='0.1' tags='slant'/>
    <line x1="174.56656" y1="185.0" x2="278.5" y2="36.56766" stroke='blue' stroke-width='0.1' tags='slant'/>
    <line x1="180.65973" y1="185.0" x2="278.5" y2="45.26962" stroke='blue' stroke-width='0.1' tags='slant'/>
    <line x1="186.75291" y1="185.0" x2="278.5" y2="53.97158" stroke='blue' stroke-width='0.1' tags='slant'/>
    <line x1="192.84609" y1="185.0" x2="278.5" y2="62.67353" stroke='blue' stroke-width='0.1' tags='slant'/>
    <line x1="198.93926" y1="185.0" x2="278.5" y2="71.37549" stroke='blue' stroke-width='0.1' tags='slant'/>
    <line x1="205.03244" y1="185.0" x2="278.5" y2="80.07745" stroke='blue' stroke-width='0.1' tags='slant'/>
    <line x1="211.12562" y1="185.0" x2="278.5" y2="88.77941" stroke='blue' stroke-width='0.1' tags='slant'/>
    <line x1="217.21879" y1="185.0" x2="278.5" y2="97.48136" stroke='blue' stroke-width='0.1' tags='slant'/>
    <line x1="223.31197" y1="185.0" x2="278.5" y2="106.18332" stroke='blue' stroke-width='0.1' tags='slant'/>
    <line x1="229.40514" y1="185.0" x2="278.5" y2="114.88528" stroke='blue' stroke-width='0.1' tags='slant'/>
    <line x1="235.49832" y1="185.0" x2="278.5" y2="123.58724" stroke='blue' stroke-width='0.1' tags='slant'/>
    <line x1="241.5915" y1="185.0" x2="278.5" y2="132.2892" stroke='blue' stroke-width='0.1' tags='slant'/>
    <line x1="247.68467" y1="185.0" x2="278.5" y2="140.99115" stroke='blue' stroke-width='0.1' tags='slant'/>
    <line x1="253.77785" y1="185.0" x2="278.5" y2="149.69311" stroke='blue' stroke-width='0.1' tags='slant'/>
    <line x1="259.87103" y1="185.0" x2="278.5" y2="158.39507" stroke='blue' stroke-width='0.1' tags='slant'/>
    <line x1="265.9642" y1="185.0" x2="278.5" y2="167.09703" stroke='blue' stroke-width='0.1' tags='slant'/>
    <line x1="272.05738" y1="185.0" x2="278.5" y2="175.79898" stroke='blue' stroke-width='0.1' tags='slant'/>
    <line x1="278.15056" y1="185.0" x2="278.5" y2="184.50094" stroke='blue' stroke-width='0.1' tags='slant'/>
    <line x1="18.5" y1="32.69532" x2="24.95714" y2="25.0" stroke='blue' stroke-width='0.07' stroke-dasharray='2, 2' tags='connective'/>
    <line x1="18.5" y1="40.39064" x2="31.41428" y2="25.0" stroke='blue' stroke-width='0.07' stroke-dasharray='2, 2' tags='connective'/>
    <line x1="18.5" y1="48.08596" x2="37.87142" y2="25.0" stroke='blue' stroke-width='0.07' stroke-dasharray='2, 2' tags='connective'/>
    <line x1="18.5" y1="55.78129" x2="44.32857" y2="25.0" stroke='blue' stroke-width='0.07' stroke-dasharray='2, 2' tags='connective'/>
    <line x1="18.5" y1="63.47661" x2="50.78571" y2="25.0" stroke='blue' stroke-width='0.07' stroke-dasharray='2, 2' tags='connective'/>
    <line x1="18.5" y1="71.17193" x2="57.24285" y2="25.0" stroke='blue' stroke-width='0.07' stroke-dasharray='2, 2' tags='connective'/>
    <line x1="18.5" y1="78.86725" x2="63.69999" y2="25.0" stroke='blue' stroke-width='0.07' stroke-dasharray='2, 2' tags='connective'/>
    <line x1="18.5" y1="86.56257" x2="70.15713" y2="25.0" stroke='blue' stroke-width='0.07' stroke-dasharray='2, 2' tags='connective'/>
    <line x1="18.5" y1="94.25789" x2="76.61427" y2="25.0" stroke='blue' stroke-width='0.07' stroke-dasharray='2, 2' tags='connective'/>
    <line x1="18.5" y1="101.95321" x2="83.07141" y2="25.0" stroke='blue' stroke-width='0.07' stroke-dasharray='2, 2' tags='connective'/>
    <line x1="18.5" y1="109.64854" x2="89.52856" y2="25.0" stroke='blue' stroke-width='0.07' stroke-dasharray='2, 2' tags='connective'/>
    <line x1="18.5" y1="117.34386" x2="95.9857" y2="25.0" stroke='blue' stroke-width='0.07' stroke-dasharray='2, 2' tags='connective'/>
    <line x1="18.5" y1="125.03918" x2="102.44284" y2="25.0" stroke='blue' stroke-width='0.07' stroke-dasharray='2, 2' tags='connective'/>
    <line x1="18.5" y1="132.7345" x2="108.89998" y2="25.0" stroke='blue' stroke-width='0.07' stroke-dasharray='2, 2' tags='connective'/>
    <line x1="18.5" y1="140.42982" x2="115.35712" y2="25.0" stroke='blue' stroke-width='0.07' stroke-dasharray='2, 2' tags='connective'/>
    <line x1="18.5" y1="148.12514" x2="121.81426" y2="25.0" stroke='blue' stroke-width='0.07' stroke-dasharray='2, 2' tags='connective'/>
    <line x1="18.5" y1="155.82046" x2="128.2714" y2="25.0" stroke='blue' stroke-width='0.07' stroke-dasharray='2, 2' tags='connective'/>
    <line x1="18.5" y1="163.51579" x2="134.72854" y2="25.0" stroke='blue' stroke-width='0.07' stroke-dasharray='2, 2' tags='connective'/>
    <line x1="18.5" y1="171.21111" x2="141.18569" y2="25.0" stroke='blue' stroke-width='0.07' stroke-dasharray='2, 2' tags='connective'/>
    <line x1="18.5" y1="178.90643" x2="147.64283" y2="25.0" stroke='blue' stroke-width='0.07' stroke-dasharray='2, 2' tags='connective'/>
    <line x1="19.84403" y1="185.0" x2="154.09997" y2="25.0" stroke='blue' stroke-width='0.07' stroke-dasharray='2, 2' tags='connective'/>
    <line x1="26.30117" y1="185.0" x2="160.55711" y2="25.0" stroke='blue' stroke-width='0.07' stroke-dasharray='2, 2' tags='connective'/>
    <line x1="32.75831" y1="185.0" x2="167.01425" y2="25.0" stroke='blue' stroke-width='0.07' stroke-dasharray='2, 2' tags='connective'/>
    <line x1="39.21545" y1="185.0" x2="173.47139" y2="25.0" stroke='blue' stroke-width='0.07' stroke-dasharray='2, 2' tags='connective'/>
    <line x1="45.67259" y1="185.0" x2="179.92853" y2="25.0" stroke='blue' stroke-width='0.07' stroke-dasharray='2, 2' tags='connective'/>
    <line x1="52.12973" y1="185.0" x2="186.38568" y2="25.0" stroke='blue' stroke-width='0.07' stroke-dasharray='2, 2' tags='connective'/>
    <line x1="58.58688" y1="185.0" x2="192.84282" y2="25.0" stroke='blue' stroke-width='0.07' stroke-dasharray='2, 2' tags='connective'/>
    <line x1="65.04402" y1="185.0" x2="199.29996" y2="25.0" stroke='blue' stroke-width='0.07' stroke-dasharray='2, 2' tags='connective'/>
    <line x1="71.50116" y1="185.0" x2="205.7571" y2="25.0" stroke='blue' stroke-width='0.07' stroke-dasharray='2, 2' tags='connective'/>
    <line x1="77.9583" y1="185.0" x2="212.21424" y2="25.0" stroke='blue' stroke-width='0.07' stroke-dasharray='2, 2' tags='connective'/>
    <line x1="84.41544" y1="185.0" x2="218.67138" y2="25.0" stroke='blue' stroke-width='0.07' stroke-dasharray='2, 2' tags='connective'/>
    <line x1="90.87258" y1="185.0" x2="225.12852" y2="25.0" stroke='blue' stroke-width='0.07' stroke-dasharray='2, 2' tags='connective'/>
    <line x1="97.32972" y1="185.0" x2="231.58567" y2="25.0" stroke='blue' stroke-width='0.07' stroke-dasharray='2, 2' tags='connective'/>
    <line x1="103.78687" y1="185.0" x2="238.04281" y2="25.0" stroke='blue' stroke-width='0.07' stroke-dasharray='2, 2' tags='connective'/>
    <line x1="110.24401" y1="185.0" x2="244.49995" y2="25.0" stroke='blue' stroke-width='0.07' stroke-dasharray='2, 2' tags='connective'/>
    <line x1="116.70115" y1="185.0" x2="250.95709" y2="25.0" stroke='blue' stroke-width='0.07' stroke-dasharray='2, 2' tags='connective'/>
    <line x1="123.15829" y1="185.0" x2="257.41423" y2="25.0" stroke='blue' stroke-width='0.07' stroke-dasharray='2, 2' tags='connective'/>
    <line x1="129.61543" y1="185.0" x2="263.87137" y2="25.0" stroke='blue' stroke-width='0.07' stroke-dasharray='2, 2' tags='connective'/>
    <line x1="136.07257" y1="185.0" x2="270.32851" y2="25.0" stroke='blue' stroke-width='0.07' stroke-dasharray='2, 2' tags='connective'/>
    <line x1="142.52971" y1="185.0" x2="276.78565" y2="25.0" stroke='blue' stroke-width='0.07' stroke-dasharray='2, 2' tags='connective'/>
    <line x1="148.98686" y1="185.0" x2="278.5" y2="30.65224" stroke='blue' stroke-width='0.07' stroke-dasharray='2, 2' tags='connective'/>
    <line x1="155.444" y1="185.0" x2="278.5" y2="38.34757" stroke='blue' stroke-width='0.07' stroke-dasharray='2, 2' tags='connective'/>
    <line x1="161.90114" y1="185.0" x2="278.5" y2="46.04289" stroke='blue' stroke-width='0.07' stroke-dasharray='2, 2' tags='connective'/>
    <line x1="168.35828" y1="185.0" x2="278.5" y2="53.73821" stroke='blue' stroke-width='0.07' stroke-dasharray='2, 2' tags='connective'/>
    <line x1="174.81542" y1="185.0" x2="278.5" y2="61.43353" stroke='blue' stroke-width='0.07' stroke-dasharray='2, 2' tags='connective'/>
    <line x1="181.27256" y1="185.0" x2="278.5" y2="69.12885" stroke='blue' stroke-width='0.07' stroke-dasharray='2, 2' tags='connective'/>
    <line x1="187.7297" y1="185.0" x2="278.5" y2="76.82417" stroke='blue' stroke-width='0.07' stroke-dasharray='2, 2' tags='connective'/>
    <line x1="194.18684" y1="185.0" x2="278.5" y2="84.51949" stroke='blue' stroke-width='0.07' stroke-dasharray='2, 2' tags='connective'/>
    <line x1="200.64399" y1="185.0" x2="278.5" y2="92.21482" stroke='blue' stroke-width='0.07' stroke-dasharray='2, 2' tags='connective'/>
    <line x1="207.10113" y1="185.0" x2="278.5" y2="99.91014" stroke='blue' stroke-width='0.07' stroke-dasharray='2, 2' tags='connective'/>
    <line x1="213.55827" y1="185.0" x2="278.5" y2="107.60546" stroke='blue' stroke-width='0.07' stroke-dasharray='2, 2' tags='connective'/>
    <line x1="220.01541" y1="185.0" x2="278.5" y2="115.30078" stroke='blue' stroke-width='0.07' stroke-dasharray='2, 2' tags='connective'/>
    <line x1="226.47255" y1="185.0" x2="278.5" y2="122.9961" stroke='blue' stroke-width='0.07' stroke-dasharray='2, 2' tags='connective'/>
    <line x1="232.92969" y1="185.0" x2="278.5" y2="130.69142" stroke='blue' stroke-width='0.07' stroke-dasharray='2, 2' tags='connective'/>
    <line x1="239.38683" y1="185.0" x2="278.5" y2="138.38674" stroke='blue' stroke-width='0.07' stroke-dasharray='2, 2' tags='connective'/>
    <line x1="245.84398" y1="185.0" x2="278.5" y2="146.08207" stroke='blue' stroke-width='0.07' stroke-dasharray='2, 2' tags='connective'/>
    <line x1="252.30112" y1="185.0" x2="278.5" y2="153.77739" stroke='blue' stroke-width='0.07' stroke-dasharray='2, 2' tags='connective'/>
    <line x1="258.75826" y1="185.0" x2="278.5" y2="161.47271" stroke='blue' stroke-width='0.07' stroke-dasharray='2, 2' tags='connective'/>
    <line x1="265.2154" y1="185.0" x2="278.5" y2="169.16803" stroke='blue' stroke-width='0.07' stroke-dasharray='2, 2' tags='connective'/>
    <line x1="271.67254" y1="185.0" x2="278.5" y2="176.86335" stroke='blue' stroke-width='0.07' stroke-dasharray='2, 2' tags='connective'/>
    <line x1="278.12968" y1="185.0" x2="278.5" y2="184.55867" stroke='blue' stroke-width='0.07' stroke-dasharray='2, 2' tags='connective'/>
  </g>
</svg>
