<?xml version="1.0" standalone="no"?>
<!DOCTYPE svg PUBLIC "-//W3C//DTD SVG 1.1//EN" "http://www.w3.org/Graphics/SVG/1.1/DTD/svg11.dtd">
<svg xmlns="http://www.w3.org/2000/svg" width="210.0mm" height="297.0mm" viewBox="0 0 210.0 297.0" >

  <g id="sheet">
    <line x1="21.0" y1="22.5" x2="189.0" y2="22.5" stroke='blue' stroke-width='0.2' tags='ascender2'/>
    <line x1="21.0" y1="27.75" x2="189.0" y2="27.75" stroke='grey' stroke-width='0.1' stroke-dasharray='2, 2' tags='ascender1'/>
    <line x1="21.0" y1="33.0" x2="189.0" y2="33.0" stroke='grey' stroke-width='0.1' tags='waist'/>
    <line x1="21.0" y1="40.0" x2="189.0" y2="40.0" stroke='red' stroke-width='0.1' tags='base'/>
    <line x1="21.0" y1="45.25" x2="189.0" y2="45.25" stroke='grey' stroke-width='0.1' stroke-dasharray='2, 2' tags='descender1'/>
    <line x1="21.0" y1="50.5" x2="189.0" y2="50.5" stroke='blue' stroke-width='0.2' tags='descender2'/>
    <line x1="21.0" y1="55.75" x2="189.0" y2="55.75" stroke='grey' stroke-width='0.1' stroke-dasharray='2, 2' tags='ascender1'/>
    <line x1="21.0" y1="61.0" x2="189.0" y2="61.0" stroke='grey' stroke-width='0.1' tags='waist'/>
    <line x1="21.0" y1="68.0" x2="189.0" y2="68.0" stroke='red' stroke-width='0.1' tags='base'/>
    <line x1="21.0" y1="73.25" x2="189.0" y2="73.25" stroke='grey' stroke-width='0.1' stroke-dasharray='2, 2' tags='descender1'/>
    <line x1="21.0" y1="78.5" x2="189.0" y2="78.5" stroke='blue' stroke-width='0.2' tags='descender2'/>
    <line x1="21.0" y1="83.75" x2="189.0" y2="83.75" stroke='grey' stroke-width='0.1' stroke-dasharray='2, 2' tags='ascender1'/>
    <line x1="21.0" y1="89.0" x2="189.0" y2="89.0" stroke='grey' stroke-width='0.1' tags='waist'/>
    <line x1="21.0" y1="96.0" x2="189.0" y2="96.0" stroke='red' stroke-width='0.1' tags='base'/>
    <line x1="21.0" y1="101.25" x2="189.0" y2="101.25" stroke='grey' stroke-width='0.1' stroke-dasharray='2, 2' tags='descender1'/>
    <line x1="21.0" y1="106.5" x2="189.0" y2="106.5" stroke='blue' stroke-width='0.2' tags='descender2'/>
    <line x1="21.0" y1="111.75" x2="189.0" y2="111.75" stroke='grey' stroke-width='0.1' stroke-dasharray='2, 2' tags='ascender1'/>
    <line x1="21.0" y1="117.0" x2="189.0" y2="117.0" stroke='grey' stroke-width='0.1' tags='waist'/>
    <line x1="21.0" y1="124.0" x2="189.0" y2="124.0" stroke='red' stroke-width='0.1' tags='base'/>
    <line x1="21.0" y1="129.25" x2="189.0" y2="129.25" stroke='grey' stroke-width='0.1' stroke-dasharray='2, 2' tags='descender1'/>
    <line x1="21.0" y1="134.5" x2="189.0" y2="134.5" stroke='blue' stroke-width='0.2' tags='descender2'/>
    <line x1="21.0" y1="139.75" x2="189.0" y2="139.75" stroke='grey' stroke-width='0.1' stroke-dasharray='2, 2' tags='ascender1'/>
    <line x1="21.0" y1="145.0" x2="189.0" y2="145.0" stroke='grey' stroke-width='0.1' tags='waist'/>
    <line x1="21.0" y1="152.0" x2="189.0" y2="152.0" stroke='red' stroke-width='0.1' tags='base'/>
    <line x1="21.0" y1="157.25" x2="189.0" y2="157.25" stroke='grey' stroke-width='0.1' stroke-dasharray='2, 2' tags='descender1'/>
    <line x1="21.0" y1="162.5" x2="189.0" y2="162.5" stroke='blue' stroke-width='0.2' tags='descender2'/>
    <line x1="21.0" y1="167.75" x2="189.0" y2="167.75" stroke='grey' stroke-width='0.1' stroke-dasharray='2, 2' tags='ascender1'/>
    <line x1="21.0" y1="173.0" x2="189.0" y2="173.0" stroke='grey' stroke-width='0.1' tags='waist'/>
    <line x1="21.0" y1="180.0" x2="189.0" y2="180.0" stroke='red' stroke-width='0.1' tags='base'/>
    <line x1="21.0" y1="185.25" x2="189.0" y2="185.25" stroke='grey' stroke-width='0.1' stroke-dasharray='2, 2' tags='descender1'/>
    <line x1="21.0" y1="190.5" x2="189.0" y2="190.5" stroke='blue' stroke-width='0.2' tags='descender2'/>
    <line x1="21.0" y1="195.75" x2="189.0" y2="195.75" stroke='grey' stroke-width='0.1' stroke-dasharray='2, 2' tags='ascender1'/>
    <line x1="21.0" y1="201.0" x2="189.0" y2="201.0" stroke='grey' stroke-width='0.1' tags='waist'/>
    <line x1="21.0" y1="208.0" x2="189.0" y2="208.0" stroke='red' stroke-width='0.1' tags='base'/>
    <line x1="21.0" y1="213.25" x2="189.0" y2="213.25" stroke='grey' stroke-width='0.1' stroke-dasharray='2, 2' tags='descender1'/>
    <line x1="21.0" y1="218.5" x2="189.0" y2="218.5" stroke='blue' stroke-width='0.2' tags='descender2'/>
    <line x1="21.0" y1="223.75" x2="189.0" y2="223.75" stroke='grey' stroke-width='0.1' stroke-dasharray='2, 2' tags='ascender1'/>
    <line x1="21.0" y1="229.0" x2="189.0" y2="229.0" stroke='grey' stroke-width='0.1' tags='waist'/>
    <line x1="21.0" y1="236.0" x2="189.0" y2="236.0" stroke='red' stroke-width='0.1' tags='base'/>
    <line x1="21.0" y1="241.25" x2="189.0" y2="241.25" stroke='grey' stroke-width='0.1' stroke-dasharray='2, 2' tags='descender1'/>
    <line x1="21.0" y1="246.5" x2="189.0" y2="246.5" stroke='blue' stroke-width='0.2' tags='descender2'/>
    <line x1="21.0" y1="251.75" x2="189.0" y2="251.75" stroke='grey' stroke-width='0.1' stroke-dasharray='2, 2' tags='ascender1'/>
    <line x1="21.0" y1="257.0" x2="189.0" y2="257.0" stroke='grey' stroke-width='0.1' tags='waist'/>
    <line x1="21.0" y1="264.0" x2="189.0" y2="264.0" stroke='red' stroke-width='0.1' tags='base'/>
    <line x1="21.0" y1="269.25" x2="189.0" y2="269.25" stroke='grey' stroke-width='0.1' stroke-dasharray='2, 2' tags='descender1'/>
    <line x1="21.0" y1="274.5" x2="189.0" y2="274.5" stroke='blue' stroke-width='0.2' tags='descender2'/>
    <line x1="21.0" y1="22.5" x2="21.0" y2="22.5" stroke='blue' stroke-width='0.1' tags='slant'/>
    <line x1="21.0" y1="33.86971" x2="28.96116" y2="22.5" stroke='blue' stroke-width='0.1' tags='slant'/>
    <line x1="21.0" y1="45.23942" x2="36.92231" y2="22.5" stroke='blue' stroke-width='0.1' tags='slant'/>
    <line x1="21.0" y1="56.60913" x2="44.88347" y2="22.5" stroke='blue' stroke-width='0.1' tags='slant'/>
    <line x1="21.0" y1="67.97884" x2="52.84463" y2="22.5" stroke='blue' stroke-width='0.1' tags='slant'/>
    <line x1="21.0" y1="79.34855" x2="60.80578" y2="22.5" stroke='blue' stroke-width='0.1' tags='slant'/>
    <line x1="21.0" y1="90.71826" x2="68.76694" y2="22.5" stroke='blue' stroke-width='0.1' tags='slant'/>
    <line x1="21.0" y1="102.08797" x2="76.7281" y2="22.5" stroke='blue' stroke-width='0.1' tags='slant'/>
    <line x1="21.0" y1="113.45768" x2="84.68925" y2="22.5" stroke='blue' stroke-width='0.1' tags='slant'/>
    <line x1="21.0" y1="124.82739" x2="92.65041" y2="22.5" stroke='blue' stroke-width='0.1' tags='slant'/>
    <line x1="21.0" y1="136.1971" x2="100.61157" y2="22.5" stroke='blue' stroke-width='0.1' tags='slant'/>
    <line x1="21.0" y1="147.56681" x2="108.57272" y2="22.5" stroke='blue' stroke-width='0.1' tags='slant'/>
    <line x1="21.0" y1="158.93652" x2="116.53388" y2="22.5" stroke='blue' stroke-width='0.1' tags='slant'/>
    <line x1="21.0" y1="170.30623" x2="124.49504" y2="22.5" stroke='blue' stroke-width='0.1' tags='slant'/>
    <line x1="21.0" y1="181.67594" x2="132.45619" y2="22.5" stroke='blue' stroke-width='0.1' tags='slant'/>
    <line x1="21.0" y1="193.04565" x2="140.41735" y2="22.5" stroke='blue' stroke-width='0.1' tags='slant'/>
    <line x1="21.0" y1="204.41536" x2="148.37851" y2="22.5" stroke='blue' stroke-width='0.1' tags='slant'/>
    <line x1="21.0" y1="215.78507" x2="156.33966" y2="22.5" stroke='blue' stroke-width='0.1' tags='slant'/>
    <line x1="21.0" y1="227.15478" x2="164.30082" y2="22.5" stroke='blue' stroke-width='0.1' tags='slant'/>
    <line x1="21.0" y1="238.52449" x2="172.26198" y2="22.5" stroke='blue' stroke-width='0.1' tags='slant'/>
    <line x1="21.0" y1="249.8942" x2="180.22313" y2="22.5" stroke='blue' stroke-width='0.1' tags='slant'/>
    <line x1="21.0" y1="261.26391" x2="188.18429" y2="22.5" stroke='blue' stroke-width='0.1' tags='slant'/>
    <line x1="21.0" y1="272.63362" x2="189.0" y2="32.70475" stroke='blue' stroke-width='0.1' tags='slant'/>
    <line x1="27.6543" y1="274.5" x2="189.0" y2="44.07446" stroke='blue' stroke-width='0.1' tags='slant'/>
    <line x1="35.61546" y1="274.5" x2="189.0" y2="55.44417" stroke='blue' stroke-width='0.1' tags='slant'/>
    <line x1="43.57662" y1="274.5" x2="189.0" y2="66.81388" stroke='blue' stroke-width='0.1' tags='slant'/>
    <line x1="51.53777" y1="274.5" x2="189.0" y2="78.18359" stroke='blue' stroke-width='0.1' tags='slant'/>
    <line x1="59.49893" y1="274.5" x2="189.0" y2="89.5533" stroke='blue' stroke-width='0.1' tags='slant'/>
    <line x1="67.46008" y1="274.5" x2="189.0" y2="100.92301" stroke='blue' stroke-width='0.1' tags='slant'/>
    <line x1="75.42124" y1="274.5" x2="189.0" y2="112.29272" stroke='blue' stroke-width='0.1' tags='slant'/>
    <line x1="83.3824" y1="274.5" x2="189.0" y2="123.66243" stroke='blue' stroke-width='0.1' tags='slant'/>
    <line x1="91.34355" y1="274.5" x2="189.0" y2="135.03214" stroke='blue' stroke-width='0.1' tags='slant'/>
    <line x1="99.30471" y1="274.5" x2="189.0" y2="146.40185" stroke='blue' stroke-width='0.1' tags='slant'/>
    <line x1="107.26587" y1="274.5" x2="189.0" y2="157.77156" stroke='blue' stroke-width='0.1' tags='slant'/>
    <line x1="115.22702" y1="274.5" x2="189.0" y2="169.14127" stroke='blue' stroke-width='0.1' tags='slant'/>
    <line x1="123.18818" y1="274.5" x2="189.0" y2="180.51098" stroke='blue' stroke-width='0.1' tags='slant'/>
    <line x1="131.14934" y1="274.5" x2="189.0" y2="191.88069" stroke='blue' stroke-width='0.1' tags='slant'/>
    <line x1="139.11049" y1="274.5" x2="189.0" y2="203.2504" stroke='blue' stroke-width='0.1' tags='slant'/>
    <line x1="147.07165" y1="274.5" x2="189.0" y2="214.62011" stroke='blue' stroke-width='0.1' tags='slant'/>
    <line x1="155.03281" y1="274.5" x2="189.0" y2="225.98982" stroke='blue' stroke-width='0.1' tags='slant'/>
    <line x1="162.99396" y1="274.5" x2="189.0" y2="237.35953" stroke='blue' stroke-width='0.1' tags='slant'/>
    <line x1="170.95512" y1="274.5" x2="189.0" y2="248.72924" stroke='blue' stroke-width='0.1' tags='slant'/>
    <line x1="178.91628" y1="274.5" x2="189.0" y2="260.09895" stroke='blue' stroke-width='0.1' tags='slant'/>
    <line x1="186.87743" y1="274.5" x2="189.0" y2="271.46866" stroke='blue' stroke-width='0.1' tags='slant'/>
    <line x1="21.0" y1="32.95181" x2="29.77011" y2="22.5" stroke='blue' stroke-width='0.07' stroke-dasharray='2, 2' tags='connective'/>
    <line x1="21.0" y1="43.40363" x2="38.54023" y2="22.5" stroke='blue' stroke-width='0.07' stroke-dasharray='2, 2' tags='connective'/>
    <line x1="21.0" y1="53.85544" x2="47.31034" y2="22.5" stroke='blue' stroke-width='0.07' stroke-dasharray='2, 2' tags='connective'/>
    <line x1="21.0" y1="64.30725" x2="56.08045" y2="22.5" stroke='blue' stroke-width='0.07' stroke-dasharray='2, 2' tags='connective'/>
    <line x1="21.0" y1="74.75907" x2="64.85057" y2="22.5" stroke='blue' stroke-width='0.07' stroke-dasharray='2, 2' tags='connective'/>
    <line x1="21.0" y1="85.21088" x2="73.62068" y2="22.5" stroke='blue' stroke-width='0.07' stroke-dasharray='2, 2' tags='connective'/>
    <line x1="21.0" y1="95.6627" x2="82.39079" y2="22.5" stroke='blue' stroke-width='0.07' stroke-dasharray='2, 2' tags='connective'/>
    <line x1="21.0" y1="106.11451" x2="91.1609" y2="22.5" stroke='blue' stroke-width='0.07' stroke-dasharray='2, 2' tags='connective'/>
    <line x1="21.0" y1="116.56632" x2="99.93102" y2="22.5" stroke='blue' stroke-width='0.07' stroke-dasharray='2, 2' tags='connective'/>
    <line x1="21.0" y1="127.01814" x2="108.70113" y2="22.5" stroke='blue' stroke-width='0.07' stroke-dasharray='2, 2' tags='connective'/>
    <line x1="21.0" y1="137.46995" x2="117.47124" y2="22.5" stroke='blue' stroke-width='0.07' stroke-dasharray='2, 2' tags='connective'/>
    <line x1="21.0" y1="147.92176" x2="126.24136" y2="22.5" stroke='blue' stroke-width='0.07' stroke-dasharray='2, 2' tags='connective'/>
    <line x1="21.0" y1="158.37358" x2="135.01147" y2="22.5" stroke='blue' stroke-width='0.07' stroke-dasharray='2, 2' tags='connective'/>
    <line x1="21.0" y1="168.82539" x2="143.78158" y2="22.5" stroke='blue' stroke-width='0.07' stroke-dasharray='2, 2' tags='connective'/>
    <line x1="21.0" y1="179.27721" x2="152.5517" y2="22.5" stroke='blue' stroke-width='0.07' stroke-dasharray='2, 2' tags='connective'/>
    <line x1="21.0" y1="189.72902" x2="161.32181" y2="22.5" stroke='blue' stroke-width='0.07' stroke-dasharray='2, 2' tags='connective'/>
    <line x1="21.0" y1="200.18083" x2="170.09192" y2="22.5" stroke='blue' stroke-width='0.07' stroke-dasharray='2, 2' tags='connective'/>
    <line x1="21.0" y1="210.63265" x2="178.86203" y2="22.5" stroke='blue' stroke-width='0.07' stroke-dasharray='2, 2' tags='connective'/>
    <line x1="21.0" y1="221.08446" x2="187.63215" y2="22.5" stroke='blue' stroke-width='0.07' stroke-dasharray='2, 2' tags='connective'/>
    <line x1="21.0" y1="231.53627" x2="189.0" y2="31.32167" stroke='blue' stroke-width='0.07' stroke-dasharray='2, 2' tags='connective'/>
    <line x1="21.0" y1="241.98809" x2="189.0" y2="41.77348" stroke='blue' stroke-width='0.07' stroke-dasharray='2, 2' tags='connective'/>
    <line x1="21.0" y1="252.4399" x2="189.0" y2="52.2253" stroke='blue' stroke-width='0.07' stroke-dasharray='2, 2' tags='connective'/>
    <line x1="21.0" y1="262.89172" x2="189.0" y2="62.67711" stroke='blue' stroke-width='0.07' stroke-dasharray='2, 2' tags='connective'/>
    <line x1="21.0" y1="273.34353" x2="189.0" y2="73.12893" stroke='blue' stroke-width='0.07' stroke-dasharray='2, 2' tags='connective'/>
    <line x1="28.79972" y1="274.5" x2="189.0" y2="83.58074" stroke='blue' stroke-width='0.07' stroke-dasharray='2, 2' tags='connective'/>
    <line x1="37.56983" y1="274.5" x2="189.0" y2="94.03255" stroke='blue' stroke-width='0.07' stroke-dasharray='2, 2' tags='connective'/>
    <line x1="46.33995" y1="274.5" x2="189.0" y2="104.48437" stroke='blue' stroke-width='0.07' stroke-dasharray='2, 2' tags='connective'/>
    <line x1="55.11006" y1="274.5" x2="189.0" y2="114.93618" stroke='blue' stroke-width='0.07' stroke-dasharray='2, 2' tags='connective'/>
    <line x1="63.88017" y1="274.5" x2="189.0" y2="125.38799" stroke='blue' stroke-width='0.07' stroke-dasharray='2, 2' tags='connective'/>
    <line x1="72.65028" y1="274.5" x2="189.0" y2="135.83981" stroke='blue' stroke-width='0.07' stroke-dasharray='2, 2' tags='connective'/>
    <line x1="81.4204" y1="274.5" x2="189.0" y2="146.29162" stroke='blue' stroke-width='0.07' stroke-dasharray='2, 2' tags='connective'/>
    <line x1="90.19051" y1="274.5" x2="189.0" y2="156.74344" stroke='blue' stroke-width='0.07' stroke-dasharray='2, 2' tags='connective'/>
    <line x1="98.96062" y1="274.5" x2="189.0" y2="167.19525" stroke='blue' stroke-width='0.07' stroke-dasharray='2, 2' tags='connective'/>
    <line x1="107.73074" y1="274.5" x2="189.0" y2="177.64706" stroke='blue' stroke-width='0.07' stroke-dasharray='2, 2' tags='connective'/>
    <line x1="116.50085" y1="274.5" x2="189.0" y2="188.09888" stroke='blue' stroke-width='0.07' stroke-dasharray='2, 2' tags='connective'/>
    <line x1="125.27096" y1="274.5" x2="189.0" y2="198.55069" stroke='blue' stroke-width='0.07' stroke-dasharray='2, 2' tags='connective'/>
    <line x1="134.04108" y1="274.5" x2="189.0" y2="209.0025" stroke='blue' stroke-width='0.07' stroke-dasharray='2, 2' tags='connective'/>
    <line x1="142.81119" y1="274.5" x2="189.0" y2="219.45432" stroke='blue' stroke-width='0.07' stroke-dasharray='2, 2' tags='connective'/>
    <line x1="151.5813" y1="274.5" x2="189.0" y2="229.90613" stroke='blue' stroke-width='0.07' stroke-dasharray='2, 2' tags='connective'/>
    <line x1="160.35141" y1="274.5" x2="189.0" y2="240.35795" stroke='blue' stroke-width='0.07' stroke-dasharray='2, 2' tags='connective'/>
    <line x1="169.12153" y1="274.5" x2="189.0" y2="250.80976" stroke='blue' stroke-width='0.07' stroke-dasharray='2, 2' tags='connective'/>
    <line x1="177.89164" y1="274.5" x2="189.0" y2="261.26157" stroke='blue' stroke-width='0.07' stroke-dasharray='2, 2' tags='connective'/>
    <line x1="186.66175" y1="274.5" x2="189.0" y2="271.71339" stroke='blue' stroke-width='0.07' stroke-dasharray='2, 2' tags='connective'/>
  </g>
</svg>
