<?xml version="1.0" standalone="no"?>
<!DOCTYPE svg PUBLIC "-//W3C//DTD SVG 1.1//EN" "http://www.w3.org/Graphics/SVG/1.1/DTD/svg11.dtd">
<svg xmlns="http://www.w3.org/2000/svg" width="297.0mm" height="210.0mm" viewBox="0 0 297.0 210.0" >

  <g id="sheet">
    <line x1="13.5" y1="22.5" x2="283.5" y2="22.5" stroke='blue' stroke-width='0.2' tags='ascender'/>
    <line x1="13.5" y1="27.5" x2="283.5" y2="27.5" stroke='grey' stroke-width='0.1' stroke-dasharray='2, 2' tags='waist'/>
    <line x1="13.5" y1="32.5" x2="283.5" y2="32.5" stroke='red' stroke-width='0.1' stroke-dasharray='2, 2' tags='base'/>
    <line x1="13.5" y1="37.5" x2="283.5" y2="37.5" stroke='blue' stroke-width='0.2' tags='descender'/>
    <line x1="13.5" y1="42.5" x2="283.5" y2="42.5" stroke='grey' stroke-width='0.1' stroke-dasharray='2, 2' tags='waist'/>
    <line x1="13.5" y1="47.5" x2="283.5" y2="47.5" stroke='red' stroke-width='0.1' stroke-dasharray='2, 2' tags='base'/>
    <line x1="13.5" y1="52.5" x2="283.5" y2="52.5" stroke='blue' stroke-width='0.2' tags='descender'/>
    <line x1="13.5" y1="57.5" x2="283.5" y2="57.5" stroke='grey' stroke-width='0.1' stroke-dasharray='2, 2' tags='waist'/>
    <line x1="13.5" y1="62.5" x2="283.5" y2="62.5" stroke='red' stroke-width='0.1' stroke-dasharray='2, 2' tags='base'/>
    <line x1="13.5" y1="67.5" x2="283.5" y2="67.5" stroke='blue' stroke-width='0.2' tags='descender'/>
    <line x1="13.5" y1="72.5" x2="283.5" y2="72.5" stroke='grey' stroke-width='0.1' stroke-dasharray='2, 2' tags='waist'/>
    <line x1="13.5" y1="77.5" x2="283.5" y2="77.5" stroke='red' stroke-width='0.1' stroke-dasharray='2, 2' tags='base'/>
    <line x1="13.5" y1="82.5" x2="283.5" y2="82.5" stroke='blue' stroke-width='0.2' tags='descender'/>
    <line x1="13.5" y1="87.5" x2="283.5" y2="87.5" stroke='grey' stroke-width='0.1' stroke-dasharray='2, 2' tags='waist'/>
    <line x1="13.5" y1="92.5" x2="283.5" y2="92.5" stroke='red' stroke-width='0.1' stroke-dasharray='2, 2' tags='base'/>
    <line x1="13.5" y1="97.5" x2="283.5" y2="97.5" stroke='blue' stroke-width='0.2' tags='descender'/>
    <line x1="13.5" y1="102.5" x2="283.5" y2="102.5" stroke='grey' stroke-width='0.1' stroke-dasharray='2, 2' tags='waist'/>
    <line x1="13.5" y1="107.5" x2="283.5" y2="107.5" stroke='red' stroke-width='0.1' stroke-dasharray='2, 2' tags='base'/>
    <line x1="13.5" y1="112.5" x2="283.5" y2="112.5" stroke='blue' stroke-width='0.2' tags='descender'/>
    <line x1="13.5" y1="117.5" x2="283.5" y2="117.5" stroke='grey' stroke-width='0.1' stroke-dasharray='2, 2' tags='waist'/>
    <line x1="13.5" y1="122.5" x2="283.5" y2="122.5" stroke='red' stroke-width='0.1' stroke-dasharray='2, 2' tags='base'/>
    <line x1="13.5" y1="127.5" x2="283.5" y2="127.5" stroke='blue' stroke-width='0.2' tags='descender'/>
    <line x1="13.5" y1="132.5" x2="283.5" y2="132.5" stroke='grey' stroke-width='0.1' stroke-dasharray='2, 2' tags='waist'/>
    <line x1="13.5" y1="137.5" x2="283.5" y2="137.5" stroke='red' stroke-width='0.1' stroke-dasharray='2, 2' tags='base'/>
    <line x1="13.5" y1="142.5" x2="283.5" y2="142.5" stroke='blue' stroke-width='0.2' tags='descender'/>
    <line x1="13.5" y1="147.5" x2="283.5" y2="147.5" stroke='grey' stroke-width='0.1' stroke-dasharray='2, 2' tags='waist'/>
    <line x1="13.5" y1="152.5" x2="283.5" y2="152.5" stroke='red' stroke-width='0.1' stroke-dasharray='2, 2' tags='base'/>
    <line x1="13.5" y1="157.5" x2="283.5" y2="157.5" stroke='blue' stroke-width='0.2' tags='descender'/>
    <line x1="13.5" y1="162.5" x2="283.5" y2="162.5" stroke='grey' stroke-width='0.1' stroke-dasharray='2, 2' tags='waist'/>
    <line x1="13.5" y1="167.5" x2="283.5" y2="167.5" stroke='red' stroke-width='0.1' stroke-dasharray='2, 2' tags='base'/>
    <line x1="13.5" y1="172.5" x2="283.5" y2="172.5" stroke='blue' stroke-width='0.2' tags='descender'/>
    <line x1="13.5" y1="177.5" x2="283.5" y2="177.5" stroke='grey' stroke-width='0.1' stroke-dasharray='2, 2' tags='waist'/>
    <line x1="13.5" y1="182.5" x2="283.5" y2="182.5" stroke='red' stroke-width='0.1' stroke-dasharray='2, 2' tags='base'/>
    <line x1="13.5" y1="187.5" x2="283.5" y2="187.5" stroke='blue' stroke-width='0.2' tags='descender'/>
    <line x1="13.5" y1="22.5" x2="13.5" y2="22.5" stroke='blue' stroke-width='0.05' tags='slant'/>
    <line x1="13.5" y1="52.0443" x2="18.17936" y2="22.5" stroke='blue' stroke-width='0.05' tags='slant'/>
    <line x1="13.5" y1="81.58859" x2="22.85871" y2="22.5" stroke='blue' stroke-width='0.05' tags='slant'/>
    <line x1="13.5" y1="111.13289" x2="27.53807" y2="22.5" stroke='blue' stroke-width='0.05' tags='slant'/>
    <line x1="13.5" y1="140.67719" x2="32.21743" y2="22.5" stroke='blue' stroke-width='0.05' tags='slant'/>
    <line x1="13.5" y1="170.22149" x2="36.89679" y2="22.5" stroke='blue' stroke-width='0.05' tags='slant'/>
    <line x1="15.44271" y1="187.5" x2="41.57614" y2="22.5" stroke='blue' stroke-width='0.05' tags='slant'/>
    <line x1="20.12207" y1="187.5" x2="46.2555" y2="22.5" stroke='blue' stroke-width='0.05' tags='slant'/>
    <line x1="24.80142" y1="187.5" x2="50.93486" y2="22.5" stroke='blue' stroke-width='0.05' tags='slant'/>
    <line x1="29.48078" y1="187.5" x2="55.61421" y2="22.5" stroke='blue' stroke-width='0.05' tags='slant'/>
    <line x1="34.16014" y1="187.5" x2="60.29357" y2="22.5" stroke='blue' stroke-width='0.05' tags='slant'/>
    <line x1="38.83949" y1="187.5" x2="64.97293" y2="22.5" stroke='blue' stroke-width='0.05' tags='slant'/>
    <line x1="43.51885" y1="187.5" x2="69.65228" y2="22.5" stroke='blue' stroke-width='0.05' tags='slant'/>
    <line x1="48.19821" y1="187.5" x2="74.33164" y2="22.5" stroke='blue' stroke-width='0.05' tags='slant'/>
    <line x1="52.87757" y1="187.5" x2="79.011" y2="22.5" stroke='blue' stroke-width='0.05' tags='slant'/>
    <line x1="57.55692" y1="187.5" x2="83.69036" y2="22.5" stroke='blue' stroke-width='0.05' tags='slant'/>
    <line x1="62.23628" y1="187.5" x2="88.36971" y2="22.5" stroke='blue' stroke-width='0.05' tags='slant'/>
    <line x1="66.91564" y1="187.5" x2="93.04907" y2="22.5" stroke='blue' stroke-width='0.05' tags='slant'/>
    <line x1="71.59499" y1="187.5" x2="97.72843" y2="22.5" stroke='blue' stroke-width='0.05' tags='slant'/>
    <line x1="76.27435" y1="187.5" x2="102.40778" y2="22.5" stroke='blue' stroke-width='0.05' tags='slant'/>
    <line x1="80.95371" y1="187.5" x2="107.08714" y2="22.5" stroke='blue' stroke-width='0.05' tags='slant'/>
    <line x1="85.63306" y1="187.5" x2="111.7665" y2="22.5" stroke='blue' stroke-width='0.05' tags='slant'/>
    <line x1="90.31242" y1="187.5" x2="116.44585" y2="22.5" stroke='blue' stroke-width='0.05' tags='slant'/>
    <line x1="94.99178" y1="187.5" x2="121.12521" y2="22.5" stroke='blue' stroke-width='0.05' tags='slant'/>
    <line x1="99.67114" y1="187.5" x2="125.80457" y2="22.5" stroke='blue' stroke-width='0.05' tags='slant'/>
    <line x1="104.35049" y1="187.5" x2="130.48393" y2="22.5" stroke='blue' stroke-width='0.05' tags='slant'/>
    <line x1="109.02985" y1="187.5" x2="135.16328" y2="22.5" stroke='blue' stroke-width='0.05' tags='slant'/>
    <line x1="113.70921" y1="187.5" x2="139.84264" y2="22.5" stroke='blue' stroke-width='0.05' tags='slant'/>
    <line x1="118.38856" y1="187.5" x2="144.522" y2="22.5" stroke='blue' stroke-width='0.05' tags='slant'/>
    <line x1="123.06792" y1="187.5" x2="149.20135" y2="22.5" stroke='blue' stroke-width='0.05' tags='slant'/>
    <line x1="127.74728" y1="187.5" x2="153.88071" y2="22.5" stroke='blue' stroke-width='0.05' tags='slant'/>
    <line x1="132.42663" y1="187.5" x2="158.56007" y2="22.5" stroke='blue' stroke-width='0.05' tags='slant'/>
    <line x1="137.10599" y1="187.5" x2="163.23942" y2="22.5" stroke='blue' stroke-width='0.05' tags='slant'/>
    <line x1="141.78535" y1="187.5" x2="167.91878" y2="22.5" stroke='blue' stroke-width='0.05' tags='slant'/>
    <line x1="146.46471" y1="187.5" x2="172.59814" y2="22.5" stroke='blue' stroke-width='0.05' tags='slant'/>
    <line x1="151.14406" y1="187.5" x2="177.2775" y2="22.5" stroke='blue' stroke-width='0.05' tags='slant'/>
    <line x1="155.82342" y1="187.5" x2="181.95685" y2="22.5" stroke='blue' stroke-width='0.05' tags='slant'/>
    <line x1="160.50278" y1="187.5" x2="186.63621" y2="22.5" stroke='blue' stroke-width='0.05' tags='slant'/>
    <line x1="165.18213" y1="187.5" x2="191.31557" y2="22.5" stroke='blue' stroke-width='0.05' tags='slant'/>
    <line x1="169.86149" y1="187.5" x2="195.99492" y2="22.5" stroke='blue' stroke-width='0.05' tags='slant'/>
    <line x1="174.54085" y1="187.5" x2="200.67428" y2="22.5" stroke='blue' stroke-width='0.05' tags='slant'/>
    <line x1="179.2202" y1="187.5" x2="205.35364" y2="22.5" stroke='blue' stroke-width='0.05' tags='slant'/>
    <line x1="183.89956" y1="187.5" x2="210.03299" y2="22.5" stroke='blue' stroke-width='0.05' tags='slant'/>
    <line x1="188.57892" y1="187.5" x2="214.71235" y2="22.5" stroke='blue' stroke-width='0.05' tags='slant'/>
    <line x1="193.25828" y1="187.5" x2="219.39171" y2="22.5" stroke='blue' stroke-width='0.05' tags='slant'/>
    <line x1="197.93763" y1="187.5" x2="224.07107" y2="22.5" stroke='blue' stroke-width='0.05' tags='slant'/>
    <line x1="202.61699" y1="187.5" x2="228.75042" y2="22.5" stroke='blue' stroke-width='0.05' tags='slant'/>
    <line x1="207.29635" y1="187.5" x2="233.42978" y2="22.5" stroke='blue' stroke-width='0.05' tags='slant'/>
    <line x1="211.9757" y1="187.5" x2="238.10914" y2="22.5" stroke='blue' stroke-width='0.05' tags='slant'/>
    <line x1="216.65506" y1="187.5" x2="242.78849" y2="22.5" stroke='blue' stroke-width='0.05' tags='slant'/>
    <line x1="221.33442" y1="187.5" x2="247.46785" y2="22.5" stroke='blue' stroke-width='0.05' tags='slant'/>
    <line x1="226.01377" y1="187.5" x2="252.14721" y2="22.5" stroke='blue' stroke-width='0.05' tags='slant'/>
    <line x1="230.69313" y1="187.5" x2="256.82656" y2="22.5" stroke='blue' stroke-width='0.05' tags='slant'/>
    <line x1="235.37249" y1="187.5" x2="261.50592" y2="22.5" stroke='blue' stroke-width='0.05' tags='slant'/>
    <line x1="240.05185" y1="187.5" x2="266.18528" y2="22.5" stroke='blue' stroke-width='0.05' tags='slant'/>
    <line x1="244.7312" y1="187.5" x2="270.86464" y2="22.5" stroke='blue' stroke-width='0.05' tags='slant'/>
    <line x1="249.41056" y1="187.5" x2="275.54399" y2="22.5" stroke='blue' stroke-width='0.05' tags='slant'/>
    <line x1="254.08992" y1="187.5" x2="280.22335" y2="22.5" stroke='blue' stroke-width='0.05' tags='slant'/>
    <line x1="258.76927" y1="187.5" x2="283.5" y2="31.35634" stroke='blue' stroke-width='0.05' tags='slant'/>
    <line x1="263.44863" y1="187.5" x2="283.5" y2="60.90064" stroke='blue' stroke-width='0.05' tags='slant'/>
    <line x1="268.12799" y1="187.5" x2="283.5" y2="90.44493" stroke='blue' stroke-width='0.05' tags='slant'/>
    <line x1="272.80734" y1="187.5" x2="283.5" y2="119.98923" stroke='blue' stroke-width='0.05' tags='slant'/>
    <line x1="277.4867" y1="187.5" x2="283.5" y2="149.53353" stroke='blue' stroke-width='0.05' tags='slant'/>
    <line x1="282.16606" y1="187.5" x2="283.5" y2="179.07783" stroke='blue' stroke-width='0.05' tags='slant'/>
  </g>
</svg>
