<?xml version="1.0" standalone="no"?>
<!DOCTYPE svg PUBLIC "-//W3C//DTD SVG 1.1//EN" "http://www.w3.org/Graphics/SVG/1.1/DTD/svg11.dtd">
<svg xmlns="http://www.w3.org/2000/svg" width="297.0mm" height="210.0mm" viewBox="0 0 297.0 210.0" shape-rendering="geometricPrecision" >
  <style>
    svg         { stroke:            #ed008c; }
    svg         { stroke-width:         0.04; }
    .altcolor   { stroke:               blue; }
    .extrafine  { stroke-width:         0.01; }
    .fine       { stroke-width:         0.02; }
    .medium     { stroke-width:         0.04; }
    .broad      { stroke-width:         0.08; }
    .extrabroad { stroke-width:         0.16; }
    .dashed     { stroke-dasharray:      2 2; }
  </style>
  <g id="sheet">
    <line x1="13.5" y1="15.0" x2="283.5" y2="15.0" class='ascender broad'/>
    <line x1="13.5" y1="20.0" x2="283.5" y2="20.0" class='waist altcolor'/>
    <line x1="13.5" y1="25.0" x2="283.5" y2="25.0" class='base'/>
    <line x1="13.5" y1="30.0" x2="283.5" y2="30.0" class='descender broad'/>
    <line x1="13.5" y1="35.0" x2="283.5" y2="35.0" class='waist altcolor'/>
    <line x1="13.5" y1="40.0" x2="283.5" y2="40.0" class='base'/>
    <line x1="13.5" y1="45.0" x2="283.5" y2="45.0" class='descender broad'/>
    <line x1="13.5" y1="50.0" x2="283.5" y2="50.0" class='waist altcolor'/>
    <line x1="13.5" y1="55.0" x2="283.5" y2="55.0" class='base'/>
    <line x1="13.5" y1="60.0" x2="283.5" y2="60.0" class='descender broad'/>
    <line x1="13.5" y1="65.0" x2="283.5" y2="65.0" class='waist altcolor'/>
    <line x1="13.5" y1="70.0" x2="283.5" y2="70.0" class='base'/>
    <line x1="13.5" y1="75.0" x2="283.5" y2="75.0" class='descender broad'/>
    <line x1="13.5" y1="80.0" x2="283.5" y2="80.0" class='waist altcolor'/>
    <line x1="13.5" y1="85.0" x2="283.5" y2="85.0" class='base'/>
    <line x1="13.5" y1="90.0" x2="283.5" y2="90.0" class='descender broad'/>
    <line x1="13.5" y1="95.0" x2="283.5" y2="95.0" class='waist altcolor'/>
    <line x1="13.5" y1="100.0" x2="283.5" y2="100.0" class='base'/>
    <line x1="13.5" y1="105.0" x2="283.5" y2="105.0" class='descender broad'/>
    <line x1="13.5" y1="110.0" x2="283.5" y2="110.0" class='waist altcolor'/>
    <line x1="13.5" y1="115.0" x2="283.5" y2="115.0" class='base'/>
    <line x1="13.5" y1="120.0" x2="283.5" y2="120.0" class='descender broad'/>
    <line x1="13.5" y1="125.0" x2="283.5" y2="125.0" class='waist altcolor'/>
    <line x1="13.5" y1="130.0" x2="283.5" y2="130.0" class='base'/>
    <line x1="13.5" y1="135.0" x2="283.5" y2="135.0" class='descender broad'/>
    <line x1="13.5" y1="140.0" x2="283.5" y2="140.0" class='waist altcolor'/>
    <line x1="13.5" y1="145.0" x2="283.5" y2="145.0" class='base'/>
    <line x1="13.5" y1="150.0" x2="283.5" y2="150.0" class='descender broad'/>
    <line x1="13.5" y1="155.0" x2="283.5" y2="155.0" class='waist altcolor'/>
    <line x1="13.5" y1="160.0" x2="283.5" y2="160.0" class='base'/>
    <line x1="13.5" y1="165.0" x2="283.5" y2="165.0" class='descender broad'/>
    <line x1="13.5" y1="170.0" x2="283.5" y2="170.0" class='waist altcolor'/>
    <line x1="13.5" y1="175.0" x2="283.5" y2="175.0" class='base'/>
    <line x1="13.5" y1="180.0" x2="283.5" y2="180.0" class='descender broad'/>
    <line x1="13.5" y1="185.0" x2="283.5" y2="185.0" class='waist altcolor'/>
    <line x1="13.5" y1="190.0" x2="283.5" y2="190.0" class='base'/>
    <line x1="13.5" y1="195.0" x2="283.5" y2="195.0" class='descender broad'/>
    <line x1="13.5" y1="15.0" x2="13.5" y2="15.0" class='slant fine'/>
    <line x1="13.5" y1="44.0403" x2="18.09953" y2="15.0" class='slant fine'/>
    <line x1="13.5" y1="73.08059" x2="22.69906" y2="15.0" class='slant fine'/>
    <line x1="13.5" y1="102.12089" x2="27.29859" y2="15.0" class='slant fine'/>
    <line x1="13.5" y1="131.16118" x2="31.89812" y2="15.0" class='slant fine'/>
    <line x1="13.5" y1="160.20148" x2="36.49765" y2="15.0" class='slant fine'/>
    <line x1="13.5" y1="189.24177" x2="41.09719" y2="15.0" class='slant fine'/>
    <line x1="17.18752" y1="195.0" x2="45.69672" y2="15.0" class='slant fine'/>
    <line x1="21.78705" y1="195.0" x2="50.29625" y2="15.0" class='slant fine'/>
    <line x1="26.38658" y1="195.0" x2="54.89578" y2="15.0" class='slant fine'/>
    <line x1="30.98611" y1="195.0" x2="59.49531" y2="15.0" class='slant fine'/>
    <line x1="35.58564" y1="195.0" x2="64.09484" y2="15.0" class='slant fine'/>
    <line x1="40.18517" y1="195.0" x2="68.69437" y2="15.0" class='slant fine'/>
    <line x1="44.7847" y1="195.0" x2="73.2939" y2="15.0" class='slant fine'/>
    <line x1="49.38423" y1="195.0" x2="77.89343" y2="15.0" class='slant fine'/>
    <line x1="53.98376" y1="195.0" x2="82.49296" y2="15.0" class='slant fine'/>
    <line x1="58.58329" y1="195.0" x2="87.09249" y2="15.0" class='slant fine'/>
    <line x1="63.18283" y1="195.0" x2="91.69202" y2="15.0" class='slant fine'/>
    <line x1="67.78236" y1="195.0" x2="96.29156" y2="15.0" class='slant fine'/>
    <line x1="72.38189" y1="195.0" x2="100.89109" y2="15.0" class='slant fine'/>
    <line x1="76.98142" y1="195.0" x2="105.49062" y2="15.0" class='slant fine'/>
    <line x1="81.58095" y1="195.0" x2="110.09015" y2="15.0" class='slant fine'/>
    <line x1="86.18048" y1="195.0" x2="114.68968" y2="15.0" class='slant fine'/>
    <line x1="90.78001" y1="195.0" x2="119.28921" y2="15.0" class='slant fine'/>
    <line x1="95.37954" y1="195.0" x2="123.88874" y2="15.0" class='slant fine'/>
    <line x1="99.97907" y1="195.0" x2="128.48827" y2="15.0" class='slant fine'/>
    <line x1="104.5786" y1="195.0" x2="133.0878" y2="15.0" class='slant fine'/>
    <line x1="109.17813" y1="195.0" x2="137.68733" y2="15.0" class='slant fine'/>
    <line x1="113.77767" y1="195.0" x2="142.28686" y2="15.0" class='slant fine'/>
    <line x1="118.3772" y1="195.0" x2="146.8864" y2="15.0" class='slant fine'/>
    <line x1="122.97673" y1="195.0" x2="151.48593" y2="15.0" class='slant fine'/>
    <line x1="127.57626" y1="195.0" x2="156.08546" y2="15.0" class='slant fine'/>
    <line x1="132.17579" y1="195.0" x2="160.68499" y2="15.0" class='slant fine'/>
    <line x1="136.77532" y1="195.0" x2="165.28452" y2="15.0" class='slant fine'/>
    <line x1="141.37485" y1="195.0" x2="169.88405" y2="15.0" class='slant fine'/>
    <line x1="145.97438" y1="195.0" x2="174.48358" y2="15.0" class='slant fine'/>
    <line x1="150.57391" y1="195.0" x2="179.08311" y2="15.0" class='slant fine'/>
    <line x1="155.17344" y1="195.0" x2="183.68264" y2="15.0" class='slant fine'/>
    <line x1="159.77297" y1="195.0" x2="188.28217" y2="15.0" class='slant fine'/>
    <line x1="164.3725" y1="195.0" x2="192.8817" y2="15.0" class='slant fine'/>
    <line x1="168.97204" y1="195.0" x2="197.48123" y2="15.0" class='slant fine'/>
    <line x1="173.57157" y1="195.0" x2="202.08077" y2="15.0" class='slant fine'/>
    <line x1="178.1711" y1="195.0" x2="206.6803" y2="15.0" class='slant fine'/>
    <line x1="182.77063" y1="195.0" x2="211.27983" y2="15.0" class='slant fine'/>
    <line x1="187.37016" y1="195.0" x2="215.87936" y2="15.0" class='slant fine'/>
    <line x1="191.96969" y1="195.0" x2="220.47889" y2="15.0" class='slant fine'/>
    <line x1="196.56922" y1="195.0" x2="225.07842" y2="15.0" class='slant fine'/>
    <line x1="201.16875" y1="195.0" x2="229.67795" y2="15.0" class='slant fine'/>
    <line x1="205.76828" y1="195.0" x2="234.27748" y2="15.0" class='slant fine'/>
    <line x1="210.36781" y1="195.0" x2="238.87701" y2="15.0" class='slant fine'/>
    <line x1="214.96734" y1="195.0" x2="243.47654" y2="15.0" class='slant fine'/>
    <line x1="219.56688" y1="195.0" x2="248.07607" y2="15.0" class='slant fine'/>
    <line x1="224.16641" y1="195.0" x2="252.67561" y2="15.0" class='slant fine'/>
    <line x1="228.76594" y1="195.0" x2="257.27514" y2="15.0" class='slant fine'/>
    <line x1="233.36547" y1="195.0" x2="261.87467" y2="15.0" class='slant fine'/>
    <line x1="237.965" y1="195.0" x2="266.4742" y2="15.0" class='slant fine'/>
    <line x1="242.56453" y1="195.0" x2="271.07373" y2="15.0" class='slant fine'/>
    <line x1="247.16406" y1="195.0" x2="275.67326" y2="15.0" class='slant fine'/>
    <line x1="251.76359" y1="195.0" x2="280.27279" y2="15.0" class='slant fine'/>
    <line x1="256.36312" y1="195.0" x2="283.5" y2="23.6645" class='slant fine'/>
    <line x1="260.96265" y1="195.0" x2="283.5" y2="52.70479" class='slant fine'/>
    <line x1="265.56218" y1="195.0" x2="283.5" y2="81.74509" class='slant fine'/>
    <line x1="270.16171" y1="195.0" x2="283.5" y2="110.78538" class='slant fine'/>
    <line x1="274.76125" y1="195.0" x2="283.5" y2="139.82568" class='slant fine'/>
    <line x1="279.36078" y1="195.0" x2="283.5" y2="168.86597" class='slant fine'/>
  </g>
</svg>
