<?xml version="1.0" standalone="no"?>
<!DOCTYPE svg PUBLIC "-//W3C//DTD SVG 1.1//EN" "http://www.w3.org/Graphics/SVG/1.1/DTD/svg11.dtd">
<svg xmlns="http://www.w3.org/2000/svg" width="210.0mm" height="297.0mm" viewBox="0 0 210.0 297.0" shape-rendering="geometricPrecision" >
  <style>
    svg         { stroke:            #ed008c; }
    svg         { stroke-width:         0.04; }
    .altcolor   { stroke:               blue; }
    .extrafine  { stroke-width:         0.01; }
    .fine       { stroke-width:         0.02; }
    .medium     { stroke-width:         0.04; }
    .broad      { stroke-width:         0.08; }
    .extrabroad { stroke-width:         0.16; }
    .dashed     { stroke-dasharray:      2 2; }
  </style>
  <g id="sheet">
    <line x1="10.5" y1="12.0" x2="199.5" y2="12.0" class='ascender broad'/>
    <line x1="10.5" y1="19.0" x2="199.5" y2="19.0" class='waist altcolor'/>
    <line x1="10.5" y1="26.0" x2="199.5" y2="26.0" class='base'/>
    <line x1="10.5" y1="33.0" x2="199.5" y2="33.0" class='descender broad'/>
    <line x1="10.5" y1="40.0" x2="199.5" y2="40.0" class='waist altcolor'/>
    <line x1="10.5" y1="47.0" x2="199.5" y2="47.0" class='base'/>
    <line x1="10.5" y1="54.0" x2="199.5" y2="54.0" class='descender broad'/>
    <line x1="10.5" y1="61.0" x2="199.5" y2="61.0" class='waist altcolor'/>
    <line x1="10.5" y1="68.0" x2="199.5" y2="68.0" class='base'/>
    <line x1="10.5" y1="75.0" x2="199.5" y2="75.0" class='descender broad'/>
    <line x1="10.5" y1="82.0" x2="199.5" y2="82.0" class='waist altcolor'/>
    <line x1="10.5" y1="89.0" x2="199.5" y2="89.0" class='base'/>
    <line x1="10.5" y1="96.0" x2="199.5" y2="96.0" class='descender broad'/>
    <line x1="10.5" y1="103.0" x2="199.5" y2="103.0" class='waist altcolor'/>
    <line x1="10.5" y1="110.0" x2="199.5" y2="110.0" class='base'/>
    <line x1="10.5" y1="117.0" x2="199.5" y2="117.0" class='descender broad'/>
    <line x1="10.5" y1="124.0" x2="199.5" y2="124.0" class='waist altcolor'/>
    <line x1="10.5" y1="131.0" x2="199.5" y2="131.0" class='base'/>
    <line x1="10.5" y1="138.0" x2="199.5" y2="138.0" class='descender broad'/>
    <line x1="10.5" y1="145.0" x2="199.5" y2="145.0" class='waist altcolor'/>
    <line x1="10.5" y1="152.0" x2="199.5" y2="152.0" class='base'/>
    <line x1="10.5" y1="159.0" x2="199.5" y2="159.0" class='descender broad'/>
    <line x1="10.5" y1="166.0" x2="199.5" y2="166.0" class='waist altcolor'/>
    <line x1="10.5" y1="173.0" x2="199.5" y2="173.0" class='base'/>
    <line x1="10.5" y1="180.0" x2="199.5" y2="180.0" class='descender broad'/>
    <line x1="10.5" y1="187.0" x2="199.5" y2="187.0" class='waist altcolor'/>
    <line x1="10.5" y1="194.0" x2="199.5" y2="194.0" class='base'/>
    <line x1="10.5" y1="201.0" x2="199.5" y2="201.0" class='descender broad'/>
    <line x1="10.5" y1="208.0" x2="199.5" y2="208.0" class='waist altcolor'/>
    <line x1="10.5" y1="215.0" x2="199.5" y2="215.0" class='base'/>
    <line x1="10.5" y1="222.0" x2="199.5" y2="222.0" class='descender broad'/>
    <line x1="10.5" y1="229.0" x2="199.5" y2="229.0" class='waist altcolor'/>
    <line x1="10.5" y1="236.0" x2="199.5" y2="236.0" class='base'/>
    <line x1="10.5" y1="243.0" x2="199.5" y2="243.0" class='descender broad'/>
    <line x1="10.5" y1="250.0" x2="199.5" y2="250.0" class='waist altcolor'/>
    <line x1="10.5" y1="257.0" x2="199.5" y2="257.0" class='base'/>
    <line x1="10.5" y1="264.0" x2="199.5" y2="264.0" class='descender broad'/>
    <line x1="10.5" y1="271.0" x2="199.5" y2="271.0" class='waist altcolor'/>
    <line x1="10.5" y1="278.0" x2="199.5" y2="278.0" class='base'/>
    <line x1="10.5" y1="285.0" x2="199.5" y2="285.0" class='descender broad'/>
    <line x1="10.5" y1="12.0" x2="10.5" y2="12.0" class='slant fine'/>
    <line x1="10.5" y1="42.9123" x2="15.39603" y2="12.0" class='slant fine'/>
    <line x1="10.5" y1="73.8246" x2="20.29205" y2="12.0" class='slant fine'/>
    <line x1="10.5" y1="104.73689" x2="25.18808" y2="12.0" class='slant fine'/>
    <line x1="10.5" y1="135.64919" x2="30.08411" y2="12.0" class='slant fine'/>
    <line x1="10.5" y1="166.56149" x2="34.98014" y2="12.0" class='slant fine'/>
    <line x1="10.5" y1="197.47379" x2="39.87616" y2="12.0" class='slant fine'/>
    <line x1="10.5" y1="228.38609" x2="44.77219" y2="12.0" class='slant fine'/>
    <line x1="10.5" y1="259.29838" x2="49.66822" y2="12.0" class='slant fine'/>
    <line x1="11.32529" y1="285.0" x2="54.56424" y2="12.0" class='slant fine'/>
    <line x1="16.22132" y1="285.0" x2="59.46027" y2="12.0" class='slant fine'/>
    <line x1="21.11734" y1="285.0" x2="64.3563" y2="12.0" class='slant fine'/>
    <line x1="26.01337" y1="285.0" x2="69.25232" y2="12.0" class='slant fine'/>
    <line x1="30.9094" y1="285.0" x2="74.14835" y2="12.0" class='slant fine'/>
    <line x1="35.80543" y1="285.0" x2="79.04438" y2="12.0" class='slant fine'/>
    <line x1="40.70145" y1="285.0" x2="83.94041" y2="12.0" class='slant fine'/>
    <line x1="45.59748" y1="285.0" x2="88.83643" y2="12.0" class='slant fine'/>
    <line x1="50.49351" y1="285.0" x2="93.73246" y2="12.0" class='slant fine'/>
    <line x1="55.38953" y1="285.0" x2="98.62849" y2="12.0" class='slant fine'/>
    <line x1="60.28556" y1="285.0" x2="103.52451" y2="12.0" class='slant fine'/>
    <line x1="65.18159" y1="285.0" x2="108.42054" y2="12.0" class='slant fine'/>
    <line x1="70.07761" y1="285.0" x2="113.31657" y2="12.0" class='slant fine'/>
    <line x1="74.97364" y1="285.0" x2="118.21259" y2="12.0" class='slant fine'/>
    <line x1="79.86967" y1="285.0" x2="123.10862" y2="12.0" class='slant fine'/>
    <line x1="84.7657" y1="285.0" x2="128.00465" y2="12.0" class='slant fine'/>
    <line x1="89.66172" y1="285.0" x2="132.90068" y2="12.0" class='slant fine'/>
    <line x1="94.55775" y1="285.0" x2="137.7967" y2="12.0" class='slant fine'/>
    <line x1="99.45378" y1="285.0" x2="142.69273" y2="12.0" class='slant fine'/>
    <line x1="104.3498" y1="285.0" x2="147.58876" y2="12.0" class='slant fine'/>
    <line x1="109.24583" y1="285.0" x2="152.48478" y2="12.0" class='slant fine'/>
    <line x1="114.14186" y1="285.0" x2="157.38081" y2="12.0" class='slant fine'/>
    <line x1="119.03788" y1="285.0" x2="162.27684" y2="12.0" class='slant fine'/>
    <line x1="123.93391" y1="285.0" x2="167.17286" y2="12.0" class='slant fine'/>
    <line x1="128.82994" y1="285.0" x2="172.06889" y2="12.0" class='slant fine'/>
    <line x1="133.72597" y1="285.0" x2="176.96492" y2="12.0" class='slant fine'/>
    <line x1="138.62199" y1="285.0" x2="181.86095" y2="12.0" class='slant fine'/>
    <line x1="143.51802" y1="285.0" x2="186.75697" y2="12.0" class='slant fine'/>
    <line x1="148.41405" y1="285.0" x2="191.653" y2="12.0" class='slant fine'/>
    <line x1="153.31007" y1="285.0" x2="196.54903" y2="12.0" class='slant fine'/>
    <line x1="158.2061" y1="285.0" x2="199.5" y2="24.28058" class='slant fine'/>
    <line x1="163.10213" y1="285.0" x2="199.5" y2="55.19288" class='slant fine'/>
    <line x1="167.99815" y1="285.0" x2="199.5" y2="86.10518" class='slant fine'/>
    <line x1="172.89418" y1="285.0" x2="199.5" y2="117.01748" class='slant fine'/>
    <line x1="177.79021" y1="285.0" x2="199.5" y2="147.92977" class='slant fine'/>
    <line x1="182.68624" y1="285.0" x2="199.5" y2="178.84207" class='slant fine'/>
    <line x1="187.58226" y1="285.0" x2="199.5" y2="209.75437" class='slant fine'/>
    <line x1="192.47829" y1="285.0" x2="199.5" y2="240.66667" class='slant fine'/>
    <line x1="197.37432" y1="285.0" x2="199.5" y2="271.57897" class='slant fine'/>
  </g>
</svg>
