<?xml version="1.0" standalone="no"?>
<!DOCTYPE svg PUBLIC "-//W3C//DTD SVG 1.1//EN" "http://www.w3.org/Graphics/SVG/1.1/DTD/svg11.dtd">
<svg xmlns="http://www.w3.org/2000/svg" width="210.0mm" height="148.5mm" viewBox="0 0 210.0 148.5" >

  <g id="sheet">
    <line x1="15.0" y1="29.25" x2="195.0" y2="29.25" stroke='blue' stroke-width='0.1' tags='hline'/>
    <line x1="15.0" y1="34.25" x2="195.0" y2="34.25" stroke='blue' stroke-width='0.1' tags='hline'/>
    <line x1="15.0" y1="39.25" x2="195.0" y2="39.25" stroke='blue' stroke-width='0.1' tags='hline'/>
    <line x1="15.0" y1="44.25" x2="195.0" y2="44.25" stroke='blue' stroke-width='0.1' tags='hline'/>
    <line x1="15.0" y1="49.25" x2="195.0" y2="49.25" stroke='blue' stroke-width='0.1' tags='hline'/>
    <line x1="15.0" y1="54.25" x2="195.0" y2="54.25" stroke='blue' stroke-width='0.1' tags='hline'/>
    <line x1="15.0" y1="59.25" x2="195.0" y2="59.25" stroke='blue' stroke-width='0.1' tags='hline'/>
    <line x1="15.0" y1="64.25" x2="195.0" y2="64.25" stroke='blue' stroke-width='0.1' tags='hline'/>
    <line x1="15.0" y1="69.25" x2="195.0" y2="69.25" stroke='blue' stroke-width='0.1' tags='hline'/>
    <line x1="15.0" y1="74.25" x2="195.0" y2="74.25" stroke='blue' stroke-width='0.1' tags='hline'/>
    <line x1="15.0" y1="79.25" x2="195.0" y2="79.25" stroke='blue' stroke-width='0.1' tags='hline'/>
    <line x1="15.0" y1="84.25" x2="195.0" y2="84.25" stroke='blue' stroke-width='0.1' tags='hline'/>
    <line x1="15.0" y1="89.25" x2="195.0" y2="89.25" stroke='blue' stroke-width='0.1' tags='hline'/>
    <line x1="15.0" y1="94.25" x2="195.0" y2="94.25" stroke='blue' stroke-width='0.1' tags='hline'/>
    <line x1="15.0" y1="99.25" x2="195.0" y2="99.25" stroke='blue' stroke-width='0.1' tags='hline'/>
    <line x1="15.0" y1="104.25" x2="195.0" y2="104.25" stroke='blue' stroke-width='0.1' tags='hline'/>
    <line x1="15.0" y1="109.25" x2="195.0" y2="109.25" stroke='blue' stroke-width='0.1' tags='hline'/>
    <line x1="15.0" y1="114.25" x2="195.0" y2="114.25" stroke='blue' stroke-width='0.1' tags='hline'/>
    <line x1="15.0" y1="119.25" x2="195.0" y2="119.25" stroke='blue' stroke-width='0.1' tags='hline'/>
    <line x1="15.0" y1="29.25" x2="15.0" y2="119.25" stroke='blue' stroke-width='0.1' tags='vline'/>
    <line x1="20.0" y1="29.25" x2="20.0" y2="119.25" stroke='blue' stroke-width='0.1' tags='vline'/>
    <line x1="25.0" y1="29.25" x2="25.0" y2="119.25" stroke='blue' stroke-width='0.1' tags='vline'/>
    <line x1="30.0" y1="29.25" x2="30.0" y2="119.25" stroke='blue' stroke-width='0.1' tags='vline'/>
    <line x1="35.0" y1="29.25" x2="35.0" y2="119.25" stroke='blue' stroke-width='0.1' tags='vline'/>
    <line x1="40.0" y1="29.25" x2="40.0" y2="119.25" stroke='blue' stroke-width='0.1' tags='vline'/>
    <line x1="45.0" y1="29.25" x2="45.0" y2="119.25" stroke='blue' stroke-width='0.1' tags='vline'/>
    <line x1="50.0" y1="29.25" x2="50.0" y2="119.25" stroke='blue' stroke-width='0.1' tags='vline'/>
    <line x1="55.0" y1="29.25" x2="55.0" y2="119.25" stroke='blue' stroke-width='0.1' tags='vline'/>
    <line x1="60.0" y1="29.25" x2="60.0" y2="119.25" stroke='blue' stroke-width='0.1' tags='vline'/>
    <line x1="65.0" y1="29.25" x2="65.0" y2="119.25" stroke='blue' stroke-width='0.1' tags='vline'/>
    <line x1="70.0" y1="29.25" x2="70.0" y2="119.25" stroke='blue' stroke-width='0.1' tags='vline'/>
    <line x1="75.0" y1="29.25" x2="75.0" y2="119.25" stroke='blue' stroke-width='0.1' tags='vline'/>
    <line x1="80.0" y1="29.25" x2="80.0" y2="119.25" stroke='blue' stroke-width='0.1' tags='vline'/>
    <line x1="85.0" y1="29.25" x2="85.0" y2="119.25" stroke='blue' stroke-width='0.1' tags='vline'/>
    <line x1="90.0" y1="29.25" x2="90.0" y2="119.25" stroke='blue' stroke-width='0.1' tags='vline'/>
    <line x1="95.0" y1="29.25" x2="95.0" y2="119.25" stroke='blue' stroke-width='0.1' tags='vline'/>
    <line x1="100.0" y1="29.25" x2="100.0" y2="119.25" stroke='blue' stroke-width='0.1' tags='vline'/>
    <line x1="105.0" y1="29.25" x2="105.0" y2="119.25" stroke='blue' stroke-width='0.1' tags='vline'/>
    <line x1="110.0" y1="29.25" x2="110.0" y2="119.25" stroke='blue' stroke-width='0.1' tags='vline'/>
    <line x1="115.0" y1="29.25" x2="115.0" y2="119.25" stroke='blue' stroke-width='0.1' tags='vline'/>
    <line x1="120.0" y1="29.25" x2="120.0" y2="119.25" stroke='blue' stroke-width='0.1' tags='vline'/>
    <line x1="125.0" y1="29.25" x2="125.0" y2="119.25" stroke='blue' stroke-width='0.1' tags='vline'/>
    <line x1="130.0" y1="29.25" x2="130.0" y2="119.25" stroke='blue' stroke-width='0.1' tags='vline'/>
    <line x1="135.0" y1="29.25" x2="135.0" y2="119.25" stroke='blue' stroke-width='0.1' tags='vline'/>
    <line x1="140.0" y1="29.25" x2="140.0" y2="119.25" stroke='blue' stroke-width='0.1' tags='vline'/>
    <line x1="145.0" y1="29.25" x2="145.0" y2="119.25" stroke='blue' stroke-width='0.1' tags='vline'/>
    <line x1="150.0" y1="29.25" x2="150.0" y2="119.25" stroke='blue' stroke-width='0.1' tags='vline'/>
    <line x1="155.0" y1="29.25" x2="155.0" y2="119.25" stroke='blue' stroke-width='0.1' tags='vline'/>
    <line x1="160.0" y1="29.25" x2="160.0" y2="119.25" stroke='blue' stroke-width='0.1' tags='vline'/>
    <line x1="165.0" y1="29.25" x2="165.0" y2="119.25" stroke='blue' stroke-width='0.1' tags='vline'/>
    <line x1="170.0" y1="29.25" x2="170.0" y2="119.25" stroke='blue' stroke-width='0.1' tags='vline'/>
    <line x1="175.0" y1="29.25" x2="175.0" y2="119.25" stroke='blue' stroke-width='0.1' tags='vline'/>
    <line x1="180.0" y1="29.25" x2="180.0" y2="119.25" stroke='blue' stroke-width='0.1' tags='vline'/>
    <line x1="185.0" y1="29.25" x2="185.0" y2="119.25" stroke='blue' stroke-width='0.1' tags='vline'/>
    <line x1="190.0" y1="29.25" x2="190.0" y2="119.25" stroke='blue' stroke-width='0.1' tags='vline'/>
    <line x1="195.0" y1="29.25" x2="195.0" y2="119.25" stroke='blue' stroke-width='0.1' tags='vline'/>
    <line x1="15.0" y1="29.25" x2="15.0" y2="29.25" stroke='blue' stroke-width='0.1' tags='slant'/>
    <line x1="15.0" y1="37.21014" x2="21.21914" y2="29.25" stroke='blue' stroke-width='0.1' tags='slant'/>
    <line x1="15.0" y1="45.17028" x2="27.43829" y2="29.25" stroke='blue' stroke-width='0.1' tags='slant'/>
    <line x1="15.0" y1="53.13042" x2="33.65743" y2="29.25" stroke='blue' stroke-width='0.1' tags='slant'/>
    <line x1="15.0" y1="61.09056" x2="39.87657" y2="29.25" stroke='blue' stroke-width='0.1' tags='slant'/>
    <line x1="15.0" y1="69.0507" x2="46.09572" y2="29.25" stroke='blue' stroke-width='0.1' tags='slant'/>
    <line x1="15.0" y1="77.01085" x2="52.31486" y2="29.25" stroke='blue' stroke-width='0.1' tags='slant'/>
    <line x1="15.0" y1="84.97099" x2="58.53401" y2="29.25" stroke='blue' stroke-width='0.1' tags='slant'/>
    <line x1="15.0" y1="92.93113" x2="64.75315" y2="29.25" stroke='blue' stroke-width='0.1' tags='slant'/>
    <line x1="15.0" y1="100.89127" x2="70.97229" y2="29.25" stroke='blue' stroke-width='0.1' tags='slant'/>
    <line x1="15.0" y1="108.85141" x2="77.19144" y2="29.25" stroke='blue' stroke-width='0.1' tags='slant'/>
    <line x1="15.0" y1="116.81155" x2="83.41058" y2="29.25" stroke='blue' stroke-width='0.1' tags='slant'/>
    <line x1="19.31402" y1="119.25" x2="89.62972" y2="29.25" stroke='blue' stroke-width='0.1' tags='slant'/>
    <line x1="25.53316" y1="119.25" x2="95.84887" y2="29.25" stroke='blue' stroke-width='0.1' tags='slant'/>
    <line x1="31.75231" y1="119.25" x2="102.06801" y2="29.25" stroke='blue' stroke-width='0.1' tags='slant'/>
    <line x1="37.97145" y1="119.25" x2="108.28716" y2="29.25" stroke='blue' stroke-width='0.1' tags='slant'/>
    <line x1="44.19059" y1="119.25" x2="114.5063" y2="29.25" stroke='blue' stroke-width='0.1' tags='slant'/>
    <line x1="50.40974" y1="119.25" x2="120.72544" y2="29.25" stroke='blue' stroke-width='0.1' tags='slant'/>
    <line x1="56.62888" y1="119.25" x2="126.94459" y2="29.25" stroke='blue' stroke-width='0.1' tags='slant'/>
    <line x1="62.84802" y1="119.25" x2="133.16373" y2="29.25" stroke='blue' stroke-width='0.1' tags='slant'/>
    <line x1="69.06717" y1="119.25" x2="139.38287" y2="29.25" stroke='blue' stroke-width='0.1' tags='slant'/>
    <line x1="75.28631" y1="119.25" x2="145.60202" y2="29.25" stroke='blue' stroke-width='0.1' tags='slant'/>
    <line x1="81.50546" y1="119.25" x2="151.82116" y2="29.25" stroke='blue' stroke-width='0.1' tags='slant'/>
    <line x1="87.7246" y1="119.25" x2="158.04031" y2="29.25" stroke='blue' stroke-width='0.1' tags='slant'/>
    <line x1="93.94374" y1="119.25" x2="164.25945" y2="29.25" stroke='blue' stroke-width='0.1' tags='slant'/>
    <line x1="100.16289" y1="119.25" x2="170.47859" y2="29.25" stroke='blue' stroke-width='0.1' tags='slant'/>
    <line x1="106.38203" y1="119.25" x2="176.69774" y2="29.25" stroke='blue' stroke-width='0.1' tags='slant'/>
    <line x1="112.60117" y1="119.25" x2="182.91688" y2="29.25" stroke='blue' stroke-width='0.1' tags='slant'/>
    <line x1="118.82032" y1="119.25" x2="189.13602" y2="29.25" stroke='blue' stroke-width='0.1' tags='slant'/>
    <line x1="125.03946" y1="119.25" x2="195.0" y2="29.70459" stroke='blue' stroke-width='0.1' tags='slant'/>
    <line x1="131.25861" y1="119.25" x2="195.0" y2="37.66474" stroke='blue' stroke-width='0.1' tags='slant'/>
    <line x1="137.47775" y1="119.25" x2="195.0" y2="45.62488" stroke='blue' stroke-width='0.1' tags='slant'/>
    <line x1="143.69689" y1="119.25" x2="195.0" y2="53.58502" stroke='blue' stroke-width='0.1' tags='slant'/>
    <line x1="149.91604" y1="119.25" x2="195.0" y2="61.54516" stroke='blue' stroke-width='0.1' tags='slant'/>
    <line x1="156.13518" y1="119.25" x2="195.0" y2="69.5053" stroke='blue' stroke-width='0.1' tags='slant'/>
    <line x1="162.35432" y1="119.25" x2="195.0" y2="77.46544" stroke='blue' stroke-width='0.1' tags='slant'/>
    <line x1="168.57347" y1="119.25" x2="195.0" y2="85.42558" stroke='blue' stroke-width='0.1' tags='slant'/>
    <line x1="174.79261" y1="119.25" x2="195.0" y2="93.38572" stroke='blue' stroke-width='0.1' tags='slant'/>
    <line x1="181.01176" y1="119.25" x2="195.0" y2="101.34586" stroke='blue' stroke-width='0.1' tags='slant'/>
    <line x1="187.2309" y1="119.25" x2="195.0" y2="109.306" stroke='blue' stroke-width='0.1' tags='slant'/>
    <line x1="193.45004" y1="119.25" x2="195.0" y2="117.26615" stroke='blue' stroke-width='0.1' tags='slant'/>
    <line x1="15.0" y1="34.06806" x2="23.34512" y2="29.25" stroke='blue' stroke-width='0.07' stroke-dasharray='2, 2' tags='connective'/>
    <line x1="15.0" y1="38.88611" x2="31.69024" y2="29.25" stroke='blue' stroke-width='0.07' stroke-dasharray='2, 2' tags='connective'/>
    <line x1="15.0" y1="43.70417" x2="40.03536" y2="29.25" stroke='blue' stroke-width='0.07' stroke-dasharray='2, 2' tags='connective'/>
    <line x1="15.0" y1="48.52223" x2="48.38048" y2="29.25" stroke='blue' stroke-width='0.07' stroke-dasharray='2, 2' tags='connective'/>
    <line x1="15.0" y1="53.34028" x2="56.7256" y2="29.25" stroke='blue' stroke-width='0.07' stroke-dasharray='2, 2' tags='connective'/>
    <line x1="15.0" y1="58.15834" x2="65.07072" y2="29.25" stroke='blue' stroke-width='0.07' stroke-dasharray='2, 2' tags='connective'/>
    <line x1="15.0" y1="62.9764" x2="73.41584" y2="29.25" stroke='blue' stroke-width='0.07' stroke-dasharray='2, 2' tags='connective'/>
    <line x1="15.0" y1="67.79445" x2="81.76095" y2="29.25" stroke='blue' stroke-width='0.07' stroke-dasharray='2, 2' tags='connective'/>
    <line x1="15.0" y1="72.61251" x2="90.10607" y2="29.25" stroke='blue' stroke-width='0.07' stroke-dasharray='2, 2' tags='connective'/>
    <line x1="15.0" y1="77.43057" x2="98.45119" y2="29.25" stroke='blue' stroke-width='0.07' stroke-dasharray='2, 2' tags='connective'/>
    <line x1="15.0" y1="82.24863" x2="106.79631" y2="29.25" stroke='blue' stroke-width='0.07' stroke-dasharray='2, 2' tags='connective'/>
    <line x1="15.0" y1="87.06668" x2="115.14143" y2="29.25" stroke='blue' stroke-width='0.07' stroke-dasharray='2, 2' tags='connective'/>
    <line x1="15.0" y1="91.88474" x2="123.48655" y2="29.25" stroke='blue' stroke-width='0.07' stroke-dasharray='2, 2' tags='connective'/>
    <line x1="15.0" y1="96.7028" x2="131.83167" y2="29.25" stroke='blue' stroke-width='0.07' stroke-dasharray='2, 2' tags='connective'/>
    <line x1="15.0" y1="101.52085" x2="140.17679" y2="29.25" stroke='blue' stroke-width='0.07' stroke-dasharray='2, 2' tags='connective'/>
    <line x1="15.0" y1="106.33891" x2="148.52191" y2="29.25" stroke='blue' stroke-width='0.07' stroke-dasharray='2, 2' tags='connective'/>
    <line x1="15.0" y1="111.15697" x2="156.86703" y2="29.25" stroke='blue' stroke-width='0.07' stroke-dasharray='2, 2' tags='connective'/>
    <line x1="15.0" y1="115.97502" x2="165.21215" y2="29.25" stroke='blue' stroke-width='0.07' stroke-dasharray='2, 2' tags='connective'/>
    <line x1="17.67269" y1="119.25" x2="173.55727" y2="29.25" stroke='blue' stroke-width='0.07' stroke-dasharray='2, 2' tags='connective'/>
    <line x1="26.01781" y1="119.25" x2="181.90239" y2="29.25" stroke='blue' stroke-width='0.07' stroke-dasharray='2, 2' tags='connective'/>
    <line x1="34.36293" y1="119.25" x2="190.24751" y2="29.25" stroke='blue' stroke-width='0.07' stroke-dasharray='2, 2' tags='connective'/>
    <line x1="42.70805" y1="119.25" x2="195.0" y2="31.3242" stroke='blue' stroke-width='0.07' stroke-dasharray='2, 2' tags='connective'/>
    <line x1="51.05317" y1="119.25" x2="195.0" y2="36.14226" stroke='blue' stroke-width='0.07' stroke-dasharray='2, 2' tags='connective'/>
    <line x1="59.39829" y1="119.25" x2="195.0" y2="40.96032" stroke='blue' stroke-width='0.07' stroke-dasharray='2, 2' tags='connective'/>
    <line x1="67.74341" y1="119.25" x2="195.0" y2="45.77837" stroke='blue' stroke-width='0.07' stroke-dasharray='2, 2' tags='connective'/>
    <line x1="76.08853" y1="119.25" x2="195.0" y2="50.59643" stroke='blue' stroke-width='0.07' stroke-dasharray='2, 2' tags='connective'/>
    <line x1="84.43365" y1="119.25" x2="195.0" y2="55.41449" stroke='blue' stroke-width='0.07' stroke-dasharray='2, 2' tags='connective'/>
    <line x1="92.77877" y1="119.25" x2="195.0" y2="60.23254" stroke='blue' stroke-width='0.07' stroke-dasharray='2, 2' tags='connective'/>
    <line x1="101.12389" y1="119.25" x2="195.0" y2="65.0506" stroke='blue' stroke-width='0.07' stroke-dasharray='2, 2' tags='connective'/>
    <line x1="109.46901" y1="119.25" x2="195.0" y2="69.86866" stroke='blue' stroke-width='0.07' stroke-dasharray='2, 2' tags='connective'/>
    <line x1="117.81413" y1="119.25" x2="195.0" y2="74.68671" stroke='blue' stroke-width='0.07' stroke-dasharray='2, 2' tags='connective'/>
    <line x1="126.15924" y1="119.25" x2="195.0" y2="79.50477" stroke='blue' stroke-width='0.07' stroke-dasharray='2, 2' tags='connective'/>
    <line x1="134.50436" y1="119.25" x2="195.0" y2="84.32283" stroke='blue' stroke-width='0.07' stroke-dasharray='2, 2' tags='connective'/>
    <line x1="142.84948" y1="119.25" x2="195.0" y2="89.14089" stroke='blue' stroke-width='0.07' stroke-dasharray='2, 2' tags='connective'/>
    <line x1="151.1946" y1="119.25" x2="195.0" y2="93.95894" stroke='blue' stroke-width='0.07' stroke-dasharray='2, 2' tags='connective'/>
    <line x1="159.53972" y1="119.25" x2="195.0" y2="98.777" stroke='blue' stroke-width='0.07' stroke-dasharray='2, 2' tags='connective'/>
    <line x1="167.88484" y1="119.25" x2="195.0" y2="103.59506" stroke='blue' stroke-width='0.07' stroke-dasharray='2, 2' tags='connective'/>
    <line x1="176.22996" y1="119.25" x2="195.0" y2="108.41311" stroke='blue' stroke-width='0.07' stroke-dasharray='2, 2' tags='connective'/>
    <line x1="184.57508" y1="119.25" x2="195.0" y2="113.23117" stroke='blue' stroke-width='0.07' stroke-dasharray='2, 2' tags='connective'/>
    <line x1="192.9202" y1="119.25" x2="195.0" y2="118.04923" stroke='blue' stroke-width='0.07' stroke-dasharray='2, 2' tags='connective'/>
    <rect width="30.0" height="30.0" x="15.0" y="29.25" stroke='blue' stroke-width='0.2' fill='none' tags='rect'/>
    <rect width="30.0" height="30.0" x="45.0" y="29.25" stroke='blue' stroke-width='0.2' fill='none' tags='rect'/>
    <rect width="30.0" height="30.0" x="75.0" y="29.25" stroke='blue' stroke-width='0.2' fill='none' tags='rect'/>
    <rect width="30.0" height="30.0" x="105.0" y="29.25" stroke='blue' stroke-width='0.2' fill='none' tags='rect'/>
    <rect width="30.0" height="30.0" x="135.0" y="29.25" stroke='blue' stroke-width='0.2' fill='none' tags='rect'/>
    <rect width="30.0" height="30.0" x="165.0" y="29.25" stroke='blue' stroke-width='0.2' fill='none' tags='rect'/>
    <rect width="30.0" height="30.0" x="15.0" y="59.25" stroke='blue' stroke-width='0.2' fill='none' tags='rect'/>
    <rect width="30.0" height="30.0" x="45.0" y="59.25" stroke='blue' stroke-width='0.2' fill='none' tags='rect'/>
    <rect width="30.0" height="30.0" x="75.0" y="59.25" stroke='blue' stroke-width='0.2' fill='none' tags='rect'/>
    <rect width="30.0" height="30.0" x="105.0" y="59.25" stroke='blue' stroke-width='0.2' fill='none' tags='rect'/>
    <rect width="30.0" height="30.0" x="135.0" y="59.25" stroke='blue' stroke-width='0.2' fill='none' tags='rect'/>
    <rect width="30.0" height="30.0" x="165.0" y="59.25" stroke='blue' stroke-width='0.2' fill='none' tags='rect'/>
    <rect width="30.0" height="30.0" x="15.0" y="89.25" stroke='blue' stroke-width='0.2' fill='none' tags='rect'/>
    <rect width="30.0" height="30.0" x="45.0" y="89.25" stroke='blue' stroke-width='0.2' fill='none' tags='rect'/>
    <rect width="30.0" height="30.0" x="75.0" y="89.25" stroke='blue' stroke-width='0.2' fill='none' tags='rect'/>
    <rect width="30.0" height="30.0" x="105.0" y="89.25" stroke='blue' stroke-width='0.2' fill='none' tags='rect'/>
    <rect width="30.0" height="30.0" x="135.0" y="89.25" stroke='blue' stroke-width='0.2' fill='none' tags='rect'/>
    <rect width="30.0" height="30.0" x="165.0" y="89.25" stroke='blue' stroke-width='0.2' fill='none' tags='rect'/>
  </g>
</svg>
