<?xml version="1.0" standalone="no"?>
<!DOCTYPE svg PUBLIC "-//W3C//DTD SVG 1.1//EN" "http://www.w3.org/Graphics/SVG/1.1/DTD/svg11.dtd">
<svg xmlns="http://www.w3.org/2000/svg" width="148.5mm" height="210.0mm" viewBox="0 0 148.5 210.0" >

  <g id="sheet">
    <line x1="14.25" y1="15.0" x2="134.25" y2="15.0" stroke='blue' stroke-width='0.1' tags='hline'/>
    <line x1="14.25" y1="20.0" x2="134.25" y2="20.0" stroke='blue' stroke-width='0.1' tags='hline'/>
    <line x1="14.25" y1="25.0" x2="134.25" y2="25.0" stroke='blue' stroke-width='0.1' tags='hline'/>
    <line x1="14.25" y1="30.0" x2="134.25" y2="30.0" stroke='blue' stroke-width='0.1' tags='hline'/>
    <line x1="14.25" y1="35.0" x2="134.25" y2="35.0" stroke='blue' stroke-width='0.1' tags='hline'/>
    <line x1="14.25" y1="40.0" x2="134.25" y2="40.0" stroke='blue' stroke-width='0.1' tags='hline'/>
    <line x1="14.25" y1="45.0" x2="134.25" y2="45.0" stroke='blue' stroke-width='0.1' tags='hline'/>
    <line x1="14.25" y1="50.0" x2="134.25" y2="50.0" stroke='blue' stroke-width='0.1' tags='hline'/>
    <line x1="14.25" y1="55.0" x2="134.25" y2="55.0" stroke='blue' stroke-width='0.1' tags='hline'/>
    <line x1="14.25" y1="60.0" x2="134.25" y2="60.0" stroke='blue' stroke-width='0.1' tags='hline'/>
    <line x1="14.25" y1="65.0" x2="134.25" y2="65.0" stroke='blue' stroke-width='0.1' tags='hline'/>
    <line x1="14.25" y1="70.0" x2="134.25" y2="70.0" stroke='blue' stroke-width='0.1' tags='hline'/>
    <line x1="14.25" y1="75.0" x2="134.25" y2="75.0" stroke='blue' stroke-width='0.1' tags='hline'/>
    <line x1="14.25" y1="80.0" x2="134.25" y2="80.0" stroke='blue' stroke-width='0.1' tags='hline'/>
    <line x1="14.25" y1="85.0" x2="134.25" y2="85.0" stroke='blue' stroke-width='0.1' tags='hline'/>
    <line x1="14.25" y1="90.0" x2="134.25" y2="90.0" stroke='blue' stroke-width='0.1' tags='hline'/>
    <line x1="14.25" y1="95.0" x2="134.25" y2="95.0" stroke='blue' stroke-width='0.1' tags='hline'/>
    <line x1="14.25" y1="100.0" x2="134.25" y2="100.0" stroke='blue' stroke-width='0.1' tags='hline'/>
    <line x1="14.25" y1="105.0" x2="134.25" y2="105.0" stroke='blue' stroke-width='0.1' tags='hline'/>
    <line x1="14.25" y1="110.0" x2="134.25" y2="110.0" stroke='blue' stroke-width='0.1' tags='hline'/>
    <line x1="14.25" y1="115.0" x2="134.25" y2="115.0" stroke='blue' stroke-width='0.1' tags='hline'/>
    <line x1="14.25" y1="120.0" x2="134.25" y2="120.0" stroke='blue' stroke-width='0.1' tags='hline'/>
    <line x1="14.25" y1="125.0" x2="134.25" y2="125.0" stroke='blue' stroke-width='0.1' tags='hline'/>
    <line x1="14.25" y1="130.0" x2="134.25" y2="130.0" stroke='blue' stroke-width='0.1' tags='hline'/>
    <line x1="14.25" y1="135.0" x2="134.25" y2="135.0" stroke='blue' stroke-width='0.1' tags='hline'/>
    <line x1="14.25" y1="140.0" x2="134.25" y2="140.0" stroke='blue' stroke-width='0.1' tags='hline'/>
    <line x1="14.25" y1="145.0" x2="134.25" y2="145.0" stroke='blue' stroke-width='0.1' tags='hline'/>
    <line x1="14.25" y1="150.0" x2="134.25" y2="150.0" stroke='blue' stroke-width='0.1' tags='hline'/>
    <line x1="14.25" y1="155.0" x2="134.25" y2="155.0" stroke='blue' stroke-width='0.1' tags='hline'/>
    <line x1="14.25" y1="160.0" x2="134.25" y2="160.0" stroke='blue' stroke-width='0.1' tags='hline'/>
    <line x1="14.25" y1="165.0" x2="134.25" y2="165.0" stroke='blue' stroke-width='0.1' tags='hline'/>
    <line x1="14.25" y1="170.0" x2="134.25" y2="170.0" stroke='blue' stroke-width='0.1' tags='hline'/>
    <line x1="14.25" y1="175.0" x2="134.25" y2="175.0" stroke='blue' stroke-width='0.1' tags='hline'/>
    <line x1="14.25" y1="180.0" x2="134.25" y2="180.0" stroke='blue' stroke-width='0.1' tags='hline'/>
    <line x1="14.25" y1="185.0" x2="134.25" y2="185.0" stroke='blue' stroke-width='0.1' tags='hline'/>
    <line x1="14.25" y1="190.0" x2="134.25" y2="190.0" stroke='blue' stroke-width='0.1' tags='hline'/>
    <line x1="14.25" y1="195.0" x2="134.25" y2="195.0" stroke='blue' stroke-width='0.1' tags='hline'/>
    <line x1="14.25" y1="15.0" x2="14.25" y2="195.0" stroke='blue' stroke-width='0.1' tags='vline'/>
    <line x1="19.25" y1="15.0" x2="19.25" y2="195.0" stroke='blue' stroke-width='0.1' tags='vline'/>
    <line x1="24.25" y1="15.0" x2="24.25" y2="195.0" stroke='blue' stroke-width='0.1' tags='vline'/>
    <line x1="29.25" y1="15.0" x2="29.25" y2="195.0" stroke='blue' stroke-width='0.1' tags='vline'/>
    <line x1="34.25" y1="15.0" x2="34.25" y2="195.0" stroke='blue' stroke-width='0.1' tags='vline'/>
    <line x1="39.25" y1="15.0" x2="39.25" y2="195.0" stroke='blue' stroke-width='0.1' tags='vline'/>
    <line x1="44.25" y1="15.0" x2="44.25" y2="195.0" stroke='blue' stroke-width='0.1' tags='vline'/>
    <line x1="49.25" y1="15.0" x2="49.25" y2="195.0" stroke='blue' stroke-width='0.1' tags='vline'/>
    <line x1="54.25" y1="15.0" x2="54.25" y2="195.0" stroke='blue' stroke-width='0.1' tags='vline'/>
    <line x1="59.25" y1="15.0" x2="59.25" y2="195.0" stroke='blue' stroke-width='0.1' tags='vline'/>
    <line x1="64.25" y1="15.0" x2="64.25" y2="195.0" stroke='blue' stroke-width='0.1' tags='vline'/>
    <line x1="69.25" y1="15.0" x2="69.25" y2="195.0" stroke='blue' stroke-width='0.1' tags='vline'/>
    <line x1="74.25" y1="15.0" x2="74.25" y2="195.0" stroke='blue' stroke-width='0.1' tags='vline'/>
    <line x1="79.25" y1="15.0" x2="79.25" y2="195.0" stroke='blue' stroke-width='0.1' tags='vline'/>
    <line x1="84.25" y1="15.0" x2="84.25" y2="195.0" stroke='blue' stroke-width='0.1' tags='vline'/>
    <line x1="89.25" y1="15.0" x2="89.25" y2="195.0" stroke='blue' stroke-width='0.1' tags='vline'/>
    <line x1="94.25" y1="15.0" x2="94.25" y2="195.0" stroke='blue' stroke-width='0.1' tags='vline'/>
    <line x1="99.25" y1="15.0" x2="99.25" y2="195.0" stroke='blue' stroke-width='0.1' tags='vline'/>
    <line x1="104.25" y1="15.0" x2="104.25" y2="195.0" stroke='blue' stroke-width='0.1' tags='vline'/>
    <line x1="109.25" y1="15.0" x2="109.25" y2="195.0" stroke='blue' stroke-width='0.1' tags='vline'/>
    <line x1="114.25" y1="15.0" x2="114.25" y2="195.0" stroke='blue' stroke-width='0.1' tags='vline'/>
    <line x1="119.25" y1="15.0" x2="119.25" y2="195.0" stroke='blue' stroke-width='0.1' tags='vline'/>
    <line x1="124.25" y1="15.0" x2="124.25" y2="195.0" stroke='blue' stroke-width='0.1' tags='vline'/>
    <line x1="129.25" y1="15.0" x2="129.25" y2="195.0" stroke='blue' stroke-width='0.1' tags='vline'/>
    <line x1="134.25" y1="15.0" x2="134.25" y2="195.0" stroke='blue' stroke-width='0.1' tags='vline'/>
    <line x1="14.25" y1="15.0" x2="14.25" y2="15.0" stroke='blue' stroke-width='0.1' tags='slant'/>
    <line x1="14.25" y1="22.71017" x2="20.27385" y2="15.0" stroke='blue' stroke-width='0.1' tags='slant'/>
    <line x1="14.25" y1="30.42034" x2="26.29769" y2="15.0" stroke='blue' stroke-width='0.1' tags='slant'/>
    <line x1="14.25" y1="38.13051" x2="32.32154" y2="15.0" stroke='blue' stroke-width='0.1' tags='slant'/>
    <line x1="14.25" y1="45.84068" x2="38.34538" y2="15.0" stroke='blue' stroke-width='0.1' tags='slant'/>
    <line x1="14.25" y1="53.55085" x2="44.36923" y2="15.0" stroke='blue' stroke-width='0.1' tags='slant'/>
    <line x1="14.25" y1="61.26103" x2="50.39307" y2="15.0" stroke='blue' stroke-width='0.1' tags='slant'/>
    <line x1="14.25" y1="68.9712" x2="56.41692" y2="15.0" stroke='blue' stroke-width='0.1' tags='slant'/>
    <line x1="14.25" y1="76.68137" x2="62.44077" y2="15.0" stroke='blue' stroke-width='0.1' tags='slant'/>
    <line x1="14.25" y1="84.39154" x2="68.46461" y2="15.0" stroke='blue' stroke-width='0.1' tags='slant'/>
    <line x1="14.25" y1="92.10171" x2="74.48846" y2="15.0" stroke='blue' stroke-width='0.1' tags='slant'/>
    <line x1="14.25" y1="99.81188" x2="80.5123" y2="15.0" stroke='blue' stroke-width='0.1' tags='slant'/>
    <line x1="14.25" y1="107.52205" x2="86.53615" y2="15.0" stroke='blue' stroke-width='0.1' tags='slant'/>
    <line x1="14.25" y1="115.23222" x2="92.55999" y2="15.0" stroke='blue' stroke-width='0.1' tags='slant'/>
    <line x1="14.25" y1="122.94239" x2="98.58384" y2="15.0" stroke='blue' stroke-width='0.1' tags='slant'/>
    <line x1="14.25" y1="130.65256" x2="104.60768" y2="15.0" stroke='blue' stroke-width='0.1' tags='slant'/>
    <line x1="14.25" y1="138.36273" x2="110.63153" y2="15.0" stroke='blue' stroke-width='0.1' tags='slant'/>
    <line x1="14.25" y1="146.0729" x2="116.65538" y2="15.0" stroke='blue' stroke-width='0.1' tags='slant'/>
    <line x1="14.25" y1="153.78308" x2="122.67922" y2="15.0" stroke='blue' stroke-width='0.1' tags='slant'/>
    <line x1="14.25" y1="161.49325" x2="128.70307" y2="15.0" stroke='blue' stroke-width='0.1' tags='slant'/>
    <line x1="14.25" y1="169.20342" x2="134.25" y2="15.61042" stroke='blue' stroke-width='0.1' tags='slant'/>
    <line x1="14.25" y1="176.91359" x2="134.25" y2="23.32059" stroke='blue' stroke-width='0.1' tags='slant'/>
    <line x1="14.25" y1="184.62376" x2="134.25" y2="31.03076" stroke='blue' stroke-width='0.1' tags='slant'/>
    <line x1="14.25" y1="192.33393" x2="134.25" y2="38.74093" stroke='blue' stroke-width='0.1' tags='slant'/>
    <line x1="18.19088" y1="195.0" x2="134.25" y2="46.4511" stroke='blue' stroke-width='0.1' tags='slant'/>
    <line x1="24.21473" y1="195.0" x2="134.25" y2="54.16128" stroke='blue' stroke-width='0.1' tags='slant'/>
    <line x1="30.23857" y1="195.0" x2="134.25" y2="61.87145" stroke='blue' stroke-width='0.1' tags='slant'/>
    <line x1="36.26242" y1="195.0" x2="134.25" y2="69.58162" stroke='blue' stroke-width='0.1' tags='slant'/>
    <line x1="42.28627" y1="195.0" x2="134.25" y2="77.29179" stroke='blue' stroke-width='0.1' tags='slant'/>
    <line x1="48.31011" y1="195.0" x2="134.25" y2="85.00196" stroke='blue' stroke-width='0.1' tags='slant'/>
    <line x1="54.33396" y1="195.0" x2="134.25" y2="92.71213" stroke='blue' stroke-width='0.1' tags='slant'/>
    <line x1="60.3578" y1="195.0" x2="134.25" y2="100.4223" stroke='blue' stroke-width='0.1' tags='slant'/>
    <line x1="66.38165" y1="195.0" x2="134.25" y2="108.13247" stroke='blue' stroke-width='0.1' tags='slant'/>
    <line x1="72.40549" y1="195.0" x2="134.25" y2="115.84264" stroke='blue' stroke-width='0.1' tags='slant'/>
    <line x1="78.42934" y1="195.0" x2="134.25" y2="123.55281" stroke='blue' stroke-width='0.1' tags='slant'/>
    <line x1="84.45319" y1="195.0" x2="134.25" y2="131.26298" stroke='blue' stroke-width='0.1' tags='slant'/>
    <line x1="90.47703" y1="195.0" x2="134.25" y2="138.97315" stroke='blue' stroke-width='0.1' tags='slant'/>
    <line x1="96.50088" y1="195.0" x2="134.25" y2="146.68333" stroke='blue' stroke-width='0.1' tags='slant'/>
    <line x1="102.52472" y1="195.0" x2="134.25" y2="154.3935" stroke='blue' stroke-width='0.1' tags='slant'/>
    <line x1="108.54857" y1="195.0" x2="134.25" y2="162.10367" stroke='blue' stroke-width='0.1' tags='slant'/>
    <line x1="114.57241" y1="195.0" x2="134.25" y2="169.81384" stroke='blue' stroke-width='0.1' tags='slant'/>
    <line x1="120.59626" y1="195.0" x2="134.25" y2="177.52401" stroke='blue' stroke-width='0.1' tags='slant'/>
    <line x1="126.6201" y1="195.0" x2="134.25" y2="185.23418" stroke='blue' stroke-width='0.1' tags='slant'/>
    <line x1="132.64395" y1="195.0" x2="134.25" y2="192.94435" stroke='blue' stroke-width='0.1' tags='slant'/>
    <line x1="14.25" y1="20.76153" x2="24.22927" y2="15.0" stroke='blue' stroke-width='0.07' stroke-dasharray='2, 2' tags='connective'/>
    <line x1="14.25" y1="26.52307" x2="34.20854" y2="15.0" stroke='blue' stroke-width='0.07' stroke-dasharray='2, 2' tags='connective'/>
    <line x1="14.25" y1="32.2846" x2="44.1878" y2="15.0" stroke='blue' stroke-width='0.07' stroke-dasharray='2, 2' tags='connective'/>
    <line x1="14.25" y1="38.04613" x2="54.16707" y2="15.0" stroke='blue' stroke-width='0.07' stroke-dasharray='2, 2' tags='connective'/>
    <line x1="14.25" y1="43.80767" x2="64.14634" y2="15.0" stroke='blue' stroke-width='0.07' stroke-dasharray='2, 2' tags='connective'/>
    <line x1="14.25" y1="49.5692" x2="74.12561" y2="15.0" stroke='blue' stroke-width='0.07' stroke-dasharray='2, 2' tags='connective'/>
    <line x1="14.25" y1="55.33073" x2="84.10488" y2="15.0" stroke='blue' stroke-width='0.07' stroke-dasharray='2, 2' tags='connective'/>
    <line x1="14.25" y1="61.09226" x2="94.08414" y2="15.0" stroke='blue' stroke-width='0.07' stroke-dasharray='2, 2' tags='connective'/>
    <line x1="14.25" y1="66.8538" x2="104.06341" y2="15.0" stroke='blue' stroke-width='0.07' stroke-dasharray='2, 2' tags='connective'/>
    <line x1="14.25" y1="72.61533" x2="114.04268" y2="15.0" stroke='blue' stroke-width='0.07' stroke-dasharray='2, 2' tags='connective'/>
    <line x1="14.25" y1="78.37686" x2="124.02195" y2="15.0" stroke='blue' stroke-width='0.07' stroke-dasharray='2, 2' tags='connective'/>
    <line x1="14.25" y1="84.1384" x2="134.00121" y2="15.0" stroke='blue' stroke-width='0.07' stroke-dasharray='2, 2' tags='connective'/>
    <line x1="14.25" y1="89.89993" x2="134.25" y2="20.6179" stroke='blue' stroke-width='0.07' stroke-dasharray='2, 2' tags='connective'/>
    <line x1="14.25" y1="95.66146" x2="134.25" y2="26.37943" stroke='blue' stroke-width='0.07' stroke-dasharray='2, 2' tags='connective'/>
    <line x1="14.25" y1="101.423" x2="134.25" y2="32.14096" stroke='blue' stroke-width='0.07' stroke-dasharray='2, 2' tags='connective'/>
    <line x1="14.25" y1="107.18453" x2="134.25" y2="37.9025" stroke='blue' stroke-width='0.07' stroke-dasharray='2, 2' tags='connective'/>
    <line x1="14.25" y1="112.94606" x2="134.25" y2="43.66403" stroke='blue' stroke-width='0.07' stroke-dasharray='2, 2' tags='connective'/>
    <line x1="14.25" y1="118.70759" x2="134.25" y2="49.42556" stroke='blue' stroke-width='0.07' stroke-dasharray='2, 2' tags='connective'/>
    <line x1="14.25" y1="124.46913" x2="134.25" y2="55.18709" stroke='blue' stroke-width='0.07' stroke-dasharray='2, 2' tags='connective'/>
    <line x1="14.25" y1="130.23066" x2="134.25" y2="60.94863" stroke='blue' stroke-width='0.07' stroke-dasharray='2, 2' tags='connective'/>
    <line x1="14.25" y1="135.99219" x2="134.25" y2="66.71016" stroke='blue' stroke-width='0.07' stroke-dasharray='2, 2' tags='connective'/>
    <line x1="14.25" y1="141.75373" x2="134.25" y2="72.47169" stroke='blue' stroke-width='0.07' stroke-dasharray='2, 2' tags='connective'/>
    <line x1="14.25" y1="147.51526" x2="134.25" y2="78.23323" stroke='blue' stroke-width='0.07' stroke-dasharray='2, 2' tags='connective'/>
    <line x1="14.25" y1="153.27679" x2="134.25" y2="83.99476" stroke='blue' stroke-width='0.07' stroke-dasharray='2, 2' tags='connective'/>
    <line x1="14.25" y1="159.03833" x2="134.25" y2="89.75629" stroke='blue' stroke-width='0.07' stroke-dasharray='2, 2' tags='connective'/>
    <line x1="14.25" y1="164.79986" x2="134.25" y2="95.51783" stroke='blue' stroke-width='0.07' stroke-dasharray='2, 2' tags='connective'/>
    <line x1="14.25" y1="170.56139" x2="134.25" y2="101.27936" stroke='blue' stroke-width='0.07' stroke-dasharray='2, 2' tags='connective'/>
    <line x1="14.25" y1="176.32292" x2="134.25" y2="107.04089" stroke='blue' stroke-width='0.07' stroke-dasharray='2, 2' tags='connective'/>
    <line x1="14.25" y1="182.08446" x2="134.25" y2="112.80242" stroke='blue' stroke-width='0.07' stroke-dasharray='2, 2' tags='connective'/>
    <line x1="14.25" y1="187.84599" x2="134.25" y2="118.56396" stroke='blue' stroke-width='0.07' stroke-dasharray='2, 2' tags='connective'/>
    <line x1="14.25" y1="193.60752" x2="134.25" y2="124.32549" stroke='blue' stroke-width='0.07' stroke-dasharray='2, 2' tags='connective'/>
    <line x1="21.81743" y1="195.0" x2="134.25" y2="130.08702" stroke='blue' stroke-width='0.07' stroke-dasharray='2, 2' tags='connective'/>
    <line x1="31.7967" y1="195.0" x2="134.25" y2="135.84856" stroke='blue' stroke-width='0.07' stroke-dasharray='2, 2' tags='connective'/>
    <line x1="41.77596" y1="195.0" x2="134.25" y2="141.61009" stroke='blue' stroke-width='0.07' stroke-dasharray='2, 2' tags='connective'/>
    <line x1="51.75523" y1="195.0" x2="134.25" y2="147.37162" stroke='blue' stroke-width='0.07' stroke-dasharray='2, 2' tags='connective'/>
    <line x1="61.7345" y1="195.0" x2="134.25" y2="153.13316" stroke='blue' stroke-width='0.07' stroke-dasharray='2, 2' tags='connective'/>
    <line x1="71.71377" y1="195.0" x2="134.25" y2="158.89469" stroke='blue' stroke-width='0.07' stroke-dasharray='2, 2' tags='connective'/>
    <line x1="81.69303" y1="195.0" x2="134.25" y2="164.65622" stroke='blue' stroke-width='0.07' stroke-dasharray='2, 2' tags='connective'/>
    <line x1="91.6723" y1="195.0" x2="134.25" y2="170.41776" stroke='blue' stroke-width='0.07' stroke-dasharray='2, 2' tags='connective'/>
    <line x1="101.65157" y1="195.0" x2="134.25" y2="176.17929" stroke='blue' stroke-width='0.07' stroke-dasharray='2, 2' tags='connective'/>
    <line x1="111.63084" y1="195.0" x2="134.25" y2="181.94082" stroke='blue' stroke-width='0.07' stroke-dasharray='2, 2' tags='connective'/>
    <line x1="121.61011" y1="195.0" x2="134.25" y2="187.70235" stroke='blue' stroke-width='0.07' stroke-dasharray='2, 2' tags='connective'/>
    <line x1="131.58937" y1="195.0" x2="134.25" y2="193.46389" stroke='blue' stroke-width='0.07' stroke-dasharray='2, 2' tags='connective'/>
    <rect width="30.0" height="30.0" x="14.25" y="15.0" stroke='blue' stroke-width='0.2' fill='none' tags='rect'/>
    <rect width="30.0" height="30.0" x="44.25" y="15.0" stroke='blue' stroke-width='0.2' fill='none' tags='rect'/>
    <rect width="30.0" height="30.0" x="74.25" y="15.0" stroke='blue' stroke-width='0.2' fill='none' tags='rect'/>
    <rect width="30.0" height="30.0" x="104.25" y="15.0" stroke='blue' stroke-width='0.2' fill='none' tags='rect'/>
    <rect width="30.0" height="30.0" x="14.25" y="45.0" stroke='blue' stroke-width='0.2' fill='none' tags='rect'/>
    <rect width="30.0" height="30.0" x="44.25" y="45.0" stroke='blue' stroke-width='0.2' fill='none' tags='rect'/>
    <rect width="30.0" height="30.0" x="74.25" y="45.0" stroke='blue' stroke-width='0.2' fill='none' tags='rect'/>
    <rect width="30.0" height="30.0" x="104.25" y="45.0" stroke='blue' stroke-width='0.2' fill='none' tags='rect'/>
    <rect width="30.0" height="30.0" x="14.25" y="75.0" stroke='blue' stroke-width='0.2' fill='none' tags='rect'/>
    <rect width="30.0" height="30.0" x="44.25" y="75.0" stroke='blue' stroke-width='0.2' fill='none' tags='rect'/>
    <rect width="30.0" height="30.0" x="74.25" y="75.0" stroke='blue' stroke-width='0.2' fill='none' tags='rect'/>
    <rect width="30.0" height="30.0" x="104.25" y="75.0" stroke='blue' stroke-width='0.2' fill='none' tags='rect'/>
    <rect width="30.0" height="30.0" x="14.25" y="105.0" stroke='blue' stroke-width='0.2' fill='none' tags='rect'/>
    <rect width="30.0" height="30.0" x="44.25" y="105.0" stroke='blue' stroke-width='0.2' fill='none' tags='rect'/>
    <rect width="30.0" height="30.0" x="74.25" y="105.0" stroke='blue' stroke-width='0.2' fill='none' tags='rect'/>
    <rect width="30.0" height="30.0" x="104.25" y="105.0" stroke='blue' stroke-width='0.2' fill='none' tags='rect'/>
    <rect width="30.0" height="30.0" x="14.25" y="135.0" stroke='blue' stroke-width='0.2' fill='none' tags='rect'/>
    <rect width="30.0" height="30.0" x="44.25" y="135.0" stroke='blue' stroke-width='0.2' fill='none' tags='rect'/>
    <rect width="30.0" height="30.0" x="74.25" y="135.0" stroke='blue' stroke-width='0.2' fill='none' tags='rect'/>
    <rect width="30.0" height="30.0" x="104.25" y="135.0" stroke='blue' stroke-width='0.2' fill='none' tags='rect'/>
    <rect width="30.0" height="30.0" x="14.25" y="165.0" stroke='blue' stroke-width='0.2' fill='none' tags='rect'/>
    <rect width="30.0" height="30.0" x="44.25" y="165.0" stroke='blue' stroke-width='0.2' fill='none' tags='rect'/>
    <rect width="30.0" height="30.0" x="74.25" y="165.0" stroke='blue' stroke-width='0.2' fill='none' tags='rect'/>
    <rect width="30.0" height="30.0" x="104.25" y="165.0" stroke='blue' stroke-width='0.2' fill='none' tags='rect'/>
  </g>
</svg>
