<?xml version="1.0" standalone="no"?>
<!DOCTYPE svg PUBLIC "-//W3C//DTD SVG 1.1//EN" "http://www.w3.org/Graphics/SVG/1.1/DTD/svg11.dtd">
<svg xmlns="http://www.w3.org/2000/svg" width="148.5mm" height="210.0mm" viewBox="0 0 148.5 210.0" >

  <g id="sheet">
    <line x1="14.25" y1="30.0" x2="134.25" y2="30.0" stroke='blue' stroke-width='0.1' tags='hline'/>
    <line x1="14.25" y1="35.0" x2="134.25" y2="35.0" stroke='blue' stroke-width='0.1' tags='hline'/>
    <line x1="14.25" y1="40.0" x2="134.25" y2="40.0" stroke='blue' stroke-width='0.1' tags='hline'/>
    <line x1="14.25" y1="45.0" x2="134.25" y2="45.0" stroke='blue' stroke-width='0.1' tags='hline'/>
    <line x1="14.25" y1="50.0" x2="134.25" y2="50.0" stroke='blue' stroke-width='0.1' tags='hline'/>
    <line x1="14.25" y1="55.0" x2="134.25" y2="55.0" stroke='blue' stroke-width='0.1' tags='hline'/>
    <line x1="14.25" y1="60.0" x2="134.25" y2="60.0" stroke='blue' stroke-width='0.1' tags='hline'/>
    <line x1="14.25" y1="65.0" x2="134.25" y2="65.0" stroke='blue' stroke-width='0.1' tags='hline'/>
    <line x1="14.25" y1="70.0" x2="134.25" y2="70.0" stroke='blue' stroke-width='0.1' tags='hline'/>
    <line x1="14.25" y1="75.0" x2="134.25" y2="75.0" stroke='blue' stroke-width='0.1' tags='hline'/>
    <line x1="14.25" y1="80.0" x2="134.25" y2="80.0" stroke='blue' stroke-width='0.1' tags='hline'/>
    <line x1="14.25" y1="85.0" x2="134.25" y2="85.0" stroke='blue' stroke-width='0.1' tags='hline'/>
    <line x1="14.25" y1="90.0" x2="134.25" y2="90.0" stroke='blue' stroke-width='0.1' tags='hline'/>
    <line x1="14.25" y1="95.0" x2="134.25" y2="95.0" stroke='blue' stroke-width='0.1' tags='hline'/>
    <line x1="14.25" y1="100.0" x2="134.25" y2="100.0" stroke='blue' stroke-width='0.1' tags='hline'/>
    <line x1="14.25" y1="105.0" x2="134.25" y2="105.0" stroke='blue' stroke-width='0.1' tags='hline'/>
    <line x1="14.25" y1="110.0" x2="134.25" y2="110.0" stroke='blue' stroke-width='0.1' tags='hline'/>
    <line x1="14.25" y1="115.0" x2="134.25" y2="115.0" stroke='blue' stroke-width='0.1' tags='hline'/>
    <line x1="14.25" y1="120.0" x2="134.25" y2="120.0" stroke='blue' stroke-width='0.1' tags='hline'/>
    <line x1="14.25" y1="125.0" x2="134.25" y2="125.0" stroke='blue' stroke-width='0.1' tags='hline'/>
    <line x1="14.25" y1="130.0" x2="134.25" y2="130.0" stroke='blue' stroke-width='0.1' tags='hline'/>
    <line x1="14.25" y1="135.0" x2="134.25" y2="135.0" stroke='blue' stroke-width='0.1' tags='hline'/>
    <line x1="14.25" y1="140.0" x2="134.25" y2="140.0" stroke='blue' stroke-width='0.1' tags='hline'/>
    <line x1="14.25" y1="145.0" x2="134.25" y2="145.0" stroke='blue' stroke-width='0.1' tags='hline'/>
    <line x1="14.25" y1="150.0" x2="134.25" y2="150.0" stroke='blue' stroke-width='0.1' tags='hline'/>
    <line x1="14.25" y1="155.0" x2="134.25" y2="155.0" stroke='blue' stroke-width='0.1' tags='hline'/>
    <line x1="14.25" y1="160.0" x2="134.25" y2="160.0" stroke='blue' stroke-width='0.1' tags='hline'/>
    <line x1="14.25" y1="165.0" x2="134.25" y2="165.0" stroke='blue' stroke-width='0.1' tags='hline'/>
    <line x1="14.25" y1="170.0" x2="134.25" y2="170.0" stroke='blue' stroke-width='0.1' tags='hline'/>
    <line x1="14.25" y1="175.0" x2="134.25" y2="175.0" stroke='blue' stroke-width='0.1' tags='hline'/>
    <line x1="14.25" y1="180.0" x2="134.25" y2="180.0" stroke='blue' stroke-width='0.1' tags='hline'/>
    <line x1="14.25" y1="30.0" x2="14.25" y2="180.0" stroke='blue' stroke-width='0.1' tags='vline'/>
    <line x1="19.25" y1="30.0" x2="19.25" y2="180.0" stroke='blue' stroke-width='0.1' tags='vline'/>
    <line x1="24.25" y1="30.0" x2="24.25" y2="180.0" stroke='blue' stroke-width='0.1' tags='vline'/>
    <line x1="29.25" y1="30.0" x2="29.25" y2="180.0" stroke='blue' stroke-width='0.1' tags='vline'/>
    <line x1="34.25" y1="30.0" x2="34.25" y2="180.0" stroke='blue' stroke-width='0.1' tags='vline'/>
    <line x1="39.25" y1="30.0" x2="39.25" y2="180.0" stroke='blue' stroke-width='0.1' tags='vline'/>
    <line x1="44.25" y1="30.0" x2="44.25" y2="180.0" stroke='blue' stroke-width='0.1' tags='vline'/>
    <line x1="49.25" y1="30.0" x2="49.25" y2="180.0" stroke='blue' stroke-width='0.1' tags='vline'/>
    <line x1="54.25" y1="30.0" x2="54.25" y2="180.0" stroke='blue' stroke-width='0.1' tags='vline'/>
    <line x1="59.25" y1="30.0" x2="59.25" y2="180.0" stroke='blue' stroke-width='0.1' tags='vline'/>
    <line x1="64.25" y1="30.0" x2="64.25" y2="180.0" stroke='blue' stroke-width='0.1' tags='vline'/>
    <line x1="69.25" y1="30.0" x2="69.25" y2="180.0" stroke='blue' stroke-width='0.1' tags='vline'/>
    <line x1="74.25" y1="30.0" x2="74.25" y2="180.0" stroke='blue' stroke-width='0.1' tags='vline'/>
    <line x1="79.25" y1="30.0" x2="79.25" y2="180.0" stroke='blue' stroke-width='0.1' tags='vline'/>
    <line x1="84.25" y1="30.0" x2="84.25" y2="180.0" stroke='blue' stroke-width='0.1' tags='vline'/>
    <line x1="89.25" y1="30.0" x2="89.25" y2="180.0" stroke='blue' stroke-width='0.1' tags='vline'/>
    <line x1="94.25" y1="30.0" x2="94.25" y2="180.0" stroke='blue' stroke-width='0.1' tags='vline'/>
    <line x1="99.25" y1="30.0" x2="99.25" y2="180.0" stroke='blue' stroke-width='0.1' tags='vline'/>
    <line x1="104.25" y1="30.0" x2="104.25" y2="180.0" stroke='blue' stroke-width='0.1' tags='vline'/>
    <line x1="109.25" y1="30.0" x2="109.25" y2="180.0" stroke='blue' stroke-width='0.1' tags='vline'/>
    <line x1="114.25" y1="30.0" x2="114.25" y2="180.0" stroke='blue' stroke-width='0.1' tags='vline'/>
    <line x1="119.25" y1="30.0" x2="119.25" y2="180.0" stroke='blue' stroke-width='0.1' tags='vline'/>
    <line x1="124.25" y1="30.0" x2="124.25" y2="180.0" stroke='blue' stroke-width='0.1' tags='vline'/>
    <line x1="129.25" y1="30.0" x2="129.25" y2="180.0" stroke='blue' stroke-width='0.1' tags='vline'/>
    <line x1="134.25" y1="30.0" x2="134.25" y2="180.0" stroke='blue' stroke-width='0.1' tags='vline'/>
    <line x1="14.25" y1="30.0" x2="14.25" y2="30.0" stroke='blue' stroke-width='0.1' tags='slant'/>
    <line x1="14.25" y1="37.90221" x2="20.42388" y2="30.0" stroke='blue' stroke-width='0.1' tags='slant'/>
    <line x1="14.25" y1="45.80442" x2="26.59777" y2="30.0" stroke='blue' stroke-width='0.1' tags='slant'/>
    <line x1="14.25" y1="53.70663" x2="32.77165" y2="30.0" stroke='blue' stroke-width='0.1' tags='slant'/>
    <line x1="14.25" y1="61.60884" x2="38.94553" y2="30.0" stroke='blue' stroke-width='0.1' tags='slant'/>
    <line x1="14.25" y1="69.51105" x2="45.11942" y2="30.0" stroke='blue' stroke-width='0.1' tags='slant'/>
    <line x1="14.25" y1="77.41326" x2="51.2933" y2="30.0" stroke='blue' stroke-width='0.1' tags='slant'/>
    <line x1="14.25" y1="85.31547" x2="57.46718" y2="30.0" stroke='blue' stroke-width='0.1' tags='slant'/>
    <line x1="14.25" y1="93.21768" x2="63.64106" y2="30.0" stroke='blue' stroke-width='0.1' tags='slant'/>
    <line x1="14.25" y1="101.11989" x2="69.81495" y2="30.0" stroke='blue' stroke-width='0.1' tags='slant'/>
    <line x1="14.25" y1="109.0221" x2="75.98883" y2="30.0" stroke='blue' stroke-width='0.1' tags='slant'/>
    <line x1="14.25" y1="116.92431" x2="82.16271" y2="30.0" stroke='blue' stroke-width='0.1' tags='slant'/>
    <line x1="14.25" y1="124.82652" x2="88.3366" y2="30.0" stroke='blue' stroke-width='0.1' tags='slant'/>
    <line x1="14.25" y1="132.72873" x2="94.51048" y2="30.0" stroke='blue' stroke-width='0.1' tags='slant'/>
    <line x1="14.25" y1="140.63094" x2="100.68436" y2="30.0" stroke='blue' stroke-width='0.1' tags='slant'/>
    <line x1="14.25" y1="148.53315" x2="106.85825" y2="30.0" stroke='blue' stroke-width='0.1' tags='slant'/>
    <line x1="14.25" y1="156.43536" x2="113.03213" y2="30.0" stroke='blue' stroke-width='0.1' tags='slant'/>
    <line x1="14.25" y1="164.33757" x2="119.20601" y2="30.0" stroke='blue' stroke-width='0.1' tags='slant'/>
    <line x1="14.25" y1="172.23978" x2="125.3799" y2="30.0" stroke='blue' stroke-width='0.1' tags='slant'/>
    <line x1="14.36094" y1="180.0" x2="131.55378" y2="30.0" stroke='blue' stroke-width='0.1' tags='slant'/>
    <line x1="20.53482" y1="180.0" x2="134.25" y2="34.4512" stroke='blue' stroke-width='0.1' tags='slant'/>
    <line x1="26.7087" y1="180.0" x2="134.25" y2="42.35342" stroke='blue' stroke-width='0.1' tags='slant'/>
    <line x1="32.88258" y1="180.0" x2="134.25" y2="50.25563" stroke='blue' stroke-width='0.1' tags='slant'/>
    <line x1="39.05647" y1="180.0" x2="134.25" y2="58.15784" stroke='blue' stroke-width='0.1' tags='slant'/>
    <line x1="45.23035" y1="180.0" x2="134.25" y2="66.06005" stroke='blue' stroke-width='0.1' tags='slant'/>
    <line x1="51.40423" y1="180.0" x2="134.25" y2="73.96226" stroke='blue' stroke-width='0.1' tags='slant'/>
    <line x1="57.57812" y1="180.0" x2="134.25" y2="81.86447" stroke='blue' stroke-width='0.1' tags='slant'/>
    <line x1="63.752" y1="180.0" x2="134.25" y2="89.76668" stroke='blue' stroke-width='0.1' tags='slant'/>
    <line x1="69.92588" y1="180.0" x2="134.25" y2="97.66889" stroke='blue' stroke-width='0.1' tags='slant'/>
    <line x1="76.09977" y1="180.0" x2="134.25" y2="105.5711" stroke='blue' stroke-width='0.1' tags='slant'/>
    <line x1="82.27365" y1="180.0" x2="134.25" y2="113.47331" stroke='blue' stroke-width='0.1' tags='slant'/>
    <line x1="88.44753" y1="180.0" x2="134.25" y2="121.37552" stroke='blue' stroke-width='0.1' tags='slant'/>
    <line x1="94.62142" y1="180.0" x2="134.25" y2="129.27773" stroke='blue' stroke-width='0.1' tags='slant'/>
    <line x1="100.7953" y1="180.0" x2="134.25" y2="137.17994" stroke='blue' stroke-width='0.1' tags='slant'/>
    <line x1="106.96918" y1="180.0" x2="134.25" y2="145.08215" stroke='blue' stroke-width='0.1' tags='slant'/>
    <line x1="113.14307" y1="180.0" x2="134.25" y2="152.98436" stroke='blue' stroke-width='0.1' tags='slant'/>
    <line x1="119.31695" y1="180.0" x2="134.25" y2="160.88657" stroke='blue' stroke-width='0.1' tags='slant'/>
    <line x1="125.49083" y1="180.0" x2="134.25" y2="168.78878" stroke='blue' stroke-width='0.1' tags='slant'/>
    <line x1="131.66471" y1="180.0" x2="134.25" y2="176.69099" stroke='blue' stroke-width='0.1' tags='slant'/>
    <line x1="14.25" y1="35.70768" x2="24.136" y2="30.0" stroke='blue' stroke-width='0.07' stroke-dasharray='2, 2' tags='connective'/>
    <line x1="14.25" y1="41.41537" x2="34.02199" y2="30.0" stroke='blue' stroke-width='0.07' stroke-dasharray='2, 2' tags='connective'/>
    <line x1="14.25" y1="47.12305" x2="43.90799" y2="30.0" stroke='blue' stroke-width='0.07' stroke-dasharray='2, 2' tags='connective'/>
    <line x1="14.25" y1="52.83073" x2="53.79399" y2="30.0" stroke='blue' stroke-width='0.07' stroke-dasharray='2, 2' tags='connective'/>
    <line x1="14.25" y1="58.53842" x2="63.67999" y2="30.0" stroke='blue' stroke-width='0.07' stroke-dasharray='2, 2' tags='connective'/>
    <line x1="14.25" y1="64.2461" x2="73.56598" y2="30.0" stroke='blue' stroke-width='0.07' stroke-dasharray='2, 2' tags='connective'/>
    <line x1="14.25" y1="69.95378" x2="83.45198" y2="30.0" stroke='blue' stroke-width='0.07' stroke-dasharray='2, 2' tags='connective'/>
    <line x1="14.25" y1="75.66147" x2="93.33798" y2="30.0" stroke='blue' stroke-width='0.07' stroke-dasharray='2, 2' tags='connective'/>
    <line x1="14.25" y1="81.36915" x2="103.22398" y2="30.0" stroke='blue' stroke-width='0.07' stroke-dasharray='2, 2' tags='connective'/>
    <line x1="14.25" y1="87.07683" x2="113.10997" y2="30.0" stroke='blue' stroke-width='0.07' stroke-dasharray='2, 2' tags='connective'/>
    <line x1="14.25" y1="92.78452" x2="122.99597" y2="30.0" stroke='blue' stroke-width='0.07' stroke-dasharray='2, 2' tags='connective'/>
    <line x1="14.25" y1="98.4922" x2="132.88197" y2="30.0" stroke='blue' stroke-width='0.07' stroke-dasharray='2, 2' tags='connective'/>
    <line x1="14.25" y1="104.19988" x2="134.25" y2="34.91785" stroke='blue' stroke-width='0.07' stroke-dasharray='2, 2' tags='connective'/>
    <line x1="14.25" y1="109.90757" x2="134.25" y2="40.62553" stroke='blue' stroke-width='0.07' stroke-dasharray='2, 2' tags='connective'/>
    <line x1="14.25" y1="115.61525" x2="134.25" y2="46.33322" stroke='blue' stroke-width='0.07' stroke-dasharray='2, 2' tags='connective'/>
    <line x1="14.25" y1="121.32293" x2="134.25" y2="52.0409" stroke='blue' stroke-width='0.07' stroke-dasharray='2, 2' tags='connective'/>
    <line x1="14.25" y1="127.03062" x2="134.25" y2="57.74858" stroke='blue' stroke-width='0.07' stroke-dasharray='2, 2' tags='connective'/>
    <line x1="14.25" y1="132.7383" x2="134.25" y2="63.45627" stroke='blue' stroke-width='0.07' stroke-dasharray='2, 2' tags='connective'/>
    <line x1="14.25" y1="138.44598" x2="134.25" y2="69.16395" stroke='blue' stroke-width='0.07' stroke-dasharray='2, 2' tags='connective'/>
    <line x1="14.25" y1="144.15367" x2="134.25" y2="74.87163" stroke='blue' stroke-width='0.07' stroke-dasharray='2, 2' tags='connective'/>
    <line x1="14.25" y1="149.86135" x2="134.25" y2="80.57932" stroke='blue' stroke-width='0.07' stroke-dasharray='2, 2' tags='connective'/>
    <line x1="14.25" y1="155.56903" x2="134.25" y2="86.287" stroke='blue' stroke-width='0.07' stroke-dasharray='2, 2' tags='connective'/>
    <line x1="14.25" y1="161.27672" x2="134.25" y2="91.99468" stroke='blue' stroke-width='0.07' stroke-dasharray='2, 2' tags='connective'/>
    <line x1="14.25" y1="166.9844" x2="134.25" y2="97.70237" stroke='blue' stroke-width='0.07' stroke-dasharray='2, 2' tags='connective'/>
    <line x1="14.25" y1="172.69208" x2="134.25" y2="103.41005" stroke='blue' stroke-width='0.07' stroke-dasharray='2, 2' tags='connective'/>
    <line x1="14.25" y1="178.39977" x2="134.25" y2="109.11773" stroke='blue' stroke-width='0.07' stroke-dasharray='2, 2' tags='connective'/>
    <line x1="21.36431" y1="180.0" x2="134.25" y2="114.82542" stroke='blue' stroke-width='0.07' stroke-dasharray='2, 2' tags='connective'/>
    <line x1="31.25031" y1="180.0" x2="134.25" y2="120.5331" stroke='blue' stroke-width='0.07' stroke-dasharray='2, 2' tags='connective'/>
    <line x1="41.13631" y1="180.0" x2="134.25" y2="126.24078" stroke='blue' stroke-width='0.07' stroke-dasharray='2, 2' tags='connective'/>
    <line x1="51.0223" y1="180.0" x2="134.25" y2="131.94847" stroke='blue' stroke-width='0.07' stroke-dasharray='2, 2' tags='connective'/>
    <line x1="60.9083" y1="180.0" x2="134.25" y2="137.65615" stroke='blue' stroke-width='0.07' stroke-dasharray='2, 2' tags='connective'/>
    <line x1="70.7943" y1="180.0" x2="134.25" y2="143.36383" stroke='blue' stroke-width='0.07' stroke-dasharray='2, 2' tags='connective'/>
    <line x1="80.6803" y1="180.0" x2="134.25" y2="149.07152" stroke='blue' stroke-width='0.07' stroke-dasharray='2, 2' tags='connective'/>
    <line x1="90.56629" y1="180.0" x2="134.25" y2="154.7792" stroke='blue' stroke-width='0.07' stroke-dasharray='2, 2' tags='connective'/>
    <line x1="100.45229" y1="180.0" x2="134.25" y2="160.48688" stroke='blue' stroke-width='0.07' stroke-dasharray='2, 2' tags='connective'/>
    <line x1="110.33829" y1="180.0" x2="134.25" y2="166.19457" stroke='blue' stroke-width='0.07' stroke-dasharray='2, 2' tags='connective'/>
    <line x1="120.22429" y1="180.0" x2="134.25" y2="171.90225" stroke='blue' stroke-width='0.07' stroke-dasharray='2, 2' tags='connective'/>
    <line x1="130.11028" y1="180.0" x2="134.25" y2="177.60993" stroke='blue' stroke-width='0.07' stroke-dasharray='2, 2' tags='connective'/>
    <rect width="30.0" height="30.0" x="14.25" y="30.0" stroke='blue' stroke-width='0.2' fill='none' tags='rect'/>
    <rect width="30.0" height="30.0" x="44.25" y="30.0" stroke='blue' stroke-width='0.2' fill='none' tags='rect'/>
    <rect width="30.0" height="30.0" x="74.25" y="30.0" stroke='blue' stroke-width='0.2' fill='none' tags='rect'/>
    <rect width="30.0" height="30.0" x="104.25" y="30.0" stroke='blue' stroke-width='0.2' fill='none' tags='rect'/>
    <rect width="30.0" height="30.0" x="14.25" y="60.0" stroke='blue' stroke-width='0.2' fill='none' tags='rect'/>
    <rect width="30.0" height="30.0" x="44.25" y="60.0" stroke='blue' stroke-width='0.2' fill='none' tags='rect'/>
    <rect width="30.0" height="30.0" x="74.25" y="60.0" stroke='blue' stroke-width='0.2' fill='none' tags='rect'/>
    <rect width="30.0" height="30.0" x="104.25" y="60.0" stroke='blue' stroke-width='0.2' fill='none' tags='rect'/>
    <rect width="30.0" height="30.0" x="14.25" y="90.0" stroke='blue' stroke-width='0.2' fill='none' tags='rect'/>
    <rect width="30.0" height="30.0" x="44.25" y="90.0" stroke='blue' stroke-width='0.2' fill='none' tags='rect'/>
    <rect width="30.0" height="30.0" x="74.25" y="90.0" stroke='blue' stroke-width='0.2' fill='none' tags='rect'/>
    <rect width="30.0" height="30.0" x="104.25" y="90.0" stroke='blue' stroke-width='0.2' fill='none' tags='rect'/>
    <rect width="30.0" height="30.0" x="14.25" y="120.0" stroke='blue' stroke-width='0.2' fill='none' tags='rect'/>
    <rect width="30.0" height="30.0" x="44.25" y="120.0" stroke='blue' stroke-width='0.2' fill='none' tags='rect'/>
    <rect width="30.0" height="30.0" x="74.25" y="120.0" stroke='blue' stroke-width='0.2' fill='none' tags='rect'/>
    <rect width="30.0" height="30.0" x="104.25" y="120.0" stroke='blue' stroke-width='0.2' fill='none' tags='rect'/>
    <rect width="30.0" height="30.0" x="14.25" y="150.0" stroke='blue' stroke-width='0.2' fill='none' tags='rect'/>
    <rect width="30.0" height="30.0" x="44.25" y="150.0" stroke='blue' stroke-width='0.2' fill='none' tags='rect'/>
    <rect width="30.0" height="30.0" x="74.25" y="150.0" stroke='blue' stroke-width='0.2' fill='none' tags='rect'/>
    <rect width="30.0" height="30.0" x="104.25" y="150.0" stroke='blue' stroke-width='0.2' fill='none' tags='rect'/>
  </g>
</svg>
