<?xml version="1.0" standalone="no"?>
<!DOCTYPE svg PUBLIC "-//W3C//DTD SVG 1.1//EN" "http://www.w3.org/Graphics/SVG/1.1/DTD/svg11.dtd">
<svg xmlns="http://www.w3.org/2000/svg" width="148.5mm" height="210.0mm" viewBox="0 0 148.5 210.0" >

  <g id="sheet">
    <line x1="14.25" y1="30.0" x2="134.25" y2="30.0" stroke='blue' stroke-width='0.2' tags='ascender'/>
    <line x1="14.25" y1="40.0" x2="134.25" y2="40.0" stroke='grey' stroke-width='0.1' stroke-dasharray='2, 2' tags='waist'/>
    <line x1="14.25" y1="50.0" x2="134.25" y2="50.0" stroke='red' stroke-width='0.1' stroke-dasharray='2, 2' tags='base'/>
    <line x1="14.25" y1="60.0" x2="134.25" y2="60.0" stroke='blue' stroke-width='0.2' tags='descender'/>
    <line x1="14.25" y1="70.0" x2="134.25" y2="70.0" stroke='grey' stroke-width='0.1' stroke-dasharray='2, 2' tags='waist'/>
    <line x1="14.25" y1="80.0" x2="134.25" y2="80.0" stroke='red' stroke-width='0.1' stroke-dasharray='2, 2' tags='base'/>
    <line x1="14.25" y1="90.0" x2="134.25" y2="90.0" stroke='blue' stroke-width='0.2' tags='descender'/>
    <line x1="14.25" y1="100.0" x2="134.25" y2="100.0" stroke='grey' stroke-width='0.1' stroke-dasharray='2, 2' tags='waist'/>
    <line x1="14.25" y1="110.0" x2="134.25" y2="110.0" stroke='red' stroke-width='0.1' stroke-dasharray='2, 2' tags='base'/>
    <line x1="14.25" y1="120.0" x2="134.25" y2="120.0" stroke='blue' stroke-width='0.2' tags='descender'/>
    <line x1="14.25" y1="130.0" x2="134.25" y2="130.0" stroke='grey' stroke-width='0.1' stroke-dasharray='2, 2' tags='waist'/>
    <line x1="14.25" y1="140.0" x2="134.25" y2="140.0" stroke='red' stroke-width='0.1' stroke-dasharray='2, 2' tags='base'/>
    <line x1="14.25" y1="150.0" x2="134.25" y2="150.0" stroke='blue' stroke-width='0.2' tags='descender'/>
    <line x1="14.25" y1="160.0" x2="134.25" y2="160.0" stroke='grey' stroke-width='0.1' stroke-dasharray='2, 2' tags='waist'/>
    <line x1="14.25" y1="170.0" x2="134.25" y2="170.0" stroke='red' stroke-width='0.1' stroke-dasharray='2, 2' tags='base'/>
    <line x1="14.25" y1="180.0" x2="134.25" y2="180.0" stroke='blue' stroke-width='0.2' tags='descender'/>
    <line x1="14.25" y1="30.0" x2="14.25" y2="30.0" stroke='blue' stroke-width='0.05' tags='slant'/>
    <line x1="14.25" y1="77.25038" x2="21.73373" y2="30.0" stroke='blue' stroke-width='0.05' tags='slant'/>
    <line x1="14.25" y1="124.50076" x2="29.21745" y2="30.0" stroke='blue' stroke-width='0.05' tags='slant'/>
    <line x1="14.25" y1="171.75114" x2="36.70118" y2="30.0" stroke='blue' stroke-width='0.05' tags='slant'/>
    <line x1="20.42723" y1="180.0" x2="44.1849" y2="30.0" stroke='blue' stroke-width='0.05' tags='slant'/>
    <line x1="27.91096" y1="180.0" x2="51.66863" y2="30.0" stroke='blue' stroke-width='0.05' tags='slant'/>
    <line x1="35.39468" y1="180.0" x2="59.15235" y2="30.0" stroke='blue' stroke-width='0.05' tags='slant'/>
    <line x1="42.87841" y1="180.0" x2="66.63608" y2="30.0" stroke='blue' stroke-width='0.05' tags='slant'/>
    <line x1="50.36214" y1="180.0" x2="74.1198" y2="30.0" stroke='blue' stroke-width='0.05' tags='slant'/>
    <line x1="57.84586" y1="180.0" x2="81.60353" y2="30.0" stroke='blue' stroke-width='0.05' tags='slant'/>
    <line x1="65.32959" y1="180.0" x2="89.08725" y2="30.0" stroke='blue' stroke-width='0.05' tags='slant'/>
    <line x1="72.81331" y1="180.0" x2="96.57098" y2="30.0" stroke='blue' stroke-width='0.05' tags='slant'/>
    <line x1="80.29704" y1="180.0" x2="104.0547" y2="30.0" stroke='blue' stroke-width='0.05' tags='slant'/>
    <line x1="87.78076" y1="180.0" x2="111.53843" y2="30.0" stroke='blue' stroke-width='0.05' tags='slant'/>
    <line x1="95.26449" y1="180.0" x2="119.02215" y2="30.0" stroke='blue' stroke-width='0.05' tags='slant'/>
    <line x1="102.74821" y1="180.0" x2="126.50588" y2="30.0" stroke='blue' stroke-width='0.05' tags='slant'/>
    <line x1="110.23194" y1="180.0" x2="133.9896" y2="30.0" stroke='blue' stroke-width='0.05' tags='slant'/>
    <line x1="117.71566" y1="180.0" x2="134.25" y2="75.6063" stroke='blue' stroke-width='0.05' tags='slant'/>
    <line x1="125.19939" y1="180.0" x2="134.25" y2="122.85668" stroke='blue' stroke-width='0.05' tags='slant'/>
    <line x1="132.68311" y1="180.0" x2="134.25" y2="170.10706" stroke='blue' stroke-width='0.05' tags='slant'/>
  </g>
</svg>
