<?xml version="1.0" standalone="no"?>
<!DOCTYPE svg PUBLIC "-//W3C//DTD SVG 1.1//EN" "http://www.w3.org/Graphics/SVG/1.1/DTD/svg11.dtd">
<svg xmlns="http://www.w3.org/2000/svg" width="148.5mm" height="210.0mm" viewBox="0 0 148.5 210.0" >

  <g id="sheet">
    <line x1="14.25" y1="15.0" x2="134.25" y2="15.0" stroke='blue' stroke-width='0.2' tags='ascender'/>
    <line x1="14.25" y1="25.0" x2="134.25" y2="25.0" stroke='grey' stroke-width='0.1' stroke-dasharray='2, 2' tags='waist'/>
    <line x1="14.25" y1="35.0" x2="134.25" y2="35.0" stroke='red' stroke-width='0.1' stroke-dasharray='2, 2' tags='base'/>
    <line x1="14.25" y1="45.0" x2="134.25" y2="45.0" stroke='blue' stroke-width='0.2' tags='descender'/>
    <line x1="14.25" y1="55.0" x2="134.25" y2="55.0" stroke='grey' stroke-width='0.1' stroke-dasharray='2, 2' tags='waist'/>
    <line x1="14.25" y1="65.0" x2="134.25" y2="65.0" stroke='red' stroke-width='0.1' stroke-dasharray='2, 2' tags='base'/>
    <line x1="14.25" y1="75.0" x2="134.25" y2="75.0" stroke='blue' stroke-width='0.2' tags='descender'/>
    <line x1="14.25" y1="85.0" x2="134.25" y2="85.0" stroke='grey' stroke-width='0.1' stroke-dasharray='2, 2' tags='waist'/>
    <line x1="14.25" y1="95.0" x2="134.25" y2="95.0" stroke='red' stroke-width='0.1' stroke-dasharray='2, 2' tags='base'/>
    <line x1="14.25" y1="105.0" x2="134.25" y2="105.0" stroke='blue' stroke-width='0.2' tags='descender'/>
    <line x1="14.25" y1="115.0" x2="134.25" y2="115.0" stroke='grey' stroke-width='0.1' stroke-dasharray='2, 2' tags='waist'/>
    <line x1="14.25" y1="125.0" x2="134.25" y2="125.0" stroke='red' stroke-width='0.1' stroke-dasharray='2, 2' tags='base'/>
    <line x1="14.25" y1="135.0" x2="134.25" y2="135.0" stroke='blue' stroke-width='0.2' tags='descender'/>
    <line x1="14.25" y1="145.0" x2="134.25" y2="145.0" stroke='grey' stroke-width='0.1' stroke-dasharray='2, 2' tags='waist'/>
    <line x1="14.25" y1="155.0" x2="134.25" y2="155.0" stroke='red' stroke-width='0.1' stroke-dasharray='2, 2' tags='base'/>
    <line x1="14.25" y1="165.0" x2="134.25" y2="165.0" stroke='blue' stroke-width='0.2' tags='descender'/>
    <line x1="14.25" y1="175.0" x2="134.25" y2="175.0" stroke='grey' stroke-width='0.1' stroke-dasharray='2, 2' tags='waist'/>
    <line x1="14.25" y1="185.0" x2="134.25" y2="185.0" stroke='red' stroke-width='0.1' stroke-dasharray='2, 2' tags='base'/>
    <line x1="14.25" y1="195.0" x2="134.25" y2="195.0" stroke='blue' stroke-width='0.2' tags='descender'/>
    <line x1="14.25" y1="15.0" x2="14.25" y2="15.0" stroke='blue' stroke-width='0.05' tags='slant'/>
    <line x1="14.25" y1="58.34289" x2="21.11484" y2="15.0" stroke='blue' stroke-width='0.05' tags='slant'/>
    <line x1="14.25" y1="101.68579" x2="27.97968" y2="15.0" stroke='blue' stroke-width='0.05' tags='slant'/>
    <line x1="14.25" y1="145.02868" x2="34.84452" y2="15.0" stroke='blue' stroke-width='0.05' tags='slant'/>
    <line x1="14.25" y1="188.37158" x2="41.70936" y2="15.0" stroke='blue' stroke-width='0.05' tags='slant'/>
    <line x1="20.065" y1="195.0" x2="48.5742" y2="15.0" stroke='blue' stroke-width='0.05' tags='slant'/>
    <line x1="26.92984" y1="195.0" x2="55.43904" y2="15.0" stroke='blue' stroke-width='0.05' tags='slant'/>
    <line x1="33.79468" y1="195.0" x2="62.30388" y2="15.0" stroke='blue' stroke-width='0.05' tags='slant'/>
    <line x1="40.65952" y1="195.0" x2="69.16872" y2="15.0" stroke='blue' stroke-width='0.05' tags='slant'/>
    <line x1="47.52436" y1="195.0" x2="76.03356" y2="15.0" stroke='blue' stroke-width='0.05' tags='slant'/>
    <line x1="54.3892" y1="195.0" x2="82.8984" y2="15.0" stroke='blue' stroke-width='0.05' tags='slant'/>
    <line x1="61.25404" y1="195.0" x2="89.76324" y2="15.0" stroke='blue' stroke-width='0.05' tags='slant'/>
    <line x1="68.11888" y1="195.0" x2="96.62808" y2="15.0" stroke='blue' stroke-width='0.05' tags='slant'/>
    <line x1="74.98372" y1="195.0" x2="103.49292" y2="15.0" stroke='blue' stroke-width='0.05' tags='slant'/>
    <line x1="81.84856" y1="195.0" x2="110.35776" y2="15.0" stroke='blue' stroke-width='0.05' tags='slant'/>
    <line x1="88.7134" y1="195.0" x2="117.2226" y2="15.0" stroke='blue' stroke-width='0.05' tags='slant'/>
    <line x1="95.57824" y1="195.0" x2="124.08744" y2="15.0" stroke='blue' stroke-width='0.05' tags='slant'/>
    <line x1="102.44308" y1="195.0" x2="130.95228" y2="15.0" stroke='blue' stroke-width='0.05' tags='slant'/>
    <line x1="109.30792" y1="195.0" x2="134.25" y2="37.52193" stroke='blue' stroke-width='0.05' tags='slant'/>
    <line x1="116.17276" y1="195.0" x2="134.25" y2="80.86482" stroke='blue' stroke-width='0.05' tags='slant'/>
    <line x1="123.0376" y1="195.0" x2="134.25" y2="124.20772" stroke='blue' stroke-width='0.05' tags='slant'/>
    <line x1="129.90244" y1="195.0" x2="134.25" y2="167.55061" stroke='blue' stroke-width='0.05' tags='slant'/>
  </g>
</svg>
