<?xml version="1.0" standalone="no"?>
<!DOCTYPE svg PUBLIC "-//W3C//DTD SVG 1.1//EN" "http://www.w3.org/Graphics/SVG/1.1/DTD/svg11.dtd">
<svg xmlns="http://www.w3.org/2000/svg" width="148.5mm" height="210.0mm" viewBox="0 0 148.5 210.0" >

  <g id="sheet">
    <line x1="11.25" y1="10.5" x2="137.25" y2="10.5" stroke='blue' stroke-width='0.2' tags='ascender'/>
    <line x1="11.25" y1="17.5" x2="137.25" y2="17.5" stroke='grey' stroke-width='0.1' stroke-dasharray='2, 2' tags='waist'/>
    <line x1="11.25" y1="24.5" x2="137.25" y2="24.5" stroke='red' stroke-width='0.1' stroke-dasharray='2, 2' tags='base'/>
    <line x1="11.25" y1="31.5" x2="137.25" y2="31.5" stroke='blue' stroke-width='0.2' tags='descender'/>
    <line x1="11.25" y1="38.5" x2="137.25" y2="38.5" stroke='grey' stroke-width='0.1' stroke-dasharray='2, 2' tags='waist'/>
    <line x1="11.25" y1="45.5" x2="137.25" y2="45.5" stroke='red' stroke-width='0.1' stroke-dasharray='2, 2' tags='base'/>
    <line x1="11.25" y1="52.5" x2="137.25" y2="52.5" stroke='blue' stroke-width='0.2' tags='descender'/>
    <line x1="11.25" y1="59.5" x2="137.25" y2="59.5" stroke='grey' stroke-width='0.1' stroke-dasharray='2, 2' tags='waist'/>
    <line x1="11.25" y1="66.5" x2="137.25" y2="66.5" stroke='red' stroke-width='0.1' stroke-dasharray='2, 2' tags='base'/>
    <line x1="11.25" y1="73.5" x2="137.25" y2="73.5" stroke='blue' stroke-width='0.2' tags='descender'/>
    <line x1="11.25" y1="80.5" x2="137.25" y2="80.5" stroke='grey' stroke-width='0.1' stroke-dasharray='2, 2' tags='waist'/>
    <line x1="11.25" y1="87.5" x2="137.25" y2="87.5" stroke='red' stroke-width='0.1' stroke-dasharray='2, 2' tags='base'/>
    <line x1="11.25" y1="94.5" x2="137.25" y2="94.5" stroke='blue' stroke-width='0.2' tags='descender'/>
    <line x1="11.25" y1="101.5" x2="137.25" y2="101.5" stroke='grey' stroke-width='0.1' stroke-dasharray='2, 2' tags='waist'/>
    <line x1="11.25" y1="108.5" x2="137.25" y2="108.5" stroke='red' stroke-width='0.1' stroke-dasharray='2, 2' tags='base'/>
    <line x1="11.25" y1="115.5" x2="137.25" y2="115.5" stroke='blue' stroke-width='0.2' tags='descender'/>
    <line x1="11.25" y1="122.5" x2="137.25" y2="122.5" stroke='grey' stroke-width='0.1' stroke-dasharray='2, 2' tags='waist'/>
    <line x1="11.25" y1="129.5" x2="137.25" y2="129.5" stroke='red' stroke-width='0.1' stroke-dasharray='2, 2' tags='base'/>
    <line x1="11.25" y1="136.5" x2="137.25" y2="136.5" stroke='blue' stroke-width='0.2' tags='descender'/>
    <line x1="11.25" y1="143.5" x2="137.25" y2="143.5" stroke='grey' stroke-width='0.1' stroke-dasharray='2, 2' tags='waist'/>
    <line x1="11.25" y1="150.5" x2="137.25" y2="150.5" stroke='red' stroke-width='0.1' stroke-dasharray='2, 2' tags='base'/>
    <line x1="11.25" y1="157.5" x2="137.25" y2="157.5" stroke='blue' stroke-width='0.2' tags='descender'/>
    <line x1="11.25" y1="164.5" x2="137.25" y2="164.5" stroke='grey' stroke-width='0.1' stroke-dasharray='2, 2' tags='waist'/>
    <line x1="11.25" y1="171.5" x2="137.25" y2="171.5" stroke='red' stroke-width='0.1' stroke-dasharray='2, 2' tags='base'/>
    <line x1="11.25" y1="178.5" x2="137.25" y2="178.5" stroke='blue' stroke-width='0.2' tags='descender'/>
    <line x1="11.25" y1="185.5" x2="137.25" y2="185.5" stroke='grey' stroke-width='0.1' stroke-dasharray='2, 2' tags='waist'/>
    <line x1="11.25" y1="192.5" x2="137.25" y2="192.5" stroke='red' stroke-width='0.1' stroke-dasharray='2, 2' tags='base'/>
    <line x1="11.25" y1="199.5" x2="137.25" y2="199.5" stroke='blue' stroke-width='0.2' tags='descender'/>
    <line x1="11.25" y1="10.5" x2="11.25" y2="10.5" stroke='blue' stroke-width='0.05' tags='slant'/>
    <line x1="11.25" y1="40.84003" x2="16.05539" y2="10.5" stroke='blue' stroke-width='0.05' tags='slant'/>
    <line x1="11.25" y1="71.18005" x2="20.86078" y2="10.5" stroke='blue' stroke-width='0.05' tags='slant'/>
    <line x1="11.25" y1="101.52008" x2="25.66616" y2="10.5" stroke='blue' stroke-width='0.05' tags='slant'/>
    <line x1="11.25" y1="131.86011" x2="30.47155" y2="10.5" stroke='blue' stroke-width='0.05' tags='slant'/>
    <line x1="11.25" y1="162.20013" x2="35.27694" y2="10.5" stroke='blue' stroke-width='0.05' tags='slant'/>
    <line x1="11.25" y1="192.54016" x2="40.08233" y2="10.5" stroke='blue' stroke-width='0.05' tags='slant'/>
    <line x1="14.95306" y1="199.5" x2="44.88772" y2="10.5" stroke='blue' stroke-width='0.05' tags='slant'/>
    <line x1="19.75845" y1="199.5" x2="49.6931" y2="10.5" stroke='blue' stroke-width='0.05' tags='slant'/>
    <line x1="24.56383" y1="199.5" x2="54.49849" y2="10.5" stroke='blue' stroke-width='0.05' tags='slant'/>
    <line x1="29.36922" y1="199.5" x2="59.30388" y2="10.5" stroke='blue' stroke-width='0.05' tags='slant'/>
    <line x1="34.17461" y1="199.5" x2="64.10927" y2="10.5" stroke='blue' stroke-width='0.05' tags='slant'/>
    <line x1="38.98" y1="199.5" x2="68.91466" y2="10.5" stroke='blue' stroke-width='0.05' tags='slant'/>
    <line x1="43.78539" y1="199.5" x2="73.72005" y2="10.5" stroke='blue' stroke-width='0.05' tags='slant'/>
    <line x1="48.59077" y1="199.5" x2="78.52543" y2="10.5" stroke='blue' stroke-width='0.05' tags='slant'/>
    <line x1="53.39616" y1="199.5" x2="83.33082" y2="10.5" stroke='blue' stroke-width='0.05' tags='slant'/>
    <line x1="58.20155" y1="199.5" x2="88.13621" y2="10.5" stroke='blue' stroke-width='0.05' tags='slant'/>
    <line x1="63.00694" y1="199.5" x2="92.9416" y2="10.5" stroke='blue' stroke-width='0.05' tags='slant'/>
    <line x1="67.81233" y1="199.5" x2="97.74699" y2="10.5" stroke='blue' stroke-width='0.05' tags='slant'/>
    <line x1="72.61771" y1="199.5" x2="102.55237" y2="10.5" stroke='blue' stroke-width='0.05' tags='slant'/>
    <line x1="77.4231" y1="199.5" x2="107.35776" y2="10.5" stroke='blue' stroke-width='0.05' tags='slant'/>
    <line x1="82.22849" y1="199.5" x2="112.16315" y2="10.5" stroke='blue' stroke-width='0.05' tags='slant'/>
    <line x1="87.03388" y1="199.5" x2="116.96854" y2="10.5" stroke='blue' stroke-width='0.05' tags='slant'/>
    <line x1="91.83927" y1="199.5" x2="121.77393" y2="10.5" stroke='blue' stroke-width='0.05' tags='slant'/>
    <line x1="96.64466" y1="199.5" x2="126.57931" y2="10.5" stroke='blue' stroke-width='0.05' tags='slant'/>
    <line x1="101.45004" y1="199.5" x2="131.3847" y2="10.5" stroke='blue' stroke-width='0.05' tags='slant'/>
    <line x1="106.25543" y1="199.5" x2="136.19009" y2="10.5" stroke='blue' stroke-width='0.05' tags='slant'/>
    <line x1="111.06082" y1="199.5" x2="137.25" y2="34.14802" stroke='blue' stroke-width='0.05' tags='slant'/>
    <line x1="115.86621" y1="199.5" x2="137.25" y2="64.48805" stroke='blue' stroke-width='0.05' tags='slant'/>
    <line x1="120.6716" y1="199.5" x2="137.25" y2="94.82808" stroke='blue' stroke-width='0.05' tags='slant'/>
    <line x1="125.47698" y1="199.5" x2="137.25" y2="125.1681" stroke='blue' stroke-width='0.05' tags='slant'/>
    <line x1="130.28237" y1="199.5" x2="137.25" y2="155.50813" stroke='blue' stroke-width='0.05' tags='slant'/>
    <line x1="135.08776" y1="199.5" x2="137.25" y2="185.84816" stroke='blue' stroke-width='0.05' tags='slant'/>
  </g>
</svg>
