<?xml version="1.0" standalone="no"?>
<!DOCTYPE svg PUBLIC "-//W3C//DTD SVG 1.1//EN" "http://www.w3.org/Graphics/SVG/1.1/DTD/svg11.dtd">
<svg xmlns="http://www.w3.org/2000/svg" width="210.0mm" height="148.5mm" viewBox="0 0 210.0 148.5" >

  <g id="sheet">
    <line x1="15.0" y1="29.25" x2="195.0" y2="29.25" stroke='blue' stroke-width='0.2' tags='ascender'/>
    <line x1="15.0" y1="39.25" x2="195.0" y2="39.25" stroke='grey' stroke-width='0.1' stroke-dasharray='2, 2' tags='waist'/>
    <line x1="15.0" y1="49.25" x2="195.0" y2="49.25" stroke='red' stroke-width='0.1' stroke-dasharray='2, 2' tags='base'/>
    <line x1="15.0" y1="59.25" x2="195.0" y2="59.25" stroke='blue' stroke-width='0.2' tags='descender'/>
    <line x1="15.0" y1="69.25" x2="195.0" y2="69.25" stroke='grey' stroke-width='0.1' stroke-dasharray='2, 2' tags='waist'/>
    <line x1="15.0" y1="79.25" x2="195.0" y2="79.25" stroke='red' stroke-width='0.1' stroke-dasharray='2, 2' tags='base'/>
    <line x1="15.0" y1="89.25" x2="195.0" y2="89.25" stroke='blue' stroke-width='0.2' tags='descender'/>
    <line x1="15.0" y1="99.25" x2="195.0" y2="99.25" stroke='grey' stroke-width='0.1' stroke-dasharray='2, 2' tags='waist'/>
    <line x1="15.0" y1="109.25" x2="195.0" y2="109.25" stroke='red' stroke-width='0.1' stroke-dasharray='2, 2' tags='base'/>
    <line x1="15.0" y1="119.25" x2="195.0" y2="119.25" stroke='blue' stroke-width='0.2' tags='descender'/>
    <line x1="15.0" y1="29.25" x2="15.0" y2="29.25" stroke='blue' stroke-width='0.05' tags='slant'/>
    <line x1="15.0" y1="90.19405" x2="24.65259" y2="29.25" stroke='blue' stroke-width='0.05' tags='slant'/>
    <line x1="20.05058" y1="119.25" x2="34.30518" y2="29.25" stroke='blue' stroke-width='0.05' tags='slant'/>
    <line x1="29.70317" y1="119.25" x2="43.95777" y2="29.25" stroke='blue' stroke-width='0.05' tags='slant'/>
    <line x1="39.35576" y1="119.25" x2="53.61035" y2="29.25" stroke='blue' stroke-width='0.05' tags='slant'/>
    <line x1="49.00834" y1="119.25" x2="63.26294" y2="29.25" stroke='blue' stroke-width='0.05' tags='slant'/>
    <line x1="58.66093" y1="119.25" x2="72.91553" y2="29.25" stroke='blue' stroke-width='0.05' tags='slant'/>
    <line x1="68.31352" y1="119.25" x2="82.56812" y2="29.25" stroke='blue' stroke-width='0.05' tags='slant'/>
    <line x1="77.96611" y1="119.25" x2="92.22071" y2="29.25" stroke='blue' stroke-width='0.05' tags='slant'/>
    <line x1="87.6187" y1="119.25" x2="101.8733" y2="29.25" stroke='blue' stroke-width='0.05' tags='slant'/>
    <line x1="97.27129" y1="119.25" x2="111.52589" y2="29.25" stroke='blue' stroke-width='0.05' tags='slant'/>
    <line x1="106.92388" y1="119.25" x2="121.17848" y2="29.25" stroke='blue' stroke-width='0.05' tags='slant'/>
    <line x1="116.57646" y1="119.25" x2="130.83106" y2="29.25" stroke='blue' stroke-width='0.05' tags='slant'/>
    <line x1="126.22905" y1="119.25" x2="140.48365" y2="29.25" stroke='blue' stroke-width='0.05' tags='slant'/>
    <line x1="135.88164" y1="119.25" x2="150.13624" y2="29.25" stroke='blue' stroke-width='0.05' tags='slant'/>
    <line x1="145.53423" y1="119.25" x2="159.78883" y2="29.25" stroke='blue' stroke-width='0.05' tags='slant'/>
    <line x1="155.18682" y1="119.25" x2="169.44142" y2="29.25" stroke='blue' stroke-width='0.05' tags='slant'/>
    <line x1="164.83941" y1="119.25" x2="179.09401" y2="29.25" stroke='blue' stroke-width='0.05' tags='slant'/>
    <line x1="174.492" y1="119.25" x2="188.7466" y2="29.25" stroke='blue' stroke-width='0.05' tags='slant'/>
    <line x1="184.14458" y1="119.25" x2="195.0" y2="50.71161" stroke='blue' stroke-width='0.05' tags='slant'/>
    <line x1="193.79717" y1="119.25" x2="195.0" y2="111.65565" stroke='blue' stroke-width='0.05' tags='slant'/>
  </g>
</svg>
