<?xml version="1.0" standalone="no"?>
<!DOCTYPE svg PUBLIC "-//W3C//DTD SVG 1.1//EN" "http://www.w3.org/Graphics/SVG/1.1/DTD/svg11.dtd">
<svg xmlns="http://www.w3.org/2000/svg" width="210.0mm" height="148.5mm" viewBox="0 0 210.0 148.5" >

  <g id="sheet">
    <line x1="15.0" y1="21.75" x2="195.0" y2="21.75" stroke='blue' stroke-width='0.2' tags='ascender'/>
    <line x1="15.0" y1="26.75" x2="195.0" y2="26.75" stroke='grey' stroke-width='0.1' stroke-dasharray='2, 2' tags='waist'/>
    <line x1="15.0" y1="31.75" x2="195.0" y2="31.75" stroke='red' stroke-width='0.1' stroke-dasharray='2, 2' tags='base'/>
    <line x1="15.0" y1="36.75" x2="195.0" y2="36.75" stroke='blue' stroke-width='0.2' tags='descender'/>
    <line x1="15.0" y1="41.75" x2="195.0" y2="41.75" stroke='grey' stroke-width='0.1' stroke-dasharray='2, 2' tags='waist'/>
    <line x1="15.0" y1="46.75" x2="195.0" y2="46.75" stroke='red' stroke-width='0.1' stroke-dasharray='2, 2' tags='base'/>
    <line x1="15.0" y1="51.75" x2="195.0" y2="51.75" stroke='blue' stroke-width='0.2' tags='descender'/>
    <line x1="15.0" y1="56.75" x2="195.0" y2="56.75" stroke='grey' stroke-width='0.1' stroke-dasharray='2, 2' tags='waist'/>
    <line x1="15.0" y1="61.75" x2="195.0" y2="61.75" stroke='red' stroke-width='0.1' stroke-dasharray='2, 2' tags='base'/>
    <line x1="15.0" y1="66.75" x2="195.0" y2="66.75" stroke='blue' stroke-width='0.2' tags='descender'/>
    <line x1="15.0" y1="71.75" x2="195.0" y2="71.75" stroke='grey' stroke-width='0.1' stroke-dasharray='2, 2' tags='waist'/>
    <line x1="15.0" y1="76.75" x2="195.0" y2="76.75" stroke='red' stroke-width='0.1' stroke-dasharray='2, 2' tags='base'/>
    <line x1="15.0" y1="81.75" x2="195.0" y2="81.75" stroke='blue' stroke-width='0.2' tags='descender'/>
    <line x1="15.0" y1="86.75" x2="195.0" y2="86.75" stroke='grey' stroke-width='0.1' stroke-dasharray='2, 2' tags='waist'/>
    <line x1="15.0" y1="91.75" x2="195.0" y2="91.75" stroke='red' stroke-width='0.1' stroke-dasharray='2, 2' tags='base'/>
    <line x1="15.0" y1="96.75" x2="195.0" y2="96.75" stroke='blue' stroke-width='0.2' tags='descender'/>
    <line x1="15.0" y1="101.75" x2="195.0" y2="101.75" stroke='grey' stroke-width='0.1' stroke-dasharray='2, 2' tags='waist'/>
    <line x1="15.0" y1="106.75" x2="195.0" y2="106.75" stroke='red' stroke-width='0.1' stroke-dasharray='2, 2' tags='base'/>
    <line x1="15.0" y1="111.75" x2="195.0" y2="111.75" stroke='blue' stroke-width='0.2' tags='descender'/>
    <line x1="15.0" y1="116.75" x2="195.0" y2="116.75" stroke='grey' stroke-width='0.1' stroke-dasharray='2, 2' tags='waist'/>
    <line x1="15.0" y1="121.75" x2="195.0" y2="121.75" stroke='red' stroke-width='0.1' stroke-dasharray='2, 2' tags='base'/>
    <line x1="15.0" y1="126.75" x2="195.0" y2="126.75" stroke='blue' stroke-width='0.2' tags='descender'/>
    <line x1="15.0" y1="21.75" x2="15.0" y2="21.75" stroke='blue' stroke-width='0.05' tags='slant'/>
    <line x1="15.0" y1="51.53778" x2="19.71792" y2="21.75" stroke='blue' stroke-width='0.05' tags='slant'/>
    <line x1="15.0" y1="81.32556" x2="24.43584" y2="21.75" stroke='blue' stroke-width='0.05' tags='slant'/>
    <line x1="15.0" y1="111.11335" x2="29.15376" y2="21.75" stroke='blue' stroke-width='0.05' tags='slant'/>
    <line x1="17.24132" y1="126.75" x2="33.87168" y2="21.75" stroke='blue' stroke-width='0.05' tags='slant'/>
    <line x1="21.95924" y1="126.75" x2="38.58961" y2="21.75" stroke='blue' stroke-width='0.05' tags='slant'/>
    <line x1="26.67716" y1="126.75" x2="43.30753" y2="21.75" stroke='blue' stroke-width='0.05' tags='slant'/>
    <line x1="31.39508" y1="126.75" x2="48.02545" y2="21.75" stroke='blue' stroke-width='0.05' tags='slant'/>
    <line x1="36.113" y1="126.75" x2="52.74337" y2="21.75" stroke='blue' stroke-width='0.05' tags='slant'/>
    <line x1="40.83092" y1="126.75" x2="57.46129" y2="21.75" stroke='blue' stroke-width='0.05' tags='slant'/>
    <line x1="45.54885" y1="126.75" x2="62.17921" y2="21.75" stroke='blue' stroke-width='0.05' tags='slant'/>
    <line x1="50.26677" y1="126.75" x2="66.89713" y2="21.75" stroke='blue' stroke-width='0.05' tags='slant'/>
    <line x1="54.98469" y1="126.75" x2="71.61505" y2="21.75" stroke='blue' stroke-width='0.05' tags='slant'/>
    <line x1="59.70261" y1="126.75" x2="76.33298" y2="21.75" stroke='blue' stroke-width='0.05' tags='slant'/>
    <line x1="64.42053" y1="126.75" x2="81.0509" y2="21.75" stroke='blue' stroke-width='0.05' tags='slant'/>
    <line x1="69.13845" y1="126.75" x2="85.76882" y2="21.75" stroke='blue' stroke-width='0.05' tags='slant'/>
    <line x1="73.85637" y1="126.75" x2="90.48674" y2="21.75" stroke='blue' stroke-width='0.05' tags='slant'/>
    <line x1="78.57429" y1="126.75" x2="95.20466" y2="21.75" stroke='blue' stroke-width='0.05' tags='slant'/>
    <line x1="83.29221" y1="126.75" x2="99.92258" y2="21.75" stroke='blue' stroke-width='0.05' tags='slant'/>
    <line x1="88.01014" y1="126.75" x2="104.6405" y2="21.75" stroke='blue' stroke-width='0.05' tags='slant'/>
    <line x1="92.72806" y1="126.75" x2="109.35842" y2="21.75" stroke='blue' stroke-width='0.05' tags='slant'/>
    <line x1="97.44598" y1="126.75" x2="114.07634" y2="21.75" stroke='blue' stroke-width='0.05' tags='slant'/>
    <line x1="102.1639" y1="126.75" x2="118.79427" y2="21.75" stroke='blue' stroke-width='0.05' tags='slant'/>
    <line x1="106.88182" y1="126.75" x2="123.51219" y2="21.75" stroke='blue' stroke-width='0.05' tags='slant'/>
    <line x1="111.59974" y1="126.75" x2="128.23011" y2="21.75" stroke='blue' stroke-width='0.05' tags='slant'/>
    <line x1="116.31766" y1="126.75" x2="132.94803" y2="21.75" stroke='blue' stroke-width='0.05' tags='slant'/>
    <line x1="121.03558" y1="126.75" x2="137.66595" y2="21.75" stroke='blue' stroke-width='0.05' tags='slant'/>
    <line x1="125.7535" y1="126.75" x2="142.38387" y2="21.75" stroke='blue' stroke-width='0.05' tags='slant'/>
    <line x1="130.47143" y1="126.75" x2="147.10179" y2="21.75" stroke='blue' stroke-width='0.05' tags='slant'/>
    <line x1="135.18935" y1="126.75" x2="151.81971" y2="21.75" stroke='blue' stroke-width='0.05' tags='slant'/>
    <line x1="139.90727" y1="126.75" x2="156.53763" y2="21.75" stroke='blue' stroke-width='0.05' tags='slant'/>
    <line x1="144.62519" y1="126.75" x2="161.25556" y2="21.75" stroke='blue' stroke-width='0.05' tags='slant'/>
    <line x1="149.34311" y1="126.75" x2="165.97348" y2="21.75" stroke='blue' stroke-width='0.05' tags='slant'/>
    <line x1="154.06103" y1="126.75" x2="170.6914" y2="21.75" stroke='blue' stroke-width='0.05' tags='slant'/>
    <line x1="158.77895" y1="126.75" x2="175.40932" y2="21.75" stroke='blue' stroke-width='0.05' tags='slant'/>
    <line x1="163.49687" y1="126.75" x2="180.12724" y2="21.75" stroke='blue' stroke-width='0.05' tags='slant'/>
    <line x1="168.2148" y1="126.75" x2="184.84516" y2="21.75" stroke='blue' stroke-width='0.05' tags='slant'/>
    <line x1="172.93272" y1="126.75" x2="189.56308" y2="21.75" stroke='blue' stroke-width='0.05' tags='slant'/>
    <line x1="177.65064" y1="126.75" x2="194.281" y2="21.75" stroke='blue' stroke-width='0.05' tags='slant'/>
    <line x1="182.36856" y1="126.75" x2="195.0" y2="46.99822" stroke='blue' stroke-width='0.05' tags='slant'/>
    <line x1="187.08648" y1="126.75" x2="195.0" y2="76.786" stroke='blue' stroke-width='0.05' tags='slant'/>
    <line x1="191.8044" y1="126.75" x2="195.0" y2="106.57378" stroke='blue' stroke-width='0.05' tags='slant'/>
  </g>
</svg>
