<?xml version="1.0" standalone="no"?>
<!DOCTYPE svg PUBLIC "-//W3C//DTD SVG 1.1//EN" "http://www.w3.org/Graphics/SVG/1.1/DTD/svg11.dtd">
<svg xmlns="http://www.w3.org/2000/svg" width="210.0mm" height="148.5mm" viewBox="0 0 210.0 148.5" shape-rendering="geometricPrecision" >
  <style>
    svg       { stroke: #ed008c; stroke-width: 0.04; }
    .altcolor { stroke: blue; }
    .thin     { stroke-width: 0.02; }
    .thick    { stroke-width: 0.08; }
    .dashed   { stroke-dasharray: 2 2; }
  </style>
  <g id="sheet">
    <line x1="7.5" y1="14.25" x2="202.5" y2="14.25" class='ascender thick'/>
    <line x1="7.5" y1="19.25" x2="202.5" y2="19.25" class='waist altcolor'/>
    <line x1="7.5" y1="24.25" x2="202.5" y2="24.25" class='base'/>
    <line x1="7.5" y1="29.25" x2="202.5" y2="29.25" class='descender thick'/>
    <line x1="7.5" y1="34.25" x2="202.5" y2="34.25" class='waist altcolor'/>
    <line x1="7.5" y1="39.25" x2="202.5" y2="39.25" class='base'/>
    <line x1="7.5" y1="44.25" x2="202.5" y2="44.25" class='descender thick'/>
    <line x1="7.5" y1="49.25" x2="202.5" y2="49.25" class='waist altcolor'/>
    <line x1="7.5" y1="54.25" x2="202.5" y2="54.25" class='base'/>
    <line x1="7.5" y1="59.25" x2="202.5" y2="59.25" class='descender thick'/>
    <line x1="7.5" y1="64.25" x2="202.5" y2="64.25" class='waist altcolor'/>
    <line x1="7.5" y1="69.25" x2="202.5" y2="69.25" class='base'/>
    <line x1="7.5" y1="74.25" x2="202.5" y2="74.25" class='descender thick'/>
    <line x1="7.5" y1="79.25" x2="202.5" y2="79.25" class='waist altcolor'/>
    <line x1="7.5" y1="84.25" x2="202.5" y2="84.25" class='base'/>
    <line x1="7.5" y1="89.25" x2="202.5" y2="89.25" class='descender thick'/>
    <line x1="7.5" y1="94.25" x2="202.5" y2="94.25" class='waist altcolor'/>
    <line x1="7.5" y1="99.25" x2="202.5" y2="99.25" class='base'/>
    <line x1="7.5" y1="104.25" x2="202.5" y2="104.25" class='descender thick'/>
    <line x1="7.5" y1="109.25" x2="202.5" y2="109.25" class='waist altcolor'/>
    <line x1="7.5" y1="114.25" x2="202.5" y2="114.25" class='base'/>
    <line x1="7.5" y1="119.25" x2="202.5" y2="119.25" class='descender thick'/>
    <line x1="7.5" y1="124.25" x2="202.5" y2="124.25" class='waist altcolor'/>
    <line x1="7.5" y1="129.25" x2="202.5" y2="129.25" class='base'/>
    <line x1="7.5" y1="134.25" x2="202.5" y2="134.25" class='descender thick'/>
    <line x1="7.5" y1="14.25" x2="7.5" y2="14.25" class='slant thin'/>
    <line x1="7.5" y1="43.75628" x2="12.17334" y2="14.25" class='slant thin'/>
    <line x1="7.5" y1="73.26256" x2="16.84667" y2="14.25" class='slant thin'/>
    <line x1="7.5" y1="102.76885" x2="21.52001" y2="14.25" class='slant thin'/>
    <line x1="7.5" y1="132.27513" x2="26.19334" y2="14.25" class='slant thin'/>
    <line x1="11.86055" y1="134.25" x2="30.86668" y2="14.25" class='slant thin'/>
    <line x1="16.53388" y1="134.25" x2="35.54002" y2="14.25" class='slant thin'/>
    <line x1="21.20722" y1="134.25" x2="40.21335" y2="14.25" class='slant thin'/>
    <line x1="25.88055" y1="134.25" x2="44.88669" y2="14.25" class='slant thin'/>
    <line x1="30.55389" y1="134.25" x2="49.56002" y2="14.25" class='slant thin'/>
    <line x1="35.22723" y1="134.25" x2="54.23336" y2="14.25" class='slant thin'/>
    <line x1="39.90056" y1="134.25" x2="58.9067" y2="14.25" class='slant thin'/>
    <line x1="44.5739" y1="134.25" x2="63.58003" y2="14.25" class='slant thin'/>
    <line x1="49.24723" y1="134.25" x2="68.25337" y2="14.25" class='slant thin'/>
    <line x1="53.92057" y1="134.25" x2="72.9267" y2="14.25" class='slant thin'/>
    <line x1="58.59391" y1="134.25" x2="77.60004" y2="14.25" class='slant thin'/>
    <line x1="63.26724" y1="134.25" x2="82.27338" y2="14.25" class='slant thin'/>
    <line x1="67.94058" y1="134.25" x2="86.94671" y2="14.25" class='slant thin'/>
    <line x1="72.61391" y1="134.25" x2="91.62005" y2="14.25" class='slant thin'/>
    <line x1="77.28725" y1="134.25" x2="96.29338" y2="14.25" class='slant thin'/>
    <line x1="81.96059" y1="134.25" x2="100.96672" y2="14.25" class='slant thin'/>
    <line x1="86.63392" y1="134.25" x2="105.64006" y2="14.25" class='slant thin'/>
    <line x1="91.30726" y1="134.25" x2="110.31339" y2="14.25" class='slant thin'/>
    <line x1="95.98059" y1="134.25" x2="114.98673" y2="14.25" class='slant thin'/>
    <line x1="100.65393" y1="134.25" x2="119.66006" y2="14.25" class='slant thin'/>
    <line x1="105.32727" y1="134.25" x2="124.3334" y2="14.25" class='slant thin'/>
    <line x1="110.0006" y1="134.25" x2="129.00674" y2="14.25" class='slant thin'/>
    <line x1="114.67394" y1="134.25" x2="133.68007" y2="14.25" class='slant thin'/>
    <line x1="119.34727" y1="134.25" x2="138.35341" y2="14.25" class='slant thin'/>
    <line x1="124.02061" y1="134.25" x2="143.02674" y2="14.25" class='slant thin'/>
    <line x1="128.69395" y1="134.25" x2="147.70008" y2="14.25" class='slant thin'/>
    <line x1="133.36728" y1="134.25" x2="152.37342" y2="14.25" class='slant thin'/>
    <line x1="138.04062" y1="134.25" x2="157.04675" y2="14.25" class='slant thin'/>
    <line x1="142.71395" y1="134.25" x2="161.72009" y2="14.25" class='slant thin'/>
    <line x1="147.38729" y1="134.25" x2="166.39342" y2="14.25" class='slant thin'/>
    <line x1="152.06063" y1="134.25" x2="171.06676" y2="14.25" class='slant thin'/>
    <line x1="156.73396" y1="134.25" x2="175.74009" y2="14.25" class='slant thin'/>
    <line x1="161.4073" y1="134.25" x2="180.41343" y2="14.25" class='slant thin'/>
    <line x1="166.08063" y1="134.25" x2="185.08677" y2="14.25" class='slant thin'/>
    <line x1="170.75397" y1="134.25" x2="189.7601" y2="14.25" class='slant thin'/>
    <line x1="175.42731" y1="134.25" x2="194.43344" y2="14.25" class='slant thin'/>
    <line x1="180.10064" y1="134.25" x2="199.10677" y2="14.25" class='slant thin'/>
    <line x1="184.77398" y1="134.25" x2="202.5" y2="22.3323" class='slant thin'/>
    <line x1="189.44731" y1="134.25" x2="202.5" y2="51.83858" class='slant thin'/>
    <line x1="194.12065" y1="134.25" x2="202.5" y2="81.34487" class='slant thin'/>
    <line x1="198.79399" y1="134.25" x2="202.5" y2="110.85115" class='slant thin'/>
  </g>
</svg>
