<?xml version="1.0" standalone="no"?>
<!DOCTYPE svg PUBLIC "-//W3C//DTD SVG 1.1//EN" "http://www.w3.org/Graphics/SVG/1.1/DTD/svg11.dtd">
<svg xmlns="http://www.w3.org/2000/svg" width="210.0mm" height="148.5mm" viewBox="0 0 210.0 148.5" >

  <g id="sheet">
    <line x1="10.5" y1="11.25" x2="199.5" y2="11.25" stroke='blue' stroke-width='0.2' tags='ascender'/>
    <line x1="10.5" y1="18.25" x2="199.5" y2="18.25" stroke='grey' stroke-width='0.1' stroke-dasharray='2, 2' tags='waist'/>
    <line x1="10.5" y1="25.25" x2="199.5" y2="25.25" stroke='red' stroke-width='0.1' stroke-dasharray='2, 2' tags='base'/>
    <line x1="10.5" y1="32.25" x2="199.5" y2="32.25" stroke='blue' stroke-width='0.2' tags='descender'/>
    <line x1="10.5" y1="39.25" x2="199.5" y2="39.25" stroke='grey' stroke-width='0.1' stroke-dasharray='2, 2' tags='waist'/>
    <line x1="10.5" y1="46.25" x2="199.5" y2="46.25" stroke='red' stroke-width='0.1' stroke-dasharray='2, 2' tags='base'/>
    <line x1="10.5" y1="53.25" x2="199.5" y2="53.25" stroke='blue' stroke-width='0.2' tags='descender'/>
    <line x1="10.5" y1="60.25" x2="199.5" y2="60.25" stroke='grey' stroke-width='0.1' stroke-dasharray='2, 2' tags='waist'/>
    <line x1="10.5" y1="67.25" x2="199.5" y2="67.25" stroke='red' stroke-width='0.1' stroke-dasharray='2, 2' tags='base'/>
    <line x1="10.5" y1="74.25" x2="199.5" y2="74.25" stroke='blue' stroke-width='0.2' tags='descender'/>
    <line x1="10.5" y1="81.25" x2="199.5" y2="81.25" stroke='grey' stroke-width='0.1' stroke-dasharray='2, 2' tags='waist'/>
    <line x1="10.5" y1="88.25" x2="199.5" y2="88.25" stroke='red' stroke-width='0.1' stroke-dasharray='2, 2' tags='base'/>
    <line x1="10.5" y1="95.25" x2="199.5" y2="95.25" stroke='blue' stroke-width='0.2' tags='descender'/>
    <line x1="10.5" y1="102.25" x2="199.5" y2="102.25" stroke='grey' stroke-width='0.1' stroke-dasharray='2, 2' tags='waist'/>
    <line x1="10.5" y1="109.25" x2="199.5" y2="109.25" stroke='red' stroke-width='0.1' stroke-dasharray='2, 2' tags='base'/>
    <line x1="10.5" y1="116.25" x2="199.5" y2="116.25" stroke='blue' stroke-width='0.2' tags='descender'/>
    <line x1="10.5" y1="123.25" x2="199.5" y2="123.25" stroke='grey' stroke-width='0.1' stroke-dasharray='2, 2' tags='waist'/>
    <line x1="10.5" y1="130.25" x2="199.5" y2="130.25" stroke='red' stroke-width='0.1' stroke-dasharray='2, 2' tags='base'/>
    <line x1="10.5" y1="137.25" x2="199.5" y2="137.25" stroke='blue' stroke-width='0.2' tags='descender'/>
    <line x1="10.5" y1="11.25" x2="10.5" y2="11.25" stroke='blue' stroke-width='0.05' tags='slant'/>
    <line x1="10.5" y1="51.90641" x2="16.93934" y2="11.25" stroke='blue' stroke-width='0.05' tags='slant'/>
    <line x1="10.5" y1="92.56283" x2="23.37869" y2="11.25" stroke='blue' stroke-width='0.05' tags='slant'/>
    <line x1="10.5" y1="133.21924" x2="29.81803" y2="11.25" stroke='blue' stroke-width='0.05' tags='slant'/>
    <line x1="16.30093" y1="137.25" x2="36.25737" y2="11.25" stroke='blue' stroke-width='0.05' tags='slant'/>
    <line x1="22.74028" y1="137.25" x2="42.69672" y2="11.25" stroke='blue' stroke-width='0.05' tags='slant'/>
    <line x1="29.17962" y1="137.25" x2="49.13606" y2="11.25" stroke='blue' stroke-width='0.05' tags='slant'/>
    <line x1="35.61896" y1="137.25" x2="55.5754" y2="11.25" stroke='blue' stroke-width='0.05' tags='slant'/>
    <line x1="42.05831" y1="137.25" x2="62.01475" y2="11.25" stroke='blue' stroke-width='0.05' tags='slant'/>
    <line x1="48.49765" y1="137.25" x2="68.45409" y2="11.25" stroke='blue' stroke-width='0.05' tags='slant'/>
    <line x1="54.93699" y1="137.25" x2="74.89343" y2="11.25" stroke='blue' stroke-width='0.05' tags='slant'/>
    <line x1="61.37634" y1="137.25" x2="81.33278" y2="11.25" stroke='blue' stroke-width='0.05' tags='slant'/>
    <line x1="67.81568" y1="137.25" x2="87.77212" y2="11.25" stroke='blue' stroke-width='0.05' tags='slant'/>
    <line x1="74.25502" y1="137.25" x2="94.21146" y2="11.25" stroke='blue' stroke-width='0.05' tags='slant'/>
    <line x1="80.69437" y1="137.25" x2="100.65081" y2="11.25" stroke='blue' stroke-width='0.05' tags='slant'/>
    <line x1="87.13371" y1="137.25" x2="107.09015" y2="11.25" stroke='blue' stroke-width='0.05' tags='slant'/>
    <line x1="93.57305" y1="137.25" x2="113.52949" y2="11.25" stroke='blue' stroke-width='0.05' tags='slant'/>
    <line x1="100.0124" y1="137.25" x2="119.96883" y2="11.25" stroke='blue' stroke-width='0.05' tags='slant'/>
    <line x1="106.45174" y1="137.25" x2="126.40818" y2="11.25" stroke='blue' stroke-width='0.05' tags='slant'/>
    <line x1="112.89108" y1="137.25" x2="132.84752" y2="11.25" stroke='blue' stroke-width='0.05' tags='slant'/>
    <line x1="119.33042" y1="137.25" x2="139.28686" y2="11.25" stroke='blue' stroke-width='0.05' tags='slant'/>
    <line x1="125.76977" y1="137.25" x2="145.72621" y2="11.25" stroke='blue' stroke-width='0.05' tags='slant'/>
    <line x1="132.20911" y1="137.25" x2="152.16555" y2="11.25" stroke='blue' stroke-width='0.05' tags='slant'/>
    <line x1="138.64845" y1="137.25" x2="158.60489" y2="11.25" stroke='blue' stroke-width='0.05' tags='slant'/>
    <line x1="145.0878" y1="137.25" x2="165.04424" y2="11.25" stroke='blue' stroke-width='0.05' tags='slant'/>
    <line x1="151.52714" y1="137.25" x2="171.48358" y2="11.25" stroke='blue' stroke-width='0.05' tags='slant'/>
    <line x1="157.96648" y1="137.25" x2="177.92292" y2="11.25" stroke='blue' stroke-width='0.05' tags='slant'/>
    <line x1="164.40583" y1="137.25" x2="184.36227" y2="11.25" stroke='blue' stroke-width='0.05' tags='slant'/>
    <line x1="170.84517" y1="137.25" x2="190.80161" y2="11.25" stroke='blue' stroke-width='0.05' tags='slant'/>
    <line x1="177.28451" y1="137.25" x2="197.24095" y2="11.25" stroke='blue' stroke-width='0.05' tags='slant'/>
    <line x1="183.72386" y1="137.25" x2="199.5" y2="37.64335" stroke='blue' stroke-width='0.05' tags='slant'/>
    <line x1="190.1632" y1="137.25" x2="199.5" y2="78.29977" stroke='blue' stroke-width='0.05' tags='slant'/>
    <line x1="196.60254" y1="137.25" x2="199.5" y2="118.95618" stroke='blue' stroke-width='0.05' tags='slant'/>
  </g>
</svg>
