<?xml version="1.0" standalone="no"?>
<!DOCTYPE svg PUBLIC "-//W3C//DTD SVG 1.1//EN" "http://www.w3.org/Graphics/SVG/1.1/DTD/svg11.dtd">
<svg xmlns="http://www.w3.org/2000/svg" width="297.0mm" height="210.0mm" viewBox="0 0 297.0 210.0" shape-rendering="geometricPrecision" >
  <style>
    svg       { stroke: #ed008c; stroke-width: 0.04; }
    .altcolor { stroke: blue; }
    .thin     { stroke-width: 0.02; }
    .thick    { stroke-width: 0.08; }
    .dashed   { stroke-dasharray: 2 2; }
  </style>
  <g id="sheet">
    <line x1="13.5" y1="15.0" x2="283.5" y2="15.0" class='ascender thick'/>
    <line x1="13.5" y1="25.0" x2="283.5" y2="25.0" class='waist altcolor'/>
    <line x1="13.5" y1="35.0" x2="283.5" y2="35.0" class='base'/>
    <line x1="13.5" y1="45.0" x2="283.5" y2="45.0" class='descender thick'/>
    <line x1="13.5" y1="55.0" x2="283.5" y2="55.0" class='waist altcolor'/>
    <line x1="13.5" y1="65.0" x2="283.5" y2="65.0" class='base'/>
    <line x1="13.5" y1="75.0" x2="283.5" y2="75.0" class='descender thick'/>
    <line x1="13.5" y1="85.0" x2="283.5" y2="85.0" class='waist altcolor'/>
    <line x1="13.5" y1="95.0" x2="283.5" y2="95.0" class='base'/>
    <line x1="13.5" y1="105.0" x2="283.5" y2="105.0" class='descender thick'/>
    <line x1="13.5" y1="115.0" x2="283.5" y2="115.0" class='waist altcolor'/>
    <line x1="13.5" y1="125.0" x2="283.5" y2="125.0" class='base'/>
    <line x1="13.5" y1="135.0" x2="283.5" y2="135.0" class='descender thick'/>
    <line x1="13.5" y1="145.0" x2="283.5" y2="145.0" class='waist altcolor'/>
    <line x1="13.5" y1="155.0" x2="283.5" y2="155.0" class='base'/>
    <line x1="13.5" y1="165.0" x2="283.5" y2="165.0" class='descender thick'/>
    <line x1="13.5" y1="175.0" x2="283.5" y2="175.0" class='waist altcolor'/>
    <line x1="13.5" y1="185.0" x2="283.5" y2="185.0" class='base'/>
    <line x1="13.5" y1="195.0" x2="283.5" y2="195.0" class='descender thick'/>
    <line x1="13.5" y1="15.0" x2="13.5" y2="195.0" class='vline'/>
    <line x1="23.5" y1="15.0" x2="23.5" y2="195.0" class='vline'/>
    <line x1="33.5" y1="15.0" x2="33.5" y2="195.0" class='vline'/>
    <line x1="43.5" y1="15.0" x2="43.5" y2="195.0" class='vline'/>
    <line x1="53.5" y1="15.0" x2="53.5" y2="195.0" class='vline'/>
    <line x1="63.5" y1="15.0" x2="63.5" y2="195.0" class='vline'/>
    <line x1="73.5" y1="15.0" x2="73.5" y2="195.0" class='vline'/>
    <line x1="83.5" y1="15.0" x2="83.5" y2="195.0" class='vline'/>
    <line x1="93.5" y1="15.0" x2="93.5" y2="195.0" class='vline'/>
    <line x1="103.5" y1="15.0" x2="103.5" y2="195.0" class='vline'/>
    <line x1="113.5" y1="15.0" x2="113.5" y2="195.0" class='vline'/>
    <line x1="123.5" y1="15.0" x2="123.5" y2="195.0" class='vline'/>
    <line x1="133.5" y1="15.0" x2="133.5" y2="195.0" class='vline'/>
    <line x1="143.5" y1="15.0" x2="143.5" y2="195.0" class='vline'/>
    <line x1="153.5" y1="15.0" x2="153.5" y2="195.0" class='vline'/>
    <line x1="163.5" y1="15.0" x2="163.5" y2="195.0" class='vline'/>
    <line x1="173.5" y1="15.0" x2="173.5" y2="195.0" class='vline'/>
    <line x1="183.5" y1="15.0" x2="183.5" y2="195.0" class='vline'/>
    <line x1="193.5" y1="15.0" x2="193.5" y2="195.0" class='vline'/>
    <line x1="203.5" y1="15.0" x2="203.5" y2="195.0" class='vline'/>
    <line x1="213.5" y1="15.0" x2="213.5" y2="195.0" class='vline'/>
    <line x1="223.5" y1="15.0" x2="223.5" y2="195.0" class='vline'/>
    <line x1="233.5" y1="15.0" x2="233.5" y2="195.0" class='vline'/>
    <line x1="243.5" y1="15.0" x2="243.5" y2="195.0" class='vline'/>
    <line x1="253.5" y1="15.0" x2="253.5" y2="195.0" class='vline'/>
    <line x1="263.5" y1="15.0" x2="263.5" y2="195.0" class='vline'/>
    <line x1="273.5" y1="15.0" x2="273.5" y2="195.0" class='vline'/>
    <line x1="283.5" y1="15.0" x2="283.5" y2="195.0" class='vline'/>
  </g>
</svg>
