<?xml version="1.0" standalone="no"?>
<!DOCTYPE svg PUBLIC "-//W3C//DTD SVG 1.1//EN" "http://www.w3.org/Graphics/SVG/1.1/DTD/svg11.dtd">
<svg xmlns="http://www.w3.org/2000/svg" width="210.0mm" height="297.0mm" viewBox="0 0 210.0 297.0" >

  <g id="sheet">
    <line x1="21.0" y1="22.5" x2="189.0" y2="22.5" stroke='blue' stroke-width='0.2' tags='ascender'/>
    <line x1="21.0" y1="29.5" x2="189.0" y2="29.5" stroke='grey' stroke-width='0.1' stroke-dasharray='2, 2' tags='waist'/>
    <line x1="21.0" y1="36.5" x2="189.0" y2="36.5" stroke='red' stroke-width='0.1' stroke-dasharray='2, 2' tags='base'/>
    <line x1="21.0" y1="43.5" x2="189.0" y2="43.5" stroke='blue' stroke-width='0.2' tags='descender'/>
    <line x1="21.0" y1="50.5" x2="189.0" y2="50.5" stroke='grey' stroke-width='0.1' stroke-dasharray='2, 2' tags='waist'/>
    <line x1="21.0" y1="57.5" x2="189.0" y2="57.5" stroke='red' stroke-width='0.1' stroke-dasharray='2, 2' tags='base'/>
    <line x1="21.0" y1="64.5" x2="189.0" y2="64.5" stroke='blue' stroke-width='0.2' tags='descender'/>
    <line x1="21.0" y1="71.5" x2="189.0" y2="71.5" stroke='grey' stroke-width='0.1' stroke-dasharray='2, 2' tags='waist'/>
    <line x1="21.0" y1="78.5" x2="189.0" y2="78.5" stroke='red' stroke-width='0.1' stroke-dasharray='2, 2' tags='base'/>
    <line x1="21.0" y1="85.5" x2="189.0" y2="85.5" stroke='blue' stroke-width='0.2' tags='descender'/>
    <line x1="21.0" y1="92.5" x2="189.0" y2="92.5" stroke='grey' stroke-width='0.1' stroke-dasharray='2, 2' tags='waist'/>
    <line x1="21.0" y1="99.5" x2="189.0" y2="99.5" stroke='red' stroke-width='0.1' stroke-dasharray='2, 2' tags='base'/>
    <line x1="21.0" y1="106.5" x2="189.0" y2="106.5" stroke='blue' stroke-width='0.2' tags='descender'/>
    <line x1="21.0" y1="113.5" x2="189.0" y2="113.5" stroke='grey' stroke-width='0.1' stroke-dasharray='2, 2' tags='waist'/>
    <line x1="21.0" y1="120.5" x2="189.0" y2="120.5" stroke='red' stroke-width='0.1' stroke-dasharray='2, 2' tags='base'/>
    <line x1="21.0" y1="127.5" x2="189.0" y2="127.5" stroke='blue' stroke-width='0.2' tags='descender'/>
    <line x1="21.0" y1="134.5" x2="189.0" y2="134.5" stroke='grey' stroke-width='0.1' stroke-dasharray='2, 2' tags='waist'/>
    <line x1="21.0" y1="141.5" x2="189.0" y2="141.5" stroke='red' stroke-width='0.1' stroke-dasharray='2, 2' tags='base'/>
    <line x1="21.0" y1="148.5" x2="189.0" y2="148.5" stroke='blue' stroke-width='0.2' tags='descender'/>
    <line x1="21.0" y1="155.5" x2="189.0" y2="155.5" stroke='grey' stroke-width='0.1' stroke-dasharray='2, 2' tags='waist'/>
    <line x1="21.0" y1="162.5" x2="189.0" y2="162.5" stroke='red' stroke-width='0.1' stroke-dasharray='2, 2' tags='base'/>
    <line x1="21.0" y1="169.5" x2="189.0" y2="169.5" stroke='blue' stroke-width='0.2' tags='descender'/>
    <line x1="21.0" y1="176.5" x2="189.0" y2="176.5" stroke='grey' stroke-width='0.1' stroke-dasharray='2, 2' tags='waist'/>
    <line x1="21.0" y1="183.5" x2="189.0" y2="183.5" stroke='red' stroke-width='0.1' stroke-dasharray='2, 2' tags='base'/>
    <line x1="21.0" y1="190.5" x2="189.0" y2="190.5" stroke='blue' stroke-width='0.2' tags='descender'/>
    <line x1="21.0" y1="197.5" x2="189.0" y2="197.5" stroke='grey' stroke-width='0.1' stroke-dasharray='2, 2' tags='waist'/>
    <line x1="21.0" y1="204.5" x2="189.0" y2="204.5" stroke='red' stroke-width='0.1' stroke-dasharray='2, 2' tags='base'/>
    <line x1="21.0" y1="211.5" x2="189.0" y2="211.5" stroke='blue' stroke-width='0.2' tags='descender'/>
    <line x1="21.0" y1="218.5" x2="189.0" y2="218.5" stroke='grey' stroke-width='0.1' stroke-dasharray='2, 2' tags='waist'/>
    <line x1="21.0" y1="225.5" x2="189.0" y2="225.5" stroke='red' stroke-width='0.1' stroke-dasharray='2, 2' tags='base'/>
    <line x1="21.0" y1="232.5" x2="189.0" y2="232.5" stroke='blue' stroke-width='0.2' tags='descender'/>
    <line x1="21.0" y1="239.5" x2="189.0" y2="239.5" stroke='grey' stroke-width='0.1' stroke-dasharray='2, 2' tags='waist'/>
    <line x1="21.0" y1="246.5" x2="189.0" y2="246.5" stroke='red' stroke-width='0.1' stroke-dasharray='2, 2' tags='base'/>
    <line x1="21.0" y1="253.5" x2="189.0" y2="253.5" stroke='blue' stroke-width='0.2' tags='descender'/>
    <line x1="21.0" y1="260.5" x2="189.0" y2="260.5" stroke='grey' stroke-width='0.1' stroke-dasharray='2, 2' tags='waist'/>
    <line x1="21.0" y1="267.5" x2="189.0" y2="267.5" stroke='red' stroke-width='0.1' stroke-dasharray='2, 2' tags='base'/>
    <line x1="21.0" y1="274.5" x2="189.0" y2="274.5" stroke='blue' stroke-width='0.2' tags='descender'/>
    <line x1="21.0" y1="22.5" x2="21.0" y2="274.5" stroke='blue' stroke-width='0.05' tags='vline'/>
    <line x1="28.0" y1="22.5" x2="28.0" y2="274.5" stroke='blue' stroke-width='0.05' tags='vline'/>
    <line x1="35.0" y1="22.5" x2="35.0" y2="274.5" stroke='blue' stroke-width='0.05' tags='vline'/>
    <line x1="42.0" y1="22.5" x2="42.0" y2="274.5" stroke='blue' stroke-width='0.05' tags='vline'/>
    <line x1="49.0" y1="22.5" x2="49.0" y2="274.5" stroke='blue' stroke-width='0.05' tags='vline'/>
    <line x1="56.0" y1="22.5" x2="56.0" y2="274.5" stroke='blue' stroke-width='0.05' tags='vline'/>
    <line x1="63.0" y1="22.5" x2="63.0" y2="274.5" stroke='blue' stroke-width='0.05' tags='vline'/>
    <line x1="70.0" y1="22.5" x2="70.0" y2="274.5" stroke='blue' stroke-width='0.05' tags='vline'/>
    <line x1="77.0" y1="22.5" x2="77.0" y2="274.5" stroke='blue' stroke-width='0.05' tags='vline'/>
    <line x1="84.0" y1="22.5" x2="84.0" y2="274.5" stroke='blue' stroke-width='0.05' tags='vline'/>
    <line x1="91.0" y1="22.5" x2="91.0" y2="274.5" stroke='blue' stroke-width='0.05' tags='vline'/>
    <line x1="98.0" y1="22.5" x2="98.0" y2="274.5" stroke='blue' stroke-width='0.05' tags='vline'/>
    <line x1="105.0" y1="22.5" x2="105.0" y2="274.5" stroke='blue' stroke-width='0.05' tags='vline'/>
    <line x1="112.0" y1="22.5" x2="112.0" y2="274.5" stroke='blue' stroke-width='0.05' tags='vline'/>
    <line x1="119.0" y1="22.5" x2="119.0" y2="274.5" stroke='blue' stroke-width='0.05' tags='vline'/>
    <line x1="126.0" y1="22.5" x2="126.0" y2="274.5" stroke='blue' stroke-width='0.05' tags='vline'/>
    <line x1="133.0" y1="22.5" x2="133.0" y2="274.5" stroke='blue' stroke-width='0.05' tags='vline'/>
    <line x1="140.0" y1="22.5" x2="140.0" y2="274.5" stroke='blue' stroke-width='0.05' tags='vline'/>
    <line x1="147.0" y1="22.5" x2="147.0" y2="274.5" stroke='blue' stroke-width='0.05' tags='vline'/>
    <line x1="154.0" y1="22.5" x2="154.0" y2="274.5" stroke='blue' stroke-width='0.05' tags='vline'/>
    <line x1="161.0" y1="22.5" x2="161.0" y2="274.5" stroke='blue' stroke-width='0.05' tags='vline'/>
    <line x1="168.0" y1="22.5" x2="168.0" y2="274.5" stroke='blue' stroke-width='0.05' tags='vline'/>
    <line x1="175.0" y1="22.5" x2="175.0" y2="274.5" stroke='blue' stroke-width='0.05' tags='vline'/>
    <line x1="182.0" y1="22.5" x2="182.0" y2="274.5" stroke='blue' stroke-width='0.05' tags='vline'/>
    <line x1="189.0" y1="22.5" x2="189.0" y2="274.5" stroke='blue' stroke-width='0.05' tags='vline'/>
  </g>
</svg>
