<?xml version="1.0" standalone="no"?>
<!DOCTYPE svg PUBLIC "-//W3C//DTD SVG 1.1//EN" "http://www.w3.org/Graphics/SVG/1.1/DTD/svg11.dtd">
<svg xmlns="http://www.w3.org/2000/svg" width="210.0mm" height="297.0mm" viewBox="0 0 210.0 297.0" shape-rendering="geometricPrecision" >
  <style>
    svg         { stroke:            #ed008c; }
    svg         { stroke-width:         0.04; }
    .altcolor   { stroke:               blue; }
    .extrafine  { stroke-width:         0.01; }
    .fine       { stroke-width:         0.02; }
    .medium     { stroke-width:         0.04; }
    .broad      { stroke-width:         0.08; }
    .extrabroad { stroke-width:         0.16; }
    .dashed     { stroke-dasharray:      2 2; }
  </style>
  <g id="sheet">
    <line x1="10.5" y1="12.0" x2="199.5" y2="12.0" class='ascender broad'/>
    <line x1="10.5" y1="19.0" x2="199.5" y2="19.0" class='waist altcolor'/>
    <line x1="10.5" y1="26.0" x2="199.5" y2="26.0" class='base'/>
    <line x1="10.5" y1="33.0" x2="199.5" y2="33.0" class='descender broad'/>
    <line x1="10.5" y1="40.0" x2="199.5" y2="40.0" class='waist altcolor'/>
    <line x1="10.5" y1="47.0" x2="199.5" y2="47.0" class='base'/>
    <line x1="10.5" y1="54.0" x2="199.5" y2="54.0" class='descender broad'/>
    <line x1="10.5" y1="61.0" x2="199.5" y2="61.0" class='waist altcolor'/>
    <line x1="10.5" y1="68.0" x2="199.5" y2="68.0" class='base'/>
    <line x1="10.5" y1="75.0" x2="199.5" y2="75.0" class='descender broad'/>
    <line x1="10.5" y1="82.0" x2="199.5" y2="82.0" class='waist altcolor'/>
    <line x1="10.5" y1="89.0" x2="199.5" y2="89.0" class='base'/>
    <line x1="10.5" y1="96.0" x2="199.5" y2="96.0" class='descender broad'/>
    <line x1="10.5" y1="103.0" x2="199.5" y2="103.0" class='waist altcolor'/>
    <line x1="10.5" y1="110.0" x2="199.5" y2="110.0" class='base'/>
    <line x1="10.5" y1="117.0" x2="199.5" y2="117.0" class='descender broad'/>
    <line x1="10.5" y1="124.0" x2="199.5" y2="124.0" class='waist altcolor'/>
    <line x1="10.5" y1="131.0" x2="199.5" y2="131.0" class='base'/>
    <line x1="10.5" y1="138.0" x2="199.5" y2="138.0" class='descender broad'/>
    <line x1="10.5" y1="145.0" x2="199.5" y2="145.0" class='waist altcolor'/>
    <line x1="10.5" y1="152.0" x2="199.5" y2="152.0" class='base'/>
    <line x1="10.5" y1="159.0" x2="199.5" y2="159.0" class='descender broad'/>
    <line x1="10.5" y1="166.0" x2="199.5" y2="166.0" class='waist altcolor'/>
    <line x1="10.5" y1="173.0" x2="199.5" y2="173.0" class='base'/>
    <line x1="10.5" y1="180.0" x2="199.5" y2="180.0" class='descender broad'/>
    <line x1="10.5" y1="187.0" x2="199.5" y2="187.0" class='waist altcolor'/>
    <line x1="10.5" y1="194.0" x2="199.5" y2="194.0" class='base'/>
    <line x1="10.5" y1="201.0" x2="199.5" y2="201.0" class='descender broad'/>
    <line x1="10.5" y1="208.0" x2="199.5" y2="208.0" class='waist altcolor'/>
    <line x1="10.5" y1="215.0" x2="199.5" y2="215.0" class='base'/>
    <line x1="10.5" y1="222.0" x2="199.5" y2="222.0" class='descender broad'/>
    <line x1="10.5" y1="229.0" x2="199.5" y2="229.0" class='waist altcolor'/>
    <line x1="10.5" y1="236.0" x2="199.5" y2="236.0" class='base'/>
    <line x1="10.5" y1="243.0" x2="199.5" y2="243.0" class='descender broad'/>
    <line x1="10.5" y1="250.0" x2="199.5" y2="250.0" class='waist altcolor'/>
    <line x1="10.5" y1="257.0" x2="199.5" y2="257.0" class='base'/>
    <line x1="10.5" y1="264.0" x2="199.5" y2="264.0" class='descender broad'/>
    <line x1="10.5" y1="271.0" x2="199.5" y2="271.0" class='waist altcolor'/>
    <line x1="10.5" y1="278.0" x2="199.5" y2="278.0" class='base'/>
    <line x1="10.5" y1="285.0" x2="199.5" y2="285.0" class='descender broad'/>
    <line x1="10.5" y1="12.0" x2="10.5" y2="285.0" class='vline'/>
    <line x1="17.5" y1="12.0" x2="17.5" y2="285.0" class='vline'/>
    <line x1="24.5" y1="12.0" x2="24.5" y2="285.0" class='vline'/>
    <line x1="31.5" y1="12.0" x2="31.5" y2="285.0" class='vline'/>
    <line x1="38.5" y1="12.0" x2="38.5" y2="285.0" class='vline'/>
    <line x1="45.5" y1="12.0" x2="45.5" y2="285.0" class='vline'/>
    <line x1="52.5" y1="12.0" x2="52.5" y2="285.0" class='vline'/>
    <line x1="59.5" y1="12.0" x2="59.5" y2="285.0" class='vline'/>
    <line x1="66.5" y1="12.0" x2="66.5" y2="285.0" class='vline'/>
    <line x1="73.5" y1="12.0" x2="73.5" y2="285.0" class='vline'/>
    <line x1="80.5" y1="12.0" x2="80.5" y2="285.0" class='vline'/>
    <line x1="87.5" y1="12.0" x2="87.5" y2="285.0" class='vline'/>
    <line x1="94.5" y1="12.0" x2="94.5" y2="285.0" class='vline'/>
    <line x1="101.5" y1="12.0" x2="101.5" y2="285.0" class='vline'/>
    <line x1="108.5" y1="12.0" x2="108.5" y2="285.0" class='vline'/>
    <line x1="115.5" y1="12.0" x2="115.5" y2="285.0" class='vline'/>
    <line x1="122.5" y1="12.0" x2="122.5" y2="285.0" class='vline'/>
    <line x1="129.5" y1="12.0" x2="129.5" y2="285.0" class='vline'/>
    <line x1="136.5" y1="12.0" x2="136.5" y2="285.0" class='vline'/>
    <line x1="143.5" y1="12.0" x2="143.5" y2="285.0" class='vline'/>
    <line x1="150.5" y1="12.0" x2="150.5" y2="285.0" class='vline'/>
    <line x1="157.5" y1="12.0" x2="157.5" y2="285.0" class='vline'/>
    <line x1="164.5" y1="12.0" x2="164.5" y2="285.0" class='vline'/>
    <line x1="171.5" y1="12.0" x2="171.5" y2="285.0" class='vline'/>
    <line x1="178.5" y1="12.0" x2="178.5" y2="285.0" class='vline'/>
    <line x1="185.5" y1="12.0" x2="185.5" y2="285.0" class='vline'/>
    <line x1="192.5" y1="12.0" x2="192.5" y2="285.0" class='vline'/>
    <line x1="199.5" y1="12.0" x2="199.5" y2="285.0" class='vline'/>
  </g>
</svg>
