<?xml version="1.0" standalone="no"?>
<!DOCTYPE svg PUBLIC "-//W3C//DTD SVG 1.1//EN" "http://www.w3.org/Graphics/SVG/1.1/DTD/svg11.dtd">
<svg xmlns="http://www.w3.org/2000/svg" width="210.0mm" height="297.0mm" viewBox="0 0 210.0 297.0" shape-rendering="geometricPrecision" >
  <style>
    svg         { stroke:            #ed008c; }
    svg         { stroke-width:         0.04; }
    .altcolor   { stroke:               blue; }
    .extrafine  { stroke-width:         0.01; }
    .fine       { stroke-width:         0.02; }
    .medium     { stroke-width:         0.04; }
    .broad      { stroke-width:         0.08; }
    .extrabroad { stroke-width:         0.16; }
    .dashed     { stroke-dasharray:      2 2; }
  </style>
  <g id="sheet">
    <line x1="7.5" y1="13.5" x2="202.5" y2="13.5" class='ascender broad'/>
    <line x1="7.5" y1="18.5" x2="202.5" y2="18.5" class='waist altcolor'/>
    <line x1="7.5" y1="23.5" x2="202.5" y2="23.5" class='base'/>
    <line x1="7.5" y1="28.5" x2="202.5" y2="28.5" class='descender broad'/>
    <line x1="7.5" y1="33.5" x2="202.5" y2="33.5" class='waist altcolor'/>
    <line x1="7.5" y1="38.5" x2="202.5" y2="38.5" class='base'/>
    <line x1="7.5" y1="43.5" x2="202.5" y2="43.5" class='descender broad'/>
    <line x1="7.5" y1="48.5" x2="202.5" y2="48.5" class='waist altcolor'/>
    <line x1="7.5" y1="53.5" x2="202.5" y2="53.5" class='base'/>
    <line x1="7.5" y1="58.5" x2="202.5" y2="58.5" class='descender broad'/>
    <line x1="7.5" y1="63.5" x2="202.5" y2="63.5" class='waist altcolor'/>
    <line x1="7.5" y1="68.5" x2="202.5" y2="68.5" class='base'/>
    <line x1="7.5" y1="73.5" x2="202.5" y2="73.5" class='descender broad'/>
    <line x1="7.5" y1="78.5" x2="202.5" y2="78.5" class='waist altcolor'/>
    <line x1="7.5" y1="83.5" x2="202.5" y2="83.5" class='base'/>
    <line x1="7.5" y1="88.5" x2="202.5" y2="88.5" class='descender broad'/>
    <line x1="7.5" y1="93.5" x2="202.5" y2="93.5" class='waist altcolor'/>
    <line x1="7.5" y1="98.5" x2="202.5" y2="98.5" class='base'/>
    <line x1="7.5" y1="103.5" x2="202.5" y2="103.5" class='descender broad'/>
    <line x1="7.5" y1="108.5" x2="202.5" y2="108.5" class='waist altcolor'/>
    <line x1="7.5" y1="113.5" x2="202.5" y2="113.5" class='base'/>
    <line x1="7.5" y1="118.5" x2="202.5" y2="118.5" class='descender broad'/>
    <line x1="7.5" y1="123.5" x2="202.5" y2="123.5" class='waist altcolor'/>
    <line x1="7.5" y1="128.5" x2="202.5" y2="128.5" class='base'/>
    <line x1="7.5" y1="133.5" x2="202.5" y2="133.5" class='descender broad'/>
    <line x1="7.5" y1="138.5" x2="202.5" y2="138.5" class='waist altcolor'/>
    <line x1="7.5" y1="143.5" x2="202.5" y2="143.5" class='base'/>
    <line x1="7.5" y1="148.5" x2="202.5" y2="148.5" class='descender broad'/>
    <line x1="7.5" y1="153.5" x2="202.5" y2="153.5" class='waist altcolor'/>
    <line x1="7.5" y1="158.5" x2="202.5" y2="158.5" class='base'/>
    <line x1="7.5" y1="163.5" x2="202.5" y2="163.5" class='descender broad'/>
    <line x1="7.5" y1="168.5" x2="202.5" y2="168.5" class='waist altcolor'/>
    <line x1="7.5" y1="173.5" x2="202.5" y2="173.5" class='base'/>
    <line x1="7.5" y1="178.5" x2="202.5" y2="178.5" class='descender broad'/>
    <line x1="7.5" y1="183.5" x2="202.5" y2="183.5" class='waist altcolor'/>
    <line x1="7.5" y1="188.5" x2="202.5" y2="188.5" class='base'/>
    <line x1="7.5" y1="193.5" x2="202.5" y2="193.5" class='descender broad'/>
    <line x1="7.5" y1="198.5" x2="202.5" y2="198.5" class='waist altcolor'/>
    <line x1="7.5" y1="203.5" x2="202.5" y2="203.5" class='base'/>
    <line x1="7.5" y1="208.5" x2="202.5" y2="208.5" class='descender broad'/>
    <line x1="7.5" y1="213.5" x2="202.5" y2="213.5" class='waist altcolor'/>
    <line x1="7.5" y1="218.5" x2="202.5" y2="218.5" class='base'/>
    <line x1="7.5" y1="223.5" x2="202.5" y2="223.5" class='descender broad'/>
    <line x1="7.5" y1="228.5" x2="202.5" y2="228.5" class='waist altcolor'/>
    <line x1="7.5" y1="233.5" x2="202.5" y2="233.5" class='base'/>
    <line x1="7.5" y1="238.5" x2="202.5" y2="238.5" class='descender broad'/>
    <line x1="7.5" y1="243.5" x2="202.5" y2="243.5" class='waist altcolor'/>
    <line x1="7.5" y1="248.5" x2="202.5" y2="248.5" class='base'/>
    <line x1="7.5" y1="253.5" x2="202.5" y2="253.5" class='descender broad'/>
    <line x1="7.5" y1="258.5" x2="202.5" y2="258.5" class='waist altcolor'/>
    <line x1="7.5" y1="263.5" x2="202.5" y2="263.5" class='base'/>
    <line x1="7.5" y1="268.5" x2="202.5" y2="268.5" class='descender broad'/>
    <line x1="7.5" y1="273.5" x2="202.5" y2="273.5" class='waist altcolor'/>
    <line x1="7.5" y1="278.5" x2="202.5" y2="278.5" class='base'/>
    <line x1="7.5" y1="283.5" x2="202.5" y2="283.5" class='descender broad'/>
    <line x1="7.5" y1="13.5" x2="7.5" y2="283.5" class='vline'/>
    <line x1="12.5" y1="13.5" x2="12.5" y2="283.5" class='vline'/>
    <line x1="17.5" y1="13.5" x2="17.5" y2="283.5" class='vline'/>
    <line x1="22.5" y1="13.5" x2="22.5" y2="283.5" class='vline'/>
    <line x1="27.5" y1="13.5" x2="27.5" y2="283.5" class='vline'/>
    <line x1="32.5" y1="13.5" x2="32.5" y2="283.5" class='vline'/>
    <line x1="37.5" y1="13.5" x2="37.5" y2="283.5" class='vline'/>
    <line x1="42.5" y1="13.5" x2="42.5" y2="283.5" class='vline'/>
    <line x1="47.5" y1="13.5" x2="47.5" y2="283.5" class='vline'/>
    <line x1="52.5" y1="13.5" x2="52.5" y2="283.5" class='vline'/>
    <line x1="57.5" y1="13.5" x2="57.5" y2="283.5" class='vline'/>
    <line x1="62.5" y1="13.5" x2="62.5" y2="283.5" class='vline'/>
    <line x1="67.5" y1="13.5" x2="67.5" y2="283.5" class='vline'/>
    <line x1="72.5" y1="13.5" x2="72.5" y2="283.5" class='vline'/>
    <line x1="77.5" y1="13.5" x2="77.5" y2="283.5" class='vline'/>
    <line x1="82.5" y1="13.5" x2="82.5" y2="283.5" class='vline'/>
    <line x1="87.5" y1="13.5" x2="87.5" y2="283.5" class='vline'/>
    <line x1="92.5" y1="13.5" x2="92.5" y2="283.5" class='vline'/>
    <line x1="97.5" y1="13.5" x2="97.5" y2="283.5" class='vline'/>
    <line x1="102.5" y1="13.5" x2="102.5" y2="283.5" class='vline'/>
    <line x1="107.5" y1="13.5" x2="107.5" y2="283.5" class='vline'/>
    <line x1="112.5" y1="13.5" x2="112.5" y2="283.5" class='vline'/>
    <line x1="117.5" y1="13.5" x2="117.5" y2="283.5" class='vline'/>
    <line x1="122.5" y1="13.5" x2="122.5" y2="283.5" class='vline'/>
    <line x1="127.5" y1="13.5" x2="127.5" y2="283.5" class='vline'/>
    <line x1="132.5" y1="13.5" x2="132.5" y2="283.5" class='vline'/>
    <line x1="137.5" y1="13.5" x2="137.5" y2="283.5" class='vline'/>
    <line x1="142.5" y1="13.5" x2="142.5" y2="283.5" class='vline'/>
    <line x1="147.5" y1="13.5" x2="147.5" y2="283.5" class='vline'/>
    <line x1="152.5" y1="13.5" x2="152.5" y2="283.5" class='vline'/>
    <line x1="157.5" y1="13.5" x2="157.5" y2="283.5" class='vline'/>
    <line x1="162.5" y1="13.5" x2="162.5" y2="283.5" class='vline'/>
    <line x1="167.5" y1="13.5" x2="167.5" y2="283.5" class='vline'/>
    <line x1="172.5" y1="13.5" x2="172.5" y2="283.5" class='vline'/>
    <line x1="177.5" y1="13.5" x2="177.5" y2="283.5" class='vline'/>
    <line x1="182.5" y1="13.5" x2="182.5" y2="283.5" class='vline'/>
    <line x1="187.5" y1="13.5" x2="187.5" y2="283.5" class='vline'/>
    <line x1="192.5" y1="13.5" x2="192.5" y2="283.5" class='vline'/>
    <line x1="197.5" y1="13.5" x2="197.5" y2="283.5" class='vline'/>
    <line x1="202.5" y1="13.5" x2="202.5" y2="283.5" class='vline'/>
  </g>
</svg>
