<?xml version="1.0" standalone="no"?>
<!DOCTYPE svg PUBLIC "-//W3C//DTD SVG 1.1//EN" "http://www.w3.org/Graphics/SVG/1.1/DTD/svg11.dtd">
<svg xmlns="http://www.w3.org/2000/svg" width="297.0mm" height="210.0mm" viewBox="0 0 297.0 210.0" >

  <g id="sheet">
    <line x1="12.0" y1="21.0" x2="285.0" y2="21.0" stroke='blue' stroke-width='0.2' tags='ascender'/>
    <line x1="12.0" y1="28.0" x2="285.0" y2="28.0" stroke='grey' stroke-width='0.1' stroke-dasharray='2, 2' tags='waist'/>
    <line x1="12.0" y1="35.0" x2="285.0" y2="35.0" stroke='red' stroke-width='0.1' stroke-dasharray='2, 2' tags='base'/>
    <line x1="12.0" y1="42.0" x2="285.0" y2="42.0" stroke='blue' stroke-width='0.2' tags='descender'/>
    <line x1="12.0" y1="49.0" x2="285.0" y2="49.0" stroke='grey' stroke-width='0.1' stroke-dasharray='2, 2' tags='waist'/>
    <line x1="12.0" y1="56.0" x2="285.0" y2="56.0" stroke='red' stroke-width='0.1' stroke-dasharray='2, 2' tags='base'/>
    <line x1="12.0" y1="63.0" x2="285.0" y2="63.0" stroke='blue' stroke-width='0.2' tags='descender'/>
    <line x1="12.0" y1="70.0" x2="285.0" y2="70.0" stroke='grey' stroke-width='0.1' stroke-dasharray='2, 2' tags='waist'/>
    <line x1="12.0" y1="77.0" x2="285.0" y2="77.0" stroke='red' stroke-width='0.1' stroke-dasharray='2, 2' tags='base'/>
    <line x1="12.0" y1="84.0" x2="285.0" y2="84.0" stroke='blue' stroke-width='0.2' tags='descender'/>
    <line x1="12.0" y1="91.0" x2="285.0" y2="91.0" stroke='grey' stroke-width='0.1' stroke-dasharray='2, 2' tags='waist'/>
    <line x1="12.0" y1="98.0" x2="285.0" y2="98.0" stroke='red' stroke-width='0.1' stroke-dasharray='2, 2' tags='base'/>
    <line x1="12.0" y1="105.0" x2="285.0" y2="105.0" stroke='blue' stroke-width='0.2' tags='descender'/>
    <line x1="12.0" y1="112.0" x2="285.0" y2="112.0" stroke='grey' stroke-width='0.1' stroke-dasharray='2, 2' tags='waist'/>
    <line x1="12.0" y1="119.0" x2="285.0" y2="119.0" stroke='red' stroke-width='0.1' stroke-dasharray='2, 2' tags='base'/>
    <line x1="12.0" y1="126.0" x2="285.0" y2="126.0" stroke='blue' stroke-width='0.2' tags='descender'/>
    <line x1="12.0" y1="133.0" x2="285.0" y2="133.0" stroke='grey' stroke-width='0.1' stroke-dasharray='2, 2' tags='waist'/>
    <line x1="12.0" y1="140.0" x2="285.0" y2="140.0" stroke='red' stroke-width='0.1' stroke-dasharray='2, 2' tags='base'/>
    <line x1="12.0" y1="147.0" x2="285.0" y2="147.0" stroke='blue' stroke-width='0.2' tags='descender'/>
    <line x1="12.0" y1="154.0" x2="285.0" y2="154.0" stroke='grey' stroke-width='0.1' stroke-dasharray='2, 2' tags='waist'/>
    <line x1="12.0" y1="161.0" x2="285.0" y2="161.0" stroke='red' stroke-width='0.1' stroke-dasharray='2, 2' tags='base'/>
    <line x1="12.0" y1="168.0" x2="285.0" y2="168.0" stroke='blue' stroke-width='0.2' tags='descender'/>
    <line x1="12.0" y1="175.0" x2="285.0" y2="175.0" stroke='grey' stroke-width='0.1' stroke-dasharray='2, 2' tags='waist'/>
    <line x1="12.0" y1="182.0" x2="285.0" y2="182.0" stroke='red' stroke-width='0.1' stroke-dasharray='2, 2' tags='base'/>
    <line x1="12.0" y1="189.0" x2="285.0" y2="189.0" stroke='blue' stroke-width='0.2' tags='descender'/>
    <line x1="12.0" y1="21.0" x2="12.0" y2="189.0" stroke='blue' stroke-width='0.05' tags='vline'/>
    <line x1="19.0" y1="21.0" x2="19.0" y2="189.0" stroke='blue' stroke-width='0.05' tags='vline'/>
    <line x1="26.0" y1="21.0" x2="26.0" y2="189.0" stroke='blue' stroke-width='0.05' tags='vline'/>
    <line x1="33.0" y1="21.0" x2="33.0" y2="189.0" stroke='blue' stroke-width='0.05' tags='vline'/>
    <line x1="40.0" y1="21.0" x2="40.0" y2="189.0" stroke='blue' stroke-width='0.05' tags='vline'/>
    <line x1="47.0" y1="21.0" x2="47.0" y2="189.0" stroke='blue' stroke-width='0.05' tags='vline'/>
    <line x1="54.0" y1="21.0" x2="54.0" y2="189.0" stroke='blue' stroke-width='0.05' tags='vline'/>
    <line x1="61.0" y1="21.0" x2="61.0" y2="189.0" stroke='blue' stroke-width='0.05' tags='vline'/>
    <line x1="68.0" y1="21.0" x2="68.0" y2="189.0" stroke='blue' stroke-width='0.05' tags='vline'/>
    <line x1="75.0" y1="21.0" x2="75.0" y2="189.0" stroke='blue' stroke-width='0.05' tags='vline'/>
    <line x1="82.0" y1="21.0" x2="82.0" y2="189.0" stroke='blue' stroke-width='0.05' tags='vline'/>
    <line x1="89.0" y1="21.0" x2="89.0" y2="189.0" stroke='blue' stroke-width='0.05' tags='vline'/>
    <line x1="96.0" y1="21.0" x2="96.0" y2="189.0" stroke='blue' stroke-width='0.05' tags='vline'/>
    <line x1="103.0" y1="21.0" x2="103.0" y2="189.0" stroke='blue' stroke-width='0.05' tags='vline'/>
    <line x1="110.0" y1="21.0" x2="110.0" y2="189.0" stroke='blue' stroke-width='0.05' tags='vline'/>
    <line x1="117.0" y1="21.0" x2="117.0" y2="189.0" stroke='blue' stroke-width='0.05' tags='vline'/>
    <line x1="124.0" y1="21.0" x2="124.0" y2="189.0" stroke='blue' stroke-width='0.05' tags='vline'/>
    <line x1="131.0" y1="21.0" x2="131.0" y2="189.0" stroke='blue' stroke-width='0.05' tags='vline'/>
    <line x1="138.0" y1="21.0" x2="138.0" y2="189.0" stroke='blue' stroke-width='0.05' tags='vline'/>
    <line x1="145.0" y1="21.0" x2="145.0" y2="189.0" stroke='blue' stroke-width='0.05' tags='vline'/>
    <line x1="152.0" y1="21.0" x2="152.0" y2="189.0" stroke='blue' stroke-width='0.05' tags='vline'/>
    <line x1="159.0" y1="21.0" x2="159.0" y2="189.0" stroke='blue' stroke-width='0.05' tags='vline'/>
    <line x1="166.0" y1="21.0" x2="166.0" y2="189.0" stroke='blue' stroke-width='0.05' tags='vline'/>
    <line x1="173.0" y1="21.0" x2="173.0" y2="189.0" stroke='blue' stroke-width='0.05' tags='vline'/>
    <line x1="180.0" y1="21.0" x2="180.0" y2="189.0" stroke='blue' stroke-width='0.05' tags='vline'/>
    <line x1="187.0" y1="21.0" x2="187.0" y2="189.0" stroke='blue' stroke-width='0.05' tags='vline'/>
    <line x1="194.0" y1="21.0" x2="194.0" y2="189.0" stroke='blue' stroke-width='0.05' tags='vline'/>
    <line x1="201.0" y1="21.0" x2="201.0" y2="189.0" stroke='blue' stroke-width='0.05' tags='vline'/>
    <line x1="208.0" y1="21.0" x2="208.0" y2="189.0" stroke='blue' stroke-width='0.05' tags='vline'/>
    <line x1="215.0" y1="21.0" x2="215.0" y2="189.0" stroke='blue' stroke-width='0.05' tags='vline'/>
    <line x1="222.0" y1="21.0" x2="222.0" y2="189.0" stroke='blue' stroke-width='0.05' tags='vline'/>
    <line x1="229.0" y1="21.0" x2="229.0" y2="189.0" stroke='blue' stroke-width='0.05' tags='vline'/>
    <line x1="236.0" y1="21.0" x2="236.0" y2="189.0" stroke='blue' stroke-width='0.05' tags='vline'/>
    <line x1="243.0" y1="21.0" x2="243.0" y2="189.0" stroke='blue' stroke-width='0.05' tags='vline'/>
    <line x1="250.0" y1="21.0" x2="250.0" y2="189.0" stroke='blue' stroke-width='0.05' tags='vline'/>
    <line x1="257.0" y1="21.0" x2="257.0" y2="189.0" stroke='blue' stroke-width='0.05' tags='vline'/>
    <line x1="264.0" y1="21.0" x2="264.0" y2="189.0" stroke='blue' stroke-width='0.05' tags='vline'/>
    <line x1="271.0" y1="21.0" x2="271.0" y2="189.0" stroke='blue' stroke-width='0.05' tags='vline'/>
    <line x1="278.0" y1="21.0" x2="278.0" y2="189.0" stroke='blue' stroke-width='0.05' tags='vline'/>
    <line x1="285.0" y1="21.0" x2="285.0" y2="189.0" stroke='blue' stroke-width='0.05' tags='vline'/>
  </g>
</svg>
