<?xml version="1.0" standalone="no"?>
<!DOCTYPE svg PUBLIC "-//W3C//DTD SVG 1.1//EN" "http://www.w3.org/Graphics/SVG/1.1/DTD/svg11.dtd">
<svg xmlns="http://www.w3.org/2000/svg" width="297.0mm" height="210.0mm" viewBox="0 0 297.0 210.0" shape-rendering="geometricPrecision" >
  <style>
    svg         { stroke:            #ed008c; }
    svg         { stroke-width:         0.04; }
    .altcolor   { stroke:               blue; }
    .extrafine  { stroke-width:         0.01; }
    .fine       { stroke-width:         0.02; }
    .medium     { stroke-width:         0.04; }
    .broad      { stroke-width:         0.08; }
    .extrabroad { stroke-width:         0.16; }
    .dashed     { stroke-dasharray:      2 2; }
  </style>
  <g id="sheet">
    <line x1="13.5" y1="15.0" x2="283.5" y2="15.0" class='ascender broad'/>
    <line x1="13.5" y1="20.0" x2="283.5" y2="20.0" class='waist altcolor'/>
    <line x1="13.5" y1="25.0" x2="283.5" y2="25.0" class='base'/>
    <line x1="13.5" y1="30.0" x2="283.5" y2="30.0" class='descender broad'/>
    <line x1="13.5" y1="35.0" x2="283.5" y2="35.0" class='waist altcolor'/>
    <line x1="13.5" y1="40.0" x2="283.5" y2="40.0" class='base'/>
    <line x1="13.5" y1="45.0" x2="283.5" y2="45.0" class='descender broad'/>
    <line x1="13.5" y1="50.0" x2="283.5" y2="50.0" class='waist altcolor'/>
    <line x1="13.5" y1="55.0" x2="283.5" y2="55.0" class='base'/>
    <line x1="13.5" y1="60.0" x2="283.5" y2="60.0" class='descender broad'/>
    <line x1="13.5" y1="65.0" x2="283.5" y2="65.0" class='waist altcolor'/>
    <line x1="13.5" y1="70.0" x2="283.5" y2="70.0" class='base'/>
    <line x1="13.5" y1="75.0" x2="283.5" y2="75.0" class='descender broad'/>
    <line x1="13.5" y1="80.0" x2="283.5" y2="80.0" class='waist altcolor'/>
    <line x1="13.5" y1="85.0" x2="283.5" y2="85.0" class='base'/>
    <line x1="13.5" y1="90.0" x2="283.5" y2="90.0" class='descender broad'/>
    <line x1="13.5" y1="95.0" x2="283.5" y2="95.0" class='waist altcolor'/>
    <line x1="13.5" y1="100.0" x2="283.5" y2="100.0" class='base'/>
    <line x1="13.5" y1="105.0" x2="283.5" y2="105.0" class='descender broad'/>
    <line x1="13.5" y1="110.0" x2="283.5" y2="110.0" class='waist altcolor'/>
    <line x1="13.5" y1="115.0" x2="283.5" y2="115.0" class='base'/>
    <line x1="13.5" y1="120.0" x2="283.5" y2="120.0" class='descender broad'/>
    <line x1="13.5" y1="125.0" x2="283.5" y2="125.0" class='waist altcolor'/>
    <line x1="13.5" y1="130.0" x2="283.5" y2="130.0" class='base'/>
    <line x1="13.5" y1="135.0" x2="283.5" y2="135.0" class='descender broad'/>
    <line x1="13.5" y1="140.0" x2="283.5" y2="140.0" class='waist altcolor'/>
    <line x1="13.5" y1="145.0" x2="283.5" y2="145.0" class='base'/>
    <line x1="13.5" y1="150.0" x2="283.5" y2="150.0" class='descender broad'/>
    <line x1="13.5" y1="155.0" x2="283.5" y2="155.0" class='waist altcolor'/>
    <line x1="13.5" y1="160.0" x2="283.5" y2="160.0" class='base'/>
    <line x1="13.5" y1="165.0" x2="283.5" y2="165.0" class='descender broad'/>
    <line x1="13.5" y1="170.0" x2="283.5" y2="170.0" class='waist altcolor'/>
    <line x1="13.5" y1="175.0" x2="283.5" y2="175.0" class='base'/>
    <line x1="13.5" y1="180.0" x2="283.5" y2="180.0" class='descender broad'/>
    <line x1="13.5" y1="185.0" x2="283.5" y2="185.0" class='waist altcolor'/>
    <line x1="13.5" y1="190.0" x2="283.5" y2="190.0" class='base'/>
    <line x1="13.5" y1="195.0" x2="283.5" y2="195.0" class='descender broad'/>
    <line x1="13.5" y1="15.0" x2="13.5" y2="195.0" class='vline'/>
    <line x1="18.5" y1="15.0" x2="18.5" y2="195.0" class='vline'/>
    <line x1="23.5" y1="15.0" x2="23.5" y2="195.0" class='vline'/>
    <line x1="28.5" y1="15.0" x2="28.5" y2="195.0" class='vline'/>
    <line x1="33.5" y1="15.0" x2="33.5" y2="195.0" class='vline'/>
    <line x1="38.5" y1="15.0" x2="38.5" y2="195.0" class='vline'/>
    <line x1="43.5" y1="15.0" x2="43.5" y2="195.0" class='vline'/>
    <line x1="48.5" y1="15.0" x2="48.5" y2="195.0" class='vline'/>
    <line x1="53.5" y1="15.0" x2="53.5" y2="195.0" class='vline'/>
    <line x1="58.5" y1="15.0" x2="58.5" y2="195.0" class='vline'/>
    <line x1="63.5" y1="15.0" x2="63.5" y2="195.0" class='vline'/>
    <line x1="68.5" y1="15.0" x2="68.5" y2="195.0" class='vline'/>
    <line x1="73.5" y1="15.0" x2="73.5" y2="195.0" class='vline'/>
    <line x1="78.5" y1="15.0" x2="78.5" y2="195.0" class='vline'/>
    <line x1="83.5" y1="15.0" x2="83.5" y2="195.0" class='vline'/>
    <line x1="88.5" y1="15.0" x2="88.5" y2="195.0" class='vline'/>
    <line x1="93.5" y1="15.0" x2="93.5" y2="195.0" class='vline'/>
    <line x1="98.5" y1="15.0" x2="98.5" y2="195.0" class='vline'/>
    <line x1="103.5" y1="15.0" x2="103.5" y2="195.0" class='vline'/>
    <line x1="108.5" y1="15.0" x2="108.5" y2="195.0" class='vline'/>
    <line x1="113.5" y1="15.0" x2="113.5" y2="195.0" class='vline'/>
    <line x1="118.5" y1="15.0" x2="118.5" y2="195.0" class='vline'/>
    <line x1="123.5" y1="15.0" x2="123.5" y2="195.0" class='vline'/>
    <line x1="128.5" y1="15.0" x2="128.5" y2="195.0" class='vline'/>
    <line x1="133.5" y1="15.0" x2="133.5" y2="195.0" class='vline'/>
    <line x1="138.5" y1="15.0" x2="138.5" y2="195.0" class='vline'/>
    <line x1="143.5" y1="15.0" x2="143.5" y2="195.0" class='vline'/>
    <line x1="148.5" y1="15.0" x2="148.5" y2="195.0" class='vline'/>
    <line x1="153.5" y1="15.0" x2="153.5" y2="195.0" class='vline'/>
    <line x1="158.5" y1="15.0" x2="158.5" y2="195.0" class='vline'/>
    <line x1="163.5" y1="15.0" x2="163.5" y2="195.0" class='vline'/>
    <line x1="168.5" y1="15.0" x2="168.5" y2="195.0" class='vline'/>
    <line x1="173.5" y1="15.0" x2="173.5" y2="195.0" class='vline'/>
    <line x1="178.5" y1="15.0" x2="178.5" y2="195.0" class='vline'/>
    <line x1="183.5" y1="15.0" x2="183.5" y2="195.0" class='vline'/>
    <line x1="188.5" y1="15.0" x2="188.5" y2="195.0" class='vline'/>
    <line x1="193.5" y1="15.0" x2="193.5" y2="195.0" class='vline'/>
    <line x1="198.5" y1="15.0" x2="198.5" y2="195.0" class='vline'/>
    <line x1="203.5" y1="15.0" x2="203.5" y2="195.0" class='vline'/>
    <line x1="208.5" y1="15.0" x2="208.5" y2="195.0" class='vline'/>
    <line x1="213.5" y1="15.0" x2="213.5" y2="195.0" class='vline'/>
    <line x1="218.5" y1="15.0" x2="218.5" y2="195.0" class='vline'/>
    <line x1="223.5" y1="15.0" x2="223.5" y2="195.0" class='vline'/>
    <line x1="228.5" y1="15.0" x2="228.5" y2="195.0" class='vline'/>
    <line x1="233.5" y1="15.0" x2="233.5" y2="195.0" class='vline'/>
    <line x1="238.5" y1="15.0" x2="238.5" y2="195.0" class='vline'/>
    <line x1="243.5" y1="15.0" x2="243.5" y2="195.0" class='vline'/>
    <line x1="248.5" y1="15.0" x2="248.5" y2="195.0" class='vline'/>
    <line x1="253.5" y1="15.0" x2="253.5" y2="195.0" class='vline'/>
    <line x1="258.5" y1="15.0" x2="258.5" y2="195.0" class='vline'/>
    <line x1="263.5" y1="15.0" x2="263.5" y2="195.0" class='vline'/>
    <line x1="268.5" y1="15.0" x2="268.5" y2="195.0" class='vline'/>
    <line x1="273.5" y1="15.0" x2="273.5" y2="195.0" class='vline'/>
    <line x1="278.5" y1="15.0" x2="278.5" y2="195.0" class='vline'/>
    <line x1="283.5" y1="15.0" x2="283.5" y2="195.0" class='vline'/>
  </g>
</svg>
