<?xml version="1.0" standalone="no"?>
<!DOCTYPE svg PUBLIC "-//W3C//DTD SVG 1.1//EN" "http://www.w3.org/Graphics/SVG/1.1/DTD/svg11.dtd">
<svg xmlns="http://www.w3.org/2000/svg" width="210.0mm" height="148.5mm" viewBox="0 0 210.0 148.5" >

  <g id="sheet">
    <line x1="12.5" y1="19.25" x2="197.5" y2="19.25" stroke='blue' stroke-width='0.1' tags='hline'/>
    <line x1="12.5" y1="24.25" x2="197.5" y2="24.25" stroke='blue' stroke-width='0.1' tags='hline'/>
    <line x1="12.5" y1="29.25" x2="197.5" y2="29.25" stroke='blue' stroke-width='0.1' tags='hline'/>
    <line x1="12.5" y1="34.25" x2="197.5" y2="34.25" stroke='blue' stroke-width='0.1' tags='hline'/>
    <line x1="12.5" y1="39.25" x2="197.5" y2="39.25" stroke='blue' stroke-width='0.1' tags='hline'/>
    <line x1="12.5" y1="44.25" x2="197.5" y2="44.25" stroke='blue' stroke-width='0.1' tags='hline'/>
    <line x1="12.5" y1="49.25" x2="197.5" y2="49.25" stroke='blue' stroke-width='0.1' tags='hline'/>
    <line x1="12.5" y1="54.25" x2="197.5" y2="54.25" stroke='blue' stroke-width='0.1' tags='hline'/>
    <line x1="12.5" y1="59.25" x2="197.5" y2="59.25" stroke='blue' stroke-width='0.1' tags='hline'/>
    <line x1="12.5" y1="64.25" x2="197.5" y2="64.25" stroke='blue' stroke-width='0.1' tags='hline'/>
    <line x1="12.5" y1="69.25" x2="197.5" y2="69.25" stroke='blue' stroke-width='0.1' tags='hline'/>
    <line x1="12.5" y1="74.25" x2="197.5" y2="74.25" stroke='blue' stroke-width='0.1' tags='hline'/>
    <line x1="12.5" y1="79.25" x2="197.5" y2="79.25" stroke='blue' stroke-width='0.1' tags='hline'/>
    <line x1="12.5" y1="84.25" x2="197.5" y2="84.25" stroke='blue' stroke-width='0.1' tags='hline'/>
    <line x1="12.5" y1="89.25" x2="197.5" y2="89.25" stroke='blue' stroke-width='0.1' tags='hline'/>
    <line x1="12.5" y1="94.25" x2="197.5" y2="94.25" stroke='blue' stroke-width='0.1' tags='hline'/>
    <line x1="12.5" y1="99.25" x2="197.5" y2="99.25" stroke='blue' stroke-width='0.1' tags='hline'/>
    <line x1="12.5" y1="104.25" x2="197.5" y2="104.25" stroke='blue' stroke-width='0.1' tags='hline'/>
    <line x1="12.5" y1="109.25" x2="197.5" y2="109.25" stroke='blue' stroke-width='0.1' tags='hline'/>
    <line x1="12.5" y1="114.25" x2="197.5" y2="114.25" stroke='blue' stroke-width='0.1' tags='hline'/>
    <line x1="12.5" y1="119.25" x2="197.5" y2="119.25" stroke='blue' stroke-width='0.1' tags='hline'/>
    <line x1="12.5" y1="124.25" x2="197.5" y2="124.25" stroke='blue' stroke-width='0.1' tags='hline'/>
    <line x1="12.5" y1="129.25" x2="197.5" y2="129.25" stroke='blue' stroke-width='0.1' tags='hline'/>
  </g>
</svg>
