<?xml version="1.0" standalone="no"?>
<!DOCTYPE svg PUBLIC "-//W3C//DTD SVG 1.1//EN" "http://www.w3.org/Graphics/SVG/1.1/DTD/svg11.dtd">
<svg xmlns="http://www.w3.org/2000/svg" width="210.0mm" height="148.5mm" viewBox="0 0 210.0 148.5" >

  <g id="sheet">
    <line x1="17.5" y1="24.25" x2="192.5" y2="24.25" stroke='blue' stroke-width='0.2' tags='ascender2'/>
    <line x1="17.5" y1="29.25" x2="192.5" y2="29.25" stroke='grey' stroke-width='0.1' stroke-dasharray='2, 2' tags='ascender1'/>
    <line x1="17.5" y1="34.25" x2="192.5" y2="34.25" stroke='grey' stroke-width='0.1' tags='waist'/>
    <line x1="17.5" y1="39.25" x2="192.5" y2="39.25" stroke='red' stroke-width='0.1' tags='base'/>
    <line x1="17.5" y1="44.25" x2="192.5" y2="44.25" stroke='grey' stroke-width='0.1' stroke-dasharray='2, 2' tags='descender1'/>
    <line x1="17.5" y1="49.25" x2="192.5" y2="49.25" stroke='blue' stroke-width='0.2' tags='descender2'/>
    <line x1="17.5" y1="54.25" x2="192.5" y2="54.25" stroke='grey' stroke-width='0.1' stroke-dasharray='2, 2' tags='ascender1'/>
    <line x1="17.5" y1="59.25" x2="192.5" y2="59.25" stroke='grey' stroke-width='0.1' tags='waist'/>
    <line x1="17.5" y1="64.25" x2="192.5" y2="64.25" stroke='red' stroke-width='0.1' tags='base'/>
    <line x1="17.5" y1="69.25" x2="192.5" y2="69.25" stroke='grey' stroke-width='0.1' stroke-dasharray='2, 2' tags='descender1'/>
    <line x1="17.5" y1="74.25" x2="192.5" y2="74.25" stroke='blue' stroke-width='0.2' tags='descender2'/>
    <line x1="17.5" y1="79.25" x2="192.5" y2="79.25" stroke='grey' stroke-width='0.1' stroke-dasharray='2, 2' tags='ascender1'/>
    <line x1="17.5" y1="84.25" x2="192.5" y2="84.25" stroke='grey' stroke-width='0.1' tags='waist'/>
    <line x1="17.5" y1="89.25" x2="192.5" y2="89.25" stroke='red' stroke-width='0.1' tags='base'/>
    <line x1="17.5" y1="94.25" x2="192.5" y2="94.25" stroke='grey' stroke-width='0.1' stroke-dasharray='2, 2' tags='descender1'/>
    <line x1="17.5" y1="99.25" x2="192.5" y2="99.25" stroke='blue' stroke-width='0.2' tags='descender2'/>
    <line x1="17.5" y1="104.25" x2="192.5" y2="104.25" stroke='grey' stroke-width='0.1' stroke-dasharray='2, 2' tags='ascender1'/>
    <line x1="17.5" y1="109.25" x2="192.5" y2="109.25" stroke='grey' stroke-width='0.1' tags='waist'/>
    <line x1="17.5" y1="114.25" x2="192.5" y2="114.25" stroke='red' stroke-width='0.1' tags='base'/>
    <line x1="17.5" y1="119.25" x2="192.5" y2="119.25" stroke='grey' stroke-width='0.1' stroke-dasharray='2, 2' tags='descender1'/>
    <line x1="17.5" y1="124.25" x2="192.5" y2="124.25" stroke='blue' stroke-width='0.2' tags='descender2'/>
    <line x1="17.5" y1="24.25" x2="17.5" y2="24.25" stroke='blue' stroke-width='0.1' tags='slant'/>
    <line x1="17.5" y1="32.93059" x2="23.57822" y2="24.25" stroke='blue' stroke-width='0.1' tags='slant'/>
    <line x1="17.5" y1="41.61119" x2="29.65643" y2="24.25" stroke='blue' stroke-width='0.1' tags='slant'/>
    <line x1="17.5" y1="50.29178" x2="35.73465" y2="24.25" stroke='blue' stroke-width='0.1' tags='slant'/>
    <line x1="17.5" y1="58.97237" x2="41.81287" y2="24.25" stroke='blue' stroke-width='0.1' tags='slant'/>
    <line x1="17.5" y1="67.65297" x2="47.89108" y2="24.25" stroke='blue' stroke-width='0.1' tags='slant'/>
    <line x1="17.5" y1="76.33356" x2="53.9693" y2="24.25" stroke='blue' stroke-width='0.1' tags='slant'/>
    <line x1="17.5" y1="85.01415" x2="60.04752" y2="24.25" stroke='blue' stroke-width='0.1' tags='slant'/>
    <line x1="17.5" y1="93.69475" x2="66.12573" y2="24.25" stroke='blue' stroke-width='0.1' tags='slant'/>
    <line x1="17.5" y1="102.37534" x2="72.20395" y2="24.25" stroke='blue' stroke-width='0.1' tags='slant'/>
    <line x1="17.5" y1="111.05593" x2="78.28217" y2="24.25" stroke='blue' stroke-width='0.1' tags='slant'/>
    <line x1="17.5" y1="119.73653" x2="84.36039" y2="24.25" stroke='blue' stroke-width='0.1' tags='slant'/>
    <line x1="20.41785" y1="124.25" x2="90.4386" y2="24.25" stroke='blue' stroke-width='0.1' tags='slant'/>
    <line x1="26.49607" y1="124.25" x2="96.51682" y2="24.25" stroke='blue' stroke-width='0.1' tags='slant'/>
    <line x1="32.57428" y1="124.25" x2="102.59504" y2="24.25" stroke='blue' stroke-width='0.1' tags='slant'/>
    <line x1="38.6525" y1="124.25" x2="108.67325" y2="24.25" stroke='blue' stroke-width='0.1' tags='slant'/>
    <line x1="44.73072" y1="124.25" x2="114.75147" y2="24.25" stroke='blue' stroke-width='0.1' tags='slant'/>
    <line x1="50.80893" y1="124.25" x2="120.82969" y2="24.25" stroke='blue' stroke-width='0.1' tags='slant'/>
    <line x1="56.88715" y1="124.25" x2="126.9079" y2="24.25" stroke='blue' stroke-width='0.1' tags='slant'/>
    <line x1="62.96537" y1="124.25" x2="132.98612" y2="24.25" stroke='blue' stroke-width='0.1' tags='slant'/>
    <line x1="69.04358" y1="124.25" x2="139.06434" y2="24.25" stroke='blue' stroke-width='0.1' tags='slant'/>
    <line x1="75.1218" y1="124.25" x2="145.14255" y2="24.25" stroke='blue' stroke-width='0.1' tags='slant'/>
    <line x1="81.20002" y1="124.25" x2="151.22077" y2="24.25" stroke='blue' stroke-width='0.1' tags='slant'/>
    <line x1="87.27823" y1="124.25" x2="157.29899" y2="24.25" stroke='blue' stroke-width='0.1' tags='slant'/>
    <line x1="93.35645" y1="124.25" x2="163.3772" y2="24.25" stroke='blue' stroke-width='0.1' tags='slant'/>
    <line x1="99.43467" y1="124.25" x2="169.45542" y2="24.25" stroke='blue' stroke-width='0.1' tags='slant'/>
    <line x1="105.51288" y1="124.25" x2="175.53364" y2="24.25" stroke='blue' stroke-width='0.1' tags='slant'/>
    <line x1="111.5911" y1="124.25" x2="181.61185" y2="24.25" stroke='blue' stroke-width='0.1' tags='slant'/>
    <line x1="117.66932" y1="124.25" x2="187.69007" y2="24.25" stroke='blue' stroke-width='0.1' tags='slant'/>
    <line x1="123.74753" y1="124.25" x2="192.5" y2="26.0613" stroke='blue' stroke-width='0.1' tags='slant'/>
    <line x1="129.82575" y1="124.25" x2="192.5" y2="34.7419" stroke='blue' stroke-width='0.1' tags='slant'/>
    <line x1="135.90397" y1="124.25" x2="192.5" y2="43.42249" stroke='blue' stroke-width='0.1' tags='slant'/>
    <line x1="141.98218" y1="124.25" x2="192.5" y2="52.10308" stroke='blue' stroke-width='0.1' tags='slant'/>
    <line x1="148.0604" y1="124.25" x2="192.5" y2="60.78368" stroke='blue' stroke-width='0.1' tags='slant'/>
    <line x1="154.13862" y1="124.25" x2="192.5" y2="69.46427" stroke='blue' stroke-width='0.1' tags='slant'/>
    <line x1="160.21684" y1="124.25" x2="192.5" y2="78.14486" stroke='blue' stroke-width='0.1' tags='slant'/>
    <line x1="166.29505" y1="124.25" x2="192.5" y2="86.82546" stroke='blue' stroke-width='0.1' tags='slant'/>
    <line x1="172.37327" y1="124.25" x2="192.5" y2="95.50605" stroke='blue' stroke-width='0.1' tags='slant'/>
    <line x1="178.45149" y1="124.25" x2="192.5" y2="104.18664" stroke='blue' stroke-width='0.1' tags='slant'/>
    <line x1="184.5297" y1="124.25" x2="192.5" y2="112.86724" stroke='blue' stroke-width='0.1' tags='slant'/>
    <line x1="190.60792" y1="124.25" x2="192.5" y2="121.54783" stroke='blue' stroke-width='0.1' tags='slant'/>
    <line x1="17.5" y1="31.90435" x2="23.92277" y2="24.25" stroke='blue' stroke-width='0.07' stroke-dasharray='2, 2' tags='connective'/>
    <line x1="17.5" y1="39.55871" x2="30.34553" y2="24.25" stroke='blue' stroke-width='0.07' stroke-dasharray='2, 2' tags='connective'/>
    <line x1="17.5" y1="47.21306" x2="36.7683" y2="24.25" stroke='blue' stroke-width='0.07' stroke-dasharray='2, 2' tags='connective'/>
    <line x1="17.5" y1="54.86742" x2="43.19106" y2="24.25" stroke='blue' stroke-width='0.07' stroke-dasharray='2, 2' tags='connective'/>
    <line x1="17.5" y1="62.52177" x2="49.61383" y2="24.25" stroke='blue' stroke-width='0.07' stroke-dasharray='2, 2' tags='connective'/>
    <line x1="17.5" y1="70.17612" x2="56.03659" y2="24.25" stroke='blue' stroke-width='0.07' stroke-dasharray='2, 2' tags='connective'/>
    <line x1="17.5" y1="77.83048" x2="62.45936" y2="24.25" stroke='blue' stroke-width='0.07' stroke-dasharray='2, 2' tags='connective'/>
    <line x1="17.5" y1="85.48483" x2="68.88213" y2="24.25" stroke='blue' stroke-width='0.07' stroke-dasharray='2, 2' tags='connective'/>
    <line x1="17.5" y1="93.13919" x2="75.30489" y2="24.25" stroke='blue' stroke-width='0.07' stroke-dasharray='2, 2' tags='connective'/>
    <line x1="17.5" y1="100.79354" x2="81.72766" y2="24.25" stroke='blue' stroke-width='0.07' stroke-dasharray='2, 2' tags='connective'/>
    <line x1="17.5" y1="108.4479" x2="88.15042" y2="24.25" stroke='blue' stroke-width='0.07' stroke-dasharray='2, 2' tags='connective'/>
    <line x1="17.5" y1="116.10225" x2="94.57319" y2="24.25" stroke='blue' stroke-width='0.07' stroke-dasharray='2, 2' tags='connective'/>
    <line x1="17.5" y1="123.7566" x2="100.99595" y2="24.25" stroke='blue' stroke-width='0.07' stroke-dasharray='2, 2' tags='connective'/>
    <line x1="23.50876" y1="124.25" x2="107.41872" y2="24.25" stroke='blue' stroke-width='0.07' stroke-dasharray='2, 2' tags='connective'/>
    <line x1="29.93152" y1="124.25" x2="113.84149" y2="24.25" stroke='blue' stroke-width='0.07' stroke-dasharray='2, 2' tags='connective'/>
    <line x1="36.35429" y1="124.25" x2="120.26425" y2="24.25" stroke='blue' stroke-width='0.07' stroke-dasharray='2, 2' tags='connective'/>
    <line x1="42.77705" y1="124.25" x2="126.68702" y2="24.25" stroke='blue' stroke-width='0.07' stroke-dasharray='2, 2' tags='connective'/>
    <line x1="49.19982" y1="124.25" x2="133.10978" y2="24.25" stroke='blue' stroke-width='0.07' stroke-dasharray='2, 2' tags='connective'/>
    <line x1="55.62259" y1="124.25" x2="139.53255" y2="24.25" stroke='blue' stroke-width='0.07' stroke-dasharray='2, 2' tags='connective'/>
    <line x1="62.04535" y1="124.25" x2="145.95531" y2="24.25" stroke='blue' stroke-width='0.07' stroke-dasharray='2, 2' tags='connective'/>
    <line x1="68.46812" y1="124.25" x2="152.37808" y2="24.25" stroke='blue' stroke-width='0.07' stroke-dasharray='2, 2' tags='connective'/>
    <line x1="74.89088" y1="124.25" x2="158.80085" y2="24.25" stroke='blue' stroke-width='0.07' stroke-dasharray='2, 2' tags='connective'/>
    <line x1="81.31365" y1="124.25" x2="165.22361" y2="24.25" stroke='blue' stroke-width='0.07' stroke-dasharray='2, 2' tags='connective'/>
    <line x1="87.73641" y1="124.25" x2="171.64638" y2="24.25" stroke='blue' stroke-width='0.07' stroke-dasharray='2, 2' tags='connective'/>
    <line x1="94.15918" y1="124.25" x2="178.06914" y2="24.25" stroke='blue' stroke-width='0.07' stroke-dasharray='2, 2' tags='connective'/>
    <line x1="100.58195" y1="124.25" x2="184.49191" y2="24.25" stroke='blue' stroke-width='0.07' stroke-dasharray='2, 2' tags='connective'/>
    <line x1="107.00471" y1="124.25" x2="190.91467" y2="24.25" stroke='blue' stroke-width='0.07' stroke-dasharray='2, 2' tags='connective'/>
    <line x1="113.42748" y1="124.25" x2="192.5" y2="30.01504" stroke='blue' stroke-width='0.07' stroke-dasharray='2, 2' tags='connective'/>
    <line x1="119.85024" y1="124.25" x2="192.5" y2="37.66939" stroke='blue' stroke-width='0.07' stroke-dasharray='2, 2' tags='connective'/>
    <line x1="126.27301" y1="124.25" x2="192.5" y2="45.32374" stroke='blue' stroke-width='0.07' stroke-dasharray='2, 2' tags='connective'/>
    <line x1="132.69577" y1="124.25" x2="192.5" y2="52.9781" stroke='blue' stroke-width='0.07' stroke-dasharray='2, 2' tags='connective'/>
    <line x1="139.11854" y1="124.25" x2="192.5" y2="60.63245" stroke='blue' stroke-width='0.07' stroke-dasharray='2, 2' tags='connective'/>
    <line x1="145.54131" y1="124.25" x2="192.5" y2="68.28681" stroke='blue' stroke-width='0.07' stroke-dasharray='2, 2' tags='connective'/>
    <line x1="151.96407" y1="124.25" x2="192.5" y2="75.94116" stroke='blue' stroke-width='0.07' stroke-dasharray='2, 2' tags='connective'/>
    <line x1="158.38684" y1="124.25" x2="192.5" y2="83.59552" stroke='blue' stroke-width='0.07' stroke-dasharray='2, 2' tags='connective'/>
    <line x1="164.8096" y1="124.25" x2="192.5" y2="91.24987" stroke='blue' stroke-width='0.07' stroke-dasharray='2, 2' tags='connective'/>
    <line x1="171.23237" y1="124.25" x2="192.5" y2="98.90422" stroke='blue' stroke-width='0.07' stroke-dasharray='2, 2' tags='connective'/>
    <line x1="177.65513" y1="124.25" x2="192.5" y2="106.55858" stroke='blue' stroke-width='0.07' stroke-dasharray='2, 2' tags='connective'/>
    <line x1="184.0779" y1="124.25" x2="192.5" y2="114.21293" stroke='blue' stroke-width='0.07' stroke-dasharray='2, 2' tags='connective'/>
    <line x1="190.50067" y1="124.25" x2="192.5" y2="121.86729" stroke='blue' stroke-width='0.07' stroke-dasharray='2, 2' tags='connective'/>
  </g>
</svg>
