<?xml version="1.0" standalone="no"?>
<!DOCTYPE svg PUBLIC "-//W3C//DTD SVG 1.1//EN" "http://www.w3.org/Graphics/SVG/1.1/DTD/svg11.dtd">
<svg xmlns="http://www.w3.org/2000/svg" width="210.0mm" height="297.0mm" viewBox="0 0 210.0 297.0" >

  <g id="sheet">
    <line x1="15.0" y1="21.0" x2="195.0" y2="21.0" stroke='blue' stroke-width='0.2' tags='ascender'/>
    <line x1="15.0" y1="26.0" x2="195.0" y2="26.0" stroke='grey' stroke-width='0.1' stroke-dasharray='2, 2' tags='waist'/>
    <line x1="15.0" y1="31.0" x2="195.0" y2="31.0" stroke='red' stroke-width='0.1' stroke-dasharray='2, 2' tags='base'/>
    <line x1="15.0" y1="36.0" x2="195.0" y2="36.0" stroke='blue' stroke-width='0.2' tags='descender'/>
    <line x1="15.0" y1="41.0" x2="195.0" y2="41.0" stroke='grey' stroke-width='0.1' stroke-dasharray='2, 2' tags='waist'/>
    <line x1="15.0" y1="46.0" x2="195.0" y2="46.0" stroke='red' stroke-width='0.1' stroke-dasharray='2, 2' tags='base'/>
    <line x1="15.0" y1="51.0" x2="195.0" y2="51.0" stroke='blue' stroke-width='0.2' tags='descender'/>
    <line x1="15.0" y1="56.0" x2="195.0" y2="56.0" stroke='grey' stroke-width='0.1' stroke-dasharray='2, 2' tags='waist'/>
    <line x1="15.0" y1="61.0" x2="195.0" y2="61.0" stroke='red' stroke-width='0.1' stroke-dasharray='2, 2' tags='base'/>
    <line x1="15.0" y1="66.0" x2="195.0" y2="66.0" stroke='blue' stroke-width='0.2' tags='descender'/>
    <line x1="15.0" y1="71.0" x2="195.0" y2="71.0" stroke='grey' stroke-width='0.1' stroke-dasharray='2, 2' tags='waist'/>
    <line x1="15.0" y1="76.0" x2="195.0" y2="76.0" stroke='red' stroke-width='0.1' stroke-dasharray='2, 2' tags='base'/>
    <line x1="15.0" y1="81.0" x2="195.0" y2="81.0" stroke='blue' stroke-width='0.2' tags='descender'/>
    <line x1="15.0" y1="86.0" x2="195.0" y2="86.0" stroke='grey' stroke-width='0.1' stroke-dasharray='2, 2' tags='waist'/>
    <line x1="15.0" y1="91.0" x2="195.0" y2="91.0" stroke='red' stroke-width='0.1' stroke-dasharray='2, 2' tags='base'/>
    <line x1="15.0" y1="96.0" x2="195.0" y2="96.0" stroke='blue' stroke-width='0.2' tags='descender'/>
    <line x1="15.0" y1="101.0" x2="195.0" y2="101.0" stroke='grey' stroke-width='0.1' stroke-dasharray='2, 2' tags='waist'/>
    <line x1="15.0" y1="106.0" x2="195.0" y2="106.0" stroke='red' stroke-width='0.1' stroke-dasharray='2, 2' tags='base'/>
    <line x1="15.0" y1="111.0" x2="195.0" y2="111.0" stroke='blue' stroke-width='0.2' tags='descender'/>
    <line x1="15.0" y1="116.0" x2="195.0" y2="116.0" stroke='grey' stroke-width='0.1' stroke-dasharray='2, 2' tags='waist'/>
    <line x1="15.0" y1="121.0" x2="195.0" y2="121.0" stroke='red' stroke-width='0.1' stroke-dasharray='2, 2' tags='base'/>
    <line x1="15.0" y1="126.0" x2="195.0" y2="126.0" stroke='blue' stroke-width='0.2' tags='descender'/>
    <line x1="15.0" y1="131.0" x2="195.0" y2="131.0" stroke='grey' stroke-width='0.1' stroke-dasharray='2, 2' tags='waist'/>
    <line x1="15.0" y1="136.0" x2="195.0" y2="136.0" stroke='red' stroke-width='0.1' stroke-dasharray='2, 2' tags='base'/>
    <line x1="15.0" y1="141.0" x2="195.0" y2="141.0" stroke='blue' stroke-width='0.2' tags='descender'/>
    <line x1="15.0" y1="146.0" x2="195.0" y2="146.0" stroke='grey' stroke-width='0.1' stroke-dasharray='2, 2' tags='waist'/>
    <line x1="15.0" y1="151.0" x2="195.0" y2="151.0" stroke='red' stroke-width='0.1' stroke-dasharray='2, 2' tags='base'/>
    <line x1="15.0" y1="156.0" x2="195.0" y2="156.0" stroke='blue' stroke-width='0.2' tags='descender'/>
    <line x1="15.0" y1="161.0" x2="195.0" y2="161.0" stroke='grey' stroke-width='0.1' stroke-dasharray='2, 2' tags='waist'/>
    <line x1="15.0" y1="166.0" x2="195.0" y2="166.0" stroke='red' stroke-width='0.1' stroke-dasharray='2, 2' tags='base'/>
    <line x1="15.0" y1="171.0" x2="195.0" y2="171.0" stroke='blue' stroke-width='0.2' tags='descender'/>
    <line x1="15.0" y1="176.0" x2="195.0" y2="176.0" stroke='grey' stroke-width='0.1' stroke-dasharray='2, 2' tags='waist'/>
    <line x1="15.0" y1="181.0" x2="195.0" y2="181.0" stroke='red' stroke-width='0.1' stroke-dasharray='2, 2' tags='base'/>
    <line x1="15.0" y1="186.0" x2="195.0" y2="186.0" stroke='blue' stroke-width='0.2' tags='descender'/>
    <line x1="15.0" y1="191.0" x2="195.0" y2="191.0" stroke='grey' stroke-width='0.1' stroke-dasharray='2, 2' tags='waist'/>
    <line x1="15.0" y1="196.0" x2="195.0" y2="196.0" stroke='red' stroke-width='0.1' stroke-dasharray='2, 2' tags='base'/>
    <line x1="15.0" y1="201.0" x2="195.0" y2="201.0" stroke='blue' stroke-width='0.2' tags='descender'/>
    <line x1="15.0" y1="206.0" x2="195.0" y2="206.0" stroke='grey' stroke-width='0.1' stroke-dasharray='2, 2' tags='waist'/>
    <line x1="15.0" y1="211.0" x2="195.0" y2="211.0" stroke='red' stroke-width='0.1' stroke-dasharray='2, 2' tags='base'/>
    <line x1="15.0" y1="216.0" x2="195.0" y2="216.0" stroke='blue' stroke-width='0.2' tags='descender'/>
    <line x1="15.0" y1="221.0" x2="195.0" y2="221.0" stroke='grey' stroke-width='0.1' stroke-dasharray='2, 2' tags='waist'/>
    <line x1="15.0" y1="226.0" x2="195.0" y2="226.0" stroke='red' stroke-width='0.1' stroke-dasharray='2, 2' tags='base'/>
    <line x1="15.0" y1="231.0" x2="195.0" y2="231.0" stroke='blue' stroke-width='0.2' tags='descender'/>
    <line x1="15.0" y1="236.0" x2="195.0" y2="236.0" stroke='grey' stroke-width='0.1' stroke-dasharray='2, 2' tags='waist'/>
    <line x1="15.0" y1="241.0" x2="195.0" y2="241.0" stroke='red' stroke-width='0.1' stroke-dasharray='2, 2' tags='base'/>
    <line x1="15.0" y1="246.0" x2="195.0" y2="246.0" stroke='blue' stroke-width='0.2' tags='descender'/>
    <line x1="15.0" y1="251.0" x2="195.0" y2="251.0" stroke='grey' stroke-width='0.1' stroke-dasharray='2, 2' tags='waist'/>
    <line x1="15.0" y1="256.0" x2="195.0" y2="256.0" stroke='red' stroke-width='0.1' stroke-dasharray='2, 2' tags='base'/>
    <line x1="15.0" y1="261.0" x2="195.0" y2="261.0" stroke='blue' stroke-width='0.2' tags='descender'/>
    <line x1="15.0" y1="266.0" x2="195.0" y2="266.0" stroke='grey' stroke-width='0.1' stroke-dasharray='2, 2' tags='waist'/>
    <line x1="15.0" y1="271.0" x2="195.0" y2="271.0" stroke='red' stroke-width='0.1' stroke-dasharray='2, 2' tags='base'/>
    <line x1="15.0" y1="276.0" x2="195.0" y2="276.0" stroke='blue' stroke-width='0.2' tags='descender'/>
    <line x1="15.0" y1="21.0" x2="15.0" y2="21.0" stroke='blue' stroke-width='0.05' tags='slant'/>
    <line x1="15.0" y1="30.07906" x2="20.2418" y2="21.0" stroke='blue' stroke-width='0.05' tags='slant'/>
    <line x1="15.0" y1="39.15812" x2="25.4836" y2="21.0" stroke='blue' stroke-width='0.05' tags='slant'/>
    <line x1="15.0" y1="48.23719" x2="30.7254" y2="21.0" stroke='blue' stroke-width='0.05' tags='slant'/>
    <line x1="15.0" y1="57.31625" x2="35.9672" y2="21.0" stroke='blue' stroke-width='0.05' tags='slant'/>
    <line x1="15.0" y1="66.39531" x2="41.209" y2="21.0" stroke='blue' stroke-width='0.05' tags='slant'/>
    <line x1="15.0" y1="75.47437" x2="46.45079" y2="21.0" stroke='blue' stroke-width='0.05' tags='slant'/>
    <line x1="15.0" y1="84.55344" x2="51.69259" y2="21.0" stroke='blue' stroke-width='0.05' tags='slant'/>
    <line x1="15.0" y1="93.6325" x2="56.93439" y2="21.0" stroke='blue' stroke-width='0.05' tags='slant'/>
    <line x1="15.0" y1="102.71156" x2="62.17619" y2="21.0" stroke='blue' stroke-width='0.05' tags='slant'/>
    <line x1="15.0" y1="111.79062" x2="67.41799" y2="21.0" stroke='blue' stroke-width='0.05' tags='slant'/>
    <line x1="15.0" y1="120.86969" x2="72.65979" y2="21.0" stroke='blue' stroke-width='0.05' tags='slant'/>
    <line x1="15.0" y1="129.94875" x2="77.90159" y2="21.0" stroke='blue' stroke-width='0.05' tags='slant'/>
    <line x1="15.0" y1="139.02781" x2="83.14339" y2="21.0" stroke='blue' stroke-width='0.05' tags='slant'/>
    <line x1="15.0" y1="148.10687" x2="88.38519" y2="21.0" stroke='blue' stroke-width='0.05' tags='slant'/>
    <line x1="15.0" y1="157.18593" x2="93.62699" y2="21.0" stroke='blue' stroke-width='0.05' tags='slant'/>
    <line x1="15.0" y1="166.265" x2="98.86879" y2="21.0" stroke='blue' stroke-width='0.05' tags='slant'/>
    <line x1="15.0" y1="175.34406" x2="104.11058" y2="21.0" stroke='blue' stroke-width='0.05' tags='slant'/>
    <line x1="15.0" y1="184.42312" x2="109.35238" y2="21.0" stroke='blue' stroke-width='0.05' tags='slant'/>
    <line x1="15.0" y1="193.50218" x2="114.59418" y2="21.0" stroke='blue' stroke-width='0.05' tags='slant'/>
    <line x1="15.0" y1="202.58125" x2="119.83598" y2="21.0" stroke='blue' stroke-width='0.05' tags='slant'/>
    <line x1="15.0" y1="211.66031" x2="125.07778" y2="21.0" stroke='blue' stroke-width='0.05' tags='slant'/>
    <line x1="15.0" y1="220.73937" x2="130.31958" y2="21.0" stroke='blue' stroke-width='0.05' tags='slant'/>
    <line x1="15.0" y1="229.81843" x2="135.56138" y2="21.0" stroke='blue' stroke-width='0.05' tags='slant'/>
    <line x1="15.0" y1="238.8975" x2="140.80318" y2="21.0" stroke='blue' stroke-width='0.05' tags='slant'/>
    <line x1="15.0" y1="247.97656" x2="146.04498" y2="21.0" stroke='blue' stroke-width='0.05' tags='slant'/>
    <line x1="15.0" y1="257.05562" x2="151.28678" y2="21.0" stroke='blue' stroke-width='0.05' tags='slant'/>
    <line x1="15.0" y1="266.13468" x2="156.52857" y2="21.0" stroke='blue' stroke-width='0.05' tags='slant'/>
    <line x1="15.0" y1="275.21374" x2="161.77037" y2="21.0" stroke='blue' stroke-width='0.05' tags='slant'/>
    <line x1="19.78785" y1="276.0" x2="167.01217" y2="21.0" stroke='blue' stroke-width='0.05' tags='slant'/>
    <line x1="25.02965" y1="276.0" x2="172.25397" y2="21.0" stroke='blue' stroke-width='0.05' tags='slant'/>
    <line x1="30.27145" y1="276.0" x2="177.49577" y2="21.0" stroke='blue' stroke-width='0.05' tags='slant'/>
    <line x1="35.51325" y1="276.0" x2="182.73757" y2="21.0" stroke='blue' stroke-width='0.05' tags='slant'/>
    <line x1="40.75505" y1="276.0" x2="187.97937" y2="21.0" stroke='blue' stroke-width='0.05' tags='slant'/>
    <line x1="45.99685" y1="276.0" x2="193.22117" y2="21.0" stroke='blue' stroke-width='0.05' tags='slant'/>
    <line x1="51.23865" y1="276.0" x2="195.0" y2="26.99804" stroke='blue' stroke-width='0.05' tags='slant'/>
    <line x1="56.48045" y1="276.0" x2="195.0" y2="36.0771" stroke='blue' stroke-width='0.05' tags='slant'/>
    <line x1="61.72225" y1="276.0" x2="195.0" y2="45.15616" stroke='blue' stroke-width='0.05' tags='slant'/>
    <line x1="66.96405" y1="276.0" x2="195.0" y2="54.23522" stroke='blue' stroke-width='0.05' tags='slant'/>
    <line x1="72.20584" y1="276.0" x2="195.0" y2="63.31428" stroke='blue' stroke-width='0.05' tags='slant'/>
    <line x1="77.44764" y1="276.0" x2="195.0" y2="72.39335" stroke='blue' stroke-width='0.05' tags='slant'/>
    <line x1="82.68944" y1="276.0" x2="195.0" y2="81.47241" stroke='blue' stroke-width='0.05' tags='slant'/>
    <line x1="87.93124" y1="276.0" x2="195.0" y2="90.55147" stroke='blue' stroke-width='0.05' tags='slant'/>
    <line x1="93.17304" y1="276.0" x2="195.0" y2="99.63053" stroke='blue' stroke-width='0.05' tags='slant'/>
    <line x1="98.41484" y1="276.0" x2="195.0" y2="108.7096" stroke='blue' stroke-width='0.05' tags='slant'/>
    <line x1="103.65664" y1="276.0" x2="195.0" y2="117.78866" stroke='blue' stroke-width='0.05' tags='slant'/>
    <line x1="108.89844" y1="276.0" x2="195.0" y2="126.86772" stroke='blue' stroke-width='0.05' tags='slant'/>
    <line x1="114.14024" y1="276.0" x2="195.0" y2="135.94678" stroke='blue' stroke-width='0.05' tags='slant'/>
    <line x1="119.38204" y1="276.0" x2="195.0" y2="145.02585" stroke='blue' stroke-width='0.05' tags='slant'/>
    <line x1="124.62384" y1="276.0" x2="195.0" y2="154.10491" stroke='blue' stroke-width='0.05' tags='slant'/>
    <line x1="129.86563" y1="276.0" x2="195.0" y2="163.18397" stroke='blue' stroke-width='0.05' tags='slant'/>
    <line x1="135.10743" y1="276.0" x2="195.0" y2="172.26303" stroke='blue' stroke-width='0.05' tags='slant'/>
    <line x1="140.34923" y1="276.0" x2="195.0" y2="181.34209" stroke='blue' stroke-width='0.05' tags='slant'/>
    <line x1="145.59103" y1="276.0" x2="195.0" y2="190.42116" stroke='blue' stroke-width='0.05' tags='slant'/>
    <line x1="150.83283" y1="276.0" x2="195.0" y2="199.50022" stroke='blue' stroke-width='0.05' tags='slant'/>
    <line x1="156.07463" y1="276.0" x2="195.0" y2="208.57928" stroke='blue' stroke-width='0.05' tags='slant'/>
    <line x1="161.31643" y1="276.0" x2="195.0" y2="217.65834" stroke='blue' stroke-width='0.05' tags='slant'/>
    <line x1="166.55823" y1="276.0" x2="195.0" y2="226.73741" stroke='blue' stroke-width='0.05' tags='slant'/>
    <line x1="171.80003" y1="276.0" x2="195.0" y2="235.81647" stroke='blue' stroke-width='0.05' tags='slant'/>
    <line x1="177.04183" y1="276.0" x2="195.0" y2="244.89553" stroke='blue' stroke-width='0.05' tags='slant'/>
    <line x1="182.28363" y1="276.0" x2="195.0" y2="253.97459" stroke='blue' stroke-width='0.05' tags='slant'/>
    <line x1="187.52542" y1="276.0" x2="195.0" y2="263.05366" stroke='blue' stroke-width='0.05' tags='slant'/>
    <line x1="192.76722" y1="276.0" x2="195.0" y2="272.13272" stroke='blue' stroke-width='0.05' tags='slant'/>
  </g>
</svg>
