<?xml version="1.0" standalone="no"?>
<!DOCTYPE svg PUBLIC "-//W3C//DTD SVG 1.1//EN" "http://www.w3.org/Graphics/SVG/1.1/DTD/svg11.dtd">
<svg xmlns="http://www.w3.org/2000/svg" width="148.5mm" height="210.0mm" viewBox="0 0 148.5 210.0" >

  <g id="sheet">
    <line x1="14.25" y1="30.0" x2="134.25" y2="30.0" stroke='blue' stroke-width='0.2' tags='ascender'/>
    <line x1="14.25" y1="40.0" x2="134.25" y2="40.0" stroke='grey' stroke-width='0.1' stroke-dasharray='2, 2' tags='waist'/>
    <line x1="14.25" y1="50.0" x2="134.25" y2="50.0" stroke='red' stroke-width='0.1' stroke-dasharray='2, 2' tags='base'/>
    <line x1="14.25" y1="60.0" x2="134.25" y2="60.0" stroke='blue' stroke-width='0.2' tags='descender'/>
    <line x1="14.25" y1="70.0" x2="134.25" y2="70.0" stroke='grey' stroke-width='0.1' stroke-dasharray='2, 2' tags='waist'/>
    <line x1="14.25" y1="80.0" x2="134.25" y2="80.0" stroke='red' stroke-width='0.1' stroke-dasharray='2, 2' tags='base'/>
    <line x1="14.25" y1="90.0" x2="134.25" y2="90.0" stroke='blue' stroke-width='0.2' tags='descender'/>
    <line x1="14.25" y1="100.0" x2="134.25" y2="100.0" stroke='grey' stroke-width='0.1' stroke-dasharray='2, 2' tags='waist'/>
    <line x1="14.25" y1="110.0" x2="134.25" y2="110.0" stroke='red' stroke-width='0.1' stroke-dasharray='2, 2' tags='base'/>
    <line x1="14.25" y1="120.0" x2="134.25" y2="120.0" stroke='blue' stroke-width='0.2' tags='descender'/>
    <line x1="14.25" y1="130.0" x2="134.25" y2="130.0" stroke='grey' stroke-width='0.1' stroke-dasharray='2, 2' tags='waist'/>
    <line x1="14.25" y1="140.0" x2="134.25" y2="140.0" stroke='red' stroke-width='0.1' stroke-dasharray='2, 2' tags='base'/>
    <line x1="14.25" y1="150.0" x2="134.25" y2="150.0" stroke='blue' stroke-width='0.2' tags='descender'/>
    <line x1="14.25" y1="160.0" x2="134.25" y2="160.0" stroke='grey' stroke-width='0.1' stroke-dasharray='2, 2' tags='waist'/>
    <line x1="14.25" y1="170.0" x2="134.25" y2="170.0" stroke='red' stroke-width='0.1' stroke-dasharray='2, 2' tags='base'/>
    <line x1="14.25" y1="180.0" x2="134.25" y2="180.0" stroke='blue' stroke-width='0.2' tags='descender'/>
    <line x1="14.25" y1="30.0" x2="14.25" y2="30.0" stroke='blue' stroke-width='0.05' tags='slant'/>
    <line x1="14.25" y1="48.62872" x2="25.0053" y2="30.0" stroke='blue' stroke-width='0.05' tags='slant'/>
    <line x1="14.25" y1="67.25745" x2="35.7606" y2="30.0" stroke='blue' stroke-width='0.05' tags='slant'/>
    <line x1="14.25" y1="85.88617" x2="46.5159" y2="30.0" stroke='blue' stroke-width='0.05' tags='slant'/>
    <line x1="14.25" y1="104.51489" x2="57.27119" y2="30.0" stroke='blue' stroke-width='0.05' tags='slant'/>
    <line x1="14.25" y1="123.14362" x2="68.02649" y2="30.0" stroke='blue' stroke-width='0.05' tags='slant'/>
    <line x1="14.25" y1="141.77234" x2="78.78179" y2="30.0" stroke='blue' stroke-width='0.05' tags='slant'/>
    <line x1="14.25" y1="160.40107" x2="89.53709" y2="30.0" stroke='blue' stroke-width='0.05' tags='slant'/>
    <line x1="14.25" y1="179.02979" x2="100.29239" y2="30.0" stroke='blue' stroke-width='0.05' tags='slant'/>
    <line x1="24.44515" y1="180.0" x2="111.04769" y2="30.0" stroke='blue' stroke-width='0.05' tags='slant'/>
    <line x1="35.20045" y1="180.0" x2="121.80299" y2="30.0" stroke='blue' stroke-width='0.05' tags='slant'/>
    <line x1="45.95574" y1="180.0" x2="132.55829" y2="30.0" stroke='blue' stroke-width='0.05' tags='slant'/>
    <line x1="56.71104" y1="180.0" x2="134.25" y2="45.69859" stroke='blue' stroke-width='0.05' tags='slant'/>
    <line x1="67.46634" y1="180.0" x2="134.25" y2="64.32731" stroke='blue' stroke-width='0.05' tags='slant'/>
    <line x1="78.22164" y1="180.0" x2="134.25" y2="82.95604" stroke='blue' stroke-width='0.05' tags='slant'/>
    <line x1="88.97694" y1="180.0" x2="134.25" y2="101.58476" stroke='blue' stroke-width='0.05' tags='slant'/>
    <line x1="99.73224" y1="180.0" x2="134.25" y2="120.21348" stroke='blue' stroke-width='0.05' tags='slant'/>
    <line x1="110.48754" y1="180.0" x2="134.25" y2="138.84221" stroke='blue' stroke-width='0.05' tags='slant'/>
    <line x1="121.24284" y1="180.0" x2="134.25" y2="157.47093" stroke='blue' stroke-width='0.05' tags='slant'/>
    <line x1="131.99813" y1="180.0" x2="134.25" y2="176.09965" stroke='blue' stroke-width='0.05' tags='slant'/>
  </g>
</svg>
