<?xml version="1.0" standalone="no"?>
<!DOCTYPE svg PUBLIC "-//W3C//DTD SVG 1.1//EN" "http://www.w3.org/Graphics/SVG/1.1/DTD/svg11.dtd">
<svg xmlns="http://www.w3.org/2000/svg" width="148.5mm" height="210.0mm" viewBox="0 0 148.5 210.0" >

  <g id="sheet">
    <line x1="14.25" y1="22.5" x2="134.25" y2="22.5" stroke='blue' stroke-width='0.2' tags='ascender'/>
    <line x1="14.25" y1="27.5" x2="134.25" y2="27.5" stroke='grey' stroke-width='0.1' stroke-dasharray='2, 2' tags='waist'/>
    <line x1="14.25" y1="32.5" x2="134.25" y2="32.5" stroke='red' stroke-width='0.1' stroke-dasharray='2, 2' tags='base'/>
    <line x1="14.25" y1="37.5" x2="134.25" y2="37.5" stroke='blue' stroke-width='0.2' tags='descender'/>
    <line x1="14.25" y1="42.5" x2="134.25" y2="42.5" stroke='grey' stroke-width='0.1' stroke-dasharray='2, 2' tags='waist'/>
    <line x1="14.25" y1="47.5" x2="134.25" y2="47.5" stroke='red' stroke-width='0.1' stroke-dasharray='2, 2' tags='base'/>
    <line x1="14.25" y1="52.5" x2="134.25" y2="52.5" stroke='blue' stroke-width='0.2' tags='descender'/>
    <line x1="14.25" y1="57.5" x2="134.25" y2="57.5" stroke='grey' stroke-width='0.1' stroke-dasharray='2, 2' tags='waist'/>
    <line x1="14.25" y1="62.5" x2="134.25" y2="62.5" stroke='red' stroke-width='0.1' stroke-dasharray='2, 2' tags='base'/>
    <line x1="14.25" y1="67.5" x2="134.25" y2="67.5" stroke='blue' stroke-width='0.2' tags='descender'/>
    <line x1="14.25" y1="72.5" x2="134.25" y2="72.5" stroke='grey' stroke-width='0.1' stroke-dasharray='2, 2' tags='waist'/>
    <line x1="14.25" y1="77.5" x2="134.25" y2="77.5" stroke='red' stroke-width='0.1' stroke-dasharray='2, 2' tags='base'/>
    <line x1="14.25" y1="82.5" x2="134.25" y2="82.5" stroke='blue' stroke-width='0.2' tags='descender'/>
    <line x1="14.25" y1="87.5" x2="134.25" y2="87.5" stroke='grey' stroke-width='0.1' stroke-dasharray='2, 2' tags='waist'/>
    <line x1="14.25" y1="92.5" x2="134.25" y2="92.5" stroke='red' stroke-width='0.1' stroke-dasharray='2, 2' tags='base'/>
    <line x1="14.25" y1="97.5" x2="134.25" y2="97.5" stroke='blue' stroke-width='0.2' tags='descender'/>
    <line x1="14.25" y1="102.5" x2="134.25" y2="102.5" stroke='grey' stroke-width='0.1' stroke-dasharray='2, 2' tags='waist'/>
    <line x1="14.25" y1="107.5" x2="134.25" y2="107.5" stroke='red' stroke-width='0.1' stroke-dasharray='2, 2' tags='base'/>
    <line x1="14.25" y1="112.5" x2="134.25" y2="112.5" stroke='blue' stroke-width='0.2' tags='descender'/>
    <line x1="14.25" y1="117.5" x2="134.25" y2="117.5" stroke='grey' stroke-width='0.1' stroke-dasharray='2, 2' tags='waist'/>
    <line x1="14.25" y1="122.5" x2="134.25" y2="122.5" stroke='red' stroke-width='0.1' stroke-dasharray='2, 2' tags='base'/>
    <line x1="14.25" y1="127.5" x2="134.25" y2="127.5" stroke='blue' stroke-width='0.2' tags='descender'/>
    <line x1="14.25" y1="132.5" x2="134.25" y2="132.5" stroke='grey' stroke-width='0.1' stroke-dasharray='2, 2' tags='waist'/>
    <line x1="14.25" y1="137.5" x2="134.25" y2="137.5" stroke='red' stroke-width='0.1' stroke-dasharray='2, 2' tags='base'/>
    <line x1="14.25" y1="142.5" x2="134.25" y2="142.5" stroke='blue' stroke-width='0.2' tags='descender'/>
    <line x1="14.25" y1="147.5" x2="134.25" y2="147.5" stroke='grey' stroke-width='0.1' stroke-dasharray='2, 2' tags='waist'/>
    <line x1="14.25" y1="152.5" x2="134.25" y2="152.5" stroke='red' stroke-width='0.1' stroke-dasharray='2, 2' tags='base'/>
    <line x1="14.25" y1="157.5" x2="134.25" y2="157.5" stroke='blue' stroke-width='0.2' tags='descender'/>
    <line x1="14.25" y1="162.5" x2="134.25" y2="162.5" stroke='grey' stroke-width='0.1' stroke-dasharray='2, 2' tags='waist'/>
    <line x1="14.25" y1="167.5" x2="134.25" y2="167.5" stroke='red' stroke-width='0.1' stroke-dasharray='2, 2' tags='base'/>
    <line x1="14.25" y1="172.5" x2="134.25" y2="172.5" stroke='blue' stroke-width='0.2' tags='descender'/>
    <line x1="14.25" y1="177.5" x2="134.25" y2="177.5" stroke='grey' stroke-width='0.1' stroke-dasharray='2, 2' tags='waist'/>
    <line x1="14.25" y1="182.5" x2="134.25" y2="182.5" stroke='red' stroke-width='0.1' stroke-dasharray='2, 2' tags='base'/>
    <line x1="14.25" y1="187.5" x2="134.25" y2="187.5" stroke='blue' stroke-width='0.2' tags='descender'/>
    <line x1="14.25" y1="22.5" x2="14.25" y2="22.5" stroke='blue' stroke-width='0.05' tags='slant'/>
    <line x1="14.25" y1="45.11153" x2="17.83131" y2="22.5" stroke='blue' stroke-width='0.05' tags='slant'/>
    <line x1="14.25" y1="67.72306" x2="21.41263" y2="22.5" stroke='blue' stroke-width='0.05' tags='slant'/>
    <line x1="14.25" y1="90.33459" x2="24.99394" y2="22.5" stroke='blue' stroke-width='0.05' tags='slant'/>
    <line x1="14.25" y1="112.94612" x2="28.57526" y2="22.5" stroke='blue' stroke-width='0.05' tags='slant'/>
    <line x1="14.25" y1="135.55765" x2="32.15657" y2="22.5" stroke='blue' stroke-width='0.05' tags='slant'/>
    <line x1="14.25" y1="158.16918" x2="35.73789" y2="22.5" stroke='blue' stroke-width='0.05' tags='slant'/>
    <line x1="14.25" y1="180.78071" x2="39.3192" y2="22.5" stroke='blue' stroke-width='0.05' tags='slant'/>
    <line x1="16.76708" y1="187.5" x2="42.90052" y2="22.5" stroke='blue' stroke-width='0.05' tags='slant'/>
    <line x1="20.3484" y1="187.5" x2="46.48183" y2="22.5" stroke='blue' stroke-width='0.05' tags='slant'/>
    <line x1="23.92971" y1="187.5" x2="50.06315" y2="22.5" stroke='blue' stroke-width='0.05' tags='slant'/>
    <line x1="27.51103" y1="187.5" x2="53.64446" y2="22.5" stroke='blue' stroke-width='0.05' tags='slant'/>
    <line x1="31.09234" y1="187.5" x2="57.22577" y2="22.5" stroke='blue' stroke-width='0.05' tags='slant'/>
    <line x1="34.67366" y1="187.5" x2="60.80709" y2="22.5" stroke='blue' stroke-width='0.05' tags='slant'/>
    <line x1="38.25497" y1="187.5" x2="64.3884" y2="22.5" stroke='blue' stroke-width='0.05' tags='slant'/>
    <line x1="41.83629" y1="187.5" x2="67.96972" y2="22.5" stroke='blue' stroke-width='0.05' tags='slant'/>
    <line x1="45.4176" y1="187.5" x2="71.55103" y2="22.5" stroke='blue' stroke-width='0.05' tags='slant'/>
    <line x1="48.99891" y1="187.5" x2="75.13235" y2="22.5" stroke='blue' stroke-width='0.05' tags='slant'/>
    <line x1="52.58023" y1="187.5" x2="78.71366" y2="22.5" stroke='blue' stroke-width='0.05' tags='slant'/>
    <line x1="56.16154" y1="187.5" x2="82.29498" y2="22.5" stroke='blue' stroke-width='0.05' tags='slant'/>
    <line x1="59.74286" y1="187.5" x2="85.87629" y2="22.5" stroke='blue' stroke-width='0.05' tags='slant'/>
    <line x1="63.32417" y1="187.5" x2="89.45761" y2="22.5" stroke='blue' stroke-width='0.05' tags='slant'/>
    <line x1="66.90549" y1="187.5" x2="93.03892" y2="22.5" stroke='blue' stroke-width='0.05' tags='slant'/>
    <line x1="70.4868" y1="187.5" x2="96.62023" y2="22.5" stroke='blue' stroke-width='0.05' tags='slant'/>
    <line x1="74.06812" y1="187.5" x2="100.20155" y2="22.5" stroke='blue' stroke-width='0.05' tags='slant'/>
    <line x1="77.64943" y1="187.5" x2="103.78286" y2="22.5" stroke='blue' stroke-width='0.05' tags='slant'/>
    <line x1="81.23075" y1="187.5" x2="107.36418" y2="22.5" stroke='blue' stroke-width='0.05' tags='slant'/>
    <line x1="84.81206" y1="187.5" x2="110.94549" y2="22.5" stroke='blue' stroke-width='0.05' tags='slant'/>
    <line x1="88.39337" y1="187.5" x2="114.52681" y2="22.5" stroke='blue' stroke-width='0.05' tags='slant'/>
    <line x1="91.97469" y1="187.5" x2="118.10812" y2="22.5" stroke='blue' stroke-width='0.05' tags='slant'/>
    <line x1="95.556" y1="187.5" x2="121.68944" y2="22.5" stroke='blue' stroke-width='0.05' tags='slant'/>
    <line x1="99.13732" y1="187.5" x2="125.27075" y2="22.5" stroke='blue' stroke-width='0.05' tags='slant'/>
    <line x1="102.71863" y1="187.5" x2="128.85207" y2="22.5" stroke='blue' stroke-width='0.05' tags='slant'/>
    <line x1="106.29995" y1="187.5" x2="132.43338" y2="22.5" stroke='blue' stroke-width='0.05' tags='slant'/>
    <line x1="109.88126" y1="187.5" x2="134.25" y2="33.64184" stroke='blue' stroke-width='0.05' tags='slant'/>
    <line x1="113.46258" y1="187.5" x2="134.25" y2="56.25337" stroke='blue' stroke-width='0.05' tags='slant'/>
    <line x1="117.04389" y1="187.5" x2="134.25" y2="78.8649" stroke='blue' stroke-width='0.05' tags='slant'/>
    <line x1="120.62521" y1="187.5" x2="134.25" y2="101.47643" stroke='blue' stroke-width='0.05' tags='slant'/>
    <line x1="124.20652" y1="187.5" x2="134.25" y2="124.08796" stroke='blue' stroke-width='0.05' tags='slant'/>
    <line x1="127.78783" y1="187.5" x2="134.25" y2="146.69949" stroke='blue' stroke-width='0.05' tags='slant'/>
    <line x1="131.36915" y1="187.5" x2="134.25" y2="169.31102" stroke='blue' stroke-width='0.05' tags='slant'/>
  </g>
</svg>
