<?xml version="1.0" standalone="no"?>
<!DOCTYPE svg PUBLIC "-//W3C//DTD SVG 1.1//EN" "http://www.w3.org/Graphics/SVG/1.1/DTD/svg11.dtd">
<svg xmlns="http://www.w3.org/2000/svg" width="148.5mm" height="210.0mm" viewBox="0 0 148.5 210.0" shape-rendering="geometricPrecision" >
  <style>
    svg         { stroke:            #007f80; }
    svg         { stroke-width:          0.2; }
    .altcolor   { stroke:               blue; }
    .extrafine  { stroke-width:         0.05; }
    .fine       { stroke-width:          0.1; }
    .medium     { stroke-width:          0.2; }
    .broad      { stroke-width:          0.4; }
    .extrabroad { stroke-width:          0.8; }
    .dashed     { stroke-dasharray:      2 2; }
  </style>
  <g id="sheet">
    <line x1="8.25" y1="10.0" x2="140.25" y2="10.0" class='hline'/>
    <line x1="8.25" y1="29.0" x2="140.25" y2="29.0" class='hline'/>
    <line x1="8.25" y1="48.0" x2="140.25" y2="48.0" class='hline'/>
    <line x1="8.25" y1="67.0" x2="140.25" y2="67.0" class='hline'/>
    <line x1="8.25" y1="86.0" x2="140.25" y2="86.0" class='hline'/>
    <line x1="8.25" y1="105.0" x2="140.25" y2="105.0" class='hline'/>
    <line x1="8.25" y1="124.0" x2="140.25" y2="124.0" class='hline'/>
    <line x1="8.25" y1="143.0" x2="140.25" y2="143.0" class='hline'/>
    <line x1="8.25" y1="162.0" x2="140.25" y2="162.0" class='hline'/>
    <line x1="8.25" y1="181.0" x2="140.25" y2="181.0" class='hline'/>
    <line x1="8.25" y1="200.0" x2="140.25" y2="200.0" class='hline'/>
    <line x1="8.25" y1="10.0" x2="8.25" y2="200.0" class='vline'/>
    <line x1="41.25" y1="10.0" x2="41.25" y2="200.0" class='vline'/>
    <line x1="74.25" y1="10.0" x2="74.25" y2="200.0" class='vline'/>
    <line x1="107.25" y1="10.0" x2="107.25" y2="200.0" class='vline'/>
    <line x1="140.25" y1="10.0" x2="140.25" y2="200.0" class='vline'/>
    <line x1="8.25" y1="19.5" x2="140.25" y2="19.5" class='half dashed fine'/>
    <line x1="8.25" y1="38.5" x2="140.25" y2="38.5" class='half dashed fine'/>
    <line x1="8.25" y1="57.5" x2="140.25" y2="57.5" class='half dashed fine'/>
    <line x1="8.25" y1="76.5" x2="140.25" y2="76.5" class='half dashed fine'/>
    <line x1="8.25" y1="95.5" x2="140.25" y2="95.5" class='half dashed fine'/>
    <line x1="8.25" y1="114.5" x2="140.25" y2="114.5" class='half dashed fine'/>
    <line x1="8.25" y1="133.5" x2="140.25" y2="133.5" class='half dashed fine'/>
    <line x1="8.25" y1="152.5" x2="140.25" y2="152.5" class='half dashed fine'/>
    <line x1="8.25" y1="171.5" x2="140.25" y2="171.5" class='half dashed fine'/>
    <line x1="8.25" y1="190.5" x2="140.25" y2="190.5" class='half dashed fine'/>
  </g>
</svg>
