<?xml version="1.0" standalone="no"?>
<!DOCTYPE svg PUBLIC "-//W3C//DTD SVG 1.1//EN" "http://www.w3.org/Graphics/SVG/1.1/DTD/svg11.dtd">
<svg xmlns="http://www.w3.org/2000/svg" width="297.0mm" height="210.0mm" viewBox="0 0 297.0 210.0" shape-rendering="geometricPrecision" >
  <style>
    svg         { stroke:            #ed008c; }
    svg         { stroke-width:         0.04; }
    .altcolor   { stroke:               blue; }
    .extrafine  { stroke-width:         0.01; }
    .fine       { stroke-width:         0.02; }
    .medium     { stroke-width:         0.04; }
    .broad      { stroke-width:         0.08; }
    .extrabroad { stroke-width:         0.16; }
    .dashed     { stroke-dasharray:      2 2; }
  </style>
  <g id="sheet">
    <line x1="8.5" y1="25.0" x2="288.5" y2="25.0" class='hline'/>
    <line x1="8.5" y1="30.0" x2="288.5" y2="30.0" class='hline'/>
    <line x1="8.5" y1="35.0" x2="288.5" y2="35.0" class='hline'/>
    <line x1="8.5" y1="40.0" x2="288.5" y2="40.0" class='hline'/>
    <line x1="8.5" y1="45.0" x2="288.5" y2="45.0" class='hline'/>
    <line x1="8.5" y1="50.0" x2="288.5" y2="50.0" class='hline'/>
    <line x1="8.5" y1="55.0" x2="288.5" y2="55.0" class='hline'/>
    <line x1="8.5" y1="60.0" x2="288.5" y2="60.0" class='hline'/>
    <line x1="8.5" y1="65.0" x2="288.5" y2="65.0" class='hline'/>
    <line x1="8.5" y1="70.0" x2="288.5" y2="70.0" class='hline'/>
    <line x1="8.5" y1="75.0" x2="288.5" y2="75.0" class='hline'/>
    <line x1="8.5" y1="80.0" x2="288.5" y2="80.0" class='hline'/>
    <line x1="8.5" y1="85.0" x2="288.5" y2="85.0" class='hline'/>
    <line x1="8.5" y1="90.0" x2="288.5" y2="90.0" class='hline'/>
    <line x1="8.5" y1="95.0" x2="288.5" y2="95.0" class='hline'/>
    <line x1="8.5" y1="100.0" x2="288.5" y2="100.0" class='hline'/>
    <line x1="8.5" y1="105.0" x2="288.5" y2="105.0" class='hline'/>
    <line x1="8.5" y1="110.0" x2="288.5" y2="110.0" class='hline'/>
    <line x1="8.5" y1="115.0" x2="288.5" y2="115.0" class='hline'/>
    <line x1="8.5" y1="120.0" x2="288.5" y2="120.0" class='hline'/>
    <line x1="8.5" y1="125.0" x2="288.5" y2="125.0" class='hline'/>
    <line x1="8.5" y1="130.0" x2="288.5" y2="130.0" class='hline'/>
    <line x1="8.5" y1="135.0" x2="288.5" y2="135.0" class='hline'/>
    <line x1="8.5" y1="140.0" x2="288.5" y2="140.0" class='hline'/>
    <line x1="8.5" y1="145.0" x2="288.5" y2="145.0" class='hline'/>
    <line x1="8.5" y1="150.0" x2="288.5" y2="150.0" class='hline'/>
    <line x1="8.5" y1="155.0" x2="288.5" y2="155.0" class='hline'/>
    <line x1="8.5" y1="160.0" x2="288.5" y2="160.0" class='hline'/>
    <line x1="8.5" y1="165.0" x2="288.5" y2="165.0" class='hline'/>
    <line x1="8.5" y1="170.0" x2="288.5" y2="170.0" class='hline'/>
    <line x1="8.5" y1="175.0" x2="288.5" y2="175.0" class='hline'/>
    <line x1="8.5" y1="180.0" x2="288.5" y2="180.0" class='hline'/>
    <line x1="8.5" y1="185.0" x2="288.5" y2="185.0" class='hline'/>
    <line x1="8.5" y1="25.0" x2="8.5" y2="185.0" class='vline'/>
    <line x1="13.5" y1="25.0" x2="13.5" y2="185.0" class='vline'/>
    <line x1="18.5" y1="25.0" x2="18.5" y2="185.0" class='vline'/>
    <line x1="23.5" y1="25.0" x2="23.5" y2="185.0" class='vline'/>
    <line x1="28.5" y1="25.0" x2="28.5" y2="185.0" class='vline'/>
    <line x1="33.5" y1="25.0" x2="33.5" y2="185.0" class='vline'/>
    <line x1="38.5" y1="25.0" x2="38.5" y2="185.0" class='vline'/>
    <line x1="43.5" y1="25.0" x2="43.5" y2="185.0" class='vline'/>
    <line x1="48.5" y1="25.0" x2="48.5" y2="185.0" class='vline'/>
    <line x1="53.5" y1="25.0" x2="53.5" y2="185.0" class='vline'/>
    <line x1="58.5" y1="25.0" x2="58.5" y2="185.0" class='vline'/>
    <line x1="63.5" y1="25.0" x2="63.5" y2="185.0" class='vline'/>
    <line x1="68.5" y1="25.0" x2="68.5" y2="185.0" class='vline'/>
    <line x1="73.5" y1="25.0" x2="73.5" y2="185.0" class='vline'/>
    <line x1="78.5" y1="25.0" x2="78.5" y2="185.0" class='vline'/>
    <line x1="83.5" y1="25.0" x2="83.5" y2="185.0" class='vline'/>
    <line x1="88.5" y1="25.0" x2="88.5" y2="185.0" class='vline'/>
    <line x1="93.5" y1="25.0" x2="93.5" y2="185.0" class='vline'/>
    <line x1="98.5" y1="25.0" x2="98.5" y2="185.0" class='vline'/>
    <line x1="103.5" y1="25.0" x2="103.5" y2="185.0" class='vline'/>
    <line x1="108.5" y1="25.0" x2="108.5" y2="185.0" class='vline'/>
    <line x1="113.5" y1="25.0" x2="113.5" y2="185.0" class='vline'/>
    <line x1="118.5" y1="25.0" x2="118.5" y2="185.0" class='vline'/>
    <line x1="123.5" y1="25.0" x2="123.5" y2="185.0" class='vline'/>
    <line x1="128.5" y1="25.0" x2="128.5" y2="185.0" class='vline'/>
    <line x1="133.5" y1="25.0" x2="133.5" y2="185.0" class='vline'/>
    <line x1="138.5" y1="25.0" x2="138.5" y2="185.0" class='vline'/>
    <line x1="143.5" y1="25.0" x2="143.5" y2="185.0" class='vline'/>
    <line x1="148.5" y1="25.0" x2="148.5" y2="185.0" class='vline'/>
    <line x1="153.5" y1="25.0" x2="153.5" y2="185.0" class='vline'/>
    <line x1="158.5" y1="25.0" x2="158.5" y2="185.0" class='vline'/>
    <line x1="163.5" y1="25.0" x2="163.5" y2="185.0" class='vline'/>
    <line x1="168.5" y1="25.0" x2="168.5" y2="185.0" class='vline'/>
    <line x1="173.5" y1="25.0" x2="173.5" y2="185.0" class='vline'/>
    <line x1="178.5" y1="25.0" x2="178.5" y2="185.0" class='vline'/>
    <line x1="183.5" y1="25.0" x2="183.5" y2="185.0" class='vline'/>
    <line x1="188.5" y1="25.0" x2="188.5" y2="185.0" class='vline'/>
    <line x1="193.5" y1="25.0" x2="193.5" y2="185.0" class='vline'/>
    <line x1="198.5" y1="25.0" x2="198.5" y2="185.0" class='vline'/>
    <line x1="203.5" y1="25.0" x2="203.5" y2="185.0" class='vline'/>
    <line x1="208.5" y1="25.0" x2="208.5" y2="185.0" class='vline'/>
    <line x1="213.5" y1="25.0" x2="213.5" y2="185.0" class='vline'/>
    <line x1="218.5" y1="25.0" x2="218.5" y2="185.0" class='vline'/>
    <line x1="223.5" y1="25.0" x2="223.5" y2="185.0" class='vline'/>
    <line x1="228.5" y1="25.0" x2="228.5" y2="185.0" class='vline'/>
    <line x1="233.5" y1="25.0" x2="233.5" y2="185.0" class='vline'/>
    <line x1="238.5" y1="25.0" x2="238.5" y2="185.0" class='vline'/>
    <line x1="243.5" y1="25.0" x2="243.5" y2="185.0" class='vline'/>
    <line x1="248.5" y1="25.0" x2="248.5" y2="185.0" class='vline'/>
    <line x1="253.5" y1="25.0" x2="253.5" y2="185.0" class='vline'/>
    <line x1="258.5" y1="25.0" x2="258.5" y2="185.0" class='vline'/>
    <line x1="263.5" y1="25.0" x2="263.5" y2="185.0" class='vline'/>
    <line x1="268.5" y1="25.0" x2="268.5" y2="185.0" class='vline'/>
    <line x1="273.5" y1="25.0" x2="273.5" y2="185.0" class='vline'/>
    <line x1="278.5" y1="25.0" x2="278.5" y2="185.0" class='vline'/>
    <line x1="283.5" y1="25.0" x2="283.5" y2="185.0" class='vline'/>
    <line x1="288.5" y1="25.0" x2="288.5" y2="185.0" class='vline'/>
    <line x1="8.5" y1="25.0" x2="8.5" y2="25.0" class='slant fine'/>
    <line x1="8.5" y1="33.0372" x2="14.77935" y2="25.0" class='slant fine'/>
    <line x1="8.5" y1="41.07439" x2="21.05869" y2="25.0" class='slant fine'/>
    <line x1="8.5" y1="49.11159" x2="27.33804" y2="25.0" class='slant fine'/>
    <line x1="8.5" y1="57.14879" x2="33.61739" y2="25.0" class='slant fine'/>
    <line x1="8.5" y1="65.18599" x2="39.89673" y2="25.0" class='slant fine'/>
    <line x1="8.5" y1="73.22318" x2="46.17608" y2="25.0" class='slant fine'/>
    <line x1="8.5" y1="81.26038" x2="52.45543" y2="25.0" class='slant fine'/>
    <line x1="8.5" y1="89.29758" x2="58.73477" y2="25.0" class='slant fine'/>
    <line x1="8.5" y1="97.33478" x2="65.01412" y2="25.0" class='slant fine'/>
    <line x1="8.5" y1="105.37197" x2="71.29347" y2="25.0" class='slant fine'/>
    <line x1="8.5" y1="113.40917" x2="77.57281" y2="25.0" class='slant fine'/>
    <line x1="8.5" y1="121.44637" x2="83.85216" y2="25.0" class='slant fine'/>
    <line x1="8.5" y1="129.48357" x2="90.13151" y2="25.0" class='slant fine'/>
    <line x1="8.5" y1="137.52076" x2="96.41086" y2="25.0" class='slant fine'/>
    <line x1="8.5" y1="145.55796" x2="102.6902" y2="25.0" class='slant fine'/>
    <line x1="8.5" y1="153.59516" x2="108.96955" y2="25.0" class='slant fine'/>
    <line x1="8.5" y1="161.63236" x2="115.2489" y2="25.0" class='slant fine'/>
    <line x1="8.5" y1="169.66955" x2="121.52824" y2="25.0" class='slant fine'/>
    <line x1="8.5" y1="177.70675" x2="127.80759" y2="25.0" class='slant fine'/>
    <line x1="9.08124" y1="185.0" x2="134.08694" y2="25.0" class='slant fine'/>
    <line x1="15.36058" y1="185.0" x2="140.36628" y2="25.0" class='slant fine'/>
    <line x1="21.63993" y1="185.0" x2="146.64563" y2="25.0" class='slant fine'/>
    <line x1="27.91928" y1="185.0" x2="152.92498" y2="25.0" class='slant fine'/>
    <line x1="34.19862" y1="185.0" x2="159.20432" y2="25.0" class='slant fine'/>
    <line x1="40.47797" y1="185.0" x2="165.48367" y2="25.0" class='slant fine'/>
    <line x1="46.75732" y1="185.0" x2="171.76302" y2="25.0" class='slant fine'/>
    <line x1="53.03666" y1="185.0" x2="178.04236" y2="25.0" class='slant fine'/>
    <line x1="59.31601" y1="185.0" x2="184.32171" y2="25.0" class='slant fine'/>
    <line x1="65.59536" y1="185.0" x2="190.60106" y2="25.0" class='slant fine'/>
    <line x1="71.8747" y1="185.0" x2="196.8804" y2="25.0" class='slant fine'/>
    <line x1="78.15405" y1="185.0" x2="203.15975" y2="25.0" class='slant fine'/>
    <line x1="84.4334" y1="185.0" x2="209.4391" y2="25.0" class='slant fine'/>
    <line x1="90.71274" y1="185.0" x2="215.71844" y2="25.0" class='slant fine'/>
    <line x1="96.99209" y1="185.0" x2="221.99779" y2="25.0" class='slant fine'/>
    <line x1="103.27144" y1="185.0" x2="228.27714" y2="25.0" class='slant fine'/>
    <line x1="109.55079" y1="185.0" x2="234.55649" y2="25.0" class='slant fine'/>
    <line x1="115.83013" y1="185.0" x2="240.83583" y2="25.0" class='slant fine'/>
    <line x1="122.10948" y1="185.0" x2="247.11518" y2="25.0" class='slant fine'/>
    <line x1="128.38883" y1="185.0" x2="253.39453" y2="25.0" class='slant fine'/>
    <line x1="134.66817" y1="185.0" x2="259.67387" y2="25.0" class='slant fine'/>
    <line x1="140.94752" y1="185.0" x2="265.95322" y2="25.0" class='slant fine'/>
    <line x1="147.22687" y1="185.0" x2="272.23257" y2="25.0" class='slant fine'/>
    <line x1="153.50621" y1="185.0" x2="278.51191" y2="25.0" class='slant fine'/>
    <line x1="159.78556" y1="185.0" x2="284.79126" y2="25.0" class='slant fine'/>
    <line x1="166.06491" y1="185.0" x2="288.5" y2="28.29023" class='slant fine'/>
    <line x1="172.34425" y1="185.0" x2="288.5" y2="36.32742" class='slant fine'/>
    <line x1="178.6236" y1="185.0" x2="288.5" y2="44.36462" class='slant fine'/>
    <line x1="184.90295" y1="185.0" x2="288.5" y2="52.40182" class='slant fine'/>
    <line x1="191.18229" y1="185.0" x2="288.5" y2="60.43902" class='slant fine'/>
    <line x1="197.46164" y1="185.0" x2="288.5" y2="68.47621" class='slant fine'/>
    <line x1="203.74099" y1="185.0" x2="288.5" y2="76.51341" class='slant fine'/>
    <line x1="210.02033" y1="185.0" x2="288.5" y2="84.55061" class='slant fine'/>
    <line x1="216.29968" y1="185.0" x2="288.5" y2="92.58781" class='slant fine'/>
    <line x1="222.57903" y1="185.0" x2="288.5" y2="100.625" class='slant fine'/>
    <line x1="228.85837" y1="185.0" x2="288.5" y2="108.6622" class='slant fine'/>
    <line x1="235.13772" y1="185.0" x2="288.5" y2="116.6994" class='slant fine'/>
    <line x1="241.41707" y1="185.0" x2="288.5" y2="124.7366" class='slant fine'/>
    <line x1="247.69642" y1="185.0" x2="288.5" y2="132.77379" class='slant fine'/>
    <line x1="253.97576" y1="185.0" x2="288.5" y2="140.81099" class='slant fine'/>
    <line x1="260.25511" y1="185.0" x2="288.5" y2="148.84819" class='slant fine'/>
    <line x1="266.53446" y1="185.0" x2="288.5" y2="156.88539" class='slant fine'/>
    <line x1="272.8138" y1="185.0" x2="288.5" y2="164.92258" class='slant fine'/>
    <line x1="279.09315" y1="185.0" x2="288.5" y2="172.95978" class='slant fine'/>
    <line x1="285.3725" y1="185.0" x2="288.5" y2="180.99698" class='slant fine'/>
    <line x1="8.5" y1="29.9871" x2="17.1379" y2="25.0" class='connective fine dashed'/>
    <line x1="8.5" y1="34.97419" x2="25.77581" y2="25.0" class='connective fine dashed'/>
    <line x1="8.5" y1="39.96129" x2="34.41371" y2="25.0" class='connective fine dashed'/>
    <line x1="8.5" y1="44.94839" x2="43.05162" y2="25.0" class='connective fine dashed'/>
    <line x1="8.5" y1="49.93548" x2="51.68952" y2="25.0" class='connective fine dashed'/>
    <line x1="8.5" y1="54.92258" x2="60.32743" y2="25.0" class='connective fine dashed'/>
    <line x1="8.5" y1="59.90968" x2="68.96533" y2="25.0" class='connective fine dashed'/>
    <line x1="8.5" y1="64.89677" x2="77.60324" y2="25.0" class='connective fine dashed'/>
    <line x1="8.5" y1="69.88387" x2="86.24114" y2="25.0" class='connective fine dashed'/>
    <line x1="8.5" y1="74.87097" x2="94.87905" y2="25.0" class='connective fine dashed'/>
    <line x1="8.5" y1="79.85806" x2="103.51695" y2="25.0" class='connective fine dashed'/>
    <line x1="8.5" y1="84.84516" x2="112.15486" y2="25.0" class='connective fine dashed'/>
    <line x1="8.5" y1="89.83226" x2="120.79276" y2="25.0" class='connective fine dashed'/>
    <line x1="8.5" y1="94.81935" x2="129.43067" y2="25.0" class='connective fine dashed'/>
    <line x1="8.5" y1="99.80645" x2="138.06857" y2="25.0" class='connective fine dashed'/>
    <line x1="8.5" y1="104.79355" x2="146.70648" y2="25.0" class='connective fine dashed'/>
    <line x1="8.5" y1="109.78064" x2="155.34438" y2="25.0" class='connective fine dashed'/>
    <line x1="8.5" y1="114.76774" x2="163.98229" y2="25.0" class='connective fine dashed'/>
    <line x1="8.5" y1="119.75484" x2="172.62019" y2="25.0" class='connective fine dashed'/>
    <line x1="8.5" y1="124.74194" x2="181.2581" y2="25.0" class='connective fine dashed'/>
    <line x1="8.5" y1="129.72903" x2="189.896" y2="25.0" class='connective fine dashed'/>
    <line x1="8.5" y1="134.71613" x2="198.53391" y2="25.0" class='connective fine dashed'/>
    <line x1="8.5" y1="139.70323" x2="207.17181" y2="25.0" class='connective fine dashed'/>
    <line x1="8.5" y1="144.69032" x2="215.80972" y2="25.0" class='connective fine dashed'/>
    <line x1="8.5" y1="149.67742" x2="224.44762" y2="25.0" class='connective fine dashed'/>
    <line x1="8.5" y1="154.66452" x2="233.08553" y2="25.0" class='connective fine dashed'/>
    <line x1="8.5" y1="159.65161" x2="241.72343" y2="25.0" class='connective fine dashed'/>
    <line x1="8.5" y1="164.63871" x2="250.36134" y2="25.0" class='connective fine dashed'/>
    <line x1="8.5" y1="169.62581" x2="258.99924" y2="25.0" class='connective fine dashed'/>
    <line x1="8.5" y1="174.6129" x2="267.63715" y2="25.0" class='connective fine dashed'/>
    <line x1="8.5" y1="179.6" x2="276.27505" y2="25.0" class='connective fine dashed'/>
    <line x1="8.5" y1="184.5871" x2="284.91296" y2="25.0" class='connective fine dashed'/>
    <line x1="16.42273" y1="185.0" x2="288.5" y2="27.91612" class='connective fine dashed'/>
    <line x1="25.06064" y1="185.0" x2="288.5" y2="32.90321" class='connective fine dashed'/>
    <line x1="33.69854" y1="185.0" x2="288.5" y2="37.89031" class='connective fine dashed'/>
    <line x1="42.33645" y1="185.0" x2="288.5" y2="42.87741" class='connective fine dashed'/>
    <line x1="50.97435" y1="185.0" x2="288.5" y2="47.8645" class='connective fine dashed'/>
    <line x1="59.61226" y1="185.0" x2="288.5" y2="52.8516" class='connective fine dashed'/>
    <line x1="68.25016" y1="185.0" x2="288.5" y2="57.8387" class='connective fine dashed'/>
    <line x1="76.88807" y1="185.0" x2="288.5" y2="62.82579" class='connective fine dashed'/>
    <line x1="85.52597" y1="185.0" x2="288.5" y2="67.81289" class='connective fine dashed'/>
    <line x1="94.16388" y1="185.0" x2="288.5" y2="72.79999" class='connective fine dashed'/>
    <line x1="102.80178" y1="185.0" x2="288.5" y2="77.78708" class='connective fine dashed'/>
    <line x1="111.43969" y1="185.0" x2="288.5" y2="82.77418" class='connective fine dashed'/>
    <line x1="120.07759" y1="185.0" x2="288.5" y2="87.76128" class='connective fine dashed'/>
    <line x1="128.7155" y1="185.0" x2="288.5" y2="92.74838" class='connective fine dashed'/>
    <line x1="137.3534" y1="185.0" x2="288.5" y2="97.73547" class='connective fine dashed'/>
    <line x1="145.99131" y1="185.0" x2="288.5" y2="102.72257" class='connective fine dashed'/>
    <line x1="154.62921" y1="185.0" x2="288.5" y2="107.70967" class='connective fine dashed'/>
    <line x1="163.26712" y1="185.0" x2="288.5" y2="112.69676" class='connective fine dashed'/>
    <line x1="171.90502" y1="185.0" x2="288.5" y2="117.68386" class='connective fine dashed'/>
    <line x1="180.54293" y1="185.0" x2="288.5" y2="122.67096" class='connective fine dashed'/>
    <line x1="189.18083" y1="185.0" x2="288.5" y2="127.65805" class='connective fine dashed'/>
    <line x1="197.81874" y1="185.0" x2="288.5" y2="132.64515" class='connective fine dashed'/>
    <line x1="206.45664" y1="185.0" x2="288.5" y2="137.63225" class='connective fine dashed'/>
    <line x1="215.09455" y1="185.0" x2="288.5" y2="142.61934" class='connective fine dashed'/>
    <line x1="223.73245" y1="185.0" x2="288.5" y2="147.60644" class='connective fine dashed'/>
    <line x1="232.37036" y1="185.0" x2="288.5" y2="152.59354" class='connective fine dashed'/>
    <line x1="241.00826" y1="185.0" x2="288.5" y2="157.58063" class='connective fine dashed'/>
    <line x1="249.64617" y1="185.0" x2="288.5" y2="162.56773" class='connective fine dashed'/>
    <line x1="258.28407" y1="185.0" x2="288.5" y2="167.55483" class='connective fine dashed'/>
    <line x1="266.92198" y1="185.0" x2="288.5" y2="172.54192" class='connective fine dashed'/>
    <line x1="275.55988" y1="185.0" x2="288.5" y2="177.52902" class='connective fine dashed'/>
    <line x1="284.19779" y1="185.0" x2="288.5" y2="182.51612" class='connective fine dashed'/>
    <rect width="40.0" height="40.0" x="8.5" y="25.0" fill='none' class='square extrabroad'/>
    <rect width="40.0" height="40.0" x="48.5" y="25.0" fill='none' class='square extrabroad'/>
    <rect width="40.0" height="40.0" x="88.5" y="25.0" fill='none' class='square extrabroad'/>
    <rect width="40.0" height="40.0" x="128.5" y="25.0" fill='none' class='square extrabroad'/>
    <rect width="40.0" height="40.0" x="168.5" y="25.0" fill='none' class='square extrabroad'/>
    <rect width="40.0" height="40.0" x="208.5" y="25.0" fill='none' class='square extrabroad'/>
    <rect width="40.0" height="40.0" x="248.5" y="25.0" fill='none' class='square extrabroad'/>
    <rect width="40.0" height="40.0" x="8.5" y="65.0" fill='none' class='square extrabroad'/>
    <rect width="40.0" height="40.0" x="48.5" y="65.0" fill='none' class='square extrabroad'/>
    <rect width="40.0" height="40.0" x="88.5" y="65.0" fill='none' class='square extrabroad'/>
    <rect width="40.0" height="40.0" x="128.5" y="65.0" fill='none' class='square extrabroad'/>
    <rect width="40.0" height="40.0" x="168.5" y="65.0" fill='none' class='square extrabroad'/>
    <rect width="40.0" height="40.0" x="208.5" y="65.0" fill='none' class='square extrabroad'/>
    <rect width="40.0" height="40.0" x="248.5" y="65.0" fill='none' class='square extrabroad'/>
    <rect width="40.0" height="40.0" x="8.5" y="105.0" fill='none' class='square extrabroad'/>
    <rect width="40.0" height="40.0" x="48.5" y="105.0" fill='none' class='square extrabroad'/>
    <rect width="40.0" height="40.0" x="88.5" y="105.0" fill='none' class='square extrabroad'/>
    <rect width="40.0" height="40.0" x="128.5" y="105.0" fill='none' class='square extrabroad'/>
    <rect width="40.0" height="40.0" x="168.5" y="105.0" fill='none' class='square extrabroad'/>
    <rect width="40.0" height="40.0" x="208.5" y="105.0" fill='none' class='square extrabroad'/>
    <rect width="40.0" height="40.0" x="248.5" y="105.0" fill='none' class='square extrabroad'/>
    <rect width="40.0" height="40.0" x="8.5" y="145.0" fill='none' class='square extrabroad'/>
    <rect width="40.0" height="40.0" x="48.5" y="145.0" fill='none' class='square extrabroad'/>
    <rect width="40.0" height="40.0" x="88.5" y="145.0" fill='none' class='square extrabroad'/>
    <rect width="40.0" height="40.0" x="128.5" y="145.0" fill='none' class='square extrabroad'/>
    <rect width="40.0" height="40.0" x="168.5" y="145.0" fill='none' class='square extrabroad'/>
    <rect width="40.0" height="40.0" x="208.5" y="145.0" fill='none' class='square extrabroad'/>
    <rect width="40.0" height="40.0" x="248.5" y="145.0" fill='none' class='square extrabroad'/>
  </g>
</svg>
