<?xml version="1.0" standalone="no"?>
<!DOCTYPE svg PUBLIC "-//W3C//DTD SVG 1.1//EN" "http://www.w3.org/Graphics/SVG/1.1/DTD/svg11.dtd">
<svg xmlns="http://www.w3.org/2000/svg" width="297.0mm" height="210.0mm" viewBox="0 0 297.0 210.0" >

  <g id="sheet">
    <line x1="13.5" y1="30.0" x2="283.5" y2="30.0" stroke='blue' stroke-width='0.1' tags='hline'/>
    <line x1="13.5" y1="35.0" x2="283.5" y2="35.0" stroke='blue' stroke-width='0.1' tags='hline'/>
    <line x1="13.5" y1="40.0" x2="283.5" y2="40.0" stroke='blue' stroke-width='0.1' tags='hline'/>
    <line x1="13.5" y1="45.0" x2="283.5" y2="45.0" stroke='blue' stroke-width='0.1' tags='hline'/>
    <line x1="13.5" y1="50.0" x2="283.5" y2="50.0" stroke='blue' stroke-width='0.1' tags='hline'/>
    <line x1="13.5" y1="55.0" x2="283.5" y2="55.0" stroke='blue' stroke-width='0.1' tags='hline'/>
    <line x1="13.5" y1="60.0" x2="283.5" y2="60.0" stroke='blue' stroke-width='0.1' tags='hline'/>
    <line x1="13.5" y1="65.0" x2="283.5" y2="65.0" stroke='blue' stroke-width='0.1' tags='hline'/>
    <line x1="13.5" y1="70.0" x2="283.5" y2="70.0" stroke='blue' stroke-width='0.1' tags='hline'/>
    <line x1="13.5" y1="75.0" x2="283.5" y2="75.0" stroke='blue' stroke-width='0.1' tags='hline'/>
    <line x1="13.5" y1="80.0" x2="283.5" y2="80.0" stroke='blue' stroke-width='0.1' tags='hline'/>
    <line x1="13.5" y1="85.0" x2="283.5" y2="85.0" stroke='blue' stroke-width='0.1' tags='hline'/>
    <line x1="13.5" y1="90.0" x2="283.5" y2="90.0" stroke='blue' stroke-width='0.1' tags='hline'/>
    <line x1="13.5" y1="95.0" x2="283.5" y2="95.0" stroke='blue' stroke-width='0.1' tags='hline'/>
    <line x1="13.5" y1="100.0" x2="283.5" y2="100.0" stroke='blue' stroke-width='0.1' tags='hline'/>
    <line x1="13.5" y1="105.0" x2="283.5" y2="105.0" stroke='blue' stroke-width='0.1' tags='hline'/>
    <line x1="13.5" y1="110.0" x2="283.5" y2="110.0" stroke='blue' stroke-width='0.1' tags='hline'/>
    <line x1="13.5" y1="115.0" x2="283.5" y2="115.0" stroke='blue' stroke-width='0.1' tags='hline'/>
    <line x1="13.5" y1="120.0" x2="283.5" y2="120.0" stroke='blue' stroke-width='0.1' tags='hline'/>
    <line x1="13.5" y1="125.0" x2="283.5" y2="125.0" stroke='blue' stroke-width='0.1' tags='hline'/>
    <line x1="13.5" y1="130.0" x2="283.5" y2="130.0" stroke='blue' stroke-width='0.1' tags='hline'/>
    <line x1="13.5" y1="135.0" x2="283.5" y2="135.0" stroke='blue' stroke-width='0.1' tags='hline'/>
    <line x1="13.5" y1="140.0" x2="283.5" y2="140.0" stroke='blue' stroke-width='0.1' tags='hline'/>
    <line x1="13.5" y1="145.0" x2="283.5" y2="145.0" stroke='blue' stroke-width='0.1' tags='hline'/>
    <line x1="13.5" y1="150.0" x2="283.5" y2="150.0" stroke='blue' stroke-width='0.1' tags='hline'/>
    <line x1="13.5" y1="155.0" x2="283.5" y2="155.0" stroke='blue' stroke-width='0.1' tags='hline'/>
    <line x1="13.5" y1="160.0" x2="283.5" y2="160.0" stroke='blue' stroke-width='0.1' tags='hline'/>
    <line x1="13.5" y1="165.0" x2="283.5" y2="165.0" stroke='blue' stroke-width='0.1' tags='hline'/>
    <line x1="13.5" y1="170.0" x2="283.5" y2="170.0" stroke='blue' stroke-width='0.1' tags='hline'/>
    <line x1="13.5" y1="175.0" x2="283.5" y2="175.0" stroke='blue' stroke-width='0.1' tags='hline'/>
    <line x1="13.5" y1="180.0" x2="283.5" y2="180.0" stroke='blue' stroke-width='0.1' tags='hline'/>
    <line x1="13.5" y1="30.0" x2="13.5" y2="180.0" stroke='blue' stroke-width='0.1' tags='vline'/>
    <line x1="18.5" y1="30.0" x2="18.5" y2="180.0" stroke='blue' stroke-width='0.1' tags='vline'/>
    <line x1="23.5" y1="30.0" x2="23.5" y2="180.0" stroke='blue' stroke-width='0.1' tags='vline'/>
    <line x1="28.5" y1="30.0" x2="28.5" y2="180.0" stroke='blue' stroke-width='0.1' tags='vline'/>
    <line x1="33.5" y1="30.0" x2="33.5" y2="180.0" stroke='blue' stroke-width='0.1' tags='vline'/>
    <line x1="38.5" y1="30.0" x2="38.5" y2="180.0" stroke='blue' stroke-width='0.1' tags='vline'/>
    <line x1="43.5" y1="30.0" x2="43.5" y2="180.0" stroke='blue' stroke-width='0.1' tags='vline'/>
    <line x1="48.5" y1="30.0" x2="48.5" y2="180.0" stroke='blue' stroke-width='0.1' tags='vline'/>
    <line x1="53.5" y1="30.0" x2="53.5" y2="180.0" stroke='blue' stroke-width='0.1' tags='vline'/>
    <line x1="58.5" y1="30.0" x2="58.5" y2="180.0" stroke='blue' stroke-width='0.1' tags='vline'/>
    <line x1="63.5" y1="30.0" x2="63.5" y2="180.0" stroke='blue' stroke-width='0.1' tags='vline'/>
    <line x1="68.5" y1="30.0" x2="68.5" y2="180.0" stroke='blue' stroke-width='0.1' tags='vline'/>
    <line x1="73.5" y1="30.0" x2="73.5" y2="180.0" stroke='blue' stroke-width='0.1' tags='vline'/>
    <line x1="78.5" y1="30.0" x2="78.5" y2="180.0" stroke='blue' stroke-width='0.1' tags='vline'/>
    <line x1="83.5" y1="30.0" x2="83.5" y2="180.0" stroke='blue' stroke-width='0.1' tags='vline'/>
    <line x1="88.5" y1="30.0" x2="88.5" y2="180.0" stroke='blue' stroke-width='0.1' tags='vline'/>
    <line x1="93.5" y1="30.0" x2="93.5" y2="180.0" stroke='blue' stroke-width='0.1' tags='vline'/>
    <line x1="98.5" y1="30.0" x2="98.5" y2="180.0" stroke='blue' stroke-width='0.1' tags='vline'/>
    <line x1="103.5" y1="30.0" x2="103.5" y2="180.0" stroke='blue' stroke-width='0.1' tags='vline'/>
    <line x1="108.5" y1="30.0" x2="108.5" y2="180.0" stroke='blue' stroke-width='0.1' tags='vline'/>
    <line x1="113.5" y1="30.0" x2="113.5" y2="180.0" stroke='blue' stroke-width='0.1' tags='vline'/>
    <line x1="118.5" y1="30.0" x2="118.5" y2="180.0" stroke='blue' stroke-width='0.1' tags='vline'/>
    <line x1="123.5" y1="30.0" x2="123.5" y2="180.0" stroke='blue' stroke-width='0.1' tags='vline'/>
    <line x1="128.5" y1="30.0" x2="128.5" y2="180.0" stroke='blue' stroke-width='0.1' tags='vline'/>
    <line x1="133.5" y1="30.0" x2="133.5" y2="180.0" stroke='blue' stroke-width='0.1' tags='vline'/>
    <line x1="138.5" y1="30.0" x2="138.5" y2="180.0" stroke='blue' stroke-width='0.1' tags='vline'/>
    <line x1="143.5" y1="30.0" x2="143.5" y2="180.0" stroke='blue' stroke-width='0.1' tags='vline'/>
    <line x1="148.5" y1="30.0" x2="148.5" y2="180.0" stroke='blue' stroke-width='0.1' tags='vline'/>
    <line x1="153.5" y1="30.0" x2="153.5" y2="180.0" stroke='blue' stroke-width='0.1' tags='vline'/>
    <line x1="158.5" y1="30.0" x2="158.5" y2="180.0" stroke='blue' stroke-width='0.1' tags='vline'/>
    <line x1="163.5" y1="30.0" x2="163.5" y2="180.0" stroke='blue' stroke-width='0.1' tags='vline'/>
    <line x1="168.5" y1="30.0" x2="168.5" y2="180.0" stroke='blue' stroke-width='0.1' tags='vline'/>
    <line x1="173.5" y1="30.0" x2="173.5" y2="180.0" stroke='blue' stroke-width='0.1' tags='vline'/>
    <line x1="178.5" y1="30.0" x2="178.5" y2="180.0" stroke='blue' stroke-width='0.1' tags='vline'/>
    <line x1="183.5" y1="30.0" x2="183.5" y2="180.0" stroke='blue' stroke-width='0.1' tags='vline'/>
    <line x1="188.5" y1="30.0" x2="188.5" y2="180.0" stroke='blue' stroke-width='0.1' tags='vline'/>
    <line x1="193.5" y1="30.0" x2="193.5" y2="180.0" stroke='blue' stroke-width='0.1' tags='vline'/>
    <line x1="198.5" y1="30.0" x2="198.5" y2="180.0" stroke='blue' stroke-width='0.1' tags='vline'/>
    <line x1="203.5" y1="30.0" x2="203.5" y2="180.0" stroke='blue' stroke-width='0.1' tags='vline'/>
    <line x1="208.5" y1="30.0" x2="208.5" y2="180.0" stroke='blue' stroke-width='0.1' tags='vline'/>
    <line x1="213.5" y1="30.0" x2="213.5" y2="180.0" stroke='blue' stroke-width='0.1' tags='vline'/>
    <line x1="218.5" y1="30.0" x2="218.5" y2="180.0" stroke='blue' stroke-width='0.1' tags='vline'/>
    <line x1="223.5" y1="30.0" x2="223.5" y2="180.0" stroke='blue' stroke-width='0.1' tags='vline'/>
    <line x1="228.5" y1="30.0" x2="228.5" y2="180.0" stroke='blue' stroke-width='0.1' tags='vline'/>
    <line x1="233.5" y1="30.0" x2="233.5" y2="180.0" stroke='blue' stroke-width='0.1' tags='vline'/>
    <line x1="238.5" y1="30.0" x2="238.5" y2="180.0" stroke='blue' stroke-width='0.1' tags='vline'/>
    <line x1="243.5" y1="30.0" x2="243.5" y2="180.0" stroke='blue' stroke-width='0.1' tags='vline'/>
    <line x1="248.5" y1="30.0" x2="248.5" y2="180.0" stroke='blue' stroke-width='0.1' tags='vline'/>
    <line x1="253.5" y1="30.0" x2="253.5" y2="180.0" stroke='blue' stroke-width='0.1' tags='vline'/>
    <line x1="258.5" y1="30.0" x2="258.5" y2="180.0" stroke='blue' stroke-width='0.1' tags='vline'/>
    <line x1="263.5" y1="30.0" x2="263.5" y2="180.0" stroke='blue' stroke-width='0.1' tags='vline'/>
    <line x1="268.5" y1="30.0" x2="268.5" y2="180.0" stroke='blue' stroke-width='0.1' tags='vline'/>
    <line x1="273.5" y1="30.0" x2="273.5" y2="180.0" stroke='blue' stroke-width='0.1' tags='vline'/>
    <line x1="278.5" y1="30.0" x2="278.5" y2="180.0" stroke='blue' stroke-width='0.1' tags='vline'/>
    <line x1="283.5" y1="30.0" x2="283.5" y2="180.0" stroke='blue' stroke-width='0.1' tags='vline'/>
    <line x1="13.5" y1="30.0" x2="13.5" y2="30.0" stroke='blue' stroke-width='0.1' tags='slant'/>
    <line x1="13.5" y1="38.02257" x2="19.76792" y2="30.0" stroke='blue' stroke-width='0.1' tags='slant'/>
    <line x1="13.5" y1="46.04513" x2="26.03583" y2="30.0" stroke='blue' stroke-width='0.1' tags='slant'/>
    <line x1="13.5" y1="54.0677" x2="32.30375" y2="30.0" stroke='blue' stroke-width='0.1' tags='slant'/>
    <line x1="13.5" y1="62.09026" x2="38.57166" y2="30.0" stroke='blue' stroke-width='0.1' tags='slant'/>
    <line x1="13.5" y1="70.11283" x2="44.83958" y2="30.0" stroke='blue' stroke-width='0.1' tags='slant'/>
    <line x1="13.5" y1="78.1354" x2="51.10749" y2="30.0" stroke='blue' stroke-width='0.1' tags='slant'/>
    <line x1="13.5" y1="86.15796" x2="57.37541" y2="30.0" stroke='blue' stroke-width='0.1' tags='slant'/>
    <line x1="13.5" y1="94.18053" x2="63.64332" y2="30.0" stroke='blue' stroke-width='0.1' tags='slant'/>
    <line x1="13.5" y1="102.20309" x2="69.91124" y2="30.0" stroke='blue' stroke-width='0.1' tags='slant'/>
    <line x1="13.5" y1="110.22566" x2="76.17916" y2="30.0" stroke='blue' stroke-width='0.1' tags='slant'/>
    <line x1="13.5" y1="118.24823" x2="82.44707" y2="30.0" stroke='blue' stroke-width='0.1' tags='slant'/>
    <line x1="13.5" y1="126.27079" x2="88.71499" y2="30.0" stroke='blue' stroke-width='0.1' tags='slant'/>
    <line x1="13.5" y1="134.29336" x2="94.9829" y2="30.0" stroke='blue' stroke-width='0.1' tags='slant'/>
    <line x1="13.5" y1="142.31593" x2="101.25082" y2="30.0" stroke='blue' stroke-width='0.1' tags='slant'/>
    <line x1="13.5" y1="150.33849" x2="107.51873" y2="30.0" stroke='blue' stroke-width='0.1' tags='slant'/>
    <line x1="13.5" y1="158.36106" x2="113.78665" y2="30.0" stroke='blue' stroke-width='0.1' tags='slant'/>
    <line x1="13.5" y1="166.38362" x2="120.05457" y2="30.0" stroke='blue' stroke-width='0.1' tags='slant'/>
    <line x1="13.5" y1="174.40619" x2="126.32248" y2="30.0" stroke='blue' stroke-width='0.1' tags='slant'/>
    <line x1="15.39755" y1="180.0" x2="132.5904" y2="30.0" stroke='blue' stroke-width='0.1' tags='slant'/>
    <line x1="21.66547" y1="180.0" x2="138.85831" y2="30.0" stroke='blue' stroke-width='0.1' tags='slant'/>
    <line x1="27.93338" y1="180.0" x2="145.12623" y2="30.0" stroke='blue' stroke-width='0.1' tags='slant'/>
    <line x1="34.2013" y1="180.0" x2="151.39414" y2="30.0" stroke='blue' stroke-width='0.1' tags='slant'/>
    <line x1="40.46921" y1="180.0" x2="157.66206" y2="30.0" stroke='blue' stroke-width='0.1' tags='slant'/>
    <line x1="46.73713" y1="180.0" x2="163.92997" y2="30.0" stroke='blue' stroke-width='0.1' tags='slant'/>
    <line x1="53.00505" y1="180.0" x2="170.19789" y2="30.0" stroke='blue' stroke-width='0.1' tags='slant'/>
    <line x1="59.27296" y1="180.0" x2="176.46581" y2="30.0" stroke='blue' stroke-width='0.1' tags='slant'/>
    <line x1="65.54088" y1="180.0" x2="182.73372" y2="30.0" stroke='blue' stroke-width='0.1' tags='slant'/>
    <line x1="71.80879" y1="180.0" x2="189.00164" y2="30.0" stroke='blue' stroke-width='0.1' tags='slant'/>
    <line x1="78.07671" y1="180.0" x2="195.26955" y2="30.0" stroke='blue' stroke-width='0.1' tags='slant'/>
    <line x1="84.34462" y1="180.0" x2="201.53747" y2="30.0" stroke='blue' stroke-width='0.1' tags='slant'/>
    <line x1="90.61254" y1="180.0" x2="207.80538" y2="30.0" stroke='blue' stroke-width='0.1' tags='slant'/>
    <line x1="96.88045" y1="180.0" x2="214.0733" y2="30.0" stroke='blue' stroke-width='0.1' tags='slant'/>
    <line x1="103.14837" y1="180.0" x2="220.34121" y2="30.0" stroke='blue' stroke-width='0.1' tags='slant'/>
    <line x1="109.41629" y1="180.0" x2="226.60913" y2="30.0" stroke='blue' stroke-width='0.1' tags='slant'/>
    <line x1="115.6842" y1="180.0" x2="232.87705" y2="30.0" stroke='blue' stroke-width='0.1' tags='slant'/>
    <line x1="121.95212" y1="180.0" x2="239.14496" y2="30.0" stroke='blue' stroke-width='0.1' tags='slant'/>
    <line x1="128.22003" y1="180.0" x2="245.41288" y2="30.0" stroke='blue' stroke-width='0.1' tags='slant'/>
    <line x1="134.48795" y1="180.0" x2="251.68079" y2="30.0" stroke='blue' stroke-width='0.1' tags='slant'/>
    <line x1="140.75586" y1="180.0" x2="257.94871" y2="30.0" stroke='blue' stroke-width='0.1' tags='slant'/>
    <line x1="147.02378" y1="180.0" x2="264.21662" y2="30.0" stroke='blue' stroke-width='0.1' tags='slant'/>
    <line x1="153.2917" y1="180.0" x2="270.48454" y2="30.0" stroke='blue' stroke-width='0.1' tags='slant'/>
    <line x1="159.55961" y1="180.0" x2="276.75245" y2="30.0" stroke='blue' stroke-width='0.1' tags='slant'/>
    <line x1="165.82753" y1="180.0" x2="283.02037" y2="30.0" stroke='blue' stroke-width='0.1' tags='slant'/>
    <line x1="172.09544" y1="180.0" x2="283.5" y2="37.40867" stroke='blue' stroke-width='0.1' tags='slant'/>
    <line x1="178.36336" y1="180.0" x2="283.5" y2="45.43123" stroke='blue' stroke-width='0.1' tags='slant'/>
    <line x1="184.63127" y1="180.0" x2="283.5" y2="53.4538" stroke='blue' stroke-width='0.1' tags='slant'/>
    <line x1="190.89919" y1="180.0" x2="283.5" y2="61.47637" stroke='blue' stroke-width='0.1' tags='slant'/>
    <line x1="197.1671" y1="180.0" x2="283.5" y2="69.49893" stroke='blue' stroke-width='0.1' tags='slant'/>
    <line x1="203.43502" y1="180.0" x2="283.5" y2="77.5215" stroke='blue' stroke-width='0.1' tags='slant'/>
    <line x1="209.70294" y1="180.0" x2="283.5" y2="85.54406" stroke='blue' stroke-width='0.1' tags='slant'/>
    <line x1="215.97085" y1="180.0" x2="283.5" y2="93.56663" stroke='blue' stroke-width='0.1' tags='slant'/>
    <line x1="222.23877" y1="180.0" x2="283.5" y2="101.5892" stroke='blue' stroke-width='0.1' tags='slant'/>
    <line x1="228.50668" y1="180.0" x2="283.5" y2="109.61176" stroke='blue' stroke-width='0.1' tags='slant'/>
    <line x1="234.7746" y1="180.0" x2="283.5" y2="117.63433" stroke='blue' stroke-width='0.1' tags='slant'/>
    <line x1="241.04251" y1="180.0" x2="283.5" y2="125.6569" stroke='blue' stroke-width='0.1' tags='slant'/>
    <line x1="247.31043" y1="180.0" x2="283.5" y2="133.67946" stroke='blue' stroke-width='0.1' tags='slant'/>
    <line x1="253.57834" y1="180.0" x2="283.5" y2="141.70203" stroke='blue' stroke-width='0.1' tags='slant'/>
    <line x1="259.84626" y1="180.0" x2="283.5" y2="149.72459" stroke='blue' stroke-width='0.1' tags='slant'/>
    <line x1="266.11418" y1="180.0" x2="283.5" y2="157.74716" stroke='blue' stroke-width='0.1' tags='slant'/>
    <line x1="272.38209" y1="180.0" x2="283.5" y2="165.76973" stroke='blue' stroke-width='0.1' tags='slant'/>
    <line x1="278.65001" y1="180.0" x2="283.5" y2="173.79229" stroke='blue' stroke-width='0.1' tags='slant'/>
    <line x1="13.5" y1="34.95169" x2="22.07658" y2="30.0" stroke='blue' stroke-width='0.07' stroke-dasharray='2, 2' tags='connective'/>
    <line x1="13.5" y1="39.90338" x2="30.65316" y2="30.0" stroke='blue' stroke-width='0.07' stroke-dasharray='2, 2' tags='connective'/>
    <line x1="13.5" y1="44.85507" x2="39.22973" y2="30.0" stroke='blue' stroke-width='0.07' stroke-dasharray='2, 2' tags='connective'/>
    <line x1="13.5" y1="49.80676" x2="47.80631" y2="30.0" stroke='blue' stroke-width='0.07' stroke-dasharray='2, 2' tags='connective'/>
    <line x1="13.5" y1="54.75845" x2="56.38289" y2="30.0" stroke='blue' stroke-width='0.07' stroke-dasharray='2, 2' tags='connective'/>
    <line x1="13.5" y1="59.71014" x2="64.95947" y2="30.0" stroke='blue' stroke-width='0.07' stroke-dasharray='2, 2' tags='connective'/>
    <line x1="13.5" y1="64.66183" x2="73.53604" y2="30.0" stroke='blue' stroke-width='0.07' stroke-dasharray='2, 2' tags='connective'/>
    <line x1="13.5" y1="69.61351" x2="82.11262" y2="30.0" stroke='blue' stroke-width='0.07' stroke-dasharray='2, 2' tags='connective'/>
    <line x1="13.5" y1="74.5652" x2="90.6892" y2="30.0" stroke='blue' stroke-width='0.07' stroke-dasharray='2, 2' tags='connective'/>
    <line x1="13.5" y1="79.51689" x2="99.26578" y2="30.0" stroke='blue' stroke-width='0.07' stroke-dasharray='2, 2' tags='connective'/>
    <line x1="13.5" y1="84.46858" x2="107.84235" y2="30.0" stroke='blue' stroke-width='0.07' stroke-dasharray='2, 2' tags='connective'/>
    <line x1="13.5" y1="89.42027" x2="116.41893" y2="30.0" stroke='blue' stroke-width='0.07' stroke-dasharray='2, 2' tags='connective'/>
    <line x1="13.5" y1="94.37196" x2="124.99551" y2="30.0" stroke='blue' stroke-width='0.07' stroke-dasharray='2, 2' tags='connective'/>
    <line x1="13.5" y1="99.32365" x2="133.57209" y2="30.0" stroke='blue' stroke-width='0.07' stroke-dasharray='2, 2' tags='connective'/>
    <line x1="13.5" y1="104.27534" x2="142.14866" y2="30.0" stroke='blue' stroke-width='0.07' stroke-dasharray='2, 2' tags='connective'/>
    <line x1="13.5" y1="109.22703" x2="150.72524" y2="30.0" stroke='blue' stroke-width='0.07' stroke-dasharray='2, 2' tags='connective'/>
    <line x1="13.5" y1="114.17872" x2="159.30182" y2="30.0" stroke='blue' stroke-width='0.07' stroke-dasharray='2, 2' tags='connective'/>
    <line x1="13.5" y1="119.13041" x2="167.8784" y2="30.0" stroke='blue' stroke-width='0.07' stroke-dasharray='2, 2' tags='connective'/>
    <line x1="13.5" y1="124.0821" x2="176.45497" y2="30.0" stroke='blue' stroke-width='0.07' stroke-dasharray='2, 2' tags='connective'/>
    <line x1="13.5" y1="129.03379" x2="185.03155" y2="30.0" stroke='blue' stroke-width='0.07' stroke-dasharray='2, 2' tags='connective'/>
    <line x1="13.5" y1="133.98548" x2="193.60813" y2="30.0" stroke='blue' stroke-width='0.07' stroke-dasharray='2, 2' tags='connective'/>
    <line x1="13.5" y1="138.93717" x2="202.18471" y2="30.0" stroke='blue' stroke-width='0.07' stroke-dasharray='2, 2' tags='connective'/>
    <line x1="13.5" y1="143.88886" x2="210.76128" y2="30.0" stroke='blue' stroke-width='0.07' stroke-dasharray='2, 2' tags='connective'/>
    <line x1="13.5" y1="148.84054" x2="219.33786" y2="30.0" stroke='blue' stroke-width='0.07' stroke-dasharray='2, 2' tags='connective'/>
    <line x1="13.5" y1="153.79223" x2="227.91444" y2="30.0" stroke='blue' stroke-width='0.07' stroke-dasharray='2, 2' tags='connective'/>
    <line x1="13.5" y1="158.74392" x2="236.49102" y2="30.0" stroke='blue' stroke-width='0.07' stroke-dasharray='2, 2' tags='connective'/>
    <line x1="13.5" y1="163.69561" x2="245.06759" y2="30.0" stroke='blue' stroke-width='0.07' stroke-dasharray='2, 2' tags='connective'/>
    <line x1="13.5" y1="168.6473" x2="253.64417" y2="30.0" stroke='blue' stroke-width='0.07' stroke-dasharray='2, 2' tags='connective'/>
    <line x1="13.5" y1="173.59899" x2="262.22075" y2="30.0" stroke='blue' stroke-width='0.07' stroke-dasharray='2, 2' tags='connective'/>
    <line x1="13.5" y1="178.55068" x2="270.79733" y2="30.0" stroke='blue' stroke-width='0.07' stroke-dasharray='2, 2' tags='connective'/>
    <line x1="19.56628" y1="180.0" x2="279.3739" y2="30.0" stroke='blue' stroke-width='0.07' stroke-dasharray='2, 2' tags='connective'/>
    <line x1="28.14286" y1="180.0" x2="283.5" y2="32.56949" stroke='blue' stroke-width='0.07' stroke-dasharray='2, 2' tags='connective'/>
    <line x1="36.71944" y1="180.0" x2="283.5" y2="37.52118" stroke='blue' stroke-width='0.07' stroke-dasharray='2, 2' tags='connective'/>
    <line x1="45.29602" y1="180.0" x2="283.5" y2="42.47287" stroke='blue' stroke-width='0.07' stroke-dasharray='2, 2' tags='connective'/>
    <line x1="53.87259" y1="180.0" x2="283.5" y2="47.42455" stroke='blue' stroke-width='0.07' stroke-dasharray='2, 2' tags='connective'/>
    <line x1="62.44917" y1="180.0" x2="283.5" y2="52.37624" stroke='blue' stroke-width='0.07' stroke-dasharray='2, 2' tags='connective'/>
    <line x1="71.02575" y1="180.0" x2="283.5" y2="57.32793" stroke='blue' stroke-width='0.07' stroke-dasharray='2, 2' tags='connective'/>
    <line x1="79.60233" y1="180.0" x2="283.5" y2="62.27962" stroke='blue' stroke-width='0.07' stroke-dasharray='2, 2' tags='connective'/>
    <line x1="88.1789" y1="180.0" x2="283.5" y2="67.23131" stroke='blue' stroke-width='0.07' stroke-dasharray='2, 2' tags='connective'/>
    <line x1="96.75548" y1="180.0" x2="283.5" y2="72.183" stroke='blue' stroke-width='0.07' stroke-dasharray='2, 2' tags='connective'/>
    <line x1="105.33206" y1="180.0" x2="283.5" y2="77.13469" stroke='blue' stroke-width='0.07' stroke-dasharray='2, 2' tags='connective'/>
    <line x1="113.90864" y1="180.0" x2="283.5" y2="82.08638" stroke='blue' stroke-width='0.07' stroke-dasharray='2, 2' tags='connective'/>
    <line x1="122.48521" y1="180.0" x2="283.5" y2="87.03807" stroke='blue' stroke-width='0.07' stroke-dasharray='2, 2' tags='connective'/>
    <line x1="131.06179" y1="180.0" x2="283.5" y2="91.98976" stroke='blue' stroke-width='0.07' stroke-dasharray='2, 2' tags='connective'/>
    <line x1="139.63837" y1="180.0" x2="283.5" y2="96.94145" stroke='blue' stroke-width='0.07' stroke-dasharray='2, 2' tags='connective'/>
    <line x1="148.21495" y1="180.0" x2="283.5" y2="101.89314" stroke='blue' stroke-width='0.07' stroke-dasharray='2, 2' tags='connective'/>
    <line x1="156.79152" y1="180.0" x2="283.5" y2="106.84483" stroke='blue' stroke-width='0.07' stroke-dasharray='2, 2' tags='connective'/>
    <line x1="165.3681" y1="180.0" x2="283.5" y2="111.79652" stroke='blue' stroke-width='0.07' stroke-dasharray='2, 2' tags='connective'/>
    <line x1="173.94468" y1="180.0" x2="283.5" y2="116.74821" stroke='blue' stroke-width='0.07' stroke-dasharray='2, 2' tags='connective'/>
    <line x1="182.52126" y1="180.0" x2="283.5" y2="121.69989" stroke='blue' stroke-width='0.07' stroke-dasharray='2, 2' tags='connective'/>
    <line x1="191.09783" y1="180.0" x2="283.5" y2="126.65158" stroke='blue' stroke-width='0.07' stroke-dasharray='2, 2' tags='connective'/>
    <line x1="199.67441" y1="180.0" x2="283.5" y2="131.60327" stroke='blue' stroke-width='0.07' stroke-dasharray='2, 2' tags='connective'/>
    <line x1="208.25099" y1="180.0" x2="283.5" y2="136.55496" stroke='blue' stroke-width='0.07' stroke-dasharray='2, 2' tags='connective'/>
    <line x1="216.82757" y1="180.0" x2="283.5" y2="141.50665" stroke='blue' stroke-width='0.07' stroke-dasharray='2, 2' tags='connective'/>
    <line x1="225.40414" y1="180.0" x2="283.5" y2="146.45834" stroke='blue' stroke-width='0.07' stroke-dasharray='2, 2' tags='connective'/>
    <line x1="233.98072" y1="180.0" x2="283.5" y2="151.41003" stroke='blue' stroke-width='0.07' stroke-dasharray='2, 2' tags='connective'/>
    <line x1="242.5573" y1="180.0" x2="283.5" y2="156.36172" stroke='blue' stroke-width='0.07' stroke-dasharray='2, 2' tags='connective'/>
    <line x1="251.13388" y1="180.0" x2="283.5" y2="161.31341" stroke='blue' stroke-width='0.07' stroke-dasharray='2, 2' tags='connective'/>
    <line x1="259.71045" y1="180.0" x2="283.5" y2="166.2651" stroke='blue' stroke-width='0.07' stroke-dasharray='2, 2' tags='connective'/>
    <line x1="268.28703" y1="180.0" x2="283.5" y2="171.21679" stroke='blue' stroke-width='0.07' stroke-dasharray='2, 2' tags='connective'/>
    <line x1="276.86361" y1="180.0" x2="283.5" y2="176.16848" stroke='blue' stroke-width='0.07' stroke-dasharray='2, 2' tags='connective'/>
    <rect width="30.0" height="30.0" x="13.5" y="30.0" stroke='blue' stroke-width='0.2' fill='none' tags='rect'/>
    <rect width="30.0" height="30.0" x="43.5" y="30.0" stroke='blue' stroke-width='0.2' fill='none' tags='rect'/>
    <rect width="30.0" height="30.0" x="73.5" y="30.0" stroke='blue' stroke-width='0.2' fill='none' tags='rect'/>
    <rect width="30.0" height="30.0" x="103.5" y="30.0" stroke='blue' stroke-width='0.2' fill='none' tags='rect'/>
    <rect width="30.0" height="30.0" x="133.5" y="30.0" stroke='blue' stroke-width='0.2' fill='none' tags='rect'/>
    <rect width="30.0" height="30.0" x="163.5" y="30.0" stroke='blue' stroke-width='0.2' fill='none' tags='rect'/>
    <rect width="30.0" height="30.0" x="193.5" y="30.0" stroke='blue' stroke-width='0.2' fill='none' tags='rect'/>
    <rect width="30.0" height="30.0" x="223.5" y="30.0" stroke='blue' stroke-width='0.2' fill='none' tags='rect'/>
    <rect width="30.0" height="30.0" x="253.5" y="30.0" stroke='blue' stroke-width='0.2' fill='none' tags='rect'/>
    <rect width="30.0" height="30.0" x="13.5" y="60.0" stroke='blue' stroke-width='0.2' fill='none' tags='rect'/>
    <rect width="30.0" height="30.0" x="43.5" y="60.0" stroke='blue' stroke-width='0.2' fill='none' tags='rect'/>
    <rect width="30.0" height="30.0" x="73.5" y="60.0" stroke='blue' stroke-width='0.2' fill='none' tags='rect'/>
    <rect width="30.0" height="30.0" x="103.5" y="60.0" stroke='blue' stroke-width='0.2' fill='none' tags='rect'/>
    <rect width="30.0" height="30.0" x="133.5" y="60.0" stroke='blue' stroke-width='0.2' fill='none' tags='rect'/>
    <rect width="30.0" height="30.0" x="163.5" y="60.0" stroke='blue' stroke-width='0.2' fill='none' tags='rect'/>
    <rect width="30.0" height="30.0" x="193.5" y="60.0" stroke='blue' stroke-width='0.2' fill='none' tags='rect'/>
    <rect width="30.0" height="30.0" x="223.5" y="60.0" stroke='blue' stroke-width='0.2' fill='none' tags='rect'/>
    <rect width="30.0" height="30.0" x="253.5" y="60.0" stroke='blue' stroke-width='0.2' fill='none' tags='rect'/>
    <rect width="30.0" height="30.0" x="13.5" y="90.0" stroke='blue' stroke-width='0.2' fill='none' tags='rect'/>
    <rect width="30.0" height="30.0" x="43.5" y="90.0" stroke='blue' stroke-width='0.2' fill='none' tags='rect'/>
    <rect width="30.0" height="30.0" x="73.5" y="90.0" stroke='blue' stroke-width='0.2' fill='none' tags='rect'/>
    <rect width="30.0" height="30.0" x="103.5" y="90.0" stroke='blue' stroke-width='0.2' fill='none' tags='rect'/>
    <rect width="30.0" height="30.0" x="133.5" y="90.0" stroke='blue' stroke-width='0.2' fill='none' tags='rect'/>
    <rect width="30.0" height="30.0" x="163.5" y="90.0" stroke='blue' stroke-width='0.2' fill='none' tags='rect'/>
    <rect width="30.0" height="30.0" x="193.5" y="90.0" stroke='blue' stroke-width='0.2' fill='none' tags='rect'/>
    <rect width="30.0" height="30.0" x="223.5" y="90.0" stroke='blue' stroke-width='0.2' fill='none' tags='rect'/>
    <rect width="30.0" height="30.0" x="253.5" y="90.0" stroke='blue' stroke-width='0.2' fill='none' tags='rect'/>
    <rect width="30.0" height="30.0" x="13.5" y="120.0" stroke='blue' stroke-width='0.2' fill='none' tags='rect'/>
    <rect width="30.0" height="30.0" x="43.5" y="120.0" stroke='blue' stroke-width='0.2' fill='none' tags='rect'/>
    <rect width="30.0" height="30.0" x="73.5" y="120.0" stroke='blue' stroke-width='0.2' fill='none' tags='rect'/>
    <rect width="30.0" height="30.0" x="103.5" y="120.0" stroke='blue' stroke-width='0.2' fill='none' tags='rect'/>
    <rect width="30.0" height="30.0" x="133.5" y="120.0" stroke='blue' stroke-width='0.2' fill='none' tags='rect'/>
    <rect width="30.0" height="30.0" x="163.5" y="120.0" stroke='blue' stroke-width='0.2' fill='none' tags='rect'/>
    <rect width="30.0" height="30.0" x="193.5" y="120.0" stroke='blue' stroke-width='0.2' fill='none' tags='rect'/>
    <rect width="30.0" height="30.0" x="223.5" y="120.0" stroke='blue' stroke-width='0.2' fill='none' tags='rect'/>
    <rect width="30.0" height="30.0" x="253.5" y="120.0" stroke='blue' stroke-width='0.2' fill='none' tags='rect'/>
    <rect width="30.0" height="30.0" x="13.5" y="150.0" stroke='blue' stroke-width='0.2' fill='none' tags='rect'/>
    <rect width="30.0" height="30.0" x="43.5" y="150.0" stroke='blue' stroke-width='0.2' fill='none' tags='rect'/>
    <rect width="30.0" height="30.0" x="73.5" y="150.0" stroke='blue' stroke-width='0.2' fill='none' tags='rect'/>
    <rect width="30.0" height="30.0" x="103.5" y="150.0" stroke='blue' stroke-width='0.2' fill='none' tags='rect'/>
    <rect width="30.0" height="30.0" x="133.5" y="150.0" stroke='blue' stroke-width='0.2' fill='none' tags='rect'/>
    <rect width="30.0" height="30.0" x="163.5" y="150.0" stroke='blue' stroke-width='0.2' fill='none' tags='rect'/>
    <rect width="30.0" height="30.0" x="193.5" y="150.0" stroke='blue' stroke-width='0.2' fill='none' tags='rect'/>
    <rect width="30.0" height="30.0" x="223.5" y="150.0" stroke='blue' stroke-width='0.2' fill='none' tags='rect'/>
    <rect width="30.0" height="30.0" x="253.5" y="150.0" stroke='blue' stroke-width='0.2' fill='none' tags='rect'/>
  </g>
</svg>
