<?xml version="1.0" standalone="no"?>
<!DOCTYPE svg PUBLIC "-//W3C//DTD SVG 1.1//EN" "http://www.w3.org/Graphics/SVG/1.1/DTD/svg11.dtd">
<svg xmlns="http://www.w3.org/2000/svg" width="210.0mm" height="297.0mm" viewBox="0 0 210.0 297.0" >

  <g id="sheet">
    <line x1="15.0" y1="28.5" x2="195.0" y2="28.5" stroke='blue' stroke-width='0.1' tags='hline'/>
    <line x1="15.0" y1="33.5" x2="195.0" y2="33.5" stroke='blue' stroke-width='0.1' tags='hline'/>
    <line x1="15.0" y1="38.5" x2="195.0" y2="38.5" stroke='blue' stroke-width='0.1' tags='hline'/>
    <line x1="15.0" y1="43.5" x2="195.0" y2="43.5" stroke='blue' stroke-width='0.1' tags='hline'/>
    <line x1="15.0" y1="48.5" x2="195.0" y2="48.5" stroke='blue' stroke-width='0.1' tags='hline'/>
    <line x1="15.0" y1="53.5" x2="195.0" y2="53.5" stroke='blue' stroke-width='0.1' tags='hline'/>
    <line x1="15.0" y1="58.5" x2="195.0" y2="58.5" stroke='blue' stroke-width='0.1' tags='hline'/>
    <line x1="15.0" y1="63.5" x2="195.0" y2="63.5" stroke='blue' stroke-width='0.1' tags='hline'/>
    <line x1="15.0" y1="68.5" x2="195.0" y2="68.5" stroke='blue' stroke-width='0.1' tags='hline'/>
    <line x1="15.0" y1="73.5" x2="195.0" y2="73.5" stroke='blue' stroke-width='0.1' tags='hline'/>
    <line x1="15.0" y1="78.5" x2="195.0" y2="78.5" stroke='blue' stroke-width='0.1' tags='hline'/>
    <line x1="15.0" y1="83.5" x2="195.0" y2="83.5" stroke='blue' stroke-width='0.1' tags='hline'/>
    <line x1="15.0" y1="88.5" x2="195.0" y2="88.5" stroke='blue' stroke-width='0.1' tags='hline'/>
    <line x1="15.0" y1="93.5" x2="195.0" y2="93.5" stroke='blue' stroke-width='0.1' tags='hline'/>
    <line x1="15.0" y1="98.5" x2="195.0" y2="98.5" stroke='blue' stroke-width='0.1' tags='hline'/>
    <line x1="15.0" y1="103.5" x2="195.0" y2="103.5" stroke='blue' stroke-width='0.1' tags='hline'/>
    <line x1="15.0" y1="108.5" x2="195.0" y2="108.5" stroke='blue' stroke-width='0.1' tags='hline'/>
    <line x1="15.0" y1="113.5" x2="195.0" y2="113.5" stroke='blue' stroke-width='0.1' tags='hline'/>
    <line x1="15.0" y1="118.5" x2="195.0" y2="118.5" stroke='blue' stroke-width='0.1' tags='hline'/>
    <line x1="15.0" y1="123.5" x2="195.0" y2="123.5" stroke='blue' stroke-width='0.1' tags='hline'/>
    <line x1="15.0" y1="128.5" x2="195.0" y2="128.5" stroke='blue' stroke-width='0.1' tags='hline'/>
    <line x1="15.0" y1="133.5" x2="195.0" y2="133.5" stroke='blue' stroke-width='0.1' tags='hline'/>
    <line x1="15.0" y1="138.5" x2="195.0" y2="138.5" stroke='blue' stroke-width='0.1' tags='hline'/>
    <line x1="15.0" y1="143.5" x2="195.0" y2="143.5" stroke='blue' stroke-width='0.1' tags='hline'/>
    <line x1="15.0" y1="148.5" x2="195.0" y2="148.5" stroke='blue' stroke-width='0.1' tags='hline'/>
    <line x1="15.0" y1="153.5" x2="195.0" y2="153.5" stroke='blue' stroke-width='0.1' tags='hline'/>
    <line x1="15.0" y1="158.5" x2="195.0" y2="158.5" stroke='blue' stroke-width='0.1' tags='hline'/>
    <line x1="15.0" y1="163.5" x2="195.0" y2="163.5" stroke='blue' stroke-width='0.1' tags='hline'/>
    <line x1="15.0" y1="168.5" x2="195.0" y2="168.5" stroke='blue' stroke-width='0.1' tags='hline'/>
    <line x1="15.0" y1="173.5" x2="195.0" y2="173.5" stroke='blue' stroke-width='0.1' tags='hline'/>
    <line x1="15.0" y1="178.5" x2="195.0" y2="178.5" stroke='blue' stroke-width='0.1' tags='hline'/>
    <line x1="15.0" y1="183.5" x2="195.0" y2="183.5" stroke='blue' stroke-width='0.1' tags='hline'/>
    <line x1="15.0" y1="188.5" x2="195.0" y2="188.5" stroke='blue' stroke-width='0.1' tags='hline'/>
    <line x1="15.0" y1="193.5" x2="195.0" y2="193.5" stroke='blue' stroke-width='0.1' tags='hline'/>
    <line x1="15.0" y1="198.5" x2="195.0" y2="198.5" stroke='blue' stroke-width='0.1' tags='hline'/>
    <line x1="15.0" y1="203.5" x2="195.0" y2="203.5" stroke='blue' stroke-width='0.1' tags='hline'/>
    <line x1="15.0" y1="208.5" x2="195.0" y2="208.5" stroke='blue' stroke-width='0.1' tags='hline'/>
    <line x1="15.0" y1="213.5" x2="195.0" y2="213.5" stroke='blue' stroke-width='0.1' tags='hline'/>
    <line x1="15.0" y1="218.5" x2="195.0" y2="218.5" stroke='blue' stroke-width='0.1' tags='hline'/>
    <line x1="15.0" y1="223.5" x2="195.0" y2="223.5" stroke='blue' stroke-width='0.1' tags='hline'/>
    <line x1="15.0" y1="228.5" x2="195.0" y2="228.5" stroke='blue' stroke-width='0.1' tags='hline'/>
    <line x1="15.0" y1="233.5" x2="195.0" y2="233.5" stroke='blue' stroke-width='0.1' tags='hline'/>
    <line x1="15.0" y1="238.5" x2="195.0" y2="238.5" stroke='blue' stroke-width='0.1' tags='hline'/>
    <line x1="15.0" y1="243.5" x2="195.0" y2="243.5" stroke='blue' stroke-width='0.1' tags='hline'/>
    <line x1="15.0" y1="248.5" x2="195.0" y2="248.5" stroke='blue' stroke-width='0.1' tags='hline'/>
    <line x1="15.0" y1="253.5" x2="195.0" y2="253.5" stroke='blue' stroke-width='0.1' tags='hline'/>
    <line x1="15.0" y1="258.5" x2="195.0" y2="258.5" stroke='blue' stroke-width='0.1' tags='hline'/>
    <line x1="15.0" y1="263.5" x2="195.0" y2="263.5" stroke='blue' stroke-width='0.1' tags='hline'/>
    <line x1="15.0" y1="268.5" x2="195.0" y2="268.5" stroke='blue' stroke-width='0.1' tags='hline'/>
    <line x1="15.0" y1="28.5" x2="15.0" y2="268.5" stroke='blue' stroke-width='0.1' tags='vline'/>
    <line x1="20.0" y1="28.5" x2="20.0" y2="268.5" stroke='blue' stroke-width='0.1' tags='vline'/>
    <line x1="25.0" y1="28.5" x2="25.0" y2="268.5" stroke='blue' stroke-width='0.1' tags='vline'/>
    <line x1="30.0" y1="28.5" x2="30.0" y2="268.5" stroke='blue' stroke-width='0.1' tags='vline'/>
    <line x1="35.0" y1="28.5" x2="35.0" y2="268.5" stroke='blue' stroke-width='0.1' tags='vline'/>
    <line x1="40.0" y1="28.5" x2="40.0" y2="268.5" stroke='blue' stroke-width='0.1' tags='vline'/>
    <line x1="45.0" y1="28.5" x2="45.0" y2="268.5" stroke='blue' stroke-width='0.1' tags='vline'/>
    <line x1="50.0" y1="28.5" x2="50.0" y2="268.5" stroke='blue' stroke-width='0.1' tags='vline'/>
    <line x1="55.0" y1="28.5" x2="55.0" y2="268.5" stroke='blue' stroke-width='0.1' tags='vline'/>
    <line x1="60.0" y1="28.5" x2="60.0" y2="268.5" stroke='blue' stroke-width='0.1' tags='vline'/>
    <line x1="65.0" y1="28.5" x2="65.0" y2="268.5" stroke='blue' stroke-width='0.1' tags='vline'/>
    <line x1="70.0" y1="28.5" x2="70.0" y2="268.5" stroke='blue' stroke-width='0.1' tags='vline'/>
    <line x1="75.0" y1="28.5" x2="75.0" y2="268.5" stroke='blue' stroke-width='0.1' tags='vline'/>
    <line x1="80.0" y1="28.5" x2="80.0" y2="268.5" stroke='blue' stroke-width='0.1' tags='vline'/>
    <line x1="85.0" y1="28.5" x2="85.0" y2="268.5" stroke='blue' stroke-width='0.1' tags='vline'/>
    <line x1="90.0" y1="28.5" x2="90.0" y2="268.5" stroke='blue' stroke-width='0.1' tags='vline'/>
    <line x1="95.0" y1="28.5" x2="95.0" y2="268.5" stroke='blue' stroke-width='0.1' tags='vline'/>
    <line x1="100.0" y1="28.5" x2="100.0" y2="268.5" stroke='blue' stroke-width='0.1' tags='vline'/>
    <line x1="105.0" y1="28.5" x2="105.0" y2="268.5" stroke='blue' stroke-width='0.1' tags='vline'/>
    <line x1="110.0" y1="28.5" x2="110.0" y2="268.5" stroke='blue' stroke-width='0.1' tags='vline'/>
    <line x1="115.0" y1="28.5" x2="115.0" y2="268.5" stroke='blue' stroke-width='0.1' tags='vline'/>
    <line x1="120.0" y1="28.5" x2="120.0" y2="268.5" stroke='blue' stroke-width='0.1' tags='vline'/>
    <line x1="125.0" y1="28.5" x2="125.0" y2="268.5" stroke='blue' stroke-width='0.1' tags='vline'/>
    <line x1="130.0" y1="28.5" x2="130.0" y2="268.5" stroke='blue' stroke-width='0.1' tags='vline'/>
    <line x1="135.0" y1="28.5" x2="135.0" y2="268.5" stroke='blue' stroke-width='0.1' tags='vline'/>
    <line x1="140.0" y1="28.5" x2="140.0" y2="268.5" stroke='blue' stroke-width='0.1' tags='vline'/>
    <line x1="145.0" y1="28.5" x2="145.0" y2="268.5" stroke='blue' stroke-width='0.1' tags='vline'/>
    <line x1="150.0" y1="28.5" x2="150.0" y2="268.5" stroke='blue' stroke-width='0.1' tags='vline'/>
    <line x1="155.0" y1="28.5" x2="155.0" y2="268.5" stroke='blue' stroke-width='0.1' tags='vline'/>
    <line x1="160.0" y1="28.5" x2="160.0" y2="268.5" stroke='blue' stroke-width='0.1' tags='vline'/>
    <line x1="165.0" y1="28.5" x2="165.0" y2="268.5" stroke='blue' stroke-width='0.1' tags='vline'/>
    <line x1="170.0" y1="28.5" x2="170.0" y2="268.5" stroke='blue' stroke-width='0.1' tags='vline'/>
    <line x1="175.0" y1="28.5" x2="175.0" y2="268.5" stroke='blue' stroke-width='0.1' tags='vline'/>
    <line x1="180.0" y1="28.5" x2="180.0" y2="268.5" stroke='blue' stroke-width='0.1' tags='vline'/>
    <line x1="185.0" y1="28.5" x2="185.0" y2="268.5" stroke='blue' stroke-width='0.1' tags='vline'/>
    <line x1="190.0" y1="28.5" x2="190.0" y2="268.5" stroke='blue' stroke-width='0.1' tags='vline'/>
    <line x1="195.0" y1="28.5" x2="195.0" y2="268.5" stroke='blue' stroke-width='0.1' tags='vline'/>
    <line x1="15.0" y1="28.5" x2="15.0" y2="28.5" stroke='blue' stroke-width='0.1' tags='slant'/>
    <line x1="15.0" y1="36.33982" x2="21.12514" y2="28.5" stroke='blue' stroke-width='0.1' tags='slant'/>
    <line x1="15.0" y1="44.17965" x2="27.25029" y2="28.5" stroke='blue' stroke-width='0.1' tags='slant'/>
    <line x1="15.0" y1="52.01947" x2="33.37543" y2="28.5" stroke='blue' stroke-width='0.1' tags='slant'/>
    <line x1="15.0" y1="59.8593" x2="39.50057" y2="28.5" stroke='blue' stroke-width='0.1' tags='slant'/>
    <line x1="15.0" y1="67.69912" x2="45.62571" y2="28.5" stroke='blue' stroke-width='0.1' tags='slant'/>
    <line x1="15.0" y1="75.53895" x2="51.75086" y2="28.5" stroke='blue' stroke-width='0.1' tags='slant'/>
    <line x1="15.0" y1="83.37877" x2="57.876" y2="28.5" stroke='blue' stroke-width='0.1' tags='slant'/>
    <line x1="15.0" y1="91.2186" x2="64.00114" y2="28.5" stroke='blue' stroke-width='0.1' tags='slant'/>
    <line x1="15.0" y1="99.05842" x2="70.12628" y2="28.5" stroke='blue' stroke-width='0.1' tags='slant'/>
    <line x1="15.0" y1="106.89825" x2="76.25143" y2="28.5" stroke='blue' stroke-width='0.1' tags='slant'/>
    <line x1="15.0" y1="114.73807" x2="82.37657" y2="28.5" stroke='blue' stroke-width='0.1' tags='slant'/>
    <line x1="15.0" y1="122.5779" x2="88.50171" y2="28.5" stroke='blue' stroke-width='0.1' tags='slant'/>
    <line x1="15.0" y1="130.41772" x2="94.62685" y2="28.5" stroke='blue' stroke-width='0.1' tags='slant'/>
    <line x1="15.0" y1="138.25755" x2="100.752" y2="28.5" stroke='blue' stroke-width='0.1' tags='slant'/>
    <line x1="15.0" y1="146.09737" x2="106.87714" y2="28.5" stroke='blue' stroke-width='0.1' tags='slant'/>
    <line x1="15.0" y1="153.9372" x2="113.00228" y2="28.5" stroke='blue' stroke-width='0.1' tags='slant'/>
    <line x1="15.0" y1="161.77702" x2="119.12742" y2="28.5" stroke='blue' stroke-width='0.1' tags='slant'/>
    <line x1="15.0" y1="169.61685" x2="125.25257" y2="28.5" stroke='blue' stroke-width='0.1' tags='slant'/>
    <line x1="15.0" y1="177.45667" x2="131.37771" y2="28.5" stroke='blue' stroke-width='0.1' tags='slant'/>
    <line x1="15.0" y1="185.2965" x2="137.50285" y2="28.5" stroke='blue' stroke-width='0.1' tags='slant'/>
    <line x1="15.0" y1="193.13632" x2="143.62799" y2="28.5" stroke='blue' stroke-width='0.1' tags='slant'/>
    <line x1="15.0" y1="200.97615" x2="149.75314" y2="28.5" stroke='blue' stroke-width='0.1' tags='slant'/>
    <line x1="15.0" y1="208.81597" x2="155.87828" y2="28.5" stroke='blue' stroke-width='0.1' tags='slant'/>
    <line x1="15.0" y1="216.6558" x2="162.00342" y2="28.5" stroke='blue' stroke-width='0.1' tags='slant'/>
    <line x1="15.0" y1="224.49562" x2="168.12856" y2="28.5" stroke='blue' stroke-width='0.1' tags='slant'/>
    <line x1="15.0" y1="232.33545" x2="174.25371" y2="28.5" stroke='blue' stroke-width='0.1' tags='slant'/>
    <line x1="15.0" y1="240.17527" x2="180.37885" y2="28.5" stroke='blue' stroke-width='0.1' tags='slant'/>
    <line x1="15.0" y1="248.0151" x2="186.50399" y2="28.5" stroke='blue' stroke-width='0.1' tags='slant'/>
    <line x1="15.0" y1="255.85492" x2="192.62913" y2="28.5" stroke='blue' stroke-width='0.1' tags='slant'/>
    <line x1="15.0" y1="263.69475" x2="195.0" y2="33.30525" stroke='blue' stroke-width='0.1' tags='slant'/>
    <line x1="17.37087" y1="268.5" x2="195.0" y2="41.14508" stroke='blue' stroke-width='0.1' tags='slant'/>
    <line x1="23.49601" y1="268.5" x2="195.0" y2="48.9849" stroke='blue' stroke-width='0.1' tags='slant'/>
    <line x1="29.62115" y1="268.5" x2="195.0" y2="56.82473" stroke='blue' stroke-width='0.1' tags='slant'/>
    <line x1="35.74629" y1="268.5" x2="195.0" y2="64.66455" stroke='blue' stroke-width='0.1' tags='slant'/>
    <line x1="41.87144" y1="268.5" x2="195.0" y2="72.50438" stroke='blue' stroke-width='0.1' tags='slant'/>
    <line x1="47.99658" y1="268.5" x2="195.0" y2="80.3442" stroke='blue' stroke-width='0.1' tags='slant'/>
    <line x1="54.12172" y1="268.5" x2="195.0" y2="88.18403" stroke='blue' stroke-width='0.1' tags='slant'/>
    <line x1="60.24686" y1="268.5" x2="195.0" y2="96.02385" stroke='blue' stroke-width='0.1' tags='slant'/>
    <line x1="66.37201" y1="268.5" x2="195.0" y2="103.86368" stroke='blue' stroke-width='0.1' tags='slant'/>
    <line x1="72.49715" y1="268.5" x2="195.0" y2="111.7035" stroke='blue' stroke-width='0.1' tags='slant'/>
    <line x1="78.62229" y1="268.5" x2="195.0" y2="119.54333" stroke='blue' stroke-width='0.1' tags='slant'/>
    <line x1="84.74743" y1="268.5" x2="195.0" y2="127.38315" stroke='blue' stroke-width='0.1' tags='slant'/>
    <line x1="90.87258" y1="268.5" x2="195.0" y2="135.22298" stroke='blue' stroke-width='0.1' tags='slant'/>
    <line x1="96.99772" y1="268.5" x2="195.0" y2="143.0628" stroke='blue' stroke-width='0.1' tags='slant'/>
    <line x1="103.12286" y1="268.5" x2="195.0" y2="150.90263" stroke='blue' stroke-width='0.1' tags='slant'/>
    <line x1="109.248" y1="268.5" x2="195.0" y2="158.74245" stroke='blue' stroke-width='0.1' tags='slant'/>
    <line x1="115.37315" y1="268.5" x2="195.0" y2="166.58228" stroke='blue' stroke-width='0.1' tags='slant'/>
    <line x1="121.49829" y1="268.5" x2="195.0" y2="174.4221" stroke='blue' stroke-width='0.1' tags='slant'/>
    <line x1="127.62343" y1="268.5" x2="195.0" y2="182.26193" stroke='blue' stroke-width='0.1' tags='slant'/>
    <line x1="133.74857" y1="268.5" x2="195.0" y2="190.10175" stroke='blue' stroke-width='0.1' tags='slant'/>
    <line x1="139.87372" y1="268.5" x2="195.0" y2="197.94158" stroke='blue' stroke-width='0.1' tags='slant'/>
    <line x1="145.99886" y1="268.5" x2="195.0" y2="205.7814" stroke='blue' stroke-width='0.1' tags='slant'/>
    <line x1="152.124" y1="268.5" x2="195.0" y2="213.62123" stroke='blue' stroke-width='0.1' tags='slant'/>
    <line x1="158.24914" y1="268.5" x2="195.0" y2="221.46105" stroke='blue' stroke-width='0.1' tags='slant'/>
    <line x1="164.37429" y1="268.5" x2="195.0" y2="229.30088" stroke='blue' stroke-width='0.1' tags='slant'/>
    <line x1="170.49943" y1="268.5" x2="195.0" y2="237.1407" stroke='blue' stroke-width='0.1' tags='slant'/>
    <line x1="176.62457" y1="268.5" x2="195.0" y2="244.98053" stroke='blue' stroke-width='0.1' tags='slant'/>
    <line x1="182.74971" y1="268.5" x2="195.0" y2="252.82035" stroke='blue' stroke-width='0.1' tags='slant'/>
    <line x1="188.87486" y1="268.5" x2="195.0" y2="260.66018" stroke='blue' stroke-width='0.1' tags='slant'/>
    <line x1="15.0" y1="34.23205" x2="24.9282" y2="28.5" stroke='blue' stroke-width='0.07' stroke-dasharray='2, 2' tags='connective'/>
    <line x1="15.0" y1="39.9641" x2="34.85641" y2="28.5" stroke='blue' stroke-width='0.07' stroke-dasharray='2, 2' tags='connective'/>
    <line x1="15.0" y1="45.69615" x2="44.78461" y2="28.5" stroke='blue' stroke-width='0.07' stroke-dasharray='2, 2' tags='connective'/>
    <line x1="15.0" y1="51.4282" x2="54.71281" y2="28.5" stroke='blue' stroke-width='0.07' stroke-dasharray='2, 2' tags='connective'/>
    <line x1="15.0" y1="57.16025" x2="64.64102" y2="28.5" stroke='blue' stroke-width='0.07' stroke-dasharray='2, 2' tags='connective'/>
    <line x1="15.0" y1="62.8923" x2="74.56922" y2="28.5" stroke='blue' stroke-width='0.07' stroke-dasharray='2, 2' tags='connective'/>
    <line x1="15.0" y1="68.62436" x2="84.49742" y2="28.5" stroke='blue' stroke-width='0.07' stroke-dasharray='2, 2' tags='connective'/>
    <line x1="15.0" y1="74.35641" x2="94.42563" y2="28.5" stroke='blue' stroke-width='0.07' stroke-dasharray='2, 2' tags='connective'/>
    <line x1="15.0" y1="80.08846" x2="104.35383" y2="28.5" stroke='blue' stroke-width='0.07' stroke-dasharray='2, 2' tags='connective'/>
    <line x1="15.0" y1="85.82051" x2="114.28203" y2="28.5" stroke='blue' stroke-width='0.07' stroke-dasharray='2, 2' tags='connective'/>
    <line x1="15.0" y1="91.55256" x2="124.21024" y2="28.5" stroke='blue' stroke-width='0.07' stroke-dasharray='2, 2' tags='connective'/>
    <line x1="15.0" y1="97.28461" x2="134.13844" y2="28.5" stroke='blue' stroke-width='0.07' stroke-dasharray='2, 2' tags='connective'/>
    <line x1="15.0" y1="103.01666" x2="144.06664" y2="28.5" stroke='blue' stroke-width='0.07' stroke-dasharray='2, 2' tags='connective'/>
    <line x1="15.0" y1="108.74871" x2="153.99485" y2="28.5" stroke='blue' stroke-width='0.07' stroke-dasharray='2, 2' tags='connective'/>
    <line x1="15.0" y1="114.48076" x2="163.92305" y2="28.5" stroke='blue' stroke-width='0.07' stroke-dasharray='2, 2' tags='connective'/>
    <line x1="15.0" y1="120.21281" x2="173.85125" y2="28.5" stroke='blue' stroke-width='0.07' stroke-dasharray='2, 2' tags='connective'/>
    <line x1="15.0" y1="125.94486" x2="183.77945" y2="28.5" stroke='blue' stroke-width='0.07' stroke-dasharray='2, 2' tags='connective'/>
    <line x1="15.0" y1="131.67691" x2="193.70766" y2="28.5" stroke='blue' stroke-width='0.07' stroke-dasharray='2, 2' tags='connective'/>
    <line x1="15.0" y1="137.40897" x2="195.0" y2="33.48592" stroke='blue' stroke-width='0.07' stroke-dasharray='2, 2' tags='connective'/>
    <line x1="15.0" y1="143.14102" x2="195.0" y2="39.21797" stroke='blue' stroke-width='0.07' stroke-dasharray='2, 2' tags='connective'/>
    <line x1="15.0" y1="148.87307" x2="195.0" y2="44.95002" stroke='blue' stroke-width='0.07' stroke-dasharray='2, 2' tags='connective'/>
    <line x1="15.0" y1="154.60512" x2="195.0" y2="50.68207" stroke='blue' stroke-width='0.07' stroke-dasharray='2, 2' tags='connective'/>
    <line x1="15.0" y1="160.33717" x2="195.0" y2="56.41412" stroke='blue' stroke-width='0.07' stroke-dasharray='2, 2' tags='connective'/>
    <line x1="15.0" y1="166.06922" x2="195.0" y2="62.14617" stroke='blue' stroke-width='0.07' stroke-dasharray='2, 2' tags='connective'/>
    <line x1="15.0" y1="171.80127" x2="195.0" y2="67.87822" stroke='blue' stroke-width='0.07' stroke-dasharray='2, 2' tags='connective'/>
    <line x1="15.0" y1="177.53332" x2="195.0" y2="73.61027" stroke='blue' stroke-width='0.07' stroke-dasharray='2, 2' tags='connective'/>
    <line x1="15.0" y1="183.26537" x2="195.0" y2="79.34232" stroke='blue' stroke-width='0.07' stroke-dasharray='2, 2' tags='connective'/>
    <line x1="15.0" y1="188.99742" x2="195.0" y2="85.07437" stroke='blue' stroke-width='0.07' stroke-dasharray='2, 2' tags='connective'/>
    <line x1="15.0" y1="194.72947" x2="195.0" y2="90.80642" stroke='blue' stroke-width='0.07' stroke-dasharray='2, 2' tags='connective'/>
    <line x1="15.0" y1="200.46152" x2="195.0" y2="96.53848" stroke='blue' stroke-width='0.07' stroke-dasharray='2, 2' tags='connective'/>
    <line x1="15.0" y1="206.19358" x2="195.0" y2="102.27053" stroke='blue' stroke-width='0.07' stroke-dasharray='2, 2' tags='connective'/>
    <line x1="15.0" y1="211.92563" x2="195.0" y2="108.00258" stroke='blue' stroke-width='0.07' stroke-dasharray='2, 2' tags='connective'/>
    <line x1="15.0" y1="217.65768" x2="195.0" y2="113.73463" stroke='blue' stroke-width='0.07' stroke-dasharray='2, 2' tags='connective'/>
    <line x1="15.0" y1="223.38973" x2="195.0" y2="119.46668" stroke='blue' stroke-width='0.07' stroke-dasharray='2, 2' tags='connective'/>
    <line x1="15.0" y1="229.12178" x2="195.0" y2="125.19873" stroke='blue' stroke-width='0.07' stroke-dasharray='2, 2' tags='connective'/>
    <line x1="15.0" y1="234.85383" x2="195.0" y2="130.93078" stroke='blue' stroke-width='0.07' stroke-dasharray='2, 2' tags='connective'/>
    <line x1="15.0" y1="240.58588" x2="195.0" y2="136.66283" stroke='blue' stroke-width='0.07' stroke-dasharray='2, 2' tags='connective'/>
    <line x1="15.0" y1="246.31793" x2="195.0" y2="142.39488" stroke='blue' stroke-width='0.07' stroke-dasharray='2, 2' tags='connective'/>
    <line x1="15.0" y1="252.04998" x2="195.0" y2="148.12693" stroke='blue' stroke-width='0.07' stroke-dasharray='2, 2' tags='connective'/>
    <line x1="15.0" y1="257.78203" x2="195.0" y2="153.85898" stroke='blue' stroke-width='0.07' stroke-dasharray='2, 2' tags='connective'/>
    <line x1="15.0" y1="263.51408" x2="195.0" y2="159.59103" stroke='blue' stroke-width='0.07' stroke-dasharray='2, 2' tags='connective'/>
    <line x1="16.29234" y1="268.5" x2="195.0" y2="165.32309" stroke='blue' stroke-width='0.07' stroke-dasharray='2, 2' tags='connective'/>
    <line x1="26.22055" y1="268.5" x2="195.0" y2="171.05514" stroke='blue' stroke-width='0.07' stroke-dasharray='2, 2' tags='connective'/>
    <line x1="36.14875" y1="268.5" x2="195.0" y2="176.78719" stroke='blue' stroke-width='0.07' stroke-dasharray='2, 2' tags='connective'/>
    <line x1="46.07695" y1="268.5" x2="195.0" y2="182.51924" stroke='blue' stroke-width='0.07' stroke-dasharray='2, 2' tags='connective'/>
    <line x1="56.00515" y1="268.5" x2="195.0" y2="188.25129" stroke='blue' stroke-width='0.07' stroke-dasharray='2, 2' tags='connective'/>
    <line x1="65.93336" y1="268.5" x2="195.0" y2="193.98334" stroke='blue' stroke-width='0.07' stroke-dasharray='2, 2' tags='connective'/>
    <line x1="75.86156" y1="268.5" x2="195.0" y2="199.71539" stroke='blue' stroke-width='0.07' stroke-dasharray='2, 2' tags='connective'/>
    <line x1="85.78976" y1="268.5" x2="195.0" y2="205.44744" stroke='blue' stroke-width='0.07' stroke-dasharray='2, 2' tags='connective'/>
    <line x1="95.71797" y1="268.5" x2="195.0" y2="211.17949" stroke='blue' stroke-width='0.07' stroke-dasharray='2, 2' tags='connective'/>
    <line x1="105.64617" y1="268.5" x2="195.0" y2="216.91154" stroke='blue' stroke-width='0.07' stroke-dasharray='2, 2' tags='connective'/>
    <line x1="115.57437" y1="268.5" x2="195.0" y2="222.64359" stroke='blue' stroke-width='0.07' stroke-dasharray='2, 2' tags='connective'/>
    <line x1="125.50258" y1="268.5" x2="195.0" y2="228.37564" stroke='blue' stroke-width='0.07' stroke-dasharray='2, 2' tags='connective'/>
    <line x1="135.43078" y1="268.5" x2="195.0" y2="234.1077" stroke='blue' stroke-width='0.07' stroke-dasharray='2, 2' tags='connective'/>
    <line x1="145.35898" y1="268.5" x2="195.0" y2="239.83975" stroke='blue' stroke-width='0.07' stroke-dasharray='2, 2' tags='connective'/>
    <line x1="155.28719" y1="268.5" x2="195.0" y2="245.5718" stroke='blue' stroke-width='0.07' stroke-dasharray='2, 2' tags='connective'/>
    <line x1="165.21539" y1="268.5" x2="195.0" y2="251.30385" stroke='blue' stroke-width='0.07' stroke-dasharray='2, 2' tags='connective'/>
    <line x1="175.14359" y1="268.5" x2="195.0" y2="257.0359" stroke='blue' stroke-width='0.07' stroke-dasharray='2, 2' tags='connective'/>
    <line x1="185.0718" y1="268.5" x2="195.0" y2="262.76795" stroke='blue' stroke-width='0.07' stroke-dasharray='2, 2' tags='connective'/>
    <rect width="30.0" height="30.0" x="15.0" y="28.5" stroke='blue' stroke-width='0.2' fill='none' tags='rect'/>
    <rect width="30.0" height="30.0" x="45.0" y="28.5" stroke='blue' stroke-width='0.2' fill='none' tags='rect'/>
    <rect width="30.0" height="30.0" x="75.0" y="28.5" stroke='blue' stroke-width='0.2' fill='none' tags='rect'/>
    <rect width="30.0" height="30.0" x="105.0" y="28.5" stroke='blue' stroke-width='0.2' fill='none' tags='rect'/>
    <rect width="30.0" height="30.0" x="135.0" y="28.5" stroke='blue' stroke-width='0.2' fill='none' tags='rect'/>
    <rect width="30.0" height="30.0" x="165.0" y="28.5" stroke='blue' stroke-width='0.2' fill='none' tags='rect'/>
    <rect width="30.0" height="30.0" x="15.0" y="58.5" stroke='blue' stroke-width='0.2' fill='none' tags='rect'/>
    <rect width="30.0" height="30.0" x="45.0" y="58.5" stroke='blue' stroke-width='0.2' fill='none' tags='rect'/>
    <rect width="30.0" height="30.0" x="75.0" y="58.5" stroke='blue' stroke-width='0.2' fill='none' tags='rect'/>
    <rect width="30.0" height="30.0" x="105.0" y="58.5" stroke='blue' stroke-width='0.2' fill='none' tags='rect'/>
    <rect width="30.0" height="30.0" x="135.0" y="58.5" stroke='blue' stroke-width='0.2' fill='none' tags='rect'/>
    <rect width="30.0" height="30.0" x="165.0" y="58.5" stroke='blue' stroke-width='0.2' fill='none' tags='rect'/>
    <rect width="30.0" height="30.0" x="15.0" y="88.5" stroke='blue' stroke-width='0.2' fill='none' tags='rect'/>
    <rect width="30.0" height="30.0" x="45.0" y="88.5" stroke='blue' stroke-width='0.2' fill='none' tags='rect'/>
    <rect width="30.0" height="30.0" x="75.0" y="88.5" stroke='blue' stroke-width='0.2' fill='none' tags='rect'/>
    <rect width="30.0" height="30.0" x="105.0" y="88.5" stroke='blue' stroke-width='0.2' fill='none' tags='rect'/>
    <rect width="30.0" height="30.0" x="135.0" y="88.5" stroke='blue' stroke-width='0.2' fill='none' tags='rect'/>
    <rect width="30.0" height="30.0" x="165.0" y="88.5" stroke='blue' stroke-width='0.2' fill='none' tags='rect'/>
    <rect width="30.0" height="30.0" x="15.0" y="118.5" stroke='blue' stroke-width='0.2' fill='none' tags='rect'/>
    <rect width="30.0" height="30.0" x="45.0" y="118.5" stroke='blue' stroke-width='0.2' fill='none' tags='rect'/>
    <rect width="30.0" height="30.0" x="75.0" y="118.5" stroke='blue' stroke-width='0.2' fill='none' tags='rect'/>
    <rect width="30.0" height="30.0" x="105.0" y="118.5" stroke='blue' stroke-width='0.2' fill='none' tags='rect'/>
    <rect width="30.0" height="30.0" x="135.0" y="118.5" stroke='blue' stroke-width='0.2' fill='none' tags='rect'/>
    <rect width="30.0" height="30.0" x="165.0" y="118.5" stroke='blue' stroke-width='0.2' fill='none' tags='rect'/>
    <rect width="30.0" height="30.0" x="15.0" y="148.5" stroke='blue' stroke-width='0.2' fill='none' tags='rect'/>
    <rect width="30.0" height="30.0" x="45.0" y="148.5" stroke='blue' stroke-width='0.2' fill='none' tags='rect'/>
    <rect width="30.0" height="30.0" x="75.0" y="148.5" stroke='blue' stroke-width='0.2' fill='none' tags='rect'/>
    <rect width="30.0" height="30.0" x="105.0" y="148.5" stroke='blue' stroke-width='0.2' fill='none' tags='rect'/>
    <rect width="30.0" height="30.0" x="135.0" y="148.5" stroke='blue' stroke-width='0.2' fill='none' tags='rect'/>
    <rect width="30.0" height="30.0" x="165.0" y="148.5" stroke='blue' stroke-width='0.2' fill='none' tags='rect'/>
    <rect width="30.0" height="30.0" x="15.0" y="178.5" stroke='blue' stroke-width='0.2' fill='none' tags='rect'/>
    <rect width="30.0" height="30.0" x="45.0" y="178.5" stroke='blue' stroke-width='0.2' fill='none' tags='rect'/>
    <rect width="30.0" height="30.0" x="75.0" y="178.5" stroke='blue' stroke-width='0.2' fill='none' tags='rect'/>
    <rect width="30.0" height="30.0" x="105.0" y="178.5" stroke='blue' stroke-width='0.2' fill='none' tags='rect'/>
    <rect width="30.0" height="30.0" x="135.0" y="178.5" stroke='blue' stroke-width='0.2' fill='none' tags='rect'/>
    <rect width="30.0" height="30.0" x="165.0" y="178.5" stroke='blue' stroke-width='0.2' fill='none' tags='rect'/>
    <rect width="30.0" height="30.0" x="15.0" y="208.5" stroke='blue' stroke-width='0.2' fill='none' tags='rect'/>
    <rect width="30.0" height="30.0" x="45.0" y="208.5" stroke='blue' stroke-width='0.2' fill='none' tags='rect'/>
    <rect width="30.0" height="30.0" x="75.0" y="208.5" stroke='blue' stroke-width='0.2' fill='none' tags='rect'/>
    <rect width="30.0" height="30.0" x="105.0" y="208.5" stroke='blue' stroke-width='0.2' fill='none' tags='rect'/>
    <rect width="30.0" height="30.0" x="135.0" y="208.5" stroke='blue' stroke-width='0.2' fill='none' tags='rect'/>
    <rect width="30.0" height="30.0" x="165.0" y="208.5" stroke='blue' stroke-width='0.2' fill='none' tags='rect'/>
    <rect width="30.0" height="30.0" x="15.0" y="238.5" stroke='blue' stroke-width='0.2' fill='none' tags='rect'/>
    <rect width="30.0" height="30.0" x="45.0" y="238.5" stroke='blue' stroke-width='0.2' fill='none' tags='rect'/>
    <rect width="30.0" height="30.0" x="75.0" y="238.5" stroke='blue' stroke-width='0.2' fill='none' tags='rect'/>
    <rect width="30.0" height="30.0" x="105.0" y="238.5" stroke='blue' stroke-width='0.2' fill='none' tags='rect'/>
    <rect width="30.0" height="30.0" x="135.0" y="238.5" stroke='blue' stroke-width='0.2' fill='none' tags='rect'/>
    <rect width="30.0" height="30.0" x="165.0" y="238.5" stroke='blue' stroke-width='0.2' fill='none' tags='rect'/>
  </g>
</svg>
