<?xml version="1.0" standalone="no"?>
<!DOCTYPE svg PUBLIC "-//W3C//DTD SVG 1.1//EN" "http://www.w3.org/Graphics/SVG/1.1/DTD/svg11.dtd">
<svg xmlns="http://www.w3.org/2000/svg" width="210.0mm" height="297.0mm" viewBox="0 0 210.0 297.0" shape-rendering="geometricPrecision" >
  <style>
    svg         { stroke:            #ed008c; }
    svg         { stroke-width:         0.04; }
    .altcolor   { stroke:               blue; }
    .extrafine  { stroke-width:         0.01; }
    .fine       { stroke-width:         0.02; }
    .medium     { stroke-width:         0.04; }
    .broad      { stroke-width:         0.08; }
    .extrabroad { stroke-width:         0.16; }
    .dashed     { stroke-dasharray:      2 2; }
  </style>
  <g id="sheet">
    <line x1="15.0" y1="13.5" x2="195.0" y2="13.5" class='hline'/>
    <line x1="15.0" y1="18.5" x2="195.0" y2="18.5" class='hline'/>
    <line x1="15.0" y1="23.5" x2="195.0" y2="23.5" class='hline'/>
    <line x1="15.0" y1="28.5" x2="195.0" y2="28.5" class='hline'/>
    <line x1="15.0" y1="33.5" x2="195.0" y2="33.5" class='hline'/>
    <line x1="15.0" y1="38.5" x2="195.0" y2="38.5" class='hline'/>
    <line x1="15.0" y1="43.5" x2="195.0" y2="43.5" class='hline'/>
    <line x1="15.0" y1="48.5" x2="195.0" y2="48.5" class='hline'/>
    <line x1="15.0" y1="53.5" x2="195.0" y2="53.5" class='hline'/>
    <line x1="15.0" y1="58.5" x2="195.0" y2="58.5" class='hline'/>
    <line x1="15.0" y1="63.5" x2="195.0" y2="63.5" class='hline'/>
    <line x1="15.0" y1="68.5" x2="195.0" y2="68.5" class='hline'/>
    <line x1="15.0" y1="73.5" x2="195.0" y2="73.5" class='hline'/>
    <line x1="15.0" y1="78.5" x2="195.0" y2="78.5" class='hline'/>
    <line x1="15.0" y1="83.5" x2="195.0" y2="83.5" class='hline'/>
    <line x1="15.0" y1="88.5" x2="195.0" y2="88.5" class='hline'/>
    <line x1="15.0" y1="93.5" x2="195.0" y2="93.5" class='hline'/>
    <line x1="15.0" y1="98.5" x2="195.0" y2="98.5" class='hline'/>
    <line x1="15.0" y1="103.5" x2="195.0" y2="103.5" class='hline'/>
    <line x1="15.0" y1="108.5" x2="195.0" y2="108.5" class='hline'/>
    <line x1="15.0" y1="113.5" x2="195.0" y2="113.5" class='hline'/>
    <line x1="15.0" y1="118.5" x2="195.0" y2="118.5" class='hline'/>
    <line x1="15.0" y1="123.5" x2="195.0" y2="123.5" class='hline'/>
    <line x1="15.0" y1="128.5" x2="195.0" y2="128.5" class='hline'/>
    <line x1="15.0" y1="133.5" x2="195.0" y2="133.5" class='hline'/>
    <line x1="15.0" y1="138.5" x2="195.0" y2="138.5" class='hline'/>
    <line x1="15.0" y1="143.5" x2="195.0" y2="143.5" class='hline'/>
    <line x1="15.0" y1="148.5" x2="195.0" y2="148.5" class='hline'/>
    <line x1="15.0" y1="153.5" x2="195.0" y2="153.5" class='hline'/>
    <line x1="15.0" y1="158.5" x2="195.0" y2="158.5" class='hline'/>
    <line x1="15.0" y1="163.5" x2="195.0" y2="163.5" class='hline'/>
    <line x1="15.0" y1="168.5" x2="195.0" y2="168.5" class='hline'/>
    <line x1="15.0" y1="173.5" x2="195.0" y2="173.5" class='hline'/>
    <line x1="15.0" y1="178.5" x2="195.0" y2="178.5" class='hline'/>
    <line x1="15.0" y1="183.5" x2="195.0" y2="183.5" class='hline'/>
    <line x1="15.0" y1="188.5" x2="195.0" y2="188.5" class='hline'/>
    <line x1="15.0" y1="193.5" x2="195.0" y2="193.5" class='hline'/>
    <line x1="15.0" y1="198.5" x2="195.0" y2="198.5" class='hline'/>
    <line x1="15.0" y1="203.5" x2="195.0" y2="203.5" class='hline'/>
    <line x1="15.0" y1="208.5" x2="195.0" y2="208.5" class='hline'/>
    <line x1="15.0" y1="213.5" x2="195.0" y2="213.5" class='hline'/>
    <line x1="15.0" y1="218.5" x2="195.0" y2="218.5" class='hline'/>
    <line x1="15.0" y1="223.5" x2="195.0" y2="223.5" class='hline'/>
    <line x1="15.0" y1="228.5" x2="195.0" y2="228.5" class='hline'/>
    <line x1="15.0" y1="233.5" x2="195.0" y2="233.5" class='hline'/>
    <line x1="15.0" y1="238.5" x2="195.0" y2="238.5" class='hline'/>
    <line x1="15.0" y1="243.5" x2="195.0" y2="243.5" class='hline'/>
    <line x1="15.0" y1="248.5" x2="195.0" y2="248.5" class='hline'/>
    <line x1="15.0" y1="253.5" x2="195.0" y2="253.5" class='hline'/>
    <line x1="15.0" y1="258.5" x2="195.0" y2="258.5" class='hline'/>
    <line x1="15.0" y1="263.5" x2="195.0" y2="263.5" class='hline'/>
    <line x1="15.0" y1="268.5" x2="195.0" y2="268.5" class='hline'/>
    <line x1="15.0" y1="273.5" x2="195.0" y2="273.5" class='hline'/>
    <line x1="15.0" y1="278.5" x2="195.0" y2="278.5" class='hline'/>
    <line x1="15.0" y1="283.5" x2="195.0" y2="283.5" class='hline'/>
    <line x1="15.0" y1="13.5" x2="15.0" y2="283.5" class='vline'/>
    <line x1="20.0" y1="13.5" x2="20.0" y2="283.5" class='vline'/>
    <line x1="25.0" y1="13.5" x2="25.0" y2="283.5" class='vline'/>
    <line x1="30.0" y1="13.5" x2="30.0" y2="283.5" class='vline'/>
    <line x1="35.0" y1="13.5" x2="35.0" y2="283.5" class='vline'/>
    <line x1="40.0" y1="13.5" x2="40.0" y2="283.5" class='vline'/>
    <line x1="45.0" y1="13.5" x2="45.0" y2="283.5" class='vline'/>
    <line x1="50.0" y1="13.5" x2="50.0" y2="283.5" class='vline'/>
    <line x1="55.0" y1="13.5" x2="55.0" y2="283.5" class='vline'/>
    <line x1="60.0" y1="13.5" x2="60.0" y2="283.5" class='vline'/>
    <line x1="65.0" y1="13.5" x2="65.0" y2="283.5" class='vline'/>
    <line x1="70.0" y1="13.5" x2="70.0" y2="283.5" class='vline'/>
    <line x1="75.0" y1="13.5" x2="75.0" y2="283.5" class='vline'/>
    <line x1="80.0" y1="13.5" x2="80.0" y2="283.5" class='vline'/>
    <line x1="85.0" y1="13.5" x2="85.0" y2="283.5" class='vline'/>
    <line x1="90.0" y1="13.5" x2="90.0" y2="283.5" class='vline'/>
    <line x1="95.0" y1="13.5" x2="95.0" y2="283.5" class='vline'/>
    <line x1="100.0" y1="13.5" x2="100.0" y2="283.5" class='vline'/>
    <line x1="105.0" y1="13.5" x2="105.0" y2="283.5" class='vline'/>
    <line x1="110.0" y1="13.5" x2="110.0" y2="283.5" class='vline'/>
    <line x1="115.0" y1="13.5" x2="115.0" y2="283.5" class='vline'/>
    <line x1="120.0" y1="13.5" x2="120.0" y2="283.5" class='vline'/>
    <line x1="125.0" y1="13.5" x2="125.0" y2="283.5" class='vline'/>
    <line x1="130.0" y1="13.5" x2="130.0" y2="283.5" class='vline'/>
    <line x1="135.0" y1="13.5" x2="135.0" y2="283.5" class='vline'/>
    <line x1="140.0" y1="13.5" x2="140.0" y2="283.5" class='vline'/>
    <line x1="145.0" y1="13.5" x2="145.0" y2="283.5" class='vline'/>
    <line x1="150.0" y1="13.5" x2="150.0" y2="283.5" class='vline'/>
    <line x1="155.0" y1="13.5" x2="155.0" y2="283.5" class='vline'/>
    <line x1="160.0" y1="13.5" x2="160.0" y2="283.5" class='vline'/>
    <line x1="165.0" y1="13.5" x2="165.0" y2="283.5" class='vline'/>
    <line x1="170.0" y1="13.5" x2="170.0" y2="283.5" class='vline'/>
    <line x1="175.0" y1="13.5" x2="175.0" y2="283.5" class='vline'/>
    <line x1="180.0" y1="13.5" x2="180.0" y2="283.5" class='vline'/>
    <line x1="185.0" y1="13.5" x2="185.0" y2="283.5" class='vline'/>
    <line x1="190.0" y1="13.5" x2="190.0" y2="283.5" class='vline'/>
    <line x1="195.0" y1="13.5" x2="195.0" y2="283.5" class='vline'/>
    <line x1="15.0" y1="13.5" x2="15.0" y2="13.5" class='slant fine'/>
    <line x1="15.0" y1="21.21017" x2="21.02385" y2="13.5" class='slant fine'/>
    <line x1="15.0" y1="28.92034" x2="27.04769" y2="13.5" class='slant fine'/>
    <line x1="15.0" y1="36.63051" x2="33.07154" y2="13.5" class='slant fine'/>
    <line x1="15.0" y1="44.34068" x2="39.09538" y2="13.5" class='slant fine'/>
    <line x1="15.0" y1="52.05085" x2="45.11923" y2="13.5" class='slant fine'/>
    <line x1="15.0" y1="59.76103" x2="51.14307" y2="13.5" class='slant fine'/>
    <line x1="15.0" y1="67.4712" x2="57.16692" y2="13.5" class='slant fine'/>
    <line x1="15.0" y1="75.18137" x2="63.19077" y2="13.5" class='slant fine'/>
    <line x1="15.0" y1="82.89154" x2="69.21461" y2="13.5" class='slant fine'/>
    <line x1="15.0" y1="90.60171" x2="75.23846" y2="13.5" class='slant fine'/>
    <line x1="15.0" y1="98.31188" x2="81.2623" y2="13.5" class='slant fine'/>
    <line x1="15.0" y1="106.02205" x2="87.28615" y2="13.5" class='slant fine'/>
    <line x1="15.0" y1="113.73222" x2="93.30999" y2="13.5" class='slant fine'/>
    <line x1="15.0" y1="121.44239" x2="99.33384" y2="13.5" class='slant fine'/>
    <line x1="15.0" y1="129.15256" x2="105.35768" y2="13.5" class='slant fine'/>
    <line x1="15.0" y1="136.86273" x2="111.38153" y2="13.5" class='slant fine'/>
    <line x1="15.0" y1="144.5729" x2="117.40538" y2="13.5" class='slant fine'/>
    <line x1="15.0" y1="152.28308" x2="123.42922" y2="13.5" class='slant fine'/>
    <line x1="15.0" y1="159.99325" x2="129.45307" y2="13.5" class='slant fine'/>
    <line x1="15.0" y1="167.70342" x2="135.47691" y2="13.5" class='slant fine'/>
    <line x1="15.0" y1="175.41359" x2="141.50076" y2="13.5" class='slant fine'/>
    <line x1="15.0" y1="183.12376" x2="147.5246" y2="13.5" class='slant fine'/>
    <line x1="15.0" y1="190.83393" x2="153.54845" y2="13.5" class='slant fine'/>
    <line x1="15.0" y1="198.5441" x2="159.5723" y2="13.5" class='slant fine'/>
    <line x1="15.0" y1="206.25427" x2="165.59614" y2="13.5" class='slant fine'/>
    <line x1="15.0" y1="213.96444" x2="171.61999" y2="13.5" class='slant fine'/>
    <line x1="15.0" y1="221.67461" x2="177.64383" y2="13.5" class='slant fine'/>
    <line x1="15.0" y1="229.38478" x2="183.66768" y2="13.5" class='slant fine'/>
    <line x1="15.0" y1="237.09495" x2="189.69152" y2="13.5" class='slant fine'/>
    <line x1="15.0" y1="244.80513" x2="195.0" y2="14.41563" class='slant fine'/>
    <line x1="15.0" y1="252.5153" x2="195.0" y2="22.1258" class='slant fine'/>
    <line x1="15.0" y1="260.22547" x2="195.0" y2="29.83597" class='slant fine'/>
    <line x1="15.0" y1="267.93564" x2="195.0" y2="37.54614" class='slant fine'/>
    <line x1="15.0" y1="275.64581" x2="195.0" y2="45.25631" class='slant fine'/>
    <line x1="15.0" y1="283.35598" x2="195.0" y2="52.96649" class='slant fine'/>
    <line x1="20.91132" y1="283.5" x2="195.0" y2="60.67666" class='slant fine'/>
    <line x1="26.93517" y1="283.5" x2="195.0" y2="68.38683" class='slant fine'/>
    <line x1="32.95902" y1="283.5" x2="195.0" y2="76.097" class='slant fine'/>
    <line x1="38.98286" y1="283.5" x2="195.0" y2="83.80717" class='slant fine'/>
    <line x1="45.00671" y1="283.5" x2="195.0" y2="91.51734" class='slant fine'/>
    <line x1="51.03055" y1="283.5" x2="195.0" y2="99.22751" class='slant fine'/>
    <line x1="57.0544" y1="283.5" x2="195.0" y2="106.93768" class='slant fine'/>
    <line x1="63.07824" y1="283.5" x2="195.0" y2="114.64785" class='slant fine'/>
    <line x1="69.10209" y1="283.5" x2="195.0" y2="122.35802" class='slant fine'/>
    <line x1="75.12594" y1="283.5" x2="195.0" y2="130.06819" class='slant fine'/>
    <line x1="81.14978" y1="283.5" x2="195.0" y2="137.77837" class='slant fine'/>
    <line x1="87.17363" y1="283.5" x2="195.0" y2="145.48854" class='slant fine'/>
    <line x1="93.19747" y1="283.5" x2="195.0" y2="153.19871" class='slant fine'/>
    <line x1="99.22132" y1="283.5" x2="195.0" y2="160.90888" class='slant fine'/>
    <line x1="105.24516" y1="283.5" x2="195.0" y2="168.61905" class='slant fine'/>
    <line x1="111.26901" y1="283.5" x2="195.0" y2="176.32922" class='slant fine'/>
    <line x1="117.29286" y1="283.5" x2="195.0" y2="184.03939" class='slant fine'/>
    <line x1="123.3167" y1="283.5" x2="195.0" y2="191.74956" class='slant fine'/>
    <line x1="129.34055" y1="283.5" x2="195.0" y2="199.45973" class='slant fine'/>
    <line x1="135.36439" y1="283.5" x2="195.0" y2="207.1699" class='slant fine'/>
    <line x1="141.38824" y1="283.5" x2="195.0" y2="214.88007" class='slant fine'/>
    <line x1="147.41208" y1="283.5" x2="195.0" y2="222.59024" class='slant fine'/>
    <line x1="153.43593" y1="283.5" x2="195.0" y2="230.30042" class='slant fine'/>
    <line x1="159.45977" y1="283.5" x2="195.0" y2="238.01059" class='slant fine'/>
    <line x1="165.48362" y1="283.5" x2="195.0" y2="245.72076" class='slant fine'/>
    <line x1="171.50747" y1="283.5" x2="195.0" y2="253.43093" class='slant fine'/>
    <line x1="177.53131" y1="283.5" x2="195.0" y2="261.1411" class='slant fine'/>
    <line x1="183.55516" y1="283.5" x2="195.0" y2="268.85127" class='slant fine'/>
    <line x1="189.579" y1="283.5" x2="195.0" y2="276.56144" class='slant fine'/>
    <line x1="15.0" y1="19.26153" x2="24.97927" y2="13.5" class='connective fine dashed'/>
    <line x1="15.0" y1="25.02307" x2="34.95854" y2="13.5" class='connective fine dashed'/>
    <line x1="15.0" y1="30.7846" x2="44.9378" y2="13.5" class='connective fine dashed'/>
    <line x1="15.0" y1="36.54613" x2="54.91707" y2="13.5" class='connective fine dashed'/>
    <line x1="15.0" y1="42.30767" x2="64.89634" y2="13.5" class='connective fine dashed'/>
    <line x1="15.0" y1="48.0692" x2="74.87561" y2="13.5" class='connective fine dashed'/>
    <line x1="15.0" y1="53.83073" x2="84.85488" y2="13.5" class='connective fine dashed'/>
    <line x1="15.0" y1="59.59226" x2="94.83414" y2="13.5" class='connective fine dashed'/>
    <line x1="15.0" y1="65.3538" x2="104.81341" y2="13.5" class='connective fine dashed'/>
    <line x1="15.0" y1="71.11533" x2="114.79268" y2="13.5" class='connective fine dashed'/>
    <line x1="15.0" y1="76.87686" x2="124.77195" y2="13.5" class='connective fine dashed'/>
    <line x1="15.0" y1="82.6384" x2="134.75121" y2="13.5" class='connective fine dashed'/>
    <line x1="15.0" y1="88.39993" x2="144.73048" y2="13.5" class='connective fine dashed'/>
    <line x1="15.0" y1="94.16146" x2="154.70975" y2="13.5" class='connective fine dashed'/>
    <line x1="15.0" y1="99.923" x2="164.68902" y2="13.5" class='connective fine dashed'/>
    <line x1="15.0" y1="105.68453" x2="174.66829" y2="13.5" class='connective fine dashed'/>
    <line x1="15.0" y1="111.44606" x2="184.64755" y2="13.5" class='connective fine dashed'/>
    <line x1="15.0" y1="117.20759" x2="194.62682" y2="13.5" class='connective fine dashed'/>
    <line x1="15.0" y1="122.96913" x2="195.0" y2="19.04608" class='connective fine dashed'/>
    <line x1="15.0" y1="128.73066" x2="195.0" y2="24.80761" class='connective fine dashed'/>
    <line x1="15.0" y1="134.49219" x2="195.0" y2="30.56914" class='connective fine dashed'/>
    <line x1="15.0" y1="140.25373" x2="195.0" y2="36.33068" class='connective fine dashed'/>
    <line x1="15.0" y1="146.01526" x2="195.0" y2="42.09221" class='connective fine dashed'/>
    <line x1="15.0" y1="151.77679" x2="195.0" y2="47.85374" class='connective fine dashed'/>
    <line x1="15.0" y1="157.53833" x2="195.0" y2="53.61528" class='connective fine dashed'/>
    <line x1="15.0" y1="163.29986" x2="195.0" y2="59.37681" class='connective fine dashed'/>
    <line x1="15.0" y1="169.06139" x2="195.0" y2="65.13834" class='connective fine dashed'/>
    <line x1="15.0" y1="174.82292" x2="195.0" y2="70.89988" class='connective fine dashed'/>
    <line x1="15.0" y1="180.58446" x2="195.0" y2="76.66141" class='connective fine dashed'/>
    <line x1="15.0" y1="186.34599" x2="195.0" y2="82.42294" class='connective fine dashed'/>
    <line x1="15.0" y1="192.10752" x2="195.0" y2="88.18447" class='connective fine dashed'/>
    <line x1="15.0" y1="197.86906" x2="195.0" y2="93.94601" class='connective fine dashed'/>
    <line x1="15.0" y1="203.63059" x2="195.0" y2="99.70754" class='connective fine dashed'/>
    <line x1="15.0" y1="209.39212" x2="195.0" y2="105.46907" class='connective fine dashed'/>
    <line x1="15.0" y1="215.15366" x2="195.0" y2="111.23061" class='connective fine dashed'/>
    <line x1="15.0" y1="220.91519" x2="195.0" y2="116.99214" class='connective fine dashed'/>
    <line x1="15.0" y1="226.67672" x2="195.0" y2="122.75367" class='connective fine dashed'/>
    <line x1="15.0" y1="232.43825" x2="195.0" y2="128.51521" class='connective fine dashed'/>
    <line x1="15.0" y1="238.19979" x2="195.0" y2="134.27674" class='connective fine dashed'/>
    <line x1="15.0" y1="243.96132" x2="195.0" y2="140.03827" class='connective fine dashed'/>
    <line x1="15.0" y1="249.72285" x2="195.0" y2="145.7998" class='connective fine dashed'/>
    <line x1="15.0" y1="255.48439" x2="195.0" y2="151.56134" class='connective fine dashed'/>
    <line x1="15.0" y1="261.24592" x2="195.0" y2="157.32287" class='connective fine dashed'/>
    <line x1="15.0" y1="267.00745" x2="195.0" y2="163.0844" class='connective fine dashed'/>
    <line x1="15.0" y1="272.76899" x2="195.0" y2="168.84594" class='connective fine dashed'/>
    <line x1="15.0" y1="278.53052" x2="195.0" y2="174.60747" class='connective fine dashed'/>
    <line x1="16.37187" y1="283.5" x2="195.0" y2="180.369" class='connective fine dashed'/>
    <line x1="26.35114" y1="283.5" x2="195.0" y2="186.13054" class='connective fine dashed'/>
    <line x1="36.33041" y1="283.5" x2="195.0" y2="191.89207" class='connective fine dashed'/>
    <line x1="46.30968" y1="283.5" x2="195.0" y2="197.6536" class='connective fine dashed'/>
    <line x1="56.28894" y1="283.5" x2="195.0" y2="203.41514" class='connective fine dashed'/>
    <line x1="66.26821" y1="283.5" x2="195.0" y2="209.17667" class='connective fine dashed'/>
    <line x1="76.24748" y1="283.5" x2="195.0" y2="214.9382" class='connective fine dashed'/>
    <line x1="86.22675" y1="283.5" x2="195.0" y2="220.69973" class='connective fine dashed'/>
    <line x1="96.20602" y1="283.5" x2="195.0" y2="226.46127" class='connective fine dashed'/>
    <line x1="106.18528" y1="283.5" x2="195.0" y2="232.2228" class='connective fine dashed'/>
    <line x1="116.16455" y1="283.5" x2="195.0" y2="237.98433" class='connective fine dashed'/>
    <line x1="126.14382" y1="283.5" x2="195.0" y2="243.74587" class='connective fine dashed'/>
    <line x1="136.12309" y1="283.5" x2="195.0" y2="249.5074" class='connective fine dashed'/>
    <line x1="146.10236" y1="283.5" x2="195.0" y2="255.26893" class='connective fine dashed'/>
    <line x1="156.08162" y1="283.5" x2="195.0" y2="261.03047" class='connective fine dashed'/>
    <line x1="166.06089" y1="283.5" x2="195.0" y2="266.792" class='connective fine dashed'/>
    <line x1="176.04016" y1="283.5" x2="195.0" y2="272.55353" class='connective fine dashed'/>
    <line x1="186.01943" y1="283.5" x2="195.0" y2="278.31506" class='connective fine dashed'/>
    <rect width="30.0" height="30.0" x="15.0" y="13.5" fill='none' class='square extrabroad'/>
    <rect width="30.0" height="30.0" x="45.0" y="13.5" fill='none' class='square extrabroad'/>
    <rect width="30.0" height="30.0" x="75.0" y="13.5" fill='none' class='square extrabroad'/>
    <rect width="30.0" height="30.0" x="105.0" y="13.5" fill='none' class='square extrabroad'/>
    <rect width="30.0" height="30.0" x="135.0" y="13.5" fill='none' class='square extrabroad'/>
    <rect width="30.0" height="30.0" x="165.0" y="13.5" fill='none' class='square extrabroad'/>
    <rect width="30.0" height="30.0" x="15.0" y="43.5" fill='none' class='square extrabroad'/>
    <rect width="30.0" height="30.0" x="45.0" y="43.5" fill='none' class='square extrabroad'/>
    <rect width="30.0" height="30.0" x="75.0" y="43.5" fill='none' class='square extrabroad'/>
    <rect width="30.0" height="30.0" x="105.0" y="43.5" fill='none' class='square extrabroad'/>
    <rect width="30.0" height="30.0" x="135.0" y="43.5" fill='none' class='square extrabroad'/>
    <rect width="30.0" height="30.0" x="165.0" y="43.5" fill='none' class='square extrabroad'/>
    <rect width="30.0" height="30.0" x="15.0" y="73.5" fill='none' class='square extrabroad'/>
    <rect width="30.0" height="30.0" x="45.0" y="73.5" fill='none' class='square extrabroad'/>
    <rect width="30.0" height="30.0" x="75.0" y="73.5" fill='none' class='square extrabroad'/>
    <rect width="30.0" height="30.0" x="105.0" y="73.5" fill='none' class='square extrabroad'/>
    <rect width="30.0" height="30.0" x="135.0" y="73.5" fill='none' class='square extrabroad'/>
    <rect width="30.0" height="30.0" x="165.0" y="73.5" fill='none' class='square extrabroad'/>
    <rect width="30.0" height="30.0" x="15.0" y="103.5" fill='none' class='square extrabroad'/>
    <rect width="30.0" height="30.0" x="45.0" y="103.5" fill='none' class='square extrabroad'/>
    <rect width="30.0" height="30.0" x="75.0" y="103.5" fill='none' class='square extrabroad'/>
    <rect width="30.0" height="30.0" x="105.0" y="103.5" fill='none' class='square extrabroad'/>
    <rect width="30.0" height="30.0" x="135.0" y="103.5" fill='none' class='square extrabroad'/>
    <rect width="30.0" height="30.0" x="165.0" y="103.5" fill='none' class='square extrabroad'/>
    <rect width="30.0" height="30.0" x="15.0" y="133.5" fill='none' class='square extrabroad'/>
    <rect width="30.0" height="30.0" x="45.0" y="133.5" fill='none' class='square extrabroad'/>
    <rect width="30.0" height="30.0" x="75.0" y="133.5" fill='none' class='square extrabroad'/>
    <rect width="30.0" height="30.0" x="105.0" y="133.5" fill='none' class='square extrabroad'/>
    <rect width="30.0" height="30.0" x="135.0" y="133.5" fill='none' class='square extrabroad'/>
    <rect width="30.0" height="30.0" x="165.0" y="133.5" fill='none' class='square extrabroad'/>
    <rect width="30.0" height="30.0" x="15.0" y="163.5" fill='none' class='square extrabroad'/>
    <rect width="30.0" height="30.0" x="45.0" y="163.5" fill='none' class='square extrabroad'/>
    <rect width="30.0" height="30.0" x="75.0" y="163.5" fill='none' class='square extrabroad'/>
    <rect width="30.0" height="30.0" x="105.0" y="163.5" fill='none' class='square extrabroad'/>
    <rect width="30.0" height="30.0" x="135.0" y="163.5" fill='none' class='square extrabroad'/>
    <rect width="30.0" height="30.0" x="165.0" y="163.5" fill='none' class='square extrabroad'/>
    <rect width="30.0" height="30.0" x="15.0" y="193.5" fill='none' class='square extrabroad'/>
    <rect width="30.0" height="30.0" x="45.0" y="193.5" fill='none' class='square extrabroad'/>
    <rect width="30.0" height="30.0" x="75.0" y="193.5" fill='none' class='square extrabroad'/>
    <rect width="30.0" height="30.0" x="105.0" y="193.5" fill='none' class='square extrabroad'/>
    <rect width="30.0" height="30.0" x="135.0" y="193.5" fill='none' class='square extrabroad'/>
    <rect width="30.0" height="30.0" x="165.0" y="193.5" fill='none' class='square extrabroad'/>
    <rect width="30.0" height="30.0" x="15.0" y="223.5" fill='none' class='square extrabroad'/>
    <rect width="30.0" height="30.0" x="45.0" y="223.5" fill='none' class='square extrabroad'/>
    <rect width="30.0" height="30.0" x="75.0" y="223.5" fill='none' class='square extrabroad'/>
    <rect width="30.0" height="30.0" x="105.0" y="223.5" fill='none' class='square extrabroad'/>
    <rect width="30.0" height="30.0" x="135.0" y="223.5" fill='none' class='square extrabroad'/>
    <rect width="30.0" height="30.0" x="165.0" y="223.5" fill='none' class='square extrabroad'/>
    <rect width="30.0" height="30.0" x="15.0" y="253.5" fill='none' class='square extrabroad'/>
    <rect width="30.0" height="30.0" x="45.0" y="253.5" fill='none' class='square extrabroad'/>
    <rect width="30.0" height="30.0" x="75.0" y="253.5" fill='none' class='square extrabroad'/>
    <rect width="30.0" height="30.0" x="105.0" y="253.5" fill='none' class='square extrabroad'/>
    <rect width="30.0" height="30.0" x="135.0" y="253.5" fill='none' class='square extrabroad'/>
    <rect width="30.0" height="30.0" x="165.0" y="253.5" fill='none' class='square extrabroad'/>
  </g>
</svg>
