<?xml version="1.0" standalone="no"?>
<!DOCTYPE svg PUBLIC "-//W3C//DTD SVG 1.1//EN" "http://www.w3.org/Graphics/SVG/1.1/DTD/svg11.dtd">
<svg xmlns="http://www.w3.org/2000/svg" width="210.0mm" height="297.0mm" viewBox="0 0 210.0 297.0" >

  <g id="sheet">
    <line x1="25.0" y1="28.5" x2="185.0" y2="28.5" stroke='blue' stroke-width='0.1' tags='hline'/>
    <line x1="25.0" y1="33.5" x2="185.0" y2="33.5" stroke='blue' stroke-width='0.1' tags='hline'/>
    <line x1="25.0" y1="38.5" x2="185.0" y2="38.5" stroke='blue' stroke-width='0.1' tags='hline'/>
    <line x1="25.0" y1="43.5" x2="185.0" y2="43.5" stroke='blue' stroke-width='0.1' tags='hline'/>
    <line x1="25.0" y1="48.5" x2="185.0" y2="48.5" stroke='blue' stroke-width='0.1' tags='hline'/>
    <line x1="25.0" y1="53.5" x2="185.0" y2="53.5" stroke='blue' stroke-width='0.1' tags='hline'/>
    <line x1="25.0" y1="58.5" x2="185.0" y2="58.5" stroke='blue' stroke-width='0.1' tags='hline'/>
    <line x1="25.0" y1="63.5" x2="185.0" y2="63.5" stroke='blue' stroke-width='0.1' tags='hline'/>
    <line x1="25.0" y1="68.5" x2="185.0" y2="68.5" stroke='blue' stroke-width='0.1' tags='hline'/>
    <line x1="25.0" y1="73.5" x2="185.0" y2="73.5" stroke='blue' stroke-width='0.1' tags='hline'/>
    <line x1="25.0" y1="78.5" x2="185.0" y2="78.5" stroke='blue' stroke-width='0.1' tags='hline'/>
    <line x1="25.0" y1="83.5" x2="185.0" y2="83.5" stroke='blue' stroke-width='0.1' tags='hline'/>
    <line x1="25.0" y1="88.5" x2="185.0" y2="88.5" stroke='blue' stroke-width='0.1' tags='hline'/>
    <line x1="25.0" y1="93.5" x2="185.0" y2="93.5" stroke='blue' stroke-width='0.1' tags='hline'/>
    <line x1="25.0" y1="98.5" x2="185.0" y2="98.5" stroke='blue' stroke-width='0.1' tags='hline'/>
    <line x1="25.0" y1="103.5" x2="185.0" y2="103.5" stroke='blue' stroke-width='0.1' tags='hline'/>
    <line x1="25.0" y1="108.5" x2="185.0" y2="108.5" stroke='blue' stroke-width='0.1' tags='hline'/>
    <line x1="25.0" y1="113.5" x2="185.0" y2="113.5" stroke='blue' stroke-width='0.1' tags='hline'/>
    <line x1="25.0" y1="118.5" x2="185.0" y2="118.5" stroke='blue' stroke-width='0.1' tags='hline'/>
    <line x1="25.0" y1="123.5" x2="185.0" y2="123.5" stroke='blue' stroke-width='0.1' tags='hline'/>
    <line x1="25.0" y1="128.5" x2="185.0" y2="128.5" stroke='blue' stroke-width='0.1' tags='hline'/>
    <line x1="25.0" y1="133.5" x2="185.0" y2="133.5" stroke='blue' stroke-width='0.1' tags='hline'/>
    <line x1="25.0" y1="138.5" x2="185.0" y2="138.5" stroke='blue' stroke-width='0.1' tags='hline'/>
    <line x1="25.0" y1="143.5" x2="185.0" y2="143.5" stroke='blue' stroke-width='0.1' tags='hline'/>
    <line x1="25.0" y1="148.5" x2="185.0" y2="148.5" stroke='blue' stroke-width='0.1' tags='hline'/>
    <line x1="25.0" y1="153.5" x2="185.0" y2="153.5" stroke='blue' stroke-width='0.1' tags='hline'/>
    <line x1="25.0" y1="158.5" x2="185.0" y2="158.5" stroke='blue' stroke-width='0.1' tags='hline'/>
    <line x1="25.0" y1="163.5" x2="185.0" y2="163.5" stroke='blue' stroke-width='0.1' tags='hline'/>
    <line x1="25.0" y1="168.5" x2="185.0" y2="168.5" stroke='blue' stroke-width='0.1' tags='hline'/>
    <line x1="25.0" y1="173.5" x2="185.0" y2="173.5" stroke='blue' stroke-width='0.1' tags='hline'/>
    <line x1="25.0" y1="178.5" x2="185.0" y2="178.5" stroke='blue' stroke-width='0.1' tags='hline'/>
    <line x1="25.0" y1="183.5" x2="185.0" y2="183.5" stroke='blue' stroke-width='0.1' tags='hline'/>
    <line x1="25.0" y1="188.5" x2="185.0" y2="188.5" stroke='blue' stroke-width='0.1' tags='hline'/>
    <line x1="25.0" y1="193.5" x2="185.0" y2="193.5" stroke='blue' stroke-width='0.1' tags='hline'/>
    <line x1="25.0" y1="198.5" x2="185.0" y2="198.5" stroke='blue' stroke-width='0.1' tags='hline'/>
    <line x1="25.0" y1="203.5" x2="185.0" y2="203.5" stroke='blue' stroke-width='0.1' tags='hline'/>
    <line x1="25.0" y1="208.5" x2="185.0" y2="208.5" stroke='blue' stroke-width='0.1' tags='hline'/>
    <line x1="25.0" y1="213.5" x2="185.0" y2="213.5" stroke='blue' stroke-width='0.1' tags='hline'/>
    <line x1="25.0" y1="218.5" x2="185.0" y2="218.5" stroke='blue' stroke-width='0.1' tags='hline'/>
    <line x1="25.0" y1="223.5" x2="185.0" y2="223.5" stroke='blue' stroke-width='0.1' tags='hline'/>
    <line x1="25.0" y1="228.5" x2="185.0" y2="228.5" stroke='blue' stroke-width='0.1' tags='hline'/>
    <line x1="25.0" y1="233.5" x2="185.0" y2="233.5" stroke='blue' stroke-width='0.1' tags='hline'/>
    <line x1="25.0" y1="238.5" x2="185.0" y2="238.5" stroke='blue' stroke-width='0.1' tags='hline'/>
    <line x1="25.0" y1="243.5" x2="185.0" y2="243.5" stroke='blue' stroke-width='0.1' tags='hline'/>
    <line x1="25.0" y1="248.5" x2="185.0" y2="248.5" stroke='blue' stroke-width='0.1' tags='hline'/>
    <line x1="25.0" y1="253.5" x2="185.0" y2="253.5" stroke='blue' stroke-width='0.1' tags='hline'/>
    <line x1="25.0" y1="258.5" x2="185.0" y2="258.5" stroke='blue' stroke-width='0.1' tags='hline'/>
    <line x1="25.0" y1="263.5" x2="185.0" y2="263.5" stroke='blue' stroke-width='0.1' tags='hline'/>
    <line x1="25.0" y1="268.5" x2="185.0" y2="268.5" stroke='blue' stroke-width='0.1' tags='hline'/>
    <line x1="25.0" y1="28.5" x2="25.0" y2="268.5" stroke='blue' stroke-width='0.1' tags='vline'/>
    <line x1="30.0" y1="28.5" x2="30.0" y2="268.5" stroke='blue' stroke-width='0.1' tags='vline'/>
    <line x1="35.0" y1="28.5" x2="35.0" y2="268.5" stroke='blue' stroke-width='0.1' tags='vline'/>
    <line x1="40.0" y1="28.5" x2="40.0" y2="268.5" stroke='blue' stroke-width='0.1' tags='vline'/>
    <line x1="45.0" y1="28.5" x2="45.0" y2="268.5" stroke='blue' stroke-width='0.1' tags='vline'/>
    <line x1="50.0" y1="28.5" x2="50.0" y2="268.5" stroke='blue' stroke-width='0.1' tags='vline'/>
    <line x1="55.0" y1="28.5" x2="55.0" y2="268.5" stroke='blue' stroke-width='0.1' tags='vline'/>
    <line x1="60.0" y1="28.5" x2="60.0" y2="268.5" stroke='blue' stroke-width='0.1' tags='vline'/>
    <line x1="65.0" y1="28.5" x2="65.0" y2="268.5" stroke='blue' stroke-width='0.1' tags='vline'/>
    <line x1="70.0" y1="28.5" x2="70.0" y2="268.5" stroke='blue' stroke-width='0.1' tags='vline'/>
    <line x1="75.0" y1="28.5" x2="75.0" y2="268.5" stroke='blue' stroke-width='0.1' tags='vline'/>
    <line x1="80.0" y1="28.5" x2="80.0" y2="268.5" stroke='blue' stroke-width='0.1' tags='vline'/>
    <line x1="85.0" y1="28.5" x2="85.0" y2="268.5" stroke='blue' stroke-width='0.1' tags='vline'/>
    <line x1="90.0" y1="28.5" x2="90.0" y2="268.5" stroke='blue' stroke-width='0.1' tags='vline'/>
    <line x1="95.0" y1="28.5" x2="95.0" y2="268.5" stroke='blue' stroke-width='0.1' tags='vline'/>
    <line x1="100.0" y1="28.5" x2="100.0" y2="268.5" stroke='blue' stroke-width='0.1' tags='vline'/>
    <line x1="105.0" y1="28.5" x2="105.0" y2="268.5" stroke='blue' stroke-width='0.1' tags='vline'/>
    <line x1="110.0" y1="28.5" x2="110.0" y2="268.5" stroke='blue' stroke-width='0.1' tags='vline'/>
    <line x1="115.0" y1="28.5" x2="115.0" y2="268.5" stroke='blue' stroke-width='0.1' tags='vline'/>
    <line x1="120.0" y1="28.5" x2="120.0" y2="268.5" stroke='blue' stroke-width='0.1' tags='vline'/>
    <line x1="125.0" y1="28.5" x2="125.0" y2="268.5" stroke='blue' stroke-width='0.1' tags='vline'/>
    <line x1="130.0" y1="28.5" x2="130.0" y2="268.5" stroke='blue' stroke-width='0.1' tags='vline'/>
    <line x1="135.0" y1="28.5" x2="135.0" y2="268.5" stroke='blue' stroke-width='0.1' tags='vline'/>
    <line x1="140.0" y1="28.5" x2="140.0" y2="268.5" stroke='blue' stroke-width='0.1' tags='vline'/>
    <line x1="145.0" y1="28.5" x2="145.0" y2="268.5" stroke='blue' stroke-width='0.1' tags='vline'/>
    <line x1="150.0" y1="28.5" x2="150.0" y2="268.5" stroke='blue' stroke-width='0.1' tags='vline'/>
    <line x1="155.0" y1="28.5" x2="155.0" y2="268.5" stroke='blue' stroke-width='0.1' tags='vline'/>
    <line x1="160.0" y1="28.5" x2="160.0" y2="268.5" stroke='blue' stroke-width='0.1' tags='vline'/>
    <line x1="165.0" y1="28.5" x2="165.0" y2="268.5" stroke='blue' stroke-width='0.1' tags='vline'/>
    <line x1="170.0" y1="28.5" x2="170.0" y2="268.5" stroke='blue' stroke-width='0.1' tags='vline'/>
    <line x1="175.0" y1="28.5" x2="175.0" y2="268.5" stroke='blue' stroke-width='0.1' tags='vline'/>
    <line x1="180.0" y1="28.5" x2="180.0" y2="268.5" stroke='blue' stroke-width='0.1' tags='vline'/>
    <line x1="185.0" y1="28.5" x2="185.0" y2="268.5" stroke='blue' stroke-width='0.1' tags='vline'/>
    <line x1="25.0" y1="28.5" x2="25.0" y2="28.5" stroke='blue' stroke-width='0.1' tags='slant'/>
    <line x1="25.0" y1="36.21017" x2="31.02385" y2="28.5" stroke='blue' stroke-width='0.1' tags='slant'/>
    <line x1="25.0" y1="43.92034" x2="37.04769" y2="28.5" stroke='blue' stroke-width='0.1' tags='slant'/>
    <line x1="25.0" y1="51.63051" x2="43.07154" y2="28.5" stroke='blue' stroke-width='0.1' tags='slant'/>
    <line x1="25.0" y1="59.34068" x2="49.09538" y2="28.5" stroke='blue' stroke-width='0.1' tags='slant'/>
    <line x1="25.0" y1="67.05085" x2="55.11923" y2="28.5" stroke='blue' stroke-width='0.1' tags='slant'/>
    <line x1="25.0" y1="74.76103" x2="61.14307" y2="28.5" stroke='blue' stroke-width='0.1' tags='slant'/>
    <line x1="25.0" y1="82.4712" x2="67.16692" y2="28.5" stroke='blue' stroke-width='0.1' tags='slant'/>
    <line x1="25.0" y1="90.18137" x2="73.19077" y2="28.5" stroke='blue' stroke-width='0.1' tags='slant'/>
    <line x1="25.0" y1="97.89154" x2="79.21461" y2="28.5" stroke='blue' stroke-width='0.1' tags='slant'/>
    <line x1="25.0" y1="105.60171" x2="85.23846" y2="28.5" stroke='blue' stroke-width='0.1' tags='slant'/>
    <line x1="25.0" y1="113.31188" x2="91.2623" y2="28.5" stroke='blue' stroke-width='0.1' tags='slant'/>
    <line x1="25.0" y1="121.02205" x2="97.28615" y2="28.5" stroke='blue' stroke-width='0.1' tags='slant'/>
    <line x1="25.0" y1="128.73222" x2="103.30999" y2="28.5" stroke='blue' stroke-width='0.1' tags='slant'/>
    <line x1="25.0" y1="136.44239" x2="109.33384" y2="28.5" stroke='blue' stroke-width='0.1' tags='slant'/>
    <line x1="25.0" y1="144.15256" x2="115.35768" y2="28.5" stroke='blue' stroke-width='0.1' tags='slant'/>
    <line x1="25.0" y1="151.86273" x2="121.38153" y2="28.5" stroke='blue' stroke-width='0.1' tags='slant'/>
    <line x1="25.0" y1="159.5729" x2="127.40538" y2="28.5" stroke='blue' stroke-width='0.1' tags='slant'/>
    <line x1="25.0" y1="167.28308" x2="133.42922" y2="28.5" stroke='blue' stroke-width='0.1' tags='slant'/>
    <line x1="25.0" y1="174.99325" x2="139.45307" y2="28.5" stroke='blue' stroke-width='0.1' tags='slant'/>
    <line x1="25.0" y1="182.70342" x2="145.47691" y2="28.5" stroke='blue' stroke-width='0.1' tags='slant'/>
    <line x1="25.0" y1="190.41359" x2="151.50076" y2="28.5" stroke='blue' stroke-width='0.1' tags='slant'/>
    <line x1="25.0" y1="198.12376" x2="157.5246" y2="28.5" stroke='blue' stroke-width='0.1' tags='slant'/>
    <line x1="25.0" y1="205.83393" x2="163.54845" y2="28.5" stroke='blue' stroke-width='0.1' tags='slant'/>
    <line x1="25.0" y1="213.5441" x2="169.5723" y2="28.5" stroke='blue' stroke-width='0.1' tags='slant'/>
    <line x1="25.0" y1="221.25427" x2="175.59614" y2="28.5" stroke='blue' stroke-width='0.1' tags='slant'/>
    <line x1="25.0" y1="228.96444" x2="181.61999" y2="28.5" stroke='blue' stroke-width='0.1' tags='slant'/>
    <line x1="25.0" y1="236.67461" x2="185.0" y2="31.88395" stroke='blue' stroke-width='0.1' tags='slant'/>
    <line x1="25.0" y1="244.38478" x2="185.0" y2="39.59412" stroke='blue' stroke-width='0.1' tags='slant'/>
    <line x1="25.0" y1="252.09495" x2="185.0" y2="47.30429" stroke='blue' stroke-width='0.1' tags='slant'/>
    <line x1="25.0" y1="259.80513" x2="185.0" y2="55.01446" stroke='blue' stroke-width='0.1' tags='slant'/>
    <line x1="25.0" y1="267.5153" x2="185.0" y2="62.72464" stroke='blue' stroke-width='0.1' tags='slant'/>
    <line x1="30.25451" y1="268.5" x2="185.0" y2="70.43481" stroke='blue' stroke-width='0.1' tags='slant'/>
    <line x1="36.27836" y1="268.5" x2="185.0" y2="78.14498" stroke='blue' stroke-width='0.1' tags='slant'/>
    <line x1="42.3022" y1="268.5" x2="185.0" y2="85.85515" stroke='blue' stroke-width='0.1' tags='slant'/>
    <line x1="48.32605" y1="268.5" x2="185.0" y2="93.56532" stroke='blue' stroke-width='0.1' tags='slant'/>
    <line x1="54.34989" y1="268.5" x2="185.0" y2="101.27549" stroke='blue' stroke-width='0.1' tags='slant'/>
    <line x1="60.37374" y1="268.5" x2="185.0" y2="108.98566" stroke='blue' stroke-width='0.1' tags='slant'/>
    <line x1="66.39758" y1="268.5" x2="185.0" y2="116.69583" stroke='blue' stroke-width='0.1' tags='slant'/>
    <line x1="72.42143" y1="268.5" x2="185.0" y2="124.406" stroke='blue' stroke-width='0.1' tags='slant'/>
    <line x1="78.44528" y1="268.5" x2="185.0" y2="132.11617" stroke='blue' stroke-width='0.1' tags='slant'/>
    <line x1="84.46912" y1="268.5" x2="185.0" y2="139.82634" stroke='blue' stroke-width='0.1' tags='slant'/>
    <line x1="90.49297" y1="268.5" x2="185.0" y2="147.53651" stroke='blue' stroke-width='0.1' tags='slant'/>
    <line x1="96.51681" y1="268.5" x2="185.0" y2="155.24669" stroke='blue' stroke-width='0.1' tags='slant'/>
    <line x1="102.54066" y1="268.5" x2="185.0" y2="162.95686" stroke='blue' stroke-width='0.1' tags='slant'/>
    <line x1="108.5645" y1="268.5" x2="185.0" y2="170.66703" stroke='blue' stroke-width='0.1' tags='slant'/>
    <line x1="114.58835" y1="268.5" x2="185.0" y2="178.3772" stroke='blue' stroke-width='0.1' tags='slant'/>
    <line x1="120.6122" y1="268.5" x2="185.0" y2="186.08737" stroke='blue' stroke-width='0.1' tags='slant'/>
    <line x1="126.63604" y1="268.5" x2="185.0" y2="193.79754" stroke='blue' stroke-width='0.1' tags='slant'/>
    <line x1="132.65989" y1="268.5" x2="185.0" y2="201.50771" stroke='blue' stroke-width='0.1' tags='slant'/>
    <line x1="138.68373" y1="268.5" x2="185.0" y2="209.21788" stroke='blue' stroke-width='0.1' tags='slant'/>
    <line x1="144.70758" y1="268.5" x2="185.0" y2="216.92805" stroke='blue' stroke-width='0.1' tags='slant'/>
    <line x1="150.73142" y1="268.5" x2="185.0" y2="224.63822" stroke='blue' stroke-width='0.1' tags='slant'/>
    <line x1="156.75527" y1="268.5" x2="185.0" y2="232.34839" stroke='blue' stroke-width='0.1' tags='slant'/>
    <line x1="162.77912" y1="268.5" x2="185.0" y2="240.05856" stroke='blue' stroke-width='0.1' tags='slant'/>
    <line x1="168.80296" y1="268.5" x2="185.0" y2="247.76874" stroke='blue' stroke-width='0.1' tags='slant'/>
    <line x1="174.82681" y1="268.5" x2="185.0" y2="255.47891" stroke='blue' stroke-width='0.1' tags='slant'/>
    <line x1="180.85065" y1="268.5" x2="185.0" y2="263.18908" stroke='blue' stroke-width='0.1' tags='slant'/>
    <line x1="25.0" y1="34.26153" x2="34.97927" y2="28.5" stroke='blue' stroke-width='0.07' stroke-dasharray='2, 2' tags='connective'/>
    <line x1="25.0" y1="40.02307" x2="44.95854" y2="28.5" stroke='blue' stroke-width='0.07' stroke-dasharray='2, 2' tags='connective'/>
    <line x1="25.0" y1="45.7846" x2="54.9378" y2="28.5" stroke='blue' stroke-width='0.07' stroke-dasharray='2, 2' tags='connective'/>
    <line x1="25.0" y1="51.54613" x2="64.91707" y2="28.5" stroke='blue' stroke-width='0.07' stroke-dasharray='2, 2' tags='connective'/>
    <line x1="25.0" y1="57.30767" x2="74.89634" y2="28.5" stroke='blue' stroke-width='0.07' stroke-dasharray='2, 2' tags='connective'/>
    <line x1="25.0" y1="63.0692" x2="84.87561" y2="28.5" stroke='blue' stroke-width='0.07' stroke-dasharray='2, 2' tags='connective'/>
    <line x1="25.0" y1="68.83073" x2="94.85488" y2="28.5" stroke='blue' stroke-width='0.07' stroke-dasharray='2, 2' tags='connective'/>
    <line x1="25.0" y1="74.59226" x2="104.83414" y2="28.5" stroke='blue' stroke-width='0.07' stroke-dasharray='2, 2' tags='connective'/>
    <line x1="25.0" y1="80.3538" x2="114.81341" y2="28.5" stroke='blue' stroke-width='0.07' stroke-dasharray='2, 2' tags='connective'/>
    <line x1="25.0" y1="86.11533" x2="124.79268" y2="28.5" stroke='blue' stroke-width='0.07' stroke-dasharray='2, 2' tags='connective'/>
    <line x1="25.0" y1="91.87686" x2="134.77195" y2="28.5" stroke='blue' stroke-width='0.07' stroke-dasharray='2, 2' tags='connective'/>
    <line x1="25.0" y1="97.6384" x2="144.75121" y2="28.5" stroke='blue' stroke-width='0.07' stroke-dasharray='2, 2' tags='connective'/>
    <line x1="25.0" y1="103.39993" x2="154.73048" y2="28.5" stroke='blue' stroke-width='0.07' stroke-dasharray='2, 2' tags='connective'/>
    <line x1="25.0" y1="109.16146" x2="164.70975" y2="28.5" stroke='blue' stroke-width='0.07' stroke-dasharray='2, 2' tags='connective'/>
    <line x1="25.0" y1="114.923" x2="174.68902" y2="28.5" stroke='blue' stroke-width='0.07' stroke-dasharray='2, 2' tags='connective'/>
    <line x1="25.0" y1="120.68453" x2="184.66829" y2="28.5" stroke='blue' stroke-width='0.07' stroke-dasharray='2, 2' tags='connective'/>
    <line x1="25.0" y1="126.44606" x2="185.0" y2="34.07002" stroke='blue' stroke-width='0.07' stroke-dasharray='2, 2' tags='connective'/>
    <line x1="25.0" y1="132.20759" x2="185.0" y2="39.83155" stroke='blue' stroke-width='0.07' stroke-dasharray='2, 2' tags='connective'/>
    <line x1="25.0" y1="137.96913" x2="185.0" y2="45.59308" stroke='blue' stroke-width='0.07' stroke-dasharray='2, 2' tags='connective'/>
    <line x1="25.0" y1="143.73066" x2="185.0" y2="51.35462" stroke='blue' stroke-width='0.07' stroke-dasharray='2, 2' tags='connective'/>
    <line x1="25.0" y1="149.49219" x2="185.0" y2="57.11615" stroke='blue' stroke-width='0.07' stroke-dasharray='2, 2' tags='connective'/>
    <line x1="25.0" y1="155.25373" x2="185.0" y2="62.87768" stroke='blue' stroke-width='0.07' stroke-dasharray='2, 2' tags='connective'/>
    <line x1="25.0" y1="161.01526" x2="185.0" y2="68.63922" stroke='blue' stroke-width='0.07' stroke-dasharray='2, 2' tags='connective'/>
    <line x1="25.0" y1="166.77679" x2="185.0" y2="74.40075" stroke='blue' stroke-width='0.07' stroke-dasharray='2, 2' tags='connective'/>
    <line x1="25.0" y1="172.53833" x2="185.0" y2="80.16228" stroke='blue' stroke-width='0.07' stroke-dasharray='2, 2' tags='connective'/>
    <line x1="25.0" y1="178.29986" x2="185.0" y2="85.92382" stroke='blue' stroke-width='0.07' stroke-dasharray='2, 2' tags='connective'/>
    <line x1="25.0" y1="184.06139" x2="185.0" y2="91.68535" stroke='blue' stroke-width='0.07' stroke-dasharray='2, 2' tags='connective'/>
    <line x1="25.0" y1="189.82292" x2="185.0" y2="97.44688" stroke='blue' stroke-width='0.07' stroke-dasharray='2, 2' tags='connective'/>
    <line x1="25.0" y1="195.58446" x2="185.0" y2="103.20841" stroke='blue' stroke-width='0.07' stroke-dasharray='2, 2' tags='connective'/>
    <line x1="25.0" y1="201.34599" x2="185.0" y2="108.96995" stroke='blue' stroke-width='0.07' stroke-dasharray='2, 2' tags='connective'/>
    <line x1="25.0" y1="207.10752" x2="185.0" y2="114.73148" stroke='blue' stroke-width='0.07' stroke-dasharray='2, 2' tags='connective'/>
    <line x1="25.0" y1="212.86906" x2="185.0" y2="120.49301" stroke='blue' stroke-width='0.07' stroke-dasharray='2, 2' tags='connective'/>
    <line x1="25.0" y1="218.63059" x2="185.0" y2="126.25455" stroke='blue' stroke-width='0.07' stroke-dasharray='2, 2' tags='connective'/>
    <line x1="25.0" y1="224.39212" x2="185.0" y2="132.01608" stroke='blue' stroke-width='0.07' stroke-dasharray='2, 2' tags='connective'/>
    <line x1="25.0" y1="230.15366" x2="185.0" y2="137.77761" stroke='blue' stroke-width='0.07' stroke-dasharray='2, 2' tags='connective'/>
    <line x1="25.0" y1="235.91519" x2="185.0" y2="143.53915" stroke='blue' stroke-width='0.07' stroke-dasharray='2, 2' tags='connective'/>
    <line x1="25.0" y1="241.67672" x2="185.0" y2="149.30068" stroke='blue' stroke-width='0.07' stroke-dasharray='2, 2' tags='connective'/>
    <line x1="25.0" y1="247.43825" x2="185.0" y2="155.06221" stroke='blue' stroke-width='0.07' stroke-dasharray='2, 2' tags='connective'/>
    <line x1="25.0" y1="253.19979" x2="185.0" y2="160.82374" stroke='blue' stroke-width='0.07' stroke-dasharray='2, 2' tags='connective'/>
    <line x1="25.0" y1="258.96132" x2="185.0" y2="166.58528" stroke='blue' stroke-width='0.07' stroke-dasharray='2, 2' tags='connective'/>
    <line x1="25.0" y1="264.72285" x2="185.0" y2="172.34681" stroke='blue' stroke-width='0.07' stroke-dasharray='2, 2' tags='connective'/>
    <line x1="28.43706" y1="268.5" x2="185.0" y2="178.10834" stroke='blue' stroke-width='0.07' stroke-dasharray='2, 2' tags='connective'/>
    <line x1="38.41633" y1="268.5" x2="185.0" y2="183.86988" stroke='blue' stroke-width='0.07' stroke-dasharray='2, 2' tags='connective'/>
    <line x1="48.39559" y1="268.5" x2="185.0" y2="189.63141" stroke='blue' stroke-width='0.07' stroke-dasharray='2, 2' tags='connective'/>
    <line x1="58.37486" y1="268.5" x2="185.0" y2="195.39294" stroke='blue' stroke-width='0.07' stroke-dasharray='2, 2' tags='connective'/>
    <line x1="68.35413" y1="268.5" x2="185.0" y2="201.15448" stroke='blue' stroke-width='0.07' stroke-dasharray='2, 2' tags='connective'/>
    <line x1="78.3334" y1="268.5" x2="185.0" y2="206.91601" stroke='blue' stroke-width='0.07' stroke-dasharray='2, 2' tags='connective'/>
    <line x1="88.31267" y1="268.5" x2="185.0" y2="212.67754" stroke='blue' stroke-width='0.07' stroke-dasharray='2, 2' tags='connective'/>
    <line x1="98.29193" y1="268.5" x2="185.0" y2="218.43907" stroke='blue' stroke-width='0.07' stroke-dasharray='2, 2' tags='connective'/>
    <line x1="108.2712" y1="268.5" x2="185.0" y2="224.20061" stroke='blue' stroke-width='0.07' stroke-dasharray='2, 2' tags='connective'/>
    <line x1="118.25047" y1="268.5" x2="185.0" y2="229.96214" stroke='blue' stroke-width='0.07' stroke-dasharray='2, 2' tags='connective'/>
    <line x1="128.22974" y1="268.5" x2="185.0" y2="235.72367" stroke='blue' stroke-width='0.07' stroke-dasharray='2, 2' tags='connective'/>
    <line x1="138.20901" y1="268.5" x2="185.0" y2="241.48521" stroke='blue' stroke-width='0.07' stroke-dasharray='2, 2' tags='connective'/>
    <line x1="148.18827" y1="268.5" x2="185.0" y2="247.24674" stroke='blue' stroke-width='0.07' stroke-dasharray='2, 2' tags='connective'/>
    <line x1="158.16754" y1="268.5" x2="185.0" y2="253.00827" stroke='blue' stroke-width='0.07' stroke-dasharray='2, 2' tags='connective'/>
    <line x1="168.14681" y1="268.5" x2="185.0" y2="258.76981" stroke='blue' stroke-width='0.07' stroke-dasharray='2, 2' tags='connective'/>
    <line x1="178.12608" y1="268.5" x2="185.0" y2="264.53134" stroke='blue' stroke-width='0.07' stroke-dasharray='2, 2' tags='connective'/>
    <rect width="40.0" height="40.0" x="25.0" y="28.5" stroke='blue' stroke-width='0.2' fill='none' tags='rect'/>
    <rect width="40.0" height="40.0" x="65.0" y="28.5" stroke='blue' stroke-width='0.2' fill='none' tags='rect'/>
    <rect width="40.0" height="40.0" x="105.0" y="28.5" stroke='blue' stroke-width='0.2' fill='none' tags='rect'/>
    <rect width="40.0" height="40.0" x="145.0" y="28.5" stroke='blue' stroke-width='0.2' fill='none' tags='rect'/>
    <rect width="40.0" height="40.0" x="25.0" y="68.5" stroke='blue' stroke-width='0.2' fill='none' tags='rect'/>
    <rect width="40.0" height="40.0" x="65.0" y="68.5" stroke='blue' stroke-width='0.2' fill='none' tags='rect'/>
    <rect width="40.0" height="40.0" x="105.0" y="68.5" stroke='blue' stroke-width='0.2' fill='none' tags='rect'/>
    <rect width="40.0" height="40.0" x="145.0" y="68.5" stroke='blue' stroke-width='0.2' fill='none' tags='rect'/>
    <rect width="40.0" height="40.0" x="25.0" y="108.5" stroke='blue' stroke-width='0.2' fill='none' tags='rect'/>
    <rect width="40.0" height="40.0" x="65.0" y="108.5" stroke='blue' stroke-width='0.2' fill='none' tags='rect'/>
    <rect width="40.0" height="40.0" x="105.0" y="108.5" stroke='blue' stroke-width='0.2' fill='none' tags='rect'/>
    <rect width="40.0" height="40.0" x="145.0" y="108.5" stroke='blue' stroke-width='0.2' fill='none' tags='rect'/>
    <rect width="40.0" height="40.0" x="25.0" y="148.5" stroke='blue' stroke-width='0.2' fill='none' tags='rect'/>
    <rect width="40.0" height="40.0" x="65.0" y="148.5" stroke='blue' stroke-width='0.2' fill='none' tags='rect'/>
    <rect width="40.0" height="40.0" x="105.0" y="148.5" stroke='blue' stroke-width='0.2' fill='none' tags='rect'/>
    <rect width="40.0" height="40.0" x="145.0" y="148.5" stroke='blue' stroke-width='0.2' fill='none' tags='rect'/>
    <rect width="40.0" height="40.0" x="25.0" y="188.5" stroke='blue' stroke-width='0.2' fill='none' tags='rect'/>
    <rect width="40.0" height="40.0" x="65.0" y="188.5" stroke='blue' stroke-width='0.2' fill='none' tags='rect'/>
    <rect width="40.0" height="40.0" x="105.0" y="188.5" stroke='blue' stroke-width='0.2' fill='none' tags='rect'/>
    <rect width="40.0" height="40.0" x="145.0" y="188.5" stroke='blue' stroke-width='0.2' fill='none' tags='rect'/>
    <rect width="40.0" height="40.0" x="25.0" y="228.5" stroke='blue' stroke-width='0.2' fill='none' tags='rect'/>
    <rect width="40.0" height="40.0" x="65.0" y="228.5" stroke='blue' stroke-width='0.2' fill='none' tags='rect'/>
    <rect width="40.0" height="40.0" x="105.0" y="228.5" stroke='blue' stroke-width='0.2' fill='none' tags='rect'/>
    <rect width="40.0" height="40.0" x="145.0" y="228.5" stroke='blue' stroke-width='0.2' fill='none' tags='rect'/>
  </g>
</svg>
