<?xml version="1.0" standalone="no"?>
<!DOCTYPE svg PUBLIC "-//W3C//DTD SVG 1.1//EN" "http://www.w3.org/Graphics/SVG/1.1/DTD/svg11.dtd">
<svg xmlns="http://www.w3.org/2000/svg" width="210.0mm" height="148.5mm" viewBox="0 0 210.0 148.5" >

  <g id="sheet">
    <line x1="15.0" y1="24.25" x2="195.0" y2="24.25" stroke='blue' stroke-width='0.2' tags='ascender2'/>
    <line x1="15.0" y1="28.0" x2="195.0" y2="28.0" stroke='grey' stroke-width='0.1' stroke-dasharray='2, 2' tags='ascender1'/>
    <line x1="15.0" y1="31.75" x2="195.0" y2="31.75" stroke='grey' stroke-width='0.1' tags='waist'/>
    <line x1="15.0" y1="36.75" x2="195.0" y2="36.75" stroke='red' stroke-width='0.1' tags='base'/>
    <line x1="15.0" y1="40.5" x2="195.0" y2="40.5" stroke='grey' stroke-width='0.1' stroke-dasharray='2, 2' tags='descender1'/>
    <line x1="15.0" y1="44.25" x2="195.0" y2="44.25" stroke='blue' stroke-width='0.2' tags='descender2'/>
    <line x1="15.0" y1="48.0" x2="195.0" y2="48.0" stroke='grey' stroke-width='0.1' stroke-dasharray='2, 2' tags='ascender1'/>
    <line x1="15.0" y1="51.75" x2="195.0" y2="51.75" stroke='grey' stroke-width='0.1' tags='waist'/>
    <line x1="15.0" y1="56.75" x2="195.0" y2="56.75" stroke='red' stroke-width='0.1' tags='base'/>
    <line x1="15.0" y1="60.5" x2="195.0" y2="60.5" stroke='grey' stroke-width='0.1' stroke-dasharray='2, 2' tags='descender1'/>
    <line x1="15.0" y1="64.25" x2="195.0" y2="64.25" stroke='blue' stroke-width='0.2' tags='descender2'/>
    <line x1="15.0" y1="68.0" x2="195.0" y2="68.0" stroke='grey' stroke-width='0.1' stroke-dasharray='2, 2' tags='ascender1'/>
    <line x1="15.0" y1="71.75" x2="195.0" y2="71.75" stroke='grey' stroke-width='0.1' tags='waist'/>
    <line x1="15.0" y1="76.75" x2="195.0" y2="76.75" stroke='red' stroke-width='0.1' tags='base'/>
    <line x1="15.0" y1="80.5" x2="195.0" y2="80.5" stroke='grey' stroke-width='0.1' stroke-dasharray='2, 2' tags='descender1'/>
    <line x1="15.0" y1="84.25" x2="195.0" y2="84.25" stroke='blue' stroke-width='0.2' tags='descender2'/>
    <line x1="15.0" y1="88.0" x2="195.0" y2="88.0" stroke='grey' stroke-width='0.1' stroke-dasharray='2, 2' tags='ascender1'/>
    <line x1="15.0" y1="91.75" x2="195.0" y2="91.75" stroke='grey' stroke-width='0.1' tags='waist'/>
    <line x1="15.0" y1="96.75" x2="195.0" y2="96.75" stroke='red' stroke-width='0.1' tags='base'/>
    <line x1="15.0" y1="100.5" x2="195.0" y2="100.5" stroke='grey' stroke-width='0.1' stroke-dasharray='2, 2' tags='descender1'/>
    <line x1="15.0" y1="104.25" x2="195.0" y2="104.25" stroke='blue' stroke-width='0.2' tags='descender2'/>
    <line x1="15.0" y1="108.0" x2="195.0" y2="108.0" stroke='grey' stroke-width='0.1' stroke-dasharray='2, 2' tags='ascender1'/>
    <line x1="15.0" y1="111.75" x2="195.0" y2="111.75" stroke='grey' stroke-width='0.1' tags='waist'/>
    <line x1="15.0" y1="116.75" x2="195.0" y2="116.75" stroke='red' stroke-width='0.1' tags='base'/>
    <line x1="15.0" y1="120.5" x2="195.0" y2="120.5" stroke='grey' stroke-width='0.1' stroke-dasharray='2, 2' tags='descender1'/>
    <line x1="15.0" y1="124.25" x2="195.0" y2="124.25" stroke='blue' stroke-width='0.2' tags='descender2'/>
    <line x1="15.0" y1="24.25" x2="15.0" y2="24.25" stroke='blue' stroke-width='0.1' tags='slant'/>
    <line x1="15.0" y1="32.92034" x2="21.07104" y2="24.25" stroke='blue' stroke-width='0.1' tags='slant'/>
    <line x1="15.0" y1="41.59069" x2="27.14208" y2="24.25" stroke='blue' stroke-width='0.1' tags='slant'/>
    <line x1="15.0" y1="50.26103" x2="33.21312" y2="24.25" stroke='blue' stroke-width='0.1' tags='slant'/>
    <line x1="15.0" y1="58.93138" x2="39.28416" y2="24.25" stroke='blue' stroke-width='0.1' tags='slant'/>
    <line x1="15.0" y1="67.60172" x2="45.3552" y2="24.25" stroke='blue' stroke-width='0.1' tags='slant'/>
    <line x1="15.0" y1="76.27207" x2="51.42624" y2="24.25" stroke='blue' stroke-width='0.1' tags='slant'/>
    <line x1="15.0" y1="84.94241" x2="57.49728" y2="24.25" stroke='blue' stroke-width='0.1' tags='slant'/>
    <line x1="15.0" y1="93.61276" x2="63.56832" y2="24.25" stroke='blue' stroke-width='0.1' tags='slant'/>
    <line x1="15.0" y1="102.2831" x2="69.63937" y2="24.25" stroke='blue' stroke-width='0.1' tags='slant'/>
    <line x1="15.0" y1="110.95345" x2="75.71041" y2="24.25" stroke='blue' stroke-width='0.1' tags='slant'/>
    <line x1="15.0" y1="119.62379" x2="81.78145" y2="24.25" stroke='blue' stroke-width='0.1' tags='slant'/>
    <line x1="17.83173" y1="124.25" x2="87.85249" y2="24.25" stroke='blue' stroke-width='0.1' tags='slant'/>
    <line x1="23.90277" y1="124.25" x2="93.92353" y2="24.25" stroke='blue' stroke-width='0.1' tags='slant'/>
    <line x1="29.97381" y1="124.25" x2="99.99457" y2="24.25" stroke='blue' stroke-width='0.1' tags='slant'/>
    <line x1="36.04485" y1="124.25" x2="106.06561" y2="24.25" stroke='blue' stroke-width='0.1' tags='slant'/>
    <line x1="42.1159" y1="124.25" x2="112.13665" y2="24.25" stroke='blue' stroke-width='0.1' tags='slant'/>
    <line x1="48.18694" y1="124.25" x2="118.20769" y2="24.25" stroke='blue' stroke-width='0.1' tags='slant'/>
    <line x1="54.25798" y1="124.25" x2="124.27873" y2="24.25" stroke='blue' stroke-width='0.1' tags='slant'/>
    <line x1="60.32902" y1="124.25" x2="130.34977" y2="24.25" stroke='blue' stroke-width='0.1' tags='slant'/>
    <line x1="66.40006" y1="124.25" x2="136.42081" y2="24.25" stroke='blue' stroke-width='0.1' tags='slant'/>
    <line x1="72.4711" y1="124.25" x2="142.49185" y2="24.25" stroke='blue' stroke-width='0.1' tags='slant'/>
    <line x1="78.54214" y1="124.25" x2="148.56289" y2="24.25" stroke='blue' stroke-width='0.1' tags='slant'/>
    <line x1="84.61318" y1="124.25" x2="154.63393" y2="24.25" stroke='blue' stroke-width='0.1' tags='slant'/>
    <line x1="90.68422" y1="124.25" x2="160.70497" y2="24.25" stroke='blue' stroke-width='0.1' tags='slant'/>
    <line x1="96.75526" y1="124.25" x2="166.77601" y2="24.25" stroke='blue' stroke-width='0.1' tags='slant'/>
    <line x1="102.8263" y1="124.25" x2="172.84706" y2="24.25" stroke='blue' stroke-width='0.1' tags='slant'/>
    <line x1="108.89734" y1="124.25" x2="178.9181" y2="24.25" stroke='blue' stroke-width='0.1' tags='slant'/>
    <line x1="114.96838" y1="124.25" x2="184.98914" y2="24.25" stroke='blue' stroke-width='0.1' tags='slant'/>
    <line x1="121.03942" y1="124.25" x2="191.06018" y2="24.25" stroke='blue' stroke-width='0.1' tags='slant'/>
    <line x1="127.11046" y1="124.25" x2="195.0" y2="27.29369" stroke='blue' stroke-width='0.1' tags='slant'/>
    <line x1="133.1815" y1="124.25" x2="195.0" y2="35.96404" stroke='blue' stroke-width='0.1' tags='slant'/>
    <line x1="139.25254" y1="124.25" x2="195.0" y2="44.63438" stroke='blue' stroke-width='0.1' tags='slant'/>
    <line x1="145.32359" y1="124.25" x2="195.0" y2="53.30473" stroke='blue' stroke-width='0.1' tags='slant'/>
    <line x1="151.39463" y1="124.25" x2="195.0" y2="61.97507" stroke='blue' stroke-width='0.1' tags='slant'/>
    <line x1="157.46567" y1="124.25" x2="195.0" y2="70.64542" stroke='blue' stroke-width='0.1' tags='slant'/>
    <line x1="163.53671" y1="124.25" x2="195.0" y2="79.31576" stroke='blue' stroke-width='0.1' tags='slant'/>
    <line x1="169.60775" y1="124.25" x2="195.0" y2="87.98611" stroke='blue' stroke-width='0.1' tags='slant'/>
    <line x1="175.67879" y1="124.25" x2="195.0" y2="96.65645" stroke='blue' stroke-width='0.1' tags='slant'/>
    <line x1="181.74983" y1="124.25" x2="195.0" y2="105.32679" stroke='blue' stroke-width='0.1' tags='slant'/>
    <line x1="187.82087" y1="124.25" x2="195.0" y2="113.99714" stroke='blue' stroke-width='0.1' tags='slant'/>
    <line x1="193.89191" y1="124.25" x2="195.0" y2="122.66748" stroke='blue' stroke-width='0.1' tags='slant'/>
    <line x1="15.0" y1="31.88712" x2="21.4083" y2="24.25" stroke='blue' stroke-width='0.07' stroke-dasharray='2, 2' tags='connective'/>
    <line x1="15.0" y1="39.52423" x2="27.8166" y2="24.25" stroke='blue' stroke-width='0.07' stroke-dasharray='2, 2' tags='connective'/>
    <line x1="15.0" y1="47.16135" x2="34.2249" y2="24.25" stroke='blue' stroke-width='0.07' stroke-dasharray='2, 2' tags='connective'/>
    <line x1="15.0" y1="54.79846" x2="40.6332" y2="24.25" stroke='blue' stroke-width='0.07' stroke-dasharray='2, 2' tags='connective'/>
    <line x1="15.0" y1="62.43558" x2="47.0415" y2="24.25" stroke='blue' stroke-width='0.07' stroke-dasharray='2, 2' tags='connective'/>
    <line x1="15.0" y1="70.07269" x2="53.4498" y2="24.25" stroke='blue' stroke-width='0.07' stroke-dasharray='2, 2' tags='connective'/>
    <line x1="15.0" y1="77.70981" x2="59.8581" y2="24.25" stroke='blue' stroke-width='0.07' stroke-dasharray='2, 2' tags='connective'/>
    <line x1="15.0" y1="85.34692" x2="66.2664" y2="24.25" stroke='blue' stroke-width='0.07' stroke-dasharray='2, 2' tags='connective'/>
    <line x1="15.0" y1="92.98404" x2="72.6747" y2="24.25" stroke='blue' stroke-width='0.07' stroke-dasharray='2, 2' tags='connective'/>
    <line x1="15.0" y1="100.62115" x2="79.083" y2="24.25" stroke='blue' stroke-width='0.07' stroke-dasharray='2, 2' tags='connective'/>
    <line x1="15.0" y1="108.25827" x2="85.4913" y2="24.25" stroke='blue' stroke-width='0.07' stroke-dasharray='2, 2' tags='connective'/>
    <line x1="15.0" y1="115.89538" x2="91.8996" y2="24.25" stroke='blue' stroke-width='0.07' stroke-dasharray='2, 2' tags='connective'/>
    <line x1="15.0" y1="123.5325" x2="98.30791" y2="24.25" stroke='blue' stroke-width='0.07' stroke-dasharray='2, 2' tags='connective'/>
    <line x1="20.80624" y1="124.25" x2="104.71621" y2="24.25" stroke='blue' stroke-width='0.07' stroke-dasharray='2, 2' tags='connective'/>
    <line x1="27.21454" y1="124.25" x2="111.12451" y2="24.25" stroke='blue' stroke-width='0.07' stroke-dasharray='2, 2' tags='connective'/>
    <line x1="33.62284" y1="124.25" x2="117.53281" y2="24.25" stroke='blue' stroke-width='0.07' stroke-dasharray='2, 2' tags='connective'/>
    <line x1="40.03114" y1="124.25" x2="123.94111" y2="24.25" stroke='blue' stroke-width='0.07' stroke-dasharray='2, 2' tags='connective'/>
    <line x1="46.43944" y1="124.25" x2="130.34941" y2="24.25" stroke='blue' stroke-width='0.07' stroke-dasharray='2, 2' tags='connective'/>
    <line x1="52.84774" y1="124.25" x2="136.75771" y2="24.25" stroke='blue' stroke-width='0.07' stroke-dasharray='2, 2' tags='connective'/>
    <line x1="59.25604" y1="124.25" x2="143.16601" y2="24.25" stroke='blue' stroke-width='0.07' stroke-dasharray='2, 2' tags='connective'/>
    <line x1="65.66435" y1="124.25" x2="149.57431" y2="24.25" stroke='blue' stroke-width='0.07' stroke-dasharray='2, 2' tags='connective'/>
    <line x1="72.07265" y1="124.25" x2="155.98261" y2="24.25" stroke='blue' stroke-width='0.07' stroke-dasharray='2, 2' tags='connective'/>
    <line x1="78.48095" y1="124.25" x2="162.39091" y2="24.25" stroke='blue' stroke-width='0.07' stroke-dasharray='2, 2' tags='connective'/>
    <line x1="84.88925" y1="124.25" x2="168.79921" y2="24.25" stroke='blue' stroke-width='0.07' stroke-dasharray='2, 2' tags='connective'/>
    <line x1="91.29755" y1="124.25" x2="175.20751" y2="24.25" stroke='blue' stroke-width='0.07' stroke-dasharray='2, 2' tags='connective'/>
    <line x1="97.70585" y1="124.25" x2="181.61581" y2="24.25" stroke='blue' stroke-width='0.07' stroke-dasharray='2, 2' tags='connective'/>
    <line x1="104.11415" y1="124.25" x2="188.02411" y2="24.25" stroke='blue' stroke-width='0.07' stroke-dasharray='2, 2' tags='connective'/>
    <line x1="110.52245" y1="124.25" x2="194.43241" y2="24.25" stroke='blue' stroke-width='0.07' stroke-dasharray='2, 2' tags='connective'/>
    <line x1="116.93075" y1="124.25" x2="195.0" y2="31.21069" stroke='blue' stroke-width='0.07' stroke-dasharray='2, 2' tags='connective'/>
    <line x1="123.33905" y1="124.25" x2="195.0" y2="38.8478" stroke='blue' stroke-width='0.07' stroke-dasharray='2, 2' tags='connective'/>
    <line x1="129.74735" y1="124.25" x2="195.0" y2="46.48492" stroke='blue' stroke-width='0.07' stroke-dasharray='2, 2' tags='connective'/>
    <line x1="136.15565" y1="124.25" x2="195.0" y2="54.12203" stroke='blue' stroke-width='0.07' stroke-dasharray='2, 2' tags='connective'/>
    <line x1="142.56395" y1="124.25" x2="195.0" y2="61.75915" stroke='blue' stroke-width='0.07' stroke-dasharray='2, 2' tags='connective'/>
    <line x1="148.97225" y1="124.25" x2="195.0" y2="69.39626" stroke='blue' stroke-width='0.07' stroke-dasharray='2, 2' tags='connective'/>
    <line x1="155.38055" y1="124.25" x2="195.0" y2="77.03338" stroke='blue' stroke-width='0.07' stroke-dasharray='2, 2' tags='connective'/>
    <line x1="161.78885" y1="124.25" x2="195.0" y2="84.67049" stroke='blue' stroke-width='0.07' stroke-dasharray='2, 2' tags='connective'/>
    <line x1="168.19715" y1="124.25" x2="195.0" y2="92.30761" stroke='blue' stroke-width='0.07' stroke-dasharray='2, 2' tags='connective'/>
    <line x1="174.60545" y1="124.25" x2="195.0" y2="99.94472" stroke='blue' stroke-width='0.07' stroke-dasharray='2, 2' tags='connective'/>
    <line x1="181.01375" y1="124.25" x2="195.0" y2="107.58184" stroke='blue' stroke-width='0.07' stroke-dasharray='2, 2' tags='connective'/>
    <line x1="187.42205" y1="124.25" x2="195.0" y2="115.21895" stroke='blue' stroke-width='0.07' stroke-dasharray='2, 2' tags='connective'/>
    <line x1="193.83035" y1="124.25" x2="195.0" y2="122.85607" stroke='blue' stroke-width='0.07' stroke-dasharray='2, 2' tags='connective'/>
  </g>
</svg>
