<?xml version="1.0" standalone="no"?>
<!DOCTYPE svg PUBLIC "-//W3C//DTD SVG 1.1//EN" "http://www.w3.org/Graphics/SVG/1.1/DTD/svg11.dtd">
<svg xmlns="http://www.w3.org/2000/svg" width="148.5mm" height="210.0mm" viewBox="0 0 148.5 210.0" shape-rendering="geometricPrecision" >
  <style>
    svg         { stroke:            #ed008c; }
    svg         { stroke-width:         0.04; }
    .altcolor   { stroke:               blue; }
    .extrafine  { stroke-width:         0.01; }
    .fine       { stroke-width:         0.02; }
    .medium     { stroke-width:         0.04; }
    .broad      { stroke-width:         0.08; }
    .extrabroad { stroke-width:         0.16; }
    .dashed     { stroke-dasharray:      2 2; }
  </style>
  <g id="sheet">
    <line x1="14.25" y1="15.0" x2="134.25" y2="15.0" class='ascender2 broad'/>
    <line x1="14.25" y1="18.75" x2="134.25" y2="18.75" class='ascender1 dashed'/>
    <line x1="14.25" y1="22.5" x2="134.25" y2="22.5" class='waist altcolor'/>
    <line x1="14.25" y1="27.5" x2="134.25" y2="27.5" class='base'/>
    <line x1="14.25" y1="31.25" x2="134.25" y2="31.25" class='descender1 dashed'/>
    <line x1="14.25" y1="35.0" x2="134.25" y2="35.0" class='descender2 broad'/>
    <line x1="14.25" y1="38.75" x2="134.25" y2="38.75" class='ascender1 dashed'/>
    <line x1="14.25" y1="42.5" x2="134.25" y2="42.5" class='waist altcolor'/>
    <line x1="14.25" y1="47.5" x2="134.25" y2="47.5" class='base'/>
    <line x1="14.25" y1="51.25" x2="134.25" y2="51.25" class='descender1 dashed'/>
    <line x1="14.25" y1="55.0" x2="134.25" y2="55.0" class='descender2 broad'/>
    <line x1="14.25" y1="58.75" x2="134.25" y2="58.75" class='ascender1 dashed'/>
    <line x1="14.25" y1="62.5" x2="134.25" y2="62.5" class='waist altcolor'/>
    <line x1="14.25" y1="67.5" x2="134.25" y2="67.5" class='base'/>
    <line x1="14.25" y1="71.25" x2="134.25" y2="71.25" class='descender1 dashed'/>
    <line x1="14.25" y1="75.0" x2="134.25" y2="75.0" class='descender2 broad'/>
    <line x1="14.25" y1="78.75" x2="134.25" y2="78.75" class='ascender1 dashed'/>
    <line x1="14.25" y1="82.5" x2="134.25" y2="82.5" class='waist altcolor'/>
    <line x1="14.25" y1="87.5" x2="134.25" y2="87.5" class='base'/>
    <line x1="14.25" y1="91.25" x2="134.25" y2="91.25" class='descender1 dashed'/>
    <line x1="14.25" y1="95.0" x2="134.25" y2="95.0" class='descender2 broad'/>
    <line x1="14.25" y1="98.75" x2="134.25" y2="98.75" class='ascender1 dashed'/>
    <line x1="14.25" y1="102.5" x2="134.25" y2="102.5" class='waist altcolor'/>
    <line x1="14.25" y1="107.5" x2="134.25" y2="107.5" class='base'/>
    <line x1="14.25" y1="111.25" x2="134.25" y2="111.25" class='descender1 dashed'/>
    <line x1="14.25" y1="115.0" x2="134.25" y2="115.0" class='descender2 broad'/>
    <line x1="14.25" y1="118.75" x2="134.25" y2="118.75" class='ascender1 dashed'/>
    <line x1="14.25" y1="122.5" x2="134.25" y2="122.5" class='waist altcolor'/>
    <line x1="14.25" y1="127.5" x2="134.25" y2="127.5" class='base'/>
    <line x1="14.25" y1="131.25" x2="134.25" y2="131.25" class='descender1 dashed'/>
    <line x1="14.25" y1="135.0" x2="134.25" y2="135.0" class='descender2 broad'/>
    <line x1="14.25" y1="138.75" x2="134.25" y2="138.75" class='ascender1 dashed'/>
    <line x1="14.25" y1="142.5" x2="134.25" y2="142.5" class='waist altcolor'/>
    <line x1="14.25" y1="147.5" x2="134.25" y2="147.5" class='base'/>
    <line x1="14.25" y1="151.25" x2="134.25" y2="151.25" class='descender1 dashed'/>
    <line x1="14.25" y1="155.0" x2="134.25" y2="155.0" class='descender2 broad'/>
    <line x1="14.25" y1="158.75" x2="134.25" y2="158.75" class='ascender1 dashed'/>
    <line x1="14.25" y1="162.5" x2="134.25" y2="162.5" class='waist altcolor'/>
    <line x1="14.25" y1="167.5" x2="134.25" y2="167.5" class='base'/>
    <line x1="14.25" y1="171.25" x2="134.25" y2="171.25" class='descender1 dashed'/>
    <line x1="14.25" y1="175.0" x2="134.25" y2="175.0" class='descender2 broad'/>
    <line x1="14.25" y1="178.75" x2="134.25" y2="178.75" class='ascender1 dashed'/>
    <line x1="14.25" y1="182.5" x2="134.25" y2="182.5" class='waist altcolor'/>
    <line x1="14.25" y1="187.5" x2="134.25" y2="187.5" class='base'/>
    <line x1="14.25" y1="191.25" x2="134.25" y2="191.25" class='descender1 dashed'/>
    <line x1="14.25" y1="195.0" x2="134.25" y2="195.0" class='descender2 broad'/>
    <line x1="14.25" y1="15.0" x2="14.25" y2="15.0" class='slant fine'/>
    <line x1="14.25" y1="23.12122" x2="19.93654" y2="15.0" class='slant fine'/>
    <line x1="14.25" y1="31.24244" x2="25.62308" y2="15.0" class='slant fine'/>
    <line x1="14.25" y1="39.36366" x2="31.30962" y2="15.0" class='slant fine'/>
    <line x1="14.25" y1="47.48489" x2="36.99616" y2="15.0" class='slant fine'/>
    <line x1="14.25" y1="55.60611" x2="42.6827" y2="15.0" class='slant fine'/>
    <line x1="14.25" y1="63.72733" x2="48.36924" y2="15.0" class='slant fine'/>
    <line x1="14.25" y1="71.84855" x2="54.05578" y2="15.0" class='slant fine'/>
    <line x1="14.25" y1="79.96977" x2="59.74232" y2="15.0" class='slant fine'/>
    <line x1="14.25" y1="88.09099" x2="65.42886" y2="15.0" class='slant fine'/>
    <line x1="14.25" y1="96.21221" x2="71.1154" y2="15.0" class='slant fine'/>
    <line x1="14.25" y1="104.33344" x2="76.80194" y2="15.0" class='slant fine'/>
    <line x1="14.25" y1="112.45466" x2="82.48849" y2="15.0" class='slant fine'/>
    <line x1="14.25" y1="120.57588" x2="88.17503" y2="15.0" class='slant fine'/>
    <line x1="14.25" y1="128.6971" x2="93.86157" y2="15.0" class='slant fine'/>
    <line x1="14.25" y1="136.81832" x2="99.54811" y2="15.0" class='slant fine'/>
    <line x1="14.25" y1="144.93954" x2="105.23465" y2="15.0" class='slant fine'/>
    <line x1="14.25" y1="153.06076" x2="110.92119" y2="15.0" class='slant fine'/>
    <line x1="14.25" y1="161.18198" x2="116.60773" y2="15.0" class='slant fine'/>
    <line x1="14.25" y1="169.30321" x2="122.29427" y2="15.0" class='slant fine'/>
    <line x1="14.25" y1="177.42443" x2="127.98081" y2="15.0" class='slant fine'/>
    <line x1="14.25" y1="185.54565" x2="133.66735" y2="15.0" class='slant fine'/>
    <line x1="14.25" y1="193.66687" x2="134.25" y2="22.28911" class='slant fine'/>
    <line x1="19.00307" y1="195.0" x2="134.25" y2="30.41033" class='slant fine'/>
    <line x1="24.68961" y1="195.0" x2="134.25" y2="38.53155" class='slant fine'/>
    <line x1="30.37615" y1="195.0" x2="134.25" y2="46.65277" class='slant fine'/>
    <line x1="36.06269" y1="195.0" x2="134.25" y2="54.77399" class='slant fine'/>
    <line x1="41.74923" y1="195.0" x2="134.25" y2="62.89522" class='slant fine'/>
    <line x1="47.43577" y1="195.0" x2="134.25" y2="71.01644" class='slant fine'/>
    <line x1="53.12232" y1="195.0" x2="134.25" y2="79.13766" class='slant fine'/>
    <line x1="58.80886" y1="195.0" x2="134.25" y2="87.25888" class='slant fine'/>
    <line x1="64.4954" y1="195.0" x2="134.25" y2="95.3801" class='slant fine'/>
    <line x1="70.18194" y1="195.0" x2="134.25" y2="103.50132" class='slant fine'/>
    <line x1="75.86848" y1="195.0" x2="134.25" y2="111.62254" class='slant fine'/>
    <line x1="81.55502" y1="195.0" x2="134.25" y2="119.74377" class='slant fine'/>
    <line x1="87.24156" y1="195.0" x2="134.25" y2="127.86499" class='slant fine'/>
    <line x1="92.9281" y1="195.0" x2="134.25" y2="135.98621" class='slant fine'/>
    <line x1="98.61464" y1="195.0" x2="134.25" y2="144.10743" class='slant fine'/>
    <line x1="104.30118" y1="195.0" x2="134.25" y2="152.22865" class='slant fine'/>
    <line x1="109.98772" y1="195.0" x2="134.25" y2="160.34987" class='slant fine'/>
    <line x1="115.67426" y1="195.0" x2="134.25" y2="168.47109" class='slant fine'/>
    <line x1="121.3608" y1="195.0" x2="134.25" y2="176.59232" class='slant fine'/>
    <line x1="127.04734" y1="195.0" x2="134.25" y2="184.71354" class='slant fine'/>
    <line x1="132.73388" y1="195.0" x2="134.25" y2="192.83476" class='slant fine'/>
    <line x1="14.25" y1="22.46558" x2="20.51437" y2="15.0" class='connective fine dashed'/>
    <line x1="14.25" y1="29.93116" x2="26.77873" y2="15.0" class='connective fine dashed'/>
    <line x1="14.25" y1="37.39674" x2="33.0431" y2="15.0" class='connective fine dashed'/>
    <line x1="14.25" y1="44.86232" x2="39.30747" y2="15.0" class='connective fine dashed'/>
    <line x1="14.25" y1="52.32791" x2="45.57183" y2="15.0" class='connective fine dashed'/>
    <line x1="14.25" y1="59.79349" x2="51.8362" y2="15.0" class='connective fine dashed'/>
    <line x1="14.25" y1="67.25907" x2="58.10057" y2="15.0" class='connective fine dashed'/>
    <line x1="14.25" y1="74.72465" x2="64.36493" y2="15.0" class='connective fine dashed'/>
    <line x1="14.25" y1="82.19023" x2="70.6293" y2="15.0" class='connective fine dashed'/>
    <line x1="14.25" y1="89.65581" x2="76.89366" y2="15.0" class='connective fine dashed'/>
    <line x1="14.25" y1="97.12139" x2="83.15803" y2="15.0" class='connective fine dashed'/>
    <line x1="14.25" y1="104.58697" x2="89.4224" y2="15.0" class='connective fine dashed'/>
    <line x1="14.25" y1="112.05256" x2="95.68676" y2="15.0" class='connective fine dashed'/>
    <line x1="14.25" y1="119.51814" x2="101.95113" y2="15.0" class='connective fine dashed'/>
    <line x1="14.25" y1="126.98372" x2="108.2155" y2="15.0" class='connective fine dashed'/>
    <line x1="14.25" y1="134.4493" x2="114.47986" y2="15.0" class='connective fine dashed'/>
    <line x1="14.25" y1="141.91488" x2="120.74423" y2="15.0" class='connective fine dashed'/>
    <line x1="14.25" y1="149.38046" x2="127.0086" y2="15.0" class='connective fine dashed'/>
    <line x1="14.25" y1="156.84604" x2="133.27296" y2="15.0" class='connective fine dashed'/>
    <line x1="14.25" y1="164.31162" x2="134.25" y2="21.30119" class='connective fine dashed'/>
    <line x1="14.25" y1="171.77721" x2="134.25" y2="28.76677" class='connective fine dashed'/>
    <line x1="14.25" y1="179.24279" x2="134.25" y2="36.23236" class='connective fine dashed'/>
    <line x1="14.25" y1="186.70837" x2="134.25" y2="43.69794" class='connective fine dashed'/>
    <line x1="14.25" y1="194.17395" x2="134.25" y2="51.16352" class='connective fine dashed'/>
    <line x1="19.82123" y1="195.0" x2="134.25" y2="58.6291" class='connective fine dashed'/>
    <line x1="26.08559" y1="195.0" x2="134.25" y2="66.09468" class='connective fine dashed'/>
    <line x1="32.34996" y1="195.0" x2="134.25" y2="73.56026" class='connective fine dashed'/>
    <line x1="38.61433" y1="195.0" x2="134.25" y2="81.02584" class='connective fine dashed'/>
    <line x1="44.87869" y1="195.0" x2="134.25" y2="88.49142" class='connective fine dashed'/>
    <line x1="51.14306" y1="195.0" x2="134.25" y2="95.95701" class='connective fine dashed'/>
    <line x1="57.40743" y1="195.0" x2="134.25" y2="103.42259" class='connective fine dashed'/>
    <line x1="63.67179" y1="195.0" x2="134.25" y2="110.88817" class='connective fine dashed'/>
    <line x1="69.93616" y1="195.0" x2="134.25" y2="118.35375" class='connective fine dashed'/>
    <line x1="76.20053" y1="195.0" x2="134.25" y2="125.81933" class='connective fine dashed'/>
    <line x1="82.46489" y1="195.0" x2="134.25" y2="133.28491" class='connective fine dashed'/>
    <line x1="88.72926" y1="195.0" x2="134.25" y2="140.75049" class='connective fine dashed'/>
    <line x1="94.99363" y1="195.0" x2="134.25" y2="148.21607" class='connective fine dashed'/>
    <line x1="101.25799" y1="195.0" x2="134.25" y2="155.68166" class='connective fine dashed'/>
    <line x1="107.52236" y1="195.0" x2="134.25" y2="163.14724" class='connective fine dashed'/>
    <line x1="113.78672" y1="195.0" x2="134.25" y2="170.61282" class='connective fine dashed'/>
    <line x1="120.05109" y1="195.0" x2="134.25" y2="178.0784" class='connective fine dashed'/>
    <line x1="126.31546" y1="195.0" x2="134.25" y2="185.54398" class='connective fine dashed'/>
    <line x1="132.57982" y1="195.0" x2="134.25" y2="193.00956" class='connective fine dashed'/>
  </g>
</svg>
