<?xml version="1.0" standalone="no"?>
<!DOCTYPE svg PUBLIC "-//W3C//DTD SVG 1.1//EN" "http://www.w3.org/Graphics/SVG/1.1/DTD/svg11.dtd">
<svg xmlns="http://www.w3.org/2000/svg" width="148.5mm" height="210.0mm" viewBox="0 0 148.5 210.0" >

  <g id="sheet">
    <line x1="14.25" y1="25.0" x2="134.25" y2="25.0" stroke='blue' stroke-width='0.2' tags='ascender2'/>
    <line x1="14.25" y1="28.75" x2="134.25" y2="28.75" stroke='grey' stroke-width='0.1' stroke-dasharray='2, 2' tags='ascender1'/>
    <line x1="14.25" y1="32.5" x2="134.25" y2="32.5" stroke='grey' stroke-width='0.1' tags='waist'/>
    <line x1="14.25" y1="37.5" x2="134.25" y2="37.5" stroke='red' stroke-width='0.1' tags='base'/>
    <line x1="14.25" y1="41.25" x2="134.25" y2="41.25" stroke='grey' stroke-width='0.1' stroke-dasharray='2, 2' tags='descender1'/>
    <line x1="14.25" y1="45.0" x2="134.25" y2="45.0" stroke='blue' stroke-width='0.2' tags='descender2'/>
    <line x1="14.25" y1="48.75" x2="134.25" y2="48.75" stroke='grey' stroke-width='0.1' stroke-dasharray='2, 2' tags='ascender1'/>
    <line x1="14.25" y1="52.5" x2="134.25" y2="52.5" stroke='grey' stroke-width='0.1' tags='waist'/>
    <line x1="14.25" y1="57.5" x2="134.25" y2="57.5" stroke='red' stroke-width='0.1' tags='base'/>
    <line x1="14.25" y1="61.25" x2="134.25" y2="61.25" stroke='grey' stroke-width='0.1' stroke-dasharray='2, 2' tags='descender1'/>
    <line x1="14.25" y1="65.0" x2="134.25" y2="65.0" stroke='blue' stroke-width='0.2' tags='descender2'/>
    <line x1="14.25" y1="68.75" x2="134.25" y2="68.75" stroke='grey' stroke-width='0.1' stroke-dasharray='2, 2' tags='ascender1'/>
    <line x1="14.25" y1="72.5" x2="134.25" y2="72.5" stroke='grey' stroke-width='0.1' tags='waist'/>
    <line x1="14.25" y1="77.5" x2="134.25" y2="77.5" stroke='red' stroke-width='0.1' tags='base'/>
    <line x1="14.25" y1="81.25" x2="134.25" y2="81.25" stroke='grey' stroke-width='0.1' stroke-dasharray='2, 2' tags='descender1'/>
    <line x1="14.25" y1="85.0" x2="134.25" y2="85.0" stroke='blue' stroke-width='0.2' tags='descender2'/>
    <line x1="14.25" y1="88.75" x2="134.25" y2="88.75" stroke='grey' stroke-width='0.1' stroke-dasharray='2, 2' tags='ascender1'/>
    <line x1="14.25" y1="92.5" x2="134.25" y2="92.5" stroke='grey' stroke-width='0.1' tags='waist'/>
    <line x1="14.25" y1="97.5" x2="134.25" y2="97.5" stroke='red' stroke-width='0.1' tags='base'/>
    <line x1="14.25" y1="101.25" x2="134.25" y2="101.25" stroke='grey' stroke-width='0.1' stroke-dasharray='2, 2' tags='descender1'/>
    <line x1="14.25" y1="105.0" x2="134.25" y2="105.0" stroke='blue' stroke-width='0.2' tags='descender2'/>
    <line x1="14.25" y1="108.75" x2="134.25" y2="108.75" stroke='grey' stroke-width='0.1' stroke-dasharray='2, 2' tags='ascender1'/>
    <line x1="14.25" y1="112.5" x2="134.25" y2="112.5" stroke='grey' stroke-width='0.1' tags='waist'/>
    <line x1="14.25" y1="117.5" x2="134.25" y2="117.5" stroke='red' stroke-width='0.1' tags='base'/>
    <line x1="14.25" y1="121.25" x2="134.25" y2="121.25" stroke='grey' stroke-width='0.1' stroke-dasharray='2, 2' tags='descender1'/>
    <line x1="14.25" y1="125.0" x2="134.25" y2="125.0" stroke='blue' stroke-width='0.2' tags='descender2'/>
    <line x1="14.25" y1="128.75" x2="134.25" y2="128.75" stroke='grey' stroke-width='0.1' stroke-dasharray='2, 2' tags='ascender1'/>
    <line x1="14.25" y1="132.5" x2="134.25" y2="132.5" stroke='grey' stroke-width='0.1' tags='waist'/>
    <line x1="14.25" y1="137.5" x2="134.25" y2="137.5" stroke='red' stroke-width='0.1' tags='base'/>
    <line x1="14.25" y1="141.25" x2="134.25" y2="141.25" stroke='grey' stroke-width='0.1' stroke-dasharray='2, 2' tags='descender1'/>
    <line x1="14.25" y1="145.0" x2="134.25" y2="145.0" stroke='blue' stroke-width='0.2' tags='descender2'/>
    <line x1="14.25" y1="148.75" x2="134.25" y2="148.75" stroke='grey' stroke-width='0.1' stroke-dasharray='2, 2' tags='ascender1'/>
    <line x1="14.25" y1="152.5" x2="134.25" y2="152.5" stroke='grey' stroke-width='0.1' tags='waist'/>
    <line x1="14.25" y1="157.5" x2="134.25" y2="157.5" stroke='red' stroke-width='0.1' tags='base'/>
    <line x1="14.25" y1="161.25" x2="134.25" y2="161.25" stroke='grey' stroke-width='0.1' stroke-dasharray='2, 2' tags='descender1'/>
    <line x1="14.25" y1="165.0" x2="134.25" y2="165.0" stroke='blue' stroke-width='0.2' tags='descender2'/>
    <line x1="14.25" y1="168.75" x2="134.25" y2="168.75" stroke='grey' stroke-width='0.1' stroke-dasharray='2, 2' tags='ascender1'/>
    <line x1="14.25" y1="172.5" x2="134.25" y2="172.5" stroke='grey' stroke-width='0.1' tags='waist'/>
    <line x1="14.25" y1="177.5" x2="134.25" y2="177.5" stroke='red' stroke-width='0.1' tags='base'/>
    <line x1="14.25" y1="181.25" x2="134.25" y2="181.25" stroke='grey' stroke-width='0.1' stroke-dasharray='2, 2' tags='descender1'/>
    <line x1="14.25" y1="185.0" x2="134.25" y2="185.0" stroke='blue' stroke-width='0.2' tags='descender2'/>
    <line x1="14.25" y1="25.0" x2="14.25" y2="25.0" stroke='blue' stroke-width='0.1' tags='slant'/>
    <line x1="14.25" y1="33.28444" x2="20.05083" y2="25.0" stroke='blue' stroke-width='0.1' tags='slant'/>
    <line x1="14.25" y1="41.56889" x2="25.85166" y2="25.0" stroke='blue' stroke-width='0.1' tags='slant'/>
    <line x1="14.25" y1="49.85333" x2="31.65249" y2="25.0" stroke='blue' stroke-width='0.1' tags='slant'/>
    <line x1="14.25" y1="58.13778" x2="37.45332" y2="25.0" stroke='blue' stroke-width='0.1' tags='slant'/>
    <line x1="14.25" y1="66.42222" x2="43.25415" y2="25.0" stroke='blue' stroke-width='0.1' tags='slant'/>
    <line x1="14.25" y1="74.70666" x2="49.05498" y2="25.0" stroke='blue' stroke-width='0.1' tags='slant'/>
    <line x1="14.25" y1="82.99111" x2="54.85581" y2="25.0" stroke='blue' stroke-width='0.1' tags='slant'/>
    <line x1="14.25" y1="91.27555" x2="60.65664" y2="25.0" stroke='blue' stroke-width='0.1' tags='slant'/>
    <line x1="14.25" y1="99.56" x2="66.45747" y2="25.0" stroke='blue' stroke-width='0.1' tags='slant'/>
    <line x1="14.25" y1="107.84444" x2="72.2583" y2="25.0" stroke='blue' stroke-width='0.1' tags='slant'/>
    <line x1="14.25" y1="116.12888" x2="78.05913" y2="25.0" stroke='blue' stroke-width='0.1' tags='slant'/>
    <line x1="14.25" y1="124.41333" x2="83.85996" y2="25.0" stroke='blue' stroke-width='0.1' tags='slant'/>
    <line x1="14.25" y1="132.69777" x2="89.66079" y2="25.0" stroke='blue' stroke-width='0.1' tags='slant'/>
    <line x1="14.25" y1="140.98222" x2="95.46162" y2="25.0" stroke='blue' stroke-width='0.1' tags='slant'/>
    <line x1="14.25" y1="149.26666" x2="101.26245" y2="25.0" stroke='blue' stroke-width='0.1' tags='slant'/>
    <line x1="14.25" y1="157.5511" x2="107.06328" y2="25.0" stroke='blue' stroke-width='0.1' tags='slant'/>
    <line x1="14.25" y1="165.83555" x2="112.86411" y2="25.0" stroke='blue' stroke-width='0.1' tags='slant'/>
    <line x1="14.25" y1="174.11999" x2="118.66494" y2="25.0" stroke='blue' stroke-width='0.1' tags='slant'/>
    <line x1="14.25" y1="182.40444" x2="124.46577" y2="25.0" stroke='blue' stroke-width='0.1' tags='slant'/>
    <line x1="18.2334" y1="185.0" x2="130.2666" y2="25.0" stroke='blue' stroke-width='0.1' tags='slant'/>
    <line x1="24.03423" y1="185.0" x2="134.25" y2="27.59556" stroke='blue' stroke-width='0.1' tags='slant'/>
    <line x1="29.83506" y1="185.0" x2="134.25" y2="35.88001" stroke='blue' stroke-width='0.1' tags='slant'/>
    <line x1="35.63589" y1="185.0" x2="134.25" y2="44.16445" stroke='blue' stroke-width='0.1' tags='slant'/>
    <line x1="41.43672" y1="185.0" x2="134.25" y2="52.4489" stroke='blue' stroke-width='0.1' tags='slant'/>
    <line x1="47.23755" y1="185.0" x2="134.25" y2="60.73334" stroke='blue' stroke-width='0.1' tags='slant'/>
    <line x1="53.03838" y1="185.0" x2="134.25" y2="69.01778" stroke='blue' stroke-width='0.1' tags='slant'/>
    <line x1="58.83921" y1="185.0" x2="134.25" y2="77.30223" stroke='blue' stroke-width='0.1' tags='slant'/>
    <line x1="64.64004" y1="185.0" x2="134.25" y2="85.58667" stroke='blue' stroke-width='0.1' tags='slant'/>
    <line x1="70.44087" y1="185.0" x2="134.25" y2="93.87112" stroke='blue' stroke-width='0.1' tags='slant'/>
    <line x1="76.2417" y1="185.0" x2="134.25" y2="102.15556" stroke='blue' stroke-width='0.1' tags='slant'/>
    <line x1="82.04253" y1="185.0" x2="134.25" y2="110.44" stroke='blue' stroke-width='0.1' tags='slant'/>
    <line x1="87.84336" y1="185.0" x2="134.25" y2="118.72445" stroke='blue' stroke-width='0.1' tags='slant'/>
    <line x1="93.64419" y1="185.0" x2="134.25" y2="127.00889" stroke='blue' stroke-width='0.1' tags='slant'/>
    <line x1="99.44502" y1="185.0" x2="134.25" y2="135.29334" stroke='blue' stroke-width='0.1' tags='slant'/>
    <line x1="105.24585" y1="185.0" x2="134.25" y2="143.57778" stroke='blue' stroke-width='0.1' tags='slant'/>
    <line x1="111.04668" y1="185.0" x2="134.25" y2="151.86222" stroke='blue' stroke-width='0.1' tags='slant'/>
    <line x1="116.84751" y1="185.0" x2="134.25" y2="160.14667" stroke='blue' stroke-width='0.1' tags='slant'/>
    <line x1="122.64834" y1="185.0" x2="134.25" y2="168.43111" stroke='blue' stroke-width='0.1' tags='slant'/>
    <line x1="128.44917" y1="185.0" x2="134.25" y2="176.71556" stroke='blue' stroke-width='0.1' tags='slant'/>
    <line x1="14.25" y1="32.57526" x2="20.6064" y2="25.0" stroke='blue' stroke-width='0.07' stroke-dasharray='2, 2' tags='connective'/>
    <line x1="14.25" y1="40.15052" x2="26.9628" y2="25.0" stroke='blue' stroke-width='0.07' stroke-dasharray='2, 2' tags='connective'/>
    <line x1="14.25" y1="47.72578" x2="33.3192" y2="25.0" stroke='blue' stroke-width='0.07' stroke-dasharray='2, 2' tags='connective'/>
    <line x1="14.25" y1="55.30104" x2="39.67559" y2="25.0" stroke='blue' stroke-width='0.07' stroke-dasharray='2, 2' tags='connective'/>
    <line x1="14.25" y1="62.8763" x2="46.03199" y2="25.0" stroke='blue' stroke-width='0.07' stroke-dasharray='2, 2' tags='connective'/>
    <line x1="14.25" y1="70.45156" x2="52.38839" y2="25.0" stroke='blue' stroke-width='0.07' stroke-dasharray='2, 2' tags='connective'/>
    <line x1="14.25" y1="78.02683" x2="58.74479" y2="25.0" stroke='blue' stroke-width='0.07' stroke-dasharray='2, 2' tags='connective'/>
    <line x1="14.25" y1="85.60209" x2="65.10119" y2="25.0" stroke='blue' stroke-width='0.07' stroke-dasharray='2, 2' tags='connective'/>
    <line x1="14.25" y1="93.17735" x2="71.45759" y2="25.0" stroke='blue' stroke-width='0.07' stroke-dasharray='2, 2' tags='connective'/>
    <line x1="14.25" y1="100.75261" x2="77.81399" y2="25.0" stroke='blue' stroke-width='0.07' stroke-dasharray='2, 2' tags='connective'/>
    <line x1="14.25" y1="108.32787" x2="84.17038" y2="25.0" stroke='blue' stroke-width='0.07' stroke-dasharray='2, 2' tags='connective'/>
    <line x1="14.25" y1="115.90313" x2="90.52678" y2="25.0" stroke='blue' stroke-width='0.07' stroke-dasharray='2, 2' tags='connective'/>
    <line x1="14.25" y1="123.47839" x2="96.88318" y2="25.0" stroke='blue' stroke-width='0.07' stroke-dasharray='2, 2' tags='connective'/>
    <line x1="14.25" y1="131.05365" x2="103.23958" y2="25.0" stroke='blue' stroke-width='0.07' stroke-dasharray='2, 2' tags='connective'/>
    <line x1="14.25" y1="138.62891" x2="109.59598" y2="25.0" stroke='blue' stroke-width='0.07' stroke-dasharray='2, 2' tags='connective'/>
    <line x1="14.25" y1="146.20417" x2="115.95238" y2="25.0" stroke='blue' stroke-width='0.07' stroke-dasharray='2, 2' tags='connective'/>
    <line x1="14.25" y1="153.77943" x2="122.30877" y2="25.0" stroke='blue' stroke-width='0.07' stroke-dasharray='2, 2' tags='connective'/>
    <line x1="14.25" y1="161.35469" x2="128.66517" y2="25.0" stroke='blue' stroke-width='0.07' stroke-dasharray='2, 2' tags='connective'/>
    <line x1="14.25" y1="168.92995" x2="134.25" y2="25.91952" stroke='blue' stroke-width='0.07' stroke-dasharray='2, 2' tags='connective'/>
    <line x1="14.25" y1="176.50522" x2="134.25" y2="33.49478" stroke='blue' stroke-width='0.07' stroke-dasharray='2, 2' tags='connective'/>
    <line x1="14.25" y1="184.08048" x2="134.25" y2="41.07005" stroke='blue' stroke-width='0.07' stroke-dasharray='2, 2' tags='connective'/>
    <line x1="19.83483" y1="185.0" x2="134.25" y2="48.64531" stroke='blue' stroke-width='0.07' stroke-dasharray='2, 2' tags='connective'/>
    <line x1="26.19123" y1="185.0" x2="134.25" y2="56.22057" stroke='blue' stroke-width='0.07' stroke-dasharray='2, 2' tags='connective'/>
    <line x1="32.54762" y1="185.0" x2="134.25" y2="63.79583" stroke='blue' stroke-width='0.07' stroke-dasharray='2, 2' tags='connective'/>
    <line x1="38.90402" y1="185.0" x2="134.25" y2="71.37109" stroke='blue' stroke-width='0.07' stroke-dasharray='2, 2' tags='connective'/>
    <line x1="45.26042" y1="185.0" x2="134.25" y2="78.94635" stroke='blue' stroke-width='0.07' stroke-dasharray='2, 2' tags='connective'/>
    <line x1="51.61682" y1="185.0" x2="134.25" y2="86.52161" stroke='blue' stroke-width='0.07' stroke-dasharray='2, 2' tags='connective'/>
    <line x1="57.97322" y1="185.0" x2="134.25" y2="94.09687" stroke='blue' stroke-width='0.07' stroke-dasharray='2, 2' tags='connective'/>
    <line x1="64.32962" y1="185.0" x2="134.25" y2="101.67213" stroke='blue' stroke-width='0.07' stroke-dasharray='2, 2' tags='connective'/>
    <line x1="70.68601" y1="185.0" x2="134.25" y2="109.24739" stroke='blue' stroke-width='0.07' stroke-dasharray='2, 2' tags='connective'/>
    <line x1="77.04241" y1="185.0" x2="134.25" y2="116.82265" stroke='blue' stroke-width='0.07' stroke-dasharray='2, 2' tags='connective'/>
    <line x1="83.39881" y1="185.0" x2="134.25" y2="124.39791" stroke='blue' stroke-width='0.07' stroke-dasharray='2, 2' tags='connective'/>
    <line x1="89.75521" y1="185.0" x2="134.25" y2="131.97317" stroke='blue' stroke-width='0.07' stroke-dasharray='2, 2' tags='connective'/>
    <line x1="96.11161" y1="185.0" x2="134.25" y2="139.54844" stroke='blue' stroke-width='0.07' stroke-dasharray='2, 2' tags='connective'/>
    <line x1="102.46801" y1="185.0" x2="134.25" y2="147.1237" stroke='blue' stroke-width='0.07' stroke-dasharray='2, 2' tags='connective'/>
    <line x1="108.82441" y1="185.0" x2="134.25" y2="154.69896" stroke='blue' stroke-width='0.07' stroke-dasharray='2, 2' tags='connective'/>
    <line x1="115.1808" y1="185.0" x2="134.25" y2="162.27422" stroke='blue' stroke-width='0.07' stroke-dasharray='2, 2' tags='connective'/>
    <line x1="121.5372" y1="185.0" x2="134.25" y2="169.84948" stroke='blue' stroke-width='0.07' stroke-dasharray='2, 2' tags='connective'/>
    <line x1="127.8936" y1="185.0" x2="134.25" y2="177.42474" stroke='blue' stroke-width='0.07' stroke-dasharray='2, 2' tags='connective'/>
  </g>
</svg>
