<?xml version="1.0" standalone="no"?>
<!DOCTYPE svg PUBLIC "-//W3C//DTD SVG 1.1//EN" "http://www.w3.org/Graphics/SVG/1.1/DTD/svg11.dtd">
<svg xmlns="http://www.w3.org/2000/svg" width="148.5mm" height="210.0mm" viewBox="0 0 148.5 210.0" >

  <g id="sheet">
    <line x1="24.25" y1="17.5" x2="124.25" y2="17.5" stroke='blue' stroke-width='0.2' tags='ascender2'/>
    <line x1="24.25" y1="22.5" x2="124.25" y2="22.5" stroke='grey' stroke-width='0.1' stroke-dasharray='2, 2' tags='ascender1'/>
    <line x1="24.25" y1="27.5" x2="124.25" y2="27.5" stroke='grey' stroke-width='0.1' tags='waist'/>
    <line x1="24.25" y1="32.5" x2="124.25" y2="32.5" stroke='red' stroke-width='0.1' tags='base'/>
    <line x1="24.25" y1="37.5" x2="124.25" y2="37.5" stroke='grey' stroke-width='0.1' stroke-dasharray='2, 2' tags='descender1'/>
    <line x1="24.25" y1="42.5" x2="124.25" y2="42.5" stroke='blue' stroke-width='0.2' tags='descender2'/>
    <line x1="24.25" y1="47.5" x2="124.25" y2="47.5" stroke='grey' stroke-width='0.1' stroke-dasharray='2, 2' tags='ascender1'/>
    <line x1="24.25" y1="52.5" x2="124.25" y2="52.5" stroke='grey' stroke-width='0.1' tags='waist'/>
    <line x1="24.25" y1="57.5" x2="124.25" y2="57.5" stroke='red' stroke-width='0.1' tags='base'/>
    <line x1="24.25" y1="62.5" x2="124.25" y2="62.5" stroke='grey' stroke-width='0.1' stroke-dasharray='2, 2' tags='descender1'/>
    <line x1="24.25" y1="67.5" x2="124.25" y2="67.5" stroke='blue' stroke-width='0.2' tags='descender2'/>
    <line x1="24.25" y1="72.5" x2="124.25" y2="72.5" stroke='grey' stroke-width='0.1' stroke-dasharray='2, 2' tags='ascender1'/>
    <line x1="24.25" y1="77.5" x2="124.25" y2="77.5" stroke='grey' stroke-width='0.1' tags='waist'/>
    <line x1="24.25" y1="82.5" x2="124.25" y2="82.5" stroke='red' stroke-width='0.1' tags='base'/>
    <line x1="24.25" y1="87.5" x2="124.25" y2="87.5" stroke='grey' stroke-width='0.1' stroke-dasharray='2, 2' tags='descender1'/>
    <line x1="24.25" y1="92.5" x2="124.25" y2="92.5" stroke='blue' stroke-width='0.2' tags='descender2'/>
    <line x1="24.25" y1="97.5" x2="124.25" y2="97.5" stroke='grey' stroke-width='0.1' stroke-dasharray='2, 2' tags='ascender1'/>
    <line x1="24.25" y1="102.5" x2="124.25" y2="102.5" stroke='grey' stroke-width='0.1' tags='waist'/>
    <line x1="24.25" y1="107.5" x2="124.25" y2="107.5" stroke='red' stroke-width='0.1' tags='base'/>
    <line x1="24.25" y1="112.5" x2="124.25" y2="112.5" stroke='grey' stroke-width='0.1' stroke-dasharray='2, 2' tags='descender1'/>
    <line x1="24.25" y1="117.5" x2="124.25" y2="117.5" stroke='blue' stroke-width='0.2' tags='descender2'/>
    <line x1="24.25" y1="122.5" x2="124.25" y2="122.5" stroke='grey' stroke-width='0.1' stroke-dasharray='2, 2' tags='ascender1'/>
    <line x1="24.25" y1="127.5" x2="124.25" y2="127.5" stroke='grey' stroke-width='0.1' tags='waist'/>
    <line x1="24.25" y1="132.5" x2="124.25" y2="132.5" stroke='red' stroke-width='0.1' tags='base'/>
    <line x1="24.25" y1="137.5" x2="124.25" y2="137.5" stroke='grey' stroke-width='0.1' stroke-dasharray='2, 2' tags='descender1'/>
    <line x1="24.25" y1="142.5" x2="124.25" y2="142.5" stroke='blue' stroke-width='0.2' tags='descender2'/>
    <line x1="24.25" y1="147.5" x2="124.25" y2="147.5" stroke='grey' stroke-width='0.1' stroke-dasharray='2, 2' tags='ascender1'/>
    <line x1="24.25" y1="152.5" x2="124.25" y2="152.5" stroke='grey' stroke-width='0.1' tags='waist'/>
    <line x1="24.25" y1="157.5" x2="124.25" y2="157.5" stroke='red' stroke-width='0.1' tags='base'/>
    <line x1="24.25" y1="162.5" x2="124.25" y2="162.5" stroke='grey' stroke-width='0.1' stroke-dasharray='2, 2' tags='descender1'/>
    <line x1="24.25" y1="167.5" x2="124.25" y2="167.5" stroke='blue' stroke-width='0.2' tags='descender2'/>
    <line x1="24.25" y1="172.5" x2="124.25" y2="172.5" stroke='grey' stroke-width='0.1' stroke-dasharray='2, 2' tags='ascender1'/>
    <line x1="24.25" y1="177.5" x2="124.25" y2="177.5" stroke='grey' stroke-width='0.1' tags='waist'/>
    <line x1="24.25" y1="182.5" x2="124.25" y2="182.5" stroke='red' stroke-width='0.1' tags='base'/>
    <line x1="24.25" y1="187.5" x2="124.25" y2="187.5" stroke='grey' stroke-width='0.1' stroke-dasharray='2, 2' tags='descender1'/>
    <line x1="24.25" y1="192.5" x2="124.25" y2="192.5" stroke='blue' stroke-width='0.2' tags='descender2'/>
    <line x1="24.25" y1="17.5" x2="24.25" y2="17.5" stroke='blue' stroke-width='0.1' tags='slant'/>
    <line x1="24.25" y1="25.38401" x2="29.77045" y2="17.5" stroke='blue' stroke-width='0.1' tags='slant'/>
    <line x1="24.25" y1="33.26803" x2="35.29089" y2="17.5" stroke='blue' stroke-width='0.1' tags='slant'/>
    <line x1="24.25" y1="41.15204" x2="40.81134" y2="17.5" stroke='blue' stroke-width='0.1' tags='slant'/>
    <line x1="24.25" y1="49.03606" x2="46.33179" y2="17.5" stroke='blue' stroke-width='0.1' tags='slant'/>
    <line x1="24.25" y1="56.92007" x2="51.85223" y2="17.5" stroke='blue' stroke-width='0.1' tags='slant'/>
    <line x1="24.25" y1="64.80409" x2="57.37268" y2="17.5" stroke='blue' stroke-width='0.1' tags='slant'/>
    <line x1="24.25" y1="72.6881" x2="62.89313" y2="17.5" stroke='blue' stroke-width='0.1' tags='slant'/>
    <line x1="24.25" y1="80.57212" x2="68.41357" y2="17.5" stroke='blue' stroke-width='0.1' tags='slant'/>
    <line x1="24.25" y1="88.45613" x2="73.93402" y2="17.5" stroke='blue' stroke-width='0.1' tags='slant'/>
    <line x1="24.25" y1="96.34015" x2="79.45447" y2="17.5" stroke='blue' stroke-width='0.1' tags='slant'/>
    <line x1="24.25" y1="104.22416" x2="84.97491" y2="17.5" stroke='blue' stroke-width='0.1' tags='slant'/>
    <line x1="24.25" y1="112.10818" x2="90.49536" y2="17.5" stroke='blue' stroke-width='0.1' tags='slant'/>
    <line x1="24.25" y1="119.99219" x2="96.01581" y2="17.5" stroke='blue' stroke-width='0.1' tags='slant'/>
    <line x1="24.25" y1="127.87621" x2="101.53625" y2="17.5" stroke='blue' stroke-width='0.1' tags='slant'/>
    <line x1="24.25" y1="135.76022" x2="107.0567" y2="17.5" stroke='blue' stroke-width='0.1' tags='slant'/>
    <line x1="24.25" y1="143.64424" x2="112.57715" y2="17.5" stroke='blue' stroke-width='0.1' tags='slant'/>
    <line x1="24.25" y1="151.52825" x2="118.09759" y2="17.5" stroke='blue' stroke-width='0.1' tags='slant'/>
    <line x1="24.25" y1="159.41227" x2="123.61804" y2="17.5" stroke='blue' stroke-width='0.1' tags='slant'/>
    <line x1="24.25" y1="167.29628" x2="124.25" y2="24.48148" stroke='blue' stroke-width='0.1' tags='slant'/>
    <line x1="24.25" y1="175.1803" x2="124.25" y2="32.3655" stroke='blue' stroke-width='0.1' tags='slant'/>
    <line x1="24.25" y1="183.06431" x2="124.25" y2="40.24951" stroke='blue' stroke-width='0.1' tags='slant'/>
    <line x1="24.25" y1="190.94833" x2="124.25" y2="48.13353" stroke='blue' stroke-width='0.1' tags='slant'/>
    <line x1="28.68395" y1="192.5" x2="124.25" y2="56.01754" stroke='blue' stroke-width='0.1' tags='slant'/>
    <line x1="34.2044" y1="192.5" x2="124.25" y2="63.90156" stroke='blue' stroke-width='0.1' tags='slant'/>
    <line x1="39.72485" y1="192.5" x2="124.25" y2="71.78557" stroke='blue' stroke-width='0.1' tags='slant'/>
    <line x1="45.24529" y1="192.5" x2="124.25" y2="79.66959" stroke='blue' stroke-width='0.1' tags='slant'/>
    <line x1="50.76574" y1="192.5" x2="124.25" y2="87.5536" stroke='blue' stroke-width='0.1' tags='slant'/>
    <line x1="56.28619" y1="192.5" x2="124.25" y2="95.43762" stroke='blue' stroke-width='0.1' tags='slant'/>
    <line x1="61.80663" y1="192.5" x2="124.25" y2="103.32163" stroke='blue' stroke-width='0.1' tags='slant'/>
    <line x1="67.32708" y1="192.5" x2="124.25" y2="111.20565" stroke='blue' stroke-width='0.1' tags='slant'/>
    <line x1="72.84753" y1="192.5" x2="124.25" y2="119.08966" stroke='blue' stroke-width='0.1' tags='slant'/>
    <line x1="78.36797" y1="192.5" x2="124.25" y2="126.97368" stroke='blue' stroke-width='0.1' tags='slant'/>
    <line x1="83.88842" y1="192.5" x2="124.25" y2="134.85769" stroke='blue' stroke-width='0.1' tags='slant'/>
    <line x1="89.40887" y1="192.5" x2="124.25" y2="142.74171" stroke='blue' stroke-width='0.1' tags='slant'/>
    <line x1="94.92931" y1="192.5" x2="124.25" y2="150.62572" stroke='blue' stroke-width='0.1' tags='slant'/>
    <line x1="100.44976" y1="192.5" x2="124.25" y2="158.50974" stroke='blue' stroke-width='0.1' tags='slant'/>
    <line x1="105.97021" y1="192.5" x2="124.25" y2="166.39375" stroke='blue' stroke-width='0.1' tags='slant'/>
    <line x1="111.49065" y1="192.5" x2="124.25" y2="174.27777" stroke='blue' stroke-width='0.1' tags='slant'/>
    <line x1="117.0111" y1="192.5" x2="124.25" y2="182.16178" stroke='blue' stroke-width='0.1' tags='slant'/>
    <line x1="122.53155" y1="192.5" x2="124.25" y2="190.04579" stroke='blue' stroke-width='0.1' tags='slant'/>
    <line x1="24.25" y1="24.79759" x2="30.37341" y2="17.5" stroke='blue' stroke-width='0.07' stroke-dasharray='2, 2' tags='connective'/>
    <line x1="24.25" y1="32.09519" x2="36.49681" y2="17.5" stroke='blue' stroke-width='0.07' stroke-dasharray='2, 2' tags='connective'/>
    <line x1="24.25" y1="39.39278" x2="42.62022" y2="17.5" stroke='blue' stroke-width='0.07' stroke-dasharray='2, 2' tags='connective'/>
    <line x1="24.25" y1="46.69037" x2="48.74363" y2="17.5" stroke='blue' stroke-width='0.07' stroke-dasharray='2, 2' tags='connective'/>
    <line x1="24.25" y1="53.98796" x2="54.86704" y2="17.5" stroke='blue' stroke-width='0.07' stroke-dasharray='2, 2' tags='connective'/>
    <line x1="24.25" y1="61.28556" x2="60.99044" y2="17.5" stroke='blue' stroke-width='0.07' stroke-dasharray='2, 2' tags='connective'/>
    <line x1="24.25" y1="68.58315" x2="67.11385" y2="17.5" stroke='blue' stroke-width='0.07' stroke-dasharray='2, 2' tags='connective'/>
    <line x1="24.25" y1="75.88074" x2="73.23726" y2="17.5" stroke='blue' stroke-width='0.07' stroke-dasharray='2, 2' tags='connective'/>
    <line x1="24.25" y1="83.17833" x2="79.36066" y2="17.5" stroke='blue' stroke-width='0.07' stroke-dasharray='2, 2' tags='connective'/>
    <line x1="24.25" y1="90.47593" x2="85.48407" y2="17.5" stroke='blue' stroke-width='0.07' stroke-dasharray='2, 2' tags='connective'/>
    <line x1="24.25" y1="97.77352" x2="91.60748" y2="17.5" stroke='blue' stroke-width='0.07' stroke-dasharray='2, 2' tags='connective'/>
    <line x1="24.25" y1="105.07111" x2="97.73089" y2="17.5" stroke='blue' stroke-width='0.07' stroke-dasharray='2, 2' tags='connective'/>
    <line x1="24.25" y1="112.3687" x2="103.85429" y2="17.5" stroke='blue' stroke-width='0.07' stroke-dasharray='2, 2' tags='connective'/>
    <line x1="24.25" y1="119.6663" x2="109.9777" y2="17.5" stroke='blue' stroke-width='0.07' stroke-dasharray='2, 2' tags='connective'/>
    <line x1="24.25" y1="126.96389" x2="116.10111" y2="17.5" stroke='blue' stroke-width='0.07' stroke-dasharray='2, 2' tags='connective'/>
    <line x1="24.25" y1="134.26148" x2="122.22452" y2="17.5" stroke='blue' stroke-width='0.07' stroke-dasharray='2, 2' tags='connective'/>
    <line x1="24.25" y1="141.55907" x2="124.25" y2="22.38371" stroke='blue' stroke-width='0.07' stroke-dasharray='2, 2' tags='connective'/>
    <line x1="24.25" y1="148.85667" x2="124.25" y2="29.68131" stroke='blue' stroke-width='0.07' stroke-dasharray='2, 2' tags='connective'/>
    <line x1="24.25" y1="156.15426" x2="124.25" y2="36.9789" stroke='blue' stroke-width='0.07' stroke-dasharray='2, 2' tags='connective'/>
    <line x1="24.25" y1="163.45185" x2="124.25" y2="44.27649" stroke='blue' stroke-width='0.07' stroke-dasharray='2, 2' tags='connective'/>
    <line x1="24.25" y1="170.74944" x2="124.25" y2="51.57408" stroke='blue' stroke-width='0.07' stroke-dasharray='2, 2' tags='connective'/>
    <line x1="24.25" y1="178.04704" x2="124.25" y2="58.87168" stroke='blue' stroke-width='0.07' stroke-dasharray='2, 2' tags='connective'/>
    <line x1="24.25" y1="185.34463" x2="124.25" y2="66.16927" stroke='blue' stroke-width='0.07' stroke-dasharray='2, 2' tags='connective'/>
    <line x1="24.36934" y1="192.5" x2="124.25" y2="73.46686" stroke='blue' stroke-width='0.07' stroke-dasharray='2, 2' tags='connective'/>
    <line x1="30.49274" y1="192.5" x2="124.25" y2="80.76445" stroke='blue' stroke-width='0.07' stroke-dasharray='2, 2' tags='connective'/>
    <line x1="36.61615" y1="192.5" x2="124.25" y2="88.06205" stroke='blue' stroke-width='0.07' stroke-dasharray='2, 2' tags='connective'/>
    <line x1="42.73956" y1="192.5" x2="124.25" y2="95.35964" stroke='blue' stroke-width='0.07' stroke-dasharray='2, 2' tags='connective'/>
    <line x1="48.86297" y1="192.5" x2="124.25" y2="102.65723" stroke='blue' stroke-width='0.07' stroke-dasharray='2, 2' tags='connective'/>
    <line x1="54.98637" y1="192.5" x2="124.25" y2="109.95482" stroke='blue' stroke-width='0.07' stroke-dasharray='2, 2' tags='connective'/>
    <line x1="61.10978" y1="192.5" x2="124.25" y2="117.25242" stroke='blue' stroke-width='0.07' stroke-dasharray='2, 2' tags='connective'/>
    <line x1="67.23319" y1="192.5" x2="124.25" y2="124.55001" stroke='blue' stroke-width='0.07' stroke-dasharray='2, 2' tags='connective'/>
    <line x1="73.35659" y1="192.5" x2="124.25" y2="131.8476" stroke='blue' stroke-width='0.07' stroke-dasharray='2, 2' tags='connective'/>
    <line x1="79.48" y1="192.5" x2="124.25" y2="139.14519" stroke='blue' stroke-width='0.07' stroke-dasharray='2, 2' tags='connective'/>
    <line x1="85.60341" y1="192.5" x2="124.25" y2="146.44279" stroke='blue' stroke-width='0.07' stroke-dasharray='2, 2' tags='connective'/>
    <line x1="91.72682" y1="192.5" x2="124.25" y2="153.74038" stroke='blue' stroke-width='0.07' stroke-dasharray='2, 2' tags='connective'/>
    <line x1="97.85022" y1="192.5" x2="124.25" y2="161.03797" stroke='blue' stroke-width='0.07' stroke-dasharray='2, 2' tags='connective'/>
    <line x1="103.97363" y1="192.5" x2="124.25" y2="168.33556" stroke='blue' stroke-width='0.07' stroke-dasharray='2, 2' tags='connective'/>
    <line x1="110.09704" y1="192.5" x2="124.25" y2="175.63316" stroke='blue' stroke-width='0.07' stroke-dasharray='2, 2' tags='connective'/>
    <line x1="116.22045" y1="192.5" x2="124.25" y2="182.93075" stroke='blue' stroke-width='0.07' stroke-dasharray='2, 2' tags='connective'/>
    <line x1="122.34385" y1="192.5" x2="124.25" y2="190.22834" stroke='blue' stroke-width='0.07' stroke-dasharray='2, 2' tags='connective'/>
  </g>
</svg>
