<?xml version="1.0" standalone="no"?>
<!DOCTYPE svg PUBLIC "-//W3C//DTD SVG 1.1//EN" "http://www.w3.org/Graphics/SVG/1.1/DTD/svg11.dtd">
<svg xmlns="http://www.w3.org/2000/svg" width="148.5mm" height="210.0mm" viewBox="0 0 148.5 210.0" shape-rendering="geometricPrecision" >
  <style>
    svg         { stroke:            #ed008c; }
    svg         { stroke-width:         0.04; }
    .altcolor   { stroke:               blue; }
    .extrafine  { stroke-width:         0.01; }
    .fine       { stroke-width:         0.02; }
    .medium     { stroke-width:         0.04; }
    .broad      { stroke-width:         0.08; }
    .extrabroad { stroke-width:         0.16; }
    .dashed     { stroke-dasharray:      2 2; }
  </style>
  <g id="sheet">
    <line x1="14.25" y1="15.0" x2="134.25" y2="15.0" class='ascender2 broad'/>
    <line x1="14.25" y1="18.75" x2="134.25" y2="18.75" class='ascender1 dashed'/>
    <line x1="14.25" y1="22.5" x2="134.25" y2="22.5" class='waist altcolor'/>
    <line x1="14.25" y1="27.5" x2="134.25" y2="27.5" class='base'/>
    <line x1="14.25" y1="31.25" x2="134.25" y2="31.25" class='descender1 dashed'/>
    <line x1="14.25" y1="35.0" x2="134.25" y2="35.0" class='descender2 broad'/>
    <line x1="14.25" y1="38.75" x2="134.25" y2="38.75" class='ascender1 dashed'/>
    <line x1="14.25" y1="42.5" x2="134.25" y2="42.5" class='waist altcolor'/>
    <line x1="14.25" y1="47.5" x2="134.25" y2="47.5" class='base'/>
    <line x1="14.25" y1="51.25" x2="134.25" y2="51.25" class='descender1 dashed'/>
    <line x1="14.25" y1="55.0" x2="134.25" y2="55.0" class='descender2 broad'/>
    <line x1="14.25" y1="58.75" x2="134.25" y2="58.75" class='ascender1 dashed'/>
    <line x1="14.25" y1="62.5" x2="134.25" y2="62.5" class='waist altcolor'/>
    <line x1="14.25" y1="67.5" x2="134.25" y2="67.5" class='base'/>
    <line x1="14.25" y1="71.25" x2="134.25" y2="71.25" class='descender1 dashed'/>
    <line x1="14.25" y1="75.0" x2="134.25" y2="75.0" class='descender2 broad'/>
    <line x1="14.25" y1="78.75" x2="134.25" y2="78.75" class='ascender1 dashed'/>
    <line x1="14.25" y1="82.5" x2="134.25" y2="82.5" class='waist altcolor'/>
    <line x1="14.25" y1="87.5" x2="134.25" y2="87.5" class='base'/>
    <line x1="14.25" y1="91.25" x2="134.25" y2="91.25" class='descender1 dashed'/>
    <line x1="14.25" y1="95.0" x2="134.25" y2="95.0" class='descender2 broad'/>
    <line x1="14.25" y1="98.75" x2="134.25" y2="98.75" class='ascender1 dashed'/>
    <line x1="14.25" y1="102.5" x2="134.25" y2="102.5" class='waist altcolor'/>
    <line x1="14.25" y1="107.5" x2="134.25" y2="107.5" class='base'/>
    <line x1="14.25" y1="111.25" x2="134.25" y2="111.25" class='descender1 dashed'/>
    <line x1="14.25" y1="115.0" x2="134.25" y2="115.0" class='descender2 broad'/>
    <line x1="14.25" y1="118.75" x2="134.25" y2="118.75" class='ascender1 dashed'/>
    <line x1="14.25" y1="122.5" x2="134.25" y2="122.5" class='waist altcolor'/>
    <line x1="14.25" y1="127.5" x2="134.25" y2="127.5" class='base'/>
    <line x1="14.25" y1="131.25" x2="134.25" y2="131.25" class='descender1 dashed'/>
    <line x1="14.25" y1="135.0" x2="134.25" y2="135.0" class='descender2 broad'/>
    <line x1="14.25" y1="138.75" x2="134.25" y2="138.75" class='ascender1 dashed'/>
    <line x1="14.25" y1="142.5" x2="134.25" y2="142.5" class='waist altcolor'/>
    <line x1="14.25" y1="147.5" x2="134.25" y2="147.5" class='base'/>
    <line x1="14.25" y1="151.25" x2="134.25" y2="151.25" class='descender1 dashed'/>
    <line x1="14.25" y1="155.0" x2="134.25" y2="155.0" class='descender2 broad'/>
    <line x1="14.25" y1="158.75" x2="134.25" y2="158.75" class='ascender1 dashed'/>
    <line x1="14.25" y1="162.5" x2="134.25" y2="162.5" class='waist altcolor'/>
    <line x1="14.25" y1="167.5" x2="134.25" y2="167.5" class='base'/>
    <line x1="14.25" y1="171.25" x2="134.25" y2="171.25" class='descender1 dashed'/>
    <line x1="14.25" y1="175.0" x2="134.25" y2="175.0" class='descender2 broad'/>
    <line x1="14.25" y1="178.75" x2="134.25" y2="178.75" class='ascender1 dashed'/>
    <line x1="14.25" y1="182.5" x2="134.25" y2="182.5" class='waist altcolor'/>
    <line x1="14.25" y1="187.5" x2="134.25" y2="187.5" class='base'/>
    <line x1="14.25" y1="191.25" x2="134.25" y2="191.25" class='descender1 dashed'/>
    <line x1="14.25" y1="195.0" x2="134.25" y2="195.0" class='descender2 broad'/>
    <line x1="14.25" y1="15.0" x2="14.25" y2="15.0" class='slant fine'/>
    <line x1="14.25" y1="22.71017" x2="20.27385" y2="15.0" class='slant fine'/>
    <line x1="14.25" y1="30.42034" x2="26.29769" y2="15.0" class='slant fine'/>
    <line x1="14.25" y1="38.13051" x2="32.32154" y2="15.0" class='slant fine'/>
    <line x1="14.25" y1="45.84068" x2="38.34538" y2="15.0" class='slant fine'/>
    <line x1="14.25" y1="53.55085" x2="44.36923" y2="15.0" class='slant fine'/>
    <line x1="14.25" y1="61.26103" x2="50.39307" y2="15.0" class='slant fine'/>
    <line x1="14.25" y1="68.9712" x2="56.41692" y2="15.0" class='slant fine'/>
    <line x1="14.25" y1="76.68137" x2="62.44077" y2="15.0" class='slant fine'/>
    <line x1="14.25" y1="84.39154" x2="68.46461" y2="15.0" class='slant fine'/>
    <line x1="14.25" y1="92.10171" x2="74.48846" y2="15.0" class='slant fine'/>
    <line x1="14.25" y1="99.81188" x2="80.5123" y2="15.0" class='slant fine'/>
    <line x1="14.25" y1="107.52205" x2="86.53615" y2="15.0" class='slant fine'/>
    <line x1="14.25" y1="115.23222" x2="92.55999" y2="15.0" class='slant fine'/>
    <line x1="14.25" y1="122.94239" x2="98.58384" y2="15.0" class='slant fine'/>
    <line x1="14.25" y1="130.65256" x2="104.60768" y2="15.0" class='slant fine'/>
    <line x1="14.25" y1="138.36273" x2="110.63153" y2="15.0" class='slant fine'/>
    <line x1="14.25" y1="146.0729" x2="116.65538" y2="15.0" class='slant fine'/>
    <line x1="14.25" y1="153.78308" x2="122.67922" y2="15.0" class='slant fine'/>
    <line x1="14.25" y1="161.49325" x2="128.70307" y2="15.0" class='slant fine'/>
    <line x1="14.25" y1="169.20342" x2="134.25" y2="15.61042" class='slant fine'/>
    <line x1="14.25" y1="176.91359" x2="134.25" y2="23.32059" class='slant fine'/>
    <line x1="14.25" y1="184.62376" x2="134.25" y2="31.03076" class='slant fine'/>
    <line x1="14.25" y1="192.33393" x2="134.25" y2="38.74093" class='slant fine'/>
    <line x1="18.19088" y1="195.0" x2="134.25" y2="46.4511" class='slant fine'/>
    <line x1="24.21473" y1="195.0" x2="134.25" y2="54.16128" class='slant fine'/>
    <line x1="30.23857" y1="195.0" x2="134.25" y2="61.87145" class='slant fine'/>
    <line x1="36.26242" y1="195.0" x2="134.25" y2="69.58162" class='slant fine'/>
    <line x1="42.28627" y1="195.0" x2="134.25" y2="77.29179" class='slant fine'/>
    <line x1="48.31011" y1="195.0" x2="134.25" y2="85.00196" class='slant fine'/>
    <line x1="54.33396" y1="195.0" x2="134.25" y2="92.71213" class='slant fine'/>
    <line x1="60.3578" y1="195.0" x2="134.25" y2="100.4223" class='slant fine'/>
    <line x1="66.38165" y1="195.0" x2="134.25" y2="108.13247" class='slant fine'/>
    <line x1="72.40549" y1="195.0" x2="134.25" y2="115.84264" class='slant fine'/>
    <line x1="78.42934" y1="195.0" x2="134.25" y2="123.55281" class='slant fine'/>
    <line x1="84.45319" y1="195.0" x2="134.25" y2="131.26298" class='slant fine'/>
    <line x1="90.47703" y1="195.0" x2="134.25" y2="138.97315" class='slant fine'/>
    <line x1="96.50088" y1="195.0" x2="134.25" y2="146.68333" class='slant fine'/>
    <line x1="102.52472" y1="195.0" x2="134.25" y2="154.3935" class='slant fine'/>
    <line x1="108.54857" y1="195.0" x2="134.25" y2="162.10367" class='slant fine'/>
    <line x1="114.57241" y1="195.0" x2="134.25" y2="169.81384" class='slant fine'/>
    <line x1="120.59626" y1="195.0" x2="134.25" y2="177.52401" class='slant fine'/>
    <line x1="126.6201" y1="195.0" x2="134.25" y2="185.23418" class='slant fine'/>
    <line x1="132.64395" y1="195.0" x2="134.25" y2="192.94435" class='slant fine'/>
    <line x1="14.25" y1="20.76153" x2="24.22927" y2="15.0" class='connective fine dashed'/>
    <line x1="14.25" y1="26.52307" x2="34.20854" y2="15.0" class='connective fine dashed'/>
    <line x1="14.25" y1="32.2846" x2="44.1878" y2="15.0" class='connective fine dashed'/>
    <line x1="14.25" y1="38.04613" x2="54.16707" y2="15.0" class='connective fine dashed'/>
    <line x1="14.25" y1="43.80767" x2="64.14634" y2="15.0" class='connective fine dashed'/>
    <line x1="14.25" y1="49.5692" x2="74.12561" y2="15.0" class='connective fine dashed'/>
    <line x1="14.25" y1="55.33073" x2="84.10488" y2="15.0" class='connective fine dashed'/>
    <line x1="14.25" y1="61.09226" x2="94.08414" y2="15.0" class='connective fine dashed'/>
    <line x1="14.25" y1="66.8538" x2="104.06341" y2="15.0" class='connective fine dashed'/>
    <line x1="14.25" y1="72.61533" x2="114.04268" y2="15.0" class='connective fine dashed'/>
    <line x1="14.25" y1="78.37686" x2="124.02195" y2="15.0" class='connective fine dashed'/>
    <line x1="14.25" y1="84.1384" x2="134.00121" y2="15.0" class='connective fine dashed'/>
    <line x1="14.25" y1="89.89993" x2="134.25" y2="20.6179" class='connective fine dashed'/>
    <line x1="14.25" y1="95.66146" x2="134.25" y2="26.37943" class='connective fine dashed'/>
    <line x1="14.25" y1="101.423" x2="134.25" y2="32.14096" class='connective fine dashed'/>
    <line x1="14.25" y1="107.18453" x2="134.25" y2="37.9025" class='connective fine dashed'/>
    <line x1="14.25" y1="112.94606" x2="134.25" y2="43.66403" class='connective fine dashed'/>
    <line x1="14.25" y1="118.70759" x2="134.25" y2="49.42556" class='connective fine dashed'/>
    <line x1="14.25" y1="124.46913" x2="134.25" y2="55.18709" class='connective fine dashed'/>
    <line x1="14.25" y1="130.23066" x2="134.25" y2="60.94863" class='connective fine dashed'/>
    <line x1="14.25" y1="135.99219" x2="134.25" y2="66.71016" class='connective fine dashed'/>
    <line x1="14.25" y1="141.75373" x2="134.25" y2="72.47169" class='connective fine dashed'/>
    <line x1="14.25" y1="147.51526" x2="134.25" y2="78.23323" class='connective fine dashed'/>
    <line x1="14.25" y1="153.27679" x2="134.25" y2="83.99476" class='connective fine dashed'/>
    <line x1="14.25" y1="159.03833" x2="134.25" y2="89.75629" class='connective fine dashed'/>
    <line x1="14.25" y1="164.79986" x2="134.25" y2="95.51783" class='connective fine dashed'/>
    <line x1="14.25" y1="170.56139" x2="134.25" y2="101.27936" class='connective fine dashed'/>
    <line x1="14.25" y1="176.32292" x2="134.25" y2="107.04089" class='connective fine dashed'/>
    <line x1="14.25" y1="182.08446" x2="134.25" y2="112.80242" class='connective fine dashed'/>
    <line x1="14.25" y1="187.84599" x2="134.25" y2="118.56396" class='connective fine dashed'/>
    <line x1="14.25" y1="193.60752" x2="134.25" y2="124.32549" class='connective fine dashed'/>
    <line x1="21.81743" y1="195.0" x2="134.25" y2="130.08702" class='connective fine dashed'/>
    <line x1="31.7967" y1="195.0" x2="134.25" y2="135.84856" class='connective fine dashed'/>
    <line x1="41.77596" y1="195.0" x2="134.25" y2="141.61009" class='connective fine dashed'/>
    <line x1="51.75523" y1="195.0" x2="134.25" y2="147.37162" class='connective fine dashed'/>
    <line x1="61.7345" y1="195.0" x2="134.25" y2="153.13316" class='connective fine dashed'/>
    <line x1="71.71377" y1="195.0" x2="134.25" y2="158.89469" class='connective fine dashed'/>
    <line x1="81.69303" y1="195.0" x2="134.25" y2="164.65622" class='connective fine dashed'/>
    <line x1="91.6723" y1="195.0" x2="134.25" y2="170.41776" class='connective fine dashed'/>
    <line x1="101.65157" y1="195.0" x2="134.25" y2="176.17929" class='connective fine dashed'/>
    <line x1="111.63084" y1="195.0" x2="134.25" y2="181.94082" class='connective fine dashed'/>
    <line x1="121.61011" y1="195.0" x2="134.25" y2="187.70235" class='connective fine dashed'/>
    <line x1="131.58937" y1="195.0" x2="134.25" y2="193.46389" class='connective fine dashed'/>
  </g>
</svg>
