<?xml version="1.0" standalone="no"?>
<!DOCTYPE svg PUBLIC "-//W3C//DTD SVG 1.1//EN" "http://www.w3.org/Graphics/SVG/1.1/DTD/svg11.dtd">
<svg xmlns="http://www.w3.org/2000/svg" width="210.0mm" height="148.5mm" viewBox="0 0 210.0 148.5" >

  <g id="sheet">
    <line x1="21.0" y1="18.25" x2="189.0" y2="18.25" stroke='blue' stroke-width='0.2' tags='ascender2'/>
    <line x1="21.0" y1="23.5" x2="189.0" y2="23.5" stroke='grey' stroke-width='0.1' stroke-dasharray='2, 2' tags='ascender1'/>
    <line x1="21.0" y1="28.75" x2="189.0" y2="28.75" stroke='grey' stroke-width='0.1' tags='waist'/>
    <line x1="21.0" y1="35.75" x2="189.0" y2="35.75" stroke='red' stroke-width='0.1' tags='base'/>
    <line x1="21.0" y1="41.0" x2="189.0" y2="41.0" stroke='grey' stroke-width='0.1' stroke-dasharray='2, 2' tags='descender1'/>
    <line x1="21.0" y1="46.25" x2="189.0" y2="46.25" stroke='blue' stroke-width='0.2' tags='descender2'/>
    <line x1="21.0" y1="51.5" x2="189.0" y2="51.5" stroke='grey' stroke-width='0.1' stroke-dasharray='2, 2' tags='ascender1'/>
    <line x1="21.0" y1="56.75" x2="189.0" y2="56.75" stroke='grey' stroke-width='0.1' tags='waist'/>
    <line x1="21.0" y1="63.75" x2="189.0" y2="63.75" stroke='red' stroke-width='0.1' tags='base'/>
    <line x1="21.0" y1="69.0" x2="189.0" y2="69.0" stroke='grey' stroke-width='0.1' stroke-dasharray='2, 2' tags='descender1'/>
    <line x1="21.0" y1="74.25" x2="189.0" y2="74.25" stroke='blue' stroke-width='0.2' tags='descender2'/>
    <line x1="21.0" y1="79.5" x2="189.0" y2="79.5" stroke='grey' stroke-width='0.1' stroke-dasharray='2, 2' tags='ascender1'/>
    <line x1="21.0" y1="84.75" x2="189.0" y2="84.75" stroke='grey' stroke-width='0.1' tags='waist'/>
    <line x1="21.0" y1="91.75" x2="189.0" y2="91.75" stroke='red' stroke-width='0.1' tags='base'/>
    <line x1="21.0" y1="97.0" x2="189.0" y2="97.0" stroke='grey' stroke-width='0.1' stroke-dasharray='2, 2' tags='descender1'/>
    <line x1="21.0" y1="102.25" x2="189.0" y2="102.25" stroke='blue' stroke-width='0.2' tags='descender2'/>
    <line x1="21.0" y1="107.5" x2="189.0" y2="107.5" stroke='grey' stroke-width='0.1' stroke-dasharray='2, 2' tags='ascender1'/>
    <line x1="21.0" y1="112.75" x2="189.0" y2="112.75" stroke='grey' stroke-width='0.1' tags='waist'/>
    <line x1="21.0" y1="119.75" x2="189.0" y2="119.75" stroke='red' stroke-width='0.1' tags='base'/>
    <line x1="21.0" y1="125.0" x2="189.0" y2="125.0" stroke='grey' stroke-width='0.1' stroke-dasharray='2, 2' tags='descender1'/>
    <line x1="21.0" y1="130.25" x2="189.0" y2="130.25" stroke='blue' stroke-width='0.2' tags='descender2'/>
    <line x1="21.0" y1="18.25" x2="21.0" y2="18.25" stroke='blue' stroke-width='0.1' tags='slant'/>
    <line x1="21.0" y1="29.58773" x2="29.85801" y2="18.25" stroke='blue' stroke-width='0.1' tags='slant'/>
    <line x1="21.0" y1="40.92546" x2="38.71601" y2="18.25" stroke='blue' stroke-width='0.1' tags='slant'/>
    <line x1="21.0" y1="52.2632" x2="47.57402" y2="18.25" stroke='blue' stroke-width='0.1' tags='slant'/>
    <line x1="21.0" y1="63.60093" x2="56.43203" y2="18.25" stroke='blue' stroke-width='0.1' tags='slant'/>
    <line x1="21.0" y1="74.93866" x2="65.29004" y2="18.25" stroke='blue' stroke-width='0.1' tags='slant'/>
    <line x1="21.0" y1="86.27639" x2="74.14804" y2="18.25" stroke='blue' stroke-width='0.1' tags='slant'/>
    <line x1="21.0" y1="97.61412" x2="83.00605" y2="18.25" stroke='blue' stroke-width='0.1' tags='slant'/>
    <line x1="21.0" y1="108.95186" x2="91.86406" y2="18.25" stroke='blue' stroke-width='0.1' tags='slant'/>
    <line x1="21.0" y1="120.28959" x2="100.72206" y2="18.25" stroke='blue' stroke-width='0.1' tags='slant'/>
    <line x1="22.07608" y1="130.25" x2="109.58007" y2="18.25" stroke='blue' stroke-width='0.1' tags='slant'/>
    <line x1="30.93409" y1="130.25" x2="118.43808" y2="18.25" stroke='blue' stroke-width='0.1' tags='slant'/>
    <line x1="39.79209" y1="130.25" x2="127.29609" y2="18.25" stroke='blue' stroke-width='0.1' tags='slant'/>
    <line x1="48.6501" y1="130.25" x2="136.15409" y2="18.25" stroke='blue' stroke-width='0.1' tags='slant'/>
    <line x1="57.50811" y1="130.25" x2="145.0121" y2="18.25" stroke='blue' stroke-width='0.1' tags='slant'/>
    <line x1="66.36612" y1="130.25" x2="153.87011" y2="18.25" stroke='blue' stroke-width='0.1' tags='slant'/>
    <line x1="75.22412" y1="130.25" x2="162.72811" y2="18.25" stroke='blue' stroke-width='0.1' tags='slant'/>
    <line x1="84.08213" y1="130.25" x2="171.58612" y2="18.25" stroke='blue' stroke-width='0.1' tags='slant'/>
    <line x1="92.94014" y1="130.25" x2="180.44413" y2="18.25" stroke='blue' stroke-width='0.1' tags='slant'/>
    <line x1="101.79814" y1="130.25" x2="189.0" y2="18.63671" stroke='blue' stroke-width='0.1' tags='slant'/>
    <line x1="110.65615" y1="130.25" x2="189.0" y2="29.97445" stroke='blue' stroke-width='0.1' tags='slant'/>
    <line x1="119.51416" y1="130.25" x2="189.0" y2="41.31218" stroke='blue' stroke-width='0.1' tags='slant'/>
    <line x1="128.37217" y1="130.25" x2="189.0" y2="52.64991" stroke='blue' stroke-width='0.1' tags='slant'/>
    <line x1="137.23017" y1="130.25" x2="189.0" y2="63.98764" stroke='blue' stroke-width='0.1' tags='slant'/>
    <line x1="146.08818" y1="130.25" x2="189.0" y2="75.32538" stroke='blue' stroke-width='0.1' tags='slant'/>
    <line x1="154.94619" y1="130.25" x2="189.0" y2="86.66311" stroke='blue' stroke-width='0.1' tags='slant'/>
    <line x1="163.80419" y1="130.25" x2="189.0" y2="98.00084" stroke='blue' stroke-width='0.1' tags='slant'/>
    <line x1="172.6622" y1="130.25" x2="189.0" y2="109.33857" stroke='blue' stroke-width='0.1' tags='slant'/>
    <line x1="181.52021" y1="130.25" x2="189.0" y2="120.6763" stroke='blue' stroke-width='0.1' tags='slant'/>
    <line x1="21.0" y1="25.49559" x2="33.54973" y2="18.25" stroke='blue' stroke-width='0.07' stroke-dasharray='2, 2' tags='connective'/>
    <line x1="21.0" y1="32.74119" x2="46.09947" y2="18.25" stroke='blue' stroke-width='0.07' stroke-dasharray='2, 2' tags='connective'/>
    <line x1="21.0" y1="39.98678" x2="58.6492" y2="18.25" stroke='blue' stroke-width='0.07' stroke-dasharray='2, 2' tags='connective'/>
    <line x1="21.0" y1="47.23237" x2="71.19894" y2="18.25" stroke='blue' stroke-width='0.07' stroke-dasharray='2, 2' tags='connective'/>
    <line x1="21.0" y1="54.47796" x2="83.74867" y2="18.25" stroke='blue' stroke-width='0.07' stroke-dasharray='2, 2' tags='connective'/>
    <line x1="21.0" y1="61.72356" x2="96.29841" y2="18.25" stroke='blue' stroke-width='0.07' stroke-dasharray='2, 2' tags='connective'/>
    <line x1="21.0" y1="68.96915" x2="108.84814" y2="18.25" stroke='blue' stroke-width='0.07' stroke-dasharray='2, 2' tags='connective'/>
    <line x1="21.0" y1="76.21474" x2="121.39788" y2="18.25" stroke='blue' stroke-width='0.07' stroke-dasharray='2, 2' tags='connective'/>
    <line x1="21.0" y1="83.46033" x2="133.94761" y2="18.25" stroke='blue' stroke-width='0.07' stroke-dasharray='2, 2' tags='connective'/>
    <line x1="21.0" y1="90.70593" x2="146.49735" y2="18.25" stroke='blue' stroke-width='0.07' stroke-dasharray='2, 2' tags='connective'/>
    <line x1="21.0" y1="97.95152" x2="159.04708" y2="18.25" stroke='blue' stroke-width='0.07' stroke-dasharray='2, 2' tags='connective'/>
    <line x1="21.0" y1="105.19711" x2="171.59681" y2="18.25" stroke='blue' stroke-width='0.07' stroke-dasharray='2, 2' tags='connective'/>
    <line x1="21.0" y1="112.4427" x2="184.14655" y2="18.25" stroke='blue' stroke-width='0.07' stroke-dasharray='2, 2' tags='connective'/>
    <line x1="21.0" y1="119.6883" x2="189.0" y2="22.69345" stroke='blue' stroke-width='0.07' stroke-dasharray='2, 2' tags='connective'/>
    <line x1="21.0" y1="126.93389" x2="189.0" y2="29.93904" stroke='blue' stroke-width='0.07' stroke-dasharray='2, 2' tags='connective'/>
    <line x1="27.80606" y1="130.25" x2="189.0" y2="37.18464" stroke='blue' stroke-width='0.07' stroke-dasharray='2, 2' tags='connective'/>
    <line x1="40.3558" y1="130.25" x2="189.0" y2="44.43023" stroke='blue' stroke-width='0.07' stroke-dasharray='2, 2' tags='connective'/>
    <line x1="52.90553" y1="130.25" x2="189.0" y2="51.67582" stroke='blue' stroke-width='0.07' stroke-dasharray='2, 2' tags='connective'/>
    <line x1="65.45527" y1="130.25" x2="189.0" y2="58.92141" stroke='blue' stroke-width='0.07' stroke-dasharray='2, 2' tags='connective'/>
    <line x1="78.005" y1="130.25" x2="189.0" y2="66.16701" stroke='blue' stroke-width='0.07' stroke-dasharray='2, 2' tags='connective'/>
    <line x1="90.55473" y1="130.25" x2="189.0" y2="73.4126" stroke='blue' stroke-width='0.07' stroke-dasharray='2, 2' tags='connective'/>
    <line x1="103.10447" y1="130.25" x2="189.0" y2="80.65819" stroke='blue' stroke-width='0.07' stroke-dasharray='2, 2' tags='connective'/>
    <line x1="115.6542" y1="130.25" x2="189.0" y2="87.90378" stroke='blue' stroke-width='0.07' stroke-dasharray='2, 2' tags='connective'/>
    <line x1="128.20394" y1="130.25" x2="189.0" y2="95.14938" stroke='blue' stroke-width='0.07' stroke-dasharray='2, 2' tags='connective'/>
    <line x1="140.75367" y1="130.25" x2="189.0" y2="102.39497" stroke='blue' stroke-width='0.07' stroke-dasharray='2, 2' tags='connective'/>
    <line x1="153.30341" y1="130.25" x2="189.0" y2="109.64056" stroke='blue' stroke-width='0.07' stroke-dasharray='2, 2' tags='connective'/>
    <line x1="165.85314" y1="130.25" x2="189.0" y2="116.88616" stroke='blue' stroke-width='0.07' stroke-dasharray='2, 2' tags='connective'/>
    <line x1="178.40288" y1="130.25" x2="189.0" y2="124.13175" stroke='blue' stroke-width='0.07' stroke-dasharray='2, 2' tags='connective'/>
  </g>
</svg>
