<?xml version="1.0" standalone="no"?>
<!DOCTYPE svg PUBLIC "-//W3C//DTD SVG 1.1//EN" "http://www.w3.org/Graphics/SVG/1.1/DTD/svg11.dtd">
<svg xmlns="http://www.w3.org/2000/svg" width="148.5mm" height="210.0mm" viewBox="0 0 148.5 210.0" shape-rendering="geometricPrecision" >
  <style>
    svg       { stroke: #ed008c; stroke-width: 0.04; }
    .altcolor { stroke: blue; }
    .thin     { stroke-width: 0.02; }
    .thick    { stroke-width: 0.08; }
    .dashed   { stroke-dasharray: 2 2; }
  </style>
  <g id="sheet">
    <line x1="11.75" y1="17.5" x2="136.75" y2="17.5" class='ascender2 thick'/>
    <line x1="11.75" y1="22.5" x2="136.75" y2="22.5" class='ascender1 dashed'/>
    <line x1="11.75" y1="27.5" x2="136.75" y2="27.5" class='waist altcolor'/>
    <line x1="11.75" y1="32.5" x2="136.75" y2="32.5" class='base'/>
    <line x1="11.75" y1="37.5" x2="136.75" y2="37.5" class='descender1 dashed'/>
    <line x1="11.75" y1="42.5" x2="136.75" y2="42.5" class='descender2 thick'/>
    <line x1="11.75" y1="47.5" x2="136.75" y2="47.5" class='ascender1 dashed'/>
    <line x1="11.75" y1="52.5" x2="136.75" y2="52.5" class='waist altcolor'/>
    <line x1="11.75" y1="57.5" x2="136.75" y2="57.5" class='base'/>
    <line x1="11.75" y1="62.5" x2="136.75" y2="62.5" class='descender1 dashed'/>
    <line x1="11.75" y1="67.5" x2="136.75" y2="67.5" class='descender2 thick'/>
    <line x1="11.75" y1="72.5" x2="136.75" y2="72.5" class='ascender1 dashed'/>
    <line x1="11.75" y1="77.5" x2="136.75" y2="77.5" class='waist altcolor'/>
    <line x1="11.75" y1="82.5" x2="136.75" y2="82.5" class='base'/>
    <line x1="11.75" y1="87.5" x2="136.75" y2="87.5" class='descender1 dashed'/>
    <line x1="11.75" y1="92.5" x2="136.75" y2="92.5" class='descender2 thick'/>
    <line x1="11.75" y1="97.5" x2="136.75" y2="97.5" class='ascender1 dashed'/>
    <line x1="11.75" y1="102.5" x2="136.75" y2="102.5" class='waist altcolor'/>
    <line x1="11.75" y1="107.5" x2="136.75" y2="107.5" class='base'/>
    <line x1="11.75" y1="112.5" x2="136.75" y2="112.5" class='descender1 dashed'/>
    <line x1="11.75" y1="117.5" x2="136.75" y2="117.5" class='descender2 thick'/>
    <line x1="11.75" y1="122.5" x2="136.75" y2="122.5" class='ascender1 dashed'/>
    <line x1="11.75" y1="127.5" x2="136.75" y2="127.5" class='waist altcolor'/>
    <line x1="11.75" y1="132.5" x2="136.75" y2="132.5" class='base'/>
    <line x1="11.75" y1="137.5" x2="136.75" y2="137.5" class='descender1 dashed'/>
    <line x1="11.75" y1="142.5" x2="136.75" y2="142.5" class='descender2 thick'/>
    <line x1="11.75" y1="147.5" x2="136.75" y2="147.5" class='ascender1 dashed'/>
    <line x1="11.75" y1="152.5" x2="136.75" y2="152.5" class='waist altcolor'/>
    <line x1="11.75" y1="157.5" x2="136.75" y2="157.5" class='base'/>
    <line x1="11.75" y1="162.5" x2="136.75" y2="162.5" class='descender1 dashed'/>
    <line x1="11.75" y1="167.5" x2="136.75" y2="167.5" class='descender2 thick'/>
    <line x1="11.75" y1="172.5" x2="136.75" y2="172.5" class='ascender1 dashed'/>
    <line x1="11.75" y1="177.5" x2="136.75" y2="177.5" class='waist altcolor'/>
    <line x1="11.75" y1="182.5" x2="136.75" y2="182.5" class='base'/>
    <line x1="11.75" y1="187.5" x2="136.75" y2="187.5" class='descender1 dashed'/>
    <line x1="11.75" y1="192.5" x2="136.75" y2="192.5" class='descender2 thick'/>
    <line x1="11.75" y1="17.5" x2="11.75" y2="17.5" class='slant thin'/>
    <line x1="11.75" y1="25.28842" x2="17.83498" y2="17.5" class='slant thin'/>
    <line x1="11.75" y1="33.07684" x2="23.91996" y2="17.5" class='slant thin'/>
    <line x1="11.75" y1="40.86527" x2="30.00495" y2="17.5" class='slant thin'/>
    <line x1="11.75" y1="48.65369" x2="36.08993" y2="17.5" class='slant thin'/>
    <line x1="11.75" y1="56.44211" x2="42.17491" y2="17.5" class='slant thin'/>
    <line x1="11.75" y1="64.23053" x2="48.25989" y2="17.5" class='slant thin'/>
    <line x1="11.75" y1="72.01896" x2="54.34488" y2="17.5" class='slant thin'/>
    <line x1="11.75" y1="79.80738" x2="60.42986" y2="17.5" class='slant thin'/>
    <line x1="11.75" y1="87.5958" x2="66.51484" y2="17.5" class='slant thin'/>
    <line x1="11.75" y1="95.38422" x2="72.59982" y2="17.5" class='slant thin'/>
    <line x1="11.75" y1="103.17264" x2="78.68481" y2="17.5" class='slant thin'/>
    <line x1="11.75" y1="110.96107" x2="84.76979" y2="17.5" class='slant thin'/>
    <line x1="11.75" y1="118.74949" x2="90.85477" y2="17.5" class='slant thin'/>
    <line x1="11.75" y1="126.53791" x2="96.93975" y2="17.5" class='slant thin'/>
    <line x1="11.75" y1="134.32633" x2="103.02473" y2="17.5" class='slant thin'/>
    <line x1="11.75" y1="142.11475" x2="109.10972" y2="17.5" class='slant thin'/>
    <line x1="11.75" y1="149.90318" x2="115.1947" y2="17.5" class='slant thin'/>
    <line x1="11.75" y1="157.6916" x2="121.27968" y2="17.5" class='slant thin'/>
    <line x1="11.75" y1="165.48002" x2="127.36466" y2="17.5" class='slant thin'/>
    <line x1="11.75" y1="173.26844" x2="133.44965" y2="17.5" class='slant thin'/>
    <line x1="11.75" y1="181.05687" x2="136.75" y2="21.06416" class='slant thin'/>
    <line x1="11.75" y1="188.84529" x2="136.75" y2="28.85258" class='slant thin'/>
    <line x1="14.97961" y1="192.5" x2="136.75" y2="36.64101" class='slant thin'/>
    <line x1="21.06459" y1="192.5" x2="136.75" y2="44.42943" class='slant thin'/>
    <line x1="27.14957" y1="192.5" x2="136.75" y2="52.21785" class='slant thin'/>
    <line x1="33.23455" y1="192.5" x2="136.75" y2="60.00627" class='slant thin'/>
    <line x1="39.31954" y1="192.5" x2="136.75" y2="67.79469" class='slant thin'/>
    <line x1="45.40452" y1="192.5" x2="136.75" y2="75.58312" class='slant thin'/>
    <line x1="51.4895" y1="192.5" x2="136.75" y2="83.37154" class='slant thin'/>
    <line x1="57.57448" y1="192.5" x2="136.75" y2="91.15996" class='slant thin'/>
    <line x1="63.65947" y1="192.5" x2="136.75" y2="98.94838" class='slant thin'/>
    <line x1="69.74445" y1="192.5" x2="136.75" y2="106.73681" class='slant thin'/>
    <line x1="75.82943" y1="192.5" x2="136.75" y2="114.52523" class='slant thin'/>
    <line x1="81.91441" y1="192.5" x2="136.75" y2="122.31365" class='slant thin'/>
    <line x1="87.9994" y1="192.5" x2="136.75" y2="130.10207" class='slant thin'/>
    <line x1="94.08438" y1="192.5" x2="136.75" y2="137.89049" class='slant thin'/>
    <line x1="100.16936" y1="192.5" x2="136.75" y2="145.67892" class='slant thin'/>
    <line x1="106.25434" y1="192.5" x2="136.75" y2="153.46734" class='slant thin'/>
    <line x1="112.33932" y1="192.5" x2="136.75" y2="161.25576" class='slant thin'/>
    <line x1="118.42431" y1="192.5" x2="136.75" y2="169.04418" class='slant thin'/>
    <line x1="124.50929" y1="192.5" x2="136.75" y2="176.8326" class='slant thin'/>
    <line x1="130.59427" y1="192.5" x2="136.75" y2="184.62103" class='slant thin'/>
    <line x1="136.67925" y1="192.5" x2="136.75" y2="192.40945" class='slant thin'/>
    <line x1="11.75" y1="23.24656" x2="21.70333" y2="17.5" class='connective thin dashed'/>
    <line x1="11.75" y1="28.99311" x2="31.65666" y2="17.5" class='connective thin dashed'/>
    <line x1="11.75" y1="34.73967" x2="41.60999" y2="17.5" class='connective thin dashed'/>
    <line x1="11.75" y1="40.48623" x2="51.56332" y2="17.5" class='connective thin dashed'/>
    <line x1="11.75" y1="46.23279" x2="61.51665" y2="17.5" class='connective thin dashed'/>
    <line x1="11.75" y1="51.97934" x2="71.46998" y2="17.5" class='connective thin dashed'/>
    <line x1="11.75" y1="57.7259" x2="81.42331" y2="17.5" class='connective thin dashed'/>
    <line x1="11.75" y1="63.47246" x2="91.37664" y2="17.5" class='connective thin dashed'/>
    <line x1="11.75" y1="69.21902" x2="101.32997" y2="17.5" class='connective thin dashed'/>
    <line x1="11.75" y1="74.96557" x2="111.2833" y2="17.5" class='connective thin dashed'/>
    <line x1="11.75" y1="80.71213" x2="121.23663" y2="17.5" class='connective thin dashed'/>
    <line x1="11.75" y1="86.45869" x2="131.18995" y2="17.5" class='connective thin dashed'/>
    <line x1="11.75" y1="92.20525" x2="136.75" y2="20.03646" class='connective thin dashed'/>
    <line x1="11.75" y1="97.9518" x2="136.75" y2="25.78302" class='connective thin dashed'/>
    <line x1="11.75" y1="103.69836" x2="136.75" y2="31.52958" class='connective thin dashed'/>
    <line x1="11.75" y1="109.44492" x2="136.75" y2="37.27614" class='connective thin dashed'/>
    <line x1="11.75" y1="115.19148" x2="136.75" y2="43.02269" class='connective thin dashed'/>
    <line x1="11.75" y1="120.93803" x2="136.75" y2="48.76925" class='connective thin dashed'/>
    <line x1="11.75" y1="126.68459" x2="136.75" y2="54.51581" class='connective thin dashed'/>
    <line x1="11.75" y1="132.43115" x2="136.75" y2="60.26237" class='connective thin dashed'/>
    <line x1="11.75" y1="138.17771" x2="136.75" y2="66.00892" class='connective thin dashed'/>
    <line x1="11.75" y1="143.92426" x2="136.75" y2="71.75548" class='connective thin dashed'/>
    <line x1="11.75" y1="149.67082" x2="136.75" y2="77.50204" class='connective thin dashed'/>
    <line x1="11.75" y1="155.41738" x2="136.75" y2="83.2486" class='connective thin dashed'/>
    <line x1="11.75" y1="161.16394" x2="136.75" y2="88.99515" class='connective thin dashed'/>
    <line x1="11.75" y1="166.91049" x2="136.75" y2="94.74171" class='connective thin dashed'/>
    <line x1="11.75" y1="172.65705" x2="136.75" y2="100.48827" class='connective thin dashed'/>
    <line x1="11.75" y1="178.40361" x2="136.75" y2="106.23483" class='connective thin dashed'/>
    <line x1="11.75" y1="184.15017" x2="136.75" y2="111.98138" class='connective thin dashed'/>
    <line x1="11.75" y1="189.89672" x2="136.75" y2="117.72794" class='connective thin dashed'/>
    <line x1="17.19432" y1="192.5" x2="136.75" y2="123.4745" class='connective thin dashed'/>
    <line x1="27.14765" y1="192.5" x2="136.75" y2="129.22106" class='connective thin dashed'/>
    <line x1="37.10098" y1="192.5" x2="136.75" y2="134.96761" class='connective thin dashed'/>
    <line x1="47.05431" y1="192.5" x2="136.75" y2="140.71417" class='connective thin dashed'/>
    <line x1="57.00764" y1="192.5" x2="136.75" y2="146.46073" class='connective thin dashed'/>
    <line x1="66.96097" y1="192.5" x2="136.75" y2="152.20729" class='connective thin dashed'/>
    <line x1="76.9143" y1="192.5" x2="136.75" y2="157.95384" class='connective thin dashed'/>
    <line x1="86.86763" y1="192.5" x2="136.75" y2="163.7004" class='connective thin dashed'/>
    <line x1="96.82096" y1="192.5" x2="136.75" y2="169.44696" class='connective thin dashed'/>
    <line x1="106.77429" y1="192.5" x2="136.75" y2="175.19352" class='connective thin dashed'/>
    <line x1="116.72762" y1="192.5" x2="136.75" y2="180.94007" class='connective thin dashed'/>
    <line x1="126.68095" y1="192.5" x2="136.75" y2="186.68663" class='connective thin dashed'/>
    <line x1="136.63428" y1="192.5" x2="136.75" y2="192.43319" class='connective thin dashed'/>
  </g>
</svg>
