<?xml version="1.0" standalone="no"?>
<!DOCTYPE svg PUBLIC "-//W3C//DTD SVG 1.1//EN" "http://www.w3.org/Graphics/SVG/1.1/DTD/svg11.dtd">
<svg xmlns="http://www.w3.org/2000/svg" width="210.0mm" height="148.5mm" viewBox="0 0 210.0 148.5" >

  <g id="sheet">
    <line x1="15.0" y1="14.25" x2="195.0" y2="14.25" stroke='blue' stroke-width='0.2' tags='ascender2'/>
    <line x1="15.0" y1="18.0" x2="195.0" y2="18.0" stroke='grey' stroke-width='0.1' stroke-dasharray='2, 2' tags='ascender1'/>
    <line x1="15.0" y1="21.75" x2="195.0" y2="21.75" stroke='grey' stroke-width='0.1' tags='waist'/>
    <line x1="15.0" y1="26.75" x2="195.0" y2="26.75" stroke='red' stroke-width='0.1' tags='base'/>
    <line x1="15.0" y1="30.5" x2="195.0" y2="30.5" stroke='grey' stroke-width='0.1' stroke-dasharray='2, 2' tags='descender1'/>
    <line x1="15.0" y1="34.25" x2="195.0" y2="34.25" stroke='blue' stroke-width='0.2' tags='descender2'/>
    <line x1="15.0" y1="38.0" x2="195.0" y2="38.0" stroke='grey' stroke-width='0.1' stroke-dasharray='2, 2' tags='ascender1'/>
    <line x1="15.0" y1="41.75" x2="195.0" y2="41.75" stroke='grey' stroke-width='0.1' tags='waist'/>
    <line x1="15.0" y1="46.75" x2="195.0" y2="46.75" stroke='red' stroke-width='0.1' tags='base'/>
    <line x1="15.0" y1="50.5" x2="195.0" y2="50.5" stroke='grey' stroke-width='0.1' stroke-dasharray='2, 2' tags='descender1'/>
    <line x1="15.0" y1="54.25" x2="195.0" y2="54.25" stroke='blue' stroke-width='0.2' tags='descender2'/>
    <line x1="15.0" y1="58.0" x2="195.0" y2="58.0" stroke='grey' stroke-width='0.1' stroke-dasharray='2, 2' tags='ascender1'/>
    <line x1="15.0" y1="61.75" x2="195.0" y2="61.75" stroke='grey' stroke-width='0.1' tags='waist'/>
    <line x1="15.0" y1="66.75" x2="195.0" y2="66.75" stroke='red' stroke-width='0.1' tags='base'/>
    <line x1="15.0" y1="70.5" x2="195.0" y2="70.5" stroke='grey' stroke-width='0.1' stroke-dasharray='2, 2' tags='descender1'/>
    <line x1="15.0" y1="74.25" x2="195.0" y2="74.25" stroke='blue' stroke-width='0.2' tags='descender2'/>
    <line x1="15.0" y1="78.0" x2="195.0" y2="78.0" stroke='grey' stroke-width='0.1' stroke-dasharray='2, 2' tags='ascender1'/>
    <line x1="15.0" y1="81.75" x2="195.0" y2="81.75" stroke='grey' stroke-width='0.1' tags='waist'/>
    <line x1="15.0" y1="86.75" x2="195.0" y2="86.75" stroke='red' stroke-width='0.1' tags='base'/>
    <line x1="15.0" y1="90.5" x2="195.0" y2="90.5" stroke='grey' stroke-width='0.1' stroke-dasharray='2, 2' tags='descender1'/>
    <line x1="15.0" y1="94.25" x2="195.0" y2="94.25" stroke='blue' stroke-width='0.2' tags='descender2'/>
    <line x1="15.0" y1="98.0" x2="195.0" y2="98.0" stroke='grey' stroke-width='0.1' stroke-dasharray='2, 2' tags='ascender1'/>
    <line x1="15.0" y1="101.75" x2="195.0" y2="101.75" stroke='grey' stroke-width='0.1' tags='waist'/>
    <line x1="15.0" y1="106.75" x2="195.0" y2="106.75" stroke='red' stroke-width='0.1' tags='base'/>
    <line x1="15.0" y1="110.5" x2="195.0" y2="110.5" stroke='grey' stroke-width='0.1' stroke-dasharray='2, 2' tags='descender1'/>
    <line x1="15.0" y1="114.25" x2="195.0" y2="114.25" stroke='blue' stroke-width='0.2' tags='descender2'/>
    <line x1="15.0" y1="118.0" x2="195.0" y2="118.0" stroke='grey' stroke-width='0.1' stroke-dasharray='2, 2' tags='ascender1'/>
    <line x1="15.0" y1="121.75" x2="195.0" y2="121.75" stroke='grey' stroke-width='0.1' tags='waist'/>
    <line x1="15.0" y1="126.75" x2="195.0" y2="126.75" stroke='red' stroke-width='0.1' tags='base'/>
    <line x1="15.0" y1="130.5" x2="195.0" y2="130.5" stroke='grey' stroke-width='0.1' stroke-dasharray='2, 2' tags='descender1'/>
    <line x1="15.0" y1="134.25" x2="195.0" y2="134.25" stroke='blue' stroke-width='0.2' tags='descender2'/>
    <line x1="15.0" y1="14.25" x2="15.0" y2="14.25" stroke='blue' stroke-width='0.1' tags='slant'/>
    <line x1="15.0" y1="22.34838" x2="21.32715" y2="14.25" stroke='blue' stroke-width='0.1' tags='slant'/>
    <line x1="15.0" y1="30.44676" x2="27.6543" y2="14.25" stroke='blue' stroke-width='0.1' tags='slant'/>
    <line x1="15.0" y1="38.54514" x2="33.98144" y2="14.25" stroke='blue' stroke-width='0.1' tags='slant'/>
    <line x1="15.0" y1="46.64352" x2="40.30859" y2="14.25" stroke='blue' stroke-width='0.1' tags='slant'/>
    <line x1="15.0" y1="54.7419" x2="46.63574" y2="14.25" stroke='blue' stroke-width='0.1' tags='slant'/>
    <line x1="15.0" y1="62.84028" x2="52.96289" y2="14.25" stroke='blue' stroke-width='0.1' tags='slant'/>
    <line x1="15.0" y1="70.93866" x2="59.29004" y2="14.25" stroke='blue' stroke-width='0.1' tags='slant'/>
    <line x1="15.0" y1="79.03704" x2="65.61718" y2="14.25" stroke='blue' stroke-width='0.1' tags='slant'/>
    <line x1="15.0" y1="87.13542" x2="71.94433" y2="14.25" stroke='blue' stroke-width='0.1' tags='slant'/>
    <line x1="15.0" y1="95.2338" x2="78.27148" y2="14.25" stroke='blue' stroke-width='0.1' tags='slant'/>
    <line x1="15.0" y1="103.33218" x2="84.59863" y2="14.25" stroke='blue' stroke-width='0.1' tags='slant'/>
    <line x1="15.0" y1="111.43056" x2="90.92578" y2="14.25" stroke='blue' stroke-width='0.1' tags='slant'/>
    <line x1="15.0" y1="119.52894" x2="97.25292" y2="14.25" stroke='blue' stroke-width='0.1' tags='slant'/>
    <line x1="15.0" y1="127.62732" x2="103.58007" y2="14.25" stroke='blue' stroke-width='0.1' tags='slant'/>
    <line x1="16.15294" y1="134.25" x2="109.90722" y2="14.25" stroke='blue' stroke-width='0.1' tags='slant'/>
    <line x1="22.48009" y1="134.25" x2="116.23437" y2="14.25" stroke='blue' stroke-width='0.1' tags='slant'/>
    <line x1="28.80724" y1="134.25" x2="122.56151" y2="14.25" stroke='blue' stroke-width='0.1' tags='slant'/>
    <line x1="35.13439" y1="134.25" x2="128.88866" y2="14.25" stroke='blue' stroke-width='0.1' tags='slant'/>
    <line x1="41.46154" y1="134.25" x2="135.21581" y2="14.25" stroke='blue' stroke-width='0.1' tags='slant'/>
    <line x1="47.78868" y1="134.25" x2="141.54296" y2="14.25" stroke='blue' stroke-width='0.1' tags='slant'/>
    <line x1="54.11583" y1="134.25" x2="147.87011" y2="14.25" stroke='blue' stroke-width='0.1' tags='slant'/>
    <line x1="60.44298" y1="134.25" x2="154.19725" y2="14.25" stroke='blue' stroke-width='0.1' tags='slant'/>
    <line x1="66.77013" y1="134.25" x2="160.5244" y2="14.25" stroke='blue' stroke-width='0.1' tags='slant'/>
    <line x1="73.09727" y1="134.25" x2="166.85155" y2="14.25" stroke='blue' stroke-width='0.1' tags='slant'/>
    <line x1="79.42442" y1="134.25" x2="173.1787" y2="14.25" stroke='blue' stroke-width='0.1' tags='slant'/>
    <line x1="85.75157" y1="134.25" x2="179.50585" y2="14.25" stroke='blue' stroke-width='0.1' tags='slant'/>
    <line x1="92.07872" y1="134.25" x2="185.83299" y2="14.25" stroke='blue' stroke-width='0.1' tags='slant'/>
    <line x1="98.40587" y1="134.25" x2="192.16014" y2="14.25" stroke='blue' stroke-width='0.1' tags='slant'/>
    <line x1="104.73301" y1="134.25" x2="195.0" y2="18.71353" stroke='blue' stroke-width='0.1' tags='slant'/>
    <line x1="111.06016" y1="134.25" x2="195.0" y2="26.81191" stroke='blue' stroke-width='0.1' tags='slant'/>
    <line x1="117.38731" y1="134.25" x2="195.0" y2="34.91029" stroke='blue' stroke-width='0.1' tags='slant'/>
    <line x1="123.71446" y1="134.25" x2="195.0" y2="43.00867" stroke='blue' stroke-width='0.1' tags='slant'/>
    <line x1="130.04161" y1="134.25" x2="195.0" y2="51.10705" stroke='blue' stroke-width='0.1' tags='slant'/>
    <line x1="136.36875" y1="134.25" x2="195.0" y2="59.20543" stroke='blue' stroke-width='0.1' tags='slant'/>
    <line x1="142.6959" y1="134.25" x2="195.0" y2="67.30381" stroke='blue' stroke-width='0.1' tags='slant'/>
    <line x1="149.02305" y1="134.25" x2="195.0" y2="75.40219" stroke='blue' stroke-width='0.1' tags='slant'/>
    <line x1="155.3502" y1="134.25" x2="195.0" y2="83.50057" stroke='blue' stroke-width='0.1' tags='slant'/>
    <line x1="161.67735" y1="134.25" x2="195.0" y2="91.59895" stroke='blue' stroke-width='0.1' tags='slant'/>
    <line x1="168.00449" y1="134.25" x2="195.0" y2="99.69733" stroke='blue' stroke-width='0.1' tags='slant'/>
    <line x1="174.33164" y1="134.25" x2="195.0" y2="107.79571" stroke='blue' stroke-width='0.1' tags='slant'/>
    <line x1="180.65879" y1="134.25" x2="195.0" y2="115.89409" stroke='blue' stroke-width='0.1' tags='slant'/>
    <line x1="186.98594" y1="134.25" x2="195.0" y2="123.99247" stroke='blue' stroke-width='0.1' tags='slant'/>
    <line x1="193.31309" y1="134.25" x2="195.0" y2="132.09085" stroke='blue' stroke-width='0.1' tags='slant'/>
    <line x1="15.0" y1="19.42542" x2="23.9641" y2="14.25" stroke='blue' stroke-width='0.07' stroke-dasharray='2, 2' tags='connective'/>
    <line x1="15.0" y1="24.60085" x2="32.92819" y2="14.25" stroke='blue' stroke-width='0.07' stroke-dasharray='2, 2' tags='connective'/>
    <line x1="15.0" y1="29.77627" x2="41.89229" y2="14.25" stroke='blue' stroke-width='0.07' stroke-dasharray='2, 2' tags='connective'/>
    <line x1="15.0" y1="34.95169" x2="50.85638" y2="14.25" stroke='blue' stroke-width='0.07' stroke-dasharray='2, 2' tags='connective'/>
    <line x1="15.0" y1="40.12712" x2="59.82048" y2="14.25" stroke='blue' stroke-width='0.07' stroke-dasharray='2, 2' tags='connective'/>
    <line x1="15.0" y1="45.30254" x2="68.78458" y2="14.25" stroke='blue' stroke-width='0.07' stroke-dasharray='2, 2' tags='connective'/>
    <line x1="15.0" y1="50.47796" x2="77.74867" y2="14.25" stroke='blue' stroke-width='0.07' stroke-dasharray='2, 2' tags='connective'/>
    <line x1="15.0" y1="55.65339" x2="86.71277" y2="14.25" stroke='blue' stroke-width='0.07' stroke-dasharray='2, 2' tags='connective'/>
    <line x1="15.0" y1="60.82881" x2="95.67686" y2="14.25" stroke='blue' stroke-width='0.07' stroke-dasharray='2, 2' tags='connective'/>
    <line x1="15.0" y1="66.00423" x2="104.64096" y2="14.25" stroke='blue' stroke-width='0.07' stroke-dasharray='2, 2' tags='connective'/>
    <line x1="15.0" y1="71.17966" x2="113.60506" y2="14.25" stroke='blue' stroke-width='0.07' stroke-dasharray='2, 2' tags='connective'/>
    <line x1="15.0" y1="76.35508" x2="122.56915" y2="14.25" stroke='blue' stroke-width='0.07' stroke-dasharray='2, 2' tags='connective'/>
    <line x1="15.0" y1="81.5305" x2="131.53325" y2="14.25" stroke='blue' stroke-width='0.07' stroke-dasharray='2, 2' tags='connective'/>
    <line x1="15.0" y1="86.70593" x2="140.49735" y2="14.25" stroke='blue' stroke-width='0.07' stroke-dasharray='2, 2' tags='connective'/>
    <line x1="15.0" y1="91.88135" x2="149.46144" y2="14.25" stroke='blue' stroke-width='0.07' stroke-dasharray='2, 2' tags='connective'/>
    <line x1="15.0" y1="97.05677" x2="158.42554" y2="14.25" stroke='blue' stroke-width='0.07' stroke-dasharray='2, 2' tags='connective'/>
    <line x1="15.0" y1="102.2322" x2="167.38963" y2="14.25" stroke='blue' stroke-width='0.07' stroke-dasharray='2, 2' tags='connective'/>
    <line x1="15.0" y1="107.40762" x2="176.35373" y2="14.25" stroke='blue' stroke-width='0.07' stroke-dasharray='2, 2' tags='connective'/>
    <line x1="15.0" y1="112.58304" x2="185.31783" y2="14.25" stroke='blue' stroke-width='0.07' stroke-dasharray='2, 2' tags='connective'/>
    <line x1="15.0" y1="117.75847" x2="194.28192" y2="14.25" stroke='blue' stroke-width='0.07' stroke-dasharray='2, 2' tags='connective'/>
    <line x1="15.0" y1="122.93389" x2="195.0" y2="19.01084" stroke='blue' stroke-width='0.07' stroke-dasharray='2, 2' tags='connective'/>
    <line x1="15.0" y1="128.10931" x2="195.0" y2="24.18626" stroke='blue' stroke-width='0.07' stroke-dasharray='2, 2' tags='connective'/>
    <line x1="15.0" y1="133.28474" x2="195.0" y2="29.36169" stroke='blue' stroke-width='0.07' stroke-dasharray='2, 2' tags='connective'/>
    <line x1="22.29221" y1="134.25" x2="195.0" y2="34.53711" stroke='blue' stroke-width='0.07' stroke-dasharray='2, 2' tags='connective'/>
    <line x1="31.25631" y1="134.25" x2="195.0" y2="39.71253" stroke='blue' stroke-width='0.07' stroke-dasharray='2, 2' tags='connective'/>
    <line x1="40.2204" y1="134.25" x2="195.0" y2="44.88796" stroke='blue' stroke-width='0.07' stroke-dasharray='2, 2' tags='connective'/>
    <line x1="49.1845" y1="134.25" x2="195.0" y2="50.06338" stroke='blue' stroke-width='0.07' stroke-dasharray='2, 2' tags='connective'/>
    <line x1="58.14859" y1="134.25" x2="195.0" y2="55.2388" stroke='blue' stroke-width='0.07' stroke-dasharray='2, 2' tags='connective'/>
    <line x1="67.11269" y1="134.25" x2="195.0" y2="60.41423" stroke='blue' stroke-width='0.07' stroke-dasharray='2, 2' tags='connective'/>
    <line x1="76.07679" y1="134.25" x2="195.0" y2="65.58965" stroke='blue' stroke-width='0.07' stroke-dasharray='2, 2' tags='connective'/>
    <line x1="85.04088" y1="134.25" x2="195.0" y2="70.76507" stroke='blue' stroke-width='0.07' stroke-dasharray='2, 2' tags='connective'/>
    <line x1="94.00498" y1="134.25" x2="195.0" y2="75.9405" stroke='blue' stroke-width='0.07' stroke-dasharray='2, 2' tags='connective'/>
    <line x1="102.96907" y1="134.25" x2="195.0" y2="81.11592" stroke='blue' stroke-width='0.07' stroke-dasharray='2, 2' tags='connective'/>
    <line x1="111.93317" y1="134.25" x2="195.0" y2="86.29134" stroke='blue' stroke-width='0.07' stroke-dasharray='2, 2' tags='connective'/>
    <line x1="120.89727" y1="134.25" x2="195.0" y2="91.46677" stroke='blue' stroke-width='0.07' stroke-dasharray='2, 2' tags='connective'/>
    <line x1="129.86136" y1="134.25" x2="195.0" y2="96.64219" stroke='blue' stroke-width='0.07' stroke-dasharray='2, 2' tags='connective'/>
    <line x1="138.82546" y1="134.25" x2="195.0" y2="101.81761" stroke='blue' stroke-width='0.07' stroke-dasharray='2, 2' tags='connective'/>
    <line x1="147.78955" y1="134.25" x2="195.0" y2="106.99304" stroke='blue' stroke-width='0.07' stroke-dasharray='2, 2' tags='connective'/>
    <line x1="156.75365" y1="134.25" x2="195.0" y2="112.16846" stroke='blue' stroke-width='0.07' stroke-dasharray='2, 2' tags='connective'/>
    <line x1="165.71775" y1="134.25" x2="195.0" y2="117.34388" stroke='blue' stroke-width='0.07' stroke-dasharray='2, 2' tags='connective'/>
    <line x1="174.68184" y1="134.25" x2="195.0" y2="122.51931" stroke='blue' stroke-width='0.07' stroke-dasharray='2, 2' tags='connective'/>
    <line x1="183.64594" y1="134.25" x2="195.0" y2="127.69473" stroke='blue' stroke-width='0.07' stroke-dasharray='2, 2' tags='connective'/>
    <line x1="192.61003" y1="134.25" x2="195.0" y2="132.87015" stroke='blue' stroke-width='0.07' stroke-dasharray='2, 2' tags='connective'/>
  </g>
</svg>
