<?xml version="1.0" standalone="no"?>
<!DOCTYPE svg PUBLIC "-//W3C//DTD SVG 1.1//EN" "http://www.w3.org/Graphics/SVG/1.1/DTD/svg11.dtd">
<svg xmlns="http://www.w3.org/2000/svg" width="210.0mm" height="148.5mm" viewBox="0 0 210.0 148.5" shape-rendering="geometricPrecision" >
  <style>
    svg         { stroke:            #ed008c; }
    svg         { stroke-width:         0.04; }
    .altcolor   { stroke:               blue; }
    .extrafine  { stroke-width:         0.01; }
    .fine       { stroke-width:         0.02; }
    .medium     { stroke-width:         0.04; }
    .broad      { stroke-width:         0.08; }
    .extrabroad { stroke-width:         0.16; }
    .dashed     { stroke-dasharray:      2 2; }
  </style>
  <g id="sheet">
    <line x1="17.5" y1="21.75" x2="192.5" y2="21.75" class='ascender2 broad'/>
    <line x1="17.5" y1="28.75" x2="192.5" y2="28.75" class='ascender1 dashed'/>
    <line x1="17.5" y1="35.75" x2="192.5" y2="35.75" class='waist altcolor'/>
    <line x1="17.5" y1="42.75" x2="192.5" y2="42.75" class='base'/>
    <line x1="17.5" y1="49.75" x2="192.5" y2="49.75" class='descender1 dashed'/>
    <line x1="17.5" y1="56.75" x2="192.5" y2="56.75" class='descender2 broad'/>
    <line x1="17.5" y1="63.75" x2="192.5" y2="63.75" class='ascender1 dashed'/>
    <line x1="17.5" y1="70.75" x2="192.5" y2="70.75" class='waist altcolor'/>
    <line x1="17.5" y1="77.75" x2="192.5" y2="77.75" class='base'/>
    <line x1="17.5" y1="84.75" x2="192.5" y2="84.75" class='descender1 dashed'/>
    <line x1="17.5" y1="91.75" x2="192.5" y2="91.75" class='descender2 broad'/>
    <line x1="17.5" y1="98.75" x2="192.5" y2="98.75" class='ascender1 dashed'/>
    <line x1="17.5" y1="105.75" x2="192.5" y2="105.75" class='waist altcolor'/>
    <line x1="17.5" y1="112.75" x2="192.5" y2="112.75" class='base'/>
    <line x1="17.5" y1="119.75" x2="192.5" y2="119.75" class='descender1 dashed'/>
    <line x1="17.5" y1="126.75" x2="192.5" y2="126.75" class='descender2 broad'/>
    <line x1="17.5" y1="21.75" x2="17.5" y2="21.75" class='slant fine'/>
    <line x1="17.5" y1="33.03426" x2="26.31623" y2="21.75" class='slant fine'/>
    <line x1="17.5" y1="44.31851" x2="35.13245" y2="21.75" class='slant fine'/>
    <line x1="17.5" y1="55.60277" x2="43.94868" y2="21.75" class='slant fine'/>
    <line x1="17.5" y1="66.88703" x2="52.76491" y2="21.75" class='slant fine'/>
    <line x1="17.5" y1="78.17128" x2="61.58114" y2="21.75" class='slant fine'/>
    <line x1="17.5" y1="89.45554" x2="70.39736" y2="21.75" class='slant fine'/>
    <line x1="17.5" y1="100.7398" x2="79.21359" y2="21.75" class='slant fine'/>
    <line x1="17.5" y1="112.02405" x2="88.02982" y2="21.75" class='slant fine'/>
    <line x1="17.5" y1="123.30831" x2="96.84605" y2="21.75" class='slant fine'/>
    <line x1="23.62728" y1="126.75" x2="105.66227" y2="21.75" class='slant fine'/>
    <line x1="32.44351" y1="126.75" x2="114.4785" y2="21.75" class='slant fine'/>
    <line x1="41.25974" y1="126.75" x2="123.29473" y2="21.75" class='slant fine'/>
    <line x1="50.07597" y1="126.75" x2="132.11096" y2="21.75" class='slant fine'/>
    <line x1="58.89219" y1="126.75" x2="140.92718" y2="21.75" class='slant fine'/>
    <line x1="67.70842" y1="126.75" x2="149.74341" y2="21.75" class='slant fine'/>
    <line x1="76.52465" y1="126.75" x2="158.55964" y2="21.75" class='slant fine'/>
    <line x1="85.34088" y1="126.75" x2="167.37587" y2="21.75" class='slant fine'/>
    <line x1="94.1571" y1="126.75" x2="176.19209" y2="21.75" class='slant fine'/>
    <line x1="102.97333" y1="126.75" x2="185.00832" y2="21.75" class='slant fine'/>
    <line x1="111.78956" y1="126.75" x2="192.5" y2="23.44535" class='slant fine'/>
    <line x1="120.60579" y1="126.75" x2="192.5" y2="34.7296" class='slant fine'/>
    <line x1="129.42201" y1="126.75" x2="192.5" y2="46.01386" class='slant fine'/>
    <line x1="138.23824" y1="126.75" x2="192.5" y2="57.29812" class='slant fine'/>
    <line x1="147.05447" y1="126.75" x2="192.5" y2="68.58237" class='slant fine'/>
    <line x1="155.8707" y1="126.75" x2="192.5" y2="79.86663" class='slant fine'/>
    <line x1="164.68692" y1="126.75" x2="192.5" y2="91.15088" class='slant fine'/>
    <line x1="173.50315" y1="126.75" x2="192.5" y2="102.43514" class='slant fine'/>
    <line x1="182.31938" y1="126.75" x2="192.5" y2="113.7194" class='slant fine'/>
    <line x1="191.13561" y1="126.75" x2="192.5" y2="125.00365" class='slant fine'/>
    <line x1="17.5" y1="28.81699" x2="29.74038" y2="21.75" class='connective fine dashed'/>
    <line x1="17.5" y1="35.88397" x2="41.98076" y2="21.75" class='connective fine dashed'/>
    <line x1="17.5" y1="42.95096" x2="54.22114" y2="21.75" class='connective fine dashed'/>
    <line x1="17.5" y1="50.01795" x2="66.46152" y2="21.75" class='connective fine dashed'/>
    <line x1="17.5" y1="57.08493" x2="78.7019" y2="21.75" class='connective fine dashed'/>
    <line x1="17.5" y1="64.15192" x2="90.94228" y2="21.75" class='connective fine dashed'/>
    <line x1="17.5" y1="71.21891" x2="103.18266" y2="21.75" class='connective fine dashed'/>
    <line x1="17.5" y1="78.28589" x2="115.42304" y2="21.75" class='connective fine dashed'/>
    <line x1="17.5" y1="85.35288" x2="127.66342" y2="21.75" class='connective fine dashed'/>
    <line x1="17.5" y1="92.41987" x2="139.9038" y2="21.75" class='connective fine dashed'/>
    <line x1="17.5" y1="99.48685" x2="152.14418" y2="21.75" class='connective fine dashed'/>
    <line x1="17.5" y1="106.55384" x2="164.38456" y2="21.75" class='connective fine dashed'/>
    <line x1="17.5" y1="113.62083" x2="176.62494" y2="21.75" class='connective fine dashed'/>
    <line x1="17.5" y1="120.68781" x2="188.86532" y2="21.75" class='connective fine dashed'/>
    <line x1="19.24037" y1="126.75" x2="192.5" y2="26.7185" class='connective fine dashed'/>
    <line x1="31.48075" y1="126.75" x2="192.5" y2="33.78549" class='connective fine dashed'/>
    <line x1="43.72113" y1="126.75" x2="192.5" y2="40.85248" class='connective fine dashed'/>
    <line x1="55.96151" y1="126.75" x2="192.5" y2="47.91946" class='connective fine dashed'/>
    <line x1="68.20189" y1="126.75" x2="192.5" y2="54.98645" class='connective fine dashed'/>
    <line x1="80.44227" y1="126.75" x2="192.5" y2="62.05344" class='connective fine dashed'/>
    <line x1="92.68265" y1="126.75" x2="192.5" y2="69.12042" class='connective fine dashed'/>
    <line x1="104.92303" y1="126.75" x2="192.5" y2="76.18741" class='connective fine dashed'/>
    <line x1="117.16341" y1="126.75" x2="192.5" y2="83.2544" class='connective fine dashed'/>
    <line x1="129.40379" y1="126.75" x2="192.5" y2="90.32138" class='connective fine dashed'/>
    <line x1="141.64417" y1="126.75" x2="192.5" y2="97.38837" class='connective fine dashed'/>
    <line x1="153.88455" y1="126.75" x2="192.5" y2="104.45536" class='connective fine dashed'/>
    <line x1="166.12493" y1="126.75" x2="192.5" y2="111.52234" class='connective fine dashed'/>
    <line x1="178.36531" y1="126.75" x2="192.5" y2="118.58933" class='connective fine dashed'/>
    <line x1="190.60569" y1="126.75" x2="192.5" y2="125.65632" class='connective fine dashed'/>
  </g>
</svg>
