<?xml version="1.0" standalone="no"?>
<!DOCTYPE svg PUBLIC "-//W3C//DTD SVG 1.1//EN" "http://www.w3.org/Graphics/SVG/1.1/DTD/svg11.dtd">
<svg xmlns="http://www.w3.org/2000/svg" width="210.0mm" height="148.5mm" viewBox="0 0 210.0 148.5" >

  <g id="sheet">
    <line x1="17.5" y1="24.25" x2="192.5" y2="24.25" stroke='blue' stroke-width='0.2' tags='ascender2'/>
    <line x1="17.5" y1="29.25" x2="192.5" y2="29.25" stroke='grey' stroke-width='0.1' stroke-dasharray='2, 2' tags='ascender1'/>
    <line x1="17.5" y1="34.25" x2="192.5" y2="34.25" stroke='grey' stroke-width='0.1' tags='waist'/>
    <line x1="17.5" y1="39.25" x2="192.5" y2="39.25" stroke='red' stroke-width='0.1' tags='base'/>
    <line x1="17.5" y1="44.25" x2="192.5" y2="44.25" stroke='grey' stroke-width='0.1' stroke-dasharray='2, 2' tags='descender1'/>
    <line x1="17.5" y1="49.25" x2="192.5" y2="49.25" stroke='blue' stroke-width='0.2' tags='descender2'/>
    <line x1="17.5" y1="54.25" x2="192.5" y2="54.25" stroke='grey' stroke-width='0.1' stroke-dasharray='2, 2' tags='ascender1'/>
    <line x1="17.5" y1="59.25" x2="192.5" y2="59.25" stroke='grey' stroke-width='0.1' tags='waist'/>
    <line x1="17.5" y1="64.25" x2="192.5" y2="64.25" stroke='red' stroke-width='0.1' tags='base'/>
    <line x1="17.5" y1="69.25" x2="192.5" y2="69.25" stroke='grey' stroke-width='0.1' stroke-dasharray='2, 2' tags='descender1'/>
    <line x1="17.5" y1="74.25" x2="192.5" y2="74.25" stroke='blue' stroke-width='0.2' tags='descender2'/>
    <line x1="17.5" y1="79.25" x2="192.5" y2="79.25" stroke='grey' stroke-width='0.1' stroke-dasharray='2, 2' tags='ascender1'/>
    <line x1="17.5" y1="84.25" x2="192.5" y2="84.25" stroke='grey' stroke-width='0.1' tags='waist'/>
    <line x1="17.5" y1="89.25" x2="192.5" y2="89.25" stroke='red' stroke-width='0.1' tags='base'/>
    <line x1="17.5" y1="94.25" x2="192.5" y2="94.25" stroke='grey' stroke-width='0.1' stroke-dasharray='2, 2' tags='descender1'/>
    <line x1="17.5" y1="99.25" x2="192.5" y2="99.25" stroke='blue' stroke-width='0.2' tags='descender2'/>
    <line x1="17.5" y1="104.25" x2="192.5" y2="104.25" stroke='grey' stroke-width='0.1' stroke-dasharray='2, 2' tags='ascender1'/>
    <line x1="17.5" y1="109.25" x2="192.5" y2="109.25" stroke='grey' stroke-width='0.1' tags='waist'/>
    <line x1="17.5" y1="114.25" x2="192.5" y2="114.25" stroke='red' stroke-width='0.1' tags='base'/>
    <line x1="17.5" y1="119.25" x2="192.5" y2="119.25" stroke='grey' stroke-width='0.1' stroke-dasharray='2, 2' tags='descender1'/>
    <line x1="17.5" y1="124.25" x2="192.5" y2="124.25" stroke='blue' stroke-width='0.2' tags='descender2'/>
    <line x1="17.5" y1="24.25" x2="17.5" y2="24.25" stroke='blue' stroke-width='0.1' tags='slant'/>
    <line x1="17.5" y1="32.2872" x2="23.77935" y2="24.25" stroke='blue' stroke-width='0.1' tags='slant'/>
    <line x1="17.5" y1="40.32439" x2="30.05869" y2="24.25" stroke='blue' stroke-width='0.1' tags='slant'/>
    <line x1="17.5" y1="48.36159" x2="36.33804" y2="24.25" stroke='blue' stroke-width='0.1' tags='slant'/>
    <line x1="17.5" y1="56.39879" x2="42.61739" y2="24.25" stroke='blue' stroke-width='0.1' tags='slant'/>
    <line x1="17.5" y1="64.43599" x2="48.89673" y2="24.25" stroke='blue' stroke-width='0.1' tags='slant'/>
    <line x1="17.5" y1="72.47318" x2="55.17608" y2="24.25" stroke='blue' stroke-width='0.1' tags='slant'/>
    <line x1="17.5" y1="80.51038" x2="61.45543" y2="24.25" stroke='blue' stroke-width='0.1' tags='slant'/>
    <line x1="17.5" y1="88.54758" x2="67.73477" y2="24.25" stroke='blue' stroke-width='0.1' tags='slant'/>
    <line x1="17.5" y1="96.58478" x2="74.01412" y2="24.25" stroke='blue' stroke-width='0.1' tags='slant'/>
    <line x1="17.5" y1="104.62197" x2="80.29347" y2="24.25" stroke='blue' stroke-width='0.1' tags='slant'/>
    <line x1="17.5" y1="112.65917" x2="86.57281" y2="24.25" stroke='blue' stroke-width='0.1' tags='slant'/>
    <line x1="17.5" y1="120.69637" x2="92.85216" y2="24.25" stroke='blue' stroke-width='0.1' tags='slant'/>
    <line x1="21.00295" y1="124.25" x2="99.13151" y2="24.25" stroke='blue' stroke-width='0.1' tags='slant'/>
    <line x1="27.28229" y1="124.25" x2="105.41086" y2="24.25" stroke='blue' stroke-width='0.1' tags='slant'/>
    <line x1="33.56164" y1="124.25" x2="111.6902" y2="24.25" stroke='blue' stroke-width='0.1' tags='slant'/>
    <line x1="39.84099" y1="124.25" x2="117.96955" y2="24.25" stroke='blue' stroke-width='0.1' tags='slant'/>
    <line x1="46.12033" y1="124.25" x2="124.2489" y2="24.25" stroke='blue' stroke-width='0.1' tags='slant'/>
    <line x1="52.39968" y1="124.25" x2="130.52824" y2="24.25" stroke='blue' stroke-width='0.1' tags='slant'/>
    <line x1="58.67903" y1="124.25" x2="136.80759" y2="24.25" stroke='blue' stroke-width='0.1' tags='slant'/>
    <line x1="64.95837" y1="124.25" x2="143.08694" y2="24.25" stroke='blue' stroke-width='0.1' tags='slant'/>
    <line x1="71.23772" y1="124.25" x2="149.36628" y2="24.25" stroke='blue' stroke-width='0.1' tags='slant'/>
    <line x1="77.51707" y1="124.25" x2="155.64563" y2="24.25" stroke='blue' stroke-width='0.1' tags='slant'/>
    <line x1="83.79641" y1="124.25" x2="161.92498" y2="24.25" stroke='blue' stroke-width='0.1' tags='slant'/>
    <line x1="90.07576" y1="124.25" x2="168.20432" y2="24.25" stroke='blue' stroke-width='0.1' tags='slant'/>
    <line x1="96.35511" y1="124.25" x2="174.48367" y2="24.25" stroke='blue' stroke-width='0.1' tags='slant'/>
    <line x1="102.63445" y1="124.25" x2="180.76302" y2="24.25" stroke='blue' stroke-width='0.1' tags='slant'/>
    <line x1="108.9138" y1="124.25" x2="187.04236" y2="24.25" stroke='blue' stroke-width='0.1' tags='slant'/>
    <line x1="115.19315" y1="124.25" x2="192.5" y2="25.30174" stroke='blue' stroke-width='0.1' tags='slant'/>
    <line x1="121.4725" y1="124.25" x2="192.5" y2="33.33894" stroke='blue' stroke-width='0.1' tags='slant'/>
    <line x1="127.75184" y1="124.25" x2="192.5" y2="41.37614" stroke='blue' stroke-width='0.1' tags='slant'/>
    <line x1="134.03119" y1="124.25" x2="192.5" y2="49.41333" stroke='blue' stroke-width='0.1' tags='slant'/>
    <line x1="140.31054" y1="124.25" x2="192.5" y2="57.45053" stroke='blue' stroke-width='0.1' tags='slant'/>
    <line x1="146.58988" y1="124.25" x2="192.5" y2="65.48773" stroke='blue' stroke-width='0.1' tags='slant'/>
    <line x1="152.86923" y1="124.25" x2="192.5" y2="73.52493" stroke='blue' stroke-width='0.1' tags='slant'/>
    <line x1="159.14858" y1="124.25" x2="192.5" y2="81.56212" stroke='blue' stroke-width='0.1' tags='slant'/>
    <line x1="165.42792" y1="124.25" x2="192.5" y2="89.59932" stroke='blue' stroke-width='0.1' tags='slant'/>
    <line x1="171.70727" y1="124.25" x2="192.5" y2="97.63652" stroke='blue' stroke-width='0.1' tags='slant'/>
    <line x1="177.98662" y1="124.25" x2="192.5" y2="105.67372" stroke='blue' stroke-width='0.1' tags='slant'/>
    <line x1="184.26596" y1="124.25" x2="192.5" y2="113.71091" stroke='blue' stroke-width='0.1' tags='slant'/>
    <line x1="190.54531" y1="124.25" x2="192.5" y2="121.74811" stroke='blue' stroke-width='0.1' tags='slant'/>
    <line x1="17.5" y1="29.2371" x2="26.1379" y2="24.25" stroke='blue' stroke-width='0.07' stroke-dasharray='2, 2' tags='connective'/>
    <line x1="17.5" y1="34.22419" x2="34.77581" y2="24.25" stroke='blue' stroke-width='0.07' stroke-dasharray='2, 2' tags='connective'/>
    <line x1="17.5" y1="39.21129" x2="43.41371" y2="24.25" stroke='blue' stroke-width='0.07' stroke-dasharray='2, 2' tags='connective'/>
    <line x1="17.5" y1="44.19839" x2="52.05162" y2="24.25" stroke='blue' stroke-width='0.07' stroke-dasharray='2, 2' tags='connective'/>
    <line x1="17.5" y1="49.18548" x2="60.68952" y2="24.25" stroke='blue' stroke-width='0.07' stroke-dasharray='2, 2' tags='connective'/>
    <line x1="17.5" y1="54.17258" x2="69.32743" y2="24.25" stroke='blue' stroke-width='0.07' stroke-dasharray='2, 2' tags='connective'/>
    <line x1="17.5" y1="59.15968" x2="77.96533" y2="24.25" stroke='blue' stroke-width='0.07' stroke-dasharray='2, 2' tags='connective'/>
    <line x1="17.5" y1="64.14677" x2="86.60324" y2="24.25" stroke='blue' stroke-width='0.07' stroke-dasharray='2, 2' tags='connective'/>
    <line x1="17.5" y1="69.13387" x2="95.24114" y2="24.25" stroke='blue' stroke-width='0.07' stroke-dasharray='2, 2' tags='connective'/>
    <line x1="17.5" y1="74.12097" x2="103.87905" y2="24.25" stroke='blue' stroke-width='0.07' stroke-dasharray='2, 2' tags='connective'/>
    <line x1="17.5" y1="79.10806" x2="112.51695" y2="24.25" stroke='blue' stroke-width='0.07' stroke-dasharray='2, 2' tags='connective'/>
    <line x1="17.5" y1="84.09516" x2="121.15486" y2="24.25" stroke='blue' stroke-width='0.07' stroke-dasharray='2, 2' tags='connective'/>
    <line x1="17.5" y1="89.08226" x2="129.79276" y2="24.25" stroke='blue' stroke-width='0.07' stroke-dasharray='2, 2' tags='connective'/>
    <line x1="17.5" y1="94.06935" x2="138.43067" y2="24.25" stroke='blue' stroke-width='0.07' stroke-dasharray='2, 2' tags='connective'/>
    <line x1="17.5" y1="99.05645" x2="147.06857" y2="24.25" stroke='blue' stroke-width='0.07' stroke-dasharray='2, 2' tags='connective'/>
    <line x1="17.5" y1="104.04355" x2="155.70648" y2="24.25" stroke='blue' stroke-width='0.07' stroke-dasharray='2, 2' tags='connective'/>
    <line x1="17.5" y1="109.03064" x2="164.34438" y2="24.25" stroke='blue' stroke-width='0.07' stroke-dasharray='2, 2' tags='connective'/>
    <line x1="17.5" y1="114.01774" x2="172.98229" y2="24.25" stroke='blue' stroke-width='0.07' stroke-dasharray='2, 2' tags='connective'/>
    <line x1="17.5" y1="119.00484" x2="181.62019" y2="24.25" stroke='blue' stroke-width='0.07' stroke-dasharray='2, 2' tags='connective'/>
    <line x1="17.5" y1="123.99194" x2="190.2581" y2="24.25" stroke='blue' stroke-width='0.07' stroke-dasharray='2, 2' tags='connective'/>
    <line x1="25.69092" y1="124.25" x2="192.5" y2="27.94273" stroke='blue' stroke-width='0.07' stroke-dasharray='2, 2' tags='connective'/>
    <line x1="34.32883" y1="124.25" x2="192.5" y2="32.92983" stroke='blue' stroke-width='0.07' stroke-dasharray='2, 2' tags='connective'/>
    <line x1="42.96673" y1="124.25" x2="192.5" y2="37.91693" stroke='blue' stroke-width='0.07' stroke-dasharray='2, 2' tags='connective'/>
    <line x1="51.60464" y1="124.25" x2="192.5" y2="42.90402" stroke='blue' stroke-width='0.07' stroke-dasharray='2, 2' tags='connective'/>
    <line x1="60.24254" y1="124.25" x2="192.5" y2="47.89112" stroke='blue' stroke-width='0.07' stroke-dasharray='2, 2' tags='connective'/>
    <line x1="68.88045" y1="124.25" x2="192.5" y2="52.87822" stroke='blue' stroke-width='0.07' stroke-dasharray='2, 2' tags='connective'/>
    <line x1="77.51835" y1="124.25" x2="192.5" y2="57.86532" stroke='blue' stroke-width='0.07' stroke-dasharray='2, 2' tags='connective'/>
    <line x1="86.15626" y1="124.25" x2="192.5" y2="62.85241" stroke='blue' stroke-width='0.07' stroke-dasharray='2, 2' tags='connective'/>
    <line x1="94.79416" y1="124.25" x2="192.5" y2="67.83951" stroke='blue' stroke-width='0.07' stroke-dasharray='2, 2' tags='connective'/>
    <line x1="103.43207" y1="124.25" x2="192.5" y2="72.82661" stroke='blue' stroke-width='0.07' stroke-dasharray='2, 2' tags='connective'/>
    <line x1="112.06997" y1="124.25" x2="192.5" y2="77.8137" stroke='blue' stroke-width='0.07' stroke-dasharray='2, 2' tags='connective'/>
    <line x1="120.70788" y1="124.25" x2="192.5" y2="82.8008" stroke='blue' stroke-width='0.07' stroke-dasharray='2, 2' tags='connective'/>
    <line x1="129.34578" y1="124.25" x2="192.5" y2="87.7879" stroke='blue' stroke-width='0.07' stroke-dasharray='2, 2' tags='connective'/>
    <line x1="137.98369" y1="124.25" x2="192.5" y2="92.77499" stroke='blue' stroke-width='0.07' stroke-dasharray='2, 2' tags='connective'/>
    <line x1="146.62159" y1="124.25" x2="192.5" y2="97.76209" stroke='blue' stroke-width='0.07' stroke-dasharray='2, 2' tags='connective'/>
    <line x1="155.2595" y1="124.25" x2="192.5" y2="102.74919" stroke='blue' stroke-width='0.07' stroke-dasharray='2, 2' tags='connective'/>
    <line x1="163.8974" y1="124.25" x2="192.5" y2="107.73628" stroke='blue' stroke-width='0.07' stroke-dasharray='2, 2' tags='connective'/>
    <line x1="172.53531" y1="124.25" x2="192.5" y2="112.72338" stroke='blue' stroke-width='0.07' stroke-dasharray='2, 2' tags='connective'/>
    <line x1="181.17321" y1="124.25" x2="192.5" y2="117.71048" stroke='blue' stroke-width='0.07' stroke-dasharray='2, 2' tags='connective'/>
    <line x1="189.81112" y1="124.25" x2="192.5" y2="122.69757" stroke='blue' stroke-width='0.07' stroke-dasharray='2, 2' tags='connective'/>
  </g>
</svg>
