<?xml version="1.0" standalone="no"?>
<!DOCTYPE svg PUBLIC "-//W3C//DTD SVG 1.1//EN" "http://www.w3.org/Graphics/SVG/1.1/DTD/svg11.dtd">
<svg xmlns="http://www.w3.org/2000/svg" width="148.5mm" height="210.0mm" viewBox="0 0 148.5 210.0" >

  <g id="sheet">
    <line x1="21.75" y1="17.5" x2="126.75" y2="17.5" stroke='blue' stroke-width='0.2' tags='ascender2'/>
    <line x1="21.75" y1="24.5" x2="126.75" y2="24.5" stroke='grey' stroke-width='0.1' stroke-dasharray='2, 2' tags='ascender1'/>
    <line x1="21.75" y1="31.5" x2="126.75" y2="31.5" stroke='grey' stroke-width='0.1' tags='waist'/>
    <line x1="21.75" y1="38.5" x2="126.75" y2="38.5" stroke='red' stroke-width='0.1' tags='base'/>
    <line x1="21.75" y1="45.5" x2="126.75" y2="45.5" stroke='grey' stroke-width='0.1' stroke-dasharray='2, 2' tags='descender1'/>
    <line x1="21.75" y1="52.5" x2="126.75" y2="52.5" stroke='blue' stroke-width='0.2' tags='descender2'/>
    <line x1="21.75" y1="59.5" x2="126.75" y2="59.5" stroke='grey' stroke-width='0.1' stroke-dasharray='2, 2' tags='ascender1'/>
    <line x1="21.75" y1="66.5" x2="126.75" y2="66.5" stroke='grey' stroke-width='0.1' tags='waist'/>
    <line x1="21.75" y1="73.5" x2="126.75" y2="73.5" stroke='red' stroke-width='0.1' tags='base'/>
    <line x1="21.75" y1="80.5" x2="126.75" y2="80.5" stroke='grey' stroke-width='0.1' stroke-dasharray='2, 2' tags='descender1'/>
    <line x1="21.75" y1="87.5" x2="126.75" y2="87.5" stroke='blue' stroke-width='0.2' tags='descender2'/>
    <line x1="21.75" y1="94.5" x2="126.75" y2="94.5" stroke='grey' stroke-width='0.1' stroke-dasharray='2, 2' tags='ascender1'/>
    <line x1="21.75" y1="101.5" x2="126.75" y2="101.5" stroke='grey' stroke-width='0.1' tags='waist'/>
    <line x1="21.75" y1="108.5" x2="126.75" y2="108.5" stroke='red' stroke-width='0.1' tags='base'/>
    <line x1="21.75" y1="115.5" x2="126.75" y2="115.5" stroke='grey' stroke-width='0.1' stroke-dasharray='2, 2' tags='descender1'/>
    <line x1="21.75" y1="122.5" x2="126.75" y2="122.5" stroke='blue' stroke-width='0.2' tags='descender2'/>
    <line x1="21.75" y1="129.5" x2="126.75" y2="129.5" stroke='grey' stroke-width='0.1' stroke-dasharray='2, 2' tags='ascender1'/>
    <line x1="21.75" y1="136.5" x2="126.75" y2="136.5" stroke='grey' stroke-width='0.1' tags='waist'/>
    <line x1="21.75" y1="143.5" x2="126.75" y2="143.5" stroke='red' stroke-width='0.1' tags='base'/>
    <line x1="21.75" y1="150.5" x2="126.75" y2="150.5" stroke='grey' stroke-width='0.1' stroke-dasharray='2, 2' tags='descender1'/>
    <line x1="21.75" y1="157.5" x2="126.75" y2="157.5" stroke='blue' stroke-width='0.2' tags='descender2'/>
    <line x1="21.75" y1="164.5" x2="126.75" y2="164.5" stroke='grey' stroke-width='0.1' stroke-dasharray='2, 2' tags='ascender1'/>
    <line x1="21.75" y1="171.5" x2="126.75" y2="171.5" stroke='grey' stroke-width='0.1' tags='waist'/>
    <line x1="21.75" y1="178.5" x2="126.75" y2="178.5" stroke='red' stroke-width='0.1' tags='base'/>
    <line x1="21.75" y1="185.5" x2="126.75" y2="185.5" stroke='grey' stroke-width='0.1' stroke-dasharray='2, 2' tags='descender1'/>
    <line x1="21.75" y1="192.5" x2="126.75" y2="192.5" stroke='blue' stroke-width='0.2' tags='descender2'/>
    <line x1="21.75" y1="17.5" x2="21.75" y2="17.5" stroke='blue' stroke-width='0.1' tags='slant'/>
    <line x1="21.75" y1="28.11212" x2="30.0411" y2="17.5" stroke='blue' stroke-width='0.1' tags='slant'/>
    <line x1="21.75" y1="38.72424" x2="38.3322" y2="17.5" stroke='blue' stroke-width='0.1' tags='slant'/>
    <line x1="21.75" y1="49.33637" x2="46.6233" y2="17.5" stroke='blue' stroke-width='0.1' tags='slant'/>
    <line x1="21.75" y1="59.94849" x2="54.91439" y2="17.5" stroke='blue' stroke-width='0.1' tags='slant'/>
    <line x1="21.75" y1="70.56061" x2="63.20549" y2="17.5" stroke='blue' stroke-width='0.1' tags='slant'/>
    <line x1="21.75" y1="81.17273" x2="71.49659" y2="17.5" stroke='blue' stroke-width='0.1' tags='slant'/>
    <line x1="21.75" y1="91.78486" x2="79.78769" y2="17.5" stroke='blue' stroke-width='0.1' tags='slant'/>
    <line x1="21.75" y1="102.39698" x2="88.07879" y2="17.5" stroke='blue' stroke-width='0.1' tags='slant'/>
    <line x1="21.75" y1="113.0091" x2="96.36989" y2="17.5" stroke='blue' stroke-width='0.1' tags='slant'/>
    <line x1="21.75" y1="123.62122" x2="104.66099" y2="17.5" stroke='blue' stroke-width='0.1' tags='slant'/>
    <line x1="21.75" y1="134.23334" x2="112.95208" y2="17.5" stroke='blue' stroke-width='0.1' tags='slant'/>
    <line x1="21.75" y1="144.84547" x2="121.24318" y2="17.5" stroke='blue' stroke-width='0.1' tags='slant'/>
    <line x1="21.75" y1="155.45759" x2="126.75" y2="21.06372" stroke='blue' stroke-width='0.1' tags='slant'/>
    <line x1="21.75" y1="166.06971" x2="126.75" y2="31.67584" stroke='blue' stroke-width='0.1' tags='slant'/>
    <line x1="21.75" y1="176.68183" x2="126.75" y2="42.28796" stroke='blue' stroke-width='0.1' tags='slant'/>
    <line x1="21.75" y1="187.29396" x2="126.75" y2="52.90008" stroke='blue' stroke-width='0.1' tags='slant'/>
    <line x1="25.97369" y1="192.5" x2="126.75" y2="63.51221" stroke='blue' stroke-width='0.1' tags='slant'/>
    <line x1="34.26479" y1="192.5" x2="126.75" y2="74.12433" stroke='blue' stroke-width='0.1' tags='slant'/>
    <line x1="42.55589" y1="192.5" x2="126.75" y2="84.73645" stroke='blue' stroke-width='0.1' tags='slant'/>
    <line x1="50.84699" y1="192.5" x2="126.75" y2="95.34857" stroke='blue' stroke-width='0.1' tags='slant'/>
    <line x1="59.13809" y1="192.5" x2="126.75" y2="105.9607" stroke='blue' stroke-width='0.1' tags='slant'/>
    <line x1="67.42918" y1="192.5" x2="126.75" y2="116.57282" stroke='blue' stroke-width='0.1' tags='slant'/>
    <line x1="75.72028" y1="192.5" x2="126.75" y2="127.18494" stroke='blue' stroke-width='0.1' tags='slant'/>
    <line x1="84.01138" y1="192.5" x2="126.75" y2="137.79706" stroke='blue' stroke-width='0.1' tags='slant'/>
    <line x1="92.30248" y1="192.5" x2="126.75" y2="148.40918" stroke='blue' stroke-width='0.1' tags='slant'/>
    <line x1="100.59358" y1="192.5" x2="126.75" y2="159.02131" stroke='blue' stroke-width='0.1' tags='slant'/>
    <line x1="108.88468" y1="192.5" x2="126.75" y2="169.63343" stroke='blue' stroke-width='0.1' tags='slant'/>
    <line x1="117.17578" y1="192.5" x2="126.75" y2="180.24555" stroke='blue' stroke-width='0.1' tags='slant'/>
    <line x1="125.46687" y1="192.5" x2="126.75" y2="190.85767" stroke='blue' stroke-width='0.1' tags='slant'/>
    <line x1="21.75" y1="25.58176" x2="35.74802" y2="17.5" stroke='blue' stroke-width='0.07' stroke-dasharray='2, 2' tags='connective'/>
    <line x1="21.75" y1="33.66352" x2="49.74604" y2="17.5" stroke='blue' stroke-width='0.07' stroke-dasharray='2, 2' tags='connective'/>
    <line x1="21.75" y1="41.74528" x2="63.74406" y2="17.5" stroke='blue' stroke-width='0.07' stroke-dasharray='2, 2' tags='connective'/>
    <line x1="21.75" y1="49.82704" x2="77.74208" y2="17.5" stroke='blue' stroke-width='0.07' stroke-dasharray='2, 2' tags='connective'/>
    <line x1="21.75" y1="57.9088" x2="91.7401" y2="17.5" stroke='blue' stroke-width='0.07' stroke-dasharray='2, 2' tags='connective'/>
    <line x1="21.75" y1="65.99056" x2="105.73812" y2="17.5" stroke='blue' stroke-width='0.07' stroke-dasharray='2, 2' tags='connective'/>
    <line x1="21.75" y1="74.07232" x2="119.73614" y2="17.5" stroke='blue' stroke-width='0.07' stroke-dasharray='2, 2' tags='connective'/>
    <line x1="21.75" y1="82.15408" x2="126.75" y2="21.5323" stroke='blue' stroke-width='0.07' stroke-dasharray='2, 2' tags='connective'/>
    <line x1="21.75" y1="90.23584" x2="126.75" y2="29.61406" stroke='blue' stroke-width='0.07' stroke-dasharray='2, 2' tags='connective'/>
    <line x1="21.75" y1="98.3176" x2="126.75" y2="37.69582" stroke='blue' stroke-width='0.07' stroke-dasharray='2, 2' tags='connective'/>
    <line x1="21.75" y1="106.39936" x2="126.75" y2="45.77759" stroke='blue' stroke-width='0.07' stroke-dasharray='2, 2' tags='connective'/>
    <line x1="21.75" y1="114.48112" x2="126.75" y2="53.85935" stroke='blue' stroke-width='0.07' stroke-dasharray='2, 2' tags='connective'/>
    <line x1="21.75" y1="122.56288" x2="126.75" y2="61.94111" stroke='blue' stroke-width='0.07' stroke-dasharray='2, 2' tags='connective'/>
    <line x1="21.75" y1="130.64464" x2="126.75" y2="70.02287" stroke='blue' stroke-width='0.07' stroke-dasharray='2, 2' tags='connective'/>
    <line x1="21.75" y1="138.7264" x2="126.75" y2="78.10463" stroke='blue' stroke-width='0.07' stroke-dasharray='2, 2' tags='connective'/>
    <line x1="21.75" y1="146.80817" x2="126.75" y2="86.18639" stroke='blue' stroke-width='0.07' stroke-dasharray='2, 2' tags='connective'/>
    <line x1="21.75" y1="154.88993" x2="126.75" y2="94.26815" stroke='blue' stroke-width='0.07' stroke-dasharray='2, 2' tags='connective'/>
    <line x1="21.75" y1="162.97169" x2="126.75" y2="102.34991" stroke='blue' stroke-width='0.07' stroke-dasharray='2, 2' tags='connective'/>
    <line x1="21.75" y1="171.05345" x2="126.75" y2="110.43167" stroke='blue' stroke-width='0.07' stroke-dasharray='2, 2' tags='connective'/>
    <line x1="21.75" y1="179.13521" x2="126.75" y2="118.51343" stroke='blue' stroke-width='0.07' stroke-dasharray='2, 2' tags='connective'/>
    <line x1="21.75" y1="187.21697" x2="126.75" y2="126.59519" stroke='blue' stroke-width='0.07' stroke-dasharray='2, 2' tags='connective'/>
    <line x1="26.59754" y1="192.5" x2="126.75" y2="134.67695" stroke='blue' stroke-width='0.07' stroke-dasharray='2, 2' tags='connective'/>
    <line x1="40.59556" y1="192.5" x2="126.75" y2="142.75871" stroke='blue' stroke-width='0.07' stroke-dasharray='2, 2' tags='connective'/>
    <line x1="54.59358" y1="192.5" x2="126.75" y2="150.84047" stroke='blue' stroke-width='0.07' stroke-dasharray='2, 2' tags='connective'/>
    <line x1="68.5916" y1="192.5" x2="126.75" y2="158.92223" stroke='blue' stroke-width='0.07' stroke-dasharray='2, 2' tags='connective'/>
    <line x1="82.58962" y1="192.5" x2="126.75" y2="167.00399" stroke='blue' stroke-width='0.07' stroke-dasharray='2, 2' tags='connective'/>
    <line x1="96.58763" y1="192.5" x2="126.75" y2="175.08575" stroke='blue' stroke-width='0.07' stroke-dasharray='2, 2' tags='connective'/>
    <line x1="110.58565" y1="192.5" x2="126.75" y2="183.16751" stroke='blue' stroke-width='0.07' stroke-dasharray='2, 2' tags='connective'/>
    <line x1="124.58367" y1="192.5" x2="126.75" y2="191.24927" stroke='blue' stroke-width='0.07' stroke-dasharray='2, 2' tags='connective'/>
  </g>
</svg>
