<?xml version="1.0" standalone="no"?>
<!DOCTYPE svg PUBLIC "-//W3C//DTD SVG 1.1//EN" "http://www.w3.org/Graphics/SVG/1.1/DTD/svg11.dtd">
<svg xmlns="http://www.w3.org/2000/svg" width="210.0mm" height="297.0mm" viewBox="0 0 210.0 297.0" shape-rendering="geometricPrecision" >
  <style>
    svg         { stroke:            #ed008c; }
    svg         { stroke-width:         0.04; }
    .altcolor   { stroke:               blue; }
    .extrafine  { stroke-width:         0.01; }
    .fine       { stroke-width:         0.02; }
    .medium     { stroke-width:         0.04; }
    .broad      { stroke-width:         0.08; }
    .extrabroad { stroke-width:         0.16; }
    .dashed     { stroke-dasharray:      2 2; }
  </style>
  <g id="sheet">
    <line x1="10.0" y1="13.5" x2="200.0" y2="13.5" class='hline'/>
    <line x1="10.0" y1="23.5" x2="200.0" y2="23.5" class='hline'/>
    <line x1="10.0" y1="33.5" x2="200.0" y2="33.5" class='hline'/>
    <line x1="10.0" y1="43.5" x2="200.0" y2="43.5" class='hline'/>
    <line x1="10.0" y1="53.5" x2="200.0" y2="53.5" class='hline'/>
    <line x1="10.0" y1="63.5" x2="200.0" y2="63.5" class='hline'/>
    <line x1="10.0" y1="73.5" x2="200.0" y2="73.5" class='hline'/>
    <line x1="10.0" y1="83.5" x2="200.0" y2="83.5" class='hline'/>
    <line x1="10.0" y1="93.5" x2="200.0" y2="93.5" class='hline'/>
    <line x1="10.0" y1="103.5" x2="200.0" y2="103.5" class='hline'/>
    <line x1="10.0" y1="113.5" x2="200.0" y2="113.5" class='hline'/>
    <line x1="10.0" y1="123.5" x2="200.0" y2="123.5" class='hline'/>
    <line x1="10.0" y1="133.5" x2="200.0" y2="133.5" class='hline'/>
    <line x1="10.0" y1="143.5" x2="200.0" y2="143.5" class='hline'/>
    <line x1="10.0" y1="153.5" x2="200.0" y2="153.5" class='hline'/>
    <line x1="10.0" y1="163.5" x2="200.0" y2="163.5" class='hline'/>
    <line x1="10.0" y1="173.5" x2="200.0" y2="173.5" class='hline'/>
    <line x1="10.0" y1="183.5" x2="200.0" y2="183.5" class='hline'/>
    <line x1="10.0" y1="193.5" x2="200.0" y2="193.5" class='hline'/>
    <line x1="10.0" y1="203.5" x2="200.0" y2="203.5" class='hline'/>
    <line x1="10.0" y1="213.5" x2="200.0" y2="213.5" class='hline'/>
    <line x1="10.0" y1="223.5" x2="200.0" y2="223.5" class='hline'/>
    <line x1="10.0" y1="233.5" x2="200.0" y2="233.5" class='hline'/>
    <line x1="10.0" y1="243.5" x2="200.0" y2="243.5" class='hline'/>
    <line x1="10.0" y1="253.5" x2="200.0" y2="253.5" class='hline'/>
    <line x1="10.0" y1="263.5" x2="200.0" y2="263.5" class='hline'/>
    <line x1="10.0" y1="273.5" x2="200.0" y2="273.5" class='hline'/>
    <line x1="10.0" y1="283.5" x2="200.0" y2="283.5" class='hline'/>
  </g>
</svg>
