<?xml version="1.0" standalone="no"?>
<!DOCTYPE svg PUBLIC "-//W3C//DTD SVG 1.1//EN" "http://www.w3.org/Graphics/SVG/1.1/DTD/svg11.dtd">
<svg xmlns="http://www.w3.org/2000/svg" width="297.0mm" height="210.0mm" viewBox="0 0 297.0 210.0" shape-rendering="geometricPrecision" >
  <style>
    svg       { stroke: #ed008c; stroke-width: 0.04; }
    .altcolor { stroke: blue; }
    .thin     { stroke-width: 0.02; }
    .thick    { stroke-width: 0.08; }
    .dashed   { stroke-dasharray: 2 2; }
  </style>
  <g id="sheet">
    <line x1="8.5" y1="10.0" x2="288.5" y2="10.0" class='hline'/>
    <line x1="8.5" y1="20.0" x2="288.5" y2="20.0" class='hline'/>
    <line x1="8.5" y1="30.0" x2="288.5" y2="30.0" class='hline'/>
    <line x1="8.5" y1="40.0" x2="288.5" y2="40.0" class='hline'/>
    <line x1="8.5" y1="50.0" x2="288.5" y2="50.0" class='hline'/>
    <line x1="8.5" y1="60.0" x2="288.5" y2="60.0" class='hline'/>
    <line x1="8.5" y1="70.0" x2="288.5" y2="70.0" class='hline'/>
    <line x1="8.5" y1="80.0" x2="288.5" y2="80.0" class='hline'/>
    <line x1="8.5" y1="90.0" x2="288.5" y2="90.0" class='hline'/>
    <line x1="8.5" y1="100.0" x2="288.5" y2="100.0" class='hline'/>
    <line x1="8.5" y1="110.0" x2="288.5" y2="110.0" class='hline'/>
    <line x1="8.5" y1="120.0" x2="288.5" y2="120.0" class='hline'/>
    <line x1="8.5" y1="130.0" x2="288.5" y2="130.0" class='hline'/>
    <line x1="8.5" y1="140.0" x2="288.5" y2="140.0" class='hline'/>
    <line x1="8.5" y1="150.0" x2="288.5" y2="150.0" class='hline'/>
    <line x1="8.5" y1="160.0" x2="288.5" y2="160.0" class='hline'/>
    <line x1="8.5" y1="170.0" x2="288.5" y2="170.0" class='hline'/>
    <line x1="8.5" y1="180.0" x2="288.5" y2="180.0" class='hline'/>
    <line x1="8.5" y1="190.0" x2="288.5" y2="190.0" class='hline'/>
    <line x1="8.5" y1="200.0" x2="288.5" y2="200.0" class='hline'/>
  </g>
</svg>
