<?xml version="1.0" standalone="no"?>
<!DOCTYPE svg PUBLIC "-//W3C//DTD SVG 1.1//EN" "http://www.w3.org/Graphics/SVG/1.1/DTD/svg11.dtd">
<svg xmlns="http://www.w3.org/2000/svg" width="210.0mm" height="297.0mm" viewBox="0 0 210.0 297.0" shape-rendering="geometricPrecision" >
  <style>
    svg       { stroke: #ed008c; stroke-width: 0.04; }
    .altcolor { stroke: blue; }
    .thin     { stroke-width: 0.02; }
    .thick    { stroke-width: 0.08; }
    .dashed   { stroke-dasharray: 2 2; }
  </style>
  <g id="sheet">
    <line x1="7.0" y1="12.0" x2="203.0" y2="12.0" class='hline'/>
    <line x1="7.0" y1="19.0" x2="203.0" y2="19.0" class='hline'/>
    <line x1="7.0" y1="26.0" x2="203.0" y2="26.0" class='hline'/>
    <line x1="7.0" y1="33.0" x2="203.0" y2="33.0" class='hline'/>
    <line x1="7.0" y1="40.0" x2="203.0" y2="40.0" class='hline'/>
    <line x1="7.0" y1="47.0" x2="203.0" y2="47.0" class='hline'/>
    <line x1="7.0" y1="54.0" x2="203.0" y2="54.0" class='hline'/>
    <line x1="7.0" y1="61.0" x2="203.0" y2="61.0" class='hline'/>
    <line x1="7.0" y1="68.0" x2="203.0" y2="68.0" class='hline'/>
    <line x1="7.0" y1="75.0" x2="203.0" y2="75.0" class='hline'/>
    <line x1="7.0" y1="82.0" x2="203.0" y2="82.0" class='hline'/>
    <line x1="7.0" y1="89.0" x2="203.0" y2="89.0" class='hline'/>
    <line x1="7.0" y1="96.0" x2="203.0" y2="96.0" class='hline'/>
    <line x1="7.0" y1="103.0" x2="203.0" y2="103.0" class='hline'/>
    <line x1="7.0" y1="110.0" x2="203.0" y2="110.0" class='hline'/>
    <line x1="7.0" y1="117.0" x2="203.0" y2="117.0" class='hline'/>
    <line x1="7.0" y1="124.0" x2="203.0" y2="124.0" class='hline'/>
    <line x1="7.0" y1="131.0" x2="203.0" y2="131.0" class='hline'/>
    <line x1="7.0" y1="138.0" x2="203.0" y2="138.0" class='hline'/>
    <line x1="7.0" y1="145.0" x2="203.0" y2="145.0" class='hline'/>
    <line x1="7.0" y1="152.0" x2="203.0" y2="152.0" class='hline'/>
    <line x1="7.0" y1="159.0" x2="203.0" y2="159.0" class='hline'/>
    <line x1="7.0" y1="166.0" x2="203.0" y2="166.0" class='hline'/>
    <line x1="7.0" y1="173.0" x2="203.0" y2="173.0" class='hline'/>
    <line x1="7.0" y1="180.0" x2="203.0" y2="180.0" class='hline'/>
    <line x1="7.0" y1="187.0" x2="203.0" y2="187.0" class='hline'/>
    <line x1="7.0" y1="194.0" x2="203.0" y2="194.0" class='hline'/>
    <line x1="7.0" y1="201.0" x2="203.0" y2="201.0" class='hline'/>
    <line x1="7.0" y1="208.0" x2="203.0" y2="208.0" class='hline'/>
    <line x1="7.0" y1="215.0" x2="203.0" y2="215.0" class='hline'/>
    <line x1="7.0" y1="222.0" x2="203.0" y2="222.0" class='hline'/>
    <line x1="7.0" y1="229.0" x2="203.0" y2="229.0" class='hline'/>
    <line x1="7.0" y1="236.0" x2="203.0" y2="236.0" class='hline'/>
    <line x1="7.0" y1="243.0" x2="203.0" y2="243.0" class='hline'/>
    <line x1="7.0" y1="250.0" x2="203.0" y2="250.0" class='hline'/>
    <line x1="7.0" y1="257.0" x2="203.0" y2="257.0" class='hline'/>
    <line x1="7.0" y1="264.0" x2="203.0" y2="264.0" class='hline'/>
    <line x1="7.0" y1="271.0" x2="203.0" y2="271.0" class='hline'/>
    <line x1="7.0" y1="278.0" x2="203.0" y2="278.0" class='hline'/>
    <line x1="7.0" y1="285.0" x2="203.0" y2="285.0" class='hline'/>
  </g>
</svg>
