<?xml version="1.0" standalone="no"?>
<!DOCTYPE svg PUBLIC "-//W3C//DTD SVG 1.1//EN" "http://www.w3.org/Graphics/SVG/1.1/DTD/svg11.dtd">
<svg xmlns="http://www.w3.org/2000/svg" width="210.0mm" height="297.0mm" viewBox="0 0 210.0 297.0" >

  <g id="sheet">
    <line x1="7.5" y1="11.0" x2="202.5" y2="11.0" stroke='blue' stroke-width='0.1' tags='hline'/>
    <line x1="7.5" y1="16.0" x2="202.5" y2="16.0" stroke='blue' stroke-width='0.1' tags='hline'/>
    <line x1="7.5" y1="21.0" x2="202.5" y2="21.0" stroke='blue' stroke-width='0.1' tags='hline'/>
    <line x1="7.5" y1="26.0" x2="202.5" y2="26.0" stroke='blue' stroke-width='0.1' tags='hline'/>
    <line x1="7.5" y1="31.0" x2="202.5" y2="31.0" stroke='blue' stroke-width='0.1' tags='hline'/>
    <line x1="7.5" y1="36.0" x2="202.5" y2="36.0" stroke='blue' stroke-width='0.1' tags='hline'/>
    <line x1="7.5" y1="41.0" x2="202.5" y2="41.0" stroke='blue' stroke-width='0.1' tags='hline'/>
    <line x1="7.5" y1="46.0" x2="202.5" y2="46.0" stroke='blue' stroke-width='0.1' tags='hline'/>
    <line x1="7.5" y1="51.0" x2="202.5" y2="51.0" stroke='blue' stroke-width='0.1' tags='hline'/>
    <line x1="7.5" y1="56.0" x2="202.5" y2="56.0" stroke='blue' stroke-width='0.1' tags='hline'/>
    <line x1="7.5" y1="61.0" x2="202.5" y2="61.0" stroke='blue' stroke-width='0.1' tags='hline'/>
    <line x1="7.5" y1="66.0" x2="202.5" y2="66.0" stroke='blue' stroke-width='0.1' tags='hline'/>
    <line x1="7.5" y1="71.0" x2="202.5" y2="71.0" stroke='blue' stroke-width='0.1' tags='hline'/>
    <line x1="7.5" y1="76.0" x2="202.5" y2="76.0" stroke='blue' stroke-width='0.1' tags='hline'/>
    <line x1="7.5" y1="81.0" x2="202.5" y2="81.0" stroke='blue' stroke-width='0.1' tags='hline'/>
    <line x1="7.5" y1="86.0" x2="202.5" y2="86.0" stroke='blue' stroke-width='0.1' tags='hline'/>
    <line x1="7.5" y1="91.0" x2="202.5" y2="91.0" stroke='blue' stroke-width='0.1' tags='hline'/>
    <line x1="7.5" y1="96.0" x2="202.5" y2="96.0" stroke='blue' stroke-width='0.1' tags='hline'/>
    <line x1="7.5" y1="101.0" x2="202.5" y2="101.0" stroke='blue' stroke-width='0.1' tags='hline'/>
    <line x1="7.5" y1="106.0" x2="202.5" y2="106.0" stroke='blue' stroke-width='0.1' tags='hline'/>
    <line x1="7.5" y1="111.0" x2="202.5" y2="111.0" stroke='blue' stroke-width='0.1' tags='hline'/>
    <line x1="7.5" y1="116.0" x2="202.5" y2="116.0" stroke='blue' stroke-width='0.1' tags='hline'/>
    <line x1="7.5" y1="121.0" x2="202.5" y2="121.0" stroke='blue' stroke-width='0.1' tags='hline'/>
    <line x1="7.5" y1="126.0" x2="202.5" y2="126.0" stroke='blue' stroke-width='0.1' tags='hline'/>
    <line x1="7.5" y1="131.0" x2="202.5" y2="131.0" stroke='blue' stroke-width='0.1' tags='hline'/>
    <line x1="7.5" y1="136.0" x2="202.5" y2="136.0" stroke='blue' stroke-width='0.1' tags='hline'/>
    <line x1="7.5" y1="141.0" x2="202.5" y2="141.0" stroke='blue' stroke-width='0.1' tags='hline'/>
    <line x1="7.5" y1="146.0" x2="202.5" y2="146.0" stroke='blue' stroke-width='0.1' tags='hline'/>
    <line x1="7.5" y1="151.0" x2="202.5" y2="151.0" stroke='blue' stroke-width='0.1' tags='hline'/>
    <line x1="7.5" y1="156.0" x2="202.5" y2="156.0" stroke='blue' stroke-width='0.1' tags='hline'/>
    <line x1="7.5" y1="161.0" x2="202.5" y2="161.0" stroke='blue' stroke-width='0.1' tags='hline'/>
    <line x1="7.5" y1="166.0" x2="202.5" y2="166.0" stroke='blue' stroke-width='0.1' tags='hline'/>
    <line x1="7.5" y1="171.0" x2="202.5" y2="171.0" stroke='blue' stroke-width='0.1' tags='hline'/>
    <line x1="7.5" y1="176.0" x2="202.5" y2="176.0" stroke='blue' stroke-width='0.1' tags='hline'/>
    <line x1="7.5" y1="181.0" x2="202.5" y2="181.0" stroke='blue' stroke-width='0.1' tags='hline'/>
    <line x1="7.5" y1="186.0" x2="202.5" y2="186.0" stroke='blue' stroke-width='0.1' tags='hline'/>
    <line x1="7.5" y1="191.0" x2="202.5" y2="191.0" stroke='blue' stroke-width='0.1' tags='hline'/>
    <line x1="7.5" y1="196.0" x2="202.5" y2="196.0" stroke='blue' stroke-width='0.1' tags='hline'/>
    <line x1="7.5" y1="201.0" x2="202.5" y2="201.0" stroke='blue' stroke-width='0.1' tags='hline'/>
    <line x1="7.5" y1="206.0" x2="202.5" y2="206.0" stroke='blue' stroke-width='0.1' tags='hline'/>
    <line x1="7.5" y1="211.0" x2="202.5" y2="211.0" stroke='blue' stroke-width='0.1' tags='hline'/>
    <line x1="7.5" y1="216.0" x2="202.5" y2="216.0" stroke='blue' stroke-width='0.1' tags='hline'/>
    <line x1="7.5" y1="221.0" x2="202.5" y2="221.0" stroke='blue' stroke-width='0.1' tags='hline'/>
    <line x1="7.5" y1="226.0" x2="202.5" y2="226.0" stroke='blue' stroke-width='0.1' tags='hline'/>
    <line x1="7.5" y1="231.0" x2="202.5" y2="231.0" stroke='blue' stroke-width='0.1' tags='hline'/>
    <line x1="7.5" y1="236.0" x2="202.5" y2="236.0" stroke='blue' stroke-width='0.1' tags='hline'/>
    <line x1="7.5" y1="241.0" x2="202.5" y2="241.0" stroke='blue' stroke-width='0.1' tags='hline'/>
    <line x1="7.5" y1="246.0" x2="202.5" y2="246.0" stroke='blue' stroke-width='0.1' tags='hline'/>
    <line x1="7.5" y1="251.0" x2="202.5" y2="251.0" stroke='blue' stroke-width='0.1' tags='hline'/>
    <line x1="7.5" y1="256.0" x2="202.5" y2="256.0" stroke='blue' stroke-width='0.1' tags='hline'/>
    <line x1="7.5" y1="261.0" x2="202.5" y2="261.0" stroke='blue' stroke-width='0.1' tags='hline'/>
    <line x1="7.5" y1="266.0" x2="202.5" y2="266.0" stroke='blue' stroke-width='0.1' tags='hline'/>
    <line x1="7.5" y1="271.0" x2="202.5" y2="271.0" stroke='blue' stroke-width='0.1' tags='hline'/>
    <line x1="7.5" y1="276.0" x2="202.5" y2="276.0" stroke='blue' stroke-width='0.1' tags='hline'/>
    <line x1="7.5" y1="281.0" x2="202.5" y2="281.0" stroke='blue' stroke-width='0.1' tags='hline'/>
    <line x1="7.5" y1="286.0" x2="202.5" y2="286.0" stroke='blue' stroke-width='0.1' tags='hline'/>
  </g>
</svg>
