<?xml version="1.0" standalone="no"?>
<!DOCTYPE svg PUBLIC "-//W3C//DTD SVG 1.1//EN" "http://www.w3.org/Graphics/SVG/1.1/DTD/svg11.dtd">
<svg xmlns="http://www.w3.org/2000/svg" width="210.0mm" height="297.0mm" viewBox="0 0 210.0 297.0" >

  <g id="sheet">
    <line x1="15.0" y1="21.0" x2="195.0" y2="21.0" stroke='blue' stroke-width='0.2' tags='ascender'/>
    <line x1="15.0" y1="26.0" x2="195.0" y2="26.0" stroke='grey' stroke-width='0.1' stroke-dasharray='2, 2' tags='waist'/>
    <line x1="15.0" y1="31.0" x2="195.0" y2="31.0" stroke='red' stroke-width='0.1' stroke-dasharray='2, 2' tags='base'/>
    <line x1="15.0" y1="36.0" x2="195.0" y2="36.0" stroke='blue' stroke-width='0.2' tags='descender'/>
    <line x1="15.0" y1="41.0" x2="195.0" y2="41.0" stroke='grey' stroke-width='0.1' stroke-dasharray='2, 2' tags='waist'/>
    <line x1="15.0" y1="46.0" x2="195.0" y2="46.0" stroke='red' stroke-width='0.1' stroke-dasharray='2, 2' tags='base'/>
    <line x1="15.0" y1="51.0" x2="195.0" y2="51.0" stroke='blue' stroke-width='0.2' tags='descender'/>
    <line x1="15.0" y1="56.0" x2="195.0" y2="56.0" stroke='grey' stroke-width='0.1' stroke-dasharray='2, 2' tags='waist'/>
    <line x1="15.0" y1="61.0" x2="195.0" y2="61.0" stroke='red' stroke-width='0.1' stroke-dasharray='2, 2' tags='base'/>
    <line x1="15.0" y1="66.0" x2="195.0" y2="66.0" stroke='blue' stroke-width='0.2' tags='descender'/>
    <line x1="15.0" y1="71.0" x2="195.0" y2="71.0" stroke='grey' stroke-width='0.1' stroke-dasharray='2, 2' tags='waist'/>
    <line x1="15.0" y1="76.0" x2="195.0" y2="76.0" stroke='red' stroke-width='0.1' stroke-dasharray='2, 2' tags='base'/>
    <line x1="15.0" y1="81.0" x2="195.0" y2="81.0" stroke='blue' stroke-width='0.2' tags='descender'/>
    <line x1="15.0" y1="86.0" x2="195.0" y2="86.0" stroke='grey' stroke-width='0.1' stroke-dasharray='2, 2' tags='waist'/>
    <line x1="15.0" y1="91.0" x2="195.0" y2="91.0" stroke='red' stroke-width='0.1' stroke-dasharray='2, 2' tags='base'/>
    <line x1="15.0" y1="96.0" x2="195.0" y2="96.0" stroke='blue' stroke-width='0.2' tags='descender'/>
    <line x1="15.0" y1="101.0" x2="195.0" y2="101.0" stroke='grey' stroke-width='0.1' stroke-dasharray='2, 2' tags='waist'/>
    <line x1="15.0" y1="106.0" x2="195.0" y2="106.0" stroke='red' stroke-width='0.1' stroke-dasharray='2, 2' tags='base'/>
    <line x1="15.0" y1="111.0" x2="195.0" y2="111.0" stroke='blue' stroke-width='0.2' tags='descender'/>
    <line x1="15.0" y1="116.0" x2="195.0" y2="116.0" stroke='grey' stroke-width='0.1' stroke-dasharray='2, 2' tags='waist'/>
    <line x1="15.0" y1="121.0" x2="195.0" y2="121.0" stroke='red' stroke-width='0.1' stroke-dasharray='2, 2' tags='base'/>
    <line x1="15.0" y1="126.0" x2="195.0" y2="126.0" stroke='blue' stroke-width='0.2' tags='descender'/>
    <line x1="15.0" y1="131.0" x2="195.0" y2="131.0" stroke='grey' stroke-width='0.1' stroke-dasharray='2, 2' tags='waist'/>
    <line x1="15.0" y1="136.0" x2="195.0" y2="136.0" stroke='red' stroke-width='0.1' stroke-dasharray='2, 2' tags='base'/>
    <line x1="15.0" y1="141.0" x2="195.0" y2="141.0" stroke='blue' stroke-width='0.2' tags='descender'/>
    <line x1="15.0" y1="146.0" x2="195.0" y2="146.0" stroke='grey' stroke-width='0.1' stroke-dasharray='2, 2' tags='waist'/>
    <line x1="15.0" y1="151.0" x2="195.0" y2="151.0" stroke='red' stroke-width='0.1' stroke-dasharray='2, 2' tags='base'/>
    <line x1="15.0" y1="156.0" x2="195.0" y2="156.0" stroke='blue' stroke-width='0.2' tags='descender'/>
    <line x1="15.0" y1="161.0" x2="195.0" y2="161.0" stroke='grey' stroke-width='0.1' stroke-dasharray='2, 2' tags='waist'/>
    <line x1="15.0" y1="166.0" x2="195.0" y2="166.0" stroke='red' stroke-width='0.1' stroke-dasharray='2, 2' tags='base'/>
    <line x1="15.0" y1="171.0" x2="195.0" y2="171.0" stroke='blue' stroke-width='0.2' tags='descender'/>
    <line x1="15.0" y1="176.0" x2="195.0" y2="176.0" stroke='grey' stroke-width='0.1' stroke-dasharray='2, 2' tags='waist'/>
    <line x1="15.0" y1="181.0" x2="195.0" y2="181.0" stroke='red' stroke-width='0.1' stroke-dasharray='2, 2' tags='base'/>
    <line x1="15.0" y1="186.0" x2="195.0" y2="186.0" stroke='blue' stroke-width='0.2' tags='descender'/>
    <line x1="15.0" y1="191.0" x2="195.0" y2="191.0" stroke='grey' stroke-width='0.1' stroke-dasharray='2, 2' tags='waist'/>
    <line x1="15.0" y1="196.0" x2="195.0" y2="196.0" stroke='red' stroke-width='0.1' stroke-dasharray='2, 2' tags='base'/>
    <line x1="15.0" y1="201.0" x2="195.0" y2="201.0" stroke='blue' stroke-width='0.2' tags='descender'/>
    <line x1="15.0" y1="206.0" x2="195.0" y2="206.0" stroke='grey' stroke-width='0.1' stroke-dasharray='2, 2' tags='waist'/>
    <line x1="15.0" y1="211.0" x2="195.0" y2="211.0" stroke='red' stroke-width='0.1' stroke-dasharray='2, 2' tags='base'/>
    <line x1="15.0" y1="216.0" x2="195.0" y2="216.0" stroke='blue' stroke-width='0.2' tags='descender'/>
    <line x1="15.0" y1="221.0" x2="195.0" y2="221.0" stroke='grey' stroke-width='0.1' stroke-dasharray='2, 2' tags='waist'/>
    <line x1="15.0" y1="226.0" x2="195.0" y2="226.0" stroke='red' stroke-width='0.1' stroke-dasharray='2, 2' tags='base'/>
    <line x1="15.0" y1="231.0" x2="195.0" y2="231.0" stroke='blue' stroke-width='0.2' tags='descender'/>
    <line x1="15.0" y1="236.0" x2="195.0" y2="236.0" stroke='grey' stroke-width='0.1' stroke-dasharray='2, 2' tags='waist'/>
    <line x1="15.0" y1="241.0" x2="195.0" y2="241.0" stroke='red' stroke-width='0.1' stroke-dasharray='2, 2' tags='base'/>
    <line x1="15.0" y1="246.0" x2="195.0" y2="246.0" stroke='blue' stroke-width='0.2' tags='descender'/>
    <line x1="15.0" y1="251.0" x2="195.0" y2="251.0" stroke='grey' stroke-width='0.1' stroke-dasharray='2, 2' tags='waist'/>
    <line x1="15.0" y1="256.0" x2="195.0" y2="256.0" stroke='red' stroke-width='0.1' stroke-dasharray='2, 2' tags='base'/>
    <line x1="15.0" y1="261.0" x2="195.0" y2="261.0" stroke='blue' stroke-width='0.2' tags='descender'/>
    <line x1="15.0" y1="266.0" x2="195.0" y2="266.0" stroke='grey' stroke-width='0.1' stroke-dasharray='2, 2' tags='waist'/>
    <line x1="15.0" y1="271.0" x2="195.0" y2="271.0" stroke='red' stroke-width='0.1' stroke-dasharray='2, 2' tags='base'/>
    <line x1="15.0" y1="276.0" x2="195.0" y2="276.0" stroke='blue' stroke-width='0.2' tags='descender'/>
    <line x1="15.0" y1="21.0" x2="15.0" y2="21.0" stroke='blue' stroke-width='0.05' tags='slant'/>
    <line x1="15.0" y1="43.29001" x2="18.53039" y2="21.0" stroke='blue' stroke-width='0.05' tags='slant'/>
    <line x1="15.0" y1="65.58002" x2="22.06078" y2="21.0" stroke='blue' stroke-width='0.05' tags='slant'/>
    <line x1="15.0" y1="87.87003" x2="25.59117" y2="21.0" stroke='blue' stroke-width='0.05' tags='slant'/>
    <line x1="15.0" y1="110.16005" x2="29.12156" y2="21.0" stroke='blue' stroke-width='0.05' tags='slant'/>
    <line x1="15.0" y1="132.45006" x2="32.65195" y2="21.0" stroke='blue' stroke-width='0.05' tags='slant'/>
    <line x1="15.0" y1="154.74007" x2="36.18235" y2="21.0" stroke='blue' stroke-width='0.05' tags='slant'/>
    <line x1="15.0" y1="177.03008" x2="39.71274" y2="21.0" stroke='blue' stroke-width='0.05' tags='slant'/>
    <line x1="15.0" y1="199.32009" x2="43.24313" y2="21.0" stroke='blue' stroke-width='0.05' tags='slant'/>
    <line x1="15.0" y1="221.6101" x2="46.77352" y2="21.0" stroke='blue' stroke-width='0.05' tags='slant'/>
    <line x1="15.0" y1="243.90011" x2="50.30391" y2="21.0" stroke='blue' stroke-width='0.05' tags='slant'/>
    <line x1="15.0" y1="266.19013" x2="53.8343" y2="21.0" stroke='blue' stroke-width='0.05' tags='slant'/>
    <line x1="16.97666" y1="276.0" x2="57.36469" y2="21.0" stroke='blue' stroke-width='0.05' tags='slant'/>
    <line x1="20.50705" y1="276.0" x2="60.89508" y2="21.0" stroke='blue' stroke-width='0.05' tags='slant'/>
    <line x1="24.03744" y1="276.0" x2="64.42547" y2="21.0" stroke='blue' stroke-width='0.05' tags='slant'/>
    <line x1="27.56783" y1="276.0" x2="67.95586" y2="21.0" stroke='blue' stroke-width='0.05' tags='slant'/>
    <line x1="31.09822" y1="276.0" x2="71.48626" y2="21.0" stroke='blue' stroke-width='0.05' tags='slant'/>
    <line x1="34.62861" y1="276.0" x2="75.01665" y2="21.0" stroke='blue' stroke-width='0.05' tags='slant'/>
    <line x1="38.15901" y1="276.0" x2="78.54704" y2="21.0" stroke='blue' stroke-width='0.05' tags='slant'/>
    <line x1="41.6894" y1="276.0" x2="82.07743" y2="21.0" stroke='blue' stroke-width='0.05' tags='slant'/>
    <line x1="45.21979" y1="276.0" x2="85.60782" y2="21.0" stroke='blue' stroke-width='0.05' tags='slant'/>
    <line x1="48.75018" y1="276.0" x2="89.13821" y2="21.0" stroke='blue' stroke-width='0.05' tags='slant'/>
    <line x1="52.28057" y1="276.0" x2="92.6686" y2="21.0" stroke='blue' stroke-width='0.05' tags='slant'/>
    <line x1="55.81096" y1="276.0" x2="96.19899" y2="21.0" stroke='blue' stroke-width='0.05' tags='slant'/>
    <line x1="59.34135" y1="276.0" x2="99.72938" y2="21.0" stroke='blue' stroke-width='0.05' tags='slant'/>
    <line x1="62.87174" y1="276.0" x2="103.25977" y2="21.0" stroke='blue' stroke-width='0.05' tags='slant'/>
    <line x1="66.40213" y1="276.0" x2="106.79017" y2="21.0" stroke='blue' stroke-width='0.05' tags='slant'/>
    <line x1="69.93252" y1="276.0" x2="110.32056" y2="21.0" stroke='blue' stroke-width='0.05' tags='slant'/>
    <line x1="73.46292" y1="276.0" x2="113.85095" y2="21.0" stroke='blue' stroke-width='0.05' tags='slant'/>
    <line x1="76.99331" y1="276.0" x2="117.38134" y2="21.0" stroke='blue' stroke-width='0.05' tags='slant'/>
    <line x1="80.5237" y1="276.0" x2="120.91173" y2="21.0" stroke='blue' stroke-width='0.05' tags='slant'/>
    <line x1="84.05409" y1="276.0" x2="124.44212" y2="21.0" stroke='blue' stroke-width='0.05' tags='slant'/>
    <line x1="87.58448" y1="276.0" x2="127.97251" y2="21.0" stroke='blue' stroke-width='0.05' tags='slant'/>
    <line x1="91.11487" y1="276.0" x2="131.5029" y2="21.0" stroke='blue' stroke-width='0.05' tags='slant'/>
    <line x1="94.64526" y1="276.0" x2="135.03329" y2="21.0" stroke='blue' stroke-width='0.05' tags='slant'/>
    <line x1="98.17565" y1="276.0" x2="138.56368" y2="21.0" stroke='blue' stroke-width='0.05' tags='slant'/>
    <line x1="101.70604" y1="276.0" x2="142.09408" y2="21.0" stroke='blue' stroke-width='0.05' tags='slant'/>
    <line x1="105.23643" y1="276.0" x2="145.62447" y2="21.0" stroke='blue' stroke-width='0.05' tags='slant'/>
    <line x1="108.76682" y1="276.0" x2="149.15486" y2="21.0" stroke='blue' stroke-width='0.05' tags='slant'/>
    <line x1="112.29722" y1="276.0" x2="152.68525" y2="21.0" stroke='blue' stroke-width='0.05' tags='slant'/>
    <line x1="115.82761" y1="276.0" x2="156.21564" y2="21.0" stroke='blue' stroke-width='0.05' tags='slant'/>
    <line x1="119.358" y1="276.0" x2="159.74603" y2="21.0" stroke='blue' stroke-width='0.05' tags='slant'/>
    <line x1="122.88839" y1="276.0" x2="163.27642" y2="21.0" stroke='blue' stroke-width='0.05' tags='slant'/>
    <line x1="126.41878" y1="276.0" x2="166.80681" y2="21.0" stroke='blue' stroke-width='0.05' tags='slant'/>
    <line x1="129.94917" y1="276.0" x2="170.3372" y2="21.0" stroke='blue' stroke-width='0.05' tags='slant'/>
    <line x1="133.47956" y1="276.0" x2="173.86759" y2="21.0" stroke='blue' stroke-width='0.05' tags='slant'/>
    <line x1="137.00995" y1="276.0" x2="177.39798" y2="21.0" stroke='blue' stroke-width='0.05' tags='slant'/>
    <line x1="140.54034" y1="276.0" x2="180.92838" y2="21.0" stroke='blue' stroke-width='0.05' tags='slant'/>
    <line x1="144.07073" y1="276.0" x2="184.45877" y2="21.0" stroke='blue' stroke-width='0.05' tags='slant'/>
    <line x1="147.60113" y1="276.0" x2="187.98916" y2="21.0" stroke='blue' stroke-width='0.05' tags='slant'/>
    <line x1="151.13152" y1="276.0" x2="191.51955" y2="21.0" stroke='blue' stroke-width='0.05' tags='slant'/>
    <line x1="154.66191" y1="276.0" x2="195.0" y2="21.31531" stroke='blue' stroke-width='0.05' tags='slant'/>
    <line x1="158.1923" y1="276.0" x2="195.0" y2="43.60532" stroke='blue' stroke-width='0.05' tags='slant'/>
    <line x1="161.72269" y1="276.0" x2="195.0" y2="65.89533" stroke='blue' stroke-width='0.05' tags='slant'/>
    <line x1="165.25308" y1="276.0" x2="195.0" y2="88.18534" stroke='blue' stroke-width='0.05' tags='slant'/>
    <line x1="168.78347" y1="276.0" x2="195.0" y2="110.47535" stroke='blue' stroke-width='0.05' tags='slant'/>
    <line x1="172.31386" y1="276.0" x2="195.0" y2="132.76536" stroke='blue' stroke-width='0.05' tags='slant'/>
    <line x1="175.84425" y1="276.0" x2="195.0" y2="155.05538" stroke='blue' stroke-width='0.05' tags='slant'/>
    <line x1="179.37464" y1="276.0" x2="195.0" y2="177.34539" stroke='blue' stroke-width='0.05' tags='slant'/>
    <line x1="182.90504" y1="276.0" x2="195.0" y2="199.6354" stroke='blue' stroke-width='0.05' tags='slant'/>
    <line x1="186.43543" y1="276.0" x2="195.0" y2="221.92541" stroke='blue' stroke-width='0.05' tags='slant'/>
    <line x1="189.96582" y1="276.0" x2="195.0" y2="244.21542" stroke='blue' stroke-width='0.05' tags='slant'/>
    <line x1="193.49621" y1="276.0" x2="195.0" y2="266.50543" stroke='blue' stroke-width='0.05' tags='slant'/>
  </g>
</svg>
