<?xml version="1.0" standalone="no"?>
<!DOCTYPE svg PUBLIC "-//W3C//DTD SVG 1.1//EN" "http://www.w3.org/Graphics/SVG/1.1/DTD/svg11.dtd">
<svg xmlns="http://www.w3.org/2000/svg" width="148.5mm" height="210.0mm" viewBox="0 0 148.5 210.0" shape-rendering="geometricPrecision" >
  <style>
    svg       { stroke: #ed008c; stroke-width: 0.04; }
    .altcolor { stroke: blue; }
    .thin     { stroke-width: 0.02; }
    .thick    { stroke-width: 0.08; }
    .dashed   { stroke-dasharray: 2 2; }
  </style>
  <g id="sheet">
    <line x1="7.75" y1="10.5" x2="140.75" y2="10.5" class='hline'/>
    <line x1="7.75" y1="17.5" x2="140.75" y2="17.5" class='hline'/>
    <line x1="7.75" y1="24.5" x2="140.75" y2="24.5" class='hline'/>
    <line x1="7.75" y1="31.5" x2="140.75" y2="31.5" class='hline'/>
    <line x1="7.75" y1="38.5" x2="140.75" y2="38.5" class='hline'/>
    <line x1="7.75" y1="45.5" x2="140.75" y2="45.5" class='hline'/>
    <line x1="7.75" y1="52.5" x2="140.75" y2="52.5" class='hline'/>
    <line x1="7.75" y1="59.5" x2="140.75" y2="59.5" class='hline'/>
    <line x1="7.75" y1="66.5" x2="140.75" y2="66.5" class='hline'/>
    <line x1="7.75" y1="73.5" x2="140.75" y2="73.5" class='hline'/>
    <line x1="7.75" y1="80.5" x2="140.75" y2="80.5" class='hline'/>
    <line x1="7.75" y1="87.5" x2="140.75" y2="87.5" class='hline'/>
    <line x1="7.75" y1="94.5" x2="140.75" y2="94.5" class='hline'/>
    <line x1="7.75" y1="101.5" x2="140.75" y2="101.5" class='hline'/>
    <line x1="7.75" y1="108.5" x2="140.75" y2="108.5" class='hline'/>
    <line x1="7.75" y1="115.5" x2="140.75" y2="115.5" class='hline'/>
    <line x1="7.75" y1="122.5" x2="140.75" y2="122.5" class='hline'/>
    <line x1="7.75" y1="129.5" x2="140.75" y2="129.5" class='hline'/>
    <line x1="7.75" y1="136.5" x2="140.75" y2="136.5" class='hline'/>
    <line x1="7.75" y1="143.5" x2="140.75" y2="143.5" class='hline'/>
    <line x1="7.75" y1="150.5" x2="140.75" y2="150.5" class='hline'/>
    <line x1="7.75" y1="157.5" x2="140.75" y2="157.5" class='hline'/>
    <line x1="7.75" y1="164.5" x2="140.75" y2="164.5" class='hline'/>
    <line x1="7.75" y1="171.5" x2="140.75" y2="171.5" class='hline'/>
    <line x1="7.75" y1="178.5" x2="140.75" y2="178.5" class='hline'/>
    <line x1="7.75" y1="185.5" x2="140.75" y2="185.5" class='hline'/>
    <line x1="7.75" y1="192.5" x2="140.75" y2="192.5" class='hline'/>
    <line x1="7.75" y1="199.5" x2="140.75" y2="199.5" class='hline'/>
  </g>
</svg>
