<?xml version="1.0" standalone="no"?>
<!DOCTYPE svg PUBLIC "-//W3C//DTD SVG 1.1//EN" "http://www.w3.org/Graphics/SVG/1.1/DTD/svg11.dtd">
<svg xmlns="http://www.w3.org/2000/svg" width="210.0mm" height="148.5mm" viewBox="0 0 210.0 148.5" >

  <g id="sheet">
    <line x1="21.0" y1="21.75" x2="189.0" y2="21.75" stroke='blue' stroke-width='0.2' tags='ascender'/>
    <line x1="21.0" y1="28.75" x2="189.0" y2="28.75" stroke='grey' stroke-width='0.1' stroke-dasharray='2, 2' tags='waist'/>
    <line x1="21.0" y1="35.75" x2="189.0" y2="35.75" stroke='red' stroke-width='0.1' stroke-dasharray='2, 2' tags='base'/>
    <line x1="21.0" y1="42.75" x2="189.0" y2="42.75" stroke='blue' stroke-width='0.2' tags='descender'/>
    <line x1="21.0" y1="49.75" x2="189.0" y2="49.75" stroke='grey' stroke-width='0.1' stroke-dasharray='2, 2' tags='waist'/>
    <line x1="21.0" y1="56.75" x2="189.0" y2="56.75" stroke='red' stroke-width='0.1' stroke-dasharray='2, 2' tags='base'/>
    <line x1="21.0" y1="63.75" x2="189.0" y2="63.75" stroke='blue' stroke-width='0.2' tags='descender'/>
    <line x1="21.0" y1="70.75" x2="189.0" y2="70.75" stroke='grey' stroke-width='0.1' stroke-dasharray='2, 2' tags='waist'/>
    <line x1="21.0" y1="77.75" x2="189.0" y2="77.75" stroke='red' stroke-width='0.1' stroke-dasharray='2, 2' tags='base'/>
    <line x1="21.0" y1="84.75" x2="189.0" y2="84.75" stroke='blue' stroke-width='0.2' tags='descender'/>
    <line x1="21.0" y1="91.75" x2="189.0" y2="91.75" stroke='grey' stroke-width='0.1' stroke-dasharray='2, 2' tags='waist'/>
    <line x1="21.0" y1="98.75" x2="189.0" y2="98.75" stroke='red' stroke-width='0.1' stroke-dasharray='2, 2' tags='base'/>
    <line x1="21.0" y1="105.75" x2="189.0" y2="105.75" stroke='blue' stroke-width='0.2' tags='descender'/>
    <line x1="21.0" y1="112.75" x2="189.0" y2="112.75" stroke='grey' stroke-width='0.1' stroke-dasharray='2, 2' tags='waist'/>
    <line x1="21.0" y1="119.75" x2="189.0" y2="119.75" stroke='red' stroke-width='0.1' stroke-dasharray='2, 2' tags='base'/>
    <line x1="21.0" y1="126.75" x2="189.0" y2="126.75" stroke='blue' stroke-width='0.2' tags='descender'/>
    <line x1="21.0" y1="21.75" x2="21.0" y2="21.75" stroke='blue' stroke-width='0.05' tags='slant'/>
    <line x1="21.0" y1="35.74143" x2="29.07795" y2="21.75" stroke='blue' stroke-width='0.05' tags='slant'/>
    <line x1="21.0" y1="49.73285" x2="37.15591" y2="21.75" stroke='blue' stroke-width='0.05' tags='slant'/>
    <line x1="21.0" y1="63.72428" x2="45.23386" y2="21.75" stroke='blue' stroke-width='0.05' tags='slant'/>
    <line x1="21.0" y1="77.7157" x2="53.31181" y2="21.75" stroke='blue' stroke-width='0.05' tags='slant'/>
    <line x1="21.0" y1="91.70713" x2="61.38977" y2="21.75" stroke='blue' stroke-width='0.05' tags='slant'/>
    <line x1="21.0" y1="105.69855" x2="69.46772" y2="21.75" stroke='blue' stroke-width='0.05' tags='slant'/>
    <line x1="21.0" y1="119.68998" x2="77.54567" y2="21.75" stroke='blue' stroke-width='0.05' tags='slant'/>
    <line x1="25.00185" y1="126.75" x2="85.62363" y2="21.75" stroke='blue' stroke-width='0.05' tags='slant'/>
    <line x1="33.0798" y1="126.75" x2="93.70158" y2="21.75" stroke='blue' stroke-width='0.05' tags='slant'/>
    <line x1="41.15776" y1="126.75" x2="101.77953" y2="21.75" stroke='blue' stroke-width='0.05' tags='slant'/>
    <line x1="49.23571" y1="126.75" x2="109.85749" y2="21.75" stroke='blue' stroke-width='0.05' tags='slant'/>
    <line x1="57.31366" y1="126.75" x2="117.93544" y2="21.75" stroke='blue' stroke-width='0.05' tags='slant'/>
    <line x1="65.39162" y1="126.75" x2="126.01339" y2="21.75" stroke='blue' stroke-width='0.05' tags='slant'/>
    <line x1="73.46957" y1="126.75" x2="134.09135" y2="21.75" stroke='blue' stroke-width='0.05' tags='slant'/>
    <line x1="81.54752" y1="126.75" x2="142.1693" y2="21.75" stroke='blue' stroke-width='0.05' tags='slant'/>
    <line x1="89.62548" y1="126.75" x2="150.24725" y2="21.75" stroke='blue' stroke-width='0.05' tags='slant'/>
    <line x1="97.70343" y1="126.75" x2="158.32521" y2="21.75" stroke='blue' stroke-width='0.05' tags='slant'/>
    <line x1="105.78138" y1="126.75" x2="166.40316" y2="21.75" stroke='blue' stroke-width='0.05' tags='slant'/>
    <line x1="113.85934" y1="126.75" x2="174.48111" y2="21.75" stroke='blue' stroke-width='0.05' tags='slant'/>
    <line x1="121.93729" y1="126.75" x2="182.55907" y2="21.75" stroke='blue' stroke-width='0.05' tags='slant'/>
    <line x1="130.01524" y1="126.75" x2="189.0" y2="24.5854" stroke='blue' stroke-width='0.05' tags='slant'/>
    <line x1="138.0932" y1="126.75" x2="189.0" y2="38.57683" stroke='blue' stroke-width='0.05' tags='slant'/>
    <line x1="146.17115" y1="126.75" x2="189.0" y2="52.56825" stroke='blue' stroke-width='0.05' tags='slant'/>
    <line x1="154.2491" y1="126.75" x2="189.0" y2="66.55968" stroke='blue' stroke-width='0.05' tags='slant'/>
    <line x1="162.32706" y1="126.75" x2="189.0" y2="80.5511" stroke='blue' stroke-width='0.05' tags='slant'/>
    <line x1="170.40501" y1="126.75" x2="189.0" y2="94.54253" stroke='blue' stroke-width='0.05' tags='slant'/>
    <line x1="178.48296" y1="126.75" x2="189.0" y2="108.53396" stroke='blue' stroke-width='0.05' tags='slant'/>
    <line x1="186.56092" y1="126.75" x2="189.0" y2="122.52538" stroke='blue' stroke-width='0.05' tags='slant'/>
  </g>
</svg>
