<?xml version="1.0" standalone="no"?>
<!DOCTYPE svg PUBLIC "-//W3C//DTD SVG 1.1//EN" "http://www.w3.org/Graphics/SVG/1.1/DTD/svg11.dtd">
<svg xmlns="http://www.w3.org/2000/svg" width="297.0mm" height="210.0mm" viewBox="0 0 297.0 210.0" shape-rendering="geometricPrecision" >
  <style>
    svg         { stroke:            #ed008c; }
    svg         { stroke-width:         0.04; }
    .altcolor   { stroke:               blue; }
    .extrafine  { stroke-width:         0.01; }
    .fine       { stroke-width:         0.02; }
    .medium     { stroke-width:         0.04; }
    .broad      { stroke-width:         0.08; }
    .extrabroad { stroke-width:         0.16; }
    .dashed     { stroke-dasharray:      2 2; }
  </style>
  <g id="sheet">
    <line x1="13.5" y1="15.0" x2="283.5" y2="15.0" class='ascender broad'/>
    <line x1="13.5" y1="25.0" x2="283.5" y2="25.0" class='waist altcolor'/>
    <line x1="13.5" y1="35.0" x2="283.5" y2="35.0" class='base'/>
    <line x1="13.5" y1="45.0" x2="283.5" y2="45.0" class='descender broad'/>
    <line x1="13.5" y1="55.0" x2="283.5" y2="55.0" class='waist altcolor'/>
    <line x1="13.5" y1="65.0" x2="283.5" y2="65.0" class='base'/>
    <line x1="13.5" y1="75.0" x2="283.5" y2="75.0" class='descender broad'/>
    <line x1="13.5" y1="85.0" x2="283.5" y2="85.0" class='waist altcolor'/>
    <line x1="13.5" y1="95.0" x2="283.5" y2="95.0" class='base'/>
    <line x1="13.5" y1="105.0" x2="283.5" y2="105.0" class='descender broad'/>
    <line x1="13.5" y1="115.0" x2="283.5" y2="115.0" class='waist altcolor'/>
    <line x1="13.5" y1="125.0" x2="283.5" y2="125.0" class='base'/>
    <line x1="13.5" y1="135.0" x2="283.5" y2="135.0" class='descender broad'/>
    <line x1="13.5" y1="145.0" x2="283.5" y2="145.0" class='waist altcolor'/>
    <line x1="13.5" y1="155.0" x2="283.5" y2="155.0" class='base'/>
    <line x1="13.5" y1="165.0" x2="283.5" y2="165.0" class='descender broad'/>
    <line x1="13.5" y1="175.0" x2="283.5" y2="175.0" class='waist altcolor'/>
    <line x1="13.5" y1="185.0" x2="283.5" y2="185.0" class='base'/>
    <line x1="13.5" y1="195.0" x2="283.5" y2="195.0" class='descender broad'/>
    <line x1="13.5" y1="15.0" x2="13.5" y2="15.0" class='slant fine'/>
    <line x1="13.5" y1="34.95854" x2="25.02307" y2="15.0" class='slant fine'/>
    <line x1="13.5" y1="54.91707" x2="36.54613" y2="15.0" class='slant fine'/>
    <line x1="13.5" y1="74.87561" x2="48.0692" y2="15.0" class='slant fine'/>
    <line x1="13.5" y1="94.83414" x2="59.59226" y2="15.0" class='slant fine'/>
    <line x1="13.5" y1="114.79268" x2="71.11533" y2="15.0" class='slant fine'/>
    <line x1="13.5" y1="134.75121" x2="82.6384" y2="15.0" class='slant fine'/>
    <line x1="13.5" y1="154.70975" x2="94.16146" y2="15.0" class='slant fine'/>
    <line x1="13.5" y1="174.66829" x2="105.68453" y2="15.0" class='slant fine'/>
    <line x1="13.5" y1="194.62682" x2="117.20759" y2="15.0" class='slant fine'/>
    <line x1="24.80761" y1="195.0" x2="128.73066" y2="15.0" class='slant fine'/>
    <line x1="36.33068" y1="195.0" x2="140.25373" y2="15.0" class='slant fine'/>
    <line x1="47.85374" y1="195.0" x2="151.77679" y2="15.0" class='slant fine'/>
    <line x1="59.37681" y1="195.0" x2="163.29986" y2="15.0" class='slant fine'/>
    <line x1="70.89988" y1="195.0" x2="174.82292" y2="15.0" class='slant fine'/>
    <line x1="82.42294" y1="195.0" x2="186.34599" y2="15.0" class='slant fine'/>
    <line x1="93.94601" y1="195.0" x2="197.86906" y2="15.0" class='slant fine'/>
    <line x1="105.46907" y1="195.0" x2="209.39212" y2="15.0" class='slant fine'/>
    <line x1="116.99214" y1="195.0" x2="220.91519" y2="15.0" class='slant fine'/>
    <line x1="128.51521" y1="195.0" x2="232.43825" y2="15.0" class='slant fine'/>
    <line x1="140.03827" y1="195.0" x2="243.96132" y2="15.0" class='slant fine'/>
    <line x1="151.56134" y1="195.0" x2="255.48439" y2="15.0" class='slant fine'/>
    <line x1="163.0844" y1="195.0" x2="267.00745" y2="15.0" class='slant fine'/>
    <line x1="174.60747" y1="195.0" x2="278.53052" y2="15.0" class='slant fine'/>
    <line x1="186.13054" y1="195.0" x2="283.5" y2="26.35114" class='slant fine'/>
    <line x1="197.6536" y1="195.0" x2="283.5" y2="46.30968" class='slant fine'/>
    <line x1="209.17667" y1="195.0" x2="283.5" y2="66.26821" class='slant fine'/>
    <line x1="220.69973" y1="195.0" x2="283.5" y2="86.22675" class='slant fine'/>
    <line x1="232.2228" y1="195.0" x2="283.5" y2="106.18528" class='slant fine'/>
    <line x1="243.74587" y1="195.0" x2="283.5" y2="126.14382" class='slant fine'/>
    <line x1="255.26893" y1="195.0" x2="283.5" y2="146.10236" class='slant fine'/>
    <line x1="266.792" y1="195.0" x2="283.5" y2="166.06089" class='slant fine'/>
    <line x1="278.31506" y1="195.0" x2="283.5" y2="186.01943" class='slant fine'/>
  </g>
</svg>
