<?xml version="1.0" standalone="no"?>
<!DOCTYPE svg PUBLIC "-//W3C//DTD SVG 1.1//EN" "http://www.w3.org/Graphics/SVG/1.1/DTD/svg11.dtd">
<svg xmlns="http://www.w3.org/2000/svg" width="210.0mm" height="297.0mm" viewBox="0 0 210.0 297.0" >

  <g id="sheet">
    <line x1="10.5" y1="12.0" x2="199.5" y2="12.0" stroke='blue' stroke-width='0.2' tags='ascender'/>
    <line x1="10.5" y1="19.0" x2="199.5" y2="19.0" stroke='grey' stroke-width='0.1' stroke-dasharray='2, 2' tags='waist'/>
    <line x1="10.5" y1="26.0" x2="199.5" y2="26.0" stroke='red' stroke-width='0.1' stroke-dasharray='2, 2' tags='base'/>
    <line x1="10.5" y1="33.0" x2="199.5" y2="33.0" stroke='blue' stroke-width='0.2' tags='descender'/>
    <line x1="10.5" y1="40.0" x2="199.5" y2="40.0" stroke='grey' stroke-width='0.1' stroke-dasharray='2, 2' tags='waist'/>
    <line x1="10.5" y1="47.0" x2="199.5" y2="47.0" stroke='red' stroke-width='0.1' stroke-dasharray='2, 2' tags='base'/>
    <line x1="10.5" y1="54.0" x2="199.5" y2="54.0" stroke='blue' stroke-width='0.2' tags='descender'/>
    <line x1="10.5" y1="61.0" x2="199.5" y2="61.0" stroke='grey' stroke-width='0.1' stroke-dasharray='2, 2' tags='waist'/>
    <line x1="10.5" y1="68.0" x2="199.5" y2="68.0" stroke='red' stroke-width='0.1' stroke-dasharray='2, 2' tags='base'/>
    <line x1="10.5" y1="75.0" x2="199.5" y2="75.0" stroke='blue' stroke-width='0.2' tags='descender'/>
    <line x1="10.5" y1="82.0" x2="199.5" y2="82.0" stroke='grey' stroke-width='0.1' stroke-dasharray='2, 2' tags='waist'/>
    <line x1="10.5" y1="89.0" x2="199.5" y2="89.0" stroke='red' stroke-width='0.1' stroke-dasharray='2, 2' tags='base'/>
    <line x1="10.5" y1="96.0" x2="199.5" y2="96.0" stroke='blue' stroke-width='0.2' tags='descender'/>
    <line x1="10.5" y1="103.0" x2="199.5" y2="103.0" stroke='grey' stroke-width='0.1' stroke-dasharray='2, 2' tags='waist'/>
    <line x1="10.5" y1="110.0" x2="199.5" y2="110.0" stroke='red' stroke-width='0.1' stroke-dasharray='2, 2' tags='base'/>
    <line x1="10.5" y1="117.0" x2="199.5" y2="117.0" stroke='blue' stroke-width='0.2' tags='descender'/>
    <line x1="10.5" y1="124.0" x2="199.5" y2="124.0" stroke='grey' stroke-width='0.1' stroke-dasharray='2, 2' tags='waist'/>
    <line x1="10.5" y1="131.0" x2="199.5" y2="131.0" stroke='red' stroke-width='0.1' stroke-dasharray='2, 2' tags='base'/>
    <line x1="10.5" y1="138.0" x2="199.5" y2="138.0" stroke='blue' stroke-width='0.2' tags='descender'/>
    <line x1="10.5" y1="145.0" x2="199.5" y2="145.0" stroke='grey' stroke-width='0.1' stroke-dasharray='2, 2' tags='waist'/>
    <line x1="10.5" y1="152.0" x2="199.5" y2="152.0" stroke='red' stroke-width='0.1' stroke-dasharray='2, 2' tags='base'/>
    <line x1="10.5" y1="159.0" x2="199.5" y2="159.0" stroke='blue' stroke-width='0.2' tags='descender'/>
    <line x1="10.5" y1="166.0" x2="199.5" y2="166.0" stroke='grey' stroke-width='0.1' stroke-dasharray='2, 2' tags='waist'/>
    <line x1="10.5" y1="173.0" x2="199.5" y2="173.0" stroke='red' stroke-width='0.1' stroke-dasharray='2, 2' tags='base'/>
    <line x1="10.5" y1="180.0" x2="199.5" y2="180.0" stroke='blue' stroke-width='0.2' tags='descender'/>
    <line x1="10.5" y1="187.0" x2="199.5" y2="187.0" stroke='grey' stroke-width='0.1' stroke-dasharray='2, 2' tags='waist'/>
    <line x1="10.5" y1="194.0" x2="199.5" y2="194.0" stroke='red' stroke-width='0.1' stroke-dasharray='2, 2' tags='base'/>
    <line x1="10.5" y1="201.0" x2="199.5" y2="201.0" stroke='blue' stroke-width='0.2' tags='descender'/>
    <line x1="10.5" y1="208.0" x2="199.5" y2="208.0" stroke='grey' stroke-width='0.1' stroke-dasharray='2, 2' tags='waist'/>
    <line x1="10.5" y1="215.0" x2="199.5" y2="215.0" stroke='red' stroke-width='0.1' stroke-dasharray='2, 2' tags='base'/>
    <line x1="10.5" y1="222.0" x2="199.5" y2="222.0" stroke='blue' stroke-width='0.2' tags='descender'/>
    <line x1="10.5" y1="229.0" x2="199.5" y2="229.0" stroke='grey' stroke-width='0.1' stroke-dasharray='2, 2' tags='waist'/>
    <line x1="10.5" y1="236.0" x2="199.5" y2="236.0" stroke='red' stroke-width='0.1' stroke-dasharray='2, 2' tags='base'/>
    <line x1="10.5" y1="243.0" x2="199.5" y2="243.0" stroke='blue' stroke-width='0.2' tags='descender'/>
    <line x1="10.5" y1="250.0" x2="199.5" y2="250.0" stroke='grey' stroke-width='0.1' stroke-dasharray='2, 2' tags='waist'/>
    <line x1="10.5" y1="257.0" x2="199.5" y2="257.0" stroke='red' stroke-width='0.1' stroke-dasharray='2, 2' tags='base'/>
    <line x1="10.5" y1="264.0" x2="199.5" y2="264.0" stroke='blue' stroke-width='0.2' tags='descender'/>
    <line x1="10.5" y1="271.0" x2="199.5" y2="271.0" stroke='grey' stroke-width='0.1' stroke-dasharray='2, 2' tags='waist'/>
    <line x1="10.5" y1="278.0" x2="199.5" y2="278.0" stroke='red' stroke-width='0.1' stroke-dasharray='2, 2' tags='base'/>
    <line x1="10.5" y1="285.0" x2="199.5" y2="285.0" stroke='blue' stroke-width='0.2' tags='descender'/>
    <line x1="10.5" y1="12.0" x2="10.5" y2="12.0" stroke='blue' stroke-width='0.05' tags='slant'/>
    <line x1="10.5" y1="24.65665" x2="17.80732" y2="12.0" stroke='blue' stroke-width='0.05' tags='slant'/>
    <line x1="10.5" y1="37.3133" x2="25.11464" y2="12.0" stroke='blue' stroke-width='0.05' tags='slant'/>
    <line x1="10.5" y1="49.96995" x2="32.42196" y2="12.0" stroke='blue' stroke-width='0.05' tags='slant'/>
    <line x1="10.5" y1="62.6266" x2="39.72928" y2="12.0" stroke='blue' stroke-width='0.05' tags='slant'/>
    <line x1="10.5" y1="75.28325" x2="47.0366" y2="12.0" stroke='blue' stroke-width='0.05' tags='slant'/>
    <line x1="10.5" y1="87.9399" x2="54.34392" y2="12.0" stroke='blue' stroke-width='0.05' tags='slant'/>
    <line x1="10.5" y1="100.59655" x2="61.65124" y2="12.0" stroke='blue' stroke-width='0.05' tags='slant'/>
    <line x1="10.5" y1="113.2532" x2="68.95856" y2="12.0" stroke='blue' stroke-width='0.05' tags='slant'/>
    <line x1="10.5" y1="125.90985" x2="76.26588" y2="12.0" stroke='blue' stroke-width='0.05' tags='slant'/>
    <line x1="10.5" y1="138.5665" x2="83.5732" y2="12.0" stroke='blue' stroke-width='0.05' tags='slant'/>
    <line x1="10.5" y1="151.22315" x2="90.88052" y2="12.0" stroke='blue' stroke-width='0.05' tags='slant'/>
    <line x1="10.5" y1="163.87979" x2="98.18784" y2="12.0" stroke='blue' stroke-width='0.05' tags='slant'/>
    <line x1="10.5" y1="176.53644" x2="105.49516" y2="12.0" stroke='blue' stroke-width='0.05' tags='slant'/>
    <line x1="10.5" y1="189.19309" x2="112.80248" y2="12.0" stroke='blue' stroke-width='0.05' tags='slant'/>
    <line x1="10.5" y1="201.84974" x2="120.1098" y2="12.0" stroke='blue' stroke-width='0.05' tags='slant'/>
    <line x1="10.5" y1="214.50639" x2="127.41712" y2="12.0" stroke='blue' stroke-width='0.05' tags='slant'/>
    <line x1="10.5" y1="227.16304" x2="134.72444" y2="12.0" stroke='blue' stroke-width='0.05' tags='slant'/>
    <line x1="10.5" y1="239.81969" x2="142.03176" y2="12.0" stroke='blue' stroke-width='0.05' tags='slant'/>
    <line x1="10.5" y1="252.47634" x2="149.33908" y2="12.0" stroke='blue' stroke-width='0.05' tags='slant'/>
    <line x1="10.5" y1="265.13299" x2="156.6464" y2="12.0" stroke='blue' stroke-width='0.05' tags='slant'/>
    <line x1="10.5" y1="277.78964" x2="163.95372" y2="12.0" stroke='blue' stroke-width='0.05' tags='slant'/>
    <line x1="13.64442" y1="285.0" x2="171.26104" y2="12.0" stroke='blue' stroke-width='0.05' tags='slant'/>
    <line x1="20.95174" y1="285.0" x2="178.56836" y2="12.0" stroke='blue' stroke-width='0.05' tags='slant'/>
    <line x1="28.25906" y1="285.0" x2="185.87568" y2="12.0" stroke='blue' stroke-width='0.05' tags='slant'/>
    <line x1="35.56638" y1="285.0" x2="193.183" y2="12.0" stroke='blue' stroke-width='0.05' tags='slant'/>
    <line x1="42.8737" y1="285.0" x2="199.5" y2="13.71529" stroke='blue' stroke-width='0.05' tags='slant'/>
    <line x1="50.18102" y1="285.0" x2="199.5" y2="26.37194" stroke='blue' stroke-width='0.05' tags='slant'/>
    <line x1="57.48834" y1="285.0" x2="199.5" y2="39.02859" stroke='blue' stroke-width='0.05' tags='slant'/>
    <line x1="64.79566" y1="285.0" x2="199.5" y2="51.68523" stroke='blue' stroke-width='0.05' tags='slant'/>
    <line x1="72.10298" y1="285.0" x2="199.5" y2="64.34188" stroke='blue' stroke-width='0.05' tags='slant'/>
    <line x1="79.4103" y1="285.0" x2="199.5" y2="76.99853" stroke='blue' stroke-width='0.05' tags='slant'/>
    <line x1="86.71762" y1="285.0" x2="199.5" y2="89.65518" stroke='blue' stroke-width='0.05' tags='slant'/>
    <line x1="94.02494" y1="285.0" x2="199.5" y2="102.31183" stroke='blue' stroke-width='0.05' tags='slant'/>
    <line x1="101.33226" y1="285.0" x2="199.5" y2="114.96848" stroke='blue' stroke-width='0.05' tags='slant'/>
    <line x1="108.63958" y1="285.0" x2="199.5" y2="127.62513" stroke='blue' stroke-width='0.05' tags='slant'/>
    <line x1="115.9469" y1="285.0" x2="199.5" y2="140.28178" stroke='blue' stroke-width='0.05' tags='slant'/>
    <line x1="123.25422" y1="285.0" x2="199.5" y2="152.93843" stroke='blue' stroke-width='0.05' tags='slant'/>
    <line x1="130.56154" y1="285.0" x2="199.5" y2="165.59508" stroke='blue' stroke-width='0.05' tags='slant'/>
    <line x1="137.86886" y1="285.0" x2="199.5" y2="178.25173" stroke='blue' stroke-width='0.05' tags='slant'/>
    <line x1="145.17618" y1="285.0" x2="199.5" y2="190.90838" stroke='blue' stroke-width='0.05' tags='slant'/>
    <line x1="152.4835" y1="285.0" x2="199.5" y2="203.56503" stroke='blue' stroke-width='0.05' tags='slant'/>
    <line x1="159.79082" y1="285.0" x2="199.5" y2="216.22168" stroke='blue' stroke-width='0.05' tags='slant'/>
    <line x1="167.09814" y1="285.0" x2="199.5" y2="228.87833" stroke='blue' stroke-width='0.05' tags='slant'/>
    <line x1="174.40546" y1="285.0" x2="199.5" y2="241.53498" stroke='blue' stroke-width='0.05' tags='slant'/>
    <line x1="181.71278" y1="285.0" x2="199.5" y2="254.19163" stroke='blue' stroke-width='0.05' tags='slant'/>
    <line x1="189.0201" y1="285.0" x2="199.5" y2="266.84828" stroke='blue' stroke-width='0.05' tags='slant'/>
    <line x1="196.32742" y1="285.0" x2="199.5" y2="279.50493" stroke='blue' stroke-width='0.05' tags='slant'/>
  </g>
</svg>
