<?xml version="1.0" standalone="no"?>
<!DOCTYPE svg PUBLIC "-//W3C//DTD SVG 1.1//EN" "http://www.w3.org/Graphics/SVG/1.1/DTD/svg11.dtd">
<svg xmlns="http://www.w3.org/2000/svg" width="297.0mm" height="210.0mm" viewBox="0 0 297.0 210.0" shape-rendering="geometricPrecision" >
  <style>
    svg       { stroke: #ed008c; stroke-width: 0.04; }
    .altcolor { stroke: blue; }
    .thin     { stroke-width: 0.02; }
    .thick    { stroke-width: 0.08; }
    .dashed   { stroke-dasharray: 2 2; }
  </style>
  <g id="sheet">
    <line x1="13.5" y1="15.0" x2="283.5" y2="15.0" class='ascender thick'/>
    <line x1="13.5" y1="20.0" x2="283.5" y2="20.0" class='waist altcolor'/>
    <line x1="13.5" y1="25.0" x2="283.5" y2="25.0" class='base'/>
    <line x1="13.5" y1="30.0" x2="283.5" y2="30.0" class='descender thick'/>
    <line x1="13.5" y1="35.0" x2="283.5" y2="35.0" class='waist altcolor'/>
    <line x1="13.5" y1="40.0" x2="283.5" y2="40.0" class='base'/>
    <line x1="13.5" y1="45.0" x2="283.5" y2="45.0" class='descender thick'/>
    <line x1="13.5" y1="50.0" x2="283.5" y2="50.0" class='waist altcolor'/>
    <line x1="13.5" y1="55.0" x2="283.5" y2="55.0" class='base'/>
    <line x1="13.5" y1="60.0" x2="283.5" y2="60.0" class='descender thick'/>
    <line x1="13.5" y1="65.0" x2="283.5" y2="65.0" class='waist altcolor'/>
    <line x1="13.5" y1="70.0" x2="283.5" y2="70.0" class='base'/>
    <line x1="13.5" y1="75.0" x2="283.5" y2="75.0" class='descender thick'/>
    <line x1="13.5" y1="80.0" x2="283.5" y2="80.0" class='waist altcolor'/>
    <line x1="13.5" y1="85.0" x2="283.5" y2="85.0" class='base'/>
    <line x1="13.5" y1="90.0" x2="283.5" y2="90.0" class='descender thick'/>
    <line x1="13.5" y1="95.0" x2="283.5" y2="95.0" class='waist altcolor'/>
    <line x1="13.5" y1="100.0" x2="283.5" y2="100.0" class='base'/>
    <line x1="13.5" y1="105.0" x2="283.5" y2="105.0" class='descender thick'/>
    <line x1="13.5" y1="110.0" x2="283.5" y2="110.0" class='waist altcolor'/>
    <line x1="13.5" y1="115.0" x2="283.5" y2="115.0" class='base'/>
    <line x1="13.5" y1="120.0" x2="283.5" y2="120.0" class='descender thick'/>
    <line x1="13.5" y1="125.0" x2="283.5" y2="125.0" class='waist altcolor'/>
    <line x1="13.5" y1="130.0" x2="283.5" y2="130.0" class='base'/>
    <line x1="13.5" y1="135.0" x2="283.5" y2="135.0" class='descender thick'/>
    <line x1="13.5" y1="140.0" x2="283.5" y2="140.0" class='waist altcolor'/>
    <line x1="13.5" y1="145.0" x2="283.5" y2="145.0" class='base'/>
    <line x1="13.5" y1="150.0" x2="283.5" y2="150.0" class='descender thick'/>
    <line x1="13.5" y1="155.0" x2="283.5" y2="155.0" class='waist altcolor'/>
    <line x1="13.5" y1="160.0" x2="283.5" y2="160.0" class='base'/>
    <line x1="13.5" y1="165.0" x2="283.5" y2="165.0" class='descender thick'/>
    <line x1="13.5" y1="170.0" x2="283.5" y2="170.0" class='waist altcolor'/>
    <line x1="13.5" y1="175.0" x2="283.5" y2="175.0" class='base'/>
    <line x1="13.5" y1="180.0" x2="283.5" y2="180.0" class='descender thick'/>
    <line x1="13.5" y1="185.0" x2="283.5" y2="185.0" class='waist altcolor'/>
    <line x1="13.5" y1="190.0" x2="283.5" y2="190.0" class='base'/>
    <line x1="13.5" y1="195.0" x2="283.5" y2="195.0" class='descender thick'/>
    <line x1="13.5" y1="15.0" x2="13.5" y2="15.0" class='slant thin'/>
    <line x1="13.5" y1="24.97927" x2="19.26153" y2="15.0" class='slant thin'/>
    <line x1="13.5" y1="34.95854" x2="25.02307" y2="15.0" class='slant thin'/>
    <line x1="13.5" y1="44.9378" x2="30.7846" y2="15.0" class='slant thin'/>
    <line x1="13.5" y1="54.91707" x2="36.54613" y2="15.0" class='slant thin'/>
    <line x1="13.5" y1="64.89634" x2="42.30767" y2="15.0" class='slant thin'/>
    <line x1="13.5" y1="74.87561" x2="48.0692" y2="15.0" class='slant thin'/>
    <line x1="13.5" y1="84.85488" x2="53.83073" y2="15.0" class='slant thin'/>
    <line x1="13.5" y1="94.83414" x2="59.59226" y2="15.0" class='slant thin'/>
    <line x1="13.5" y1="104.81341" x2="65.3538" y2="15.0" class='slant thin'/>
    <line x1="13.5" y1="114.79268" x2="71.11533" y2="15.0" class='slant thin'/>
    <line x1="13.5" y1="124.77195" x2="76.87686" y2="15.0" class='slant thin'/>
    <line x1="13.5" y1="134.75121" x2="82.6384" y2="15.0" class='slant thin'/>
    <line x1="13.5" y1="144.73048" x2="88.39993" y2="15.0" class='slant thin'/>
    <line x1="13.5" y1="154.70975" x2="94.16146" y2="15.0" class='slant thin'/>
    <line x1="13.5" y1="164.68902" x2="99.923" y2="15.0" class='slant thin'/>
    <line x1="13.5" y1="174.66829" x2="105.68453" y2="15.0" class='slant thin'/>
    <line x1="13.5" y1="184.64755" x2="111.44606" y2="15.0" class='slant thin'/>
    <line x1="13.5" y1="194.62682" x2="117.20759" y2="15.0" class='slant thin'/>
    <line x1="19.04608" y1="195.0" x2="122.96913" y2="15.0" class='slant thin'/>
    <line x1="24.80761" y1="195.0" x2="128.73066" y2="15.0" class='slant thin'/>
    <line x1="30.56914" y1="195.0" x2="134.49219" y2="15.0" class='slant thin'/>
    <line x1="36.33068" y1="195.0" x2="140.25373" y2="15.0" class='slant thin'/>
    <line x1="42.09221" y1="195.0" x2="146.01526" y2="15.0" class='slant thin'/>
    <line x1="47.85374" y1="195.0" x2="151.77679" y2="15.0" class='slant thin'/>
    <line x1="53.61528" y1="195.0" x2="157.53833" y2="15.0" class='slant thin'/>
    <line x1="59.37681" y1="195.0" x2="163.29986" y2="15.0" class='slant thin'/>
    <line x1="65.13834" y1="195.0" x2="169.06139" y2="15.0" class='slant thin'/>
    <line x1="70.89988" y1="195.0" x2="174.82292" y2="15.0" class='slant thin'/>
    <line x1="76.66141" y1="195.0" x2="180.58446" y2="15.0" class='slant thin'/>
    <line x1="82.42294" y1="195.0" x2="186.34599" y2="15.0" class='slant thin'/>
    <line x1="88.18447" y1="195.0" x2="192.10752" y2="15.0" class='slant thin'/>
    <line x1="93.94601" y1="195.0" x2="197.86906" y2="15.0" class='slant thin'/>
    <line x1="99.70754" y1="195.0" x2="203.63059" y2="15.0" class='slant thin'/>
    <line x1="105.46907" y1="195.0" x2="209.39212" y2="15.0" class='slant thin'/>
    <line x1="111.23061" y1="195.0" x2="215.15366" y2="15.0" class='slant thin'/>
    <line x1="116.99214" y1="195.0" x2="220.91519" y2="15.0" class='slant thin'/>
    <line x1="122.75367" y1="195.0" x2="226.67672" y2="15.0" class='slant thin'/>
    <line x1="128.51521" y1="195.0" x2="232.43825" y2="15.0" class='slant thin'/>
    <line x1="134.27674" y1="195.0" x2="238.19979" y2="15.0" class='slant thin'/>
    <line x1="140.03827" y1="195.0" x2="243.96132" y2="15.0" class='slant thin'/>
    <line x1="145.7998" y1="195.0" x2="249.72285" y2="15.0" class='slant thin'/>
    <line x1="151.56134" y1="195.0" x2="255.48439" y2="15.0" class='slant thin'/>
    <line x1="157.32287" y1="195.0" x2="261.24592" y2="15.0" class='slant thin'/>
    <line x1="163.0844" y1="195.0" x2="267.00745" y2="15.0" class='slant thin'/>
    <line x1="168.84594" y1="195.0" x2="272.76899" y2="15.0" class='slant thin'/>
    <line x1="174.60747" y1="195.0" x2="278.53052" y2="15.0" class='slant thin'/>
    <line x1="180.369" y1="195.0" x2="283.5" y2="16.37187" class='slant thin'/>
    <line x1="186.13054" y1="195.0" x2="283.5" y2="26.35114" class='slant thin'/>
    <line x1="191.89207" y1="195.0" x2="283.5" y2="36.33041" class='slant thin'/>
    <line x1="197.6536" y1="195.0" x2="283.5" y2="46.30968" class='slant thin'/>
    <line x1="203.41514" y1="195.0" x2="283.5" y2="56.28894" class='slant thin'/>
    <line x1="209.17667" y1="195.0" x2="283.5" y2="66.26821" class='slant thin'/>
    <line x1="214.9382" y1="195.0" x2="283.5" y2="76.24748" class='slant thin'/>
    <line x1="220.69973" y1="195.0" x2="283.5" y2="86.22675" class='slant thin'/>
    <line x1="226.46127" y1="195.0" x2="283.5" y2="96.20602" class='slant thin'/>
    <line x1="232.2228" y1="195.0" x2="283.5" y2="106.18528" class='slant thin'/>
    <line x1="237.98433" y1="195.0" x2="283.5" y2="116.16455" class='slant thin'/>
    <line x1="243.74587" y1="195.0" x2="283.5" y2="126.14382" class='slant thin'/>
    <line x1="249.5074" y1="195.0" x2="283.5" y2="136.12309" class='slant thin'/>
    <line x1="255.26893" y1="195.0" x2="283.5" y2="146.10236" class='slant thin'/>
    <line x1="261.03047" y1="195.0" x2="283.5" y2="156.08162" class='slant thin'/>
    <line x1="266.792" y1="195.0" x2="283.5" y2="166.06089" class='slant thin'/>
    <line x1="272.55353" y1="195.0" x2="283.5" y2="176.04016" class='slant thin'/>
    <line x1="278.31506" y1="195.0" x2="283.5" y2="186.01943" class='slant thin'/>
  </g>
</svg>
