<?xml version="1.0" standalone="no"?>
<!DOCTYPE svg PUBLIC "-//W3C//DTD SVG 1.1//EN" "http://www.w3.org/Graphics/SVG/1.1/DTD/svg11.dtd">
<svg xmlns="http://www.w3.org/2000/svg" width="210.0mm" height="297.0mm" viewBox="0 0 210.0 297.0" >

  <g id="sheet">
    <line x1="21.0" y1="22.5" x2="189.0" y2="22.5" stroke='blue' stroke-width='0.2' tags='ascender'/>
    <line x1="21.0" y1="29.5" x2="189.0" y2="29.5" stroke='grey' stroke-width='0.1' stroke-dasharray='2, 2' tags='waist'/>
    <line x1="21.0" y1="36.5" x2="189.0" y2="36.5" stroke='red' stroke-width='0.1' stroke-dasharray='2, 2' tags='base'/>
    <line x1="21.0" y1="43.5" x2="189.0" y2="43.5" stroke='blue' stroke-width='0.2' tags='descender'/>
    <line x1="21.0" y1="50.5" x2="189.0" y2="50.5" stroke='grey' stroke-width='0.1' stroke-dasharray='2, 2' tags='waist'/>
    <line x1="21.0" y1="57.5" x2="189.0" y2="57.5" stroke='red' stroke-width='0.1' stroke-dasharray='2, 2' tags='base'/>
    <line x1="21.0" y1="64.5" x2="189.0" y2="64.5" stroke='blue' stroke-width='0.2' tags='descender'/>
    <line x1="21.0" y1="71.5" x2="189.0" y2="71.5" stroke='grey' stroke-width='0.1' stroke-dasharray='2, 2' tags='waist'/>
    <line x1="21.0" y1="78.5" x2="189.0" y2="78.5" stroke='red' stroke-width='0.1' stroke-dasharray='2, 2' tags='base'/>
    <line x1="21.0" y1="85.5" x2="189.0" y2="85.5" stroke='blue' stroke-width='0.2' tags='descender'/>
    <line x1="21.0" y1="92.5" x2="189.0" y2="92.5" stroke='grey' stroke-width='0.1' stroke-dasharray='2, 2' tags='waist'/>
    <line x1="21.0" y1="99.5" x2="189.0" y2="99.5" stroke='red' stroke-width='0.1' stroke-dasharray='2, 2' tags='base'/>
    <line x1="21.0" y1="106.5" x2="189.0" y2="106.5" stroke='blue' stroke-width='0.2' tags='descender'/>
    <line x1="21.0" y1="113.5" x2="189.0" y2="113.5" stroke='grey' stroke-width='0.1' stroke-dasharray='2, 2' tags='waist'/>
    <line x1="21.0" y1="120.5" x2="189.0" y2="120.5" stroke='red' stroke-width='0.1' stroke-dasharray='2, 2' tags='base'/>
    <line x1="21.0" y1="127.5" x2="189.0" y2="127.5" stroke='blue' stroke-width='0.2' tags='descender'/>
    <line x1="21.0" y1="134.5" x2="189.0" y2="134.5" stroke='grey' stroke-width='0.1' stroke-dasharray='2, 2' tags='waist'/>
    <line x1="21.0" y1="141.5" x2="189.0" y2="141.5" stroke='red' stroke-width='0.1' stroke-dasharray='2, 2' tags='base'/>
    <line x1="21.0" y1="148.5" x2="189.0" y2="148.5" stroke='blue' stroke-width='0.2' tags='descender'/>
    <line x1="21.0" y1="155.5" x2="189.0" y2="155.5" stroke='grey' stroke-width='0.1' stroke-dasharray='2, 2' tags='waist'/>
    <line x1="21.0" y1="162.5" x2="189.0" y2="162.5" stroke='red' stroke-width='0.1' stroke-dasharray='2, 2' tags='base'/>
    <line x1="21.0" y1="169.5" x2="189.0" y2="169.5" stroke='blue' stroke-width='0.2' tags='descender'/>
    <line x1="21.0" y1="176.5" x2="189.0" y2="176.5" stroke='grey' stroke-width='0.1' stroke-dasharray='2, 2' tags='waist'/>
    <line x1="21.0" y1="183.5" x2="189.0" y2="183.5" stroke='red' stroke-width='0.1' stroke-dasharray='2, 2' tags='base'/>
    <line x1="21.0" y1="190.5" x2="189.0" y2="190.5" stroke='blue' stroke-width='0.2' tags='descender'/>
    <line x1="21.0" y1="197.5" x2="189.0" y2="197.5" stroke='grey' stroke-width='0.1' stroke-dasharray='2, 2' tags='waist'/>
    <line x1="21.0" y1="204.5" x2="189.0" y2="204.5" stroke='red' stroke-width='0.1' stroke-dasharray='2, 2' tags='base'/>
    <line x1="21.0" y1="211.5" x2="189.0" y2="211.5" stroke='blue' stroke-width='0.2' tags='descender'/>
    <line x1="21.0" y1="218.5" x2="189.0" y2="218.5" stroke='grey' stroke-width='0.1' stroke-dasharray='2, 2' tags='waist'/>
    <line x1="21.0" y1="225.5" x2="189.0" y2="225.5" stroke='red' stroke-width='0.1' stroke-dasharray='2, 2' tags='base'/>
    <line x1="21.0" y1="232.5" x2="189.0" y2="232.5" stroke='blue' stroke-width='0.2' tags='descender'/>
    <line x1="21.0" y1="239.5" x2="189.0" y2="239.5" stroke='grey' stroke-width='0.1' stroke-dasharray='2, 2' tags='waist'/>
    <line x1="21.0" y1="246.5" x2="189.0" y2="246.5" stroke='red' stroke-width='0.1' stroke-dasharray='2, 2' tags='base'/>
    <line x1="21.0" y1="253.5" x2="189.0" y2="253.5" stroke='blue' stroke-width='0.2' tags='descender'/>
    <line x1="21.0" y1="260.5" x2="189.0" y2="260.5" stroke='grey' stroke-width='0.1' stroke-dasharray='2, 2' tags='waist'/>
    <line x1="21.0" y1="267.5" x2="189.0" y2="267.5" stroke='red' stroke-width='0.1' stroke-dasharray='2, 2' tags='base'/>
    <line x1="21.0" y1="274.5" x2="189.0" y2="274.5" stroke='blue' stroke-width='0.2' tags='descender'/>
    <line x1="21.0" y1="22.5" x2="21.0" y2="22.5" stroke='blue' stroke-width='0.05' tags='slant'/>
    <line x1="21.0" y1="35.04973" x2="28.24559" y2="22.5" stroke='blue' stroke-width='0.05' tags='slant'/>
    <line x1="21.0" y1="47.59947" x2="35.49119" y2="22.5" stroke='blue' stroke-width='0.05' tags='slant'/>
    <line x1="21.0" y1="60.1492" x2="42.73678" y2="22.5" stroke='blue' stroke-width='0.05' tags='slant'/>
    <line x1="21.0" y1="72.69894" x2="49.98237" y2="22.5" stroke='blue' stroke-width='0.05' tags='slant'/>
    <line x1="21.0" y1="85.24867" x2="57.22796" y2="22.5" stroke='blue' stroke-width='0.05' tags='slant'/>
    <line x1="21.0" y1="97.79841" x2="64.47356" y2="22.5" stroke='blue' stroke-width='0.05' tags='slant'/>
    <line x1="21.0" y1="110.34814" x2="71.71915" y2="22.5" stroke='blue' stroke-width='0.05' tags='slant'/>
    <line x1="21.0" y1="122.89788" x2="78.96474" y2="22.5" stroke='blue' stroke-width='0.05' tags='slant'/>
    <line x1="21.0" y1="135.44761" x2="86.21033" y2="22.5" stroke='blue' stroke-width='0.05' tags='slant'/>
    <line x1="21.0" y1="147.99735" x2="93.45593" y2="22.5" stroke='blue' stroke-width='0.05' tags='slant'/>
    <line x1="21.0" y1="160.54708" x2="100.70152" y2="22.5" stroke='blue' stroke-width='0.05' tags='slant'/>
    <line x1="21.0" y1="173.09681" x2="107.94711" y2="22.5" stroke='blue' stroke-width='0.05' tags='slant'/>
    <line x1="21.0" y1="185.64655" x2="115.1927" y2="22.5" stroke='blue' stroke-width='0.05' tags='slant'/>
    <line x1="21.0" y1="198.19628" x2="122.4383" y2="22.5" stroke='blue' stroke-width='0.05' tags='slant'/>
    <line x1="21.0" y1="210.74602" x2="129.68389" y2="22.5" stroke='blue' stroke-width='0.05' tags='slant'/>
    <line x1="21.0" y1="223.29575" x2="136.92948" y2="22.5" stroke='blue' stroke-width='0.05' tags='slant'/>
    <line x1="21.0" y1="235.84549" x2="144.17507" y2="22.5" stroke='blue' stroke-width='0.05' tags='slant'/>
    <line x1="21.0" y1="248.39522" x2="151.42067" y2="22.5" stroke='blue' stroke-width='0.05' tags='slant'/>
    <line x1="21.0" y1="260.94496" x2="158.66626" y2="22.5" stroke='blue' stroke-width='0.05' tags='slant'/>
    <line x1="21.0" y1="273.49469" x2="165.91185" y2="22.5" stroke='blue' stroke-width='0.05' tags='slant'/>
    <line x1="27.66518" y1="274.5" x2="173.15744" y2="22.5" stroke='blue' stroke-width='0.05' tags='slant'/>
    <line x1="34.91077" y1="274.5" x2="180.40304" y2="22.5" stroke='blue' stroke-width='0.05' tags='slant'/>
    <line x1="42.15636" y1="274.5" x2="187.64863" y2="22.5" stroke='blue' stroke-width='0.05' tags='slant'/>
    <line x1="49.40195" y1="274.5" x2="189.0" y2="32.70909" stroke='blue' stroke-width='0.05' tags='slant'/>
    <line x1="56.64755" y1="274.5" x2="189.0" y2="45.25883" stroke='blue' stroke-width='0.05' tags='slant'/>
    <line x1="63.89314" y1="274.5" x2="189.0" y2="57.80856" stroke='blue' stroke-width='0.05' tags='slant'/>
    <line x1="71.13873" y1="274.5" x2="189.0" y2="70.3583" stroke='blue' stroke-width='0.05' tags='slant'/>
    <line x1="78.38433" y1="274.5" x2="189.0" y2="82.90803" stroke='blue' stroke-width='0.05' tags='slant'/>
    <line x1="85.62992" y1="274.5" x2="189.0" y2="95.45777" stroke='blue' stroke-width='0.05' tags='slant'/>
    <line x1="92.87551" y1="274.5" x2="189.0" y2="108.0075" stroke='blue' stroke-width='0.05' tags='slant'/>
    <line x1="100.1211" y1="274.5" x2="189.0" y2="120.55723" stroke='blue' stroke-width='0.05' tags='slant'/>
    <line x1="107.3667" y1="274.5" x2="189.0" y2="133.10697" stroke='blue' stroke-width='0.05' tags='slant'/>
    <line x1="114.61229" y1="274.5" x2="189.0" y2="145.6567" stroke='blue' stroke-width='0.05' tags='slant'/>
    <line x1="121.85788" y1="274.5" x2="189.0" y2="158.20644" stroke='blue' stroke-width='0.05' tags='slant'/>
    <line x1="129.10347" y1="274.5" x2="189.0" y2="170.75617" stroke='blue' stroke-width='0.05' tags='slant'/>
    <line x1="136.34907" y1="274.5" x2="189.0" y2="183.30591" stroke='blue' stroke-width='0.05' tags='slant'/>
    <line x1="143.59466" y1="274.5" x2="189.0" y2="195.85564" stroke='blue' stroke-width='0.05' tags='slant'/>
    <line x1="150.84025" y1="274.5" x2="189.0" y2="208.40538" stroke='blue' stroke-width='0.05' tags='slant'/>
    <line x1="158.08584" y1="274.5" x2="189.0" y2="220.95511" stroke='blue' stroke-width='0.05' tags='slant'/>
    <line x1="165.33144" y1="274.5" x2="189.0" y2="233.50485" stroke='blue' stroke-width='0.05' tags='slant'/>
    <line x1="172.57703" y1="274.5" x2="189.0" y2="246.05458" stroke='blue' stroke-width='0.05' tags='slant'/>
    <line x1="179.82262" y1="274.5" x2="189.0" y2="258.60431" stroke='blue' stroke-width='0.05' tags='slant'/>
    <line x1="187.06821" y1="274.5" x2="189.0" y2="271.15405" stroke='blue' stroke-width='0.05' tags='slant'/>
  </g>
</svg>
