<?xml version="1.0" standalone="no"?>
<!DOCTYPE svg PUBLIC "-//W3C//DTD SVG 1.1//EN" "http://www.w3.org/Graphics/SVG/1.1/DTD/svg11.dtd">
<svg xmlns="http://www.w3.org/2000/svg" width="210.0mm" height="297.0mm" viewBox="0 0 210.0 297.0" >

  <g id="sheet">
    <line x1="15.0" y1="13.5" x2="195.0" y2="13.5" stroke='blue' stroke-width='0.2' tags='ascender'/>
    <line x1="15.0" y1="23.5" x2="195.0" y2="23.5" stroke='grey' stroke-width='0.1' stroke-dasharray='2, 2' tags='waist'/>
    <line x1="15.0" y1="33.5" x2="195.0" y2="33.5" stroke='red' stroke-width='0.1' stroke-dasharray='2, 2' tags='base'/>
    <line x1="15.0" y1="43.5" x2="195.0" y2="43.5" stroke='blue' stroke-width='0.2' tags='descender'/>
    <line x1="15.0" y1="53.5" x2="195.0" y2="53.5" stroke='grey' stroke-width='0.1' stroke-dasharray='2, 2' tags='waist'/>
    <line x1="15.0" y1="63.5" x2="195.0" y2="63.5" stroke='red' stroke-width='0.1' stroke-dasharray='2, 2' tags='base'/>
    <line x1="15.0" y1="73.5" x2="195.0" y2="73.5" stroke='blue' stroke-width='0.2' tags='descender'/>
    <line x1="15.0" y1="83.5" x2="195.0" y2="83.5" stroke='grey' stroke-width='0.1' stroke-dasharray='2, 2' tags='waist'/>
    <line x1="15.0" y1="93.5" x2="195.0" y2="93.5" stroke='red' stroke-width='0.1' stroke-dasharray='2, 2' tags='base'/>
    <line x1="15.0" y1="103.5" x2="195.0" y2="103.5" stroke='blue' stroke-width='0.2' tags='descender'/>
    <line x1="15.0" y1="113.5" x2="195.0" y2="113.5" stroke='grey' stroke-width='0.1' stroke-dasharray='2, 2' tags='waist'/>
    <line x1="15.0" y1="123.5" x2="195.0" y2="123.5" stroke='red' stroke-width='0.1' stroke-dasharray='2, 2' tags='base'/>
    <line x1="15.0" y1="133.5" x2="195.0" y2="133.5" stroke='blue' stroke-width='0.2' tags='descender'/>
    <line x1="15.0" y1="143.5" x2="195.0" y2="143.5" stroke='grey' stroke-width='0.1' stroke-dasharray='2, 2' tags='waist'/>
    <line x1="15.0" y1="153.5" x2="195.0" y2="153.5" stroke='red' stroke-width='0.1' stroke-dasharray='2, 2' tags='base'/>
    <line x1="15.0" y1="163.5" x2="195.0" y2="163.5" stroke='blue' stroke-width='0.2' tags='descender'/>
    <line x1="15.0" y1="173.5" x2="195.0" y2="173.5" stroke='grey' stroke-width='0.1' stroke-dasharray='2, 2' tags='waist'/>
    <line x1="15.0" y1="183.5" x2="195.0" y2="183.5" stroke='red' stroke-width='0.1' stroke-dasharray='2, 2' tags='base'/>
    <line x1="15.0" y1="193.5" x2="195.0" y2="193.5" stroke='blue' stroke-width='0.2' tags='descender'/>
    <line x1="15.0" y1="203.5" x2="195.0" y2="203.5" stroke='grey' stroke-width='0.1' stroke-dasharray='2, 2' tags='waist'/>
    <line x1="15.0" y1="213.5" x2="195.0" y2="213.5" stroke='red' stroke-width='0.1' stroke-dasharray='2, 2' tags='base'/>
    <line x1="15.0" y1="223.5" x2="195.0" y2="223.5" stroke='blue' stroke-width='0.2' tags='descender'/>
    <line x1="15.0" y1="233.5" x2="195.0" y2="233.5" stroke='grey' stroke-width='0.1' stroke-dasharray='2, 2' tags='waist'/>
    <line x1="15.0" y1="243.5" x2="195.0" y2="243.5" stroke='red' stroke-width='0.1' stroke-dasharray='2, 2' tags='base'/>
    <line x1="15.0" y1="253.5" x2="195.0" y2="253.5" stroke='blue' stroke-width='0.2' tags='descender'/>
    <line x1="15.0" y1="263.5" x2="195.0" y2="263.5" stroke='grey' stroke-width='0.1' stroke-dasharray='2, 2' tags='waist'/>
    <line x1="15.0" y1="273.5" x2="195.0" y2="273.5" stroke='red' stroke-width='0.1' stroke-dasharray='2, 2' tags='base'/>
    <line x1="15.0" y1="283.5" x2="195.0" y2="283.5" stroke='blue' stroke-width='0.2' tags='descender'/>
    <line x1="15.0" y1="13.5" x2="15.0" y2="13.5" stroke='blue' stroke-width='0.05' tags='slant'/>
    <line x1="15.0" y1="31.42819" x2="25.35085" y2="13.5" stroke='blue' stroke-width='0.05' tags='slant'/>
    <line x1="15.0" y1="49.35638" x2="35.70169" y2="13.5" stroke='blue' stroke-width='0.05' tags='slant'/>
    <line x1="15.0" y1="67.28458" x2="46.05254" y2="13.5" stroke='blue' stroke-width='0.05' tags='slant'/>
    <line x1="15.0" y1="85.21277" x2="56.40339" y2="13.5" stroke='blue' stroke-width='0.05' tags='slant'/>
    <line x1="15.0" y1="103.14096" x2="66.75423" y2="13.5" stroke='blue' stroke-width='0.05' tags='slant'/>
    <line x1="15.0" y1="121.06915" x2="77.10508" y2="13.5" stroke='blue' stroke-width='0.05' tags='slant'/>
    <line x1="15.0" y1="138.99735" x2="87.45593" y2="13.5" stroke='blue' stroke-width='0.05' tags='slant'/>
    <line x1="15.0" y1="156.92554" x2="97.80677" y2="13.5" stroke='blue' stroke-width='0.05' tags='slant'/>
    <line x1="15.0" y1="174.85373" x2="108.15762" y2="13.5" stroke='blue' stroke-width='0.05' tags='slant'/>
    <line x1="15.0" y1="192.78192" x2="118.50847" y2="13.5" stroke='blue' stroke-width='0.05' tags='slant'/>
    <line x1="15.0" y1="210.71011" x2="128.85931" y2="13.5" stroke='blue' stroke-width='0.05' tags='slant'/>
    <line x1="15.0" y1="228.63831" x2="139.21016" y2="13.5" stroke='blue' stroke-width='0.05' tags='slant'/>
    <line x1="15.0" y1="246.5665" x2="149.56101" y2="13.5" stroke='blue' stroke-width='0.05' tags='slant'/>
    <line x1="15.0" y1="264.49469" x2="159.91185" y2="13.5" stroke='blue' stroke-width='0.05' tags='slant'/>
    <line x1="15.0" y1="282.42288" x2="170.2627" y2="13.5" stroke='blue' stroke-width='0.05' tags='slant'/>
    <line x1="24.72897" y1="283.5" x2="180.61355" y2="13.5" stroke='blue' stroke-width='0.05' tags='slant'/>
    <line x1="35.07982" y1="283.5" x2="190.96439" y2="13.5" stroke='blue' stroke-width='0.05' tags='slant'/>
    <line x1="45.43067" y1="283.5" x2="195.0" y2="24.43831" stroke='blue' stroke-width='0.05' tags='slant'/>
    <line x1="55.78151" y1="283.5" x2="195.0" y2="42.36651" stroke='blue' stroke-width='0.05' tags='slant'/>
    <line x1="66.13236" y1="283.5" x2="195.0" y2="60.2947" stroke='blue' stroke-width='0.05' tags='slant'/>
    <line x1="76.48321" y1="283.5" x2="195.0" y2="78.22289" stroke='blue' stroke-width='0.05' tags='slant'/>
    <line x1="86.83405" y1="283.5" x2="195.0" y2="96.15108" stroke='blue' stroke-width='0.05' tags='slant'/>
    <line x1="97.1849" y1="283.5" x2="195.0" y2="114.07927" stroke='blue' stroke-width='0.05' tags='slant'/>
    <line x1="107.53575" y1="283.5" x2="195.0" y2="132.00747" stroke='blue' stroke-width='0.05' tags='slant'/>
    <line x1="117.88659" y1="283.5" x2="195.0" y2="149.93566" stroke='blue' stroke-width='0.05' tags='slant'/>
    <line x1="128.23744" y1="283.5" x2="195.0" y2="167.86385" stroke='blue' stroke-width='0.05' tags='slant'/>
    <line x1="138.58828" y1="283.5" x2="195.0" y2="185.79204" stroke='blue' stroke-width='0.05' tags='slant'/>
    <line x1="148.93913" y1="283.5" x2="195.0" y2="203.72024" stroke='blue' stroke-width='0.05' tags='slant'/>
    <line x1="159.28998" y1="283.5" x2="195.0" y2="221.64843" stroke='blue' stroke-width='0.05' tags='slant'/>
    <line x1="169.64082" y1="283.5" x2="195.0" y2="239.57662" stroke='blue' stroke-width='0.05' tags='slant'/>
    <line x1="179.99167" y1="283.5" x2="195.0" y2="257.50481" stroke='blue' stroke-width='0.05' tags='slant'/>
    <line x1="190.34252" y1="283.5" x2="195.0" y2="275.433" stroke='blue' stroke-width='0.05' tags='slant'/>
  </g>
</svg>
