<?xml version="1.0" standalone="no"?>
<!DOCTYPE svg PUBLIC "-//W3C//DTD SVG 1.1//EN" "http://www.w3.org/Graphics/SVG/1.1/DTD/svg11.dtd">
<svg xmlns="http://www.w3.org/2000/svg" width="297.0mm" height="210.0mm" viewBox="0 0 297.0 210.0" shape-rendering="geometricPrecision" >
  <style>
    svg         { stroke:            #ed008c; }
    svg         { stroke-width:         0.04; }
    .altcolor   { stroke:               blue; }
    .extrafine  { stroke-width:         0.01; }
    .fine       { stroke-width:         0.02; }
    .medium     { stroke-width:         0.04; }
    .broad      { stroke-width:         0.08; }
    .extrabroad { stroke-width:         0.16; }
    .dashed     { stroke-dasharray:      2 2; }
  </style>
  <g id="sheet">
    <line x1="12.0" y1="10.5" x2="285.0" y2="10.5" class='ascender broad'/>
    <line x1="12.0" y1="17.5" x2="285.0" y2="17.5" class='waist altcolor'/>
    <line x1="12.0" y1="24.5" x2="285.0" y2="24.5" class='base'/>
    <line x1="12.0" y1="31.5" x2="285.0" y2="31.5" class='descender broad'/>
    <line x1="12.0" y1="38.5" x2="285.0" y2="38.5" class='waist altcolor'/>
    <line x1="12.0" y1="45.5" x2="285.0" y2="45.5" class='base'/>
    <line x1="12.0" y1="52.5" x2="285.0" y2="52.5" class='descender broad'/>
    <line x1="12.0" y1="59.5" x2="285.0" y2="59.5" class='waist altcolor'/>
    <line x1="12.0" y1="66.5" x2="285.0" y2="66.5" class='base'/>
    <line x1="12.0" y1="73.5" x2="285.0" y2="73.5" class='descender broad'/>
    <line x1="12.0" y1="80.5" x2="285.0" y2="80.5" class='waist altcolor'/>
    <line x1="12.0" y1="87.5" x2="285.0" y2="87.5" class='base'/>
    <line x1="12.0" y1="94.5" x2="285.0" y2="94.5" class='descender broad'/>
    <line x1="12.0" y1="101.5" x2="285.0" y2="101.5" class='waist altcolor'/>
    <line x1="12.0" y1="108.5" x2="285.0" y2="108.5" class='base'/>
    <line x1="12.0" y1="115.5" x2="285.0" y2="115.5" class='descender broad'/>
    <line x1="12.0" y1="122.5" x2="285.0" y2="122.5" class='waist altcolor'/>
    <line x1="12.0" y1="129.5" x2="285.0" y2="129.5" class='base'/>
    <line x1="12.0" y1="136.5" x2="285.0" y2="136.5" class='descender broad'/>
    <line x1="12.0" y1="143.5" x2="285.0" y2="143.5" class='waist altcolor'/>
    <line x1="12.0" y1="150.5" x2="285.0" y2="150.5" class='base'/>
    <line x1="12.0" y1="157.5" x2="285.0" y2="157.5" class='descender broad'/>
    <line x1="12.0" y1="164.5" x2="285.0" y2="164.5" class='waist altcolor'/>
    <line x1="12.0" y1="171.5" x2="285.0" y2="171.5" class='base'/>
    <line x1="12.0" y1="178.5" x2="285.0" y2="178.5" class='descender broad'/>
    <line x1="12.0" y1="185.5" x2="285.0" y2="185.5" class='waist altcolor'/>
    <line x1="12.0" y1="192.5" x2="285.0" y2="192.5" class='base'/>
    <line x1="12.0" y1="199.5" x2="285.0" y2="199.5" class='descender broad'/>
    <line x1="12.0" y1="10.5" x2="12.0" y2="10.5" class='slant fine'/>
    <line x1="12.0" y1="24.45302" x2="20.05578" y2="10.5" class='slant fine'/>
    <line x1="12.0" y1="38.40604" x2="28.11156" y2="10.5" class='slant fine'/>
    <line x1="12.0" y1="52.35906" x2="36.16734" y2="10.5" class='slant fine'/>
    <line x1="12.0" y1="66.31208" x2="44.22312" y2="10.5" class='slant fine'/>
    <line x1="12.0" y1="80.2651" x2="52.2789" y2="10.5" class='slant fine'/>
    <line x1="12.0" y1="94.21812" x2="60.33468" y2="10.5" class='slant fine'/>
    <line x1="12.0" y1="108.17114" x2="68.39046" y2="10.5" class='slant fine'/>
    <line x1="12.0" y1="122.12416" x2="76.44624" y2="10.5" class='slant fine'/>
    <line x1="12.0" y1="136.07718" x2="84.50202" y2="10.5" class='slant fine'/>
    <line x1="12.0" y1="150.0302" x2="92.5578" y2="10.5" class='slant fine'/>
    <line x1="12.0" y1="163.98322" x2="100.61358" y2="10.5" class='slant fine'/>
    <line x1="12.0" y1="177.93624" x2="108.66936" y2="10.5" class='slant fine'/>
    <line x1="12.0" y1="191.88927" x2="116.72514" y2="10.5" class='slant fine'/>
    <line x1="15.66172" y1="199.5" x2="124.78092" y2="10.5" class='slant fine'/>
    <line x1="23.7175" y1="199.5" x2="132.8367" y2="10.5" class='slant fine'/>
    <line x1="31.77328" y1="199.5" x2="140.89248" y2="10.5" class='slant fine'/>
    <line x1="39.82906" y1="199.5" x2="148.94826" y2="10.5" class='slant fine'/>
    <line x1="47.88484" y1="199.5" x2="157.00404" y2="10.5" class='slant fine'/>
    <line x1="55.94062" y1="199.5" x2="165.05982" y2="10.5" class='slant fine'/>
    <line x1="63.9964" y1="199.5" x2="173.1156" y2="10.5" class='slant fine'/>
    <line x1="72.05218" y1="199.5" x2="181.17138" y2="10.5" class='slant fine'/>
    <line x1="80.10796" y1="199.5" x2="189.22716" y2="10.5" class='slant fine'/>
    <line x1="88.16374" y1="199.5" x2="197.28294" y2="10.5" class='slant fine'/>
    <line x1="96.21952" y1="199.5" x2="205.33872" y2="10.5" class='slant fine'/>
    <line x1="104.2753" y1="199.5" x2="213.3945" y2="10.5" class='slant fine'/>
    <line x1="112.33108" y1="199.5" x2="221.45028" y2="10.5" class='slant fine'/>
    <line x1="120.38686" y1="199.5" x2="229.50606" y2="10.5" class='slant fine'/>
    <line x1="128.44264" y1="199.5" x2="237.56184" y2="10.5" class='slant fine'/>
    <line x1="136.49842" y1="199.5" x2="245.61762" y2="10.5" class='slant fine'/>
    <line x1="144.5542" y1="199.5" x2="253.6734" y2="10.5" class='slant fine'/>
    <line x1="152.60998" y1="199.5" x2="261.72918" y2="10.5" class='slant fine'/>
    <line x1="160.66576" y1="199.5" x2="269.78496" y2="10.5" class='slant fine'/>
    <line x1="168.72154" y1="199.5" x2="277.84074" y2="10.5" class='slant fine'/>
    <line x1="176.77732" y1="199.5" x2="285.0" y2="12.05282" class='slant fine'/>
    <line x1="184.8331" y1="199.5" x2="285.0" y2="26.00584" class='slant fine'/>
    <line x1="192.88888" y1="199.5" x2="285.0" y2="39.95886" class='slant fine'/>
    <line x1="200.94466" y1="199.5" x2="285.0" y2="53.91188" class='slant fine'/>
    <line x1="209.00044" y1="199.5" x2="285.0" y2="67.8649" class='slant fine'/>
    <line x1="217.05622" y1="199.5" x2="285.0" y2="81.81793" class='slant fine'/>
    <line x1="225.112" y1="199.5" x2="285.0" y2="95.77095" class='slant fine'/>
    <line x1="233.16778" y1="199.5" x2="285.0" y2="109.72397" class='slant fine'/>
    <line x1="241.22356" y1="199.5" x2="285.0" y2="123.67699" class='slant fine'/>
    <line x1="249.27934" y1="199.5" x2="285.0" y2="137.63001" class='slant fine'/>
    <line x1="257.33512" y1="199.5" x2="285.0" y2="151.58303" class='slant fine'/>
    <line x1="265.3909" y1="199.5" x2="285.0" y2="165.53605" class='slant fine'/>
    <line x1="273.44668" y1="199.5" x2="285.0" y2="179.48907" class='slant fine'/>
    <line x1="281.50246" y1="199.5" x2="285.0" y2="193.44209" class='slant fine'/>
  </g>
</svg>
