<?xml version="1.0" standalone="no"?>
<!DOCTYPE svg PUBLIC "-//W3C//DTD SVG 1.1//EN" "http://www.w3.org/Graphics/SVG/1.1/DTD/svg11.dtd">
<svg xmlns="http://www.w3.org/2000/svg" width="297.0mm" height="210.0mm" viewBox="0 0 297.0 210.0" >

  <g id="sheet">
    <line x1="8.5" y1="10.0" x2="288.5" y2="10.0" stroke='blue' stroke-width='0.1' tags='hline'/>
    <line x1="8.5" y1="20.0" x2="288.5" y2="20.0" stroke='blue' stroke-width='0.1' tags='hline'/>
    <line x1="8.5" y1="30.0" x2="288.5" y2="30.0" stroke='blue' stroke-width='0.1' tags='hline'/>
    <line x1="8.5" y1="40.0" x2="288.5" y2="40.0" stroke='blue' stroke-width='0.1' tags='hline'/>
    <line x1="8.5" y1="50.0" x2="288.5" y2="50.0" stroke='blue' stroke-width='0.1' tags='hline'/>
    <line x1="8.5" y1="60.0" x2="288.5" y2="60.0" stroke='blue' stroke-width='0.1' tags='hline'/>
    <line x1="8.5" y1="70.0" x2="288.5" y2="70.0" stroke='blue' stroke-width='0.1' tags='hline'/>
    <line x1="8.5" y1="80.0" x2="288.5" y2="80.0" stroke='blue' stroke-width='0.1' tags='hline'/>
    <line x1="8.5" y1="90.0" x2="288.5" y2="90.0" stroke='blue' stroke-width='0.1' tags='hline'/>
    <line x1="8.5" y1="100.0" x2="288.5" y2="100.0" stroke='blue' stroke-width='0.1' tags='hline'/>
    <line x1="8.5" y1="110.0" x2="288.5" y2="110.0" stroke='blue' stroke-width='0.1' tags='hline'/>
    <line x1="8.5" y1="120.0" x2="288.5" y2="120.0" stroke='blue' stroke-width='0.1' tags='hline'/>
    <line x1="8.5" y1="130.0" x2="288.5" y2="130.0" stroke='blue' stroke-width='0.1' tags='hline'/>
    <line x1="8.5" y1="140.0" x2="288.5" y2="140.0" stroke='blue' stroke-width='0.1' tags='hline'/>
    <line x1="8.5" y1="150.0" x2="288.5" y2="150.0" stroke='blue' stroke-width='0.1' tags='hline'/>
    <line x1="8.5" y1="160.0" x2="288.5" y2="160.0" stroke='blue' stroke-width='0.1' tags='hline'/>
    <line x1="8.5" y1="170.0" x2="288.5" y2="170.0" stroke='blue' stroke-width='0.1' tags='hline'/>
    <line x1="8.5" y1="180.0" x2="288.5" y2="180.0" stroke='blue' stroke-width='0.1' tags='hline'/>
    <line x1="8.5" y1="190.0" x2="288.5" y2="190.0" stroke='blue' stroke-width='0.1' tags='hline'/>
    <line x1="8.5" y1="200.0" x2="288.5" y2="200.0" stroke='blue' stroke-width='0.1' tags='hline'/>
    <line x1="8.5" y1="10.0" x2="8.5" y2="200.0" stroke='blue' stroke-width='0.1' tags='vline'/>
    <line x1="18.5" y1="10.0" x2="18.5" y2="200.0" stroke='blue' stroke-width='0.1' tags='vline'/>
    <line x1="28.5" y1="10.0" x2="28.5" y2="200.0" stroke='blue' stroke-width='0.1' tags='vline'/>
    <line x1="38.5" y1="10.0" x2="38.5" y2="200.0" stroke='blue' stroke-width='0.1' tags='vline'/>
    <line x1="48.5" y1="10.0" x2="48.5" y2="200.0" stroke='blue' stroke-width='0.1' tags='vline'/>
    <line x1="58.5" y1="10.0" x2="58.5" y2="200.0" stroke='blue' stroke-width='0.1' tags='vline'/>
    <line x1="68.5" y1="10.0" x2="68.5" y2="200.0" stroke='blue' stroke-width='0.1' tags='vline'/>
    <line x1="78.5" y1="10.0" x2="78.5" y2="200.0" stroke='blue' stroke-width='0.1' tags='vline'/>
    <line x1="88.5" y1="10.0" x2="88.5" y2="200.0" stroke='blue' stroke-width='0.1' tags='vline'/>
    <line x1="98.5" y1="10.0" x2="98.5" y2="200.0" stroke='blue' stroke-width='0.1' tags='vline'/>
    <line x1="108.5" y1="10.0" x2="108.5" y2="200.0" stroke='blue' stroke-width='0.1' tags='vline'/>
    <line x1="118.5" y1="10.0" x2="118.5" y2="200.0" stroke='blue' stroke-width='0.1' tags='vline'/>
    <line x1="128.5" y1="10.0" x2="128.5" y2="200.0" stroke='blue' stroke-width='0.1' tags='vline'/>
    <line x1="138.5" y1="10.0" x2="138.5" y2="200.0" stroke='blue' stroke-width='0.1' tags='vline'/>
    <line x1="148.5" y1="10.0" x2="148.5" y2="200.0" stroke='blue' stroke-width='0.1' tags='vline'/>
    <line x1="158.5" y1="10.0" x2="158.5" y2="200.0" stroke='blue' stroke-width='0.1' tags='vline'/>
    <line x1="168.5" y1="10.0" x2="168.5" y2="200.0" stroke='blue' stroke-width='0.1' tags='vline'/>
    <line x1="178.5" y1="10.0" x2="178.5" y2="200.0" stroke='blue' stroke-width='0.1' tags='vline'/>
    <line x1="188.5" y1="10.0" x2="188.5" y2="200.0" stroke='blue' stroke-width='0.1' tags='vline'/>
    <line x1="198.5" y1="10.0" x2="198.5" y2="200.0" stroke='blue' stroke-width='0.1' tags='vline'/>
    <line x1="208.5" y1="10.0" x2="208.5" y2="200.0" stroke='blue' stroke-width='0.1' tags='vline'/>
    <line x1="218.5" y1="10.0" x2="218.5" y2="200.0" stroke='blue' stroke-width='0.1' tags='vline'/>
    <line x1="228.5" y1="10.0" x2="228.5" y2="200.0" stroke='blue' stroke-width='0.1' tags='vline'/>
    <line x1="238.5" y1="10.0" x2="238.5" y2="200.0" stroke='blue' stroke-width='0.1' tags='vline'/>
    <line x1="248.5" y1="10.0" x2="248.5" y2="200.0" stroke='blue' stroke-width='0.1' tags='vline'/>
    <line x1="258.5" y1="10.0" x2="258.5" y2="200.0" stroke='blue' stroke-width='0.1' tags='vline'/>
    <line x1="268.5" y1="10.0" x2="268.5" y2="200.0" stroke='blue' stroke-width='0.1' tags='vline'/>
    <line x1="278.5" y1="10.0" x2="278.5" y2="200.0" stroke='blue' stroke-width='0.1' tags='vline'/>
    <line x1="288.5" y1="10.0" x2="288.5" y2="200.0" stroke='blue' stroke-width='0.1' tags='vline'/>
  </g>
</svg>
