<?xml version="1.0" standalone="no"?>
<!DOCTYPE svg PUBLIC "-//W3C//DTD SVG 1.1//EN" "http://www.w3.org/Graphics/SVG/1.1/DTD/svg11.dtd">
<svg xmlns="http://www.w3.org/2000/svg" width="297.0mm" height="210.0mm" viewBox="0 0 297.0 210.0" >

  <g id="sheet">
    <line x1="13.5" y1="20.0" x2="283.5" y2="20.0" stroke='blue' stroke-width='0.1' tags='hline'/>
    <line x1="13.5" y1="30.0" x2="283.5" y2="30.0" stroke='blue' stroke-width='0.1' tags='hline'/>
    <line x1="13.5" y1="40.0" x2="283.5" y2="40.0" stroke='blue' stroke-width='0.1' tags='hline'/>
    <line x1="13.5" y1="50.0" x2="283.5" y2="50.0" stroke='blue' stroke-width='0.1' tags='hline'/>
    <line x1="13.5" y1="60.0" x2="283.5" y2="60.0" stroke='blue' stroke-width='0.1' tags='hline'/>
    <line x1="13.5" y1="70.0" x2="283.5" y2="70.0" stroke='blue' stroke-width='0.1' tags='hline'/>
    <line x1="13.5" y1="80.0" x2="283.5" y2="80.0" stroke='blue' stroke-width='0.1' tags='hline'/>
    <line x1="13.5" y1="90.0" x2="283.5" y2="90.0" stroke='blue' stroke-width='0.1' tags='hline'/>
    <line x1="13.5" y1="100.0" x2="283.5" y2="100.0" stroke='blue' stroke-width='0.1' tags='hline'/>
    <line x1="13.5" y1="110.0" x2="283.5" y2="110.0" stroke='blue' stroke-width='0.1' tags='hline'/>
    <line x1="13.5" y1="120.0" x2="283.5" y2="120.0" stroke='blue' stroke-width='0.1' tags='hline'/>
    <line x1="13.5" y1="130.0" x2="283.5" y2="130.0" stroke='blue' stroke-width='0.1' tags='hline'/>
    <line x1="13.5" y1="140.0" x2="283.5" y2="140.0" stroke='blue' stroke-width='0.1' tags='hline'/>
    <line x1="13.5" y1="150.0" x2="283.5" y2="150.0" stroke='blue' stroke-width='0.1' tags='hline'/>
    <line x1="13.5" y1="160.0" x2="283.5" y2="160.0" stroke='blue' stroke-width='0.1' tags='hline'/>
    <line x1="13.5" y1="170.0" x2="283.5" y2="170.0" stroke='blue' stroke-width='0.1' tags='hline'/>
    <line x1="13.5" y1="180.0" x2="283.5" y2="180.0" stroke='blue' stroke-width='0.1' tags='hline'/>
    <line x1="13.5" y1="190.0" x2="283.5" y2="190.0" stroke='blue' stroke-width='0.1' tags='hline'/>
    <line x1="13.5" y1="20.0" x2="13.5" y2="190.0" stroke='blue' stroke-width='0.1' tags='vline'/>
    <line x1="23.5" y1="20.0" x2="23.5" y2="190.0" stroke='blue' stroke-width='0.1' tags='vline'/>
    <line x1="33.5" y1="20.0" x2="33.5" y2="190.0" stroke='blue' stroke-width='0.1' tags='vline'/>
    <line x1="43.5" y1="20.0" x2="43.5" y2="190.0" stroke='blue' stroke-width='0.1' tags='vline'/>
    <line x1="53.5" y1="20.0" x2="53.5" y2="190.0" stroke='blue' stroke-width='0.1' tags='vline'/>
    <line x1="63.5" y1="20.0" x2="63.5" y2="190.0" stroke='blue' stroke-width='0.1' tags='vline'/>
    <line x1="73.5" y1="20.0" x2="73.5" y2="190.0" stroke='blue' stroke-width='0.1' tags='vline'/>
    <line x1="83.5" y1="20.0" x2="83.5" y2="190.0" stroke='blue' stroke-width='0.1' tags='vline'/>
    <line x1="93.5" y1="20.0" x2="93.5" y2="190.0" stroke='blue' stroke-width='0.1' tags='vline'/>
    <line x1="103.5" y1="20.0" x2="103.5" y2="190.0" stroke='blue' stroke-width='0.1' tags='vline'/>
    <line x1="113.5" y1="20.0" x2="113.5" y2="190.0" stroke='blue' stroke-width='0.1' tags='vline'/>
    <line x1="123.5" y1="20.0" x2="123.5" y2="190.0" stroke='blue' stroke-width='0.1' tags='vline'/>
    <line x1="133.5" y1="20.0" x2="133.5" y2="190.0" stroke='blue' stroke-width='0.1' tags='vline'/>
    <line x1="143.5" y1="20.0" x2="143.5" y2="190.0" stroke='blue' stroke-width='0.1' tags='vline'/>
    <line x1="153.5" y1="20.0" x2="153.5" y2="190.0" stroke='blue' stroke-width='0.1' tags='vline'/>
    <line x1="163.5" y1="20.0" x2="163.5" y2="190.0" stroke='blue' stroke-width='0.1' tags='vline'/>
    <line x1="173.5" y1="20.0" x2="173.5" y2="190.0" stroke='blue' stroke-width='0.1' tags='vline'/>
    <line x1="183.5" y1="20.0" x2="183.5" y2="190.0" stroke='blue' stroke-width='0.1' tags='vline'/>
    <line x1="193.5" y1="20.0" x2="193.5" y2="190.0" stroke='blue' stroke-width='0.1' tags='vline'/>
    <line x1="203.5" y1="20.0" x2="203.5" y2="190.0" stroke='blue' stroke-width='0.1' tags='vline'/>
    <line x1="213.5" y1="20.0" x2="213.5" y2="190.0" stroke='blue' stroke-width='0.1' tags='vline'/>
    <line x1="223.5" y1="20.0" x2="223.5" y2="190.0" stroke='blue' stroke-width='0.1' tags='vline'/>
    <line x1="233.5" y1="20.0" x2="233.5" y2="190.0" stroke='blue' stroke-width='0.1' tags='vline'/>
    <line x1="243.5" y1="20.0" x2="243.5" y2="190.0" stroke='blue' stroke-width='0.1' tags='vline'/>
    <line x1="253.5" y1="20.0" x2="253.5" y2="190.0" stroke='blue' stroke-width='0.1' tags='vline'/>
    <line x1="263.5" y1="20.0" x2="263.5" y2="190.0" stroke='blue' stroke-width='0.1' tags='vline'/>
    <line x1="273.5" y1="20.0" x2="273.5" y2="190.0" stroke='blue' stroke-width='0.1' tags='vline'/>
    <line x1="283.5" y1="20.0" x2="283.5" y2="190.0" stroke='blue' stroke-width='0.1' tags='vline'/>
  </g>
</svg>
