<?xml version="1.0" standalone="no"?>
<!DOCTYPE svg PUBLIC "-//W3C//DTD SVG 1.1//EN" "http://www.w3.org/Graphics/SVG/1.1/DTD/svg11.dtd">
<svg xmlns="http://www.w3.org/2000/svg" width="297.0mm" height="210.0mm" viewBox="0 0 297.0 210.0" >

  <g id="sheet">
    <line x1="12.0" y1="17.5" x2="285.0" y2="17.5" stroke='blue' stroke-width='0.1' tags='hline'/>
    <line x1="12.0" y1="24.5" x2="285.0" y2="24.5" stroke='blue' stroke-width='0.1' tags='hline'/>
    <line x1="12.0" y1="31.5" x2="285.0" y2="31.5" stroke='blue' stroke-width='0.1' tags='hline'/>
    <line x1="12.0" y1="38.5" x2="285.0" y2="38.5" stroke='blue' stroke-width='0.1' tags='hline'/>
    <line x1="12.0" y1="45.5" x2="285.0" y2="45.5" stroke='blue' stroke-width='0.1' tags='hline'/>
    <line x1="12.0" y1="52.5" x2="285.0" y2="52.5" stroke='blue' stroke-width='0.1' tags='hline'/>
    <line x1="12.0" y1="59.5" x2="285.0" y2="59.5" stroke='blue' stroke-width='0.1' tags='hline'/>
    <line x1="12.0" y1="66.5" x2="285.0" y2="66.5" stroke='blue' stroke-width='0.1' tags='hline'/>
    <line x1="12.0" y1="73.5" x2="285.0" y2="73.5" stroke='blue' stroke-width='0.1' tags='hline'/>
    <line x1="12.0" y1="80.5" x2="285.0" y2="80.5" stroke='blue' stroke-width='0.1' tags='hline'/>
    <line x1="12.0" y1="87.5" x2="285.0" y2="87.5" stroke='blue' stroke-width='0.1' tags='hline'/>
    <line x1="12.0" y1="94.5" x2="285.0" y2="94.5" stroke='blue' stroke-width='0.1' tags='hline'/>
    <line x1="12.0" y1="101.5" x2="285.0" y2="101.5" stroke='blue' stroke-width='0.1' tags='hline'/>
    <line x1="12.0" y1="108.5" x2="285.0" y2="108.5" stroke='blue' stroke-width='0.1' tags='hline'/>
    <line x1="12.0" y1="115.5" x2="285.0" y2="115.5" stroke='blue' stroke-width='0.1' tags='hline'/>
    <line x1="12.0" y1="122.5" x2="285.0" y2="122.5" stroke='blue' stroke-width='0.1' tags='hline'/>
    <line x1="12.0" y1="129.5" x2="285.0" y2="129.5" stroke='blue' stroke-width='0.1' tags='hline'/>
    <line x1="12.0" y1="136.5" x2="285.0" y2="136.5" stroke='blue' stroke-width='0.1' tags='hline'/>
    <line x1="12.0" y1="143.5" x2="285.0" y2="143.5" stroke='blue' stroke-width='0.1' tags='hline'/>
    <line x1="12.0" y1="150.5" x2="285.0" y2="150.5" stroke='blue' stroke-width='0.1' tags='hline'/>
    <line x1="12.0" y1="157.5" x2="285.0" y2="157.5" stroke='blue' stroke-width='0.1' tags='hline'/>
    <line x1="12.0" y1="164.5" x2="285.0" y2="164.5" stroke='blue' stroke-width='0.1' tags='hline'/>
    <line x1="12.0" y1="171.5" x2="285.0" y2="171.5" stroke='blue' stroke-width='0.1' tags='hline'/>
    <line x1="12.0" y1="178.5" x2="285.0" y2="178.5" stroke='blue' stroke-width='0.1' tags='hline'/>
    <line x1="12.0" y1="185.5" x2="285.0" y2="185.5" stroke='blue' stroke-width='0.1' tags='hline'/>
    <line x1="12.0" y1="192.5" x2="285.0" y2="192.5" stroke='blue' stroke-width='0.1' tags='hline'/>
    <line x1="12.0" y1="17.5" x2="12.0" y2="192.5" stroke='blue' stroke-width='0.1' tags='vline'/>
    <line x1="19.0" y1="17.5" x2="19.0" y2="192.5" stroke='blue' stroke-width='0.1' tags='vline'/>
    <line x1="26.0" y1="17.5" x2="26.0" y2="192.5" stroke='blue' stroke-width='0.1' tags='vline'/>
    <line x1="33.0" y1="17.5" x2="33.0" y2="192.5" stroke='blue' stroke-width='0.1' tags='vline'/>
    <line x1="40.0" y1="17.5" x2="40.0" y2="192.5" stroke='blue' stroke-width='0.1' tags='vline'/>
    <line x1="47.0" y1="17.5" x2="47.0" y2="192.5" stroke='blue' stroke-width='0.1' tags='vline'/>
    <line x1="54.0" y1="17.5" x2="54.0" y2="192.5" stroke='blue' stroke-width='0.1' tags='vline'/>
    <line x1="61.0" y1="17.5" x2="61.0" y2="192.5" stroke='blue' stroke-width='0.1' tags='vline'/>
    <line x1="68.0" y1="17.5" x2="68.0" y2="192.5" stroke='blue' stroke-width='0.1' tags='vline'/>
    <line x1="75.0" y1="17.5" x2="75.0" y2="192.5" stroke='blue' stroke-width='0.1' tags='vline'/>
    <line x1="82.0" y1="17.5" x2="82.0" y2="192.5" stroke='blue' stroke-width='0.1' tags='vline'/>
    <line x1="89.0" y1="17.5" x2="89.0" y2="192.5" stroke='blue' stroke-width='0.1' tags='vline'/>
    <line x1="96.0" y1="17.5" x2="96.0" y2="192.5" stroke='blue' stroke-width='0.1' tags='vline'/>
    <line x1="103.0" y1="17.5" x2="103.0" y2="192.5" stroke='blue' stroke-width='0.1' tags='vline'/>
    <line x1="110.0" y1="17.5" x2="110.0" y2="192.5" stroke='blue' stroke-width='0.1' tags='vline'/>
    <line x1="117.0" y1="17.5" x2="117.0" y2="192.5" stroke='blue' stroke-width='0.1' tags='vline'/>
    <line x1="124.0" y1="17.5" x2="124.0" y2="192.5" stroke='blue' stroke-width='0.1' tags='vline'/>
    <line x1="131.0" y1="17.5" x2="131.0" y2="192.5" stroke='blue' stroke-width='0.1' tags='vline'/>
    <line x1="138.0" y1="17.5" x2="138.0" y2="192.5" stroke='blue' stroke-width='0.1' tags='vline'/>
    <line x1="145.0" y1="17.5" x2="145.0" y2="192.5" stroke='blue' stroke-width='0.1' tags='vline'/>
    <line x1="152.0" y1="17.5" x2="152.0" y2="192.5" stroke='blue' stroke-width='0.1' tags='vline'/>
    <line x1="159.0" y1="17.5" x2="159.0" y2="192.5" stroke='blue' stroke-width='0.1' tags='vline'/>
    <line x1="166.0" y1="17.5" x2="166.0" y2="192.5" stroke='blue' stroke-width='0.1' tags='vline'/>
    <line x1="173.0" y1="17.5" x2="173.0" y2="192.5" stroke='blue' stroke-width='0.1' tags='vline'/>
    <line x1="180.0" y1="17.5" x2="180.0" y2="192.5" stroke='blue' stroke-width='0.1' tags='vline'/>
    <line x1="187.0" y1="17.5" x2="187.0" y2="192.5" stroke='blue' stroke-width='0.1' tags='vline'/>
    <line x1="194.0" y1="17.5" x2="194.0" y2="192.5" stroke='blue' stroke-width='0.1' tags='vline'/>
    <line x1="201.0" y1="17.5" x2="201.0" y2="192.5" stroke='blue' stroke-width='0.1' tags='vline'/>
    <line x1="208.0" y1="17.5" x2="208.0" y2="192.5" stroke='blue' stroke-width='0.1' tags='vline'/>
    <line x1="215.0" y1="17.5" x2="215.0" y2="192.5" stroke='blue' stroke-width='0.1' tags='vline'/>
    <line x1="222.0" y1="17.5" x2="222.0" y2="192.5" stroke='blue' stroke-width='0.1' tags='vline'/>
    <line x1="229.0" y1="17.5" x2="229.0" y2="192.5" stroke='blue' stroke-width='0.1' tags='vline'/>
    <line x1="236.0" y1="17.5" x2="236.0" y2="192.5" stroke='blue' stroke-width='0.1' tags='vline'/>
    <line x1="243.0" y1="17.5" x2="243.0" y2="192.5" stroke='blue' stroke-width='0.1' tags='vline'/>
    <line x1="250.0" y1="17.5" x2="250.0" y2="192.5" stroke='blue' stroke-width='0.1' tags='vline'/>
    <line x1="257.0" y1="17.5" x2="257.0" y2="192.5" stroke='blue' stroke-width='0.1' tags='vline'/>
    <line x1="264.0" y1="17.5" x2="264.0" y2="192.5" stroke='blue' stroke-width='0.1' tags='vline'/>
    <line x1="271.0" y1="17.5" x2="271.0" y2="192.5" stroke='blue' stroke-width='0.1' tags='vline'/>
    <line x1="278.0" y1="17.5" x2="278.0" y2="192.5" stroke='blue' stroke-width='0.1' tags='vline'/>
    <line x1="285.0" y1="17.5" x2="285.0" y2="192.5" stroke='blue' stroke-width='0.1' tags='vline'/>
  </g>
</svg>
