<?xml version="1.0" standalone="no"?>
<!DOCTYPE svg PUBLIC "-//W3C//DTD SVG 1.1//EN" "http://www.w3.org/Graphics/SVG/1.1/DTD/svg11.dtd">
<svg xmlns="http://www.w3.org/2000/svg" width="297.0mm" height="210.0mm" viewBox="0 0 297.0 210.0" shape-rendering="geometricPrecision" >
  <style>
    svg         { stroke:            #ed008c; }
    svg         { stroke-width:         0.04; }
    .altcolor   { stroke:               blue; }
    .extrafine  { stroke-width:         0.01; }
    .fine       { stroke-width:         0.02; }
    .medium     { stroke-width:         0.04; }
    .broad      { stroke-width:         0.08; }
    .extrabroad { stroke-width:         0.16; }
    .dashed     { stroke-dasharray:      2 2; }
  </style>
  <g id="sheet">
    <line x1="8.5" y1="10.5" x2="288.5" y2="10.5" class='hline'/>
    <line x1="8.5" y1="17.5" x2="288.5" y2="17.5" class='hline'/>
    <line x1="8.5" y1="24.5" x2="288.5" y2="24.5" class='hline'/>
    <line x1="8.5" y1="31.5" x2="288.5" y2="31.5" class='hline'/>
    <line x1="8.5" y1="38.5" x2="288.5" y2="38.5" class='hline'/>
    <line x1="8.5" y1="45.5" x2="288.5" y2="45.5" class='hline'/>
    <line x1="8.5" y1="52.5" x2="288.5" y2="52.5" class='hline'/>
    <line x1="8.5" y1="59.5" x2="288.5" y2="59.5" class='hline'/>
    <line x1="8.5" y1="66.5" x2="288.5" y2="66.5" class='hline'/>
    <line x1="8.5" y1="73.5" x2="288.5" y2="73.5" class='hline'/>
    <line x1="8.5" y1="80.5" x2="288.5" y2="80.5" class='hline'/>
    <line x1="8.5" y1="87.5" x2="288.5" y2="87.5" class='hline'/>
    <line x1="8.5" y1="94.5" x2="288.5" y2="94.5" class='hline'/>
    <line x1="8.5" y1="101.5" x2="288.5" y2="101.5" class='hline'/>
    <line x1="8.5" y1="108.5" x2="288.5" y2="108.5" class='hline'/>
    <line x1="8.5" y1="115.5" x2="288.5" y2="115.5" class='hline'/>
    <line x1="8.5" y1="122.5" x2="288.5" y2="122.5" class='hline'/>
    <line x1="8.5" y1="129.5" x2="288.5" y2="129.5" class='hline'/>
    <line x1="8.5" y1="136.5" x2="288.5" y2="136.5" class='hline'/>
    <line x1="8.5" y1="143.5" x2="288.5" y2="143.5" class='hline'/>
    <line x1="8.5" y1="150.5" x2="288.5" y2="150.5" class='hline'/>
    <line x1="8.5" y1="157.5" x2="288.5" y2="157.5" class='hline'/>
    <line x1="8.5" y1="164.5" x2="288.5" y2="164.5" class='hline'/>
    <line x1="8.5" y1="171.5" x2="288.5" y2="171.5" class='hline'/>
    <line x1="8.5" y1="178.5" x2="288.5" y2="178.5" class='hline'/>
    <line x1="8.5" y1="185.5" x2="288.5" y2="185.5" class='hline'/>
    <line x1="8.5" y1="192.5" x2="288.5" y2="192.5" class='hline'/>
    <line x1="8.5" y1="199.5" x2="288.5" y2="199.5" class='hline'/>
    <line x1="8.5" y1="10.5" x2="8.5" y2="199.5" class='vline'/>
    <line x1="15.5" y1="10.5" x2="15.5" y2="199.5" class='vline'/>
    <line x1="22.5" y1="10.5" x2="22.5" y2="199.5" class='vline'/>
    <line x1="29.5" y1="10.5" x2="29.5" y2="199.5" class='vline'/>
    <line x1="36.5" y1="10.5" x2="36.5" y2="199.5" class='vline'/>
    <line x1="43.5" y1="10.5" x2="43.5" y2="199.5" class='vline'/>
    <line x1="50.5" y1="10.5" x2="50.5" y2="199.5" class='vline'/>
    <line x1="57.5" y1="10.5" x2="57.5" y2="199.5" class='vline'/>
    <line x1="64.5" y1="10.5" x2="64.5" y2="199.5" class='vline'/>
    <line x1="71.5" y1="10.5" x2="71.5" y2="199.5" class='vline'/>
    <line x1="78.5" y1="10.5" x2="78.5" y2="199.5" class='vline'/>
    <line x1="85.5" y1="10.5" x2="85.5" y2="199.5" class='vline'/>
    <line x1="92.5" y1="10.5" x2="92.5" y2="199.5" class='vline'/>
    <line x1="99.5" y1="10.5" x2="99.5" y2="199.5" class='vline'/>
    <line x1="106.5" y1="10.5" x2="106.5" y2="199.5" class='vline'/>
    <line x1="113.5" y1="10.5" x2="113.5" y2="199.5" class='vline'/>
    <line x1="120.5" y1="10.5" x2="120.5" y2="199.5" class='vline'/>
    <line x1="127.5" y1="10.5" x2="127.5" y2="199.5" class='vline'/>
    <line x1="134.5" y1="10.5" x2="134.5" y2="199.5" class='vline'/>
    <line x1="141.5" y1="10.5" x2="141.5" y2="199.5" class='vline'/>
    <line x1="148.5" y1="10.5" x2="148.5" y2="199.5" class='vline'/>
    <line x1="155.5" y1="10.5" x2="155.5" y2="199.5" class='vline'/>
    <line x1="162.5" y1="10.5" x2="162.5" y2="199.5" class='vline'/>
    <line x1="169.5" y1="10.5" x2="169.5" y2="199.5" class='vline'/>
    <line x1="176.5" y1="10.5" x2="176.5" y2="199.5" class='vline'/>
    <line x1="183.5" y1="10.5" x2="183.5" y2="199.5" class='vline'/>
    <line x1="190.5" y1="10.5" x2="190.5" y2="199.5" class='vline'/>
    <line x1="197.5" y1="10.5" x2="197.5" y2="199.5" class='vline'/>
    <line x1="204.5" y1="10.5" x2="204.5" y2="199.5" class='vline'/>
    <line x1="211.5" y1="10.5" x2="211.5" y2="199.5" class='vline'/>
    <line x1="218.5" y1="10.5" x2="218.5" y2="199.5" class='vline'/>
    <line x1="225.5" y1="10.5" x2="225.5" y2="199.5" class='vline'/>
    <line x1="232.5" y1="10.5" x2="232.5" y2="199.5" class='vline'/>
    <line x1="239.5" y1="10.5" x2="239.5" y2="199.5" class='vline'/>
    <line x1="246.5" y1="10.5" x2="246.5" y2="199.5" class='vline'/>
    <line x1="253.5" y1="10.5" x2="253.5" y2="199.5" class='vline'/>
    <line x1="260.5" y1="10.5" x2="260.5" y2="199.5" class='vline'/>
    <line x1="267.5" y1="10.5" x2="267.5" y2="199.5" class='vline'/>
    <line x1="274.5" y1="10.5" x2="274.5" y2="199.5" class='vline'/>
    <line x1="281.5" y1="10.5" x2="281.5" y2="199.5" class='vline'/>
    <line x1="288.5" y1="10.5" x2="288.5" y2="199.5" class='vline'/>
  </g>
</svg>
