<?xml version="1.0" standalone="no"?>
<!DOCTYPE svg PUBLIC "-//W3C//DTD SVG 1.1//EN" "http://www.w3.org/Graphics/SVG/1.1/DTD/svg11.dtd">
<svg xmlns="http://www.w3.org/2000/svg" width="210.0mm" height="297.0mm" viewBox="0 0 210.0 297.0" >

  <g id="sheet">
    <line x1="7.0" y1="12.0" x2="203.0" y2="12.0" stroke='blue' stroke-width='0.1' tags='hline'/>
    <line x1="7.0" y1="19.0" x2="203.0" y2="19.0" stroke='blue' stroke-width='0.1' tags='hline'/>
    <line x1="7.0" y1="26.0" x2="203.0" y2="26.0" stroke='blue' stroke-width='0.1' tags='hline'/>
    <line x1="7.0" y1="33.0" x2="203.0" y2="33.0" stroke='blue' stroke-width='0.1' tags='hline'/>
    <line x1="7.0" y1="40.0" x2="203.0" y2="40.0" stroke='blue' stroke-width='0.1' tags='hline'/>
    <line x1="7.0" y1="47.0" x2="203.0" y2="47.0" stroke='blue' stroke-width='0.1' tags='hline'/>
    <line x1="7.0" y1="54.0" x2="203.0" y2="54.0" stroke='blue' stroke-width='0.1' tags='hline'/>
    <line x1="7.0" y1="61.0" x2="203.0" y2="61.0" stroke='blue' stroke-width='0.1' tags='hline'/>
    <line x1="7.0" y1="68.0" x2="203.0" y2="68.0" stroke='blue' stroke-width='0.1' tags='hline'/>
    <line x1="7.0" y1="75.0" x2="203.0" y2="75.0" stroke='blue' stroke-width='0.1' tags='hline'/>
    <line x1="7.0" y1="82.0" x2="203.0" y2="82.0" stroke='blue' stroke-width='0.1' tags='hline'/>
    <line x1="7.0" y1="89.0" x2="203.0" y2="89.0" stroke='blue' stroke-width='0.1' tags='hline'/>
    <line x1="7.0" y1="96.0" x2="203.0" y2="96.0" stroke='blue' stroke-width='0.1' tags='hline'/>
    <line x1="7.0" y1="103.0" x2="203.0" y2="103.0" stroke='blue' stroke-width='0.1' tags='hline'/>
    <line x1="7.0" y1="110.0" x2="203.0" y2="110.0" stroke='blue' stroke-width='0.1' tags='hline'/>
    <line x1="7.0" y1="117.0" x2="203.0" y2="117.0" stroke='blue' stroke-width='0.1' tags='hline'/>
    <line x1="7.0" y1="124.0" x2="203.0" y2="124.0" stroke='blue' stroke-width='0.1' tags='hline'/>
    <line x1="7.0" y1="131.0" x2="203.0" y2="131.0" stroke='blue' stroke-width='0.1' tags='hline'/>
    <line x1="7.0" y1="138.0" x2="203.0" y2="138.0" stroke='blue' stroke-width='0.1' tags='hline'/>
    <line x1="7.0" y1="145.0" x2="203.0" y2="145.0" stroke='blue' stroke-width='0.1' tags='hline'/>
    <line x1="7.0" y1="152.0" x2="203.0" y2="152.0" stroke='blue' stroke-width='0.1' tags='hline'/>
    <line x1="7.0" y1="159.0" x2="203.0" y2="159.0" stroke='blue' stroke-width='0.1' tags='hline'/>
    <line x1="7.0" y1="166.0" x2="203.0" y2="166.0" stroke='blue' stroke-width='0.1' tags='hline'/>
    <line x1="7.0" y1="173.0" x2="203.0" y2="173.0" stroke='blue' stroke-width='0.1' tags='hline'/>
    <line x1="7.0" y1="180.0" x2="203.0" y2="180.0" stroke='blue' stroke-width='0.1' tags='hline'/>
    <line x1="7.0" y1="187.0" x2="203.0" y2="187.0" stroke='blue' stroke-width='0.1' tags='hline'/>
    <line x1="7.0" y1="194.0" x2="203.0" y2="194.0" stroke='blue' stroke-width='0.1' tags='hline'/>
    <line x1="7.0" y1="201.0" x2="203.0" y2="201.0" stroke='blue' stroke-width='0.1' tags='hline'/>
    <line x1="7.0" y1="208.0" x2="203.0" y2="208.0" stroke='blue' stroke-width='0.1' tags='hline'/>
    <line x1="7.0" y1="215.0" x2="203.0" y2="215.0" stroke='blue' stroke-width='0.1' tags='hline'/>
    <line x1="7.0" y1="222.0" x2="203.0" y2="222.0" stroke='blue' stroke-width='0.1' tags='hline'/>
    <line x1="7.0" y1="229.0" x2="203.0" y2="229.0" stroke='blue' stroke-width='0.1' tags='hline'/>
    <line x1="7.0" y1="236.0" x2="203.0" y2="236.0" stroke='blue' stroke-width='0.1' tags='hline'/>
    <line x1="7.0" y1="243.0" x2="203.0" y2="243.0" stroke='blue' stroke-width='0.1' tags='hline'/>
    <line x1="7.0" y1="250.0" x2="203.0" y2="250.0" stroke='blue' stroke-width='0.1' tags='hline'/>
    <line x1="7.0" y1="257.0" x2="203.0" y2="257.0" stroke='blue' stroke-width='0.1' tags='hline'/>
    <line x1="7.0" y1="264.0" x2="203.0" y2="264.0" stroke='blue' stroke-width='0.1' tags='hline'/>
    <line x1="7.0" y1="271.0" x2="203.0" y2="271.0" stroke='blue' stroke-width='0.1' tags='hline'/>
    <line x1="7.0" y1="278.0" x2="203.0" y2="278.0" stroke='blue' stroke-width='0.1' tags='hline'/>
    <line x1="7.0" y1="285.0" x2="203.0" y2="285.0" stroke='blue' stroke-width='0.1' tags='hline'/>
    <line x1="7.0" y1="12.0" x2="7.0" y2="285.0" stroke='blue' stroke-width='0.1' tags='vline'/>
    <line x1="14.0" y1="12.0" x2="14.0" y2="285.0" stroke='blue' stroke-width='0.1' tags='vline'/>
    <line x1="21.0" y1="12.0" x2="21.0" y2="285.0" stroke='blue' stroke-width='0.1' tags='vline'/>
    <line x1="28.0" y1="12.0" x2="28.0" y2="285.0" stroke='blue' stroke-width='0.1' tags='vline'/>
    <line x1="35.0" y1="12.0" x2="35.0" y2="285.0" stroke='blue' stroke-width='0.1' tags='vline'/>
    <line x1="42.0" y1="12.0" x2="42.0" y2="285.0" stroke='blue' stroke-width='0.1' tags='vline'/>
    <line x1="49.0" y1="12.0" x2="49.0" y2="285.0" stroke='blue' stroke-width='0.1' tags='vline'/>
    <line x1="56.0" y1="12.0" x2="56.0" y2="285.0" stroke='blue' stroke-width='0.1' tags='vline'/>
    <line x1="63.0" y1="12.0" x2="63.0" y2="285.0" stroke='blue' stroke-width='0.1' tags='vline'/>
    <line x1="70.0" y1="12.0" x2="70.0" y2="285.0" stroke='blue' stroke-width='0.1' tags='vline'/>
    <line x1="77.0" y1="12.0" x2="77.0" y2="285.0" stroke='blue' stroke-width='0.1' tags='vline'/>
    <line x1="84.0" y1="12.0" x2="84.0" y2="285.0" stroke='blue' stroke-width='0.1' tags='vline'/>
    <line x1="91.0" y1="12.0" x2="91.0" y2="285.0" stroke='blue' stroke-width='0.1' tags='vline'/>
    <line x1="98.0" y1="12.0" x2="98.0" y2="285.0" stroke='blue' stroke-width='0.1' tags='vline'/>
    <line x1="105.0" y1="12.0" x2="105.0" y2="285.0" stroke='blue' stroke-width='0.1' tags='vline'/>
    <line x1="112.0" y1="12.0" x2="112.0" y2="285.0" stroke='blue' stroke-width='0.1' tags='vline'/>
    <line x1="119.0" y1="12.0" x2="119.0" y2="285.0" stroke='blue' stroke-width='0.1' tags='vline'/>
    <line x1="126.0" y1="12.0" x2="126.0" y2="285.0" stroke='blue' stroke-width='0.1' tags='vline'/>
    <line x1="133.0" y1="12.0" x2="133.0" y2="285.0" stroke='blue' stroke-width='0.1' tags='vline'/>
    <line x1="140.0" y1="12.0" x2="140.0" y2="285.0" stroke='blue' stroke-width='0.1' tags='vline'/>
    <line x1="147.0" y1="12.0" x2="147.0" y2="285.0" stroke='blue' stroke-width='0.1' tags='vline'/>
    <line x1="154.0" y1="12.0" x2="154.0" y2="285.0" stroke='blue' stroke-width='0.1' tags='vline'/>
    <line x1="161.0" y1="12.0" x2="161.0" y2="285.0" stroke='blue' stroke-width='0.1' tags='vline'/>
    <line x1="168.0" y1="12.0" x2="168.0" y2="285.0" stroke='blue' stroke-width='0.1' tags='vline'/>
    <line x1="175.0" y1="12.0" x2="175.0" y2="285.0" stroke='blue' stroke-width='0.1' tags='vline'/>
    <line x1="182.0" y1="12.0" x2="182.0" y2="285.0" stroke='blue' stroke-width='0.1' tags='vline'/>
    <line x1="189.0" y1="12.0" x2="189.0" y2="285.0" stroke='blue' stroke-width='0.1' tags='vline'/>
    <line x1="196.0" y1="12.0" x2="196.0" y2="285.0" stroke='blue' stroke-width='0.1' tags='vline'/>
    <line x1="203.0" y1="12.0" x2="203.0" y2="285.0" stroke='blue' stroke-width='0.1' tags='vline'/>
  </g>
</svg>
