<?xml version="1.0" standalone="no"?>
<!DOCTYPE svg PUBLIC "-//W3C//DTD SVG 1.1//EN" "http://www.w3.org/Graphics/SVG/1.1/DTD/svg11.dtd">
<svg xmlns="http://www.w3.org/2000/svg" width="148.5mm" height="210.0mm" viewBox="0 0 148.5 210.0" >

  <g id="sheet">
    <line x1="21.75" y1="21.0" x2="126.75" y2="21.0" stroke='blue' stroke-width='0.2' tags='ascender'/>
    <line x1="21.75" y1="28.0" x2="126.75" y2="28.0" stroke='grey' stroke-width='0.1' stroke-dasharray='2, 2' tags='waist'/>
    <line x1="21.75" y1="35.0" x2="126.75" y2="35.0" stroke='red' stroke-width='0.1' stroke-dasharray='2, 2' tags='base'/>
    <line x1="21.75" y1="42.0" x2="126.75" y2="42.0" stroke='blue' stroke-width='0.2' tags='descender'/>
    <line x1="21.75" y1="49.0" x2="126.75" y2="49.0" stroke='grey' stroke-width='0.1' stroke-dasharray='2, 2' tags='waist'/>
    <line x1="21.75" y1="56.0" x2="126.75" y2="56.0" stroke='red' stroke-width='0.1' stroke-dasharray='2, 2' tags='base'/>
    <line x1="21.75" y1="63.0" x2="126.75" y2="63.0" stroke='blue' stroke-width='0.2' tags='descender'/>
    <line x1="21.75" y1="70.0" x2="126.75" y2="70.0" stroke='grey' stroke-width='0.1' stroke-dasharray='2, 2' tags='waist'/>
    <line x1="21.75" y1="77.0" x2="126.75" y2="77.0" stroke='red' stroke-width='0.1' stroke-dasharray='2, 2' tags='base'/>
    <line x1="21.75" y1="84.0" x2="126.75" y2="84.0" stroke='blue' stroke-width='0.2' tags='descender'/>
    <line x1="21.75" y1="91.0" x2="126.75" y2="91.0" stroke='grey' stroke-width='0.1' stroke-dasharray='2, 2' tags='waist'/>
    <line x1="21.75" y1="98.0" x2="126.75" y2="98.0" stroke='red' stroke-width='0.1' stroke-dasharray='2, 2' tags='base'/>
    <line x1="21.75" y1="105.0" x2="126.75" y2="105.0" stroke='blue' stroke-width='0.2' tags='descender'/>
    <line x1="21.75" y1="112.0" x2="126.75" y2="112.0" stroke='grey' stroke-width='0.1' stroke-dasharray='2, 2' tags='waist'/>
    <line x1="21.75" y1="119.0" x2="126.75" y2="119.0" stroke='red' stroke-width='0.1' stroke-dasharray='2, 2' tags='base'/>
    <line x1="21.75" y1="126.0" x2="126.75" y2="126.0" stroke='blue' stroke-width='0.2' tags='descender'/>
    <line x1="21.75" y1="133.0" x2="126.75" y2="133.0" stroke='grey' stroke-width='0.1' stroke-dasharray='2, 2' tags='waist'/>
    <line x1="21.75" y1="140.0" x2="126.75" y2="140.0" stroke='red' stroke-width='0.1' stroke-dasharray='2, 2' tags='base'/>
    <line x1="21.75" y1="147.0" x2="126.75" y2="147.0" stroke='blue' stroke-width='0.2' tags='descender'/>
    <line x1="21.75" y1="154.0" x2="126.75" y2="154.0" stroke='grey' stroke-width='0.1' stroke-dasharray='2, 2' tags='waist'/>
    <line x1="21.75" y1="161.0" x2="126.75" y2="161.0" stroke='red' stroke-width='0.1' stroke-dasharray='2, 2' tags='base'/>
    <line x1="21.75" y1="168.0" x2="126.75" y2="168.0" stroke='blue' stroke-width='0.2' tags='descender'/>
    <line x1="21.75" y1="175.0" x2="126.75" y2="175.0" stroke='grey' stroke-width='0.1' stroke-dasharray='2, 2' tags='waist'/>
    <line x1="21.75" y1="182.0" x2="126.75" y2="182.0" stroke='red' stroke-width='0.1' stroke-dasharray='2, 2' tags='base'/>
    <line x1="21.75" y1="189.0" x2="126.75" y2="189.0" stroke='blue' stroke-width='0.2' tags='descender'/>
    <line x1="21.75" y1="21.0" x2="21.75" y2="189.0" stroke='blue' stroke-width='0.05' tags='vline'/>
    <line x1="28.75" y1="21.0" x2="28.75" y2="189.0" stroke='blue' stroke-width='0.05' tags='vline'/>
    <line x1="35.75" y1="21.0" x2="35.75" y2="189.0" stroke='blue' stroke-width='0.05' tags='vline'/>
    <line x1="42.75" y1="21.0" x2="42.75" y2="189.0" stroke='blue' stroke-width='0.05' tags='vline'/>
    <line x1="49.75" y1="21.0" x2="49.75" y2="189.0" stroke='blue' stroke-width='0.05' tags='vline'/>
    <line x1="56.75" y1="21.0" x2="56.75" y2="189.0" stroke='blue' stroke-width='0.05' tags='vline'/>
    <line x1="63.75" y1="21.0" x2="63.75" y2="189.0" stroke='blue' stroke-width='0.05' tags='vline'/>
    <line x1="70.75" y1="21.0" x2="70.75" y2="189.0" stroke='blue' stroke-width='0.05' tags='vline'/>
    <line x1="77.75" y1="21.0" x2="77.75" y2="189.0" stroke='blue' stroke-width='0.05' tags='vline'/>
    <line x1="84.75" y1="21.0" x2="84.75" y2="189.0" stroke='blue' stroke-width='0.05' tags='vline'/>
    <line x1="91.75" y1="21.0" x2="91.75" y2="189.0" stroke='blue' stroke-width='0.05' tags='vline'/>
    <line x1="98.75" y1="21.0" x2="98.75" y2="189.0" stroke='blue' stroke-width='0.05' tags='vline'/>
    <line x1="105.75" y1="21.0" x2="105.75" y2="189.0" stroke='blue' stroke-width='0.05' tags='vline'/>
    <line x1="112.75" y1="21.0" x2="112.75" y2="189.0" stroke='blue' stroke-width='0.05' tags='vline'/>
    <line x1="119.75" y1="21.0" x2="119.75" y2="189.0" stroke='blue' stroke-width='0.05' tags='vline'/>
    <line x1="126.75" y1="21.0" x2="126.75" y2="189.0" stroke='blue' stroke-width='0.05' tags='vline'/>
  </g>
</svg>
