<?xml version="1.0" standalone="no"?>
<!DOCTYPE svg PUBLIC "-//W3C//DTD SVG 1.1//EN" "http://www.w3.org/Graphics/SVG/1.1/DTD/svg11.dtd">
<svg xmlns="http://www.w3.org/2000/svg" width="148.5mm" height="210.0mm" viewBox="0 0 148.5 210.0" >

  <g id="sheet">
    <line x1="24.25" y1="17.5" x2="124.25" y2="17.5" stroke='blue' stroke-width='0.2' tags='ascender2'/>
    <line x1="24.25" y1="22.5" x2="124.25" y2="22.5" stroke='grey' stroke-width='0.1' stroke-dasharray='2, 2' tags='ascender1'/>
    <line x1="24.25" y1="27.5" x2="124.25" y2="27.5" stroke='grey' stroke-width='0.1' tags='waist'/>
    <line x1="24.25" y1="32.5" x2="124.25" y2="32.5" stroke='red' stroke-width='0.1' tags='base'/>
    <line x1="24.25" y1="37.5" x2="124.25" y2="37.5" stroke='grey' stroke-width='0.1' stroke-dasharray='2, 2' tags='descender1'/>
    <line x1="24.25" y1="42.5" x2="124.25" y2="42.5" stroke='blue' stroke-width='0.2' tags='descender2'/>
    <line x1="24.25" y1="47.5" x2="124.25" y2="47.5" stroke='grey' stroke-width='0.1' stroke-dasharray='2, 2' tags='ascender1'/>
    <line x1="24.25" y1="52.5" x2="124.25" y2="52.5" stroke='grey' stroke-width='0.1' tags='waist'/>
    <line x1="24.25" y1="57.5" x2="124.25" y2="57.5" stroke='red' stroke-width='0.1' tags='base'/>
    <line x1="24.25" y1="62.5" x2="124.25" y2="62.5" stroke='grey' stroke-width='0.1' stroke-dasharray='2, 2' tags='descender1'/>
    <line x1="24.25" y1="67.5" x2="124.25" y2="67.5" stroke='blue' stroke-width='0.2' tags='descender2'/>
    <line x1="24.25" y1="72.5" x2="124.25" y2="72.5" stroke='grey' stroke-width='0.1' stroke-dasharray='2, 2' tags='ascender1'/>
    <line x1="24.25" y1="77.5" x2="124.25" y2="77.5" stroke='grey' stroke-width='0.1' tags='waist'/>
    <line x1="24.25" y1="82.5" x2="124.25" y2="82.5" stroke='red' stroke-width='0.1' tags='base'/>
    <line x1="24.25" y1="87.5" x2="124.25" y2="87.5" stroke='grey' stroke-width='0.1' stroke-dasharray='2, 2' tags='descender1'/>
    <line x1="24.25" y1="92.5" x2="124.25" y2="92.5" stroke='blue' stroke-width='0.2' tags='descender2'/>
    <line x1="24.25" y1="97.5" x2="124.25" y2="97.5" stroke='grey' stroke-width='0.1' stroke-dasharray='2, 2' tags='ascender1'/>
    <line x1="24.25" y1="102.5" x2="124.25" y2="102.5" stroke='grey' stroke-width='0.1' tags='waist'/>
    <line x1="24.25" y1="107.5" x2="124.25" y2="107.5" stroke='red' stroke-width='0.1' tags='base'/>
    <line x1="24.25" y1="112.5" x2="124.25" y2="112.5" stroke='grey' stroke-width='0.1' stroke-dasharray='2, 2' tags='descender1'/>
    <line x1="24.25" y1="117.5" x2="124.25" y2="117.5" stroke='blue' stroke-width='0.2' tags='descender2'/>
    <line x1="24.25" y1="122.5" x2="124.25" y2="122.5" stroke='grey' stroke-width='0.1' stroke-dasharray='2, 2' tags='ascender1'/>
    <line x1="24.25" y1="127.5" x2="124.25" y2="127.5" stroke='grey' stroke-width='0.1' tags='waist'/>
    <line x1="24.25" y1="132.5" x2="124.25" y2="132.5" stroke='red' stroke-width='0.1' tags='base'/>
    <line x1="24.25" y1="137.5" x2="124.25" y2="137.5" stroke='grey' stroke-width='0.1' stroke-dasharray='2, 2' tags='descender1'/>
    <line x1="24.25" y1="142.5" x2="124.25" y2="142.5" stroke='blue' stroke-width='0.2' tags='descender2'/>
    <line x1="24.25" y1="147.5" x2="124.25" y2="147.5" stroke='grey' stroke-width='0.1' stroke-dasharray='2, 2' tags='ascender1'/>
    <line x1="24.25" y1="152.5" x2="124.25" y2="152.5" stroke='grey' stroke-width='0.1' tags='waist'/>
    <line x1="24.25" y1="157.5" x2="124.25" y2="157.5" stroke='red' stroke-width='0.1' tags='base'/>
    <line x1="24.25" y1="162.5" x2="124.25" y2="162.5" stroke='grey' stroke-width='0.1' stroke-dasharray='2, 2' tags='descender1'/>
    <line x1="24.25" y1="167.5" x2="124.25" y2="167.5" stroke='blue' stroke-width='0.2' tags='descender2'/>
    <line x1="24.25" y1="172.5" x2="124.25" y2="172.5" stroke='grey' stroke-width='0.1' stroke-dasharray='2, 2' tags='ascender1'/>
    <line x1="24.25" y1="177.5" x2="124.25" y2="177.5" stroke='grey' stroke-width='0.1' tags='waist'/>
    <line x1="24.25" y1="182.5" x2="124.25" y2="182.5" stroke='red' stroke-width='0.1' tags='base'/>
    <line x1="24.25" y1="187.5" x2="124.25" y2="187.5" stroke='grey' stroke-width='0.1' stroke-dasharray='2, 2' tags='descender1'/>
    <line x1="24.25" y1="192.5" x2="124.25" y2="192.5" stroke='blue' stroke-width='0.2' tags='descender2'/>
    <line x1="24.25" y1="17.5" x2="24.25" y2="17.5" stroke='blue' stroke-width='0.1' tags='slant'/>
    <line x1="24.25" y1="25.01636" x2="30.12242" y2="17.5" stroke='blue' stroke-width='0.1' tags='slant'/>
    <line x1="24.25" y1="32.53272" x2="35.99485" y2="17.5" stroke='blue' stroke-width='0.1' tags='slant'/>
    <line x1="24.25" y1="40.04908" x2="41.86727" y2="17.5" stroke='blue' stroke-width='0.1' tags='slant'/>
    <line x1="24.25" y1="47.56544" x2="47.7397" y2="17.5" stroke='blue' stroke-width='0.1' tags='slant'/>
    <line x1="24.25" y1="55.0818" x2="53.61212" y2="17.5" stroke='blue' stroke-width='0.1' tags='slant'/>
    <line x1="24.25" y1="62.59816" x2="59.48454" y2="17.5" stroke='blue' stroke-width='0.1' tags='slant'/>
    <line x1="24.25" y1="70.11452" x2="65.35697" y2="17.5" stroke='blue' stroke-width='0.1' tags='slant'/>
    <line x1="24.25" y1="77.63088" x2="71.22939" y2="17.5" stroke='blue' stroke-width='0.1' tags='slant'/>
    <line x1="24.25" y1="85.14724" x2="77.10182" y2="17.5" stroke='blue' stroke-width='0.1' tags='slant'/>
    <line x1="24.25" y1="92.6636" x2="82.97424" y2="17.5" stroke='blue' stroke-width='0.1' tags='slant'/>
    <line x1="24.25" y1="100.17996" x2="88.84667" y2="17.5" stroke='blue' stroke-width='0.1' tags='slant'/>
    <line x1="24.25" y1="107.69632" x2="94.71909" y2="17.5" stroke='blue' stroke-width='0.1' tags='slant'/>
    <line x1="24.25" y1="115.21268" x2="100.59151" y2="17.5" stroke='blue' stroke-width='0.1' tags='slant'/>
    <line x1="24.25" y1="122.72904" x2="106.46394" y2="17.5" stroke='blue' stroke-width='0.1' tags='slant'/>
    <line x1="24.25" y1="130.2454" x2="112.33636" y2="17.5" stroke='blue' stroke-width='0.1' tags='slant'/>
    <line x1="24.25" y1="137.76176" x2="118.20879" y2="17.5" stroke='blue' stroke-width='0.1' tags='slant'/>
    <line x1="24.25" y1="145.27812" x2="124.08121" y2="17.5" stroke='blue' stroke-width='0.1' tags='slant'/>
    <line x1="24.25" y1="152.79448" x2="124.25" y2="24.80032" stroke='blue' stroke-width='0.1' tags='slant'/>
    <line x1="24.25" y1="160.31084" x2="124.25" y2="32.31668" stroke='blue' stroke-width='0.1' tags='slant'/>
    <line x1="24.25" y1="167.8272" x2="124.25" y2="39.83304" stroke='blue' stroke-width='0.1' tags='slant'/>
    <line x1="24.25" y1="175.34356" x2="124.25" y2="47.3494" stroke='blue' stroke-width='0.1' tags='slant'/>
    <line x1="24.25" y1="182.85992" x2="124.25" y2="54.86576" stroke='blue' stroke-width='0.1' tags='slant'/>
    <line x1="24.25" y1="190.37628" x2="124.25" y2="62.38212" stroke='blue' stroke-width='0.1' tags='slant'/>
    <line x1="28.46319" y1="192.5" x2="124.25" y2="69.89848" stroke='blue' stroke-width='0.1' tags='slant'/>
    <line x1="34.33562" y1="192.5" x2="124.25" y2="77.41484" stroke='blue' stroke-width='0.1' tags='slant'/>
    <line x1="40.20804" y1="192.5" x2="124.25" y2="84.9312" stroke='blue' stroke-width='0.1' tags='slant'/>
    <line x1="46.08047" y1="192.5" x2="124.25" y2="92.44756" stroke='blue' stroke-width='0.1' tags='slant'/>
    <line x1="51.95289" y1="192.5" x2="124.25" y2="99.96392" stroke='blue' stroke-width='0.1' tags='slant'/>
    <line x1="57.82532" y1="192.5" x2="124.25" y2="107.48028" stroke='blue' stroke-width='0.1' tags='slant'/>
    <line x1="63.69774" y1="192.5" x2="124.25" y2="114.99664" stroke='blue' stroke-width='0.1' tags='slant'/>
    <line x1="69.57016" y1="192.5" x2="124.25" y2="122.513" stroke='blue' stroke-width='0.1' tags='slant'/>
    <line x1="75.44259" y1="192.5" x2="124.25" y2="130.02936" stroke='blue' stroke-width='0.1' tags='slant'/>
    <line x1="81.31501" y1="192.5" x2="124.25" y2="137.54572" stroke='blue' stroke-width='0.1' tags='slant'/>
    <line x1="87.18744" y1="192.5" x2="124.25" y2="145.06208" stroke='blue' stroke-width='0.1' tags='slant'/>
    <line x1="93.05986" y1="192.5" x2="124.25" y2="152.57844" stroke='blue' stroke-width='0.1' tags='slant'/>
    <line x1="98.93228" y1="192.5" x2="124.25" y2="160.0948" stroke='blue' stroke-width='0.1' tags='slant'/>
    <line x1="104.80471" y1="192.5" x2="124.25" y2="167.61116" stroke='blue' stroke-width='0.1' tags='slant'/>
    <line x1="110.67713" y1="192.5" x2="124.25" y2="175.12752" stroke='blue' stroke-width='0.1' tags='slant'/>
    <line x1="116.54956" y1="192.5" x2="124.25" y2="182.64388" stroke='blue' stroke-width='0.1' tags='slant'/>
    <line x1="122.42198" y1="192.5" x2="124.25" y2="190.16024" stroke='blue' stroke-width='0.1' tags='slant'/>
    <line x1="24.25" y1="23.27345" x2="34.2499" y2="17.5" stroke='blue' stroke-width='0.07' stroke-dasharray='2, 2' tags='connective'/>
    <line x1="24.25" y1="29.04689" x2="44.2498" y2="17.5" stroke='blue' stroke-width='0.07' stroke-dasharray='2, 2' tags='connective'/>
    <line x1="24.25" y1="34.82034" x2="54.2497" y2="17.5" stroke='blue' stroke-width='0.07' stroke-dasharray='2, 2' tags='connective'/>
    <line x1="24.25" y1="40.59378" x2="64.2496" y2="17.5" stroke='blue' stroke-width='0.07' stroke-dasharray='2, 2' tags='connective'/>
    <line x1="24.25" y1="46.36723" x2="74.2495" y2="17.5" stroke='blue' stroke-width='0.07' stroke-dasharray='2, 2' tags='connective'/>
    <line x1="24.25" y1="52.14067" x2="84.24941" y2="17.5" stroke='blue' stroke-width='0.07' stroke-dasharray='2, 2' tags='connective'/>
    <line x1="24.25" y1="57.91412" x2="94.24931" y2="17.5" stroke='blue' stroke-width='0.07' stroke-dasharray='2, 2' tags='connective'/>
    <line x1="24.25" y1="63.68756" x2="104.24921" y2="17.5" stroke='blue' stroke-width='0.07' stroke-dasharray='2, 2' tags='connective'/>
    <line x1="24.25" y1="69.46101" x2="114.24911" y2="17.5" stroke='blue' stroke-width='0.07' stroke-dasharray='2, 2' tags='connective'/>
    <line x1="24.25" y1="75.23445" x2="124.24901" y2="17.5" stroke='blue' stroke-width='0.07' stroke-dasharray='2, 2' tags='connective'/>
    <line x1="24.25" y1="81.0079" x2="124.25" y2="23.27287" stroke='blue' stroke-width='0.07' stroke-dasharray='2, 2' tags='connective'/>
    <line x1="24.25" y1="86.78135" x2="124.25" y2="29.04632" stroke='blue' stroke-width='0.07' stroke-dasharray='2, 2' tags='connective'/>
    <line x1="24.25" y1="92.55479" x2="124.25" y2="34.81976" stroke='blue' stroke-width='0.07' stroke-dasharray='2, 2' tags='connective'/>
    <line x1="24.25" y1="98.32824" x2="124.25" y2="40.59321" stroke='blue' stroke-width='0.07' stroke-dasharray='2, 2' tags='connective'/>
    <line x1="24.25" y1="104.10168" x2="124.25" y2="46.36665" stroke='blue' stroke-width='0.07' stroke-dasharray='2, 2' tags='connective'/>
    <line x1="24.25" y1="109.87513" x2="124.25" y2="52.1401" stroke='blue' stroke-width='0.07' stroke-dasharray='2, 2' tags='connective'/>
    <line x1="24.25" y1="115.64857" x2="124.25" y2="57.91355" stroke='blue' stroke-width='0.07' stroke-dasharray='2, 2' tags='connective'/>
    <line x1="24.25" y1="121.42202" x2="124.25" y2="63.68699" stroke='blue' stroke-width='0.07' stroke-dasharray='2, 2' tags='connective'/>
    <line x1="24.25" y1="127.19546" x2="124.25" y2="69.46044" stroke='blue' stroke-width='0.07' stroke-dasharray='2, 2' tags='connective'/>
    <line x1="24.25" y1="132.96891" x2="124.25" y2="75.23388" stroke='blue' stroke-width='0.07' stroke-dasharray='2, 2' tags='connective'/>
    <line x1="24.25" y1="138.74235" x2="124.25" y2="81.00733" stroke='blue' stroke-width='0.07' stroke-dasharray='2, 2' tags='connective'/>
    <line x1="24.25" y1="144.5158" x2="124.25" y2="86.78077" stroke='blue' stroke-width='0.07' stroke-dasharray='2, 2' tags='connective'/>
    <line x1="24.25" y1="150.28925" x2="124.25" y2="92.55422" stroke='blue' stroke-width='0.07' stroke-dasharray='2, 2' tags='connective'/>
    <line x1="24.25" y1="156.06269" x2="124.25" y2="98.32766" stroke='blue' stroke-width='0.07' stroke-dasharray='2, 2' tags='connective'/>
    <line x1="24.25" y1="161.83614" x2="124.25" y2="104.10111" stroke='blue' stroke-width='0.07' stroke-dasharray='2, 2' tags='connective'/>
    <line x1="24.25" y1="167.60958" x2="124.25" y2="109.87456" stroke='blue' stroke-width='0.07' stroke-dasharray='2, 2' tags='connective'/>
    <line x1="24.25" y1="173.38303" x2="124.25" y2="115.648" stroke='blue' stroke-width='0.07' stroke-dasharray='2, 2' tags='connective'/>
    <line x1="24.25" y1="179.15647" x2="124.25" y2="121.42145" stroke='blue' stroke-width='0.07' stroke-dasharray='2, 2' tags='connective'/>
    <line x1="24.25" y1="184.92992" x2="124.25" y2="127.19489" stroke='blue' stroke-width='0.07' stroke-dasharray='2, 2' tags='connective'/>
    <line x1="24.25" y1="190.70336" x2="124.25" y2="132.96834" stroke='blue' stroke-width='0.07' stroke-dasharray='2, 2' tags='connective'/>
    <line x1="31.13804" y1="192.5" x2="124.25" y2="138.74178" stroke='blue' stroke-width='0.07' stroke-dasharray='2, 2' tags='connective'/>
    <line x1="41.13794" y1="192.5" x2="124.25" y2="144.51523" stroke='blue' stroke-width='0.07' stroke-dasharray='2, 2' tags='connective'/>
    <line x1="51.13784" y1="192.5" x2="124.25" y2="150.28867" stroke='blue' stroke-width='0.07' stroke-dasharray='2, 2' tags='connective'/>
    <line x1="61.13774" y1="192.5" x2="124.25" y2="156.06212" stroke='blue' stroke-width='0.07' stroke-dasharray='2, 2' tags='connective'/>
    <line x1="71.13764" y1="192.5" x2="124.25" y2="161.83556" stroke='blue' stroke-width='0.07' stroke-dasharray='2, 2' tags='connective'/>
    <line x1="81.13754" y1="192.5" x2="124.25" y2="167.60901" stroke='blue' stroke-width='0.07' stroke-dasharray='2, 2' tags='connective'/>
    <line x1="91.13744" y1="192.5" x2="124.25" y2="173.38246" stroke='blue' stroke-width='0.07' stroke-dasharray='2, 2' tags='connective'/>
    <line x1="101.13734" y1="192.5" x2="124.25" y2="179.1559" stroke='blue' stroke-width='0.07' stroke-dasharray='2, 2' tags='connective'/>
    <line x1="111.13724" y1="192.5" x2="124.25" y2="184.92935" stroke='blue' stroke-width='0.07' stroke-dasharray='2, 2' tags='connective'/>
    <line x1="121.13714" y1="192.5" x2="124.25" y2="190.70279" stroke='blue' stroke-width='0.07' stroke-dasharray='2, 2' tags='connective'/>
  </g>
</svg>
