<?xml version="1.0" standalone="no"?>
<!DOCTYPE svg PUBLIC "-//W3C//DTD SVG 1.1//EN" "http://www.w3.org/Graphics/SVG/1.1/DTD/svg11.dtd">
<svg xmlns="http://www.w3.org/2000/svg" width="148.5mm" height="210.0mm" viewBox="0 0 148.5 210.0" >

  <g id="sheet">
    <line x1="14.25" y1="25.0" x2="134.25" y2="25.0" stroke='blue' stroke-width='0.2' tags='ascender2'/>
    <line x1="14.25" y1="28.75" x2="134.25" y2="28.75" stroke='grey' stroke-width='0.1' stroke-dasharray='2, 2' tags='ascender1'/>
    <line x1="14.25" y1="32.5" x2="134.25" y2="32.5" stroke='grey' stroke-width='0.1' tags='waist'/>
    <line x1="14.25" y1="37.5" x2="134.25" y2="37.5" stroke='red' stroke-width='0.1' tags='base'/>
    <line x1="14.25" y1="41.25" x2="134.25" y2="41.25" stroke='grey' stroke-width='0.1' stroke-dasharray='2, 2' tags='descender1'/>
    <line x1="14.25" y1="45.0" x2="134.25" y2="45.0" stroke='blue' stroke-width='0.2' tags='descender2'/>
    <line x1="14.25" y1="48.75" x2="134.25" y2="48.75" stroke='grey' stroke-width='0.1' stroke-dasharray='2, 2' tags='ascender1'/>
    <line x1="14.25" y1="52.5" x2="134.25" y2="52.5" stroke='grey' stroke-width='0.1' tags='waist'/>
    <line x1="14.25" y1="57.5" x2="134.25" y2="57.5" stroke='red' stroke-width='0.1' tags='base'/>
    <line x1="14.25" y1="61.25" x2="134.25" y2="61.25" stroke='grey' stroke-width='0.1' stroke-dasharray='2, 2' tags='descender1'/>
    <line x1="14.25" y1="65.0" x2="134.25" y2="65.0" stroke='blue' stroke-width='0.2' tags='descender2'/>
    <line x1="14.25" y1="68.75" x2="134.25" y2="68.75" stroke='grey' stroke-width='0.1' stroke-dasharray='2, 2' tags='ascender1'/>
    <line x1="14.25" y1="72.5" x2="134.25" y2="72.5" stroke='grey' stroke-width='0.1' tags='waist'/>
    <line x1="14.25" y1="77.5" x2="134.25" y2="77.5" stroke='red' stroke-width='0.1' tags='base'/>
    <line x1="14.25" y1="81.25" x2="134.25" y2="81.25" stroke='grey' stroke-width='0.1' stroke-dasharray='2, 2' tags='descender1'/>
    <line x1="14.25" y1="85.0" x2="134.25" y2="85.0" stroke='blue' stroke-width='0.2' tags='descender2'/>
    <line x1="14.25" y1="88.75" x2="134.25" y2="88.75" stroke='grey' stroke-width='0.1' stroke-dasharray='2, 2' tags='ascender1'/>
    <line x1="14.25" y1="92.5" x2="134.25" y2="92.5" stroke='grey' stroke-width='0.1' tags='waist'/>
    <line x1="14.25" y1="97.5" x2="134.25" y2="97.5" stroke='red' stroke-width='0.1' tags='base'/>
    <line x1="14.25" y1="101.25" x2="134.25" y2="101.25" stroke='grey' stroke-width='0.1' stroke-dasharray='2, 2' tags='descender1'/>
    <line x1="14.25" y1="105.0" x2="134.25" y2="105.0" stroke='blue' stroke-width='0.2' tags='descender2'/>
    <line x1="14.25" y1="108.75" x2="134.25" y2="108.75" stroke='grey' stroke-width='0.1' stroke-dasharray='2, 2' tags='ascender1'/>
    <line x1="14.25" y1="112.5" x2="134.25" y2="112.5" stroke='grey' stroke-width='0.1' tags='waist'/>
    <line x1="14.25" y1="117.5" x2="134.25" y2="117.5" stroke='red' stroke-width='0.1' tags='base'/>
    <line x1="14.25" y1="121.25" x2="134.25" y2="121.25" stroke='grey' stroke-width='0.1' stroke-dasharray='2, 2' tags='descender1'/>
    <line x1="14.25" y1="125.0" x2="134.25" y2="125.0" stroke='blue' stroke-width='0.2' tags='descender2'/>
    <line x1="14.25" y1="128.75" x2="134.25" y2="128.75" stroke='grey' stroke-width='0.1' stroke-dasharray='2, 2' tags='ascender1'/>
    <line x1="14.25" y1="132.5" x2="134.25" y2="132.5" stroke='grey' stroke-width='0.1' tags='waist'/>
    <line x1="14.25" y1="137.5" x2="134.25" y2="137.5" stroke='red' stroke-width='0.1' tags='base'/>
    <line x1="14.25" y1="141.25" x2="134.25" y2="141.25" stroke='grey' stroke-width='0.1' stroke-dasharray='2, 2' tags='descender1'/>
    <line x1="14.25" y1="145.0" x2="134.25" y2="145.0" stroke='blue' stroke-width='0.2' tags='descender2'/>
    <line x1="14.25" y1="148.75" x2="134.25" y2="148.75" stroke='grey' stroke-width='0.1' stroke-dasharray='2, 2' tags='ascender1'/>
    <line x1="14.25" y1="152.5" x2="134.25" y2="152.5" stroke='grey' stroke-width='0.1' tags='waist'/>
    <line x1="14.25" y1="157.5" x2="134.25" y2="157.5" stroke='red' stroke-width='0.1' tags='base'/>
    <line x1="14.25" y1="161.25" x2="134.25" y2="161.25" stroke='grey' stroke-width='0.1' stroke-dasharray='2, 2' tags='descender1'/>
    <line x1="14.25" y1="165.0" x2="134.25" y2="165.0" stroke='blue' stroke-width='0.2' tags='descender2'/>
    <line x1="14.25" y1="168.75" x2="134.25" y2="168.75" stroke='grey' stroke-width='0.1' stroke-dasharray='2, 2' tags='ascender1'/>
    <line x1="14.25" y1="172.5" x2="134.25" y2="172.5" stroke='grey' stroke-width='0.1' tags='waist'/>
    <line x1="14.25" y1="177.5" x2="134.25" y2="177.5" stroke='red' stroke-width='0.1' tags='base'/>
    <line x1="14.25" y1="181.25" x2="134.25" y2="181.25" stroke='grey' stroke-width='0.1' stroke-dasharray='2, 2' tags='descender1'/>
    <line x1="14.25" y1="185.0" x2="134.25" y2="185.0" stroke='blue' stroke-width='0.2' tags='descender2'/>
    <line x1="14.25" y1="25.0" x2="14.25" y2="25.0" stroke='blue' stroke-width='0.1' tags='slant'/>
    <line x1="14.25" y1="32.83982" x2="20.37514" y2="25.0" stroke='blue' stroke-width='0.1' tags='slant'/>
    <line x1="14.25" y1="40.67965" x2="26.50029" y2="25.0" stroke='blue' stroke-width='0.1' tags='slant'/>
    <line x1="14.25" y1="48.51947" x2="32.62543" y2="25.0" stroke='blue' stroke-width='0.1' tags='slant'/>
    <line x1="14.25" y1="56.3593" x2="38.75057" y2="25.0" stroke='blue' stroke-width='0.1' tags='slant'/>
    <line x1="14.25" y1="64.19912" x2="44.87571" y2="25.0" stroke='blue' stroke-width='0.1' tags='slant'/>
    <line x1="14.25" y1="72.03895" x2="51.00086" y2="25.0" stroke='blue' stroke-width='0.1' tags='slant'/>
    <line x1="14.25" y1="79.87877" x2="57.126" y2="25.0" stroke='blue' stroke-width='0.1' tags='slant'/>
    <line x1="14.25" y1="87.7186" x2="63.25114" y2="25.0" stroke='blue' stroke-width='0.1' tags='slant'/>
    <line x1="14.25" y1="95.55842" x2="69.37628" y2="25.0" stroke='blue' stroke-width='0.1' tags='slant'/>
    <line x1="14.25" y1="103.39825" x2="75.50143" y2="25.0" stroke='blue' stroke-width='0.1' tags='slant'/>
    <line x1="14.25" y1="111.23807" x2="81.62657" y2="25.0" stroke='blue' stroke-width='0.1' tags='slant'/>
    <line x1="14.25" y1="119.0779" x2="87.75171" y2="25.0" stroke='blue' stroke-width='0.1' tags='slant'/>
    <line x1="14.25" y1="126.91772" x2="93.87685" y2="25.0" stroke='blue' stroke-width='0.1' tags='slant'/>
    <line x1="14.25" y1="134.75755" x2="100.002" y2="25.0" stroke='blue' stroke-width='0.1' tags='slant'/>
    <line x1="14.25" y1="142.59737" x2="106.12714" y2="25.0" stroke='blue' stroke-width='0.1' tags='slant'/>
    <line x1="14.25" y1="150.4372" x2="112.25228" y2="25.0" stroke='blue' stroke-width='0.1' tags='slant'/>
    <line x1="14.25" y1="158.27702" x2="118.37742" y2="25.0" stroke='blue' stroke-width='0.1' tags='slant'/>
    <line x1="14.25" y1="166.11685" x2="124.50257" y2="25.0" stroke='blue' stroke-width='0.1' tags='slant'/>
    <line x1="14.25" y1="173.95667" x2="130.62771" y2="25.0" stroke='blue' stroke-width='0.1' tags='slant'/>
    <line x1="14.25" y1="181.7965" x2="134.25" y2="28.2035" stroke='blue' stroke-width='0.1' tags='slant'/>
    <line x1="17.87229" y1="185.0" x2="134.25" y2="36.04333" stroke='blue' stroke-width='0.1' tags='slant'/>
    <line x1="23.99743" y1="185.0" x2="134.25" y2="43.88315" stroke='blue' stroke-width='0.1' tags='slant'/>
    <line x1="30.12258" y1="185.0" x2="134.25" y2="51.72298" stroke='blue' stroke-width='0.1' tags='slant'/>
    <line x1="36.24772" y1="185.0" x2="134.25" y2="59.5628" stroke='blue' stroke-width='0.1' tags='slant'/>
    <line x1="42.37286" y1="185.0" x2="134.25" y2="67.40263" stroke='blue' stroke-width='0.1' tags='slant'/>
    <line x1="48.498" y1="185.0" x2="134.25" y2="75.24245" stroke='blue' stroke-width='0.1' tags='slant'/>
    <line x1="54.62315" y1="185.0" x2="134.25" y2="83.08228" stroke='blue' stroke-width='0.1' tags='slant'/>
    <line x1="60.74829" y1="185.0" x2="134.25" y2="90.9221" stroke='blue' stroke-width='0.1' tags='slant'/>
    <line x1="66.87343" y1="185.0" x2="134.25" y2="98.76193" stroke='blue' stroke-width='0.1' tags='slant'/>
    <line x1="72.99857" y1="185.0" x2="134.25" y2="106.60175" stroke='blue' stroke-width='0.1' tags='slant'/>
    <line x1="79.12372" y1="185.0" x2="134.25" y2="114.44158" stroke='blue' stroke-width='0.1' tags='slant'/>
    <line x1="85.24886" y1="185.0" x2="134.25" y2="122.2814" stroke='blue' stroke-width='0.1' tags='slant'/>
    <line x1="91.374" y1="185.0" x2="134.25" y2="130.12123" stroke='blue' stroke-width='0.1' tags='slant'/>
    <line x1="97.49914" y1="185.0" x2="134.25" y2="137.96105" stroke='blue' stroke-width='0.1' tags='slant'/>
    <line x1="103.62429" y1="185.0" x2="134.25" y2="145.80088" stroke='blue' stroke-width='0.1' tags='slant'/>
    <line x1="109.74943" y1="185.0" x2="134.25" y2="153.6407" stroke='blue' stroke-width='0.1' tags='slant'/>
    <line x1="115.87457" y1="185.0" x2="134.25" y2="161.48053" stroke='blue' stroke-width='0.1' tags='slant'/>
    <line x1="121.99971" y1="185.0" x2="134.25" y2="169.32035" stroke='blue' stroke-width='0.1' tags='slant'/>
    <line x1="128.12486" y1="185.0" x2="134.25" y2="177.16018" stroke='blue' stroke-width='0.1' tags='slant'/>
    <line x1="14.25" y1="30.73205" x2="24.1782" y2="25.0" stroke='blue' stroke-width='0.07' stroke-dasharray='2, 2' tags='connective'/>
    <line x1="14.25" y1="36.4641" x2="34.10641" y2="25.0" stroke='blue' stroke-width='0.07' stroke-dasharray='2, 2' tags='connective'/>
    <line x1="14.25" y1="42.19615" x2="44.03461" y2="25.0" stroke='blue' stroke-width='0.07' stroke-dasharray='2, 2' tags='connective'/>
    <line x1="14.25" y1="47.9282" x2="53.96281" y2="25.0" stroke='blue' stroke-width='0.07' stroke-dasharray='2, 2' tags='connective'/>
    <line x1="14.25" y1="53.66025" x2="63.89102" y2="25.0" stroke='blue' stroke-width='0.07' stroke-dasharray='2, 2' tags='connective'/>
    <line x1="14.25" y1="59.3923" x2="73.81922" y2="25.0" stroke='blue' stroke-width='0.07' stroke-dasharray='2, 2' tags='connective'/>
    <line x1="14.25" y1="65.12436" x2="83.74742" y2="25.0" stroke='blue' stroke-width='0.07' stroke-dasharray='2, 2' tags='connective'/>
    <line x1="14.25" y1="70.85641" x2="93.67563" y2="25.0" stroke='blue' stroke-width='0.07' stroke-dasharray='2, 2' tags='connective'/>
    <line x1="14.25" y1="76.58846" x2="103.60383" y2="25.0" stroke='blue' stroke-width='0.07' stroke-dasharray='2, 2' tags='connective'/>
    <line x1="14.25" y1="82.32051" x2="113.53203" y2="25.0" stroke='blue' stroke-width='0.07' stroke-dasharray='2, 2' tags='connective'/>
    <line x1="14.25" y1="88.05256" x2="123.46024" y2="25.0" stroke='blue' stroke-width='0.07' stroke-dasharray='2, 2' tags='connective'/>
    <line x1="14.25" y1="93.78461" x2="133.38844" y2="25.0" stroke='blue' stroke-width='0.07' stroke-dasharray='2, 2' tags='connective'/>
    <line x1="14.25" y1="99.51666" x2="134.25" y2="30.23463" stroke='blue' stroke-width='0.07' stroke-dasharray='2, 2' tags='connective'/>
    <line x1="14.25" y1="105.24871" x2="134.25" y2="35.96668" stroke='blue' stroke-width='0.07' stroke-dasharray='2, 2' tags='connective'/>
    <line x1="14.25" y1="110.98076" x2="134.25" y2="41.69873" stroke='blue' stroke-width='0.07' stroke-dasharray='2, 2' tags='connective'/>
    <line x1="14.25" y1="116.71281" x2="134.25" y2="47.43078" stroke='blue' stroke-width='0.07' stroke-dasharray='2, 2' tags='connective'/>
    <line x1="14.25" y1="122.44486" x2="134.25" y2="53.16283" stroke='blue' stroke-width='0.07' stroke-dasharray='2, 2' tags='connective'/>
    <line x1="14.25" y1="128.17691" x2="134.25" y2="58.89488" stroke='blue' stroke-width='0.07' stroke-dasharray='2, 2' tags='connective'/>
    <line x1="14.25" y1="133.90897" x2="134.25" y2="64.62693" stroke='blue' stroke-width='0.07' stroke-dasharray='2, 2' tags='connective'/>
    <line x1="14.25" y1="139.64102" x2="134.25" y2="70.35898" stroke='blue' stroke-width='0.07' stroke-dasharray='2, 2' tags='connective'/>
    <line x1="14.25" y1="145.37307" x2="134.25" y2="76.09103" stroke='blue' stroke-width='0.07' stroke-dasharray='2, 2' tags='connective'/>
    <line x1="14.25" y1="151.10512" x2="134.25" y2="81.82309" stroke='blue' stroke-width='0.07' stroke-dasharray='2, 2' tags='connective'/>
    <line x1="14.25" y1="156.83717" x2="134.25" y2="87.55514" stroke='blue' stroke-width='0.07' stroke-dasharray='2, 2' tags='connective'/>
    <line x1="14.25" y1="162.56922" x2="134.25" y2="93.28719" stroke='blue' stroke-width='0.07' stroke-dasharray='2, 2' tags='connective'/>
    <line x1="14.25" y1="168.30127" x2="134.25" y2="99.01924" stroke='blue' stroke-width='0.07' stroke-dasharray='2, 2' tags='connective'/>
    <line x1="14.25" y1="174.03332" x2="134.25" y2="104.75129" stroke='blue' stroke-width='0.07' stroke-dasharray='2, 2' tags='connective'/>
    <line x1="14.25" y1="179.76537" x2="134.25" y2="110.48334" stroke='blue' stroke-width='0.07' stroke-dasharray='2, 2' tags='connective'/>
    <line x1="15.11156" y1="185.0" x2="134.25" y2="116.21539" stroke='blue' stroke-width='0.07' stroke-dasharray='2, 2' tags='connective'/>
    <line x1="25.03976" y1="185.0" x2="134.25" y2="121.94744" stroke='blue' stroke-width='0.07' stroke-dasharray='2, 2' tags='connective'/>
    <line x1="34.96797" y1="185.0" x2="134.25" y2="127.67949" stroke='blue' stroke-width='0.07' stroke-dasharray='2, 2' tags='connective'/>
    <line x1="44.89617" y1="185.0" x2="134.25" y2="133.41154" stroke='blue' stroke-width='0.07' stroke-dasharray='2, 2' tags='connective'/>
    <line x1="54.82437" y1="185.0" x2="134.25" y2="139.14359" stroke='blue' stroke-width='0.07' stroke-dasharray='2, 2' tags='connective'/>
    <line x1="64.75258" y1="185.0" x2="134.25" y2="144.87564" stroke='blue' stroke-width='0.07' stroke-dasharray='2, 2' tags='connective'/>
    <line x1="74.68078" y1="185.0" x2="134.25" y2="150.6077" stroke='blue' stroke-width='0.07' stroke-dasharray='2, 2' tags='connective'/>
    <line x1="84.60898" y1="185.0" x2="134.25" y2="156.33975" stroke='blue' stroke-width='0.07' stroke-dasharray='2, 2' tags='connective'/>
    <line x1="94.53719" y1="185.0" x2="134.25" y2="162.0718" stroke='blue' stroke-width='0.07' stroke-dasharray='2, 2' tags='connective'/>
    <line x1="104.46539" y1="185.0" x2="134.25" y2="167.80385" stroke='blue' stroke-width='0.07' stroke-dasharray='2, 2' tags='connective'/>
    <line x1="114.39359" y1="185.0" x2="134.25" y2="173.5359" stroke='blue' stroke-width='0.07' stroke-dasharray='2, 2' tags='connective'/>
    <line x1="124.3218" y1="185.0" x2="134.25" y2="179.26795" stroke='blue' stroke-width='0.07' stroke-dasharray='2, 2' tags='connective'/>
  </g>
</svg>
