<?xml version="1.0" standalone="no"?>
<!DOCTYPE svg PUBLIC "-//W3C//DTD SVG 1.1//EN" "http://www.w3.org/Graphics/SVG/1.1/DTD/svg11.dtd">
<svg xmlns="http://www.w3.org/2000/svg" width="210.0mm" height="148.5mm" viewBox="0 0 210.0 148.5" shape-rendering="geometricPrecision" >
  <style>
    svg         { stroke:            #ed008c; }
    svg         { stroke-width:         0.04; }
    .altcolor   { stroke:               blue; }
    .extrafine  { stroke-width:         0.01; }
    .fine       { stroke-width:         0.02; }
    .medium     { stroke-width:         0.04; }
    .broad      { stroke-width:         0.08; }
    .extrabroad { stroke-width:         0.16; }
    .dashed     { stroke-dasharray:      2 2; }
  </style>
  <g id="sheet">
    <line x1="25.0" y1="34.25" x2="185.0" y2="34.25" class='hline'/>
    <line x1="25.0" y1="44.25" x2="185.0" y2="44.25" class='hline'/>
    <line x1="25.0" y1="54.25" x2="185.0" y2="54.25" class='hline'/>
    <line x1="25.0" y1="64.25" x2="185.0" y2="64.25" class='hline'/>
    <line x1="25.0" y1="74.25" x2="185.0" y2="74.25" class='hline'/>
    <line x1="25.0" y1="84.25" x2="185.0" y2="84.25" class='hline'/>
    <line x1="25.0" y1="94.25" x2="185.0" y2="94.25" class='hline'/>
    <line x1="25.0" y1="104.25" x2="185.0" y2="104.25" class='hline'/>
    <line x1="25.0" y1="114.25" x2="185.0" y2="114.25" class='hline'/>
    <line x1="25.0" y1="34.25" x2="25.0" y2="114.25" class='vline'/>
    <line x1="35.0" y1="34.25" x2="35.0" y2="114.25" class='vline'/>
    <line x1="45.0" y1="34.25" x2="45.0" y2="114.25" class='vline'/>
    <line x1="55.0" y1="34.25" x2="55.0" y2="114.25" class='vline'/>
    <line x1="65.0" y1="34.25" x2="65.0" y2="114.25" class='vline'/>
    <line x1="75.0" y1="34.25" x2="75.0" y2="114.25" class='vline'/>
    <line x1="85.0" y1="34.25" x2="85.0" y2="114.25" class='vline'/>
    <line x1="95.0" y1="34.25" x2="95.0" y2="114.25" class='vline'/>
    <line x1="105.0" y1="34.25" x2="105.0" y2="114.25" class='vline'/>
    <line x1="115.0" y1="34.25" x2="115.0" y2="114.25" class='vline'/>
    <line x1="125.0" y1="34.25" x2="125.0" y2="114.25" class='vline'/>
    <line x1="135.0" y1="34.25" x2="135.0" y2="114.25" class='vline'/>
    <line x1="145.0" y1="34.25" x2="145.0" y2="114.25" class='vline'/>
    <line x1="155.0" y1="34.25" x2="155.0" y2="114.25" class='vline'/>
    <line x1="165.0" y1="34.25" x2="165.0" y2="114.25" class='vline'/>
    <line x1="175.0" y1="34.25" x2="175.0" y2="114.25" class='vline'/>
    <line x1="185.0" y1="34.25" x2="185.0" y2="114.25" class='vline'/>
    <rect width="80.0" height="80.0" x="25.0" y="34.25" fill='none' class='square extrabroad'/>
    <rect width="80.0" height="80.0" x="105.0" y="34.25" fill='none' class='square extrabroad'/>
  </g>
</svg>
