<?xml version="1.0" standalone="no"?>
<!DOCTYPE svg PUBLIC "-//W3C//DTD SVG 1.1//EN" "http://www.w3.org/Graphics/SVG/1.1/DTD/svg11.dtd">
<svg xmlns="http://www.w3.org/2000/svg" width="148.5mm" height="210.0mm" viewBox="0 0 148.5 210.0" shape-rendering="geometricPrecision" >
  <style>
    svg         { stroke:            #ed008c; }
    svg         { stroke-width:         0.04; }
    .altcolor   { stroke:               blue; }
    .extrafine  { stroke-width:         0.01; }
    .fine       { stroke-width:         0.02; }
    .medium     { stroke-width:         0.04; }
    .broad      { stroke-width:         0.08; }
    .extrabroad { stroke-width:         0.16; }
    .dashed     { stroke-dasharray:      2 2; }
  </style>
  <g id="sheet">
    <line x1="34.25" y1="25.0" x2="114.25" y2="25.0" class='hline'/>
    <line x1="34.25" y1="35.0" x2="114.25" y2="35.0" class='hline'/>
    <line x1="34.25" y1="45.0" x2="114.25" y2="45.0" class='hline'/>
    <line x1="34.25" y1="55.0" x2="114.25" y2="55.0" class='hline'/>
    <line x1="34.25" y1="65.0" x2="114.25" y2="65.0" class='hline'/>
    <line x1="34.25" y1="75.0" x2="114.25" y2="75.0" class='hline'/>
    <line x1="34.25" y1="85.0" x2="114.25" y2="85.0" class='hline'/>
    <line x1="34.25" y1="95.0" x2="114.25" y2="95.0" class='hline'/>
    <line x1="34.25" y1="105.0" x2="114.25" y2="105.0" class='hline'/>
    <line x1="34.25" y1="115.0" x2="114.25" y2="115.0" class='hline'/>
    <line x1="34.25" y1="125.0" x2="114.25" y2="125.0" class='hline'/>
    <line x1="34.25" y1="135.0" x2="114.25" y2="135.0" class='hline'/>
    <line x1="34.25" y1="145.0" x2="114.25" y2="145.0" class='hline'/>
    <line x1="34.25" y1="155.0" x2="114.25" y2="155.0" class='hline'/>
    <line x1="34.25" y1="165.0" x2="114.25" y2="165.0" class='hline'/>
    <line x1="34.25" y1="175.0" x2="114.25" y2="175.0" class='hline'/>
    <line x1="34.25" y1="185.0" x2="114.25" y2="185.0" class='hline'/>
    <line x1="34.25" y1="25.0" x2="34.25" y2="185.0" class='vline'/>
    <line x1="44.25" y1="25.0" x2="44.25" y2="185.0" class='vline'/>
    <line x1="54.25" y1="25.0" x2="54.25" y2="185.0" class='vline'/>
    <line x1="64.25" y1="25.0" x2="64.25" y2="185.0" class='vline'/>
    <line x1="74.25" y1="25.0" x2="74.25" y2="185.0" class='vline'/>
    <line x1="84.25" y1="25.0" x2="84.25" y2="185.0" class='vline'/>
    <line x1="94.25" y1="25.0" x2="94.25" y2="185.0" class='vline'/>
    <line x1="104.25" y1="25.0" x2="104.25" y2="185.0" class='vline'/>
    <line x1="114.25" y1="25.0" x2="114.25" y2="185.0" class='vline'/>
    <rect width="80.0" height="80.0" x="34.25" y="25.0" fill='none' class='square'/>
    <rect width="80.0" height="80.0" x="34.25" y="105.0" fill='none' class='square'/>
  </g>
</svg>
