<?xml version="1.0" standalone="no"?>
<!DOCTYPE svg PUBLIC "-//W3C//DTD SVG 1.1//EN" "http://www.w3.org/Graphics/SVG/1.1/DTD/svg11.dtd">
<svg xmlns="http://www.w3.org/2000/svg" width="210.0mm" height="148.5mm" viewBox="0 0 210.0 148.5" >

  <g id="sheet">
    <line x1="21.0" y1="18.25" x2="189.0" y2="18.25" stroke='blue' stroke-width='0.1' tags='hline'/>
    <line x1="21.0" y1="25.25" x2="189.0" y2="25.25" stroke='blue' stroke-width='0.1' tags='hline'/>
    <line x1="21.0" y1="32.25" x2="189.0" y2="32.25" stroke='blue' stroke-width='0.1' tags='hline'/>
    <line x1="21.0" y1="39.25" x2="189.0" y2="39.25" stroke='blue' stroke-width='0.1' tags='hline'/>
    <line x1="21.0" y1="46.25" x2="189.0" y2="46.25" stroke='blue' stroke-width='0.1' tags='hline'/>
    <line x1="21.0" y1="53.25" x2="189.0" y2="53.25" stroke='blue' stroke-width='0.1' tags='hline'/>
    <line x1="21.0" y1="60.25" x2="189.0" y2="60.25" stroke='blue' stroke-width='0.1' tags='hline'/>
    <line x1="21.0" y1="67.25" x2="189.0" y2="67.25" stroke='blue' stroke-width='0.1' tags='hline'/>
    <line x1="21.0" y1="74.25" x2="189.0" y2="74.25" stroke='blue' stroke-width='0.1' tags='hline'/>
    <line x1="21.0" y1="81.25" x2="189.0" y2="81.25" stroke='blue' stroke-width='0.1' tags='hline'/>
    <line x1="21.0" y1="88.25" x2="189.0" y2="88.25" stroke='blue' stroke-width='0.1' tags='hline'/>
    <line x1="21.0" y1="95.25" x2="189.0" y2="95.25" stroke='blue' stroke-width='0.1' tags='hline'/>
    <line x1="21.0" y1="102.25" x2="189.0" y2="102.25" stroke='blue' stroke-width='0.1' tags='hline'/>
    <line x1="21.0" y1="109.25" x2="189.0" y2="109.25" stroke='blue' stroke-width='0.1' tags='hline'/>
    <line x1="21.0" y1="116.25" x2="189.0" y2="116.25" stroke='blue' stroke-width='0.1' tags='hline'/>
    <line x1="21.0" y1="123.25" x2="189.0" y2="123.25" stroke='blue' stroke-width='0.1' tags='hline'/>
    <line x1="21.0" y1="130.25" x2="189.0" y2="130.25" stroke='blue' stroke-width='0.1' tags='hline'/>
    <line x1="21.0" y1="18.25" x2="21.0" y2="130.25" stroke='blue' stroke-width='0.1' tags='vline'/>
    <line x1="28.0" y1="18.25" x2="28.0" y2="130.25" stroke='blue' stroke-width='0.1' tags='vline'/>
    <line x1="35.0" y1="18.25" x2="35.0" y2="130.25" stroke='blue' stroke-width='0.1' tags='vline'/>
    <line x1="42.0" y1="18.25" x2="42.0" y2="130.25" stroke='blue' stroke-width='0.1' tags='vline'/>
    <line x1="49.0" y1="18.25" x2="49.0" y2="130.25" stroke='blue' stroke-width='0.1' tags='vline'/>
    <line x1="56.0" y1="18.25" x2="56.0" y2="130.25" stroke='blue' stroke-width='0.1' tags='vline'/>
    <line x1="63.0" y1="18.25" x2="63.0" y2="130.25" stroke='blue' stroke-width='0.1' tags='vline'/>
    <line x1="70.0" y1="18.25" x2="70.0" y2="130.25" stroke='blue' stroke-width='0.1' tags='vline'/>
    <line x1="77.0" y1="18.25" x2="77.0" y2="130.25" stroke='blue' stroke-width='0.1' tags='vline'/>
    <line x1="84.0" y1="18.25" x2="84.0" y2="130.25" stroke='blue' stroke-width='0.1' tags='vline'/>
    <line x1="91.0" y1="18.25" x2="91.0" y2="130.25" stroke='blue' stroke-width='0.1' tags='vline'/>
    <line x1="98.0" y1="18.25" x2="98.0" y2="130.25" stroke='blue' stroke-width='0.1' tags='vline'/>
    <line x1="105.0" y1="18.25" x2="105.0" y2="130.25" stroke='blue' stroke-width='0.1' tags='vline'/>
    <line x1="112.0" y1="18.25" x2="112.0" y2="130.25" stroke='blue' stroke-width='0.1' tags='vline'/>
    <line x1="119.0" y1="18.25" x2="119.0" y2="130.25" stroke='blue' stroke-width='0.1' tags='vline'/>
    <line x1="126.0" y1="18.25" x2="126.0" y2="130.25" stroke='blue' stroke-width='0.1' tags='vline'/>
    <line x1="133.0" y1="18.25" x2="133.0" y2="130.25" stroke='blue' stroke-width='0.1' tags='vline'/>
    <line x1="140.0" y1="18.25" x2="140.0" y2="130.25" stroke='blue' stroke-width='0.1' tags='vline'/>
    <line x1="147.0" y1="18.25" x2="147.0" y2="130.25" stroke='blue' stroke-width='0.1' tags='vline'/>
    <line x1="154.0" y1="18.25" x2="154.0" y2="130.25" stroke='blue' stroke-width='0.1' tags='vline'/>
    <line x1="161.0" y1="18.25" x2="161.0" y2="130.25" stroke='blue' stroke-width='0.1' tags='vline'/>
    <line x1="168.0" y1="18.25" x2="168.0" y2="130.25" stroke='blue' stroke-width='0.1' tags='vline'/>
    <line x1="175.0" y1="18.25" x2="175.0" y2="130.25" stroke='blue' stroke-width='0.1' tags='vline'/>
    <line x1="182.0" y1="18.25" x2="182.0" y2="130.25" stroke='blue' stroke-width='0.1' tags='vline'/>
    <line x1="189.0" y1="18.25" x2="189.0" y2="130.25" stroke='blue' stroke-width='0.1' tags='vline'/>
    <rect width="56.0" height="56.0" x="21.0" y="18.25" stroke='blue' stroke-width='0.2' fill='none' tags='rect'/>
    <rect width="56.0" height="56.0" x="77.0" y="18.25" stroke='blue' stroke-width='0.2' fill='none' tags='rect'/>
    <rect width="56.0" height="56.0" x="133.0" y="18.25" stroke='blue' stroke-width='0.2' fill='none' tags='rect'/>
    <rect width="56.0" height="56.0" x="21.0" y="74.25" stroke='blue' stroke-width='0.2' fill='none' tags='rect'/>
    <rect width="56.0" height="56.0" x="77.0" y="74.25" stroke='blue' stroke-width='0.2' fill='none' tags='rect'/>
    <rect width="56.0" height="56.0" x="133.0" y="74.25" stroke='blue' stroke-width='0.2' fill='none' tags='rect'/>
  </g>
</svg>
