<?xml version="1.0" standalone="no"?>
<!DOCTYPE svg PUBLIC "-//W3C//DTD SVG 1.1//EN" "http://www.w3.org/Graphics/SVG/1.1/DTD/svg11.dtd">
<svg xmlns="http://www.w3.org/2000/svg" width="210.0mm" height="148.5mm" viewBox="0 0 210.0 148.5" shape-rendering="geometricPrecision" >
  <style>
    svg       { stroke: #ed008c; stroke-width: 0.04; }
    .altcolor { stroke: blue; }
    .thin     { stroke-width: 0.02; }
    .thick    { stroke-width: 0.08; }
    .dashed   { stroke-dasharray: 2 2; }
  </style>
  <g id="sheet">
    <line x1="25.0" y1="14.25" x2="185.0" y2="14.25" class='hline'/>
    <line x1="25.0" y1="19.25" x2="185.0" y2="19.25" class='hline'/>
    <line x1="25.0" y1="24.25" x2="185.0" y2="24.25" class='hline'/>
    <line x1="25.0" y1="29.25" x2="185.0" y2="29.25" class='hline'/>
    <line x1="25.0" y1="34.25" x2="185.0" y2="34.25" class='hline'/>
    <line x1="25.0" y1="39.25" x2="185.0" y2="39.25" class='hline'/>
    <line x1="25.0" y1="44.25" x2="185.0" y2="44.25" class='hline'/>
    <line x1="25.0" y1="49.25" x2="185.0" y2="49.25" class='hline'/>
    <line x1="25.0" y1="54.25" x2="185.0" y2="54.25" class='hline'/>
    <line x1="25.0" y1="59.25" x2="185.0" y2="59.25" class='hline'/>
    <line x1="25.0" y1="64.25" x2="185.0" y2="64.25" class='hline'/>
    <line x1="25.0" y1="69.25" x2="185.0" y2="69.25" class='hline'/>
    <line x1="25.0" y1="74.25" x2="185.0" y2="74.25" class='hline'/>
    <line x1="25.0" y1="79.25" x2="185.0" y2="79.25" class='hline'/>
    <line x1="25.0" y1="84.25" x2="185.0" y2="84.25" class='hline'/>
    <line x1="25.0" y1="89.25" x2="185.0" y2="89.25" class='hline'/>
    <line x1="25.0" y1="94.25" x2="185.0" y2="94.25" class='hline'/>
    <line x1="25.0" y1="99.25" x2="185.0" y2="99.25" class='hline'/>
    <line x1="25.0" y1="104.25" x2="185.0" y2="104.25" class='hline'/>
    <line x1="25.0" y1="109.25" x2="185.0" y2="109.25" class='hline'/>
    <line x1="25.0" y1="114.25" x2="185.0" y2="114.25" class='hline'/>
    <line x1="25.0" y1="119.25" x2="185.0" y2="119.25" class='hline'/>
    <line x1="25.0" y1="124.25" x2="185.0" y2="124.25" class='hline'/>
    <line x1="25.0" y1="129.25" x2="185.0" y2="129.25" class='hline'/>
    <line x1="25.0" y1="134.25" x2="185.0" y2="134.25" class='hline'/>
    <line x1="25.0" y1="14.25" x2="25.0" y2="134.25" class='vline'/>
    <line x1="30.0" y1="14.25" x2="30.0" y2="134.25" class='vline'/>
    <line x1="35.0" y1="14.25" x2="35.0" y2="134.25" class='vline'/>
    <line x1="40.0" y1="14.25" x2="40.0" y2="134.25" class='vline'/>
    <line x1="45.0" y1="14.25" x2="45.0" y2="134.25" class='vline'/>
    <line x1="50.0" y1="14.25" x2="50.0" y2="134.25" class='vline'/>
    <line x1="55.0" y1="14.25" x2="55.0" y2="134.25" class='vline'/>
    <line x1="60.0" y1="14.25" x2="60.0" y2="134.25" class='vline'/>
    <line x1="65.0" y1="14.25" x2="65.0" y2="134.25" class='vline'/>
    <line x1="70.0" y1="14.25" x2="70.0" y2="134.25" class='vline'/>
    <line x1="75.0" y1="14.25" x2="75.0" y2="134.25" class='vline'/>
    <line x1="80.0" y1="14.25" x2="80.0" y2="134.25" class='vline'/>
    <line x1="85.0" y1="14.25" x2="85.0" y2="134.25" class='vline'/>
    <line x1="90.0" y1="14.25" x2="90.0" y2="134.25" class='vline'/>
    <line x1="95.0" y1="14.25" x2="95.0" y2="134.25" class='vline'/>
    <line x1="100.0" y1="14.25" x2="100.0" y2="134.25" class='vline'/>
    <line x1="105.0" y1="14.25" x2="105.0" y2="134.25" class='vline'/>
    <line x1="110.0" y1="14.25" x2="110.0" y2="134.25" class='vline'/>
    <line x1="115.0" y1="14.25" x2="115.0" y2="134.25" class='vline'/>
    <line x1="120.0" y1="14.25" x2="120.0" y2="134.25" class='vline'/>
    <line x1="125.0" y1="14.25" x2="125.0" y2="134.25" class='vline'/>
    <line x1="130.0" y1="14.25" x2="130.0" y2="134.25" class='vline'/>
    <line x1="135.0" y1="14.25" x2="135.0" y2="134.25" class='vline'/>
    <line x1="140.0" y1="14.25" x2="140.0" y2="134.25" class='vline'/>
    <line x1="145.0" y1="14.25" x2="145.0" y2="134.25" class='vline'/>
    <line x1="150.0" y1="14.25" x2="150.0" y2="134.25" class='vline'/>
    <line x1="155.0" y1="14.25" x2="155.0" y2="134.25" class='vline'/>
    <line x1="160.0" y1="14.25" x2="160.0" y2="134.25" class='vline'/>
    <line x1="165.0" y1="14.25" x2="165.0" y2="134.25" class='vline'/>
    <line x1="170.0" y1="14.25" x2="170.0" y2="134.25" class='vline'/>
    <line x1="175.0" y1="14.25" x2="175.0" y2="134.25" class='vline'/>
    <line x1="180.0" y1="14.25" x2="180.0" y2="134.25" class='vline'/>
    <line x1="185.0" y1="14.25" x2="185.0" y2="134.25" class='vline'/>
    <rect width="40.0" height="40.0" x="25.0" y="14.25" fill='none' class='square'/>
    <rect width="40.0" height="40.0" x="65.0" y="14.25" fill='none' class='square'/>
    <rect width="40.0" height="40.0" x="105.0" y="14.25" fill='none' class='square'/>
    <rect width="40.0" height="40.0" x="145.0" y="14.25" fill='none' class='square'/>
    <rect width="40.0" height="40.0" x="25.0" y="54.25" fill='none' class='square'/>
    <rect width="40.0" height="40.0" x="65.0" y="54.25" fill='none' class='square'/>
    <rect width="40.0" height="40.0" x="105.0" y="54.25" fill='none' class='square'/>
    <rect width="40.0" height="40.0" x="145.0" y="54.25" fill='none' class='square'/>
    <rect width="40.0" height="40.0" x="25.0" y="94.25" fill='none' class='square'/>
    <rect width="40.0" height="40.0" x="65.0" y="94.25" fill='none' class='square'/>
    <rect width="40.0" height="40.0" x="105.0" y="94.25" fill='none' class='square'/>
    <rect width="40.0" height="40.0" x="145.0" y="94.25" fill='none' class='square'/>
  </g>
</svg>
