<?xml version="1.0" standalone="no"?>
<!DOCTYPE svg PUBLIC "-//W3C//DTD SVG 1.1//EN" "http://www.w3.org/Graphics/SVG/1.1/DTD/svg11.dtd">
<svg xmlns="http://www.w3.org/2000/svg" width="148.5mm" height="210.0mm" viewBox="0 0 148.5 210.0" shape-rendering="geometricPrecision" >
  <style>
    svg       { stroke: #ed008c; stroke-width: 0.04; }
    .altcolor { stroke: blue; }
    .thin     { stroke-width: 0.02; }
    .thick    { stroke-width: 0.08; }
    .dashed   { stroke-dasharray: 2 2; }
  </style>
  <g id="sheet">
    <line x1="18.25" y1="21.0" x2="130.25" y2="21.0" class='hline'/>
    <line x1="18.25" y1="28.0" x2="130.25" y2="28.0" class='hline'/>
    <line x1="18.25" y1="35.0" x2="130.25" y2="35.0" class='hline'/>
    <line x1="18.25" y1="42.0" x2="130.25" y2="42.0" class='hline'/>
    <line x1="18.25" y1="49.0" x2="130.25" y2="49.0" class='hline'/>
    <line x1="18.25" y1="56.0" x2="130.25" y2="56.0" class='hline'/>
    <line x1="18.25" y1="63.0" x2="130.25" y2="63.0" class='hline'/>
    <line x1="18.25" y1="70.0" x2="130.25" y2="70.0" class='hline'/>
    <line x1="18.25" y1="77.0" x2="130.25" y2="77.0" class='hline'/>
    <line x1="18.25" y1="84.0" x2="130.25" y2="84.0" class='hline'/>
    <line x1="18.25" y1="91.0" x2="130.25" y2="91.0" class='hline'/>
    <line x1="18.25" y1="98.0" x2="130.25" y2="98.0" class='hline'/>
    <line x1="18.25" y1="105.0" x2="130.25" y2="105.0" class='hline'/>
    <line x1="18.25" y1="112.0" x2="130.25" y2="112.0" class='hline'/>
    <line x1="18.25" y1="119.0" x2="130.25" y2="119.0" class='hline'/>
    <line x1="18.25" y1="126.0" x2="130.25" y2="126.0" class='hline'/>
    <line x1="18.25" y1="133.0" x2="130.25" y2="133.0" class='hline'/>
    <line x1="18.25" y1="140.0" x2="130.25" y2="140.0" class='hline'/>
    <line x1="18.25" y1="147.0" x2="130.25" y2="147.0" class='hline'/>
    <line x1="18.25" y1="154.0" x2="130.25" y2="154.0" class='hline'/>
    <line x1="18.25" y1="161.0" x2="130.25" y2="161.0" class='hline'/>
    <line x1="18.25" y1="168.0" x2="130.25" y2="168.0" class='hline'/>
    <line x1="18.25" y1="175.0" x2="130.25" y2="175.0" class='hline'/>
    <line x1="18.25" y1="182.0" x2="130.25" y2="182.0" class='hline'/>
    <line x1="18.25" y1="189.0" x2="130.25" y2="189.0" class='hline'/>
    <line x1="18.25" y1="21.0" x2="18.25" y2="189.0" class='vline'/>
    <line x1="25.25" y1="21.0" x2="25.25" y2="189.0" class='vline'/>
    <line x1="32.25" y1="21.0" x2="32.25" y2="189.0" class='vline'/>
    <line x1="39.25" y1="21.0" x2="39.25" y2="189.0" class='vline'/>
    <line x1="46.25" y1="21.0" x2="46.25" y2="189.0" class='vline'/>
    <line x1="53.25" y1="21.0" x2="53.25" y2="189.0" class='vline'/>
    <line x1="60.25" y1="21.0" x2="60.25" y2="189.0" class='vline'/>
    <line x1="67.25" y1="21.0" x2="67.25" y2="189.0" class='vline'/>
    <line x1="74.25" y1="21.0" x2="74.25" y2="189.0" class='vline'/>
    <line x1="81.25" y1="21.0" x2="81.25" y2="189.0" class='vline'/>
    <line x1="88.25" y1="21.0" x2="88.25" y2="189.0" class='vline'/>
    <line x1="95.25" y1="21.0" x2="95.25" y2="189.0" class='vline'/>
    <line x1="102.25" y1="21.0" x2="102.25" y2="189.0" class='vline'/>
    <line x1="109.25" y1="21.0" x2="109.25" y2="189.0" class='vline'/>
    <line x1="116.25" y1="21.0" x2="116.25" y2="189.0" class='vline'/>
    <line x1="123.25" y1="21.0" x2="123.25" y2="189.0" class='vline'/>
    <line x1="130.25" y1="21.0" x2="130.25" y2="189.0" class='vline'/>
    <rect width="56.0" height="56.0" x="18.25" y="21.0" fill='none' class='square'/>
    <rect width="56.0" height="56.0" x="74.25" y="21.0" fill='none' class='square'/>
    <rect width="56.0" height="56.0" x="18.25" y="77.0" fill='none' class='square'/>
    <rect width="56.0" height="56.0" x="74.25" y="77.0" fill='none' class='square'/>
    <rect width="56.0" height="56.0" x="18.25" y="133.0" fill='none' class='square'/>
    <rect width="56.0" height="56.0" x="74.25" y="133.0" fill='none' class='square'/>
  </g>
</svg>
