<?xml version="1.0" standalone="no"?>
<!DOCTYPE svg PUBLIC "-//W3C//DTD SVG 1.1//EN" "http://www.w3.org/Graphics/SVG/1.1/DTD/svg11.dtd">
<svg xmlns="http://www.w3.org/2000/svg" width="148.5mm" height="210.0mm" viewBox="0 0 148.5 210.0" >

  <g id="sheet">
    <line x1="21.75" y1="21.0" x2="126.75" y2="21.0" stroke='blue' stroke-width='0.2' tags='ascender'/>
    <line x1="21.75" y1="28.0" x2="126.75" y2="28.0" stroke='grey' stroke-width='0.1' stroke-dasharray='2, 2' tags='waist'/>
    <line x1="21.75" y1="35.0" x2="126.75" y2="35.0" stroke='red' stroke-width='0.1' stroke-dasharray='2, 2' tags='base'/>
    <line x1="21.75" y1="42.0" x2="126.75" y2="42.0" stroke='blue' stroke-width='0.2' tags='descender'/>
    <line x1="21.75" y1="49.0" x2="126.75" y2="49.0" stroke='grey' stroke-width='0.1' stroke-dasharray='2, 2' tags='waist'/>
    <line x1="21.75" y1="56.0" x2="126.75" y2="56.0" stroke='red' stroke-width='0.1' stroke-dasharray='2, 2' tags='base'/>
    <line x1="21.75" y1="63.0" x2="126.75" y2="63.0" stroke='blue' stroke-width='0.2' tags='descender'/>
    <line x1="21.75" y1="70.0" x2="126.75" y2="70.0" stroke='grey' stroke-width='0.1' stroke-dasharray='2, 2' tags='waist'/>
    <line x1="21.75" y1="77.0" x2="126.75" y2="77.0" stroke='red' stroke-width='0.1' stroke-dasharray='2, 2' tags='base'/>
    <line x1="21.75" y1="84.0" x2="126.75" y2="84.0" stroke='blue' stroke-width='0.2' tags='descender'/>
    <line x1="21.75" y1="91.0" x2="126.75" y2="91.0" stroke='grey' stroke-width='0.1' stroke-dasharray='2, 2' tags='waist'/>
    <line x1="21.75" y1="98.0" x2="126.75" y2="98.0" stroke='red' stroke-width='0.1' stroke-dasharray='2, 2' tags='base'/>
    <line x1="21.75" y1="105.0" x2="126.75" y2="105.0" stroke='blue' stroke-width='0.2' tags='descender'/>
    <line x1="21.75" y1="112.0" x2="126.75" y2="112.0" stroke='grey' stroke-width='0.1' stroke-dasharray='2, 2' tags='waist'/>
    <line x1="21.75" y1="119.0" x2="126.75" y2="119.0" stroke='red' stroke-width='0.1' stroke-dasharray='2, 2' tags='base'/>
    <line x1="21.75" y1="126.0" x2="126.75" y2="126.0" stroke='blue' stroke-width='0.2' tags='descender'/>
    <line x1="21.75" y1="133.0" x2="126.75" y2="133.0" stroke='grey' stroke-width='0.1' stroke-dasharray='2, 2' tags='waist'/>
    <line x1="21.75" y1="140.0" x2="126.75" y2="140.0" stroke='red' stroke-width='0.1' stroke-dasharray='2, 2' tags='base'/>
    <line x1="21.75" y1="147.0" x2="126.75" y2="147.0" stroke='blue' stroke-width='0.2' tags='descender'/>
    <line x1="21.75" y1="154.0" x2="126.75" y2="154.0" stroke='grey' stroke-width='0.1' stroke-dasharray='2, 2' tags='waist'/>
    <line x1="21.75" y1="161.0" x2="126.75" y2="161.0" stroke='red' stroke-width='0.1' stroke-dasharray='2, 2' tags='base'/>
    <line x1="21.75" y1="168.0" x2="126.75" y2="168.0" stroke='blue' stroke-width='0.2' tags='descender'/>
    <line x1="21.75" y1="175.0" x2="126.75" y2="175.0" stroke='grey' stroke-width='0.1' stroke-dasharray='2, 2' tags='waist'/>
    <line x1="21.75" y1="182.0" x2="126.75" y2="182.0" stroke='red' stroke-width='0.1' stroke-dasharray='2, 2' tags='base'/>
    <line x1="21.75" y1="189.0" x2="126.75" y2="189.0" stroke='blue' stroke-width='0.2' tags='descender'/>
    <line x1="21.75" y1="21.0" x2="21.75" y2="21.0" stroke='blue' stroke-width='0.05' tags='slant'/>
    <line x1="21.75" y1="33.36188" x2="28.88714" y2="21.0" stroke='blue' stroke-width='0.05' tags='slant'/>
    <line x1="21.75" y1="45.72377" x2="36.02427" y2="21.0" stroke='blue' stroke-width='0.05' tags='slant'/>
    <line x1="21.75" y1="58.08565" x2="43.16141" y2="21.0" stroke='blue' stroke-width='0.05' tags='slant'/>
    <line x1="21.75" y1="70.44754" x2="50.29855" y2="21.0" stroke='blue' stroke-width='0.05' tags='slant'/>
    <line x1="21.75" y1="82.80942" x2="57.43568" y2="21.0" stroke='blue' stroke-width='0.05' tags='slant'/>
    <line x1="21.75" y1="95.1713" x2="64.57282" y2="21.0" stroke='blue' stroke-width='0.05' tags='slant'/>
    <line x1="21.75" y1="107.53319" x2="71.70996" y2="21.0" stroke='blue' stroke-width='0.05' tags='slant'/>
    <line x1="21.75" y1="119.89507" x2="78.8471" y2="21.0" stroke='blue' stroke-width='0.05' tags='slant'/>
    <line x1="21.75" y1="132.25695" x2="85.98423" y2="21.0" stroke='blue' stroke-width='0.05' tags='slant'/>
    <line x1="21.75" y1="144.61884" x2="93.12137" y2="21.0" stroke='blue' stroke-width='0.05' tags='slant'/>
    <line x1="21.75" y1="156.98072" x2="100.25851" y2="21.0" stroke='blue' stroke-width='0.05' tags='slant'/>
    <line x1="21.75" y1="169.34261" x2="107.39564" y2="21.0" stroke='blue' stroke-width='0.05' tags='slant'/>
    <line x1="21.75" y1="181.70449" x2="114.53278" y2="21.0" stroke='blue' stroke-width='0.05' tags='slant'/>
    <line x1="24.67507" y1="189.0" x2="121.66992" y2="21.0" stroke='blue' stroke-width='0.05' tags='slant'/>
    <line x1="31.81221" y1="189.0" x2="126.75" y2="24.56292" stroke='blue' stroke-width='0.05' tags='slant'/>
    <line x1="38.94935" y1="189.0" x2="126.75" y2="36.92481" stroke='blue' stroke-width='0.05' tags='slant'/>
    <line x1="46.08648" y1="189.0" x2="126.75" y2="49.28669" stroke='blue' stroke-width='0.05' tags='slant'/>
    <line x1="53.22362" y1="189.0" x2="126.75" y2="61.64857" stroke='blue' stroke-width='0.05' tags='slant'/>
    <line x1="60.36076" y1="189.0" x2="126.75" y2="74.01046" stroke='blue' stroke-width='0.05' tags='slant'/>
    <line x1="67.49789" y1="189.0" x2="126.75" y2="86.37234" stroke='blue' stroke-width='0.05' tags='slant'/>
    <line x1="74.63503" y1="189.0" x2="126.75" y2="98.73422" stroke='blue' stroke-width='0.05' tags='slant'/>
    <line x1="81.77217" y1="189.0" x2="126.75" y2="111.09611" stroke='blue' stroke-width='0.05' tags='slant'/>
    <line x1="88.9093" y1="189.0" x2="126.75" y2="123.45799" stroke='blue' stroke-width='0.05' tags='slant'/>
    <line x1="96.04644" y1="189.0" x2="126.75" y2="135.81988" stroke='blue' stroke-width='0.05' tags='slant'/>
    <line x1="103.18358" y1="189.0" x2="126.75" y2="148.18176" stroke='blue' stroke-width='0.05' tags='slant'/>
    <line x1="110.32071" y1="189.0" x2="126.75" y2="160.54364" stroke='blue' stroke-width='0.05' tags='slant'/>
    <line x1="117.45785" y1="189.0" x2="126.75" y2="172.90553" stroke='blue' stroke-width='0.05' tags='slant'/>
    <line x1="124.59499" y1="189.0" x2="126.75" y2="185.26741" stroke='blue' stroke-width='0.05' tags='slant'/>
  </g>
</svg>
