<?xml version="1.0" standalone="no"?>
<!DOCTYPE svg PUBLIC "-//W3C//DTD SVG 1.1//EN" "http://www.w3.org/Graphics/SVG/1.1/DTD/svg11.dtd">
<svg xmlns="http://www.w3.org/2000/svg" width="148.5mm" height="210.0mm" viewBox="0 0 148.5 210.0" >

  <g id="sheet">
    <line x1="14.25" y1="15.0" x2="134.25" y2="15.0" stroke='blue' stroke-width='0.2' tags='ascender'/>
    <line x1="14.25" y1="20.0" x2="134.25" y2="20.0" stroke='grey' stroke-width='0.1' stroke-dasharray='2, 2' tags='waist'/>
    <line x1="14.25" y1="25.0" x2="134.25" y2="25.0" stroke='red' stroke-width='0.1' stroke-dasharray='2, 2' tags='base'/>
    <line x1="14.25" y1="30.0" x2="134.25" y2="30.0" stroke='blue' stroke-width='0.2' tags='descender'/>
    <line x1="14.25" y1="35.0" x2="134.25" y2="35.0" stroke='grey' stroke-width='0.1' stroke-dasharray='2, 2' tags='waist'/>
    <line x1="14.25" y1="40.0" x2="134.25" y2="40.0" stroke='red' stroke-width='0.1' stroke-dasharray='2, 2' tags='base'/>
    <line x1="14.25" y1="45.0" x2="134.25" y2="45.0" stroke='blue' stroke-width='0.2' tags='descender'/>
    <line x1="14.25" y1="50.0" x2="134.25" y2="50.0" stroke='grey' stroke-width='0.1' stroke-dasharray='2, 2' tags='waist'/>
    <line x1="14.25" y1="55.0" x2="134.25" y2="55.0" stroke='red' stroke-width='0.1' stroke-dasharray='2, 2' tags='base'/>
    <line x1="14.25" y1="60.0" x2="134.25" y2="60.0" stroke='blue' stroke-width='0.2' tags='descender'/>
    <line x1="14.25" y1="65.0" x2="134.25" y2="65.0" stroke='grey' stroke-width='0.1' stroke-dasharray='2, 2' tags='waist'/>
    <line x1="14.25" y1="70.0" x2="134.25" y2="70.0" stroke='red' stroke-width='0.1' stroke-dasharray='2, 2' tags='base'/>
    <line x1="14.25" y1="75.0" x2="134.25" y2="75.0" stroke='blue' stroke-width='0.2' tags='descender'/>
    <line x1="14.25" y1="80.0" x2="134.25" y2="80.0" stroke='grey' stroke-width='0.1' stroke-dasharray='2, 2' tags='waist'/>
    <line x1="14.25" y1="85.0" x2="134.25" y2="85.0" stroke='red' stroke-width='0.1' stroke-dasharray='2, 2' tags='base'/>
    <line x1="14.25" y1="90.0" x2="134.25" y2="90.0" stroke='blue' stroke-width='0.2' tags='descender'/>
    <line x1="14.25" y1="95.0" x2="134.25" y2="95.0" stroke='grey' stroke-width='0.1' stroke-dasharray='2, 2' tags='waist'/>
    <line x1="14.25" y1="100.0" x2="134.25" y2="100.0" stroke='red' stroke-width='0.1' stroke-dasharray='2, 2' tags='base'/>
    <line x1="14.25" y1="105.0" x2="134.25" y2="105.0" stroke='blue' stroke-width='0.2' tags='descender'/>
    <line x1="14.25" y1="110.0" x2="134.25" y2="110.0" stroke='grey' stroke-width='0.1' stroke-dasharray='2, 2' tags='waist'/>
    <line x1="14.25" y1="115.0" x2="134.25" y2="115.0" stroke='red' stroke-width='0.1' stroke-dasharray='2, 2' tags='base'/>
    <line x1="14.25" y1="120.0" x2="134.25" y2="120.0" stroke='blue' stroke-width='0.2' tags='descender'/>
    <line x1="14.25" y1="125.0" x2="134.25" y2="125.0" stroke='grey' stroke-width='0.1' stroke-dasharray='2, 2' tags='waist'/>
    <line x1="14.25" y1="130.0" x2="134.25" y2="130.0" stroke='red' stroke-width='0.1' stroke-dasharray='2, 2' tags='base'/>
    <line x1="14.25" y1="135.0" x2="134.25" y2="135.0" stroke='blue' stroke-width='0.2' tags='descender'/>
    <line x1="14.25" y1="140.0" x2="134.25" y2="140.0" stroke='grey' stroke-width='0.1' stroke-dasharray='2, 2' tags='waist'/>
    <line x1="14.25" y1="145.0" x2="134.25" y2="145.0" stroke='red' stroke-width='0.1' stroke-dasharray='2, 2' tags='base'/>
    <line x1="14.25" y1="150.0" x2="134.25" y2="150.0" stroke='blue' stroke-width='0.2' tags='descender'/>
    <line x1="14.25" y1="155.0" x2="134.25" y2="155.0" stroke='grey' stroke-width='0.1' stroke-dasharray='2, 2' tags='waist'/>
    <line x1="14.25" y1="160.0" x2="134.25" y2="160.0" stroke='red' stroke-width='0.1' stroke-dasharray='2, 2' tags='base'/>
    <line x1="14.25" y1="165.0" x2="134.25" y2="165.0" stroke='blue' stroke-width='0.2' tags='descender'/>
    <line x1="14.25" y1="170.0" x2="134.25" y2="170.0" stroke='grey' stroke-width='0.1' stroke-dasharray='2, 2' tags='waist'/>
    <line x1="14.25" y1="175.0" x2="134.25" y2="175.0" stroke='red' stroke-width='0.1' stroke-dasharray='2, 2' tags='base'/>
    <line x1="14.25" y1="180.0" x2="134.25" y2="180.0" stroke='blue' stroke-width='0.2' tags='descender'/>
    <line x1="14.25" y1="185.0" x2="134.25" y2="185.0" stroke='grey' stroke-width='0.1' stroke-dasharray='2, 2' tags='waist'/>
    <line x1="14.25" y1="190.0" x2="134.25" y2="190.0" stroke='red' stroke-width='0.1' stroke-dasharray='2, 2' tags='base'/>
    <line x1="14.25" y1="195.0" x2="134.25" y2="195.0" stroke='blue' stroke-width='0.2' tags='descender'/>
    <line x1="14.25" y1="15.0" x2="14.25" y2="15.0" stroke='blue' stroke-width='0.05' tags='slant'/>
    <line x1="14.25" y1="23.9641" x2="19.42542" y2="15.0" stroke='blue' stroke-width='0.05' tags='slant'/>
    <line x1="14.25" y1="32.92819" x2="24.60085" y2="15.0" stroke='blue' stroke-width='0.05' tags='slant'/>
    <line x1="14.25" y1="41.89229" x2="29.77627" y2="15.0" stroke='blue' stroke-width='0.05' tags='slant'/>
    <line x1="14.25" y1="50.85638" x2="34.95169" y2="15.0" stroke='blue' stroke-width='0.05' tags='slant'/>
    <line x1="14.25" y1="59.82048" x2="40.12712" y2="15.0" stroke='blue' stroke-width='0.05' tags='slant'/>
    <line x1="14.25" y1="68.78458" x2="45.30254" y2="15.0" stroke='blue' stroke-width='0.05' tags='slant'/>
    <line x1="14.25" y1="77.74867" x2="50.47796" y2="15.0" stroke='blue' stroke-width='0.05' tags='slant'/>
    <line x1="14.25" y1="86.71277" x2="55.65339" y2="15.0" stroke='blue' stroke-width='0.05' tags='slant'/>
    <line x1="14.25" y1="95.67686" x2="60.82881" y2="15.0" stroke='blue' stroke-width='0.05' tags='slant'/>
    <line x1="14.25" y1="104.64096" x2="66.00423" y2="15.0" stroke='blue' stroke-width='0.05' tags='slant'/>
    <line x1="14.25" y1="113.60506" x2="71.17966" y2="15.0" stroke='blue' stroke-width='0.05' tags='slant'/>
    <line x1="14.25" y1="122.56915" x2="76.35508" y2="15.0" stroke='blue' stroke-width='0.05' tags='slant'/>
    <line x1="14.25" y1="131.53325" x2="81.5305" y2="15.0" stroke='blue' stroke-width='0.05' tags='slant'/>
    <line x1="14.25" y1="140.49735" x2="86.70593" y2="15.0" stroke='blue' stroke-width='0.05' tags='slant'/>
    <line x1="14.25" y1="149.46144" x2="91.88135" y2="15.0" stroke='blue' stroke-width='0.05' tags='slant'/>
    <line x1="14.25" y1="158.42554" x2="97.05677" y2="15.0" stroke='blue' stroke-width='0.05' tags='slant'/>
    <line x1="14.25" y1="167.38963" x2="102.2322" y2="15.0" stroke='blue' stroke-width='0.05' tags='slant'/>
    <line x1="14.25" y1="176.35373" x2="107.40762" y2="15.0" stroke='blue' stroke-width='0.05' tags='slant'/>
    <line x1="14.25" y1="185.31783" x2="112.58304" y2="15.0" stroke='blue' stroke-width='0.05' tags='slant'/>
    <line x1="14.25" y1="194.28192" x2="117.75847" y2="15.0" stroke='blue' stroke-width='0.05' tags='slant'/>
    <line x1="19.01084" y1="195.0" x2="122.93389" y2="15.0" stroke='blue' stroke-width='0.05' tags='slant'/>
    <line x1="24.18626" y1="195.0" x2="128.10931" y2="15.0" stroke='blue' stroke-width='0.05' tags='slant'/>
    <line x1="29.36169" y1="195.0" x2="133.28474" y2="15.0" stroke='blue' stroke-width='0.05' tags='slant'/>
    <line x1="34.53711" y1="195.0" x2="134.25" y2="22.29221" stroke='blue' stroke-width='0.05' tags='slant'/>
    <line x1="39.71253" y1="195.0" x2="134.25" y2="31.25631" stroke='blue' stroke-width='0.05' tags='slant'/>
    <line x1="44.88796" y1="195.0" x2="134.25" y2="40.2204" stroke='blue' stroke-width='0.05' tags='slant'/>
    <line x1="50.06338" y1="195.0" x2="134.25" y2="49.1845" stroke='blue' stroke-width='0.05' tags='slant'/>
    <line x1="55.2388" y1="195.0" x2="134.25" y2="58.14859" stroke='blue' stroke-width='0.05' tags='slant'/>
    <line x1="60.41423" y1="195.0" x2="134.25" y2="67.11269" stroke='blue' stroke-width='0.05' tags='slant'/>
    <line x1="65.58965" y1="195.0" x2="134.25" y2="76.07679" stroke='blue' stroke-width='0.05' tags='slant'/>
    <line x1="70.76507" y1="195.0" x2="134.25" y2="85.04088" stroke='blue' stroke-width='0.05' tags='slant'/>
    <line x1="75.9405" y1="195.0" x2="134.25" y2="94.00498" stroke='blue' stroke-width='0.05' tags='slant'/>
    <line x1="81.11592" y1="195.0" x2="134.25" y2="102.96907" stroke='blue' stroke-width='0.05' tags='slant'/>
    <line x1="86.29134" y1="195.0" x2="134.25" y2="111.93317" stroke='blue' stroke-width='0.05' tags='slant'/>
    <line x1="91.46677" y1="195.0" x2="134.25" y2="120.89727" stroke='blue' stroke-width='0.05' tags='slant'/>
    <line x1="96.64219" y1="195.0" x2="134.25" y2="129.86136" stroke='blue' stroke-width='0.05' tags='slant'/>
    <line x1="101.81761" y1="195.0" x2="134.25" y2="138.82546" stroke='blue' stroke-width='0.05' tags='slant'/>
    <line x1="106.99304" y1="195.0" x2="134.25" y2="147.78955" stroke='blue' stroke-width='0.05' tags='slant'/>
    <line x1="112.16846" y1="195.0" x2="134.25" y2="156.75365" stroke='blue' stroke-width='0.05' tags='slant'/>
    <line x1="117.34388" y1="195.0" x2="134.25" y2="165.71775" stroke='blue' stroke-width='0.05' tags='slant'/>
    <line x1="122.51931" y1="195.0" x2="134.25" y2="174.68184" stroke='blue' stroke-width='0.05' tags='slant'/>
    <line x1="127.69473" y1="195.0" x2="134.25" y2="183.64594" stroke='blue' stroke-width='0.05' tags='slant'/>
    <line x1="132.87015" y1="195.0" x2="134.25" y2="192.61003" stroke='blue' stroke-width='0.05' tags='slant'/>
  </g>
</svg>
