<?xml version="1.0" standalone="no"?>
<!DOCTYPE svg PUBLIC "-//W3C//DTD SVG 1.1//EN" "http://www.w3.org/Graphics/SVG/1.1/DTD/svg11.dtd">
<svg xmlns="http://www.w3.org/2000/svg" width="210.0mm" height="148.5mm" viewBox="0 0 210.0 148.5" >

  <g id="sheet">
    <line x1="10.5" y1="11.25" x2="199.5" y2="11.25" stroke='blue' stroke-width='0.2' tags='ascender'/>
    <line x1="10.5" y1="18.25" x2="199.5" y2="18.25" stroke='grey' stroke-width='0.1' stroke-dasharray='2, 2' tags='waist'/>
    <line x1="10.5" y1="25.25" x2="199.5" y2="25.25" stroke='red' stroke-width='0.1' stroke-dasharray='2, 2' tags='base'/>
    <line x1="10.5" y1="32.25" x2="199.5" y2="32.25" stroke='blue' stroke-width='0.2' tags='descender'/>
    <line x1="10.5" y1="39.25" x2="199.5" y2="39.25" stroke='grey' stroke-width='0.1' stroke-dasharray='2, 2' tags='waist'/>
    <line x1="10.5" y1="46.25" x2="199.5" y2="46.25" stroke='red' stroke-width='0.1' stroke-dasharray='2, 2' tags='base'/>
    <line x1="10.5" y1="53.25" x2="199.5" y2="53.25" stroke='blue' stroke-width='0.2' tags='descender'/>
    <line x1="10.5" y1="60.25" x2="199.5" y2="60.25" stroke='grey' stroke-width='0.1' stroke-dasharray='2, 2' tags='waist'/>
    <line x1="10.5" y1="67.25" x2="199.5" y2="67.25" stroke='red' stroke-width='0.1' stroke-dasharray='2, 2' tags='base'/>
    <line x1="10.5" y1="74.25" x2="199.5" y2="74.25" stroke='blue' stroke-width='0.2' tags='descender'/>
    <line x1="10.5" y1="81.25" x2="199.5" y2="81.25" stroke='grey' stroke-width='0.1' stroke-dasharray='2, 2' tags='waist'/>
    <line x1="10.5" y1="88.25" x2="199.5" y2="88.25" stroke='red' stroke-width='0.1' stroke-dasharray='2, 2' tags='base'/>
    <line x1="10.5" y1="95.25" x2="199.5" y2="95.25" stroke='blue' stroke-width='0.2' tags='descender'/>
    <line x1="10.5" y1="102.25" x2="199.5" y2="102.25" stroke='grey' stroke-width='0.1' stroke-dasharray='2, 2' tags='waist'/>
    <line x1="10.5" y1="109.25" x2="199.5" y2="109.25" stroke='red' stroke-width='0.1' stroke-dasharray='2, 2' tags='base'/>
    <line x1="10.5" y1="116.25" x2="199.5" y2="116.25" stroke='blue' stroke-width='0.2' tags='descender'/>
    <line x1="10.5" y1="123.25" x2="199.5" y2="123.25" stroke='grey' stroke-width='0.1' stroke-dasharray='2, 2' tags='waist'/>
    <line x1="10.5" y1="130.25" x2="199.5" y2="130.25" stroke='red' stroke-width='0.1' stroke-dasharray='2, 2' tags='base'/>
    <line x1="10.5" y1="137.25" x2="199.5" y2="137.25" stroke='blue' stroke-width='0.2' tags='descender'/>
    <line x1="10.5" y1="11.25" x2="10.5" y2="11.25" stroke='blue' stroke-width='0.05' tags='slant'/>
    <line x1="10.5" y1="25.22098" x2="18.56615" y2="11.25" stroke='blue' stroke-width='0.05' tags='slant'/>
    <line x1="10.5" y1="39.19195" x2="26.63229" y2="11.25" stroke='blue' stroke-width='0.05' tags='slant'/>
    <line x1="10.5" y1="53.16293" x2="34.69844" y2="11.25" stroke='blue' stroke-width='0.05' tags='slant'/>
    <line x1="10.5" y1="67.1339" x2="42.76458" y2="11.25" stroke='blue' stroke-width='0.05' tags='slant'/>
    <line x1="10.5" y1="81.10488" x2="50.83073" y2="11.25" stroke='blue' stroke-width='0.05' tags='slant'/>
    <line x1="10.5" y1="95.07585" x2="58.89688" y2="11.25" stroke='blue' stroke-width='0.05' tags='slant'/>
    <line x1="10.5" y1="109.04683" x2="66.96302" y2="11.25" stroke='blue' stroke-width='0.05' tags='slant'/>
    <line x1="10.5" y1="123.0178" x2="75.02917" y2="11.25" stroke='blue' stroke-width='0.05' tags='slant'/>
    <line x1="10.5" y1="136.98878" x2="83.09532" y2="11.25" stroke='blue' stroke-width='0.05' tags='slant'/>
    <line x1="18.41533" y1="137.25" x2="91.16146" y2="11.25" stroke='blue' stroke-width='0.05' tags='slant'/>
    <line x1="26.48147" y1="137.25" x2="99.22761" y2="11.25" stroke='blue' stroke-width='0.05' tags='slant'/>
    <line x1="34.54762" y1="137.25" x2="107.29375" y2="11.25" stroke='blue' stroke-width='0.05' tags='slant'/>
    <line x1="42.61377" y1="137.25" x2="115.3599" y2="11.25" stroke='blue' stroke-width='0.05' tags='slant'/>
    <line x1="50.67991" y1="137.25" x2="123.42605" y2="11.25" stroke='blue' stroke-width='0.05' tags='slant'/>
    <line x1="58.74606" y1="137.25" x2="131.49219" y2="11.25" stroke='blue' stroke-width='0.05' tags='slant'/>
    <line x1="66.81221" y1="137.25" x2="139.55834" y2="11.25" stroke='blue' stroke-width='0.05' tags='slant'/>
    <line x1="74.87835" y1="137.25" x2="147.62449" y2="11.25" stroke='blue' stroke-width='0.05' tags='slant'/>
    <line x1="82.9445" y1="137.25" x2="155.69063" y2="11.25" stroke='blue' stroke-width='0.05' tags='slant'/>
    <line x1="91.01064" y1="137.25" x2="163.75678" y2="11.25" stroke='blue' stroke-width='0.05' tags='slant'/>
    <line x1="99.07679" y1="137.25" x2="171.82292" y2="11.25" stroke='blue' stroke-width='0.05' tags='slant'/>
    <line x1="107.14294" y1="137.25" x2="179.88907" y2="11.25" stroke='blue' stroke-width='0.05' tags='slant'/>
    <line x1="115.20908" y1="137.25" x2="187.95522" y2="11.25" stroke='blue' stroke-width='0.05' tags='slant'/>
    <line x1="123.27523" y1="137.25" x2="196.02136" y2="11.25" stroke='blue' stroke-width='0.05' tags='slant'/>
    <line x1="131.34138" y1="137.25" x2="199.5" y2="19.1958" stroke='blue' stroke-width='0.05' tags='slant'/>
    <line x1="139.40752" y1="137.25" x2="199.5" y2="33.16677" stroke='blue' stroke-width='0.05' tags='slant'/>
    <line x1="147.47367" y1="137.25" x2="199.5" y2="47.13775" stroke='blue' stroke-width='0.05' tags='slant'/>
    <line x1="155.53981" y1="137.25" x2="199.5" y2="61.10872" stroke='blue' stroke-width='0.05' tags='slant'/>
    <line x1="163.60596" y1="137.25" x2="199.5" y2="75.0797" stroke='blue' stroke-width='0.05' tags='slant'/>
    <line x1="171.67211" y1="137.25" x2="199.5" y2="89.05067" stroke='blue' stroke-width='0.05' tags='slant'/>
    <line x1="179.73825" y1="137.25" x2="199.5" y2="103.02165" stroke='blue' stroke-width='0.05' tags='slant'/>
    <line x1="187.8044" y1="137.25" x2="199.5" y2="116.99262" stroke='blue' stroke-width='0.05' tags='slant'/>
    <line x1="195.87054" y1="137.25" x2="199.5" y2="130.9636" stroke='blue' stroke-width='0.05' tags='slant'/>
  </g>
</svg>
