<?xml version="1.0" standalone="no"?>
<!DOCTYPE svg PUBLIC "-//W3C//DTD SVG 1.1//EN" "http://www.w3.org/Graphics/SVG/1.1/DTD/svg11.dtd">
<svg xmlns="http://www.w3.org/2000/svg" width="210.0mm" height="148.5mm" viewBox="0 0 210.0 148.5" >

  <g id="sheet">
    <line x1="15.0" y1="21.75" x2="195.0" y2="21.75" stroke='blue' stroke-width='0.2' tags='ascender'/>
    <line x1="15.0" y1="26.75" x2="195.0" y2="26.75" stroke='grey' stroke-width='0.1' stroke-dasharray='2, 2' tags='waist'/>
    <line x1="15.0" y1="31.75" x2="195.0" y2="31.75" stroke='red' stroke-width='0.1' stroke-dasharray='2, 2' tags='base'/>
    <line x1="15.0" y1="36.75" x2="195.0" y2="36.75" stroke='blue' stroke-width='0.2' tags='descender'/>
    <line x1="15.0" y1="41.75" x2="195.0" y2="41.75" stroke='grey' stroke-width='0.1' stroke-dasharray='2, 2' tags='waist'/>
    <line x1="15.0" y1="46.75" x2="195.0" y2="46.75" stroke='red' stroke-width='0.1' stroke-dasharray='2, 2' tags='base'/>
    <line x1="15.0" y1="51.75" x2="195.0" y2="51.75" stroke='blue' stroke-width='0.2' tags='descender'/>
    <line x1="15.0" y1="56.75" x2="195.0" y2="56.75" stroke='grey' stroke-width='0.1' stroke-dasharray='2, 2' tags='waist'/>
    <line x1="15.0" y1="61.75" x2="195.0" y2="61.75" stroke='red' stroke-width='0.1' stroke-dasharray='2, 2' tags='base'/>
    <line x1="15.0" y1="66.75" x2="195.0" y2="66.75" stroke='blue' stroke-width='0.2' tags='descender'/>
    <line x1="15.0" y1="71.75" x2="195.0" y2="71.75" stroke='grey' stroke-width='0.1' stroke-dasharray='2, 2' tags='waist'/>
    <line x1="15.0" y1="76.75" x2="195.0" y2="76.75" stroke='red' stroke-width='0.1' stroke-dasharray='2, 2' tags='base'/>
    <line x1="15.0" y1="81.75" x2="195.0" y2="81.75" stroke='blue' stroke-width='0.2' tags='descender'/>
    <line x1="15.0" y1="86.75" x2="195.0" y2="86.75" stroke='grey' stroke-width='0.1' stroke-dasharray='2, 2' tags='waist'/>
    <line x1="15.0" y1="91.75" x2="195.0" y2="91.75" stroke='red' stroke-width='0.1' stroke-dasharray='2, 2' tags='base'/>
    <line x1="15.0" y1="96.75" x2="195.0" y2="96.75" stroke='blue' stroke-width='0.2' tags='descender'/>
    <line x1="15.0" y1="101.75" x2="195.0" y2="101.75" stroke='grey' stroke-width='0.1' stroke-dasharray='2, 2' tags='waist'/>
    <line x1="15.0" y1="106.75" x2="195.0" y2="106.75" stroke='red' stroke-width='0.1' stroke-dasharray='2, 2' tags='base'/>
    <line x1="15.0" y1="111.75" x2="195.0" y2="111.75" stroke='blue' stroke-width='0.2' tags='descender'/>
    <line x1="15.0" y1="116.75" x2="195.0" y2="116.75" stroke='grey' stroke-width='0.1' stroke-dasharray='2, 2' tags='waist'/>
    <line x1="15.0" y1="121.75" x2="195.0" y2="121.75" stroke='red' stroke-width='0.1' stroke-dasharray='2, 2' tags='base'/>
    <line x1="15.0" y1="126.75" x2="195.0" y2="126.75" stroke='blue' stroke-width='0.2' tags='descender'/>
    <line x1="15.0" y1="21.75" x2="15.0" y2="21.75" stroke='blue' stroke-width='0.05' tags='slant'/>
    <line x1="15.0" y1="31.7499" x2="20.77344" y2="21.75" stroke='blue' stroke-width='0.05' tags='slant'/>
    <line x1="15.0" y1="41.7498" x2="26.54689" y2="21.75" stroke='blue' stroke-width='0.05' tags='slant'/>
    <line x1="15.0" y1="51.7497" x2="32.32033" y2="21.75" stroke='blue' stroke-width='0.05' tags='slant'/>
    <line x1="15.0" y1="61.7496" x2="38.09378" y2="21.75" stroke='blue' stroke-width='0.05' tags='slant'/>
    <line x1="15.0" y1="71.7495" x2="43.86722" y2="21.75" stroke='blue' stroke-width='0.05' tags='slant'/>
    <line x1="15.0" y1="81.7494" x2="49.64067" y2="21.75" stroke='blue' stroke-width='0.05' tags='slant'/>
    <line x1="15.0" y1="91.7493" x2="55.41411" y2="21.75" stroke='blue' stroke-width='0.05' tags='slant'/>
    <line x1="15.0" y1="101.7492" x2="61.18756" y2="21.75" stroke='blue' stroke-width='0.05' tags='slant'/>
    <line x1="15.0" y1="111.7491" x2="66.961" y2="21.75" stroke='blue' stroke-width='0.05' tags='slant'/>
    <line x1="15.0" y1="121.749" x2="72.73445" y2="21.75" stroke='blue' stroke-width='0.05' tags='slant'/>
    <line x1="17.88612" y1="126.75" x2="78.50789" y2="21.75" stroke='blue' stroke-width='0.05' tags='slant'/>
    <line x1="23.65956" y1="126.75" x2="84.28134" y2="21.75" stroke='blue' stroke-width='0.05' tags='slant'/>
    <line x1="29.433" y1="126.75" x2="90.05478" y2="21.75" stroke='blue' stroke-width='0.05' tags='slant'/>
    <line x1="35.20645" y1="126.75" x2="95.82823" y2="21.75" stroke='blue' stroke-width='0.05' tags='slant'/>
    <line x1="40.97989" y1="126.75" x2="101.60167" y2="21.75" stroke='blue' stroke-width='0.05' tags='slant'/>
    <line x1="46.75334" y1="126.75" x2="107.37512" y2="21.75" stroke='blue' stroke-width='0.05' tags='slant'/>
    <line x1="52.52678" y1="126.75" x2="113.14856" y2="21.75" stroke='blue' stroke-width='0.05' tags='slant'/>
    <line x1="58.30023" y1="126.75" x2="118.92201" y2="21.75" stroke='blue' stroke-width='0.05' tags='slant'/>
    <line x1="64.07367" y1="126.75" x2="124.69545" y2="21.75" stroke='blue' stroke-width='0.05' tags='slant'/>
    <line x1="69.84712" y1="126.75" x2="130.4689" y2="21.75" stroke='blue' stroke-width='0.05' tags='slant'/>
    <line x1="75.62056" y1="126.75" x2="136.24234" y2="21.75" stroke='blue' stroke-width='0.05' tags='slant'/>
    <line x1="81.39401" y1="126.75" x2="142.01579" y2="21.75" stroke='blue' stroke-width='0.05' tags='slant'/>
    <line x1="87.16745" y1="126.75" x2="147.78923" y2="21.75" stroke='blue' stroke-width='0.05' tags='slant'/>
    <line x1="92.9409" y1="126.75" x2="153.56268" y2="21.75" stroke='blue' stroke-width='0.05' tags='slant'/>
    <line x1="98.71434" y1="126.75" x2="159.33612" y2="21.75" stroke='blue' stroke-width='0.05' tags='slant'/>
    <line x1="104.48779" y1="126.75" x2="165.10957" y2="21.75" stroke='blue' stroke-width='0.05' tags='slant'/>
    <line x1="110.26123" y1="126.75" x2="170.88301" y2="21.75" stroke='blue' stroke-width='0.05' tags='slant'/>
    <line x1="116.03468" y1="126.75" x2="176.65646" y2="21.75" stroke='blue' stroke-width='0.05' tags='slant'/>
    <line x1="121.80812" y1="126.75" x2="182.4299" y2="21.75" stroke='blue' stroke-width='0.05' tags='slant'/>
    <line x1="127.58157" y1="126.75" x2="188.20335" y2="21.75" stroke='blue' stroke-width='0.05' tags='slant'/>
    <line x1="133.35501" y1="126.75" x2="193.97679" y2="21.75" stroke='blue' stroke-width='0.05' tags='slant'/>
    <line x1="139.12846" y1="126.75" x2="195.0" y2="29.97765" stroke='blue' stroke-width='0.05' tags='slant'/>
    <line x1="144.9019" y1="126.75" x2="195.0" y2="39.97755" stroke='blue' stroke-width='0.05' tags='slant'/>
    <line x1="150.67535" y1="126.75" x2="195.0" y2="49.97745" stroke='blue' stroke-width='0.05' tags='slant'/>
    <line x1="156.44879" y1="126.75" x2="195.0" y2="59.97735" stroke='blue' stroke-width='0.05' tags='slant'/>
    <line x1="162.22224" y1="126.75" x2="195.0" y2="69.97725" stroke='blue' stroke-width='0.05' tags='slant'/>
    <line x1="167.99568" y1="126.75" x2="195.0" y2="79.97715" stroke='blue' stroke-width='0.05' tags='slant'/>
    <line x1="173.76913" y1="126.75" x2="195.0" y2="89.97705" stroke='blue' stroke-width='0.05' tags='slant'/>
    <line x1="179.54257" y1="126.75" x2="195.0" y2="99.97695" stroke='blue' stroke-width='0.05' tags='slant'/>
    <line x1="185.31602" y1="126.75" x2="195.0" y2="109.97685" stroke='blue' stroke-width='0.05' tags='slant'/>
    <line x1="191.08946" y1="126.75" x2="195.0" y2="119.97675" stroke='blue' stroke-width='0.05' tags='slant'/>
  </g>
</svg>
