<?xml version="1.0" standalone="no"?>
<!DOCTYPE svg PUBLIC "-//W3C//DTD SVG 1.1//EN" "http://www.w3.org/Graphics/SVG/1.1/DTD/svg11.dtd">
<svg xmlns="http://www.w3.org/2000/svg" width="210.0mm" height="148.5mm" viewBox="0 0 210.0 148.5" >

  <g id="sheet">
    <line x1="7.5" y1="14.25" x2="202.5" y2="14.25" stroke='blue' stroke-width='0.2' tags='ascender'/>
    <line x1="7.5" y1="19.25" x2="202.5" y2="19.25" stroke='grey' stroke-width='0.1' stroke-dasharray='2, 2' tags='waist'/>
    <line x1="7.5" y1="24.25" x2="202.5" y2="24.25" stroke='red' stroke-width='0.1' stroke-dasharray='2, 2' tags='base'/>
    <line x1="7.5" y1="29.25" x2="202.5" y2="29.25" stroke='blue' stroke-width='0.2' tags='descender'/>
    <line x1="7.5" y1="34.25" x2="202.5" y2="34.25" stroke='grey' stroke-width='0.1' stroke-dasharray='2, 2' tags='waist'/>
    <line x1="7.5" y1="39.25" x2="202.5" y2="39.25" stroke='red' stroke-width='0.1' stroke-dasharray='2, 2' tags='base'/>
    <line x1="7.5" y1="44.25" x2="202.5" y2="44.25" stroke='blue' stroke-width='0.2' tags='descender'/>
    <line x1="7.5" y1="49.25" x2="202.5" y2="49.25" stroke='grey' stroke-width='0.1' stroke-dasharray='2, 2' tags='waist'/>
    <line x1="7.5" y1="54.25" x2="202.5" y2="54.25" stroke='red' stroke-width='0.1' stroke-dasharray='2, 2' tags='base'/>
    <line x1="7.5" y1="59.25" x2="202.5" y2="59.25" stroke='blue' stroke-width='0.2' tags='descender'/>
    <line x1="7.5" y1="64.25" x2="202.5" y2="64.25" stroke='grey' stroke-width='0.1' stroke-dasharray='2, 2' tags='waist'/>
    <line x1="7.5" y1="69.25" x2="202.5" y2="69.25" stroke='red' stroke-width='0.1' stroke-dasharray='2, 2' tags='base'/>
    <line x1="7.5" y1="74.25" x2="202.5" y2="74.25" stroke='blue' stroke-width='0.2' tags='descender'/>
    <line x1="7.5" y1="79.25" x2="202.5" y2="79.25" stroke='grey' stroke-width='0.1' stroke-dasharray='2, 2' tags='waist'/>
    <line x1="7.5" y1="84.25" x2="202.5" y2="84.25" stroke='red' stroke-width='0.1' stroke-dasharray='2, 2' tags='base'/>
    <line x1="7.5" y1="89.25" x2="202.5" y2="89.25" stroke='blue' stroke-width='0.2' tags='descender'/>
    <line x1="7.5" y1="94.25" x2="202.5" y2="94.25" stroke='grey' stroke-width='0.1' stroke-dasharray='2, 2' tags='waist'/>
    <line x1="7.5" y1="99.25" x2="202.5" y2="99.25" stroke='red' stroke-width='0.1' stroke-dasharray='2, 2' tags='base'/>
    <line x1="7.5" y1="104.25" x2="202.5" y2="104.25" stroke='blue' stroke-width='0.2' tags='descender'/>
    <line x1="7.5" y1="109.25" x2="202.5" y2="109.25" stroke='grey' stroke-width='0.1' stroke-dasharray='2, 2' tags='waist'/>
    <line x1="7.5" y1="114.25" x2="202.5" y2="114.25" stroke='red' stroke-width='0.1' stroke-dasharray='2, 2' tags='base'/>
    <line x1="7.5" y1="119.25" x2="202.5" y2="119.25" stroke='blue' stroke-width='0.2' tags='descender'/>
    <line x1="7.5" y1="124.25" x2="202.5" y2="124.25" stroke='grey' stroke-width='0.1' stroke-dasharray='2, 2' tags='waist'/>
    <line x1="7.5" y1="129.25" x2="202.5" y2="129.25" stroke='red' stroke-width='0.1' stroke-dasharray='2, 2' tags='base'/>
    <line x1="7.5" y1="134.25" x2="202.5" y2="134.25" stroke='blue' stroke-width='0.2' tags='descender'/>
    <line x1="7.5" y1="14.25" x2="7.5" y2="14.25" stroke='blue' stroke-width='0.05' tags='slant'/>
    <line x1="7.5" y1="24.24606" x2="13.27123" y2="14.25" stroke='blue' stroke-width='0.05' tags='slant'/>
    <line x1="7.5" y1="34.24213" x2="19.04246" y2="14.25" stroke='blue' stroke-width='0.05' tags='slant'/>
    <line x1="7.5" y1="44.23819" x2="24.81369" y2="14.25" stroke='blue' stroke-width='0.05' tags='slant'/>
    <line x1="7.5" y1="54.23426" x2="30.58492" y2="14.25" stroke='blue' stroke-width='0.05' tags='slant'/>
    <line x1="7.5" y1="64.23032" x2="36.35615" y2="14.25" stroke='blue' stroke-width='0.05' tags='slant'/>
    <line x1="7.5" y1="74.22639" x2="42.12738" y2="14.25" stroke='blue' stroke-width='0.05' tags='slant'/>
    <line x1="7.5" y1="84.22245" x2="47.89861" y2="14.25" stroke='blue' stroke-width='0.05' tags='slant'/>
    <line x1="7.5" y1="94.21852" x2="53.66984" y2="14.25" stroke='blue' stroke-width='0.05' tags='slant'/>
    <line x1="7.5" y1="104.21458" x2="59.44107" y2="14.25" stroke='blue' stroke-width='0.05' tags='slant'/>
    <line x1="7.5" y1="114.21065" x2="65.21231" y2="14.25" stroke='blue' stroke-width='0.05' tags='slant'/>
    <line x1="7.5" y1="124.20671" x2="70.98354" y2="14.25" stroke='blue' stroke-width='0.05' tags='slant'/>
    <line x1="7.5" y1="134.20277" x2="76.75477" y2="14.25" stroke='blue' stroke-width='0.05' tags='slant'/>
    <line x1="13.24396" y1="134.25" x2="82.526" y2="14.25" stroke='blue' stroke-width='0.05' tags='slant'/>
    <line x1="19.0152" y1="134.25" x2="88.29723" y2="14.25" stroke='blue' stroke-width='0.05' tags='slant'/>
    <line x1="24.78643" y1="134.25" x2="94.06846" y2="14.25" stroke='blue' stroke-width='0.05' tags='slant'/>
    <line x1="30.55766" y1="134.25" x2="99.83969" y2="14.25" stroke='blue' stroke-width='0.05' tags='slant'/>
    <line x1="36.32889" y1="134.25" x2="105.61092" y2="14.25" stroke='blue' stroke-width='0.05' tags='slant'/>
    <line x1="42.10012" y1="134.25" x2="111.38215" y2="14.25" stroke='blue' stroke-width='0.05' tags='slant'/>
    <line x1="47.87135" y1="134.25" x2="117.15338" y2="14.25" stroke='blue' stroke-width='0.05' tags='slant'/>
    <line x1="53.64258" y1="134.25" x2="122.92461" y2="14.25" stroke='blue' stroke-width='0.05' tags='slant'/>
    <line x1="59.41381" y1="134.25" x2="128.69584" y2="14.25" stroke='blue' stroke-width='0.05' tags='slant'/>
    <line x1="65.18504" y1="134.25" x2="134.46707" y2="14.25" stroke='blue' stroke-width='0.05' tags='slant'/>
    <line x1="70.95627" y1="134.25" x2="140.2383" y2="14.25" stroke='blue' stroke-width='0.05' tags='slant'/>
    <line x1="76.7275" y1="134.25" x2="146.00953" y2="14.25" stroke='blue' stroke-width='0.05' tags='slant'/>
    <line x1="82.49873" y1="134.25" x2="151.78076" y2="14.25" stroke='blue' stroke-width='0.05' tags='slant'/>
    <line x1="88.26996" y1="134.25" x2="157.55199" y2="14.25" stroke='blue' stroke-width='0.05' tags='slant'/>
    <line x1="94.04119" y1="134.25" x2="163.32322" y2="14.25" stroke='blue' stroke-width='0.05' tags='slant'/>
    <line x1="99.81242" y1="134.25" x2="169.09445" y2="14.25" stroke='blue' stroke-width='0.05' tags='slant'/>
    <line x1="105.58365" y1="134.25" x2="174.86569" y2="14.25" stroke='blue' stroke-width='0.05' tags='slant'/>
    <line x1="111.35488" y1="134.25" x2="180.63692" y2="14.25" stroke='blue' stroke-width='0.05' tags='slant'/>
    <line x1="117.12611" y1="134.25" x2="186.40815" y2="14.25" stroke='blue' stroke-width='0.05' tags='slant'/>
    <line x1="122.89734" y1="134.25" x2="192.17938" y2="14.25" stroke='blue' stroke-width='0.05' tags='slant'/>
    <line x1="128.66858" y1="134.25" x2="197.95061" y2="14.25" stroke='blue' stroke-width='0.05' tags='slant'/>
    <line x1="134.43981" y1="134.25" x2="202.5" y2="16.36629" stroke='blue' stroke-width='0.05' tags='slant'/>
    <line x1="140.21104" y1="134.25" x2="202.5" y2="26.36235" stroke='blue' stroke-width='0.05' tags='slant'/>
    <line x1="145.98227" y1="134.25" x2="202.5" y2="36.35841" stroke='blue' stroke-width='0.05' tags='slant'/>
    <line x1="151.7535" y1="134.25" x2="202.5" y2="46.35448" stroke='blue' stroke-width='0.05' tags='slant'/>
    <line x1="157.52473" y1="134.25" x2="202.5" y2="56.35054" stroke='blue' stroke-width='0.05' tags='slant'/>
    <line x1="163.29596" y1="134.25" x2="202.5" y2="66.34661" stroke='blue' stroke-width='0.05' tags='slant'/>
    <line x1="169.06719" y1="134.25" x2="202.5" y2="76.34267" stroke='blue' stroke-width='0.05' tags='slant'/>
    <line x1="174.83842" y1="134.25" x2="202.5" y2="86.33874" stroke='blue' stroke-width='0.05' tags='slant'/>
    <line x1="180.60965" y1="134.25" x2="202.5" y2="96.3348" stroke='blue' stroke-width='0.05' tags='slant'/>
    <line x1="186.38088" y1="134.25" x2="202.5" y2="106.33087" stroke='blue' stroke-width='0.05' tags='slant'/>
    <line x1="192.15211" y1="134.25" x2="202.5" y2="116.32693" stroke='blue' stroke-width='0.05' tags='slant'/>
    <line x1="197.92334" y1="134.25" x2="202.5" y2="126.323" stroke='blue' stroke-width='0.05' tags='slant'/>
  </g>
</svg>
