<?xml version="1.0" standalone="no"?>
<!DOCTYPE svg PUBLIC "-//W3C//DTD SVG 1.1//EN" "http://www.w3.org/Graphics/SVG/1.1/DTD/svg11.dtd">
<svg xmlns="http://www.w3.org/2000/svg" width="210.0mm" height="148.5mm" viewBox="0 0 210.0 148.5" >

  <g id="sheet">
    <line x1="15.0" y1="29.25" x2="195.0" y2="29.25" stroke='blue' stroke-width='0.2' tags='ascender'/>
    <line x1="15.0" y1="39.25" x2="195.0" y2="39.25" stroke='grey' stroke-width='0.1' stroke-dasharray='2, 2' tags='waist'/>
    <line x1="15.0" y1="49.25" x2="195.0" y2="49.25" stroke='red' stroke-width='0.1' stroke-dasharray='2, 2' tags='base'/>
    <line x1="15.0" y1="59.25" x2="195.0" y2="59.25" stroke='blue' stroke-width='0.2' tags='descender'/>
    <line x1="15.0" y1="69.25" x2="195.0" y2="69.25" stroke='grey' stroke-width='0.1' stroke-dasharray='2, 2' tags='waist'/>
    <line x1="15.0" y1="79.25" x2="195.0" y2="79.25" stroke='red' stroke-width='0.1' stroke-dasharray='2, 2' tags='base'/>
    <line x1="15.0" y1="89.25" x2="195.0" y2="89.25" stroke='blue' stroke-width='0.2' tags='descender'/>
    <line x1="15.0" y1="99.25" x2="195.0" y2="99.25" stroke='grey' stroke-width='0.1' stroke-dasharray='2, 2' tags='waist'/>
    <line x1="15.0" y1="109.25" x2="195.0" y2="109.25" stroke='red' stroke-width='0.1' stroke-dasharray='2, 2' tags='base'/>
    <line x1="15.0" y1="119.25" x2="195.0" y2="119.25" stroke='blue' stroke-width='0.2' tags='descender'/>
    <line x1="15.0" y1="29.25" x2="15.0" y2="29.25" stroke='blue' stroke-width='0.05' tags='slant'/>
    <line x1="15.0" y1="49.21407" x2="26.52626" y2="29.25" stroke='blue' stroke-width='0.05' tags='slant'/>
    <line x1="15.0" y1="69.17814" x2="38.05252" y2="29.25" stroke='blue' stroke-width='0.05' tags='slant'/>
    <line x1="15.0" y1="89.14221" x2="49.57878" y2="29.25" stroke='blue' stroke-width='0.05' tags='slant'/>
    <line x1="15.0" y1="109.10628" x2="61.10504" y2="29.25" stroke='blue' stroke-width='0.05' tags='slant'/>
    <line x1="20.66978" y1="119.25" x2="72.6313" y2="29.25" stroke='blue' stroke-width='0.05' tags='slant'/>
    <line x1="32.19604" y1="119.25" x2="84.15756" y2="29.25" stroke='blue' stroke-width='0.05' tags='slant'/>
    <line x1="43.7223" y1="119.25" x2="95.68383" y2="29.25" stroke='blue' stroke-width='0.05' tags='slant'/>
    <line x1="55.24856" y1="119.25" x2="107.21009" y2="29.25" stroke='blue' stroke-width='0.05' tags='slant'/>
    <line x1="66.77482" y1="119.25" x2="118.73635" y2="29.25" stroke='blue' stroke-width='0.05' tags='slant'/>
    <line x1="78.30108" y1="119.25" x2="130.26261" y2="29.25" stroke='blue' stroke-width='0.05' tags='slant'/>
    <line x1="89.82734" y1="119.25" x2="141.78887" y2="29.25" stroke='blue' stroke-width='0.05' tags='slant'/>
    <line x1="101.35361" y1="119.25" x2="153.31513" y2="29.25" stroke='blue' stroke-width='0.05' tags='slant'/>
    <line x1="112.87987" y1="119.25" x2="164.84139" y2="29.25" stroke='blue' stroke-width='0.05' tags='slant'/>
    <line x1="124.40613" y1="119.25" x2="176.36765" y2="29.25" stroke='blue' stroke-width='0.05' tags='slant'/>
    <line x1="135.93239" y1="119.25" x2="187.89391" y2="29.25" stroke='blue' stroke-width='0.05' tags='slant'/>
    <line x1="147.45865" y1="119.25" x2="195.0" y2="36.90596" stroke='blue' stroke-width='0.05' tags='slant'/>
    <line x1="158.98491" y1="119.25" x2="195.0" y2="56.87003" stroke='blue' stroke-width='0.05' tags='slant'/>
    <line x1="170.51117" y1="119.25" x2="195.0" y2="76.8341" stroke='blue' stroke-width='0.05' tags='slant'/>
    <line x1="182.03743" y1="119.25" x2="195.0" y2="96.79817" stroke='blue' stroke-width='0.05' tags='slant'/>
    <line x1="193.56369" y1="119.25" x2="195.0" y2="116.76224" stroke='blue' stroke-width='0.05' tags='slant'/>
  </g>
</svg>
