<?xml version="1.0" standalone="no"?>
<!DOCTYPE svg PUBLIC "-//W3C//DTD SVG 1.1//EN" "http://www.w3.org/Graphics/SVG/1.1/DTD/svg11.dtd">
<svg xmlns="http://www.w3.org/2000/svg" width="210.0mm" height="148.5mm" viewBox="0 0 210.0 148.5" shape-rendering="geometricPrecision" >
  <style>
    svg         { stroke:            #ed008c; }
    svg         { stroke-width:         0.04; }
    .altcolor   { stroke:               blue; }
    .extrafine  { stroke-width:         0.01; }
    .fine       { stroke-width:         0.02; }
    .medium     { stroke-width:         0.04; }
    .broad      { stroke-width:         0.08; }
    .extrabroad { stroke-width:         0.16; }
    .dashed     { stroke-dasharray:      2 2; }
  </style>
  <g id="sheet">
    <line x1="15.0" y1="14.25" x2="195.0" y2="14.25" class='ascender broad'/>
    <line x1="15.0" y1="24.25" x2="195.0" y2="24.25" class='waist altcolor'/>
    <line x1="15.0" y1="34.25" x2="195.0" y2="34.25" class='base'/>
    <line x1="15.0" y1="44.25" x2="195.0" y2="44.25" class='descender broad'/>
    <line x1="15.0" y1="54.25" x2="195.0" y2="54.25" class='waist altcolor'/>
    <line x1="15.0" y1="64.25" x2="195.0" y2="64.25" class='base'/>
    <line x1="15.0" y1="74.25" x2="195.0" y2="74.25" class='descender broad'/>
    <line x1="15.0" y1="84.25" x2="195.0" y2="84.25" class='waist altcolor'/>
    <line x1="15.0" y1="94.25" x2="195.0" y2="94.25" class='base'/>
    <line x1="15.0" y1="104.25" x2="195.0" y2="104.25" class='descender broad'/>
    <line x1="15.0" y1="114.25" x2="195.0" y2="114.25" class='waist altcolor'/>
    <line x1="15.0" y1="124.25" x2="195.0" y2="124.25" class='base'/>
    <line x1="15.0" y1="134.25" x2="195.0" y2="134.25" class='descender broad'/>
    <line x1="15.0" y1="14.25" x2="15.0" y2="14.25" class='slant fine'/>
    <line x1="15.0" y1="34.20854" x2="26.52307" y2="14.25" class='slant fine'/>
    <line x1="15.0" y1="54.16707" x2="38.04613" y2="14.25" class='slant fine'/>
    <line x1="15.0" y1="74.12561" x2="49.5692" y2="14.25" class='slant fine'/>
    <line x1="15.0" y1="94.08414" x2="61.09226" y2="14.25" class='slant fine'/>
    <line x1="15.0" y1="114.04268" x2="72.61533" y2="14.25" class='slant fine'/>
    <line x1="15.0" y1="134.00121" x2="84.1384" y2="14.25" class='slant fine'/>
    <line x1="26.37943" y1="134.25" x2="95.66146" y2="14.25" class='slant fine'/>
    <line x1="37.9025" y1="134.25" x2="107.18453" y2="14.25" class='slant fine'/>
    <line x1="49.42556" y1="134.25" x2="118.70759" y2="14.25" class='slant fine'/>
    <line x1="60.94863" y1="134.25" x2="130.23066" y2="14.25" class='slant fine'/>
    <line x1="72.47169" y1="134.25" x2="141.75373" y2="14.25" class='slant fine'/>
    <line x1="83.99476" y1="134.25" x2="153.27679" y2="14.25" class='slant fine'/>
    <line x1="95.51783" y1="134.25" x2="164.79986" y2="14.25" class='slant fine'/>
    <line x1="107.04089" y1="134.25" x2="176.32292" y2="14.25" class='slant fine'/>
    <line x1="118.56396" y1="134.25" x2="187.84599" y2="14.25" class='slant fine'/>
    <line x1="130.08702" y1="134.25" x2="195.0" y2="21.81743" class='slant fine'/>
    <line x1="141.61009" y1="134.25" x2="195.0" y2="41.77596" class='slant fine'/>
    <line x1="153.13316" y1="134.25" x2="195.0" y2="61.7345" class='slant fine'/>
    <line x1="164.65622" y1="134.25" x2="195.0" y2="81.69303" class='slant fine'/>
    <line x1="176.17929" y1="134.25" x2="195.0" y2="101.65157" class='slant fine'/>
    <line x1="187.70235" y1="134.25" x2="195.0" y2="121.61011" class='slant fine'/>
  </g>
</svg>
