<?xml version="1.0" standalone="no"?>
<!DOCTYPE svg PUBLIC "-//W3C//DTD SVG 1.1//EN" "http://www.w3.org/Graphics/SVG/1.1/DTD/svg11.dtd">
<svg xmlns="http://www.w3.org/2000/svg" width="210.0mm" height="148.5mm" viewBox="0 0 210.0 148.5" >

  <g id="sheet">
    <line x1="15.0" y1="29.25" x2="195.0" y2="29.25" stroke='blue' stroke-width='0.2' tags='ascender'/>
    <line x1="15.0" y1="39.25" x2="195.0" y2="39.25" stroke='grey' stroke-width='0.1' stroke-dasharray='2, 2' tags='waist'/>
    <line x1="15.0" y1="49.25" x2="195.0" y2="49.25" stroke='red' stroke-width='0.1' stroke-dasharray='2, 2' tags='base'/>
    <line x1="15.0" y1="59.25" x2="195.0" y2="59.25" stroke='blue' stroke-width='0.2' tags='descender'/>
    <line x1="15.0" y1="69.25" x2="195.0" y2="69.25" stroke='grey' stroke-width='0.1' stroke-dasharray='2, 2' tags='waist'/>
    <line x1="15.0" y1="79.25" x2="195.0" y2="79.25" stroke='red' stroke-width='0.1' stroke-dasharray='2, 2' tags='base'/>
    <line x1="15.0" y1="89.25" x2="195.0" y2="89.25" stroke='blue' stroke-width='0.2' tags='descender'/>
    <line x1="15.0" y1="99.25" x2="195.0" y2="99.25" stroke='grey' stroke-width='0.1' stroke-dasharray='2, 2' tags='waist'/>
    <line x1="15.0" y1="109.25" x2="195.0" y2="109.25" stroke='red' stroke-width='0.1' stroke-dasharray='2, 2' tags='base'/>
    <line x1="15.0" y1="119.25" x2="195.0" y2="119.25" stroke='blue' stroke-width='0.2' tags='descender'/>
    <line x1="15.0" y1="29.25" x2="15.0" y2="119.25" stroke='blue' stroke-width='0.05' tags='vline'/>
    <line x1="25.0" y1="29.25" x2="25.0" y2="119.25" stroke='blue' stroke-width='0.05' tags='vline'/>
    <line x1="35.0" y1="29.25" x2="35.0" y2="119.25" stroke='blue' stroke-width='0.05' tags='vline'/>
    <line x1="45.0" y1="29.25" x2="45.0" y2="119.25" stroke='blue' stroke-width='0.05' tags='vline'/>
    <line x1="55.0" y1="29.25" x2="55.0" y2="119.25" stroke='blue' stroke-width='0.05' tags='vline'/>
    <line x1="65.0" y1="29.25" x2="65.0" y2="119.25" stroke='blue' stroke-width='0.05' tags='vline'/>
    <line x1="75.0" y1="29.25" x2="75.0" y2="119.25" stroke='blue' stroke-width='0.05' tags='vline'/>
    <line x1="85.0" y1="29.25" x2="85.0" y2="119.25" stroke='blue' stroke-width='0.05' tags='vline'/>
    <line x1="95.0" y1="29.25" x2="95.0" y2="119.25" stroke='blue' stroke-width='0.05' tags='vline'/>
    <line x1="105.0" y1="29.25" x2="105.0" y2="119.25" stroke='blue' stroke-width='0.05' tags='vline'/>
    <line x1="115.0" y1="29.25" x2="115.0" y2="119.25" stroke='blue' stroke-width='0.05' tags='vline'/>
    <line x1="125.0" y1="29.25" x2="125.0" y2="119.25" stroke='blue' stroke-width='0.05' tags='vline'/>
    <line x1="135.0" y1="29.25" x2="135.0" y2="119.25" stroke='blue' stroke-width='0.05' tags='vline'/>
    <line x1="145.0" y1="29.25" x2="145.0" y2="119.25" stroke='blue' stroke-width='0.05' tags='vline'/>
    <line x1="155.0" y1="29.25" x2="155.0" y2="119.25" stroke='blue' stroke-width='0.05' tags='vline'/>
    <line x1="165.0" y1="29.25" x2="165.0" y2="119.25" stroke='blue' stroke-width='0.05' tags='vline'/>
    <line x1="175.0" y1="29.25" x2="175.0" y2="119.25" stroke='blue' stroke-width='0.05' tags='vline'/>
    <line x1="185.0" y1="29.25" x2="185.0" y2="119.25" stroke='blue' stroke-width='0.05' tags='vline'/>
    <line x1="195.0" y1="29.25" x2="195.0" y2="119.25" stroke='blue' stroke-width='0.05' tags='vline'/>
  </g>
</svg>
