<?xml version="1.0" standalone="no"?>
<!DOCTYPE svg PUBLIC "-//W3C//DTD SVG 1.1//EN" "http://www.w3.org/Graphics/SVG/1.1/DTD/svg11.dtd">
<svg xmlns="http://www.w3.org/2000/svg" width="210.0mm" height="148.5mm" viewBox="0 0 210.0 148.5" >

  <g id="sheet">
    <line x1="10.5" y1="11.25" x2="199.5" y2="11.25" stroke='blue' stroke-width='0.2' tags='ascender'/>
    <line x1="10.5" y1="18.25" x2="199.5" y2="18.25" stroke='grey' stroke-width='0.1' stroke-dasharray='2, 2' tags='waist'/>
    <line x1="10.5" y1="25.25" x2="199.5" y2="25.25" stroke='red' stroke-width='0.1' stroke-dasharray='2, 2' tags='base'/>
    <line x1="10.5" y1="32.25" x2="199.5" y2="32.25" stroke='blue' stroke-width='0.2' tags='descender'/>
    <line x1="10.5" y1="39.25" x2="199.5" y2="39.25" stroke='grey' stroke-width='0.1' stroke-dasharray='2, 2' tags='waist'/>
    <line x1="10.5" y1="46.25" x2="199.5" y2="46.25" stroke='red' stroke-width='0.1' stroke-dasharray='2, 2' tags='base'/>
    <line x1="10.5" y1="53.25" x2="199.5" y2="53.25" stroke='blue' stroke-width='0.2' tags='descender'/>
    <line x1="10.5" y1="60.25" x2="199.5" y2="60.25" stroke='grey' stroke-width='0.1' stroke-dasharray='2, 2' tags='waist'/>
    <line x1="10.5" y1="67.25" x2="199.5" y2="67.25" stroke='red' stroke-width='0.1' stroke-dasharray='2, 2' tags='base'/>
    <line x1="10.5" y1="74.25" x2="199.5" y2="74.25" stroke='blue' stroke-width='0.2' tags='descender'/>
    <line x1="10.5" y1="81.25" x2="199.5" y2="81.25" stroke='grey' stroke-width='0.1' stroke-dasharray='2, 2' tags='waist'/>
    <line x1="10.5" y1="88.25" x2="199.5" y2="88.25" stroke='red' stroke-width='0.1' stroke-dasharray='2, 2' tags='base'/>
    <line x1="10.5" y1="95.25" x2="199.5" y2="95.25" stroke='blue' stroke-width='0.2' tags='descender'/>
    <line x1="10.5" y1="102.25" x2="199.5" y2="102.25" stroke='grey' stroke-width='0.1' stroke-dasharray='2, 2' tags='waist'/>
    <line x1="10.5" y1="109.25" x2="199.5" y2="109.25" stroke='red' stroke-width='0.1' stroke-dasharray='2, 2' tags='base'/>
    <line x1="10.5" y1="116.25" x2="199.5" y2="116.25" stroke='blue' stroke-width='0.2' tags='descender'/>
    <line x1="10.5" y1="123.25" x2="199.5" y2="123.25" stroke='grey' stroke-width='0.1' stroke-dasharray='2, 2' tags='waist'/>
    <line x1="10.5" y1="130.25" x2="199.5" y2="130.25" stroke='red' stroke-width='0.1' stroke-dasharray='2, 2' tags='base'/>
    <line x1="10.5" y1="137.25" x2="199.5" y2="137.25" stroke='blue' stroke-width='0.2' tags='descender'/>
    <line x1="10.5" y1="11.25" x2="10.5" y2="137.25" stroke='blue' stroke-width='0.05' tags='vline'/>
    <line x1="17.5" y1="11.25" x2="17.5" y2="137.25" stroke='blue' stroke-width='0.05' tags='vline'/>
    <line x1="24.5" y1="11.25" x2="24.5" y2="137.25" stroke='blue' stroke-width='0.05' tags='vline'/>
    <line x1="31.5" y1="11.25" x2="31.5" y2="137.25" stroke='blue' stroke-width='0.05' tags='vline'/>
    <line x1="38.5" y1="11.25" x2="38.5" y2="137.25" stroke='blue' stroke-width='0.05' tags='vline'/>
    <line x1="45.5" y1="11.25" x2="45.5" y2="137.25" stroke='blue' stroke-width='0.05' tags='vline'/>
    <line x1="52.5" y1="11.25" x2="52.5" y2="137.25" stroke='blue' stroke-width='0.05' tags='vline'/>
    <line x1="59.5" y1="11.25" x2="59.5" y2="137.25" stroke='blue' stroke-width='0.05' tags='vline'/>
    <line x1="66.5" y1="11.25" x2="66.5" y2="137.25" stroke='blue' stroke-width='0.05' tags='vline'/>
    <line x1="73.5" y1="11.25" x2="73.5" y2="137.25" stroke='blue' stroke-width='0.05' tags='vline'/>
    <line x1="80.5" y1="11.25" x2="80.5" y2="137.25" stroke='blue' stroke-width='0.05' tags='vline'/>
    <line x1="87.5" y1="11.25" x2="87.5" y2="137.25" stroke='blue' stroke-width='0.05' tags='vline'/>
    <line x1="94.5" y1="11.25" x2="94.5" y2="137.25" stroke='blue' stroke-width='0.05' tags='vline'/>
    <line x1="101.5" y1="11.25" x2="101.5" y2="137.25" stroke='blue' stroke-width='0.05' tags='vline'/>
    <line x1="108.5" y1="11.25" x2="108.5" y2="137.25" stroke='blue' stroke-width='0.05' tags='vline'/>
    <line x1="115.5" y1="11.25" x2="115.5" y2="137.25" stroke='blue' stroke-width='0.05' tags='vline'/>
    <line x1="122.5" y1="11.25" x2="122.5" y2="137.25" stroke='blue' stroke-width='0.05' tags='vline'/>
    <line x1="129.5" y1="11.25" x2="129.5" y2="137.25" stroke='blue' stroke-width='0.05' tags='vline'/>
    <line x1="136.5" y1="11.25" x2="136.5" y2="137.25" stroke='blue' stroke-width='0.05' tags='vline'/>
    <line x1="143.5" y1="11.25" x2="143.5" y2="137.25" stroke='blue' stroke-width='0.05' tags='vline'/>
    <line x1="150.5" y1="11.25" x2="150.5" y2="137.25" stroke='blue' stroke-width='0.05' tags='vline'/>
    <line x1="157.5" y1="11.25" x2="157.5" y2="137.25" stroke='blue' stroke-width='0.05' tags='vline'/>
    <line x1="164.5" y1="11.25" x2="164.5" y2="137.25" stroke='blue' stroke-width='0.05' tags='vline'/>
    <line x1="171.5" y1="11.25" x2="171.5" y2="137.25" stroke='blue' stroke-width='0.05' tags='vline'/>
    <line x1="178.5" y1="11.25" x2="178.5" y2="137.25" stroke='blue' stroke-width='0.05' tags='vline'/>
    <line x1="185.5" y1="11.25" x2="185.5" y2="137.25" stroke='blue' stroke-width='0.05' tags='vline'/>
    <line x1="192.5" y1="11.25" x2="192.5" y2="137.25" stroke='blue' stroke-width='0.05' tags='vline'/>
    <line x1="199.5" y1="11.25" x2="199.5" y2="137.25" stroke='blue' stroke-width='0.05' tags='vline'/>
  </g>
</svg>
