<?xml version="1.0" standalone="no"?>
<!DOCTYPE svg PUBLIC "-//W3C//DTD SVG 1.1//EN" "http://www.w3.org/Graphics/SVG/1.1/DTD/svg11.dtd">
<svg xmlns="http://www.w3.org/2000/svg" width="210.0mm" height="148.5mm" viewBox="0 0 210.0 148.5" shape-rendering="geometricPrecision" >
  <style>
    svg       { stroke: #ed008c; stroke-width: 0.04; }
    .altcolor { stroke: blue; }
    .thin     { stroke-width: 0.02; }
    .thick    { stroke-width: 0.08; }
    .dashed   { stroke-dasharray: 2 2; }
  </style>
  <g id="sheet">
    <line x1="7.5" y1="14.25" x2="202.5" y2="14.25" class='ascender thick'/>
    <line x1="7.5" y1="19.25" x2="202.5" y2="19.25" class='waist altcolor'/>
    <line x1="7.5" y1="24.25" x2="202.5" y2="24.25" class='base'/>
    <line x1="7.5" y1="29.25" x2="202.5" y2="29.25" class='descender thick'/>
    <line x1="7.5" y1="34.25" x2="202.5" y2="34.25" class='waist altcolor'/>
    <line x1="7.5" y1="39.25" x2="202.5" y2="39.25" class='base'/>
    <line x1="7.5" y1="44.25" x2="202.5" y2="44.25" class='descender thick'/>
    <line x1="7.5" y1="49.25" x2="202.5" y2="49.25" class='waist altcolor'/>
    <line x1="7.5" y1="54.25" x2="202.5" y2="54.25" class='base'/>
    <line x1="7.5" y1="59.25" x2="202.5" y2="59.25" class='descender thick'/>
    <line x1="7.5" y1="64.25" x2="202.5" y2="64.25" class='waist altcolor'/>
    <line x1="7.5" y1="69.25" x2="202.5" y2="69.25" class='base'/>
    <line x1="7.5" y1="74.25" x2="202.5" y2="74.25" class='descender thick'/>
    <line x1="7.5" y1="79.25" x2="202.5" y2="79.25" class='waist altcolor'/>
    <line x1="7.5" y1="84.25" x2="202.5" y2="84.25" class='base'/>
    <line x1="7.5" y1="89.25" x2="202.5" y2="89.25" class='descender thick'/>
    <line x1="7.5" y1="94.25" x2="202.5" y2="94.25" class='waist altcolor'/>
    <line x1="7.5" y1="99.25" x2="202.5" y2="99.25" class='base'/>
    <line x1="7.5" y1="104.25" x2="202.5" y2="104.25" class='descender thick'/>
    <line x1="7.5" y1="109.25" x2="202.5" y2="109.25" class='waist altcolor'/>
    <line x1="7.5" y1="114.25" x2="202.5" y2="114.25" class='base'/>
    <line x1="7.5" y1="119.25" x2="202.5" y2="119.25" class='descender thick'/>
    <line x1="7.5" y1="124.25" x2="202.5" y2="124.25" class='waist altcolor'/>
    <line x1="7.5" y1="129.25" x2="202.5" y2="129.25" class='base'/>
    <line x1="7.5" y1="134.25" x2="202.5" y2="134.25" class='descender thick'/>
    <line x1="7.5" y1="14.25" x2="7.5" y2="134.25" class='vline'/>
    <line x1="12.5" y1="14.25" x2="12.5" y2="134.25" class='vline'/>
    <line x1="17.5" y1="14.25" x2="17.5" y2="134.25" class='vline'/>
    <line x1="22.5" y1="14.25" x2="22.5" y2="134.25" class='vline'/>
    <line x1="27.5" y1="14.25" x2="27.5" y2="134.25" class='vline'/>
    <line x1="32.5" y1="14.25" x2="32.5" y2="134.25" class='vline'/>
    <line x1="37.5" y1="14.25" x2="37.5" y2="134.25" class='vline'/>
    <line x1="42.5" y1="14.25" x2="42.5" y2="134.25" class='vline'/>
    <line x1="47.5" y1="14.25" x2="47.5" y2="134.25" class='vline'/>
    <line x1="52.5" y1="14.25" x2="52.5" y2="134.25" class='vline'/>
    <line x1="57.5" y1="14.25" x2="57.5" y2="134.25" class='vline'/>
    <line x1="62.5" y1="14.25" x2="62.5" y2="134.25" class='vline'/>
    <line x1="67.5" y1="14.25" x2="67.5" y2="134.25" class='vline'/>
    <line x1="72.5" y1="14.25" x2="72.5" y2="134.25" class='vline'/>
    <line x1="77.5" y1="14.25" x2="77.5" y2="134.25" class='vline'/>
    <line x1="82.5" y1="14.25" x2="82.5" y2="134.25" class='vline'/>
    <line x1="87.5" y1="14.25" x2="87.5" y2="134.25" class='vline'/>
    <line x1="92.5" y1="14.25" x2="92.5" y2="134.25" class='vline'/>
    <line x1="97.5" y1="14.25" x2="97.5" y2="134.25" class='vline'/>
    <line x1="102.5" y1="14.25" x2="102.5" y2="134.25" class='vline'/>
    <line x1="107.5" y1="14.25" x2="107.5" y2="134.25" class='vline'/>
    <line x1="112.5" y1="14.25" x2="112.5" y2="134.25" class='vline'/>
    <line x1="117.5" y1="14.25" x2="117.5" y2="134.25" class='vline'/>
    <line x1="122.5" y1="14.25" x2="122.5" y2="134.25" class='vline'/>
    <line x1="127.5" y1="14.25" x2="127.5" y2="134.25" class='vline'/>
    <line x1="132.5" y1="14.25" x2="132.5" y2="134.25" class='vline'/>
    <line x1="137.5" y1="14.25" x2="137.5" y2="134.25" class='vline'/>
    <line x1="142.5" y1="14.25" x2="142.5" y2="134.25" class='vline'/>
    <line x1="147.5" y1="14.25" x2="147.5" y2="134.25" class='vline'/>
    <line x1="152.5" y1="14.25" x2="152.5" y2="134.25" class='vline'/>
    <line x1="157.5" y1="14.25" x2="157.5" y2="134.25" class='vline'/>
    <line x1="162.5" y1="14.25" x2="162.5" y2="134.25" class='vline'/>
    <line x1="167.5" y1="14.25" x2="167.5" y2="134.25" class='vline'/>
    <line x1="172.5" y1="14.25" x2="172.5" y2="134.25" class='vline'/>
    <line x1="177.5" y1="14.25" x2="177.5" y2="134.25" class='vline'/>
    <line x1="182.5" y1="14.25" x2="182.5" y2="134.25" class='vline'/>
    <line x1="187.5" y1="14.25" x2="187.5" y2="134.25" class='vline'/>
    <line x1="192.5" y1="14.25" x2="192.5" y2="134.25" class='vline'/>
    <line x1="197.5" y1="14.25" x2="197.5" y2="134.25" class='vline'/>
    <line x1="202.5" y1="14.25" x2="202.5" y2="134.25" class='vline'/>
  </g>
</svg>
