<?xml version="1.0" standalone="no"?>
<!DOCTYPE svg PUBLIC "-//W3C//DTD SVG 1.1//EN" "http://www.w3.org/Graphics/SVG/1.1/DTD/svg11.dtd">
<svg xmlns="http://www.w3.org/2000/svg" width="148.5mm" height="210.0mm" viewBox="0 0 148.5 210.0" >

  <g id="sheet">
    <line x1="11.25" y1="10.5" x2="137.25" y2="10.5" stroke='blue' stroke-width='0.2' tags='ascender'/>
    <line x1="11.25" y1="17.5" x2="137.25" y2="17.5" stroke='grey' stroke-width='0.1' stroke-dasharray='2, 2' tags='waist'/>
    <line x1="11.25" y1="24.5" x2="137.25" y2="24.5" stroke='red' stroke-width='0.1' stroke-dasharray='2, 2' tags='base'/>
    <line x1="11.25" y1="31.5" x2="137.25" y2="31.5" stroke='blue' stroke-width='0.2' tags='descender'/>
    <line x1="11.25" y1="38.5" x2="137.25" y2="38.5" stroke='grey' stroke-width='0.1' stroke-dasharray='2, 2' tags='waist'/>
    <line x1="11.25" y1="45.5" x2="137.25" y2="45.5" stroke='red' stroke-width='0.1' stroke-dasharray='2, 2' tags='base'/>
    <line x1="11.25" y1="52.5" x2="137.25" y2="52.5" stroke='blue' stroke-width='0.2' tags='descender'/>
    <line x1="11.25" y1="59.5" x2="137.25" y2="59.5" stroke='grey' stroke-width='0.1' stroke-dasharray='2, 2' tags='waist'/>
    <line x1="11.25" y1="66.5" x2="137.25" y2="66.5" stroke='red' stroke-width='0.1' stroke-dasharray='2, 2' tags='base'/>
    <line x1="11.25" y1="73.5" x2="137.25" y2="73.5" stroke='blue' stroke-width='0.2' tags='descender'/>
    <line x1="11.25" y1="80.5" x2="137.25" y2="80.5" stroke='grey' stroke-width='0.1' stroke-dasharray='2, 2' tags='waist'/>
    <line x1="11.25" y1="87.5" x2="137.25" y2="87.5" stroke='red' stroke-width='0.1' stroke-dasharray='2, 2' tags='base'/>
    <line x1="11.25" y1="94.5" x2="137.25" y2="94.5" stroke='blue' stroke-width='0.2' tags='descender'/>
    <line x1="11.25" y1="101.5" x2="137.25" y2="101.5" stroke='grey' stroke-width='0.1' stroke-dasharray='2, 2' tags='waist'/>
    <line x1="11.25" y1="108.5" x2="137.25" y2="108.5" stroke='red' stroke-width='0.1' stroke-dasharray='2, 2' tags='base'/>
    <line x1="11.25" y1="115.5" x2="137.25" y2="115.5" stroke='blue' stroke-width='0.2' tags='descender'/>
    <line x1="11.25" y1="122.5" x2="137.25" y2="122.5" stroke='grey' stroke-width='0.1' stroke-dasharray='2, 2' tags='waist'/>
    <line x1="11.25" y1="129.5" x2="137.25" y2="129.5" stroke='red' stroke-width='0.1' stroke-dasharray='2, 2' tags='base'/>
    <line x1="11.25" y1="136.5" x2="137.25" y2="136.5" stroke='blue' stroke-width='0.2' tags='descender'/>
    <line x1="11.25" y1="143.5" x2="137.25" y2="143.5" stroke='grey' stroke-width='0.1' stroke-dasharray='2, 2' tags='waist'/>
    <line x1="11.25" y1="150.5" x2="137.25" y2="150.5" stroke='red' stroke-width='0.1' stroke-dasharray='2, 2' tags='base'/>
    <line x1="11.25" y1="157.5" x2="137.25" y2="157.5" stroke='blue' stroke-width='0.2' tags='descender'/>
    <line x1="11.25" y1="164.5" x2="137.25" y2="164.5" stroke='grey' stroke-width='0.1' stroke-dasharray='2, 2' tags='waist'/>
    <line x1="11.25" y1="171.5" x2="137.25" y2="171.5" stroke='red' stroke-width='0.1' stroke-dasharray='2, 2' tags='base'/>
    <line x1="11.25" y1="178.5" x2="137.25" y2="178.5" stroke='blue' stroke-width='0.2' tags='descender'/>
    <line x1="11.25" y1="185.5" x2="137.25" y2="185.5" stroke='grey' stroke-width='0.1' stroke-dasharray='2, 2' tags='waist'/>
    <line x1="11.25" y1="192.5" x2="137.25" y2="192.5" stroke='red' stroke-width='0.1' stroke-dasharray='2, 2' tags='base'/>
    <line x1="11.25" y1="199.5" x2="137.25" y2="199.5" stroke='blue' stroke-width='0.2' tags='descender'/>
    <line x1="11.25" y1="10.5" x2="11.25" y2="199.5" stroke='blue' stroke-width='0.05' tags='vline'/>
    <line x1="18.25" y1="10.5" x2="18.25" y2="199.5" stroke='blue' stroke-width='0.05' tags='vline'/>
    <line x1="25.25" y1="10.5" x2="25.25" y2="199.5" stroke='blue' stroke-width='0.05' tags='vline'/>
    <line x1="32.25" y1="10.5" x2="32.25" y2="199.5" stroke='blue' stroke-width='0.05' tags='vline'/>
    <line x1="39.25" y1="10.5" x2="39.25" y2="199.5" stroke='blue' stroke-width='0.05' tags='vline'/>
    <line x1="46.25" y1="10.5" x2="46.25" y2="199.5" stroke='blue' stroke-width='0.05' tags='vline'/>
    <line x1="53.25" y1="10.5" x2="53.25" y2="199.5" stroke='blue' stroke-width='0.05' tags='vline'/>
    <line x1="60.25" y1="10.5" x2="60.25" y2="199.5" stroke='blue' stroke-width='0.05' tags='vline'/>
    <line x1="67.25" y1="10.5" x2="67.25" y2="199.5" stroke='blue' stroke-width='0.05' tags='vline'/>
    <line x1="74.25" y1="10.5" x2="74.25" y2="199.5" stroke='blue' stroke-width='0.05' tags='vline'/>
    <line x1="81.25" y1="10.5" x2="81.25" y2="199.5" stroke='blue' stroke-width='0.05' tags='vline'/>
    <line x1="88.25" y1="10.5" x2="88.25" y2="199.5" stroke='blue' stroke-width='0.05' tags='vline'/>
    <line x1="95.25" y1="10.5" x2="95.25" y2="199.5" stroke='blue' stroke-width='0.05' tags='vline'/>
    <line x1="102.25" y1="10.5" x2="102.25" y2="199.5" stroke='blue' stroke-width='0.05' tags='vline'/>
    <line x1="109.25" y1="10.5" x2="109.25" y2="199.5" stroke='blue' stroke-width='0.05' tags='vline'/>
    <line x1="116.25" y1="10.5" x2="116.25" y2="199.5" stroke='blue' stroke-width='0.05' tags='vline'/>
    <line x1="123.25" y1="10.5" x2="123.25" y2="199.5" stroke='blue' stroke-width='0.05' tags='vline'/>
    <line x1="130.25" y1="10.5" x2="130.25" y2="199.5" stroke='blue' stroke-width='0.05' tags='vline'/>
    <line x1="137.25" y1="10.5" x2="137.25" y2="199.5" stroke='blue' stroke-width='0.05' tags='vline'/>
  </g>
</svg>
