<?xml version="1.0" standalone="no"?>
<!DOCTYPE svg PUBLIC "-//W3C//DTD SVG 1.1//EN" "http://www.w3.org/Graphics/SVG/1.1/DTD/svg11.dtd">
<svg xmlns="http://www.w3.org/2000/svg" width="210.0mm" height="148.5mm" viewBox="0 0 210.0 148.5" >

  <g id="sheet">
    <line x1="15.0" y1="21.75" x2="195.0" y2="21.75" stroke='blue' stroke-width='0.2' tags='ascender'/>
    <line x1="15.0" y1="26.75" x2="195.0" y2="26.75" stroke='grey' stroke-width='0.1' stroke-dasharray='2, 2' tags='waist'/>
    <line x1="15.0" y1="31.75" x2="195.0" y2="31.75" stroke='red' stroke-width='0.1' stroke-dasharray='2, 2' tags='base'/>
    <line x1="15.0" y1="36.75" x2="195.0" y2="36.75" stroke='blue' stroke-width='0.2' tags='descender'/>
    <line x1="15.0" y1="41.75" x2="195.0" y2="41.75" stroke='grey' stroke-width='0.1' stroke-dasharray='2, 2' tags='waist'/>
    <line x1="15.0" y1="46.75" x2="195.0" y2="46.75" stroke='red' stroke-width='0.1' stroke-dasharray='2, 2' tags='base'/>
    <line x1="15.0" y1="51.75" x2="195.0" y2="51.75" stroke='blue' stroke-width='0.2' tags='descender'/>
    <line x1="15.0" y1="56.75" x2="195.0" y2="56.75" stroke='grey' stroke-width='0.1' stroke-dasharray='2, 2' tags='waist'/>
    <line x1="15.0" y1="61.75" x2="195.0" y2="61.75" stroke='red' stroke-width='0.1' stroke-dasharray='2, 2' tags='base'/>
    <line x1="15.0" y1="66.75" x2="195.0" y2="66.75" stroke='blue' stroke-width='0.2' tags='descender'/>
    <line x1="15.0" y1="71.75" x2="195.0" y2="71.75" stroke='grey' stroke-width='0.1' stroke-dasharray='2, 2' tags='waist'/>
    <line x1="15.0" y1="76.75" x2="195.0" y2="76.75" stroke='red' stroke-width='0.1' stroke-dasharray='2, 2' tags='base'/>
    <line x1="15.0" y1="81.75" x2="195.0" y2="81.75" stroke='blue' stroke-width='0.2' tags='descender'/>
    <line x1="15.0" y1="86.75" x2="195.0" y2="86.75" stroke='grey' stroke-width='0.1' stroke-dasharray='2, 2' tags='waist'/>
    <line x1="15.0" y1="91.75" x2="195.0" y2="91.75" stroke='red' stroke-width='0.1' stroke-dasharray='2, 2' tags='base'/>
    <line x1="15.0" y1="96.75" x2="195.0" y2="96.75" stroke='blue' stroke-width='0.2' tags='descender'/>
    <line x1="15.0" y1="101.75" x2="195.0" y2="101.75" stroke='grey' stroke-width='0.1' stroke-dasharray='2, 2' tags='waist'/>
    <line x1="15.0" y1="106.75" x2="195.0" y2="106.75" stroke='red' stroke-width='0.1' stroke-dasharray='2, 2' tags='base'/>
    <line x1="15.0" y1="111.75" x2="195.0" y2="111.75" stroke='blue' stroke-width='0.2' tags='descender'/>
    <line x1="15.0" y1="116.75" x2="195.0" y2="116.75" stroke='grey' stroke-width='0.1' stroke-dasharray='2, 2' tags='waist'/>
    <line x1="15.0" y1="121.75" x2="195.0" y2="121.75" stroke='red' stroke-width='0.1' stroke-dasharray='2, 2' tags='base'/>
    <line x1="15.0" y1="126.75" x2="195.0" y2="126.75" stroke='blue' stroke-width='0.2' tags='descender'/>
    <line x1="15.0" y1="21.75" x2="15.0" y2="126.75" stroke='blue' stroke-width='0.05' tags='vline'/>
    <line x1="20.0" y1="21.75" x2="20.0" y2="126.75" stroke='blue' stroke-width='0.05' tags='vline'/>
    <line x1="25.0" y1="21.75" x2="25.0" y2="126.75" stroke='blue' stroke-width='0.05' tags='vline'/>
    <line x1="30.0" y1="21.75" x2="30.0" y2="126.75" stroke='blue' stroke-width='0.05' tags='vline'/>
    <line x1="35.0" y1="21.75" x2="35.0" y2="126.75" stroke='blue' stroke-width='0.05' tags='vline'/>
    <line x1="40.0" y1="21.75" x2="40.0" y2="126.75" stroke='blue' stroke-width='0.05' tags='vline'/>
    <line x1="45.0" y1="21.75" x2="45.0" y2="126.75" stroke='blue' stroke-width='0.05' tags='vline'/>
    <line x1="50.0" y1="21.75" x2="50.0" y2="126.75" stroke='blue' stroke-width='0.05' tags='vline'/>
    <line x1="55.0" y1="21.75" x2="55.0" y2="126.75" stroke='blue' stroke-width='0.05' tags='vline'/>
    <line x1="60.0" y1="21.75" x2="60.0" y2="126.75" stroke='blue' stroke-width='0.05' tags='vline'/>
    <line x1="65.0" y1="21.75" x2="65.0" y2="126.75" stroke='blue' stroke-width='0.05' tags='vline'/>
    <line x1="70.0" y1="21.75" x2="70.0" y2="126.75" stroke='blue' stroke-width='0.05' tags='vline'/>
    <line x1="75.0" y1="21.75" x2="75.0" y2="126.75" stroke='blue' stroke-width='0.05' tags='vline'/>
    <line x1="80.0" y1="21.75" x2="80.0" y2="126.75" stroke='blue' stroke-width='0.05' tags='vline'/>
    <line x1="85.0" y1="21.75" x2="85.0" y2="126.75" stroke='blue' stroke-width='0.05' tags='vline'/>
    <line x1="90.0" y1="21.75" x2="90.0" y2="126.75" stroke='blue' stroke-width='0.05' tags='vline'/>
    <line x1="95.0" y1="21.75" x2="95.0" y2="126.75" stroke='blue' stroke-width='0.05' tags='vline'/>
    <line x1="100.0" y1="21.75" x2="100.0" y2="126.75" stroke='blue' stroke-width='0.05' tags='vline'/>
    <line x1="105.0" y1="21.75" x2="105.0" y2="126.75" stroke='blue' stroke-width='0.05' tags='vline'/>
    <line x1="110.0" y1="21.75" x2="110.0" y2="126.75" stroke='blue' stroke-width='0.05' tags='vline'/>
    <line x1="115.0" y1="21.75" x2="115.0" y2="126.75" stroke='blue' stroke-width='0.05' tags='vline'/>
    <line x1="120.0" y1="21.75" x2="120.0" y2="126.75" stroke='blue' stroke-width='0.05' tags='vline'/>
    <line x1="125.0" y1="21.75" x2="125.0" y2="126.75" stroke='blue' stroke-width='0.05' tags='vline'/>
    <line x1="130.0" y1="21.75" x2="130.0" y2="126.75" stroke='blue' stroke-width='0.05' tags='vline'/>
    <line x1="135.0" y1="21.75" x2="135.0" y2="126.75" stroke='blue' stroke-width='0.05' tags='vline'/>
    <line x1="140.0" y1="21.75" x2="140.0" y2="126.75" stroke='blue' stroke-width='0.05' tags='vline'/>
    <line x1="145.0" y1="21.75" x2="145.0" y2="126.75" stroke='blue' stroke-width='0.05' tags='vline'/>
    <line x1="150.0" y1="21.75" x2="150.0" y2="126.75" stroke='blue' stroke-width='0.05' tags='vline'/>
    <line x1="155.0" y1="21.75" x2="155.0" y2="126.75" stroke='blue' stroke-width='0.05' tags='vline'/>
    <line x1="160.0" y1="21.75" x2="160.0" y2="126.75" stroke='blue' stroke-width='0.05' tags='vline'/>
    <line x1="165.0" y1="21.75" x2="165.0" y2="126.75" stroke='blue' stroke-width='0.05' tags='vline'/>
    <line x1="170.0" y1="21.75" x2="170.0" y2="126.75" stroke='blue' stroke-width='0.05' tags='vline'/>
    <line x1="175.0" y1="21.75" x2="175.0" y2="126.75" stroke='blue' stroke-width='0.05' tags='vline'/>
    <line x1="180.0" y1="21.75" x2="180.0" y2="126.75" stroke='blue' stroke-width='0.05' tags='vline'/>
    <line x1="185.0" y1="21.75" x2="185.0" y2="126.75" stroke='blue' stroke-width='0.05' tags='vline'/>
    <line x1="190.0" y1="21.75" x2="190.0" y2="126.75" stroke='blue' stroke-width='0.05' tags='vline'/>
    <line x1="195.0" y1="21.75" x2="195.0" y2="126.75" stroke='blue' stroke-width='0.05' tags='vline'/>
  </g>
</svg>
