<?xml version="1.0" standalone="no"?>
<!DOCTYPE svg PUBLIC "-//W3C//DTD SVG 1.1//EN" "http://www.w3.org/Graphics/SVG/1.1/DTD/svg11.dtd">
<svg xmlns="http://www.w3.org/2000/svg" width="297.0mm" height="210.0mm" viewBox="0 0 297.0 210.0" >

  <g id="sheet">
    <line x1="12.0" y1="21.0" x2="285.0" y2="21.0" stroke='blue' stroke-width='0.2' tags='ascender'/>
    <line x1="12.0" y1="28.0" x2="285.0" y2="28.0" stroke='grey' stroke-width='0.1' stroke-dasharray='2, 2' tags='waist'/>
    <line x1="12.0" y1="35.0" x2="285.0" y2="35.0" stroke='red' stroke-width='0.1' stroke-dasharray='2, 2' tags='base'/>
    <line x1="12.0" y1="42.0" x2="285.0" y2="42.0" stroke='blue' stroke-width='0.2' tags='descender'/>
    <line x1="12.0" y1="49.0" x2="285.0" y2="49.0" stroke='grey' stroke-width='0.1' stroke-dasharray='2, 2' tags='waist'/>
    <line x1="12.0" y1="56.0" x2="285.0" y2="56.0" stroke='red' stroke-width='0.1' stroke-dasharray='2, 2' tags='base'/>
    <line x1="12.0" y1="63.0" x2="285.0" y2="63.0" stroke='blue' stroke-width='0.2' tags='descender'/>
    <line x1="12.0" y1="70.0" x2="285.0" y2="70.0" stroke='grey' stroke-width='0.1' stroke-dasharray='2, 2' tags='waist'/>
    <line x1="12.0" y1="77.0" x2="285.0" y2="77.0" stroke='red' stroke-width='0.1' stroke-dasharray='2, 2' tags='base'/>
    <line x1="12.0" y1="84.0" x2="285.0" y2="84.0" stroke='blue' stroke-width='0.2' tags='descender'/>
    <line x1="12.0" y1="91.0" x2="285.0" y2="91.0" stroke='grey' stroke-width='0.1' stroke-dasharray='2, 2' tags='waist'/>
    <line x1="12.0" y1="98.0" x2="285.0" y2="98.0" stroke='red' stroke-width='0.1' stroke-dasharray='2, 2' tags='base'/>
    <line x1="12.0" y1="105.0" x2="285.0" y2="105.0" stroke='blue' stroke-width='0.2' tags='descender'/>
    <line x1="12.0" y1="112.0" x2="285.0" y2="112.0" stroke='grey' stroke-width='0.1' stroke-dasharray='2, 2' tags='waist'/>
    <line x1="12.0" y1="119.0" x2="285.0" y2="119.0" stroke='red' stroke-width='0.1' stroke-dasharray='2, 2' tags='base'/>
    <line x1="12.0" y1="126.0" x2="285.0" y2="126.0" stroke='blue' stroke-width='0.2' tags='descender'/>
    <line x1="12.0" y1="133.0" x2="285.0" y2="133.0" stroke='grey' stroke-width='0.1' stroke-dasharray='2, 2' tags='waist'/>
    <line x1="12.0" y1="140.0" x2="285.0" y2="140.0" stroke='red' stroke-width='0.1' stroke-dasharray='2, 2' tags='base'/>
    <line x1="12.0" y1="147.0" x2="285.0" y2="147.0" stroke='blue' stroke-width='0.2' tags='descender'/>
    <line x1="12.0" y1="154.0" x2="285.0" y2="154.0" stroke='grey' stroke-width='0.1' stroke-dasharray='2, 2' tags='waist'/>
    <line x1="12.0" y1="161.0" x2="285.0" y2="161.0" stroke='red' stroke-width='0.1' stroke-dasharray='2, 2' tags='base'/>
    <line x1="12.0" y1="168.0" x2="285.0" y2="168.0" stroke='blue' stroke-width='0.2' tags='descender'/>
    <line x1="12.0" y1="175.0" x2="285.0" y2="175.0" stroke='grey' stroke-width='0.1' stroke-dasharray='2, 2' tags='waist'/>
    <line x1="12.0" y1="182.0" x2="285.0" y2="182.0" stroke='red' stroke-width='0.1' stroke-dasharray='2, 2' tags='base'/>
    <line x1="12.0" y1="189.0" x2="285.0" y2="189.0" stroke='blue' stroke-width='0.2' tags='descender'/>
    <line x1="12.0" y1="21.0" x2="12.0" y2="21.0" stroke='blue' stroke-width='0.05' tags='slant'/>
    <line x1="12.0" y1="62.30879" x2="18.54267" y2="21.0" stroke='blue' stroke-width='0.05' tags='slant'/>
    <line x1="12.0" y1="103.61759" x2="25.08534" y2="21.0" stroke='blue' stroke-width='0.05' tags='slant'/>
    <line x1="12.0" y1="144.92638" x2="31.62801" y2="21.0" stroke='blue' stroke-width='0.05' tags='slant'/>
    <line x1="12.0" y1="186.23518" x2="38.17068" y2="21.0" stroke='blue' stroke-width='0.05' tags='slant'/>
    <line x1="18.10477" y1="189.0" x2="44.71335" y2="21.0" stroke='blue' stroke-width='0.05' tags='slant'/>
    <line x1="24.64744" y1="189.0" x2="51.25602" y2="21.0" stroke='blue' stroke-width='0.05' tags='slant'/>
    <line x1="31.19011" y1="189.0" x2="57.79869" y2="21.0" stroke='blue' stroke-width='0.05' tags='slant'/>
    <line x1="37.73278" y1="189.0" x2="64.34136" y2="21.0" stroke='blue' stroke-width='0.05' tags='slant'/>
    <line x1="44.27545" y1="189.0" x2="70.88403" y2="21.0" stroke='blue' stroke-width='0.05' tags='slant'/>
    <line x1="50.81812" y1="189.0" x2="77.4267" y2="21.0" stroke='blue' stroke-width='0.05' tags='slant'/>
    <line x1="57.36079" y1="189.0" x2="83.96937" y2="21.0" stroke='blue' stroke-width='0.05' tags='slant'/>
    <line x1="63.90346" y1="189.0" x2="90.51204" y2="21.0" stroke='blue' stroke-width='0.05' tags='slant'/>
    <line x1="70.44613" y1="189.0" x2="97.05471" y2="21.0" stroke='blue' stroke-width='0.05' tags='slant'/>
    <line x1="76.9888" y1="189.0" x2="103.59739" y2="21.0" stroke='blue' stroke-width='0.05' tags='slant'/>
    <line x1="83.53147" y1="189.0" x2="110.14006" y2="21.0" stroke='blue' stroke-width='0.05' tags='slant'/>
    <line x1="90.07414" y1="189.0" x2="116.68273" y2="21.0" stroke='blue' stroke-width='0.05' tags='slant'/>
    <line x1="96.61681" y1="189.0" x2="123.2254" y2="21.0" stroke='blue' stroke-width='0.05' tags='slant'/>
    <line x1="103.15948" y1="189.0" x2="129.76807" y2="21.0" stroke='blue' stroke-width='0.05' tags='slant'/>
    <line x1="109.70215" y1="189.0" x2="136.31074" y2="21.0" stroke='blue' stroke-width='0.05' tags='slant'/>
    <line x1="116.24482" y1="189.0" x2="142.85341" y2="21.0" stroke='blue' stroke-width='0.05' tags='slant'/>
    <line x1="122.78749" y1="189.0" x2="149.39608" y2="21.0" stroke='blue' stroke-width='0.05' tags='slant'/>
    <line x1="129.33016" y1="189.0" x2="155.93875" y2="21.0" stroke='blue' stroke-width='0.05' tags='slant'/>
    <line x1="135.87283" y1="189.0" x2="162.48142" y2="21.0" stroke='blue' stroke-width='0.05' tags='slant'/>
    <line x1="142.4155" y1="189.0" x2="169.02409" y2="21.0" stroke='blue' stroke-width='0.05' tags='slant'/>
    <line x1="148.95817" y1="189.0" x2="175.56676" y2="21.0" stroke='blue' stroke-width='0.05' tags='slant'/>
    <line x1="155.50084" y1="189.0" x2="182.10943" y2="21.0" stroke='blue' stroke-width='0.05' tags='slant'/>
    <line x1="162.04351" y1="189.0" x2="188.6521" y2="21.0" stroke='blue' stroke-width='0.05' tags='slant'/>
    <line x1="168.58618" y1="189.0" x2="195.19477" y2="21.0" stroke='blue' stroke-width='0.05' tags='slant'/>
    <line x1="175.12885" y1="189.0" x2="201.73744" y2="21.0" stroke='blue' stroke-width='0.05' tags='slant'/>
    <line x1="181.67152" y1="189.0" x2="208.28011" y2="21.0" stroke='blue' stroke-width='0.05' tags='slant'/>
    <line x1="188.2142" y1="189.0" x2="214.82278" y2="21.0" stroke='blue' stroke-width='0.05' tags='slant'/>
    <line x1="194.75687" y1="189.0" x2="221.36545" y2="21.0" stroke='blue' stroke-width='0.05' tags='slant'/>
    <line x1="201.29954" y1="189.0" x2="227.90812" y2="21.0" stroke='blue' stroke-width='0.05' tags='slant'/>
    <line x1="207.84221" y1="189.0" x2="234.45079" y2="21.0" stroke='blue' stroke-width='0.05' tags='slant'/>
    <line x1="214.38488" y1="189.0" x2="240.99346" y2="21.0" stroke='blue' stroke-width='0.05' tags='slant'/>
    <line x1="220.92755" y1="189.0" x2="247.53613" y2="21.0" stroke='blue' stroke-width='0.05' tags='slant'/>
    <line x1="227.47022" y1="189.0" x2="254.0788" y2="21.0" stroke='blue' stroke-width='0.05' tags='slant'/>
    <line x1="234.01289" y1="189.0" x2="260.62147" y2="21.0" stroke='blue' stroke-width='0.05' tags='slant'/>
    <line x1="240.55556" y1="189.0" x2="267.16414" y2="21.0" stroke='blue' stroke-width='0.05' tags='slant'/>
    <line x1="247.09823" y1="189.0" x2="273.70681" y2="21.0" stroke='blue' stroke-width='0.05' tags='slant'/>
    <line x1="253.6409" y1="189.0" x2="280.24948" y2="21.0" stroke='blue' stroke-width='0.05' tags='slant'/>
    <line x1="260.18357" y1="189.0" x2="285.0" y2="32.31522" stroke='blue' stroke-width='0.05' tags='slant'/>
    <line x1="266.72624" y1="189.0" x2="285.0" y2="73.62402" stroke='blue' stroke-width='0.05' tags='slant'/>
    <line x1="273.26891" y1="189.0" x2="285.0" y2="114.93281" stroke='blue' stroke-width='0.05' tags='slant'/>
    <line x1="279.81158" y1="189.0" x2="285.0" y2="156.24161" stroke='blue' stroke-width='0.05' tags='slant'/>
  </g>
</svg>
