<?xml version="1.0" standalone="no"?>
<!DOCTYPE svg PUBLIC "-//W3C//DTD SVG 1.1//EN" "http://www.w3.org/Graphics/SVG/1.1/DTD/svg11.dtd">
<svg xmlns="http://www.w3.org/2000/svg" width="297.0mm" height="210.0mm" viewBox="0 0 297.0 210.0" >

  <g id="sheet">
    <line x1="13.5" y1="22.5" x2="283.5" y2="22.5" stroke='blue' stroke-width='0.2' tags='ascender'/>
    <line x1="13.5" y1="27.5" x2="283.5" y2="27.5" stroke='grey' stroke-width='0.1' stroke-dasharray='2, 2' tags='waist'/>
    <line x1="13.5" y1="32.5" x2="283.5" y2="32.5" stroke='red' stroke-width='0.1' stroke-dasharray='2, 2' tags='base'/>
    <line x1="13.5" y1="37.5" x2="283.5" y2="37.5" stroke='blue' stroke-width='0.2' tags='descender'/>
    <line x1="13.5" y1="42.5" x2="283.5" y2="42.5" stroke='grey' stroke-width='0.1' stroke-dasharray='2, 2' tags='waist'/>
    <line x1="13.5" y1="47.5" x2="283.5" y2="47.5" stroke='red' stroke-width='0.1' stroke-dasharray='2, 2' tags='base'/>
    <line x1="13.5" y1="52.5" x2="283.5" y2="52.5" stroke='blue' stroke-width='0.2' tags='descender'/>
    <line x1="13.5" y1="57.5" x2="283.5" y2="57.5" stroke='grey' stroke-width='0.1' stroke-dasharray='2, 2' tags='waist'/>
    <line x1="13.5" y1="62.5" x2="283.5" y2="62.5" stroke='red' stroke-width='0.1' stroke-dasharray='2, 2' tags='base'/>
    <line x1="13.5" y1="67.5" x2="283.5" y2="67.5" stroke='blue' stroke-width='0.2' tags='descender'/>
    <line x1="13.5" y1="72.5" x2="283.5" y2="72.5" stroke='grey' stroke-width='0.1' stroke-dasharray='2, 2' tags='waist'/>
    <line x1="13.5" y1="77.5" x2="283.5" y2="77.5" stroke='red' stroke-width='0.1' stroke-dasharray='2, 2' tags='base'/>
    <line x1="13.5" y1="82.5" x2="283.5" y2="82.5" stroke='blue' stroke-width='0.2' tags='descender'/>
    <line x1="13.5" y1="87.5" x2="283.5" y2="87.5" stroke='grey' stroke-width='0.1' stroke-dasharray='2, 2' tags='waist'/>
    <line x1="13.5" y1="92.5" x2="283.5" y2="92.5" stroke='red' stroke-width='0.1' stroke-dasharray='2, 2' tags='base'/>
    <line x1="13.5" y1="97.5" x2="283.5" y2="97.5" stroke='blue' stroke-width='0.2' tags='descender'/>
    <line x1="13.5" y1="102.5" x2="283.5" y2="102.5" stroke='grey' stroke-width='0.1' stroke-dasharray='2, 2' tags='waist'/>
    <line x1="13.5" y1="107.5" x2="283.5" y2="107.5" stroke='red' stroke-width='0.1' stroke-dasharray='2, 2' tags='base'/>
    <line x1="13.5" y1="112.5" x2="283.5" y2="112.5" stroke='blue' stroke-width='0.2' tags='descender'/>
    <line x1="13.5" y1="117.5" x2="283.5" y2="117.5" stroke='grey' stroke-width='0.1' stroke-dasharray='2, 2' tags='waist'/>
    <line x1="13.5" y1="122.5" x2="283.5" y2="122.5" stroke='red' stroke-width='0.1' stroke-dasharray='2, 2' tags='base'/>
    <line x1="13.5" y1="127.5" x2="283.5" y2="127.5" stroke='blue' stroke-width='0.2' tags='descender'/>
    <line x1="13.5" y1="132.5" x2="283.5" y2="132.5" stroke='grey' stroke-width='0.1' stroke-dasharray='2, 2' tags='waist'/>
    <line x1="13.5" y1="137.5" x2="283.5" y2="137.5" stroke='red' stroke-width='0.1' stroke-dasharray='2, 2' tags='base'/>
    <line x1="13.5" y1="142.5" x2="283.5" y2="142.5" stroke='blue' stroke-width='0.2' tags='descender'/>
    <line x1="13.5" y1="147.5" x2="283.5" y2="147.5" stroke='grey' stroke-width='0.1' stroke-dasharray='2, 2' tags='waist'/>
    <line x1="13.5" y1="152.5" x2="283.5" y2="152.5" stroke='red' stroke-width='0.1' stroke-dasharray='2, 2' tags='base'/>
    <line x1="13.5" y1="157.5" x2="283.5" y2="157.5" stroke='blue' stroke-width='0.2' tags='descender'/>
    <line x1="13.5" y1="162.5" x2="283.5" y2="162.5" stroke='grey' stroke-width='0.1' stroke-dasharray='2, 2' tags='waist'/>
    <line x1="13.5" y1="167.5" x2="283.5" y2="167.5" stroke='red' stroke-width='0.1' stroke-dasharray='2, 2' tags='base'/>
    <line x1="13.5" y1="172.5" x2="283.5" y2="172.5" stroke='blue' stroke-width='0.2' tags='descender'/>
    <line x1="13.5" y1="177.5" x2="283.5" y2="177.5" stroke='grey' stroke-width='0.1' stroke-dasharray='2, 2' tags='waist'/>
    <line x1="13.5" y1="182.5" x2="283.5" y2="182.5" stroke='red' stroke-width='0.1' stroke-dasharray='2, 2' tags='base'/>
    <line x1="13.5" y1="187.5" x2="283.5" y2="187.5" stroke='blue' stroke-width='0.2' tags='descender'/>
    <line x1="13.5" y1="22.5" x2="13.5" y2="22.5" stroke='blue' stroke-width='0.05' tags='slant'/>
    <line x1="13.5" y1="32.49689" x2="19.27171" y2="22.5" stroke='blue' stroke-width='0.05' tags='slant'/>
    <line x1="13.5" y1="42.49377" x2="25.04341" y2="22.5" stroke='blue' stroke-width='0.05' tags='slant'/>
    <line x1="13.5" y1="52.49066" x2="30.81512" y2="22.5" stroke='blue' stroke-width='0.05' tags='slant'/>
    <line x1="13.5" y1="62.48755" x2="36.58682" y2="22.5" stroke='blue' stroke-width='0.05' tags='slant'/>
    <line x1="13.5" y1="72.48444" x2="42.35853" y2="22.5" stroke='blue' stroke-width='0.05' tags='slant'/>
    <line x1="13.5" y1="82.48132" x2="48.13023" y2="22.5" stroke='blue' stroke-width='0.05' tags='slant'/>
    <line x1="13.5" y1="92.47821" x2="53.90194" y2="22.5" stroke='blue' stroke-width='0.05' tags='slant'/>
    <line x1="13.5" y1="102.4751" x2="59.67365" y2="22.5" stroke='blue' stroke-width='0.05' tags='slant'/>
    <line x1="13.5" y1="112.47199" x2="65.44535" y2="22.5" stroke='blue' stroke-width='0.05' tags='slant'/>
    <line x1="13.5" y1="122.46887" x2="71.21706" y2="22.5" stroke='blue' stroke-width='0.05' tags='slant'/>
    <line x1="13.5" y1="132.46576" x2="76.98876" y2="22.5" stroke='blue' stroke-width='0.05' tags='slant'/>
    <line x1="13.5" y1="142.46265" x2="82.76047" y2="22.5" stroke='blue' stroke-width='0.05' tags='slant'/>
    <line x1="13.5" y1="152.45954" x2="88.53217" y2="22.5" stroke='blue' stroke-width='0.05' tags='slant'/>
    <line x1="13.5" y1="162.45642" x2="94.30388" y2="22.5" stroke='blue' stroke-width='0.05' tags='slant'/>
    <line x1="13.5" y1="172.45331" x2="100.07559" y2="22.5" stroke='blue' stroke-width='0.05' tags='slant'/>
    <line x1="13.5" y1="182.4502" x2="105.84729" y2="22.5" stroke='blue' stroke-width='0.05' tags='slant'/>
    <line x1="16.3562" y1="187.5" x2="111.619" y2="22.5" stroke='blue' stroke-width='0.05' tags='slant'/>
    <line x1="22.12791" y1="187.5" x2="117.3907" y2="22.5" stroke='blue' stroke-width='0.05' tags='slant'/>
    <line x1="27.89961" y1="187.5" x2="123.16241" y2="22.5" stroke='blue' stroke-width='0.05' tags='slant'/>
    <line x1="33.67132" y1="187.5" x2="128.93411" y2="22.5" stroke='blue' stroke-width='0.05' tags='slant'/>
    <line x1="39.44302" y1="187.5" x2="134.70582" y2="22.5" stroke='blue' stroke-width='0.05' tags='slant'/>
    <line x1="45.21473" y1="187.5" x2="140.47753" y2="22.5" stroke='blue' stroke-width='0.05' tags='slant'/>
    <line x1="50.98644" y1="187.5" x2="146.24923" y2="22.5" stroke='blue' stroke-width='0.05' tags='slant'/>
    <line x1="56.75814" y1="187.5" x2="152.02094" y2="22.5" stroke='blue' stroke-width='0.05' tags='slant'/>
    <line x1="62.52985" y1="187.5" x2="157.79264" y2="22.5" stroke='blue' stroke-width='0.05' tags='slant'/>
    <line x1="68.30155" y1="187.5" x2="163.56435" y2="22.5" stroke='blue' stroke-width='0.05' tags='slant'/>
    <line x1="74.07326" y1="187.5" x2="169.33605" y2="22.5" stroke='blue' stroke-width='0.05' tags='slant'/>
    <line x1="79.84496" y1="187.5" x2="175.10776" y2="22.5" stroke='blue' stroke-width='0.05' tags='slant'/>
    <line x1="85.61667" y1="187.5" x2="180.87946" y2="22.5" stroke='blue' stroke-width='0.05' tags='slant'/>
    <line x1="91.38838" y1="187.5" x2="186.65117" y2="22.5" stroke='blue' stroke-width='0.05' tags='slant'/>
    <line x1="97.16008" y1="187.5" x2="192.42288" y2="22.5" stroke='blue' stroke-width='0.05' tags='slant'/>
    <line x1="102.93179" y1="187.5" x2="198.19458" y2="22.5" stroke='blue' stroke-width='0.05' tags='slant'/>
    <line x1="108.70349" y1="187.5" x2="203.96629" y2="22.5" stroke='blue' stroke-width='0.05' tags='slant'/>
    <line x1="114.4752" y1="187.5" x2="209.73799" y2="22.5" stroke='blue' stroke-width='0.05' tags='slant'/>
    <line x1="120.2469" y1="187.5" x2="215.5097" y2="22.5" stroke='blue' stroke-width='0.05' tags='slant'/>
    <line x1="126.01861" y1="187.5" x2="221.2814" y2="22.5" stroke='blue' stroke-width='0.05' tags='slant'/>
    <line x1="131.79032" y1="187.5" x2="227.05311" y2="22.5" stroke='blue' stroke-width='0.05' tags='slant'/>
    <line x1="137.56202" y1="187.5" x2="232.82482" y2="22.5" stroke='blue' stroke-width='0.05' tags='slant'/>
    <line x1="143.33373" y1="187.5" x2="238.59652" y2="22.5" stroke='blue' stroke-width='0.05' tags='slant'/>
    <line x1="149.10543" y1="187.5" x2="244.36823" y2="22.5" stroke='blue' stroke-width='0.05' tags='slant'/>
    <line x1="154.87714" y1="187.5" x2="250.13993" y2="22.5" stroke='blue' stroke-width='0.05' tags='slant'/>
    <line x1="160.64884" y1="187.5" x2="255.91164" y2="22.5" stroke='blue' stroke-width='0.05' tags='slant'/>
    <line x1="166.42055" y1="187.5" x2="261.68334" y2="22.5" stroke='blue' stroke-width='0.05' tags='slant'/>
    <line x1="172.19226" y1="187.5" x2="267.45505" y2="22.5" stroke='blue' stroke-width='0.05' tags='slant'/>
    <line x1="177.96396" y1="187.5" x2="273.22676" y2="22.5" stroke='blue' stroke-width='0.05' tags='slant'/>
    <line x1="183.73567" y1="187.5" x2="278.99846" y2="22.5" stroke='blue' stroke-width='0.05' tags='slant'/>
    <line x1="189.50737" y1="187.5" x2="283.5" y2="24.69999" stroke='blue' stroke-width='0.05' tags='slant'/>
    <line x1="195.27908" y1="187.5" x2="283.5" y2="34.69688" stroke='blue' stroke-width='0.05' tags='slant'/>
    <line x1="201.05078" y1="187.5" x2="283.5" y2="44.69377" stroke='blue' stroke-width='0.05' tags='slant'/>
    <line x1="206.82249" y1="187.5" x2="283.5" y2="54.69066" stroke='blue' stroke-width='0.05' tags='slant'/>
    <line x1="212.5942" y1="187.5" x2="283.5" y2="64.68754" stroke='blue' stroke-width='0.05' tags='slant'/>
    <line x1="218.3659" y1="187.5" x2="283.5" y2="74.68443" stroke='blue' stroke-width='0.05' tags='slant'/>
    <line x1="224.13761" y1="187.5" x2="283.5" y2="84.68132" stroke='blue' stroke-width='0.05' tags='slant'/>
    <line x1="229.90931" y1="187.5" x2="283.5" y2="94.67821" stroke='blue' stroke-width='0.05' tags='slant'/>
    <line x1="235.68102" y1="187.5" x2="283.5" y2="104.67509" stroke='blue' stroke-width='0.05' tags='slant'/>
    <line x1="241.45272" y1="187.5" x2="283.5" y2="114.67198" stroke='blue' stroke-width='0.05' tags='slant'/>
    <line x1="247.22443" y1="187.5" x2="283.5" y2="124.66887" stroke='blue' stroke-width='0.05' tags='slant'/>
    <line x1="252.99614" y1="187.5" x2="283.5" y2="134.66576" stroke='blue' stroke-width='0.05' tags='slant'/>
    <line x1="258.76784" y1="187.5" x2="283.5" y2="144.66264" stroke='blue' stroke-width='0.05' tags='slant'/>
    <line x1="264.53955" y1="187.5" x2="283.5" y2="154.65953" stroke='blue' stroke-width='0.05' tags='slant'/>
    <line x1="270.31125" y1="187.5" x2="283.5" y2="164.65642" stroke='blue' stroke-width='0.05' tags='slant'/>
    <line x1="276.08296" y1="187.5" x2="283.5" y2="174.65331" stroke='blue' stroke-width='0.05' tags='slant'/>
    <line x1="281.85466" y1="187.5" x2="283.5" y2="184.65019" stroke='blue' stroke-width='0.05' tags='slant'/>
  </g>
</svg>
