<?xml version="1.0" standalone="no"?>
<!DOCTYPE svg PUBLIC "-//W3C//DTD SVG 1.1//EN" "http://www.w3.org/Graphics/SVG/1.1/DTD/svg11.dtd">
<svg xmlns="http://www.w3.org/2000/svg" width="297.0mm" height="210.0mm" viewBox="0 0 297.0 210.0" >

  <g id="sheet">
    <line x1="13.5" y1="17.5" x2="283.5" y2="17.5" stroke='blue' stroke-width='0.1' tags='hline'/>
    <line x1="13.5" y1="22.5" x2="283.5" y2="22.5" stroke='blue' stroke-width='0.1' tags='hline'/>
    <line x1="13.5" y1="27.5" x2="283.5" y2="27.5" stroke='blue' stroke-width='0.1' tags='hline'/>
    <line x1="13.5" y1="32.5" x2="283.5" y2="32.5" stroke='blue' stroke-width='0.1' tags='hline'/>
    <line x1="13.5" y1="37.5" x2="283.5" y2="37.5" stroke='blue' stroke-width='0.1' tags='hline'/>
    <line x1="13.5" y1="42.5" x2="283.5" y2="42.5" stroke='blue' stroke-width='0.1' tags='hline'/>
    <line x1="13.5" y1="47.5" x2="283.5" y2="47.5" stroke='blue' stroke-width='0.1' tags='hline'/>
    <line x1="13.5" y1="52.5" x2="283.5" y2="52.5" stroke='blue' stroke-width='0.1' tags='hline'/>
    <line x1="13.5" y1="57.5" x2="283.5" y2="57.5" stroke='blue' stroke-width='0.1' tags='hline'/>
    <line x1="13.5" y1="62.5" x2="283.5" y2="62.5" stroke='blue' stroke-width='0.1' tags='hline'/>
    <line x1="13.5" y1="67.5" x2="283.5" y2="67.5" stroke='blue' stroke-width='0.1' tags='hline'/>
    <line x1="13.5" y1="72.5" x2="283.5" y2="72.5" stroke='blue' stroke-width='0.1' tags='hline'/>
    <line x1="13.5" y1="77.5" x2="283.5" y2="77.5" stroke='blue' stroke-width='0.1' tags='hline'/>
    <line x1="13.5" y1="82.5" x2="283.5" y2="82.5" stroke='blue' stroke-width='0.1' tags='hline'/>
    <line x1="13.5" y1="87.5" x2="283.5" y2="87.5" stroke='blue' stroke-width='0.1' tags='hline'/>
    <line x1="13.5" y1="92.5" x2="283.5" y2="92.5" stroke='blue' stroke-width='0.1' tags='hline'/>
    <line x1="13.5" y1="97.5" x2="283.5" y2="97.5" stroke='blue' stroke-width='0.1' tags='hline'/>
    <line x1="13.5" y1="102.5" x2="283.5" y2="102.5" stroke='blue' stroke-width='0.1' tags='hline'/>
    <line x1="13.5" y1="107.5" x2="283.5" y2="107.5" stroke='blue' stroke-width='0.1' tags='hline'/>
    <line x1="13.5" y1="112.5" x2="283.5" y2="112.5" stroke='blue' stroke-width='0.1' tags='hline'/>
    <line x1="13.5" y1="117.5" x2="283.5" y2="117.5" stroke='blue' stroke-width='0.1' tags='hline'/>
    <line x1="13.5" y1="122.5" x2="283.5" y2="122.5" stroke='blue' stroke-width='0.1' tags='hline'/>
    <line x1="13.5" y1="127.5" x2="283.5" y2="127.5" stroke='blue' stroke-width='0.1' tags='hline'/>
    <line x1="13.5" y1="132.5" x2="283.5" y2="132.5" stroke='blue' stroke-width='0.1' tags='hline'/>
    <line x1="13.5" y1="137.5" x2="283.5" y2="137.5" stroke='blue' stroke-width='0.1' tags='hline'/>
    <line x1="13.5" y1="142.5" x2="283.5" y2="142.5" stroke='blue' stroke-width='0.1' tags='hline'/>
    <line x1="13.5" y1="147.5" x2="283.5" y2="147.5" stroke='blue' stroke-width='0.1' tags='hline'/>
    <line x1="13.5" y1="152.5" x2="283.5" y2="152.5" stroke='blue' stroke-width='0.1' tags='hline'/>
    <line x1="13.5" y1="157.5" x2="283.5" y2="157.5" stroke='blue' stroke-width='0.1' tags='hline'/>
    <line x1="13.5" y1="162.5" x2="283.5" y2="162.5" stroke='blue' stroke-width='0.1' tags='hline'/>
    <line x1="13.5" y1="167.5" x2="283.5" y2="167.5" stroke='blue' stroke-width='0.1' tags='hline'/>
    <line x1="13.5" y1="172.5" x2="283.5" y2="172.5" stroke='blue' stroke-width='0.1' tags='hline'/>
    <line x1="13.5" y1="177.5" x2="283.5" y2="177.5" stroke='blue' stroke-width='0.1' tags='hline'/>
    <line x1="13.5" y1="182.5" x2="283.5" y2="182.5" stroke='blue' stroke-width='0.1' tags='hline'/>
    <line x1="13.5" y1="187.5" x2="283.5" y2="187.5" stroke='blue' stroke-width='0.1' tags='hline'/>
    <line x1="13.5" y1="192.5" x2="283.5" y2="192.5" stroke='blue' stroke-width='0.1' tags='hline'/>
    <line x1="13.5" y1="17.5" x2="13.5" y2="192.5" stroke='blue' stroke-width='0.1' tags='vline'/>
    <line x1="18.5" y1="17.5" x2="18.5" y2="192.5" stroke='blue' stroke-width='0.1' tags='vline'/>
    <line x1="23.5" y1="17.5" x2="23.5" y2="192.5" stroke='blue' stroke-width='0.1' tags='vline'/>
    <line x1="28.5" y1="17.5" x2="28.5" y2="192.5" stroke='blue' stroke-width='0.1' tags='vline'/>
    <line x1="33.5" y1="17.5" x2="33.5" y2="192.5" stroke='blue' stroke-width='0.1' tags='vline'/>
    <line x1="38.5" y1="17.5" x2="38.5" y2="192.5" stroke='blue' stroke-width='0.1' tags='vline'/>
    <line x1="43.5" y1="17.5" x2="43.5" y2="192.5" stroke='blue' stroke-width='0.1' tags='vline'/>
    <line x1="48.5" y1="17.5" x2="48.5" y2="192.5" stroke='blue' stroke-width='0.1' tags='vline'/>
    <line x1="53.5" y1="17.5" x2="53.5" y2="192.5" stroke='blue' stroke-width='0.1' tags='vline'/>
    <line x1="58.5" y1="17.5" x2="58.5" y2="192.5" stroke='blue' stroke-width='0.1' tags='vline'/>
    <line x1="63.5" y1="17.5" x2="63.5" y2="192.5" stroke='blue' stroke-width='0.1' tags='vline'/>
    <line x1="68.5" y1="17.5" x2="68.5" y2="192.5" stroke='blue' stroke-width='0.1' tags='vline'/>
    <line x1="73.5" y1="17.5" x2="73.5" y2="192.5" stroke='blue' stroke-width='0.1' tags='vline'/>
    <line x1="78.5" y1="17.5" x2="78.5" y2="192.5" stroke='blue' stroke-width='0.1' tags='vline'/>
    <line x1="83.5" y1="17.5" x2="83.5" y2="192.5" stroke='blue' stroke-width='0.1' tags='vline'/>
    <line x1="88.5" y1="17.5" x2="88.5" y2="192.5" stroke='blue' stroke-width='0.1' tags='vline'/>
    <line x1="93.5" y1="17.5" x2="93.5" y2="192.5" stroke='blue' stroke-width='0.1' tags='vline'/>
    <line x1="98.5" y1="17.5" x2="98.5" y2="192.5" stroke='blue' stroke-width='0.1' tags='vline'/>
    <line x1="103.5" y1="17.5" x2="103.5" y2="192.5" stroke='blue' stroke-width='0.1' tags='vline'/>
    <line x1="108.5" y1="17.5" x2="108.5" y2="192.5" stroke='blue' stroke-width='0.1' tags='vline'/>
    <line x1="113.5" y1="17.5" x2="113.5" y2="192.5" stroke='blue' stroke-width='0.1' tags='vline'/>
    <line x1="118.5" y1="17.5" x2="118.5" y2="192.5" stroke='blue' stroke-width='0.1' tags='vline'/>
    <line x1="123.5" y1="17.5" x2="123.5" y2="192.5" stroke='blue' stroke-width='0.1' tags='vline'/>
    <line x1="128.5" y1="17.5" x2="128.5" y2="192.5" stroke='blue' stroke-width='0.1' tags='vline'/>
    <line x1="133.5" y1="17.5" x2="133.5" y2="192.5" stroke='blue' stroke-width='0.1' tags='vline'/>
    <line x1="138.5" y1="17.5" x2="138.5" y2="192.5" stroke='blue' stroke-width='0.1' tags='vline'/>
    <line x1="143.5" y1="17.5" x2="143.5" y2="192.5" stroke='blue' stroke-width='0.1' tags='vline'/>
    <line x1="148.5" y1="17.5" x2="148.5" y2="192.5" stroke='blue' stroke-width='0.1' tags='vline'/>
    <line x1="153.5" y1="17.5" x2="153.5" y2="192.5" stroke='blue' stroke-width='0.1' tags='vline'/>
    <line x1="158.5" y1="17.5" x2="158.5" y2="192.5" stroke='blue' stroke-width='0.1' tags='vline'/>
    <line x1="163.5" y1="17.5" x2="163.5" y2="192.5" stroke='blue' stroke-width='0.1' tags='vline'/>
    <line x1="168.5" y1="17.5" x2="168.5" y2="192.5" stroke='blue' stroke-width='0.1' tags='vline'/>
    <line x1="173.5" y1="17.5" x2="173.5" y2="192.5" stroke='blue' stroke-width='0.1' tags='vline'/>
    <line x1="178.5" y1="17.5" x2="178.5" y2="192.5" stroke='blue' stroke-width='0.1' tags='vline'/>
    <line x1="183.5" y1="17.5" x2="183.5" y2="192.5" stroke='blue' stroke-width='0.1' tags='vline'/>
    <line x1="188.5" y1="17.5" x2="188.5" y2="192.5" stroke='blue' stroke-width='0.1' tags='vline'/>
    <line x1="193.5" y1="17.5" x2="193.5" y2="192.5" stroke='blue' stroke-width='0.1' tags='vline'/>
    <line x1="198.5" y1="17.5" x2="198.5" y2="192.5" stroke='blue' stroke-width='0.1' tags='vline'/>
    <line x1="203.5" y1="17.5" x2="203.5" y2="192.5" stroke='blue' stroke-width='0.1' tags='vline'/>
    <line x1="208.5" y1="17.5" x2="208.5" y2="192.5" stroke='blue' stroke-width='0.1' tags='vline'/>
    <line x1="213.5" y1="17.5" x2="213.5" y2="192.5" stroke='blue' stroke-width='0.1' tags='vline'/>
    <line x1="218.5" y1="17.5" x2="218.5" y2="192.5" stroke='blue' stroke-width='0.1' tags='vline'/>
    <line x1="223.5" y1="17.5" x2="223.5" y2="192.5" stroke='blue' stroke-width='0.1' tags='vline'/>
    <line x1="228.5" y1="17.5" x2="228.5" y2="192.5" stroke='blue' stroke-width='0.1' tags='vline'/>
    <line x1="233.5" y1="17.5" x2="233.5" y2="192.5" stroke='blue' stroke-width='0.1' tags='vline'/>
    <line x1="238.5" y1="17.5" x2="238.5" y2="192.5" stroke='blue' stroke-width='0.1' tags='vline'/>
    <line x1="243.5" y1="17.5" x2="243.5" y2="192.5" stroke='blue' stroke-width='0.1' tags='vline'/>
    <line x1="248.5" y1="17.5" x2="248.5" y2="192.5" stroke='blue' stroke-width='0.1' tags='vline'/>
    <line x1="253.5" y1="17.5" x2="253.5" y2="192.5" stroke='blue' stroke-width='0.1' tags='vline'/>
    <line x1="258.5" y1="17.5" x2="258.5" y2="192.5" stroke='blue' stroke-width='0.1' tags='vline'/>
    <line x1="263.5" y1="17.5" x2="263.5" y2="192.5" stroke='blue' stroke-width='0.1' tags='vline'/>
    <line x1="268.5" y1="17.5" x2="268.5" y2="192.5" stroke='blue' stroke-width='0.1' tags='vline'/>
    <line x1="273.5" y1="17.5" x2="273.5" y2="192.5" stroke='blue' stroke-width='0.1' tags='vline'/>
    <line x1="278.5" y1="17.5" x2="278.5" y2="192.5" stroke='blue' stroke-width='0.1' tags='vline'/>
    <line x1="283.5" y1="17.5" x2="283.5" y2="192.5" stroke='blue' stroke-width='0.1' tags='vline'/>
  </g>
</svg>
