<?xml version="1.0" standalone="no"?>
<!DOCTYPE svg PUBLIC "-//W3C//DTD SVG 1.1//EN" "http://www.w3.org/Graphics/SVG/1.1/DTD/svg11.dtd">
<svg xmlns="http://www.w3.org/2000/svg" width="210.0mm" height="148.5mm" viewBox="0 0 210.0 148.5" shape-rendering="geometricPrecision" >
  <style>
    svg       { stroke: #ed008c; stroke-width: 0.04; }
    .altcolor { stroke: blue; }
    .thin     { stroke-width: 0.02; }
    .thick    { stroke-width: 0.08; }
    .dashed   { stroke-dasharray: 2 2; }
  </style>
  <g id="sheet">
    <line x1="10.0" y1="14.25" x2="200.0" y2="14.25" class='hline'/>
    <line x1="10.0" y1="24.25" x2="200.0" y2="24.25" class='hline'/>
    <line x1="10.0" y1="34.25" x2="200.0" y2="34.25" class='hline'/>
    <line x1="10.0" y1="44.25" x2="200.0" y2="44.25" class='hline'/>
    <line x1="10.0" y1="54.25" x2="200.0" y2="54.25" class='hline'/>
    <line x1="10.0" y1="64.25" x2="200.0" y2="64.25" class='hline'/>
    <line x1="10.0" y1="74.25" x2="200.0" y2="74.25" class='hline'/>
    <line x1="10.0" y1="84.25" x2="200.0" y2="84.25" class='hline'/>
    <line x1="10.0" y1="94.25" x2="200.0" y2="94.25" class='hline'/>
    <line x1="10.0" y1="104.25" x2="200.0" y2="104.25" class='hline'/>
    <line x1="10.0" y1="114.25" x2="200.0" y2="114.25" class='hline'/>
    <line x1="10.0" y1="124.25" x2="200.0" y2="124.25" class='hline'/>
    <line x1="10.0" y1="134.25" x2="200.0" y2="134.25" class='hline'/>
    <line x1="10.0" y1="14.25" x2="10.0" y2="134.25" class='vline'/>
    <line x1="20.0" y1="14.25" x2="20.0" y2="134.25" class='vline'/>
    <line x1="30.0" y1="14.25" x2="30.0" y2="134.25" class='vline'/>
    <line x1="40.0" y1="14.25" x2="40.0" y2="134.25" class='vline'/>
    <line x1="50.0" y1="14.25" x2="50.0" y2="134.25" class='vline'/>
    <line x1="60.0" y1="14.25" x2="60.0" y2="134.25" class='vline'/>
    <line x1="70.0" y1="14.25" x2="70.0" y2="134.25" class='vline'/>
    <line x1="80.0" y1="14.25" x2="80.0" y2="134.25" class='vline'/>
    <line x1="90.0" y1="14.25" x2="90.0" y2="134.25" class='vline'/>
    <line x1="100.0" y1="14.25" x2="100.0" y2="134.25" class='vline'/>
    <line x1="110.0" y1="14.25" x2="110.0" y2="134.25" class='vline'/>
    <line x1="120.0" y1="14.25" x2="120.0" y2="134.25" class='vline'/>
    <line x1="130.0" y1="14.25" x2="130.0" y2="134.25" class='vline'/>
    <line x1="140.0" y1="14.25" x2="140.0" y2="134.25" class='vline'/>
    <line x1="150.0" y1="14.25" x2="150.0" y2="134.25" class='vline'/>
    <line x1="160.0" y1="14.25" x2="160.0" y2="134.25" class='vline'/>
    <line x1="170.0" y1="14.25" x2="170.0" y2="134.25" class='vline'/>
    <line x1="180.0" y1="14.25" x2="180.0" y2="134.25" class='vline'/>
    <line x1="190.0" y1="14.25" x2="190.0" y2="134.25" class='vline'/>
    <line x1="200.0" y1="14.25" x2="200.0" y2="134.25" class='vline'/>
  </g>
</svg>
