<?xml version="1.0" standalone="no"?>
<!DOCTYPE svg PUBLIC "-//W3C//DTD SVG 1.1//EN" "http://www.w3.org/Graphics/SVG/1.1/DTD/svg11.dtd">
<svg xmlns="http://www.w3.org/2000/svg" width="148.5mm" height="210.0mm" viewBox="0 0 148.5 210.0" shape-rendering="geometricPrecision" >
  <style>
    svg       { stroke: #ed008c; stroke-width: 0.04; }
    .altcolor { stroke: blue; }
    .thin     { stroke-width: 0.02; }
    .thick    { stroke-width: 0.08; }
    .dashed   { stroke-dasharray: 2 2; }
  </style>
  <g id="sheet">
    <line x1="9.25" y1="10.0" x2="139.25" y2="10.0" class='hline'/>
    <line x1="9.25" y1="20.0" x2="139.25" y2="20.0" class='hline'/>
    <line x1="9.25" y1="30.0" x2="139.25" y2="30.0" class='hline'/>
    <line x1="9.25" y1="40.0" x2="139.25" y2="40.0" class='hline'/>
    <line x1="9.25" y1="50.0" x2="139.25" y2="50.0" class='hline'/>
    <line x1="9.25" y1="60.0" x2="139.25" y2="60.0" class='hline'/>
    <line x1="9.25" y1="70.0" x2="139.25" y2="70.0" class='hline'/>
    <line x1="9.25" y1="80.0" x2="139.25" y2="80.0" class='hline'/>
    <line x1="9.25" y1="90.0" x2="139.25" y2="90.0" class='hline'/>
    <line x1="9.25" y1="100.0" x2="139.25" y2="100.0" class='hline'/>
    <line x1="9.25" y1="110.0" x2="139.25" y2="110.0" class='hline'/>
    <line x1="9.25" y1="120.0" x2="139.25" y2="120.0" class='hline'/>
    <line x1="9.25" y1="130.0" x2="139.25" y2="130.0" class='hline'/>
    <line x1="9.25" y1="140.0" x2="139.25" y2="140.0" class='hline'/>
    <line x1="9.25" y1="150.0" x2="139.25" y2="150.0" class='hline'/>
    <line x1="9.25" y1="160.0" x2="139.25" y2="160.0" class='hline'/>
    <line x1="9.25" y1="170.0" x2="139.25" y2="170.0" class='hline'/>
    <line x1="9.25" y1="180.0" x2="139.25" y2="180.0" class='hline'/>
    <line x1="9.25" y1="190.0" x2="139.25" y2="190.0" class='hline'/>
    <line x1="9.25" y1="200.0" x2="139.25" y2="200.0" class='hline'/>
    <line x1="9.25" y1="10.0" x2="9.25" y2="200.0" class='vline'/>
    <line x1="19.25" y1="10.0" x2="19.25" y2="200.0" class='vline'/>
    <line x1="29.25" y1="10.0" x2="29.25" y2="200.0" class='vline'/>
    <line x1="39.25" y1="10.0" x2="39.25" y2="200.0" class='vline'/>
    <line x1="49.25" y1="10.0" x2="49.25" y2="200.0" class='vline'/>
    <line x1="59.25" y1="10.0" x2="59.25" y2="200.0" class='vline'/>
    <line x1="69.25" y1="10.0" x2="69.25" y2="200.0" class='vline'/>
    <line x1="79.25" y1="10.0" x2="79.25" y2="200.0" class='vline'/>
    <line x1="89.25" y1="10.0" x2="89.25" y2="200.0" class='vline'/>
    <line x1="99.25" y1="10.0" x2="99.25" y2="200.0" class='vline'/>
    <line x1="109.25" y1="10.0" x2="109.25" y2="200.0" class='vline'/>
    <line x1="119.25" y1="10.0" x2="119.25" y2="200.0" class='vline'/>
    <line x1="129.25" y1="10.0" x2="129.25" y2="200.0" class='vline'/>
    <line x1="139.25" y1="10.0" x2="139.25" y2="200.0" class='vline'/>
  </g>
</svg>
