<?xml version="1.0" standalone="no"?>
<!DOCTYPE svg PUBLIC "-//W3C//DTD SVG 1.1//EN" "http://www.w3.org/Graphics/SVG/1.1/DTD/svg11.dtd">
<svg xmlns="http://www.w3.org/2000/svg" width="148.5mm" height="210.0mm" viewBox="0 0 148.5 210.0" >

  <g id="sheet">
    <line x1="14.25" y1="20.0" x2="134.25" y2="20.0" stroke='blue' stroke-width='0.1' tags='hline'/>
    <line x1="14.25" y1="30.0" x2="134.25" y2="30.0" stroke='blue' stroke-width='0.1' tags='hline'/>
    <line x1="14.25" y1="40.0" x2="134.25" y2="40.0" stroke='blue' stroke-width='0.1' tags='hline'/>
    <line x1="14.25" y1="50.0" x2="134.25" y2="50.0" stroke='blue' stroke-width='0.1' tags='hline'/>
    <line x1="14.25" y1="60.0" x2="134.25" y2="60.0" stroke='blue' stroke-width='0.1' tags='hline'/>
    <line x1="14.25" y1="70.0" x2="134.25" y2="70.0" stroke='blue' stroke-width='0.1' tags='hline'/>
    <line x1="14.25" y1="80.0" x2="134.25" y2="80.0" stroke='blue' stroke-width='0.1' tags='hline'/>
    <line x1="14.25" y1="90.0" x2="134.25" y2="90.0" stroke='blue' stroke-width='0.1' tags='hline'/>
    <line x1="14.25" y1="100.0" x2="134.25" y2="100.0" stroke='blue' stroke-width='0.1' tags='hline'/>
    <line x1="14.25" y1="110.0" x2="134.25" y2="110.0" stroke='blue' stroke-width='0.1' tags='hline'/>
    <line x1="14.25" y1="120.0" x2="134.25" y2="120.0" stroke='blue' stroke-width='0.1' tags='hline'/>
    <line x1="14.25" y1="130.0" x2="134.25" y2="130.0" stroke='blue' stroke-width='0.1' tags='hline'/>
    <line x1="14.25" y1="140.0" x2="134.25" y2="140.0" stroke='blue' stroke-width='0.1' tags='hline'/>
    <line x1="14.25" y1="150.0" x2="134.25" y2="150.0" stroke='blue' stroke-width='0.1' tags='hline'/>
    <line x1="14.25" y1="160.0" x2="134.25" y2="160.0" stroke='blue' stroke-width='0.1' tags='hline'/>
    <line x1="14.25" y1="170.0" x2="134.25" y2="170.0" stroke='blue' stroke-width='0.1' tags='hline'/>
    <line x1="14.25" y1="180.0" x2="134.25" y2="180.0" stroke='blue' stroke-width='0.1' tags='hline'/>
    <line x1="14.25" y1="190.0" x2="134.25" y2="190.0" stroke='blue' stroke-width='0.1' tags='hline'/>
    <line x1="14.25" y1="20.0" x2="14.25" y2="190.0" stroke='blue' stroke-width='0.1' tags='vline'/>
    <line x1="24.25" y1="20.0" x2="24.25" y2="190.0" stroke='blue' stroke-width='0.1' tags='vline'/>
    <line x1="34.25" y1="20.0" x2="34.25" y2="190.0" stroke='blue' stroke-width='0.1' tags='vline'/>
    <line x1="44.25" y1="20.0" x2="44.25" y2="190.0" stroke='blue' stroke-width='0.1' tags='vline'/>
    <line x1="54.25" y1="20.0" x2="54.25" y2="190.0" stroke='blue' stroke-width='0.1' tags='vline'/>
    <line x1="64.25" y1="20.0" x2="64.25" y2="190.0" stroke='blue' stroke-width='0.1' tags='vline'/>
    <line x1="74.25" y1="20.0" x2="74.25" y2="190.0" stroke='blue' stroke-width='0.1' tags='vline'/>
    <line x1="84.25" y1="20.0" x2="84.25" y2="190.0" stroke='blue' stroke-width='0.1' tags='vline'/>
    <line x1="94.25" y1="20.0" x2="94.25" y2="190.0" stroke='blue' stroke-width='0.1' tags='vline'/>
    <line x1="104.25" y1="20.0" x2="104.25" y2="190.0" stroke='blue' stroke-width='0.1' tags='vline'/>
    <line x1="114.25" y1="20.0" x2="114.25" y2="190.0" stroke='blue' stroke-width='0.1' tags='vline'/>
    <line x1="124.25" y1="20.0" x2="124.25" y2="190.0" stroke='blue' stroke-width='0.1' tags='vline'/>
    <line x1="134.25" y1="20.0" x2="134.25" y2="190.0" stroke='blue' stroke-width='0.1' tags='vline'/>
  </g>
</svg>
