<?xml version="1.0" standalone="no"?>
<!DOCTYPE svg PUBLIC "-//W3C//DTD SVG 1.1//EN" "http://www.w3.org/Graphics/SVG/1.1/DTD/svg11.dtd">
<svg xmlns="http://www.w3.org/2000/svg" width="148.5mm" height="210.0mm" viewBox="0 0 148.5 210.0" >

  <g id="sheet">
    <line x1="14.75" y1="17.5" x2="133.75" y2="17.5" stroke='blue' stroke-width='0.1' tags='hline'/>
    <line x1="14.75" y1="24.5" x2="133.75" y2="24.5" stroke='blue' stroke-width='0.1' tags='hline'/>
    <line x1="14.75" y1="31.5" x2="133.75" y2="31.5" stroke='blue' stroke-width='0.1' tags='hline'/>
    <line x1="14.75" y1="38.5" x2="133.75" y2="38.5" stroke='blue' stroke-width='0.1' tags='hline'/>
    <line x1="14.75" y1="45.5" x2="133.75" y2="45.5" stroke='blue' stroke-width='0.1' tags='hline'/>
    <line x1="14.75" y1="52.5" x2="133.75" y2="52.5" stroke='blue' stroke-width='0.1' tags='hline'/>
    <line x1="14.75" y1="59.5" x2="133.75" y2="59.5" stroke='blue' stroke-width='0.1' tags='hline'/>
    <line x1="14.75" y1="66.5" x2="133.75" y2="66.5" stroke='blue' stroke-width='0.1' tags='hline'/>
    <line x1="14.75" y1="73.5" x2="133.75" y2="73.5" stroke='blue' stroke-width='0.1' tags='hline'/>
    <line x1="14.75" y1="80.5" x2="133.75" y2="80.5" stroke='blue' stroke-width='0.1' tags='hline'/>
    <line x1="14.75" y1="87.5" x2="133.75" y2="87.5" stroke='blue' stroke-width='0.1' tags='hline'/>
    <line x1="14.75" y1="94.5" x2="133.75" y2="94.5" stroke='blue' stroke-width='0.1' tags='hline'/>
    <line x1="14.75" y1="101.5" x2="133.75" y2="101.5" stroke='blue' stroke-width='0.1' tags='hline'/>
    <line x1="14.75" y1="108.5" x2="133.75" y2="108.5" stroke='blue' stroke-width='0.1' tags='hline'/>
    <line x1="14.75" y1="115.5" x2="133.75" y2="115.5" stroke='blue' stroke-width='0.1' tags='hline'/>
    <line x1="14.75" y1="122.5" x2="133.75" y2="122.5" stroke='blue' stroke-width='0.1' tags='hline'/>
    <line x1="14.75" y1="129.5" x2="133.75" y2="129.5" stroke='blue' stroke-width='0.1' tags='hline'/>
    <line x1="14.75" y1="136.5" x2="133.75" y2="136.5" stroke='blue' stroke-width='0.1' tags='hline'/>
    <line x1="14.75" y1="143.5" x2="133.75" y2="143.5" stroke='blue' stroke-width='0.1' tags='hline'/>
    <line x1="14.75" y1="150.5" x2="133.75" y2="150.5" stroke='blue' stroke-width='0.1' tags='hline'/>
    <line x1="14.75" y1="157.5" x2="133.75" y2="157.5" stroke='blue' stroke-width='0.1' tags='hline'/>
    <line x1="14.75" y1="164.5" x2="133.75" y2="164.5" stroke='blue' stroke-width='0.1' tags='hline'/>
    <line x1="14.75" y1="171.5" x2="133.75" y2="171.5" stroke='blue' stroke-width='0.1' tags='hline'/>
    <line x1="14.75" y1="178.5" x2="133.75" y2="178.5" stroke='blue' stroke-width='0.1' tags='hline'/>
    <line x1="14.75" y1="185.5" x2="133.75" y2="185.5" stroke='blue' stroke-width='0.1' tags='hline'/>
    <line x1="14.75" y1="192.5" x2="133.75" y2="192.5" stroke='blue' stroke-width='0.1' tags='hline'/>
    <line x1="14.75" y1="17.5" x2="14.75" y2="192.5" stroke='blue' stroke-width='0.1' tags='vline'/>
    <line x1="21.75" y1="17.5" x2="21.75" y2="192.5" stroke='blue' stroke-width='0.1' tags='vline'/>
    <line x1="28.75" y1="17.5" x2="28.75" y2="192.5" stroke='blue' stroke-width='0.1' tags='vline'/>
    <line x1="35.75" y1="17.5" x2="35.75" y2="192.5" stroke='blue' stroke-width='0.1' tags='vline'/>
    <line x1="42.75" y1="17.5" x2="42.75" y2="192.5" stroke='blue' stroke-width='0.1' tags='vline'/>
    <line x1="49.75" y1="17.5" x2="49.75" y2="192.5" stroke='blue' stroke-width='0.1' tags='vline'/>
    <line x1="56.75" y1="17.5" x2="56.75" y2="192.5" stroke='blue' stroke-width='0.1' tags='vline'/>
    <line x1="63.75" y1="17.5" x2="63.75" y2="192.5" stroke='blue' stroke-width='0.1' tags='vline'/>
    <line x1="70.75" y1="17.5" x2="70.75" y2="192.5" stroke='blue' stroke-width='0.1' tags='vline'/>
    <line x1="77.75" y1="17.5" x2="77.75" y2="192.5" stroke='blue' stroke-width='0.1' tags='vline'/>
    <line x1="84.75" y1="17.5" x2="84.75" y2="192.5" stroke='blue' stroke-width='0.1' tags='vline'/>
    <line x1="91.75" y1="17.5" x2="91.75" y2="192.5" stroke='blue' stroke-width='0.1' tags='vline'/>
    <line x1="98.75" y1="17.5" x2="98.75" y2="192.5" stroke='blue' stroke-width='0.1' tags='vline'/>
    <line x1="105.75" y1="17.5" x2="105.75" y2="192.5" stroke='blue' stroke-width='0.1' tags='vline'/>
    <line x1="112.75" y1="17.5" x2="112.75" y2="192.5" stroke='blue' stroke-width='0.1' tags='vline'/>
    <line x1="119.75" y1="17.5" x2="119.75" y2="192.5" stroke='blue' stroke-width='0.1' tags='vline'/>
    <line x1="126.75" y1="17.5" x2="126.75" y2="192.5" stroke='blue' stroke-width='0.1' tags='vline'/>
    <line x1="133.75" y1="17.5" x2="133.75" y2="192.5" stroke='blue' stroke-width='0.1' tags='vline'/>
  </g>
</svg>
