<?xml version="1.0" standalone="no"?>
<!DOCTYPE svg PUBLIC "-//W3C//DTD SVG 1.1//EN" "http://www.w3.org/Graphics/SVG/1.1/DTD/svg11.dtd">
<svg xmlns="http://www.w3.org/2000/svg" width="210.0mm" height="148.5mm" viewBox="0 0 210.0 148.5" shape-rendering="geometricPrecision" >
  <style>
    svg         { stroke:            #ed008c; }
    svg         { stroke-width:         0.04; }
    .altcolor   { stroke:               blue; }
    .extrafine  { stroke-width:         0.01; }
    .fine       { stroke-width:         0.02; }
    .medium     { stroke-width:         0.04; }
    .broad      { stroke-width:         0.08; }
    .extrabroad { stroke-width:         0.16; }
    .dashed     { stroke-dasharray:      2 2; }
  </style>
  <g id="sheet">
    <line x1="7.5" y1="11.75" x2="202.5" y2="11.75" class='hline'/>
    <line x1="7.5" y1="16.75" x2="202.5" y2="16.75" class='hline'/>
    <line x1="7.5" y1="21.75" x2="202.5" y2="21.75" class='hline'/>
    <line x1="7.5" y1="26.75" x2="202.5" y2="26.75" class='hline'/>
    <line x1="7.5" y1="31.75" x2="202.5" y2="31.75" class='hline'/>
    <line x1="7.5" y1="36.75" x2="202.5" y2="36.75" class='hline'/>
    <line x1="7.5" y1="41.75" x2="202.5" y2="41.75" class='hline'/>
    <line x1="7.5" y1="46.75" x2="202.5" y2="46.75" class='hline'/>
    <line x1="7.5" y1="51.75" x2="202.5" y2="51.75" class='hline'/>
    <line x1="7.5" y1="56.75" x2="202.5" y2="56.75" class='hline'/>
    <line x1="7.5" y1="61.75" x2="202.5" y2="61.75" class='hline'/>
    <line x1="7.5" y1="66.75" x2="202.5" y2="66.75" class='hline'/>
    <line x1="7.5" y1="71.75" x2="202.5" y2="71.75" class='hline'/>
    <line x1="7.5" y1="76.75" x2="202.5" y2="76.75" class='hline'/>
    <line x1="7.5" y1="81.75" x2="202.5" y2="81.75" class='hline'/>
    <line x1="7.5" y1="86.75" x2="202.5" y2="86.75" class='hline'/>
    <line x1="7.5" y1="91.75" x2="202.5" y2="91.75" class='hline'/>
    <line x1="7.5" y1="96.75" x2="202.5" y2="96.75" class='hline'/>
    <line x1="7.5" y1="101.75" x2="202.5" y2="101.75" class='hline'/>
    <line x1="7.5" y1="106.75" x2="202.5" y2="106.75" class='hline'/>
    <line x1="7.5" y1="111.75" x2="202.5" y2="111.75" class='hline'/>
    <line x1="7.5" y1="116.75" x2="202.5" y2="116.75" class='hline'/>
    <line x1="7.5" y1="121.75" x2="202.5" y2="121.75" class='hline'/>
    <line x1="7.5" y1="126.75" x2="202.5" y2="126.75" class='hline'/>
    <line x1="7.5" y1="131.75" x2="202.5" y2="131.75" class='hline'/>
    <line x1="7.5" y1="136.75" x2="202.5" y2="136.75" class='hline'/>
    <line x1="7.5" y1="11.75" x2="7.5" y2="136.75" class='vline'/>
    <line x1="12.5" y1="11.75" x2="12.5" y2="136.75" class='vline'/>
    <line x1="17.5" y1="11.75" x2="17.5" y2="136.75" class='vline'/>
    <line x1="22.5" y1="11.75" x2="22.5" y2="136.75" class='vline'/>
    <line x1="27.5" y1="11.75" x2="27.5" y2="136.75" class='vline'/>
    <line x1="32.5" y1="11.75" x2="32.5" y2="136.75" class='vline'/>
    <line x1="37.5" y1="11.75" x2="37.5" y2="136.75" class='vline'/>
    <line x1="42.5" y1="11.75" x2="42.5" y2="136.75" class='vline'/>
    <line x1="47.5" y1="11.75" x2="47.5" y2="136.75" class='vline'/>
    <line x1="52.5" y1="11.75" x2="52.5" y2="136.75" class='vline'/>
    <line x1="57.5" y1="11.75" x2="57.5" y2="136.75" class='vline'/>
    <line x1="62.5" y1="11.75" x2="62.5" y2="136.75" class='vline'/>
    <line x1="67.5" y1="11.75" x2="67.5" y2="136.75" class='vline'/>
    <line x1="72.5" y1="11.75" x2="72.5" y2="136.75" class='vline'/>
    <line x1="77.5" y1="11.75" x2="77.5" y2="136.75" class='vline'/>
    <line x1="82.5" y1="11.75" x2="82.5" y2="136.75" class='vline'/>
    <line x1="87.5" y1="11.75" x2="87.5" y2="136.75" class='vline'/>
    <line x1="92.5" y1="11.75" x2="92.5" y2="136.75" class='vline'/>
    <line x1="97.5" y1="11.75" x2="97.5" y2="136.75" class='vline'/>
    <line x1="102.5" y1="11.75" x2="102.5" y2="136.75" class='vline'/>
    <line x1="107.5" y1="11.75" x2="107.5" y2="136.75" class='vline'/>
    <line x1="112.5" y1="11.75" x2="112.5" y2="136.75" class='vline'/>
    <line x1="117.5" y1="11.75" x2="117.5" y2="136.75" class='vline'/>
    <line x1="122.5" y1="11.75" x2="122.5" y2="136.75" class='vline'/>
    <line x1="127.5" y1="11.75" x2="127.5" y2="136.75" class='vline'/>
    <line x1="132.5" y1="11.75" x2="132.5" y2="136.75" class='vline'/>
    <line x1="137.5" y1="11.75" x2="137.5" y2="136.75" class='vline'/>
    <line x1="142.5" y1="11.75" x2="142.5" y2="136.75" class='vline'/>
    <line x1="147.5" y1="11.75" x2="147.5" y2="136.75" class='vline'/>
    <line x1="152.5" y1="11.75" x2="152.5" y2="136.75" class='vline'/>
    <line x1="157.5" y1="11.75" x2="157.5" y2="136.75" class='vline'/>
    <line x1="162.5" y1="11.75" x2="162.5" y2="136.75" class='vline'/>
    <line x1="167.5" y1="11.75" x2="167.5" y2="136.75" class='vline'/>
    <line x1="172.5" y1="11.75" x2="172.5" y2="136.75" class='vline'/>
    <line x1="177.5" y1="11.75" x2="177.5" y2="136.75" class='vline'/>
    <line x1="182.5" y1="11.75" x2="182.5" y2="136.75" class='vline'/>
    <line x1="187.5" y1="11.75" x2="187.5" y2="136.75" class='vline'/>
    <line x1="192.5" y1="11.75" x2="192.5" y2="136.75" class='vline'/>
    <line x1="197.5" y1="11.75" x2="197.5" y2="136.75" class='vline'/>
    <line x1="202.5" y1="11.75" x2="202.5" y2="136.75" class='vline'/>
  </g>
</svg>
