<?xml version="1.0" standalone="no"?>
<!DOCTYPE svg PUBLIC "-//W3C//DTD SVG 1.1//EN" "http://www.w3.org/Graphics/SVG/1.1/DTD/svg11.dtd">
<svg xmlns="http://www.w3.org/2000/svg" width="297.0mm" height="210.0mm" viewBox="0 0 297.0 210.0" >

  <g id="sheet">
    <line x1="26.0" y1="17.5" x2="271.0" y2="17.5" stroke='blue' stroke-width='0.2' tags='ascender2'/>
    <line x1="26.0" y1="24.5" x2="271.0" y2="24.5" stroke='grey' stroke-width='0.1' stroke-dasharray='2, 2' tags='ascender1'/>
    <line x1="26.0" y1="31.5" x2="271.0" y2="31.5" stroke='grey' stroke-width='0.1' tags='waist'/>
    <line x1="26.0" y1="38.5" x2="271.0" y2="38.5" stroke='red' stroke-width='0.1' tags='base'/>
    <line x1="26.0" y1="45.5" x2="271.0" y2="45.5" stroke='grey' stroke-width='0.1' stroke-dasharray='2, 2' tags='descender1'/>
    <line x1="26.0" y1="52.5" x2="271.0" y2="52.5" stroke='blue' stroke-width='0.2' tags='descender2'/>
    <line x1="26.0" y1="59.5" x2="271.0" y2="59.5" stroke='grey' stroke-width='0.1' stroke-dasharray='2, 2' tags='ascender1'/>
    <line x1="26.0" y1="66.5" x2="271.0" y2="66.5" stroke='grey' stroke-width='0.1' tags='waist'/>
    <line x1="26.0" y1="73.5" x2="271.0" y2="73.5" stroke='red' stroke-width='0.1' tags='base'/>
    <line x1="26.0" y1="80.5" x2="271.0" y2="80.5" stroke='grey' stroke-width='0.1' stroke-dasharray='2, 2' tags='descender1'/>
    <line x1="26.0" y1="87.5" x2="271.0" y2="87.5" stroke='blue' stroke-width='0.2' tags='descender2'/>
    <line x1="26.0" y1="94.5" x2="271.0" y2="94.5" stroke='grey' stroke-width='0.1' stroke-dasharray='2, 2' tags='ascender1'/>
    <line x1="26.0" y1="101.5" x2="271.0" y2="101.5" stroke='grey' stroke-width='0.1' tags='waist'/>
    <line x1="26.0" y1="108.5" x2="271.0" y2="108.5" stroke='red' stroke-width='0.1' tags='base'/>
    <line x1="26.0" y1="115.5" x2="271.0" y2="115.5" stroke='grey' stroke-width='0.1' stroke-dasharray='2, 2' tags='descender1'/>
    <line x1="26.0" y1="122.5" x2="271.0" y2="122.5" stroke='blue' stroke-width='0.2' tags='descender2'/>
    <line x1="26.0" y1="129.5" x2="271.0" y2="129.5" stroke='grey' stroke-width='0.1' stroke-dasharray='2, 2' tags='ascender1'/>
    <line x1="26.0" y1="136.5" x2="271.0" y2="136.5" stroke='grey' stroke-width='0.1' tags='waist'/>
    <line x1="26.0" y1="143.5" x2="271.0" y2="143.5" stroke='red' stroke-width='0.1' tags='base'/>
    <line x1="26.0" y1="150.5" x2="271.0" y2="150.5" stroke='grey' stroke-width='0.1' stroke-dasharray='2, 2' tags='descender1'/>
    <line x1="26.0" y1="157.5" x2="271.0" y2="157.5" stroke='blue' stroke-width='0.2' tags='descender2'/>
    <line x1="26.0" y1="164.5" x2="271.0" y2="164.5" stroke='grey' stroke-width='0.1' stroke-dasharray='2, 2' tags='ascender1'/>
    <line x1="26.0" y1="171.5" x2="271.0" y2="171.5" stroke='grey' stroke-width='0.1' tags='waist'/>
    <line x1="26.0" y1="178.5" x2="271.0" y2="178.5" stroke='red' stroke-width='0.1' tags='base'/>
    <line x1="26.0" y1="185.5" x2="271.0" y2="185.5" stroke='grey' stroke-width='0.1' stroke-dasharray='2, 2' tags='descender1'/>
    <line x1="26.0" y1="192.5" x2="271.0" y2="192.5" stroke='blue' stroke-width='0.2' tags='descender2'/>
    <line x1="26.0" y1="17.5" x2="26.0" y2="17.5" stroke='blue' stroke-width='0.1' tags='slant'/>
    <line x1="26.0" y1="28.85939" x2="34.87493" y2="17.5" stroke='blue' stroke-width='0.1' tags='slant'/>
    <line x1="26.0" y1="40.21877" x2="43.74985" y2="17.5" stroke='blue' stroke-width='0.1' tags='slant'/>
    <line x1="26.0" y1="51.57816" x2="52.62478" y2="17.5" stroke='blue' stroke-width='0.1' tags='slant'/>
    <line x1="26.0" y1="62.93755" x2="61.4997" y2="17.5" stroke='blue' stroke-width='0.1' tags='slant'/>
    <line x1="26.0" y1="74.29693" x2="70.37463" y2="17.5" stroke='blue' stroke-width='0.1' tags='slant'/>
    <line x1="26.0" y1="85.65632" x2="79.24955" y2="17.5" stroke='blue' stroke-width='0.1' tags='slant'/>
    <line x1="26.0" y1="97.01571" x2="88.12448" y2="17.5" stroke='blue' stroke-width='0.1' tags='slant'/>
    <line x1="26.0" y1="108.37509" x2="96.9994" y2="17.5" stroke='blue' stroke-width='0.1' tags='slant'/>
    <line x1="26.0" y1="119.73448" x2="105.87433" y2="17.5" stroke='blue' stroke-width='0.1' tags='slant'/>
    <line x1="26.0" y1="131.09387" x2="114.74926" y2="17.5" stroke='blue' stroke-width='0.1' tags='slant'/>
    <line x1="26.0" y1="142.45325" x2="123.62418" y2="17.5" stroke='blue' stroke-width='0.1' tags='slant'/>
    <line x1="26.0" y1="153.81264" x2="132.49911" y2="17.5" stroke='blue' stroke-width='0.1' tags='slant'/>
    <line x1="26.0" y1="165.17203" x2="141.37403" y2="17.5" stroke='blue' stroke-width='0.1' tags='slant'/>
    <line x1="26.0" y1="176.53142" x2="150.24896" y2="17.5" stroke='blue' stroke-width='0.1' tags='slant'/>
    <line x1="26.0" y1="187.8908" x2="159.12388" y2="17.5" stroke='blue' stroke-width='0.1' tags='slant'/>
    <line x1="31.27383" y1="192.5" x2="167.99881" y2="17.5" stroke='blue' stroke-width='0.1' tags='slant'/>
    <line x1="40.14875" y1="192.5" x2="176.87374" y2="17.5" stroke='blue' stroke-width='0.1' tags='slant'/>
    <line x1="49.02368" y1="192.5" x2="185.74866" y2="17.5" stroke='blue' stroke-width='0.1' tags='slant'/>
    <line x1="57.8986" y1="192.5" x2="194.62359" y2="17.5" stroke='blue' stroke-width='0.1' tags='slant'/>
    <line x1="66.77353" y1="192.5" x2="203.49851" y2="17.5" stroke='blue' stroke-width='0.1' tags='slant'/>
    <line x1="75.64845" y1="192.5" x2="212.37344" y2="17.5" stroke='blue' stroke-width='0.1' tags='slant'/>
    <line x1="84.52338" y1="192.5" x2="221.24836" y2="17.5" stroke='blue' stroke-width='0.1' tags='slant'/>
    <line x1="93.3983" y1="192.5" x2="230.12329" y2="17.5" stroke='blue' stroke-width='0.1' tags='slant'/>
    <line x1="102.27323" y1="192.5" x2="238.99821" y2="17.5" stroke='blue' stroke-width='0.1' tags='slant'/>
    <line x1="111.14816" y1="192.5" x2="247.87314" y2="17.5" stroke='blue' stroke-width='0.1' tags='slant'/>
    <line x1="120.02308" y1="192.5" x2="256.74807" y2="17.5" stroke='blue' stroke-width='0.1' tags='slant'/>
    <line x1="128.89801" y1="192.5" x2="265.62299" y2="17.5" stroke='blue' stroke-width='0.1' tags='slant'/>
    <line x1="137.77293" y1="192.5" x2="271.0" y2="21.97713" stroke='blue' stroke-width='0.1' tags='slant'/>
    <line x1="146.64786" y1="192.5" x2="271.0" y2="33.33652" stroke='blue' stroke-width='0.1' tags='slant'/>
    <line x1="155.52278" y1="192.5" x2="271.0" y2="44.6959" stroke='blue' stroke-width='0.1' tags='slant'/>
    <line x1="164.39771" y1="192.5" x2="271.0" y2="56.05529" stroke='blue' stroke-width='0.1' tags='slant'/>
    <line x1="173.27264" y1="192.5" x2="271.0" y2="67.41468" stroke='blue' stroke-width='0.1' tags='slant'/>
    <line x1="182.14756" y1="192.5" x2="271.0" y2="78.77406" stroke='blue' stroke-width='0.1' tags='slant'/>
    <line x1="191.02249" y1="192.5" x2="271.0" y2="90.13345" stroke='blue' stroke-width='0.1' tags='slant'/>
    <line x1="199.89741" y1="192.5" x2="271.0" y2="101.49284" stroke='blue' stroke-width='0.1' tags='slant'/>
    <line x1="208.77234" y1="192.5" x2="271.0" y2="112.85222" stroke='blue' stroke-width='0.1' tags='slant'/>
    <line x1="217.64726" y1="192.5" x2="271.0" y2="124.21161" stroke='blue' stroke-width='0.1' tags='slant'/>
    <line x1="226.52219" y1="192.5" x2="271.0" y2="135.571" stroke='blue' stroke-width='0.1' tags='slant'/>
    <line x1="235.39711" y1="192.5" x2="271.0" y2="146.93038" stroke='blue' stroke-width='0.1' tags='slant'/>
    <line x1="244.27204" y1="192.5" x2="271.0" y2="158.28977" stroke='blue' stroke-width='0.1' tags='slant'/>
    <line x1="253.14697" y1="192.5" x2="271.0" y2="169.64916" stroke='blue' stroke-width='0.1' tags='slant'/>
    <line x1="262.02189" y1="192.5" x2="271.0" y2="181.00855" stroke='blue' stroke-width='0.1' tags='slant'/>
    <line x1="270.89682" y1="192.5" x2="271.0" y2="192.36793" stroke='blue' stroke-width='0.1' tags='slant'/>
    <line x1="26.0" y1="24.85733" x2="38.74327" y2="17.5" stroke='blue' stroke-width='0.07' stroke-dasharray='2, 2' tags='connective'/>
    <line x1="26.0" y1="32.21466" x2="51.48655" y2="17.5" stroke='blue' stroke-width='0.07' stroke-dasharray='2, 2' tags='connective'/>
    <line x1="26.0" y1="39.572" x2="64.22982" y2="17.5" stroke='blue' stroke-width='0.07' stroke-dasharray='2, 2' tags='connective'/>
    <line x1="26.0" y1="46.92933" x2="76.97309" y2="17.5" stroke='blue' stroke-width='0.07' stroke-dasharray='2, 2' tags='connective'/>
    <line x1="26.0" y1="54.28666" x2="89.71636" y2="17.5" stroke='blue' stroke-width='0.07' stroke-dasharray='2, 2' tags='connective'/>
    <line x1="26.0" y1="61.64399" x2="102.45964" y2="17.5" stroke='blue' stroke-width='0.07' stroke-dasharray='2, 2' tags='connective'/>
    <line x1="26.0" y1="69.00132" x2="115.20291" y2="17.5" stroke='blue' stroke-width='0.07' stroke-dasharray='2, 2' tags='connective'/>
    <line x1="26.0" y1="76.35866" x2="127.94618" y2="17.5" stroke='blue' stroke-width='0.07' stroke-dasharray='2, 2' tags='connective'/>
    <line x1="26.0" y1="83.71599" x2="140.68946" y2="17.5" stroke='blue' stroke-width='0.07' stroke-dasharray='2, 2' tags='connective'/>
    <line x1="26.0" y1="91.07332" x2="153.43273" y2="17.5" stroke='blue' stroke-width='0.07' stroke-dasharray='2, 2' tags='connective'/>
    <line x1="26.0" y1="98.43065" x2="166.176" y2="17.5" stroke='blue' stroke-width='0.07' stroke-dasharray='2, 2' tags='connective'/>
    <line x1="26.0" y1="105.78798" x2="178.91927" y2="17.5" stroke='blue' stroke-width='0.07' stroke-dasharray='2, 2' tags='connective'/>
    <line x1="26.0" y1="113.14532" x2="191.66255" y2="17.5" stroke='blue' stroke-width='0.07' stroke-dasharray='2, 2' tags='connective'/>
    <line x1="26.0" y1="120.50265" x2="204.40582" y2="17.5" stroke='blue' stroke-width='0.07' stroke-dasharray='2, 2' tags='connective'/>
    <line x1="26.0" y1="127.85998" x2="217.14909" y2="17.5" stroke='blue' stroke-width='0.07' stroke-dasharray='2, 2' tags='connective'/>
    <line x1="26.0" y1="135.21731" x2="229.89237" y2="17.5" stroke='blue' stroke-width='0.07' stroke-dasharray='2, 2' tags='connective'/>
    <line x1="26.0" y1="142.57464" x2="242.63564" y2="17.5" stroke='blue' stroke-width='0.07' stroke-dasharray='2, 2' tags='connective'/>
    <line x1="26.0" y1="149.93198" x2="255.37891" y2="17.5" stroke='blue' stroke-width='0.07' stroke-dasharray='2, 2' tags='connective'/>
    <line x1="26.0" y1="157.28931" x2="268.12218" y2="17.5" stroke='blue' stroke-width='0.07' stroke-dasharray='2, 2' tags='connective'/>
    <line x1="26.0" y1="164.64664" x2="271.0" y2="23.19582" stroke='blue' stroke-width='0.07' stroke-dasharray='2, 2' tags='connective'/>
    <line x1="26.0" y1="172.00397" x2="271.0" y2="30.55316" stroke='blue' stroke-width='0.07' stroke-dasharray='2, 2' tags='connective'/>
    <line x1="26.0" y1="179.3613" x2="271.0" y2="37.91049" stroke='blue' stroke-width='0.07' stroke-dasharray='2, 2' tags='connective'/>
    <line x1="26.0" y1="186.71864" x2="271.0" y2="45.26782" stroke='blue' stroke-width='0.07' stroke-dasharray='2, 2' tags='connective'/>
    <line x1="28.72966" y1="192.5" x2="271.0" y2="52.62515" stroke='blue' stroke-width='0.07' stroke-dasharray='2, 2' tags='connective'/>
    <line x1="41.47293" y1="192.5" x2="271.0" y2="59.98248" stroke='blue' stroke-width='0.07' stroke-dasharray='2, 2' tags='connective'/>
    <line x1="54.2162" y1="192.5" x2="271.0" y2="67.33982" stroke='blue' stroke-width='0.07' stroke-dasharray='2, 2' tags='connective'/>
    <line x1="66.95948" y1="192.5" x2="271.0" y2="74.69715" stroke='blue' stroke-width='0.07' stroke-dasharray='2, 2' tags='connective'/>
    <line x1="79.70275" y1="192.5" x2="271.0" y2="82.05448" stroke='blue' stroke-width='0.07' stroke-dasharray='2, 2' tags='connective'/>
    <line x1="92.44602" y1="192.5" x2="271.0" y2="89.41181" stroke='blue' stroke-width='0.07' stroke-dasharray='2, 2' tags='connective'/>
    <line x1="105.1893" y1="192.5" x2="271.0" y2="96.76914" stroke='blue' stroke-width='0.07' stroke-dasharray='2, 2' tags='connective'/>
    <line x1="117.93257" y1="192.5" x2="271.0" y2="104.12648" stroke='blue' stroke-width='0.07' stroke-dasharray='2, 2' tags='connective'/>
    <line x1="130.67584" y1="192.5" x2="271.0" y2="111.48381" stroke='blue' stroke-width='0.07' stroke-dasharray='2, 2' tags='connective'/>
    <line x1="143.41911" y1="192.5" x2="271.0" y2="118.84114" stroke='blue' stroke-width='0.07' stroke-dasharray='2, 2' tags='connective'/>
    <line x1="156.16239" y1="192.5" x2="271.0" y2="126.19847" stroke='blue' stroke-width='0.07' stroke-dasharray='2, 2' tags='connective'/>
    <line x1="168.90566" y1="192.5" x2="271.0" y2="133.5558" stroke='blue' stroke-width='0.07' stroke-dasharray='2, 2' tags='connective'/>
    <line x1="181.64893" y1="192.5" x2="271.0" y2="140.91314" stroke='blue' stroke-width='0.07' stroke-dasharray='2, 2' tags='connective'/>
    <line x1="194.39221" y1="192.5" x2="271.0" y2="148.27047" stroke='blue' stroke-width='0.07' stroke-dasharray='2, 2' tags='connective'/>
    <line x1="207.13548" y1="192.5" x2="271.0" y2="155.6278" stroke='blue' stroke-width='0.07' stroke-dasharray='2, 2' tags='connective'/>
    <line x1="219.87875" y1="192.5" x2="271.0" y2="162.98513" stroke='blue' stroke-width='0.07' stroke-dasharray='2, 2' tags='connective'/>
    <line x1="232.62202" y1="192.5" x2="271.0" y2="170.34247" stroke='blue' stroke-width='0.07' stroke-dasharray='2, 2' tags='connective'/>
    <line x1="245.3653" y1="192.5" x2="271.0" y2="177.6998" stroke='blue' stroke-width='0.07' stroke-dasharray='2, 2' tags='connective'/>
    <line x1="258.10857" y1="192.5" x2="271.0" y2="185.05713" stroke='blue' stroke-width='0.07' stroke-dasharray='2, 2' tags='connective'/>
    <line x1="270.85184" y1="192.5" x2="271.0" y2="192.41446" stroke='blue' stroke-width='0.07' stroke-dasharray='2, 2' tags='connective'/>
  </g>
</svg>
