<?xml version="1.0" standalone="no"?>
<!DOCTYPE svg PUBLIC "-//W3C//DTD SVG 1.1//EN" "http://www.w3.org/Graphics/SVG/1.1/DTD/svg11.dtd">
<svg xmlns="http://www.w3.org/2000/svg" width="297.0mm" height="210.0mm" viewBox="0 0 297.0 210.0" >

  <g id="sheet">
    <line x1="18.5" y1="25.0" x2="278.5" y2="25.0" stroke='blue' stroke-width='0.2' tags='ascender2'/>
    <line x1="18.5" y1="28.75" x2="278.5" y2="28.75" stroke='grey' stroke-width='0.1' stroke-dasharray='2, 2' tags='ascender1'/>
    <line x1="18.5" y1="32.5" x2="278.5" y2="32.5" stroke='grey' stroke-width='0.1' tags='waist'/>
    <line x1="18.5" y1="37.5" x2="278.5" y2="37.5" stroke='red' stroke-width='0.1' tags='base'/>
    <line x1="18.5" y1="41.25" x2="278.5" y2="41.25" stroke='grey' stroke-width='0.1' stroke-dasharray='2, 2' tags='descender1'/>
    <line x1="18.5" y1="45.0" x2="278.5" y2="45.0" stroke='blue' stroke-width='0.2' tags='descender2'/>
    <line x1="18.5" y1="48.75" x2="278.5" y2="48.75" stroke='grey' stroke-width='0.1' stroke-dasharray='2, 2' tags='ascender1'/>
    <line x1="18.5" y1="52.5" x2="278.5" y2="52.5" stroke='grey' stroke-width='0.1' tags='waist'/>
    <line x1="18.5" y1="57.5" x2="278.5" y2="57.5" stroke='red' stroke-width='0.1' tags='base'/>
    <line x1="18.5" y1="61.25" x2="278.5" y2="61.25" stroke='grey' stroke-width='0.1' stroke-dasharray='2, 2' tags='descender1'/>
    <line x1="18.5" y1="65.0" x2="278.5" y2="65.0" stroke='blue' stroke-width='0.2' tags='descender2'/>
    <line x1="18.5" y1="68.75" x2="278.5" y2="68.75" stroke='grey' stroke-width='0.1' stroke-dasharray='2, 2' tags='ascender1'/>
    <line x1="18.5" y1="72.5" x2="278.5" y2="72.5" stroke='grey' stroke-width='0.1' tags='waist'/>
    <line x1="18.5" y1="77.5" x2="278.5" y2="77.5" stroke='red' stroke-width='0.1' tags='base'/>
    <line x1="18.5" y1="81.25" x2="278.5" y2="81.25" stroke='grey' stroke-width='0.1' stroke-dasharray='2, 2' tags='descender1'/>
    <line x1="18.5" y1="85.0" x2="278.5" y2="85.0" stroke='blue' stroke-width='0.2' tags='descender2'/>
    <line x1="18.5" y1="88.75" x2="278.5" y2="88.75" stroke='grey' stroke-width='0.1' stroke-dasharray='2, 2' tags='ascender1'/>
    <line x1="18.5" y1="92.5" x2="278.5" y2="92.5" stroke='grey' stroke-width='0.1' tags='waist'/>
    <line x1="18.5" y1="97.5" x2="278.5" y2="97.5" stroke='red' stroke-width='0.1' tags='base'/>
    <line x1="18.5" y1="101.25" x2="278.5" y2="101.25" stroke='grey' stroke-width='0.1' stroke-dasharray='2, 2' tags='descender1'/>
    <line x1="18.5" y1="105.0" x2="278.5" y2="105.0" stroke='blue' stroke-width='0.2' tags='descender2'/>
    <line x1="18.5" y1="108.75" x2="278.5" y2="108.75" stroke='grey' stroke-width='0.1' stroke-dasharray='2, 2' tags='ascender1'/>
    <line x1="18.5" y1="112.5" x2="278.5" y2="112.5" stroke='grey' stroke-width='0.1' tags='waist'/>
    <line x1="18.5" y1="117.5" x2="278.5" y2="117.5" stroke='red' stroke-width='0.1' tags='base'/>
    <line x1="18.5" y1="121.25" x2="278.5" y2="121.25" stroke='grey' stroke-width='0.1' stroke-dasharray='2, 2' tags='descender1'/>
    <line x1="18.5" y1="125.0" x2="278.5" y2="125.0" stroke='blue' stroke-width='0.2' tags='descender2'/>
    <line x1="18.5" y1="128.75" x2="278.5" y2="128.75" stroke='grey' stroke-width='0.1' stroke-dasharray='2, 2' tags='ascender1'/>
    <line x1="18.5" y1="132.5" x2="278.5" y2="132.5" stroke='grey' stroke-width='0.1' tags='waist'/>
    <line x1="18.5" y1="137.5" x2="278.5" y2="137.5" stroke='red' stroke-width='0.1' tags='base'/>
    <line x1="18.5" y1="141.25" x2="278.5" y2="141.25" stroke='grey' stroke-width='0.1' stroke-dasharray='2, 2' tags='descender1'/>
    <line x1="18.5" y1="145.0" x2="278.5" y2="145.0" stroke='blue' stroke-width='0.2' tags='descender2'/>
    <line x1="18.5" y1="148.75" x2="278.5" y2="148.75" stroke='grey' stroke-width='0.1' stroke-dasharray='2, 2' tags='ascender1'/>
    <line x1="18.5" y1="152.5" x2="278.5" y2="152.5" stroke='grey' stroke-width='0.1' tags='waist'/>
    <line x1="18.5" y1="157.5" x2="278.5" y2="157.5" stroke='red' stroke-width='0.1' tags='base'/>
    <line x1="18.5" y1="161.25" x2="278.5" y2="161.25" stroke='grey' stroke-width='0.1' stroke-dasharray='2, 2' tags='descender1'/>
    <line x1="18.5" y1="165.0" x2="278.5" y2="165.0" stroke='blue' stroke-width='0.2' tags='descender2'/>
    <line x1="18.5" y1="168.75" x2="278.5" y2="168.75" stroke='grey' stroke-width='0.1' stroke-dasharray='2, 2' tags='ascender1'/>
    <line x1="18.5" y1="172.5" x2="278.5" y2="172.5" stroke='grey' stroke-width='0.1' tags='waist'/>
    <line x1="18.5" y1="177.5" x2="278.5" y2="177.5" stroke='red' stroke-width='0.1' tags='base'/>
    <line x1="18.5" y1="181.25" x2="278.5" y2="181.25" stroke='grey' stroke-width='0.1' stroke-dasharray='2, 2' tags='descender1'/>
    <line x1="18.5" y1="185.0" x2="278.5" y2="185.0" stroke='blue' stroke-width='0.2' tags='descender2'/>
    <line x1="18.5" y1="25.0" x2="18.5" y2="25.0" stroke='blue' stroke-width='0.1' tags='slant'/>
    <line x1="18.5" y1="33.07085" x2="24.80564" y2="25.0" stroke='blue' stroke-width='0.1' tags='slant'/>
    <line x1="18.5" y1="41.1417" x2="31.11128" y2="25.0" stroke='blue' stroke-width='0.1' tags='slant'/>
    <line x1="18.5" y1="49.21256" x2="37.41692" y2="25.0" stroke='blue' stroke-width='0.1' tags='slant'/>
    <line x1="18.5" y1="57.28341" x2="43.72256" y2="25.0" stroke='blue' stroke-width='0.1' tags='slant'/>
    <line x1="18.5" y1="65.35426" x2="50.0282" y2="25.0" stroke='blue' stroke-width='0.1' tags='slant'/>
    <line x1="18.5" y1="73.42511" x2="56.33384" y2="25.0" stroke='blue' stroke-width='0.1' tags='slant'/>
    <line x1="18.5" y1="81.49596" x2="62.63948" y2="25.0" stroke='blue' stroke-width='0.1' tags='slant'/>
    <line x1="18.5" y1="89.56681" x2="68.94512" y2="25.0" stroke='blue' stroke-width='0.1' tags='slant'/>
    <line x1="18.5" y1="97.63767" x2="75.25076" y2="25.0" stroke='blue' stroke-width='0.1' tags='slant'/>
    <line x1="18.5" y1="105.70852" x2="81.55641" y2="25.0" stroke='blue' stroke-width='0.1' tags='slant'/>
    <line x1="18.5" y1="113.77937" x2="87.86205" y2="25.0" stroke='blue' stroke-width='0.1' tags='slant'/>
    <line x1="18.5" y1="121.85022" x2="94.16769" y2="25.0" stroke='blue' stroke-width='0.1' tags='slant'/>
    <line x1="18.5" y1="129.92107" x2="100.47333" y2="25.0" stroke='blue' stroke-width='0.1' tags='slant'/>
    <line x1="18.5" y1="137.99193" x2="106.77897" y2="25.0" stroke='blue' stroke-width='0.1' tags='slant'/>
    <line x1="18.5" y1="146.06278" x2="113.08461" y2="25.0" stroke='blue' stroke-width='0.1' tags='slant'/>
    <line x1="18.5" y1="154.13363" x2="119.39025" y2="25.0" stroke='blue' stroke-width='0.1' tags='slant'/>
    <line x1="18.5" y1="162.20448" x2="125.69589" y2="25.0" stroke='blue' stroke-width='0.1' tags='slant'/>
    <line x1="18.5" y1="170.27533" x2="132.00153" y2="25.0" stroke='blue' stroke-width='0.1' tags='slant'/>
    <line x1="18.5" y1="178.34618" x2="138.30717" y2="25.0" stroke='blue' stroke-width='0.1' tags='slant'/>
    <line x1="19.60711" y1="185.0" x2="144.61281" y2="25.0" stroke='blue' stroke-width='0.1' tags='slant'/>
    <line x1="25.91275" y1="185.0" x2="150.91845" y2="25.0" stroke='blue' stroke-width='0.1' tags='slant'/>
    <line x1="32.21839" y1="185.0" x2="157.22409" y2="25.0" stroke='blue' stroke-width='0.1' tags='slant'/>
    <line x1="38.52403" y1="185.0" x2="163.52973" y2="25.0" stroke='blue' stroke-width='0.1' tags='slant'/>
    <line x1="44.82967" y1="185.0" x2="169.83537" y2="25.0" stroke='blue' stroke-width='0.1' tags='slant'/>
    <line x1="51.13531" y1="185.0" x2="176.14101" y2="25.0" stroke='blue' stroke-width='0.1' tags='slant'/>
    <line x1="57.44095" y1="185.0" x2="182.44665" y2="25.0" stroke='blue' stroke-width='0.1' tags='slant'/>
    <line x1="63.74659" y1="185.0" x2="188.75229" y2="25.0" stroke='blue' stroke-width='0.1' tags='slant'/>
    <line x1="70.05223" y1="185.0" x2="195.05793" y2="25.0" stroke='blue' stroke-width='0.1' tags='slant'/>
    <line x1="76.35787" y1="185.0" x2="201.36357" y2="25.0" stroke='blue' stroke-width='0.1' tags='slant'/>
    <line x1="82.66352" y1="185.0" x2="207.66922" y2="25.0" stroke='blue' stroke-width='0.1' tags='slant'/>
    <line x1="88.96916" y1="185.0" x2="213.97486" y2="25.0" stroke='blue' stroke-width='0.1' tags='slant'/>
    <line x1="95.2748" y1="185.0" x2="220.2805" y2="25.0" stroke='blue' stroke-width='0.1' tags='slant'/>
    <line x1="101.58044" y1="185.0" x2="226.58614" y2="25.0" stroke='blue' stroke-width='0.1' tags='slant'/>
    <line x1="107.88608" y1="185.0" x2="232.89178" y2="25.0" stroke='blue' stroke-width='0.1' tags='slant'/>
    <line x1="114.19172" y1="185.0" x2="239.19742" y2="25.0" stroke='blue' stroke-width='0.1' tags='slant'/>
    <line x1="120.49736" y1="185.0" x2="245.50306" y2="25.0" stroke='blue' stroke-width='0.1' tags='slant'/>
    <line x1="126.803" y1="185.0" x2="251.8087" y2="25.0" stroke='blue' stroke-width='0.1' tags='slant'/>
    <line x1="133.10864" y1="185.0" x2="258.11434" y2="25.0" stroke='blue' stroke-width='0.1' tags='slant'/>
    <line x1="139.41428" y1="185.0" x2="264.41998" y2="25.0" stroke='blue' stroke-width='0.1' tags='slant'/>
    <line x1="145.71992" y1="185.0" x2="270.72562" y2="25.0" stroke='blue' stroke-width='0.1' tags='slant'/>
    <line x1="152.02556" y1="185.0" x2="277.03126" y2="25.0" stroke='blue' stroke-width='0.1' tags='slant'/>
    <line x1="158.3312" y1="185.0" x2="278.5" y2="31.19095" stroke='blue' stroke-width='0.1' tags='slant'/>
    <line x1="164.63684" y1="185.0" x2="278.5" y2="39.2618" stroke='blue' stroke-width='0.1' tags='slant'/>
    <line x1="170.94248" y1="185.0" x2="278.5" y2="47.33266" stroke='blue' stroke-width='0.1' tags='slant'/>
    <line x1="177.24812" y1="185.0" x2="278.5" y2="55.40351" stroke='blue' stroke-width='0.1' tags='slant'/>
    <line x1="183.55376" y1="185.0" x2="278.5" y2="63.47436" stroke='blue' stroke-width='0.1' tags='slant'/>
    <line x1="189.8594" y1="185.0" x2="278.5" y2="71.54521" stroke='blue' stroke-width='0.1' tags='slant'/>
    <line x1="196.16504" y1="185.0" x2="278.5" y2="79.61606" stroke='blue' stroke-width='0.1' tags='slant'/>
    <line x1="202.47068" y1="185.0" x2="278.5" y2="87.68691" stroke='blue' stroke-width='0.1' tags='slant'/>
    <line x1="208.77633" y1="185.0" x2="278.5" y2="95.75777" stroke='blue' stroke-width='0.1' tags='slant'/>
    <line x1="215.08197" y1="185.0" x2="278.5" y2="103.82862" stroke='blue' stroke-width='0.1' tags='slant'/>
    <line x1="221.38761" y1="185.0" x2="278.5" y2="111.89947" stroke='blue' stroke-width='0.1' tags='slant'/>
    <line x1="227.69325" y1="185.0" x2="278.5" y2="119.97032" stroke='blue' stroke-width='0.1' tags='slant'/>
    <line x1="233.99889" y1="185.0" x2="278.5" y2="128.04117" stroke='blue' stroke-width='0.1' tags='slant'/>
    <line x1="240.30453" y1="185.0" x2="278.5" y2="136.11203" stroke='blue' stroke-width='0.1' tags='slant'/>
    <line x1="246.61017" y1="185.0" x2="278.5" y2="144.18288" stroke='blue' stroke-width='0.1' tags='slant'/>
    <line x1="252.91581" y1="185.0" x2="278.5" y2="152.25373" stroke='blue' stroke-width='0.1' tags='slant'/>
    <line x1="259.22145" y1="185.0" x2="278.5" y2="160.32458" stroke='blue' stroke-width='0.1' tags='slant'/>
    <line x1="265.52709" y1="185.0" x2="278.5" y2="168.39543" stroke='blue' stroke-width='0.1' tags='slant'/>
    <line x1="271.83273" y1="185.0" x2="278.5" y2="176.46628" stroke='blue' stroke-width='0.1' tags='slant'/>
    <line x1="278.13837" y1="185.0" x2="278.5" y2="184.53714" stroke='blue' stroke-width='0.1' tags='slant'/>
    <line x1="18.5" y1="30.07901" x2="27.29711" y2="25.0" stroke='blue' stroke-width='0.07' stroke-dasharray='2, 2' tags='connective'/>
    <line x1="18.5" y1="35.15803" x2="36.09422" y2="25.0" stroke='blue' stroke-width='0.07' stroke-dasharray='2, 2' tags='connective'/>
    <line x1="18.5" y1="40.23704" x2="44.89133" y2="25.0" stroke='blue' stroke-width='0.07' stroke-dasharray='2, 2' tags='connective'/>
    <line x1="18.5" y1="45.31605" x2="53.68843" y2="25.0" stroke='blue' stroke-width='0.07' stroke-dasharray='2, 2' tags='connective'/>
    <line x1="18.5" y1="50.39506" x2="62.48554" y2="25.0" stroke='blue' stroke-width='0.07' stroke-dasharray='2, 2' tags='connective'/>
    <line x1="18.5" y1="55.47408" x2="71.28265" y2="25.0" stroke='blue' stroke-width='0.07' stroke-dasharray='2, 2' tags='connective'/>
    <line x1="18.5" y1="60.55309" x2="80.07976" y2="25.0" stroke='blue' stroke-width='0.07' stroke-dasharray='2, 2' tags='connective'/>
    <line x1="18.5" y1="65.6321" x2="88.87687" y2="25.0" stroke='blue' stroke-width='0.07' stroke-dasharray='2, 2' tags='connective'/>
    <line x1="18.5" y1="70.71112" x2="97.67398" y2="25.0" stroke='blue' stroke-width='0.07' stroke-dasharray='2, 2' tags='connective'/>
    <line x1="18.5" y1="75.79013" x2="106.47108" y2="25.0" stroke='blue' stroke-width='0.07' stroke-dasharray='2, 2' tags='connective'/>
    <line x1="18.5" y1="80.86914" x2="115.26819" y2="25.0" stroke='blue' stroke-width='0.07' stroke-dasharray='2, 2' tags='connective'/>
    <line x1="18.5" y1="85.94816" x2="124.0653" y2="25.0" stroke='blue' stroke-width='0.07' stroke-dasharray='2, 2' tags='connective'/>
    <line x1="18.5" y1="91.02717" x2="132.86241" y2="25.0" stroke='blue' stroke-width='0.07' stroke-dasharray='2, 2' tags='connective'/>
    <line x1="18.5" y1="96.10618" x2="141.65952" y2="25.0" stroke='blue' stroke-width='0.07' stroke-dasharray='2, 2' tags='connective'/>
    <line x1="18.5" y1="101.18519" x2="150.45663" y2="25.0" stroke='blue' stroke-width='0.07' stroke-dasharray='2, 2' tags='connective'/>
    <line x1="18.5" y1="106.26421" x2="159.25373" y2="25.0" stroke='blue' stroke-width='0.07' stroke-dasharray='2, 2' tags='connective'/>
    <line x1="18.5" y1="111.34322" x2="168.05084" y2="25.0" stroke='blue' stroke-width='0.07' stroke-dasharray='2, 2' tags='connective'/>
    <line x1="18.5" y1="116.42223" x2="176.84795" y2="25.0" stroke='blue' stroke-width='0.07' stroke-dasharray='2, 2' tags='connective'/>
    <line x1="18.5" y1="121.50125" x2="185.64506" y2="25.0" stroke='blue' stroke-width='0.07' stroke-dasharray='2, 2' tags='connective'/>
    <line x1="18.5" y1="126.58026" x2="194.44217" y2="25.0" stroke='blue' stroke-width='0.07' stroke-dasharray='2, 2' tags='connective'/>
    <line x1="18.5" y1="131.65927" x2="203.23928" y2="25.0" stroke='blue' stroke-width='0.07' stroke-dasharray='2, 2' tags='connective'/>
    <line x1="18.5" y1="136.73828" x2="212.03639" y2="25.0" stroke='blue' stroke-width='0.07' stroke-dasharray='2, 2' tags='connective'/>
    <line x1="18.5" y1="141.8173" x2="220.83349" y2="25.0" stroke='blue' stroke-width='0.07' stroke-dasharray='2, 2' tags='connective'/>
    <line x1="18.5" y1="146.89631" x2="229.6306" y2="25.0" stroke='blue' stroke-width='0.07' stroke-dasharray='2, 2' tags='connective'/>
    <line x1="18.5" y1="151.97532" x2="238.42771" y2="25.0" stroke='blue' stroke-width='0.07' stroke-dasharray='2, 2' tags='connective'/>
    <line x1="18.5" y1="157.05434" x2="247.22482" y2="25.0" stroke='blue' stroke-width='0.07' stroke-dasharray='2, 2' tags='connective'/>
    <line x1="18.5" y1="162.13335" x2="256.02193" y2="25.0" stroke='blue' stroke-width='0.07' stroke-dasharray='2, 2' tags='connective'/>
    <line x1="18.5" y1="167.21236" x2="264.81904" y2="25.0" stroke='blue' stroke-width='0.07' stroke-dasharray='2, 2' tags='connective'/>
    <line x1="18.5" y1="172.29137" x2="273.61614" y2="25.0" stroke='blue' stroke-width='0.07' stroke-dasharray='2, 2' tags='connective'/>
    <line x1="18.5" y1="177.37039" x2="278.5" y2="27.25932" stroke='blue' stroke-width='0.07' stroke-dasharray='2, 2' tags='connective'/>
    <line x1="18.5" y1="182.4494" x2="278.5" y2="32.33833" stroke='blue' stroke-width='0.07' stroke-dasharray='2, 2' tags='connective'/>
    <line x1="22.87934" y1="185.0" x2="278.5" y2="37.41734" stroke='blue' stroke-width='0.07' stroke-dasharray='2, 2' tags='connective'/>
    <line x1="31.67645" y1="185.0" x2="278.5" y2="42.49636" stroke='blue' stroke-width='0.07' stroke-dasharray='2, 2' tags='connective'/>
    <line x1="40.47356" y1="185.0" x2="278.5" y2="47.57537" stroke='blue' stroke-width='0.07' stroke-dasharray='2, 2' tags='connective'/>
    <line x1="49.27067" y1="185.0" x2="278.5" y2="52.65438" stroke='blue' stroke-width='0.07' stroke-dasharray='2, 2' tags='connective'/>
    <line x1="58.06777" y1="185.0" x2="278.5" y2="57.7334" stroke='blue' stroke-width='0.07' stroke-dasharray='2, 2' tags='connective'/>
    <line x1="66.86488" y1="185.0" x2="278.5" y2="62.81241" stroke='blue' stroke-width='0.07' stroke-dasharray='2, 2' tags='connective'/>
    <line x1="75.66199" y1="185.0" x2="278.5" y2="67.89142" stroke='blue' stroke-width='0.07' stroke-dasharray='2, 2' tags='connective'/>
    <line x1="84.4591" y1="185.0" x2="278.5" y2="72.97043" stroke='blue' stroke-width='0.07' stroke-dasharray='2, 2' tags='connective'/>
    <line x1="93.25621" y1="185.0" x2="278.5" y2="78.04945" stroke='blue' stroke-width='0.07' stroke-dasharray='2, 2' tags='connective'/>
    <line x1="102.05332" y1="185.0" x2="278.5" y2="83.12846" stroke='blue' stroke-width='0.07' stroke-dasharray='2, 2' tags='connective'/>
    <line x1="110.85042" y1="185.0" x2="278.5" y2="88.20747" stroke='blue' stroke-width='0.07' stroke-dasharray='2, 2' tags='connective'/>
    <line x1="119.64753" y1="185.0" x2="278.5" y2="93.28649" stroke='blue' stroke-width='0.07' stroke-dasharray='2, 2' tags='connective'/>
    <line x1="128.44464" y1="185.0" x2="278.5" y2="98.3655" stroke='blue' stroke-width='0.07' stroke-dasharray='2, 2' tags='connective'/>
    <line x1="137.24175" y1="185.0" x2="278.5" y2="103.44451" stroke='blue' stroke-width='0.07' stroke-dasharray='2, 2' tags='connective'/>
    <line x1="146.03886" y1="185.0" x2="278.5" y2="108.52352" stroke='blue' stroke-width='0.07' stroke-dasharray='2, 2' tags='connective'/>
    <line x1="154.83597" y1="185.0" x2="278.5" y2="113.60254" stroke='blue' stroke-width='0.07' stroke-dasharray='2, 2' tags='connective'/>
    <line x1="163.63308" y1="185.0" x2="278.5" y2="118.68155" stroke='blue' stroke-width='0.07' stroke-dasharray='2, 2' tags='connective'/>
    <line x1="172.43018" y1="185.0" x2="278.5" y2="123.76056" stroke='blue' stroke-width='0.07' stroke-dasharray='2, 2' tags='connective'/>
    <line x1="181.22729" y1="185.0" x2="278.5" y2="128.83958" stroke='blue' stroke-width='0.07' stroke-dasharray='2, 2' tags='connective'/>
    <line x1="190.0244" y1="185.0" x2="278.5" y2="133.91859" stroke='blue' stroke-width='0.07' stroke-dasharray='2, 2' tags='connective'/>
    <line x1="198.82151" y1="185.0" x2="278.5" y2="138.9976" stroke='blue' stroke-width='0.07' stroke-dasharray='2, 2' tags='connective'/>
    <line x1="207.61862" y1="185.0" x2="278.5" y2="144.07661" stroke='blue' stroke-width='0.07' stroke-dasharray='2, 2' tags='connective'/>
    <line x1="216.41573" y1="185.0" x2="278.5" y2="149.15563" stroke='blue' stroke-width='0.07' stroke-dasharray='2, 2' tags='connective'/>
    <line x1="225.21283" y1="185.0" x2="278.5" y2="154.23464" stroke='blue' stroke-width='0.07' stroke-dasharray='2, 2' tags='connective'/>
    <line x1="234.00994" y1="185.0" x2="278.5" y2="159.31365" stroke='blue' stroke-width='0.07' stroke-dasharray='2, 2' tags='connective'/>
    <line x1="242.80705" y1="185.0" x2="278.5" y2="164.39267" stroke='blue' stroke-width='0.07' stroke-dasharray='2, 2' tags='connective'/>
    <line x1="251.60416" y1="185.0" x2="278.5" y2="169.47168" stroke='blue' stroke-width='0.07' stroke-dasharray='2, 2' tags='connective'/>
    <line x1="260.40127" y1="185.0" x2="278.5" y2="174.55069" stroke='blue' stroke-width='0.07' stroke-dasharray='2, 2' tags='connective'/>
    <line x1="269.19838" y1="185.0" x2="278.5" y2="179.62971" stroke='blue' stroke-width='0.07' stroke-dasharray='2, 2' tags='connective'/>
    <line x1="277.99549" y1="185.0" x2="278.5" y2="184.70872" stroke='blue' stroke-width='0.07' stroke-dasharray='2, 2' tags='connective'/>
  </g>
</svg>
